<?xml version="1.0" encoding="utf-8" standalone="no"?>
<!DOCTYPE svg PUBLIC "-//W3C//DTD SVG 1.1//EN"
  "http://www.w3.org/Graphics/SVG/1.1/DTD/svg11.dtd">
<!-- Created with matplotlib (https://matplotlib.org/) -->
<svg height="345.6pt" version="1.1" viewBox="0 0 460.8 345.6" width="460.8pt" xmlns="http://www.w3.org/2000/svg" xmlns:xlink="http://www.w3.org/1999/xlink">
 <defs>
  <style type="text/css">
*{stroke-linecap:butt;stroke-linejoin:round;}
  </style>
 </defs>
 <g id="figure_1">
  <g id="patch_1">
   <path d="M 0 345.6 
L 460.8 345.6 
L 460.8 0 
L 0 0 
z
" style="fill:#ffffff;"/>
  </g>
  <g id="axes_1">
   <g id="patch_2">
    <path d="M 57.6 307.584 
L 414.72 307.584 
L 414.72 41.472 
L 57.6 41.472 
z
" style="fill:#ffffff;"/>
   </g>
   <g id="matplotlib.axis_1">
    <g id="xtick_1">
     <g id="line2d_1">
      <path clip-path="url(#p3b0d74e1fa)" d="M 73.832727 307.584 
L 73.832727 41.472 
" style="fill:none;stroke:#b0b0b0;stroke-linecap:square;stroke-width:0.8;"/>
     </g>
     <g id="line2d_2">
      <defs>
       <path d="M 0 0 
L 0 3.5 
" id="m062f538a3f" style="stroke:#000000;stroke-width:0.8;"/>
      </defs>
      <g>
       <use style="stroke:#000000;stroke-width:0.8;" x="73.832727" xlink:href="#m062f538a3f" y="307.584"/>
      </g>
     </g>
     <g id="text_1">
      <!-- 0 -->
      <defs>
       <path d="M 46 36.53125 
Q 46 50.203125 43.4375 55.78125 
Q 40.875 61.375 34.8125 61.375 
Q 28.765625 61.375 26.171875 55.78125 
Q 23.578125 50.203125 23.578125 36.53125 
Q 23.578125 22.703125 26.171875 17.03125 
Q 28.765625 11.375 34.8125 11.375 
Q 40.828125 11.375 43.40625 17.03125 
Q 46 22.703125 46 36.53125 
z
M 64.796875 36.375 
Q 64.796875 18.265625 56.984375 8.421875 
Q 49.171875 -1.421875 34.8125 -1.421875 
Q 20.40625 -1.421875 12.59375 8.421875 
Q 4.78125 18.265625 4.78125 36.375 
Q 4.78125 54.546875 12.59375 64.375 
Q 20.40625 74.21875 34.8125 74.21875 
Q 49.171875 74.21875 56.984375 64.375 
Q 64.796875 54.546875 64.796875 36.375 
z
" id="DejaVuSans-Bold-48"/>
      </defs>
      <g transform="translate(69.65804 323.702125)scale(0.12 -0.12)">
       <use xlink:href="#DejaVuSans-Bold-48"/>
      </g>
     </g>
    </g>
    <g id="xtick_2">
     <g id="line2d_3">
      <path clip-path="url(#p3b0d74e1fa)" d="M 114.516254 307.584 
L 114.516254 41.472 
" style="fill:none;stroke:#b0b0b0;stroke-linecap:square;stroke-width:0.8;"/>
     </g>
     <g id="line2d_4">
      <g>
       <use style="stroke:#000000;stroke-width:0.8;" x="114.516254" xlink:href="#m062f538a3f" y="307.584"/>
      </g>
     </g>
     <g id="text_2">
      <!-- 50 -->
      <defs>
       <path d="M 10.59375 72.90625 
L 57.328125 72.90625 
L 57.328125 59.078125 
L 25.59375 59.078125 
L 25.59375 47.796875 
Q 27.734375 48.390625 29.90625 48.703125 
Q 32.078125 49.03125 34.421875 49.03125 
Q 47.75 49.03125 55.171875 42.359375 
Q 62.59375 35.6875 62.59375 23.78125 
Q 62.59375 11.96875 54.515625 5.265625 
Q 46.4375 -1.421875 32.078125 -1.421875 
Q 25.875 -1.421875 19.796875 -0.21875 
Q 13.71875 0.984375 7.71875 3.421875 
L 7.71875 18.21875 
Q 13.671875 14.796875 19.015625 13.078125 
Q 24.359375 11.375 29.109375 11.375 
Q 35.9375 11.375 39.859375 14.71875 
Q 43.796875 18.0625 43.796875 23.78125 
Q 43.796875 29.546875 39.859375 32.859375 
Q 35.9375 36.1875 29.109375 36.1875 
Q 25.046875 36.1875 20.453125 35.125 
Q 15.875 34.078125 10.59375 31.890625 
z
" id="DejaVuSans-Bold-53"/>
      </defs>
      <g transform="translate(106.166879 323.702125)scale(0.12 -0.12)">
       <use xlink:href="#DejaVuSans-Bold-53"/>
       <use x="69.580078" xlink:href="#DejaVuSans-Bold-48"/>
      </g>
     </g>
    </g>
    <g id="xtick_3">
     <g id="line2d_5">
      <path clip-path="url(#p3b0d74e1fa)" d="M 155.199781 307.584 
L 155.199781 41.472 
" style="fill:none;stroke:#b0b0b0;stroke-linecap:square;stroke-width:0.8;"/>
     </g>
     <g id="line2d_6">
      <g>
       <use style="stroke:#000000;stroke-width:0.8;" x="155.199781" xlink:href="#m062f538a3f" y="307.584"/>
      </g>
     </g>
     <g id="text_3">
      <!-- 100 -->
      <defs>
       <path d="M 11.71875 12.984375 
L 28.328125 12.984375 
L 28.328125 60.109375 
L 11.28125 56.59375 
L 11.28125 69.390625 
L 28.21875 72.90625 
L 46.09375 72.90625 
L 46.09375 12.984375 
L 62.703125 12.984375 
L 62.703125 0 
L 11.71875 0 
z
" id="DejaVuSans-Bold-49"/>
      </defs>
      <g transform="translate(142.675719 323.702125)scale(0.12 -0.12)">
       <use xlink:href="#DejaVuSans-Bold-49"/>
       <use x="69.580078" xlink:href="#DejaVuSans-Bold-48"/>
       <use x="139.160156" xlink:href="#DejaVuSans-Bold-48"/>
      </g>
     </g>
    </g>
    <g id="xtick_4">
     <g id="line2d_7">
      <path clip-path="url(#p3b0d74e1fa)" d="M 195.883308 307.584 
L 195.883308 41.472 
" style="fill:none;stroke:#b0b0b0;stroke-linecap:square;stroke-width:0.8;"/>
     </g>
     <g id="line2d_8">
      <g>
       <use style="stroke:#000000;stroke-width:0.8;" x="195.883308" xlink:href="#m062f538a3f" y="307.584"/>
      </g>
     </g>
     <g id="text_4">
      <!-- 150 -->
      <g transform="translate(183.359246 323.702125)scale(0.12 -0.12)">
       <use xlink:href="#DejaVuSans-Bold-49"/>
       <use x="69.580078" xlink:href="#DejaVuSans-Bold-53"/>
       <use x="139.160156" xlink:href="#DejaVuSans-Bold-48"/>
      </g>
     </g>
    </g>
    <g id="xtick_5">
     <g id="line2d_9">
      <path clip-path="url(#p3b0d74e1fa)" d="M 236.566835 307.584 
L 236.566835 41.472 
" style="fill:none;stroke:#b0b0b0;stroke-linecap:square;stroke-width:0.8;"/>
     </g>
     <g id="line2d_10">
      <g>
       <use style="stroke:#000000;stroke-width:0.8;" x="236.566835" xlink:href="#m062f538a3f" y="307.584"/>
      </g>
     </g>
     <g id="text_5">
      <!-- 200 -->
      <defs>
       <path d="M 28.8125 13.8125 
L 60.890625 13.8125 
L 60.890625 0 
L 7.90625 0 
L 7.90625 13.8125 
L 34.515625 37.3125 
Q 38.09375 40.53125 39.796875 43.609375 
Q 41.5 46.6875 41.5 50 
Q 41.5 55.125 38.0625 58.25 
Q 34.625 61.375 28.90625 61.375 
Q 24.515625 61.375 19.28125 59.5 
Q 14.0625 57.625 8.109375 53.90625 
L 8.109375 69.921875 
Q 14.453125 72.015625 20.65625 73.109375 
Q 26.859375 74.21875 32.8125 74.21875 
Q 45.90625 74.21875 53.15625 68.453125 
Q 60.40625 62.703125 60.40625 52.390625 
Q 60.40625 46.4375 57.328125 41.28125 
Q 54.25 36.140625 44.390625 27.484375 
z
" id="DejaVuSans-Bold-50"/>
      </defs>
      <g transform="translate(224.042773 323.702125)scale(0.12 -0.12)">
       <use xlink:href="#DejaVuSans-Bold-50"/>
       <use x="69.580078" xlink:href="#DejaVuSans-Bold-48"/>
       <use x="139.160156" xlink:href="#DejaVuSans-Bold-48"/>
      </g>
     </g>
    </g>
    <g id="xtick_6">
     <g id="line2d_11">
      <path clip-path="url(#p3b0d74e1fa)" d="M 277.250362 307.584 
L 277.250362 41.472 
" style="fill:none;stroke:#b0b0b0;stroke-linecap:square;stroke-width:0.8;"/>
     </g>
     <g id="line2d_12">
      <g>
       <use style="stroke:#000000;stroke-width:0.8;" x="277.250362" xlink:href="#m062f538a3f" y="307.584"/>
      </g>
     </g>
     <g id="text_6">
      <!-- 250 -->
      <g transform="translate(264.7263 323.702125)scale(0.12 -0.12)">
       <use xlink:href="#DejaVuSans-Bold-50"/>
       <use x="69.580078" xlink:href="#DejaVuSans-Bold-53"/>
       <use x="139.160156" xlink:href="#DejaVuSans-Bold-48"/>
      </g>
     </g>
    </g>
    <g id="xtick_7">
     <g id="line2d_13">
      <path clip-path="url(#p3b0d74e1fa)" d="M 317.933889 307.584 
L 317.933889 41.472 
" style="fill:none;stroke:#b0b0b0;stroke-linecap:square;stroke-width:0.8;"/>
     </g>
     <g id="line2d_14">
      <g>
       <use style="stroke:#000000;stroke-width:0.8;" x="317.933889" xlink:href="#m062f538a3f" y="307.584"/>
      </g>
     </g>
     <g id="text_7">
      <!-- 300 -->
      <defs>
       <path d="M 46.578125 39.3125 
Q 53.953125 37.40625 57.78125 32.6875 
Q 61.625 27.984375 61.625 20.703125 
Q 61.625 9.859375 53.3125 4.21875 
Q 45.015625 -1.421875 29.109375 -1.421875 
Q 23.484375 -1.421875 17.84375 -0.515625 
Q 12.203125 0.390625 6.6875 2.203125 
L 6.6875 16.703125 
Q 11.96875 14.0625 17.15625 12.71875 
Q 22.359375 11.375 27.390625 11.375 
Q 34.859375 11.375 38.84375 13.953125 
Q 42.828125 16.546875 42.828125 21.390625 
Q 42.828125 26.375 38.75 28.9375 
Q 34.671875 31.5 26.703125 31.5 
L 19.1875 31.5 
L 19.1875 43.609375 
L 27.09375 43.609375 
Q 34.1875 43.609375 37.640625 45.828125 
Q 41.109375 48.046875 41.109375 52.59375 
Q 41.109375 56.78125 37.734375 59.078125 
Q 34.375 61.375 28.21875 61.375 
Q 23.6875 61.375 19.046875 60.34375 
Q 14.40625 59.328125 9.8125 57.328125 
L 9.8125 71.09375 
Q 15.375 72.65625 20.84375 73.4375 
Q 26.3125 74.21875 31.59375 74.21875 
Q 45.796875 74.21875 52.84375 69.546875 
Q 59.90625 64.890625 59.90625 55.515625 
Q 59.90625 49.125 56.53125 45.046875 
Q 53.171875 40.96875 46.578125 39.3125 
z
" id="DejaVuSans-Bold-51"/>
      </defs>
      <g transform="translate(305.409827 323.702125)scale(0.12 -0.12)">
       <use xlink:href="#DejaVuSans-Bold-51"/>
       <use x="69.580078" xlink:href="#DejaVuSans-Bold-48"/>
       <use x="139.160156" xlink:href="#DejaVuSans-Bold-48"/>
      </g>
     </g>
    </g>
    <g id="xtick_8">
     <g id="line2d_15">
      <path clip-path="url(#p3b0d74e1fa)" d="M 358.617416 307.584 
L 358.617416 41.472 
" style="fill:none;stroke:#b0b0b0;stroke-linecap:square;stroke-width:0.8;"/>
     </g>
     <g id="line2d_16">
      <g>
       <use style="stroke:#000000;stroke-width:0.8;" x="358.617416" xlink:href="#m062f538a3f" y="307.584"/>
      </g>
     </g>
     <g id="text_8">
      <!-- 350 -->
      <g transform="translate(346.093354 323.702125)scale(0.12 -0.12)">
       <use xlink:href="#DejaVuSans-Bold-51"/>
       <use x="69.580078" xlink:href="#DejaVuSans-Bold-53"/>
       <use x="139.160156" xlink:href="#DejaVuSans-Bold-48"/>
      </g>
     </g>
    </g>
    <g id="xtick_9">
     <g id="line2d_17">
      <path clip-path="url(#p3b0d74e1fa)" d="M 399.300943 307.584 
L 399.300943 41.472 
" style="fill:none;stroke:#b0b0b0;stroke-linecap:square;stroke-width:0.8;"/>
     </g>
     <g id="line2d_18">
      <g>
       <use style="stroke:#000000;stroke-width:0.8;" x="399.300943" xlink:href="#m062f538a3f" y="307.584"/>
      </g>
     </g>
     <g id="text_9">
      <!-- 400 -->
      <defs>
       <path d="M 36.8125 57.421875 
L 16.21875 26.90625 
L 36.8125 26.90625 
z
M 33.6875 72.90625 
L 54.59375 72.90625 
L 54.59375 26.90625 
L 64.984375 26.90625 
L 64.984375 13.28125 
L 54.59375 13.28125 
L 54.59375 0 
L 36.8125 0 
L 36.8125 13.28125 
L 4.5 13.28125 
L 4.5 29.390625 
z
" id="DejaVuSans-Bold-52"/>
      </defs>
      <g transform="translate(386.776881 323.702125)scale(0.12 -0.12)">
       <use xlink:href="#DejaVuSans-Bold-52"/>
       <use x="69.580078" xlink:href="#DejaVuSans-Bold-48"/>
       <use x="139.160156" xlink:href="#DejaVuSans-Bold-48"/>
      </g>
     </g>
    </g>
    <g id="text_10">
     <!-- Epochs [#] -->
     <defs>
      <path d="M 9.8125 72.90625 
L 55.90625 72.90625 
L 55.90625 64.59375 
L 19.671875 64.59375 
L 19.671875 43.015625 
L 54.390625 43.015625 
L 54.390625 34.71875 
L 19.671875 34.71875 
L 19.671875 8.296875 
L 56.78125 8.296875 
L 56.78125 0 
L 9.8125 0 
z
" id="DejaVuSans-69"/>
      <path d="M 18.109375 8.203125 
L 18.109375 -20.796875 
L 9.078125 -20.796875 
L 9.078125 54.6875 
L 18.109375 54.6875 
L 18.109375 46.390625 
Q 20.953125 51.265625 25.265625 53.625 
Q 29.59375 56 35.59375 56 
Q 45.5625 56 51.78125 48.09375 
Q 58.015625 40.1875 58.015625 27.296875 
Q 58.015625 14.40625 51.78125 6.484375 
Q 45.5625 -1.421875 35.59375 -1.421875 
Q 29.59375 -1.421875 25.265625 0.953125 
Q 20.953125 3.328125 18.109375 8.203125 
z
M 48.6875 27.296875 
Q 48.6875 37.203125 44.609375 42.84375 
Q 40.53125 48.484375 33.40625 48.484375 
Q 26.265625 48.484375 22.1875 42.84375 
Q 18.109375 37.203125 18.109375 27.296875 
Q 18.109375 17.390625 22.1875 11.75 
Q 26.265625 6.109375 33.40625 6.109375 
Q 40.53125 6.109375 44.609375 11.75 
Q 48.6875 17.390625 48.6875 27.296875 
z
" id="DejaVuSans-112"/>
      <path d="M 30.609375 48.390625 
Q 23.390625 48.390625 19.1875 42.75 
Q 14.984375 37.109375 14.984375 27.296875 
Q 14.984375 17.484375 19.15625 11.84375 
Q 23.34375 6.203125 30.609375 6.203125 
Q 37.796875 6.203125 41.984375 11.859375 
Q 46.1875 17.53125 46.1875 27.296875 
Q 46.1875 37.015625 41.984375 42.703125 
Q 37.796875 48.390625 30.609375 48.390625 
z
M 30.609375 56 
Q 42.328125 56 49.015625 48.375 
Q 55.71875 40.765625 55.71875 27.296875 
Q 55.71875 13.875 49.015625 6.21875 
Q 42.328125 -1.421875 30.609375 -1.421875 
Q 18.84375 -1.421875 12.171875 6.21875 
Q 5.515625 13.875 5.515625 27.296875 
Q 5.515625 40.765625 12.171875 48.375 
Q 18.84375 56 30.609375 56 
z
" id="DejaVuSans-111"/>
      <path d="M 48.78125 52.59375 
L 48.78125 44.1875 
Q 44.96875 46.296875 41.140625 47.34375 
Q 37.3125 48.390625 33.40625 48.390625 
Q 24.65625 48.390625 19.8125 42.84375 
Q 14.984375 37.3125 14.984375 27.296875 
Q 14.984375 17.28125 19.8125 11.734375 
Q 24.65625 6.203125 33.40625 6.203125 
Q 37.3125 6.203125 41.140625 7.25 
Q 44.96875 8.296875 48.78125 10.40625 
L 48.78125 2.09375 
Q 45.015625 0.34375 40.984375 -0.53125 
Q 36.96875 -1.421875 32.421875 -1.421875 
Q 20.0625 -1.421875 12.78125 6.34375 
Q 5.515625 14.109375 5.515625 27.296875 
Q 5.515625 40.671875 12.859375 48.328125 
Q 20.21875 56 33.015625 56 
Q 37.15625 56 41.109375 55.140625 
Q 45.0625 54.296875 48.78125 52.59375 
z
" id="DejaVuSans-99"/>
      <path d="M 54.890625 33.015625 
L 54.890625 0 
L 45.90625 0 
L 45.90625 32.71875 
Q 45.90625 40.484375 42.875 44.328125 
Q 39.84375 48.1875 33.796875 48.1875 
Q 26.515625 48.1875 22.3125 43.546875 
Q 18.109375 38.921875 18.109375 30.90625 
L 18.109375 0 
L 9.078125 0 
L 9.078125 75.984375 
L 18.109375 75.984375 
L 18.109375 46.1875 
Q 21.34375 51.125 25.703125 53.5625 
Q 30.078125 56 35.796875 56 
Q 45.21875 56 50.046875 50.171875 
Q 54.890625 44.34375 54.890625 33.015625 
z
" id="DejaVuSans-104"/>
      <path d="M 44.28125 53.078125 
L 44.28125 44.578125 
Q 40.484375 46.53125 36.375 47.5 
Q 32.28125 48.484375 27.875 48.484375 
Q 21.1875 48.484375 17.84375 46.4375 
Q 14.5 44.390625 14.5 40.28125 
Q 14.5 37.15625 16.890625 35.375 
Q 19.28125 33.59375 26.515625 31.984375 
L 29.59375 31.296875 
Q 39.15625 29.25 43.1875 25.515625 
Q 47.21875 21.78125 47.21875 15.09375 
Q 47.21875 7.46875 41.1875 3.015625 
Q 35.15625 -1.421875 24.609375 -1.421875 
Q 20.21875 -1.421875 15.453125 -0.5625 
Q 10.6875 0.296875 5.421875 2 
L 5.421875 11.28125 
Q 10.40625 8.6875 15.234375 7.390625 
Q 20.0625 6.109375 24.8125 6.109375 
Q 31.15625 6.109375 34.5625 8.28125 
Q 37.984375 10.453125 37.984375 14.40625 
Q 37.984375 18.0625 35.515625 20.015625 
Q 33.0625 21.96875 24.703125 23.78125 
L 21.578125 24.515625 
Q 13.234375 26.265625 9.515625 29.90625 
Q 5.8125 33.546875 5.8125 39.890625 
Q 5.8125 47.609375 11.28125 51.796875 
Q 16.75 56 26.8125 56 
Q 31.78125 56 36.171875 55.265625 
Q 40.578125 54.546875 44.28125 53.078125 
z
" id="DejaVuSans-115"/>
      <path id="DejaVuSans-32"/>
      <path d="M 8.59375 75.984375 
L 29.296875 75.984375 
L 29.296875 69 
L 17.578125 69 
L 17.578125 -6.203125 
L 29.296875 -6.203125 
L 29.296875 -13.1875 
L 8.59375 -13.1875 
z
" id="DejaVuSans-91"/>
      <path d="M 51.125 44 
L 36.921875 44 
L 32.8125 27.6875 
L 47.125 27.6875 
z
M 43.796875 71.78125 
L 38.71875 51.515625 
L 52.984375 51.515625 
L 58.109375 71.78125 
L 65.921875 71.78125 
L 60.890625 51.515625 
L 76.125 51.515625 
L 76.125 44 
L 58.984375 44 
L 54.984375 27.6875 
L 70.515625 27.6875 
L 70.515625 20.21875 
L 53.078125 20.21875 
L 48 0 
L 40.1875 0 
L 45.21875 20.21875 
L 30.90625 20.21875 
L 25.875 0 
L 18.015625 0 
L 23.09375 20.21875 
L 7.71875 20.21875 
L 7.71875 27.6875 
L 24.90625 27.6875 
L 29 44 
L 13.28125 44 
L 13.28125 51.515625 
L 30.90625 51.515625 
L 35.890625 71.78125 
z
" id="DejaVuSans-35"/>
      <path d="M 30.421875 75.984375 
L 30.421875 -13.1875 
L 9.71875 -13.1875 
L 9.71875 -6.203125 
L 21.390625 -6.203125 
L 21.390625 69 
L 9.71875 69 
L 9.71875 75.984375 
z
" id="DejaVuSans-93"/>
     </defs>
     <g transform="translate(186.487031 343.874937)scale(0.18 -0.18)">
      <use xlink:href="#DejaVuSans-69"/>
      <use x="63.183594" xlink:href="#DejaVuSans-112"/>
      <use x="126.660156" xlink:href="#DejaVuSans-111"/>
      <use x="187.841797" xlink:href="#DejaVuSans-99"/>
      <use x="242.822266" xlink:href="#DejaVuSans-104"/>
      <use x="306.201172" xlink:href="#DejaVuSans-115"/>
      <use x="358.300781" xlink:href="#DejaVuSans-32"/>
      <use x="390.087891" xlink:href="#DejaVuSans-91"/>
      <use x="429.101562" xlink:href="#DejaVuSans-35"/>
      <use x="512.890625" xlink:href="#DejaVuSans-93"/>
     </g>
    </g>
   </g>
   <g id="matplotlib.axis_2">
    <g id="ytick_1">
     <g id="line2d_19">
      <path clip-path="url(#p3b0d74e1fa)" d="M 57.6 295.532293 
L 414.72 295.532293 
" style="fill:none;stroke:#b0b0b0;stroke-linecap:square;stroke-width:0.8;"/>
     </g>
     <g id="line2d_20">
      <defs>
       <path d="M 0 0 
L -3.5 0 
" id="m96aebb9e98" style="stroke:#000000;stroke-width:0.8;"/>
      </defs>
      <g>
       <use style="stroke:#000000;stroke-width:0.8;" x="57.6" xlink:href="#m96aebb9e98" y="295.532293"/>
      </g>
     </g>
     <g id="text_11">
      <!-- 10 -->
      <g transform="translate(33.90125 300.091355)scale(0.12 -0.12)">
       <use xlink:href="#DejaVuSans-Bold-49"/>
       <use x="69.580078" xlink:href="#DejaVuSans-Bold-48"/>
      </g>
     </g>
    </g>
    <g id="ytick_2">
     <g id="line2d_21">
      <path clip-path="url(#p3b0d74e1fa)" d="M 57.6 251.240826 
L 414.72 251.240826 
" style="fill:none;stroke:#b0b0b0;stroke-linecap:square;stroke-width:0.8;"/>
     </g>
     <g id="line2d_22">
      <g>
       <use style="stroke:#000000;stroke-width:0.8;" x="57.6" xlink:href="#m96aebb9e98" y="251.240826"/>
      </g>
     </g>
     <g id="text_12">
      <!-- 20 -->
      <g transform="translate(33.90125 255.799888)scale(0.12 -0.12)">
       <use xlink:href="#DejaVuSans-Bold-50"/>
       <use x="69.580078" xlink:href="#DejaVuSans-Bold-48"/>
      </g>
     </g>
    </g>
    <g id="ytick_3">
     <g id="line2d_23">
      <path clip-path="url(#p3b0d74e1fa)" d="M 57.6 206.949359 
L 414.72 206.949359 
" style="fill:none;stroke:#b0b0b0;stroke-linecap:square;stroke-width:0.8;"/>
     </g>
     <g id="line2d_24">
      <g>
       <use style="stroke:#000000;stroke-width:0.8;" x="57.6" xlink:href="#m96aebb9e98" y="206.949359"/>
      </g>
     </g>
     <g id="text_13">
      <!-- 30 -->
      <g transform="translate(33.90125 211.508421)scale(0.12 -0.12)">
       <use xlink:href="#DejaVuSans-Bold-51"/>
       <use x="69.580078" xlink:href="#DejaVuSans-Bold-48"/>
      </g>
     </g>
    </g>
    <g id="ytick_4">
     <g id="line2d_25">
      <path clip-path="url(#p3b0d74e1fa)" d="M 57.6 162.657891 
L 414.72 162.657891 
" style="fill:none;stroke:#b0b0b0;stroke-linecap:square;stroke-width:0.8;"/>
     </g>
     <g id="line2d_26">
      <g>
       <use style="stroke:#000000;stroke-width:0.8;" x="57.6" xlink:href="#m96aebb9e98" y="162.657891"/>
      </g>
     </g>
     <g id="text_14">
      <!-- 40 -->
      <g transform="translate(33.90125 167.216954)scale(0.12 -0.12)">
       <use xlink:href="#DejaVuSans-Bold-52"/>
       <use x="69.580078" xlink:href="#DejaVuSans-Bold-48"/>
      </g>
     </g>
    </g>
    <g id="ytick_5">
     <g id="line2d_27">
      <path clip-path="url(#p3b0d74e1fa)" d="M 57.6 118.366424 
L 414.72 118.366424 
" style="fill:none;stroke:#b0b0b0;stroke-linecap:square;stroke-width:0.8;"/>
     </g>
     <g id="line2d_28">
      <g>
       <use style="stroke:#000000;stroke-width:0.8;" x="57.6" xlink:href="#m96aebb9e98" y="118.366424"/>
      </g>
     </g>
     <g id="text_15">
      <!-- 50 -->
      <g transform="translate(33.90125 122.925487)scale(0.12 -0.12)">
       <use xlink:href="#DejaVuSans-Bold-53"/>
       <use x="69.580078" xlink:href="#DejaVuSans-Bold-48"/>
      </g>
     </g>
    </g>
    <g id="ytick_6">
     <g id="line2d_29">
      <path clip-path="url(#p3b0d74e1fa)" d="M 57.6 74.074957 
L 414.72 74.074957 
" style="fill:none;stroke:#b0b0b0;stroke-linecap:square;stroke-width:0.8;"/>
     </g>
     <g id="line2d_30">
      <g>
       <use style="stroke:#000000;stroke-width:0.8;" x="57.6" xlink:href="#m96aebb9e98" y="74.074957"/>
      </g>
     </g>
     <g id="text_16">
      <!-- 60 -->
      <defs>
       <path d="M 36.1875 35.984375 
Q 31.25 35.984375 28.78125 32.78125 
Q 26.3125 29.59375 26.3125 23.1875 
Q 26.3125 16.796875 28.78125 13.59375 
Q 31.25 10.40625 36.1875 10.40625 
Q 41.15625 10.40625 43.625 13.59375 
Q 46.09375 16.796875 46.09375 23.1875 
Q 46.09375 29.59375 43.625 32.78125 
Q 41.15625 35.984375 36.1875 35.984375 
z
M 59.421875 71 
L 59.421875 57.515625 
Q 54.78125 59.71875 50.671875 60.765625 
Q 46.578125 61.8125 42.671875 61.8125 
Q 34.28125 61.8125 29.59375 57.140625 
Q 24.90625 52.484375 24.125 43.3125 
Q 27.34375 45.703125 31.09375 46.890625 
Q 34.859375 48.09375 39.3125 48.09375 
Q 50.484375 48.09375 57.34375 41.546875 
Q 64.203125 35.015625 64.203125 24.421875 
Q 64.203125 12.703125 56.53125 5.640625 
Q 48.875 -1.421875 35.984375 -1.421875 
Q 21.78125 -1.421875 13.984375 8.171875 
Q 6.203125 17.78125 6.203125 35.40625 
Q 6.203125 53.46875 15.3125 63.796875 
Q 24.421875 74.125 40.28125 74.125 
Q 45.3125 74.125 50.046875 73.34375 
Q 54.78125 72.5625 59.421875 71 
z
" id="DejaVuSans-Bold-54"/>
      </defs>
      <g transform="translate(33.90125 78.63402)scale(0.12 -0.12)">
       <use xlink:href="#DejaVuSans-Bold-54"/>
       <use x="69.580078" xlink:href="#DejaVuSans-Bold-48"/>
      </g>
     </g>
    </g>
    <g id="text_17">
     <!-- Accuracy [%] -->
     <defs>
      <path d="M 34.1875 63.1875 
L 20.796875 26.90625 
L 47.609375 26.90625 
z
M 28.609375 72.90625 
L 39.796875 72.90625 
L 67.578125 0 
L 57.328125 0 
L 50.6875 18.703125 
L 17.828125 18.703125 
L 11.1875 0 
L 0.78125 0 
z
" id="DejaVuSans-65"/>
      <path d="M 8.5 21.578125 
L 8.5 54.6875 
L 17.484375 54.6875 
L 17.484375 21.921875 
Q 17.484375 14.15625 20.5 10.265625 
Q 23.53125 6.390625 29.59375 6.390625 
Q 36.859375 6.390625 41.078125 11.03125 
Q 45.3125 15.671875 45.3125 23.6875 
L 45.3125 54.6875 
L 54.296875 54.6875 
L 54.296875 0 
L 45.3125 0 
L 45.3125 8.40625 
Q 42.046875 3.421875 37.71875 1 
Q 33.40625 -1.421875 27.6875 -1.421875 
Q 18.265625 -1.421875 13.375 4.4375 
Q 8.5 10.296875 8.5 21.578125 
z
M 31.109375 56 
z
" id="DejaVuSans-117"/>
      <path d="M 41.109375 46.296875 
Q 39.59375 47.171875 37.8125 47.578125 
Q 36.03125 48 33.890625 48 
Q 26.265625 48 22.1875 43.046875 
Q 18.109375 38.09375 18.109375 28.8125 
L 18.109375 0 
L 9.078125 0 
L 9.078125 54.6875 
L 18.109375 54.6875 
L 18.109375 46.1875 
Q 20.953125 51.171875 25.484375 53.578125 
Q 30.03125 56 36.53125 56 
Q 37.453125 56 38.578125 55.875 
Q 39.703125 55.765625 41.0625 55.515625 
z
" id="DejaVuSans-114"/>
      <path d="M 34.28125 27.484375 
Q 23.390625 27.484375 19.1875 25 
Q 14.984375 22.515625 14.984375 16.5 
Q 14.984375 11.71875 18.140625 8.90625 
Q 21.296875 6.109375 26.703125 6.109375 
Q 34.1875 6.109375 38.703125 11.40625 
Q 43.21875 16.703125 43.21875 25.484375 
L 43.21875 27.484375 
z
M 52.203125 31.203125 
L 52.203125 0 
L 43.21875 0 
L 43.21875 8.296875 
Q 40.140625 3.328125 35.546875 0.953125 
Q 30.953125 -1.421875 24.3125 -1.421875 
Q 15.921875 -1.421875 10.953125 3.296875 
Q 6 8.015625 6 15.921875 
Q 6 25.140625 12.171875 29.828125 
Q 18.359375 34.515625 30.609375 34.515625 
L 43.21875 34.515625 
L 43.21875 35.40625 
Q 43.21875 41.609375 39.140625 45 
Q 35.0625 48.390625 27.6875 48.390625 
Q 23 48.390625 18.546875 47.265625 
Q 14.109375 46.140625 10.015625 43.890625 
L 10.015625 52.203125 
Q 14.9375 54.109375 19.578125 55.046875 
Q 24.21875 56 28.609375 56 
Q 40.484375 56 46.34375 49.84375 
Q 52.203125 43.703125 52.203125 31.203125 
z
" id="DejaVuSans-97"/>
      <path d="M 32.171875 -5.078125 
Q 28.375 -14.84375 24.75 -17.8125 
Q 21.140625 -20.796875 15.09375 -20.796875 
L 7.90625 -20.796875 
L 7.90625 -13.28125 
L 13.1875 -13.28125 
Q 16.890625 -13.28125 18.9375 -11.515625 
Q 21 -9.765625 23.484375 -3.21875 
L 25.09375 0.875 
L 2.984375 54.6875 
L 12.5 54.6875 
L 29.59375 11.921875 
L 46.6875 54.6875 
L 56.203125 54.6875 
z
" id="DejaVuSans-121"/>
      <path d="M 72.703125 32.078125 
Q 68.453125 32.078125 66.03125 28.46875 
Q 63.625 24.859375 63.625 18.40625 
Q 63.625 12.0625 66.03125 8.421875 
Q 68.453125 4.78125 72.703125 4.78125 
Q 76.859375 4.78125 79.265625 8.421875 
Q 81.6875 12.0625 81.6875 18.40625 
Q 81.6875 24.8125 79.265625 28.4375 
Q 76.859375 32.078125 72.703125 32.078125 
z
M 72.703125 38.28125 
Q 80.421875 38.28125 84.953125 32.90625 
Q 89.5 27.546875 89.5 18.40625 
Q 89.5 9.28125 84.9375 3.921875 
Q 80.375 -1.421875 72.703125 -1.421875 
Q 64.890625 -1.421875 60.34375 3.921875 
Q 55.8125 9.28125 55.8125 18.40625 
Q 55.8125 27.59375 60.375 32.9375 
Q 64.9375 38.28125 72.703125 38.28125 
z
M 22.3125 68.015625 
Q 18.109375 68.015625 15.6875 64.375 
Q 13.28125 60.75 13.28125 54.390625 
Q 13.28125 47.953125 15.671875 44.328125 
Q 18.0625 40.71875 22.3125 40.71875 
Q 26.5625 40.71875 28.96875 44.328125 
Q 31.390625 47.953125 31.390625 54.390625 
Q 31.390625 60.6875 28.953125 64.34375 
Q 26.515625 68.015625 22.3125 68.015625 
z
M 66.40625 74.21875 
L 74.21875 74.21875 
L 28.609375 -1.421875 
L 20.796875 -1.421875 
z
M 22.3125 74.21875 
Q 30.03125 74.21875 34.609375 68.875 
Q 39.203125 63.53125 39.203125 54.390625 
Q 39.203125 45.171875 34.640625 39.84375 
Q 30.078125 34.515625 22.3125 34.515625 
Q 14.546875 34.515625 10.03125 39.859375 
Q 5.515625 45.21875 5.515625 54.390625 
Q 5.515625 63.484375 10.046875 68.84375 
Q 14.59375 74.21875 22.3125 74.21875 
z
" id="DejaVuSans-37"/>
     </defs>
     <g transform="translate(26.157813 234.20925)rotate(-90)scale(0.18 -0.18)">
      <use xlink:href="#DejaVuSans-65"/>
      <use x="68.392578" xlink:href="#DejaVuSans-99"/>
      <use x="123.373047" xlink:href="#DejaVuSans-99"/>
      <use x="178.353516" xlink:href="#DejaVuSans-117"/>
      <use x="241.732422" xlink:href="#DejaVuSans-114"/>
      <use x="282.845703" xlink:href="#DejaVuSans-97"/>
      <use x="344.125" xlink:href="#DejaVuSans-99"/>
      <use x="399.105469" xlink:href="#DejaVuSans-121"/>
      <use x="458.285156" xlink:href="#DejaVuSans-32"/>
      <use x="490.072266" xlink:href="#DejaVuSans-91"/>
      <use x="529.085938" xlink:href="#DejaVuSans-37"/>
      <use x="624.105469" xlink:href="#DejaVuSans-93"/>
     </g>
    </g>
   </g>
   <g id="line2d_31">
    <path clip-path="url(#p3b0d74e1fa)" d="M 73.832727 279.321615 
L 74.646398 265.325512 
L 75.460068 248.716214 
L 76.273739 230.556709 
L 77.087409 210.802717 
L 77.90108 195.07925 
L 78.714751 185.246537 
L 79.528421 176.122498 
L 80.342092 164.73959 
L 81.155762 154.109643 
L 81.969433 147.775955 
L 82.783103 140.512163 
L 83.596774 135.46293 
L 84.410444 131.875319 
L 85.224115 127.579047 
L 86.037785 126.51606 
L 86.851456 126.117437 
L 87.665126 121.289658 
L 88.478797 119.828048 
L 89.292468 116.550463 
L 90.106138 114.911697 
L 90.919809 110.836866 
L 91.733479 112.03275 
L 92.54715 111.766983 
L 93.36082 106.673464 
L 94.174491 109.153802 
L 94.988161 106.983529 
L 95.801832 105.876244 
L 96.615502 103.617373 
L 97.429173 103.528776 
L 98.242843 99.586841 
L 99.056514 100.206919 
L 99.870185 99.89688 
L 100.683855 97.63801 
L 101.497526 98.745296 
L 102.311196 95.467738 
L 103.124867 95.423439 
L 103.938537 94.094712 
L 104.752208 92.45592 
L 105.565878 93.164569 
L 106.379549 93.120296 
L 107.193219 93.430335 
L 108.00689 92.544491 
L 108.82056 91.614374 
L 109.634231 89.355504 
L 110.447902 90.019881 
L 111.261572 89.045465 
L 112.075243 90.772829 
L 112.888913 86.343686 
L 113.702584 85.014959 
L 114.516254 85.369271 
L 115.329925 86.565154 
L 116.143595 83.951946 
L 116.957266 87.008063 
L 117.770936 84.70492 
L 118.584607 84.572024 
L 119.398278 83.996245 
L 120.211948 81.028726 
L 121.025619 80.718687 
L 121.839289 82.180284 
L 122.65296 80.718687 
L 123.46663 80.142881 
L 124.280301 78.238349 
L 125.093971 78.947024 
L 125.907642 80.718687 
L 126.721312 78.326947 
L 127.534983 79.079895 
L 128.348653 77.042492 
L 129.162324 77.39683 
L 129.975995 76.865323 
L 130.789665 74.429284 
L 131.603336 74.650752 
L 132.417006 75.27083 
L 133.230677 74.340713 
L 134.044347 75.093661 
L 134.858018 75.53657 
L 135.671688 72.347583 
L 136.485359 74.207843 
L 137.299029 73.2777 
L 138.1127 73.720635 
L 138.92637 73.14483 
L 139.740041 71.993245 
L 140.553712 70.664519 
L 141.367382 71.461765 
L 142.181053 74.296414 
L 142.994723 70.797389 
L 143.808394 71.018856 
L 144.622064 70.310181 
L 145.435735 69.070025 
L 146.249405 70.177311 
L 147.063076 70.133012 
L 147.876746 71.063129 
L 148.690417 70.531648 
L 149.504087 69.424363 
L 150.317758 68.848557 
L 151.131429 69.778674 
L 151.945099 68.272778 
L 152.75877 68.139908 
L 153.57244 70.265882 
L 154.386111 67.608402 
" style="fill:none;stroke:#1f77b4;stroke-linecap:square;stroke-width:1.5;"/>
   </g>
   <g id="line2d_32">
    <path clip-path="url(#p3b0d74e1fa)" d="M 73.832727 295.488 
L 74.646398 253.233941 
L 75.460068 248.716214 
L 76.273739 236.846098 
L 77.90108 201.280055 
L 79.528421 176.166784 
L 80.342092 161.683473 
L 81.155762 153.711019 
L 81.969433 148.794656 
L 82.783103 146.314345 
L 84.410444 136.393046 
L 85.224115 132.894021 
L 86.037785 131.476696 
L 86.851456 125.275891 
L 87.665126 125.674515 
L 88.478797 125.275891 
L 89.292468 120.182372 
L 90.106138 118.189255 
L 90.919809 118.632178 
L 91.733479 115.221736 
L 92.54715 113.538645 
L 93.36082 114.55736 
L 94.988161 108.888062 
L 95.801832 108.843763 
L 96.615502 109.020932 
L 97.429173 109.995347 
L 98.242843 105.477607 
L 99.870185 104.503191 
L 100.683855 104.9461 
L 101.497526 102.642958 
L 102.311196 98.833893 
L 103.124867 99.055335 
L 103.938537 98.612426 
L 104.752208 98.833893 
L 105.565878 97.416569 
L 106.379549 95.644906 
L 107.193219 95.866348 
L 108.00689 95.1134 
L 108.82056 94.670491 
L 109.634231 95.24627 
L 110.447902 92.500218 
L 111.261572 93.917543 
L 112.075243 89.266933 
L 112.888913 93.164569 
L 113.702584 90.994296 
L 114.516254 87.09666 
L 115.329925 89.621271 
L 116.143595 90.861426 
L 116.957266 89.444102 
L 117.770936 92.367322 
L 118.584607 91.392933 
L 119.398278 87.406699 
L 120.211948 85.2364 
L 121.025619 89.355504 
L 121.839289 87.893907 
L 122.65296 85.147829 
L 123.46663 85.10353 
L 124.280301 85.280699 
L 125.093971 83.198998 
L 125.907642 85.502167 
L 126.721312 84.350583 
L 127.534983 83.996245 
L 128.348653 84.439154 
L 129.162324 83.597635 
L 129.975995 85.679309 
L 130.789665 82.667492 
L 131.603336 82.71179 
L 132.417006 84.261985 
L 133.230677 83.774777 
L 134.044347 81.161596 
L 134.858018 81.294466 
L 135.671688 79.079895 
L 136.485359 81.515933 
L 137.299029 80.630089 
L 138.1127 84.084816 
L 138.92637 81.028726 
L 139.740041 80.940128 
L 140.553712 79.168466 
L 141.367382 81.250167 
L 142.181053 76.953895 
L 142.994723 77.706869 
L 143.808394 80.895856 
L 144.622064 81.427336 
L 145.435735 74.252115 
L 146.249405 79.434232 
L 147.063076 78.902726 
L 147.876746 76.023778 
L 148.690417 77.219661 
L 149.504087 77.263933 
L 150.317758 76.510986 
L 151.131429 74.384986 
L 151.945099 74.429284 
L 153.57244 74.872193 
L 154.386111 78.149778 
L 155.199781 75.27083 
L 156.013452 76.599583 
L 156.827122 76.378116 
L 157.640793 76.466687 
L 158.454463 73.499168 
L 159.268134 75.27083 
L 160.081805 75.226531 
L 160.895475 74.384986 
L 161.709146 75.758038 
L 162.522816 71.373168 
L 164.150157 76.112375 
L 164.963828 74.827921 
L 165.777498 74.650752 
L 166.591169 71.860375 
L 167.404839 72.569051 
L 168.21851 71.373168 
L 169.03218 73.720635 
L 169.845851 74.119245 
L 170.659522 72.436181 
L 171.473192 74.119245 
L 172.286863 71.638934 
L 173.100533 70.62022 
L 174.727874 72.480453 
L 175.541545 70.664519 
L 176.355215 70.044441 
L 177.168886 70.841687 
L 177.982556 71.151726 
L 178.796227 70.265882 
L 179.609897 69.601532 
L 180.423568 73.189129 
L 181.237239 72.657622 
L 182.050909 67.874142 
L 182.86458 70.708817 
L 183.67825 68.937155 
L 184.491921 69.778674 
L 185.305591 68.49422 
L 186.119262 69.822973 
L 186.932932 69.114324 
L 187.746603 72.87909 
L 188.560273 69.114324 
L 189.373944 70.48735 
L 190.187614 71.373168 
L 191.001285 69.114324 
L 191.814956 69.025726 
L 192.628626 69.690103 
L 193.442297 68.759986 
L 194.255967 68.139908 
L 195.069638 71.506064 
L 195.883308 68.671389 
L 196.696979 67.298363 
L 197.510649 69.822973 
L 198.32432 66.722584 
L 199.13799 66.368246 
L 199.951661 66.811155 
L 200.765332 67.608402 
L 201.579002 67.475532 
L 202.392673 66.899753 
L 203.206343 67.431233 
L 204.020014 66.678285 
L 204.833684 66.501116 
L 205.647355 69.778674 
L 206.461025 67.564103 
L 207.274696 68.139908 
L 208.088366 69.645804 
L 208.902037 66.899753 
L 209.715707 69.468635 
L 210.529378 66.545415 
L 211.343049 67.519831 
L 212.97039 67.962739 
L 213.78406 71.550336 
L 214.597731 66.279648 
L 215.411401 71.727505 
L 216.225072 67.475532 
L 217.038742 67.785571 
L 217.852413 68.671389 
L 218.666083 67.874142 
L 219.479754 64.065077 
L 220.293424 67.741272 
L 221.107095 69.867272 
L 221.920766 67.076895 
L 222.734436 67.696973 
L 223.548107 67.564103 
L 224.361777 66.589687 
L 225.175448 66.722584 
L 225.989118 64.818051 
L 226.802789 66.323947 
L 227.616459 65.836739 
L 228.43013 66.323947 
L 229.2438 65.172363 
L 230.057471 66.412545 
L 230.871141 63.267831 
L 232.498483 66.323947 
L 233.312153 66.988324 
L 234.125824 64.419415 
L 234.939494 65.393831 
L 235.753165 65.925337 
L 236.566835 65.12809 
L 237.380506 62.780623 
L 238.194176 64.065077 
L 239.007847 62.160545 
L 239.821517 65.26096 
L 240.635188 64.153675 
L 241.448859 64.950922 
L 242.262529 66.899753 
L 243.0762 65.836739 
L 243.88987 63.755038 
L 244.703541 66.678285 
L 245.517211 65.039493 
L 246.330882 64.640883 
L 247.144552 64.729454 
L 247.958223 63.13496 
L 248.771893 62.382013 
L 249.585564 62.116272 
L 250.399234 64.020805 
L 251.212905 62.913519 
L 252.026576 63.666467 
L 252.840246 65.349532 
L 253.653917 63.666467 
L 254.467587 62.470584 
L 255.281258 63.400701 
L 256.094928 63.887908 
L 256.908599 63.267831 
L 257.722269 64.197947 
L 260.163281 63.976506 
L 260.976951 65.305259 
L 261.790622 61.894805 
L 262.604293 64.065077 
L 263.417963 64.862324 
L 265.045304 63.843636 
L 265.858975 64.508013 
L 266.672645 60.433181 
L 267.486316 61.186129 
L 268.299986 63.577869 
L 269.113657 64.862324 
L 269.927327 61.629065 
L 271.554668 62.249143 
L 272.368339 61.806234 
L 273.18201 63.444999 
L 273.99568 63.622168 
L 274.809351 61.141857 
L 275.623021 65.083792 
L 276.436692 61.717636 
L 277.250362 61.983376 
L 278.064033 64.640883 
L 278.877703 61.451896 
L 279.691374 60.964688 
L 280.505044 61.540467 
L 281.318715 61.584766 
L 282.132386 65.792441 
L 282.946056 65.26096 
L 283.759727 63.577869 
L 284.573397 63.179259 
L 285.387068 61.186129 
L 286.200738 61.584766 
L 287.014409 62.204844 
L 287.828079 63.577869 
L 288.64175 62.293415 
L 289.45542 63.267831 
L 290.269091 62.204844 
L 291.082761 62.249143 
L 291.896432 62.913519 
L 292.710103 64.862324 
L 293.523773 62.647753 
L 294.337444 63.666467 
L 295.151114 60.034571 
L 295.964785 62.73635 
L 296.778455 62.426311 
L 297.592126 63.622168 
L 298.405796 60.787519 
L 299.219467 62.86922 
L 300.033137 61.629065 
L 300.846808 62.160545 
L 301.660478 61.806234 
L 302.474149 61.673337 
L 303.28782 61.673337 
L 304.915161 60.388883 
L 305.728831 61.274727 
L 306.542502 61.761935 
L 307.356172 60.74322 
L 308.169843 60.74322 
L 308.983513 59.237325 
L 309.797184 59.813104 
L 310.610854 62.647753 
L 311.424525 60.74322 
L 312.238195 60.787519 
L 313.051866 59.857402 
L 313.865537 61.673337 
L 314.679207 59.857402 
L 315.492878 60.831818 
L 316.306548 58.262909 
L 317.120219 60.787519 
L 317.933889 62.071974 
L 318.74756 59.591636 
L 319.56123 60.21174 
L 320.374901 60.47748 
L 321.188571 57.687104 
L 322.002242 59.857402 
L 322.815913 59.281597 
L 323.629583 61.008987 
L 324.443254 59.503065 
L 325.256924 59.680234 
L 326.070595 58.528649 
L 326.884265 58.838688 
L 327.697936 57.377065 
L 328.511606 60.521779 
L 329.325277 58.971558 
L 330.138947 60.920389 
L 330.952618 58.750117 
L 331.766288 59.724532 
L 332.579959 60.388883 
L 333.39363 58.750117 
L 334.2073 61.850506 
L 335.020971 60.123143 
L 335.834641 62.116272 
L 336.648312 61.673337 
L 337.461982 62.470584 
L 338.275653 59.990272 
L 339.089323 59.503065 
L 339.902994 61.584766 
L 340.716664 59.547363 
L 341.530335 61.983376 
L 342.344005 60.21174 
L 343.157676 59.901675 
L 343.971347 59.901675 
L 344.785017 61.584766 
L 345.598688 59.768805 
L 346.412358 60.34461 
L 347.226029 59.547363 
L 348.85337 59.813104 
L 349.66704 61.540467 
L 350.480711 61.008987 
L 351.294381 59.237325 
L 352.108052 60.654649 
L 352.921722 60.964688 
L 353.735393 62.249143 
L 354.549064 59.768805 
L 355.362734 60.47748 
L 356.176405 59.990272 
L 356.990075 61.540467 
L 357.803746 58.971558 
L 358.617416 59.015857 
L 359.431087 60.654649 
L 360.244757 60.123143 
L 361.058428 55.073922 
L 361.872098 58.041441 
L 362.685769 58.572948 
L 363.49944 59.990272 
L 364.31311 58.130039 
L 365.940451 58.307208 
L 366.754122 58.130039 
L 367.567792 58.48435 
L 368.381463 57.997142 
L 369.195133 59.237325 
L 370.008804 59.635935 
L 370.822474 58.971558 
L 371.636145 57.111325 
L 372.449815 57.421363 
L 373.263486 59.591636 
L 374.077157 57.465662 
L 374.890827 59.813104 
L 376.518168 58.21861 
L 377.331839 59.281597 
L 378.145509 57.554234 
L 378.95918 58.794389 
L 379.77285 59.724532 
L 380.586521 57.997142 
L 381.400191 59.680234 
L 382.213862 58.48435 
L 383.027532 58.48435 
L 383.841203 55.915468 
L 384.654874 57.244195 
L 385.468544 60.167441 
L 386.282215 57.465662 
L 387.095885 57.509961 
L 387.909556 58.262909 
L 388.723226 56.136909 
L 389.536897 57.509961 
L 390.350567 57.421363 
L 391.164238 57.775701 
L 391.977908 57.554234 
L 392.791579 58.528649 
L 393.605249 57.775701 
L 394.41892 58.395779 
L 395.232591 56.978455 
L 396.046261 58.08574 
L 396.859932 56.446948 
L 397.673602 55.915468 
L 398.487273 57.067026 
L 398.487273 57.067026 
" style="fill:none;stroke:#ff7f0e;stroke-linecap:square;stroke-width:1.5;"/>
   </g>
   <g id="line2d_33">
    <path clip-path="url(#p3b0d74e1fa)" d="M 73.832727 292.874805 
L 74.646398 268.027291 
L 75.460068 256.024305 
L 76.273739 226.614768 
L 77.90108 195.034952 
L 78.714751 187.018199 
L 79.528421 170.940395 
L 80.342092 161.01911 
L 81.155762 153.312396 
L 81.969433 146.890124 
L 82.783103 143.789721 
L 83.596774 137.013137 
L 84.410444 135.064306 
L 85.224115 129.262125 
L 86.037785 127.180424 
L 86.851456 123.637112 
L 87.665126 124.965852 
L 88.478797 123.548528 
L 89.292468 117.746346 
L 90.106138 114.55736 
L 90.919809 117.879217 
L 91.733479 112.829996 
L 92.54715 112.254191 
L 93.36082 110.792594 
L 94.174491 109.065204 
L 94.988161 109.995347 
L 95.801832 107.337841 
L 96.615502 103.838815 
L 97.429173 105.167568 
L 98.242843 102.731529 
L 99.056514 101.978581 
L 99.870185 102.111451 
L 100.683855 101.712841 
L 101.497526 100.694127 
L 102.311196 99.941179 
L 103.124867 99.409672 
L 103.938537 95.777777 
L 104.752208 98.833893 
L 105.565878 97.195101 
L 106.379549 100.428387 
L 107.193219 95.423439 
L 108.00689 94.891959 
L 109.634231 95.157699 
L 111.261572 92.85453 
L 112.075243 91.702972 
L 112.888913 91.437205 
L 113.702584 90.684257 
L 114.516254 91.127166 
L 115.329925 89.488401 
L 116.143595 91.702972 
L 116.957266 89.222634 
L 117.770936 90.06418 
L 118.584607 86.963764 
L 119.398278 87.09666 
L 120.211948 86.919492 
L 121.025619 87.982478 
L 121.839289 86.609453 
L 122.65296 88.159647 
L 123.46663 87.406699 
L 124.280301 87.052362 
L 125.093971 85.10353 
L 125.907642 83.464738 
L 126.721312 83.420466 
L 127.534983 84.616323 
L 128.348653 82.623219 
L 129.162324 82.268881 
L 129.975995 84.793492 
L 130.789665 83.819076 
L 131.603336 82.091712 
L 132.417006 81.958842 
L 133.230677 82.31318 
L 134.044347 82.136011 
L 134.858018 80.275751 
L 135.671688 79.832842 
L 136.485359 78.814154 
L 137.299029 78.238349 
L 138.1127 83.420466 
L 138.92637 80.18718 
L 139.740041 78.282648 
L 140.553712 77.972609 
L 141.367382 78.105479 
L 142.181053 78.769856 
L 142.994723 78.194077 
L 143.808394 78.149778 
L 144.622064 79.832842 
L 145.435735 76.998193 
L 146.249405 79.655674 
L 147.063076 77.66257 
L 147.876746 76.953895 
L 148.690417 75.27083 
L 149.504087 77.308232 
L 150.317758 75.713739 
L 151.131429 73.632038 
L 151.945099 75.935207 
L 152.75877 76.378116 
L 153.57244 71.860375 
L 154.386111 76.555284 
L 155.199781 75.625168 
L 156.013452 74.429284 
L 156.827122 75.846609 
L 157.640793 74.562154 
L 158.454463 76.555284 
L 159.268134 72.347583 
L 160.081805 71.948973 
L 160.895475 72.61335 
L 161.709146 76.643856 
L 162.522816 70.664519 
L 163.336487 75.66944 
L 164.150157 72.480453 
L 164.963828 73.764908 
L 165.777498 72.524752 
L 166.591169 71.018856 
L 167.404839 72.081843 
L 168.21851 72.126142 
L 169.03218 72.303311 
L 169.845851 70.797389 
L 170.659522 71.904674 
L 171.473192 74.074947 
L 172.286863 72.436181 
L 173.100533 69.778674 
L 173.914204 68.49422 
L 175.541545 72.480453 
L 176.355215 70.531648 
L 177.168886 73.676336 
L 177.982556 73.321999 
L 178.796227 71.107427 
L 179.609897 71.683207 
L 180.423568 73.587739 
L 181.237239 69.158596 
L 182.050909 68.49422 
L 182.86458 69.025726 
L 183.67825 68.582817 
L 184.491921 67.652701 
L 185.305591 68.538519 
L 186.119262 66.412545 
L 186.932932 70.974557 
L 187.746603 67.431233 
L 188.560273 72.259012 
L 189.373944 68.759986 
L 190.187614 66.988324 
L 191.001285 69.557233 
L 191.814956 68.627116 
L 192.628626 69.424363 
L 193.442297 67.696973 
L 194.255967 71.594635 
L 195.069638 66.412545 
L 195.883308 65.305259 
L 196.696979 69.690103 
L 197.510649 69.202895 
L 198.32432 68.139908 
L 199.13799 68.272778 
L 199.951661 70.044441 
L 200.765332 67.785571 
L 201.579002 67.209792 
L 202.392673 66.279648 
L 204.020014 65.393831 
L 204.833684 63.710766 
L 205.647355 63.444999 
L 206.461025 65.526701 
L 207.274696 64.995194 
L 208.088366 66.722584 
L 208.902037 66.899753 
L 209.715707 63.622168 
L 210.529378 65.039493 
L 211.343049 64.552285 
L 212.156719 64.286545 
L 212.97039 63.622168 
L 213.78406 65.526701 
L 214.597731 66.191077 
L 215.411401 65.172363 
L 216.225072 65.083792 
L 217.038742 66.013908 
L 217.852413 63.976506 
L 218.666083 65.12809 
L 219.479754 63.312129 
L 220.293424 64.906623 
L 221.107095 65.792441 
L 221.920766 63.356428 
L 222.734436 65.305259 
L 223.548107 63.444999 
L 224.361777 65.393831 
L 225.175448 62.913519 
L 225.989118 63.444999 
L 226.802789 65.438129 
L 227.616459 66.323947 
L 228.43013 66.279648 
L 229.2438 63.00209 
L 230.057471 63.577869 
L 230.871141 64.995194 
L 231.684812 64.596584 
L 232.498483 65.12809 
L 233.312153 63.533597 
L 234.125824 64.862324 
L 234.939494 64.330844 
L 235.753165 64.375116 
L 236.566835 62.071974 
L 237.380506 64.729454 
L 238.194176 64.286545 
L 239.007847 64.020805 
L 239.821517 62.647753 
L 240.635188 66.323947 
L 241.448859 62.86922 
L 242.262529 66.501116 
L 243.0762 65.792441 
L 243.88987 62.204844 
L 244.703541 62.913519 
L 245.517211 65.172363 
L 246.330882 64.375116 
L 247.144552 65.083792 
L 247.958223 62.60348 
L 248.771893 62.559181 
L 249.585564 61.097558 
L 250.399234 64.020805 
L 251.212905 63.843636 
L 252.026576 64.020805 
L 252.840246 63.312129 
L 253.653917 61.363298 
L 254.467587 62.559181 
L 255.281258 59.945974 
L 256.094928 62.382013 
L 256.908599 61.983376 
L 257.722269 63.00209 
L 258.53594 63.312129 
L 259.34961 61.629065 
L 260.163281 62.559181 
L 260.976951 61.451896 
L 261.790622 61.407597 
L 262.604293 62.426311 
L 263.417963 61.319026 
L 264.231634 60.566051 
L 265.045304 60.787519 
L 265.858975 61.451896 
L 266.672645 61.584766 
L 267.486316 59.945974 
L 268.299986 62.647753 
L 269.113657 61.584766 
L 269.927327 61.983376 
L 270.740998 63.13496 
L 271.554668 63.533597 
L 272.368339 64.419415 
L 273.18201 60.078844 
L 273.99568 60.787519 
L 274.809351 61.319026 
L 275.623021 60.167441 
L 276.436692 61.141857 
L 277.250362 61.584766 
L 278.064033 60.256013 
L 278.877703 62.86922 
L 279.691374 59.901675 
L 280.505044 58.041441 
L 281.318715 59.237325 
L 282.132386 59.458766 
L 282.946056 57.82 
L 283.759727 59.724532 
L 284.573397 58.971558 
L 285.387068 61.008987 
L 286.200738 60.920389 
L 287.014409 58.35148 
L 287.828079 59.724532 
L 288.64175 61.496168 
L 289.45542 58.882987 
L 290.269091 58.528649 
L 291.082761 57.509961 
L 291.896432 58.927286 
L 292.710103 56.801286 
L 293.523773 60.34461 
L 294.337444 60.388883 
L 295.151114 62.559181 
L 295.964785 60.74322 
L 296.778455 59.547363 
L 297.592126 56.801286 
L 298.405796 60.61035 
L 299.219467 60.964688 
L 300.033137 59.635935 
L 300.846808 57.022753 
L 301.660478 59.635935 
L 302.474149 59.104428 
L 303.28782 57.82 
L 304.10149 56.978455 
L 304.915161 59.325896 
L 306.542502 56.402649 
L 307.356172 60.698922 
L 308.169843 57.377065 
L 308.983513 59.901675 
L 309.797184 60.74322 
L 310.610854 58.041441 
L 311.424525 60.167441 
L 312.238195 57.155623 
L 313.051866 61.584766 
L 313.865537 58.572948 
L 314.679207 57.775701 
L 315.492878 59.015857 
L 316.306548 58.794389 
L 317.933889 56.978455 
L 318.74756 60.964688 
L 319.56123 57.775701 
L 320.374901 61.230428 
L 321.188571 59.813104 
L 322.002242 58.927286 
L 322.815913 60.964688 
L 323.629583 58.750117 
L 324.443254 55.472532 
L 325.256924 59.635935 
L 326.070595 59.813104 
L 326.884265 59.414493 
L 327.697936 57.554234 
L 328.511606 60.831818 
L 329.325277 57.731402 
L 330.138947 58.307208 
L 330.952618 58.307208 
L 331.766288 59.857402 
L 332.579959 57.288493 
L 333.39363 59.370195 
L 334.2073 56.889857 
L 335.020971 57.421363 
L 335.834641 57.509961 
L 336.648312 56.712714 
L 337.461982 58.794389 
L 338.275653 59.591636 
L 339.089323 56.491247 
L 339.902994 57.554234 
L 340.716664 57.288493 
L 341.530335 60.078844 
L 342.344005 57.199896 
L 343.157676 58.35148 
L 343.971347 57.908571 
L 344.785017 58.08574 
L 345.598688 55.118221 
L 346.412358 57.067026 
L 347.226029 59.591636 
L 348.039699 56.358377 
L 348.85337 56.978455 
L 349.66704 58.572948 
L 350.480711 57.908571 
L 351.294381 56.491247 
L 352.108052 58.794389 
L 352.921722 57.199896 
L 353.735393 58.838688 
L 354.549064 55.738299 
L 355.362734 60.123143 
L 356.176405 58.528649 
L 356.990075 57.908571 
L 357.803746 57.864272 
L 358.617416 55.295363 
L 359.431087 56.801286 
L 360.244757 55.251091 
L 361.058428 55.95974 
L 361.872098 56.889857 
L 362.685769 58.882987 
L 363.49944 55.162493 
L 364.31311 56.136909 
L 365.126781 56.801286 
L 365.940451 56.181208 
L 366.754122 58.528649 
L 367.567792 57.997142 
L 368.381463 58.130039 
L 369.195133 58.794389 
L 370.008804 56.181208 
L 371.636145 53.789468 
L 372.449815 57.244195 
L 373.263486 57.731402 
L 374.077157 56.358377 
L 375.704498 58.838688 
L 376.518168 56.624117 
L 377.331839 57.465662 
L 378.145509 57.155623 
L 378.95918 55.206792 
L 380.586521 56.756987 
L 381.400191 56.446948 
L 382.213862 54.675286 
L 383.027532 55.56113 
L 383.841203 55.383961 
L 384.654874 54.631013 
L 385.468544 56.446948 
L 386.282215 57.864272 
L 387.095885 54.808182 
L 387.909556 58.705818 
L 388.723226 59.060156 
L 389.536897 58.21861 
L 390.350567 56.09261 
L 391.164238 56.579818 
L 391.977908 54.763883 
L 392.791579 53.568 
L 393.605249 55.871169 
L 394.41892 53.878039 
L 395.232591 56.402649 
L 396.046261 56.402649 
L 396.859932 56.535546 
L 397.673602 58.35148 
L 398.487273 54.896753 
L 398.487273 54.896753 
" style="fill:none;stroke:#2ca02c;stroke-linecap:square;stroke-width:1.5;"/>
   </g>
   <g id="line2d_34">
    <path clip-path="url(#p3b0d74e1fa)" d="M 73.832727 277.859998 
L 74.646398 262.225109 
L 75.460068 255.669974 
L 76.273739 236.403183 
L 77.087409 210.581262 
L 77.90108 197.470991 
L 78.714751 190.827264 
L 81.155762 158.981694 
L 81.969433 152.736604 
L 82.783103 144.454098 
L 83.596774 140.423579 
L 84.410444 137.190293 
L 85.224115 131.388112 
L 86.037785 132.716865 
L 86.851456 128.332008 
L 87.665126 125.054437 
L 88.478797 122.485528 
L 89.292468 123.592814 
L 90.106138 116.904801 
L 90.919809 116.81623 
L 91.733479 112.697126 
L 92.54715 110.881165 
L 93.36082 110.792594 
L 94.174491 108.622295 
L 95.801832 105.300438 
L 96.615502 107.293568 
L 97.429173 104.41462 
L 98.242843 104.636061 
L 99.056514 103.130166 
L 99.870185 103.484503 
L 100.683855 100.118348 
L 101.497526 99.852581 
L 102.311196 101.225633 
L 103.124867 99.941179 
L 103.938537 97.903777 
L 104.752208 97.37227 
L 105.565878 96.619322 
L 106.379549 96.442153 
L 107.193219 96.929361 
L 108.00689 94.316153 
L 108.82056 95.069101 
L 109.634231 93.474608 
L 110.447902 90.861426 
L 111.261572 93.740374 
L 112.075243 90.32992 
L 112.888913 91.924413 
L 113.702584 91.924413 
L 114.516254 90.639959 
L 115.329925 88.735426 
L 116.143595 88.956894 
L 116.957266 89.355504 
L 117.770936 88.779725 
L 118.584607 87.273803 
L 119.398278 89.001193 
L 120.211948 85.546439 
L 121.025619 86.210816 
L 121.839289 86.210816 
L 122.65296 86.520855 
L 123.46663 85.457868 
L 124.280301 83.819076 
L 125.093971 84.261985 
L 126.721312 82.84466 
L 127.534983 85.457868 
L 128.348653 81.338765 
L 129.162324 82.047414 
L 129.975995 83.464738 
L 130.789665 80.807258 
L 132.417006 82.180284 
L 133.230677 82.401751 
L 134.044347 84.660621 
L 134.858018 81.427336 
L 135.671688 83.198998 
L 136.485359 80.718687 
L 137.299029 78.636986 
L 138.1127 81.161596 
L 138.92637 78.194077 
L 139.740041 83.376167 
L 140.553712 78.238349 
L 141.367382 77.441102 
L 142.181053 79.301362 
L 142.994723 78.326947 
L 143.808394 78.814154 
L 144.622064 75.979479 
L 145.435735 75.093661 
L 146.249405 75.890908 
L 147.063076 77.972609 
L 147.876746 73.366298 
L 148.690417 74.562154 
L 149.504087 75.049362 
L 150.317758 72.923389 
L 151.131429 75.4037 
L 151.945099 75.979479 
L 152.75877 73.720635 
L 153.57244 73.454869 
L 154.386111 73.853505 
L 155.199781 72.967661 
L 156.013452 73.499168 
L 156.827122 76.156648 
L 157.640793 73.410596 
L 158.454463 73.233428 
L 159.268134 71.461765 
L 160.081805 73.676336 
L 160.895475 72.923389 
L 161.709146 70.22161 
L 162.522816 72.037544 
L 163.336487 73.01196 
L 164.150157 71.594635 
L 164.963828 71.638934 
L 165.777498 72.701921 
L 166.591169 75.935207 
L 167.404839 71.151726 
L 168.21851 71.151726 
L 169.03218 73.14483 
L 169.845851 70.797389 
L 170.659522 70.930259 
L 171.473192 69.822973 
L 172.286863 72.037544 
L 173.100533 69.468635 
L 173.914204 70.797389 
L 174.727874 70.398778 
L 175.541545 70.841687 
L 176.355215 71.107427 
L 177.168886 71.018856 
L 177.982556 68.007038 
L 178.796227 69.822973 
L 179.609897 69.734402 
L 181.237239 68.405648 
L 182.050909 66.944025 
L 182.86458 71.461765 
L 183.67825 67.298363 
L 184.491921 68.184181 
L 185.305591 69.247194 
L 186.119262 68.317077 
L 186.932932 68.538519 
L 187.746603 69.512934 
L 188.560273 69.114324 
L 189.373944 67.785571 
L 190.187614 67.741272 
L 191.001285 68.937155 
L 191.814956 68.937155 
L 193.442297 64.729454 
L 194.255967 68.49422 
L 195.069638 66.456817 
L 195.883308 68.184181 
L 196.696979 69.291466 
L 197.510649 67.298363 
L 198.32432 67.475532 
L 199.13799 66.368246 
L 199.951661 68.139908 
L 200.765332 68.36135 
L 201.579002 67.652701 
L 202.392673 65.393831 
L 203.206343 67.254064 
L 204.020014 67.386934 
L 204.833684 65.393831 
L 205.647355 65.526701 
L 206.461025 66.235376 
L 207.274696 66.146778 
L 208.088366 63.444999 
L 208.902037 64.286545 
L 209.715707 64.153675 
L 210.529378 67.608402 
L 211.343049 64.286545 
L 212.156719 66.279648 
L 212.97039 63.267831 
L 213.78406 63.755038 
L 214.597731 66.013908 
L 215.411401 64.773753 
L 216.225072 66.855454 
L 217.038742 66.323947 
L 217.852413 64.773753 
L 218.666083 62.204844 
L 219.479754 64.950922 
L 220.293424 63.267831 
L 221.107095 63.356428 
L 221.920766 64.818051 
L 222.734436 64.065077 
L 223.548107 66.058207 
L 224.361777 64.906623 
L 225.175448 62.027675 
L 225.989118 63.356428 
L 226.802789 62.027675 
L 227.616459 64.375116 
L 228.43013 64.242246 
L 229.2438 64.596584 
L 230.057471 62.780623 
L 230.871141 64.818051 
L 231.684812 63.843636 
L 232.498483 64.552285 
L 233.312153 64.596584 
L 234.125824 64.906623 
L 234.939494 63.489298 
L 235.753165 66.456817 
L 236.566835 64.596584 
L 237.380506 64.995194 
L 238.194176 64.773753 
L 239.007847 65.172363 
L 239.821517 64.463714 
L 240.635188 63.046389 
L 241.448859 65.438129 
L 242.262529 65.748168 
L 243.88987 65.039493 
L 244.703541 63.00209 
L 245.517211 64.729454 
L 246.330882 62.647753 
L 247.144552 63.755038 
L 247.958223 61.629065 
L 248.771893 62.86922 
L 249.585564 62.116272 
L 250.399234 63.577869 
L 251.212905 62.382013 
L 252.026576 63.799337 
L 252.840246 64.375116 
L 253.653917 63.533597 
L 254.467587 61.761935 
L 255.281258 63.489298 
L 256.094928 64.020805 
L 256.908599 64.197947 
L 257.722269 62.647753 
L 258.53594 62.60348 
L 259.34961 65.792441 
L 260.163281 63.444999 
L 260.976951 63.932207 
L 261.790622 63.489298 
L 262.604293 60.078844 
L 263.417963 66.279648 
L 264.231634 63.356428 
L 265.045304 63.046389 
L 265.858975 61.939104 
L 266.672645 62.293415 
L 267.486316 63.00209 
L 268.299986 61.319026 
L 269.113657 64.596584 
L 269.927327 62.293415 
L 270.740998 62.426311 
L 271.554668 64.375116 
L 272.368339 65.305259 
L 273.18201 61.540467 
L 273.99568 62.514883 
L 274.809351 63.13496 
L 275.623021 62.780623 
L 276.436692 62.027675 
L 277.250362 60.21174 
L 278.064033 65.039493 
L 278.877703 63.13496 
L 279.691374 62.337714 
L 280.505044 62.647753 
L 281.318715 63.090662 
L 282.132386 62.027675 
L 282.946056 62.426311 
L 283.759727 60.87609 
L 284.573397 60.87609 
L 285.387068 63.710766 
L 286.200738 62.071974 
L 287.014409 61.983376 
L 287.828079 63.090662 
L 288.64175 63.489298 
L 289.45542 61.141857 
L 290.269091 60.167441 
L 291.082761 61.496168 
L 291.896432 59.945974 
L 293.523773 61.584766 
L 294.337444 59.503065 
L 295.151114 59.148727 
L 295.964785 59.503065 
L 296.778455 59.680234 
L 297.592126 59.990272 
L 298.405796 62.071974 
L 299.219467 60.34461 
L 300.033137 62.470584 
L 300.846808 60.433181 
L 301.660478 60.388883 
L 302.474149 59.680234 
L 303.28782 61.008987 
L 304.10149 60.300311 
L 304.915161 58.21861 
L 305.728831 58.794389 
L 306.542502 60.74322 
L 307.356172 58.130039 
L 308.169843 58.440078 
L 308.983513 60.167441 
L 309.797184 57.022753 
L 310.610854 60.078844 
L 311.424525 58.750117 
L 312.238195 61.894805 
L 313.865537 57.82 
L 314.679207 61.717636 
L 315.492878 58.838688 
L 317.120219 60.256013 
L 317.933889 60.698922 
L 318.74756 60.787519 
L 319.56123 59.458766 
L 320.374901 57.554234 
L 321.188571 60.034571 
L 322.002242 59.370195 
L 322.815913 58.528649 
L 323.629583 59.414493 
L 325.256924 60.123143 
L 326.070595 59.813104 
L 326.884265 61.540467 
L 327.697936 58.617247 
L 328.511606 59.015857 
L 329.325277 56.579818 
L 330.138947 58.48435 
L 331.766288 58.794389 
L 332.579959 59.104428 
L 333.39363 59.768805 
L 334.2073 60.078844 
L 335.020971 57.111325 
L 336.648312 59.503065 
L 337.461982 56.978455 
L 338.275653 56.889857 
L 339.089323 59.901675 
L 339.902994 61.141857 
L 340.716664 57.95287 
L 341.530335 56.624117 
L 342.344005 59.370195 
L 343.157676 58.838688 
L 343.971347 59.503065 
L 344.785017 58.617247 
L 345.598688 59.458766 
L 346.412358 58.262909 
L 347.226029 61.230428 
L 348.85337 57.731402 
L 349.66704 60.388883 
L 350.480711 58.838688 
L 351.294381 61.584766 
L 352.108052 58.35148 
L 352.921722 56.668416 
L 353.735393 56.358377 
L 354.549064 59.414493 
L 355.362734 58.882987 
L 356.176405 58.750117 
L 356.990075 58.395779 
L 357.803746 60.920389 
L 358.617416 56.934156 
L 359.431087 56.048338 
L 360.244757 57.598532 
L 361.058428 58.572948 
L 361.872098 57.642831 
L 362.685769 58.528649 
L 363.49944 60.078844 
L 364.31311 57.908571 
L 365.126781 58.440078 
L 365.940451 58.08574 
L 366.754122 58.617247 
L 367.567792 56.358377 
L 369.195133 61.141857 
L 370.008804 58.307208 
L 370.822474 57.997142 
L 371.636145 59.237325 
L 373.263486 56.269779 
L 374.077157 58.21861 
L 374.890827 56.712714 
L 375.704498 57.642831 
L 376.518168 58.395779 
L 377.331839 56.136909 
L 378.145509 56.136909 
L 378.95918 59.547363 
L 379.77285 56.269779 
L 380.586521 58.08574 
L 381.400191 55.738299 
L 382.213862 57.421363 
L 383.027532 57.997142 
L 383.841203 57.687104 
L 384.654874 56.314078 
L 385.468544 57.022753 
L 386.282215 55.871169 
L 387.095885 57.377065 
L 387.909556 58.440078 
L 388.723226 57.642831 
L 389.536897 59.325896 
L 390.350567 57.775701 
L 391.164238 58.572948 
L 391.977908 58.617247 
L 392.791579 58.262909 
L 393.605249 59.901675 
L 394.41892 56.978455 
L 395.232591 56.712714 
L 396.046261 56.712714 
L 396.859932 59.370195 
L 397.673602 56.535546 
L 398.487273 59.813104 
L 398.487273 59.813104 
" style="fill:none;stroke:#d62728;stroke-linecap:square;stroke-width:1.5;"/>
   </g>
   <g id="line2d_35">
    <path clip-path="url(#p3b0d74e1fa)" d="M 73.832727 278.125745 
L 74.646398 258.460337 
L 75.460068 248.09613 
L 77.087409 211.467093 
L 77.90108 194.282004 
L 79.528421 168.991577 
L 80.342092 159.158863 
L 81.155762 151.27498 
L 82.783103 142.416695 
L 84.410444 133.868436 
L 86.037785 129.17354 
L 86.851456 128.642047 
L 87.665126 125.45306 
L 88.478797 123.858567 
L 89.292468 120.580996 
L 90.106138 118.322126 
L 90.919809 114.203022 
L 91.733479 114.468762 
L 92.54715 114.29162 
L 93.36082 113.627243 
L 94.174491 108.578023 
L 94.988161 110.172516 
L 95.801832 105.964815 
L 96.615502 107.382139 
L 97.429173 106.540594 
L 98.242843 104.9461 
L 99.870185 102.952997 
L 100.683855 101.801412 
L 101.497526 102.465789 
L 102.311196 101.89001 
L 103.938537 98.169517 
L 104.752208 97.992348 
L 105.565878 99.099633 
L 106.379549 97.948049 
L 107.193219 100.074049 
L 108.00689 95.024829 
L 108.82056 93.696075 
L 109.634231 95.822075 
L 110.447902 95.866348 
L 111.261572 93.208868 
L 112.075243 91.924413 
L 112.888913 92.810257 
L 113.702584 91.702972 
L 114.516254 90.285647 
L 115.329925 90.19705 
L 116.143595 91.082868 
L 116.957266 87.185232 
L 117.770936 87.805309 
L 118.584607 87.761011 
L 119.398278 87.052362 
L 120.211948 86.565154 
L 121.025619 86.698024 
L 121.839289 84.483453 
L 122.65296 85.900777 
L 123.46663 84.439154 
L 124.280301 84.261985 
L 125.093971 84.527751 
L 125.907642 83.641907 
L 127.534983 85.059232 
L 128.348653 85.014959 
L 129.162324 82.003141 
L 129.975995 82.84466 
L 131.603336 81.737375 
L 132.417006 80.762959 
L 133.230677 84.83779 
L 134.044347 80.18718 
L 134.858018 79.92144 
L 135.671688 81.737375 
L 136.485359 80.142881 
L 137.299029 82.401751 
L 138.1127 77.308232 
L 138.92637 83.464738 
L 139.740041 80.408648 
L 140.553712 76.466687 
L 141.367382 78.681258 
L 142.181053 78.016908 
L 142.994723 79.611401 
L 143.808394 79.035596 
L 144.622064 76.023778 
L 145.435735 77.131063 
L 146.249405 76.466687 
L 147.063076 76.245245 
L 147.876746 75.492271 
L 148.690417 79.168466 
L 149.504087 74.030674 
L 150.317758 75.4037 
L 151.131429 75.580869 
L 151.945099 75.580869 
L 152.75877 72.524752 
L 153.57244 75.492271 
L 154.386111 75.315129 
L 155.199781 76.953895 
L 156.013452 75.00509 
L 156.827122 76.555284 
L 157.640793 74.163544 
L 158.454463 74.606453 
L 159.268134 74.074947 
L 160.081805 75.492271 
L 160.895475 71.816103 
L 161.709146 71.860375 
L 162.522816 74.827921 
L 163.336487 72.790492 
L 164.150157 71.904674 
L 164.963828 72.436181 
L 165.777498 71.195999 
L 166.591169 73.366298 
L 167.404839 69.424363 
L 168.21851 71.904674 
L 169.03218 71.151726 
L 169.845851 69.114324 
L 170.659522 71.993245 
L 171.473192 69.380064 
L 172.286863 70.133012 
L 173.100533 71.727505 
L 173.914204 74.340713 
L 174.727874 70.177311 
L 175.541545 69.114324 
L 176.355215 68.804285 
L 177.168886 71.727505 
L 177.982556 67.741272 
L 178.796227 73.543466 
L 179.609897 68.007038 
L 180.423568 69.645804 
L 181.237239 71.948973 
L 182.050909 68.627116 
L 182.86458 67.962739 
L 183.67825 68.759986 
L 184.491921 71.771804 
L 185.305591 70.088713 
L 186.932932 68.627116 
L 187.746603 71.018856 
L 188.560273 67.696973 
L 189.373944 66.323947 
L 190.187614 69.247194 
L 191.001285 68.22848 
L 191.814956 66.944025 
L 192.628626 68.007038 
L 193.442297 68.272778 
L 194.255967 71.771804 
L 195.069638 69.070025 
L 195.883308 68.671389 
L 196.696979 67.386934 
L 197.510649 69.070025 
L 198.32432 67.608402 
L 199.13799 66.988324 
L 199.951661 67.254064 
L 200.765332 65.216662 
L 201.579002 65.703869 
L 202.392673 68.007038 
L 203.206343 67.121194 
L 204.020014 68.317077 
L 204.833684 66.279648 
L 205.647355 65.925337 
L 206.461025 68.317077 
L 207.274696 66.678285 
L 208.088366 66.722584 
L 208.902037 66.058207 
L 209.715707 64.419415 
L 210.529378 66.545415 
L 212.156719 63.666467 
L 212.97039 64.109376 
L 213.78406 67.785571 
L 214.597731 65.792441 
L 215.411401 65.792441 
L 217.038742 64.286545 
L 217.852413 63.932207 
L 218.666083 66.279648 
L 219.479754 64.729454 
L 220.293424 66.323947 
L 221.107095 62.913519 
L 221.920766 65.305259 
L 222.734436 63.799337 
L 223.548107 63.932207 
L 224.361777 64.375116 
L 225.175448 63.267831 
L 225.989118 63.046389 
L 226.802789 65.748168 
L 227.616459 63.312129 
L 228.43013 64.463714 
L 229.2438 63.356428 
L 230.057471 63.00209 
L 230.871141 63.312129 
L 231.684812 65.172363 
L 232.498483 62.913519 
L 233.312153 65.659571 
L 234.125824 65.349532 
L 234.939494 62.60348 
L 236.566835 61.230428 
L 237.380506 63.799337 
L 238.194176 64.818051 
L 239.007847 66.412545 
L 239.821517 61.850506 
L 240.635188 65.659571 
L 241.448859 62.86922 
L 242.262529 62.957792 
L 243.0762 61.629065 
L 243.88987 63.223558 
L 244.703541 62.957792 
L 245.517211 63.489298 
L 246.330882 65.305259 
L 247.144552 62.293415 
L 247.958223 62.73635 
L 248.771893 63.577869 
L 249.585564 62.204844 
L 250.399234 63.666467 
L 251.212905 61.983376 
L 252.026576 62.514883 
L 252.840246 61.717636 
L 253.653917 61.584766 
L 254.467587 62.913519 
L 255.281258 62.293415 
L 256.094928 59.503065 
L 256.908599 61.806234 
L 258.53594 60.787519 
L 259.34961 64.596584 
L 260.163281 62.382013 
L 260.976951 60.566051 
L 261.790622 61.673337 
L 262.604293 63.312129 
L 264.231634 63.489298 
L 265.045304 62.071974 
L 265.858975 61.053259 
L 266.672645 58.08574 
L 267.486316 61.141857 
L 268.299986 62.470584 
L 269.113657 61.629065 
L 269.927327 61.230428 
L 270.740998 59.990272 
L 271.554668 62.382013 
L 272.368339 61.274727 
L 273.18201 58.307208 
L 273.99568 61.629065 
L 274.809351 60.964688 
L 275.623021 61.363298 
L 276.436692 62.382013 
L 277.250362 58.48435 
L 278.064033 62.514883 
L 278.877703 60.123143 
L 279.691374 58.882987 
L 280.505044 61.274727 
L 281.318715 60.078844 
L 282.946056 61.274727 
L 284.573397 59.680234 
L 285.387068 58.262909 
L 286.200738 60.21174 
L 287.014409 60.388883 
L 287.828079 59.015857 
L 288.64175 60.123143 
L 289.45542 62.337714 
L 290.269091 59.458766 
L 291.082761 59.813104 
L 291.896432 61.451896 
L 292.710103 60.300311 
L 293.523773 60.87609 
L 294.337444 60.21174 
L 295.151114 61.274727 
L 295.964785 60.831818 
L 296.778455 60.167441 
L 297.592126 63.577869 
L 298.405796 57.155623 
L 299.219467 59.237325 
L 300.033137 57.111325 
L 301.660478 61.097558 
L 302.474149 58.705818 
L 303.28782 58.174311 
L 304.10149 56.801286 
L 304.915161 61.008987 
L 305.728831 57.908571 
L 306.542502 59.635935 
L 308.169843 58.130039 
L 308.983513 58.307208 
L 309.797184 58.617247 
L 310.610854 57.687104 
L 311.424525 58.927286 
L 312.238195 59.414493 
L 313.051866 60.831818 
L 313.865537 58.174311 
L 314.679207 59.104428 
L 315.492878 57.95287 
L 316.306548 60.123143 
L 317.120219 59.547363 
L 317.933889 59.591636 
L 318.74756 58.262909 
L 319.56123 58.617247 
L 320.374901 56.225507 
L 321.188571 58.661519 
L 322.002242 56.004039 
L 322.815913 58.08574 
L 323.629583 56.624117 
L 324.443254 56.358377 
L 325.256924 58.617247 
L 326.070595 57.421363 
L 326.884265 58.395779 
L 327.697936 60.433181 
L 328.511606 57.244195 
L 329.325277 56.668416 
L 330.138947 59.104428 
L 330.952618 59.148727 
L 331.766288 59.591636 
L 332.579959 57.377065 
L 333.39363 58.971558 
L 334.2073 56.402649 
L 335.020971 58.572948 
L 335.834641 58.262909 
L 336.648312 56.402649 
L 337.461982 57.377065 
L 338.275653 58.617247 
L 339.902994 55.782571 
L 340.716664 57.775701 
L 341.530335 57.377065 
L 342.344005 57.642831 
L 343.157676 61.629065 
L 343.971347 57.731402 
L 344.785017 59.237325 
L 345.598688 58.440078 
L 346.412358 58.440078 
L 347.226029 59.104428 
L 348.039699 59.325896 
L 348.85337 58.440078 
L 349.66704 60.47748 
L 350.480711 55.206792 
L 351.294381 59.591636 
L 352.108052 59.945974 
L 352.921722 57.332792 
L 353.735393 56.845584 
L 354.549064 56.624117 
L 355.362734 58.705818 
L 356.176405 57.997142 
L 356.990075 59.945974 
L 357.803746 56.535546 
L 358.617416 56.314078 
L 361.058428 57.199896 
L 361.872098 59.503065 
L 362.685769 57.642831 
L 363.49944 58.174311 
L 364.31311 57.288493 
L 365.126781 59.104428 
L 365.940451 56.756987 
L 366.754122 55.162493 
L 367.567792 56.668416 
L 368.381463 56.668416 
L 369.195133 59.414493 
L 370.008804 57.908571 
L 370.822474 57.687104 
L 371.636145 55.516831 
L 372.449815 55.339662 
L 373.263486 59.503065 
L 374.077157 56.712714 
L 374.890827 55.694 
L 375.704498 58.440078 
L 376.518168 57.864272 
L 377.331839 56.934156 
L 378.145509 55.251091 
L 378.95918 57.199896 
L 379.77285 59.813104 
L 380.586521 60.078844 
L 381.400191 56.402649 
L 382.213862 56.402649 
L 383.027532 58.395779 
L 383.841203 57.687104 
L 384.654874 55.605402 
L 385.468544 57.199896 
L 386.282215 57.332792 
L 387.095885 56.801286 
L 387.909556 55.251091 
L 388.723226 56.934156 
L 389.536897 57.864272 
L 390.350567 56.048338 
L 391.164238 56.446948 
L 391.977908 59.104428 
L 392.791579 55.383961 
L 393.605249 58.041441 
L 394.41892 54.896753 
L 395.232591 54.542416 
L 396.859932 56.845584 
L 397.673602 56.624117 
L 398.487273 54.896753 
L 398.487273 54.896753 
" style="fill:none;stroke:#9467bd;stroke-linecap:square;stroke-width:1.5;"/>
   </g>
   <g id="patch_3">
    <path d="M 57.6 307.584 
L 57.6 41.472 
" style="fill:none;stroke:#000000;stroke-linecap:square;stroke-linejoin:miter;stroke-width:0.8;"/>
   </g>
   <g id="patch_4">
    <path d="M 414.72 307.584 
L 414.72 41.472 
" style="fill:none;stroke:#000000;stroke-linecap:square;stroke-linejoin:miter;stroke-width:0.8;"/>
   </g>
   <g id="patch_5">
    <path d="M 57.6 307.584 
L 414.72 307.584 
" style="fill:none;stroke:#000000;stroke-linecap:square;stroke-linejoin:miter;stroke-width:0.8;"/>
   </g>
   <g id="patch_6">
    <path d="M 57.6 41.472 
L 414.72 41.472 
" style="fill:none;stroke:#000000;stroke-linecap:square;stroke-linejoin:miter;stroke-width:0.8;"/>
   </g>
   <g id="text_18">
    <!-- Finding optimum $ \sigma $ pruning threshold wide search -->
    <defs>
     <path d="M 9.8125 72.90625 
L 51.703125 72.90625 
L 51.703125 64.59375 
L 19.671875 64.59375 
L 19.671875 43.109375 
L 48.578125 43.109375 
L 48.578125 34.8125 
L 19.671875 34.8125 
L 19.671875 0 
L 9.8125 0 
z
" id="DejaVuSans-70"/>
     <path d="M 9.421875 54.6875 
L 18.40625 54.6875 
L 18.40625 0 
L 9.421875 0 
z
M 9.421875 75.984375 
L 18.40625 75.984375 
L 18.40625 64.59375 
L 9.421875 64.59375 
z
" id="DejaVuSans-105"/>
     <path d="M 54.890625 33.015625 
L 54.890625 0 
L 45.90625 0 
L 45.90625 32.71875 
Q 45.90625 40.484375 42.875 44.328125 
Q 39.84375 48.1875 33.796875 48.1875 
Q 26.515625 48.1875 22.3125 43.546875 
Q 18.109375 38.921875 18.109375 30.90625 
L 18.109375 0 
L 9.078125 0 
L 9.078125 54.6875 
L 18.109375 54.6875 
L 18.109375 46.1875 
Q 21.34375 51.125 25.703125 53.5625 
Q 30.078125 56 35.796875 56 
Q 45.21875 56 50.046875 50.171875 
Q 54.890625 44.34375 54.890625 33.015625 
z
" id="DejaVuSans-110"/>
     <path d="M 45.40625 46.390625 
L 45.40625 75.984375 
L 54.390625 75.984375 
L 54.390625 0 
L 45.40625 0 
L 45.40625 8.203125 
Q 42.578125 3.328125 38.25 0.953125 
Q 33.9375 -1.421875 27.875 -1.421875 
Q 17.96875 -1.421875 11.734375 6.484375 
Q 5.515625 14.40625 5.515625 27.296875 
Q 5.515625 40.1875 11.734375 48.09375 
Q 17.96875 56 27.875 56 
Q 33.9375 56 38.25 53.625 
Q 42.578125 51.265625 45.40625 46.390625 
z
M 14.796875 27.296875 
Q 14.796875 17.390625 18.875 11.75 
Q 22.953125 6.109375 30.078125 6.109375 
Q 37.203125 6.109375 41.296875 11.75 
Q 45.40625 17.390625 45.40625 27.296875 
Q 45.40625 37.203125 41.296875 42.84375 
Q 37.203125 48.484375 30.078125 48.484375 
Q 22.953125 48.484375 18.875 42.84375 
Q 14.796875 37.203125 14.796875 27.296875 
z
" id="DejaVuSans-100"/>
     <path d="M 45.40625 27.984375 
Q 45.40625 37.75 41.375 43.109375 
Q 37.359375 48.484375 30.078125 48.484375 
Q 22.859375 48.484375 18.828125 43.109375 
Q 14.796875 37.75 14.796875 27.984375 
Q 14.796875 18.265625 18.828125 12.890625 
Q 22.859375 7.515625 30.078125 7.515625 
Q 37.359375 7.515625 41.375 12.890625 
Q 45.40625 18.265625 45.40625 27.984375 
z
M 54.390625 6.78125 
Q 54.390625 -7.171875 48.1875 -13.984375 
Q 42 -20.796875 29.203125 -20.796875 
Q 24.46875 -20.796875 20.265625 -20.09375 
Q 16.0625 -19.390625 12.109375 -17.921875 
L 12.109375 -9.1875 
Q 16.0625 -11.328125 19.921875 -12.34375 
Q 23.78125 -13.375 27.78125 -13.375 
Q 36.625 -13.375 41.015625 -8.765625 
Q 45.40625 -4.15625 45.40625 5.171875 
L 45.40625 9.625 
Q 42.625 4.78125 38.28125 2.390625 
Q 33.9375 0 27.875 0 
Q 17.828125 0 11.671875 7.65625 
Q 5.515625 15.328125 5.515625 27.984375 
Q 5.515625 40.671875 11.671875 48.328125 
Q 17.828125 56 27.875 56 
Q 33.9375 56 38.28125 53.609375 
Q 42.625 51.21875 45.40625 46.390625 
L 45.40625 54.6875 
L 54.390625 54.6875 
z
" id="DejaVuSans-103"/>
     <path d="M 18.3125 70.21875 
L 18.3125 54.6875 
L 36.8125 54.6875 
L 36.8125 47.703125 
L 18.3125 47.703125 
L 18.3125 18.015625 
Q 18.3125 11.328125 20.140625 9.421875 
Q 21.96875 7.515625 27.59375 7.515625 
L 36.8125 7.515625 
L 36.8125 0 
L 27.59375 0 
Q 17.1875 0 13.234375 3.875 
Q 9.28125 7.765625 9.28125 18.015625 
L 9.28125 47.703125 
L 2.6875 47.703125 
L 2.6875 54.6875 
L 9.28125 54.6875 
L 9.28125 70.21875 
z
" id="DejaVuSans-116"/>
     <path d="M 52 44.1875 
Q 55.375 50.25 60.0625 53.125 
Q 64.75 56 71.09375 56 
Q 79.640625 56 84.28125 50.015625 
Q 88.921875 44.046875 88.921875 33.015625 
L 88.921875 0 
L 79.890625 0 
L 79.890625 32.71875 
Q 79.890625 40.578125 77.09375 44.375 
Q 74.3125 48.1875 68.609375 48.1875 
Q 61.625 48.1875 57.5625 43.546875 
Q 53.515625 38.921875 53.515625 30.90625 
L 53.515625 0 
L 44.484375 0 
L 44.484375 32.71875 
Q 44.484375 40.625 41.703125 44.40625 
Q 38.921875 48.1875 33.109375 48.1875 
Q 26.21875 48.1875 22.15625 43.53125 
Q 18.109375 38.875 18.109375 30.90625 
L 18.109375 0 
L 9.078125 0 
L 9.078125 54.6875 
L 18.109375 54.6875 
L 18.109375 46.1875 
Q 21.1875 51.21875 25.484375 53.609375 
Q 29.78125 56 35.6875 56 
Q 41.65625 56 45.828125 52.96875 
Q 50 49.953125 52 44.1875 
z
" id="DejaVuSans-109"/>
     <path d="M 46.921875 33.109375 
Q 46.921875 43.5 37.640625 43.5 
Q 31.890625 43.5 28.03125 39.359375 
Q 24.171875 35.15625 22.65625 27.296875 
Q 22.015625 24.125 22.015625 21.53125 
Q 22.015625 11.078125 31.34375 11.078125 
Q 37.109375 11.078125 40.96875 15.234375 
Q 44.78125 19.4375 46.34375 27.296875 
Q 46.921875 30.515625 46.921875 33.109375 
z
M 75.6875 42.1875 
L 64.203125 42.1875 
Q 65.28125 38.71875 65.28125 34.90625 
Q 65.28125 31.15625 64.546875 27.296875 
Q 61.921875 13.8125 52.484375 6.1875 
Q 43.0625 -1.421875 28.953125 -1.421875 
Q 14.796875 -1.421875 8.296875 6.203125 
Q 3.65625 11.625 3.65625 20.015625 
Q 3.65625 23.4375 4.4375 27.296875 
Q 7.03125 40.765625 16.5 48.390625 
Q 24.3125 54.6875 39.890625 54.6875 
L 78.125 54.6875 
z
" id="DejaVuSans-BoldOblique-963"/>
     <path d="M 56.203125 29.59375 
L 56.203125 25.203125 
L 14.890625 25.203125 
Q 15.484375 15.921875 20.484375 11.0625 
Q 25.484375 6.203125 34.421875 6.203125 
Q 39.59375 6.203125 44.453125 7.46875 
Q 49.3125 8.734375 54.109375 11.28125 
L 54.109375 2.78125 
Q 49.265625 0.734375 44.1875 -0.34375 
Q 39.109375 -1.421875 33.890625 -1.421875 
Q 20.796875 -1.421875 13.15625 6.1875 
Q 5.515625 13.8125 5.515625 26.8125 
Q 5.515625 40.234375 12.765625 48.109375 
Q 20.015625 56 32.328125 56 
Q 43.359375 56 49.78125 48.890625 
Q 56.203125 41.796875 56.203125 29.59375 
z
M 47.21875 32.234375 
Q 47.125 39.59375 43.09375 43.984375 
Q 39.0625 48.390625 32.421875 48.390625 
Q 24.90625 48.390625 20.390625 44.140625 
Q 15.875 39.890625 15.1875 32.171875 
z
" id="DejaVuSans-101"/>
     <path d="M 9.421875 75.984375 
L 18.40625 75.984375 
L 18.40625 0 
L 9.421875 0 
z
" id="DejaVuSans-108"/>
     <path d="M 4.203125 54.6875 
L 13.1875 54.6875 
L 24.421875 12.015625 
L 35.59375 54.6875 
L 46.1875 54.6875 
L 57.421875 12.015625 
L 68.609375 54.6875 
L 77.59375 54.6875 
L 63.28125 0 
L 52.6875 0 
L 40.921875 44.828125 
L 29.109375 0 
L 18.5 0 
z
" id="DejaVuSans-119"/>
    </defs>
    <g transform="translate(55.152 35.472)scale(0.144 -0.144)">
     <use transform="translate(0 0.015625)" xlink:href="#DejaVuSans-70"/>
     <use transform="translate(57.519531 0.015625)" xlink:href="#DejaVuSans-105"/>
     <use transform="translate(85.302734 0.015625)" xlink:href="#DejaVuSans-110"/>
     <use transform="translate(148.681641 0.015625)" xlink:href="#DejaVuSans-100"/>
     <use transform="translate(212.158203 0.015625)" xlink:href="#DejaVuSans-105"/>
     <use transform="translate(239.941406 0.015625)" xlink:href="#DejaVuSans-110"/>
     <use transform="translate(303.320312 0.015625)" xlink:href="#DejaVuSans-103"/>
     <use transform="translate(366.796875 0.015625)" xlink:href="#DejaVuSans-32"/>
     <use transform="translate(398.583984 0.015625)" xlink:href="#DejaVuSans-111"/>
     <use transform="translate(459.765625 0.015625)" xlink:href="#DejaVuSans-112"/>
     <use transform="translate(523.242188 0.015625)" xlink:href="#DejaVuSans-116"/>
     <use transform="translate(562.451172 0.015625)" xlink:href="#DejaVuSans-105"/>
     <use transform="translate(590.234375 0.015625)" xlink:href="#DejaVuSans-109"/>
     <use transform="translate(687.646484 0.015625)" xlink:href="#DejaVuSans-117"/>
     <use transform="translate(751.025391 0.015625)" xlink:href="#DejaVuSans-109"/>
     <use transform="translate(848.4375 0.015625)" xlink:href="#DejaVuSans-32"/>
     <use transform="translate(880.224609 0.015625)" xlink:href="#DejaVuSans-BoldOblique-963"/>
     <use transform="translate(958.105469 0.015625)" xlink:href="#DejaVuSans-32"/>
     <use transform="translate(989.892578 0.015625)" xlink:href="#DejaVuSans-112"/>
     <use transform="translate(1053.369141 0.015625)" xlink:href="#DejaVuSans-114"/>
     <use transform="translate(1094.482422 0.015625)" xlink:href="#DejaVuSans-117"/>
     <use transform="translate(1157.861328 0.015625)" xlink:href="#DejaVuSans-110"/>
     <use transform="translate(1221.240234 0.015625)" xlink:href="#DejaVuSans-105"/>
     <use transform="translate(1249.023438 0.015625)" xlink:href="#DejaVuSans-110"/>
     <use transform="translate(1312.402344 0.015625)" xlink:href="#DejaVuSans-103"/>
     <use transform="translate(1375.878906 0.015625)" xlink:href="#DejaVuSans-32"/>
     <use transform="translate(1407.666016 0.015625)" xlink:href="#DejaVuSans-116"/>
     <use transform="translate(1446.875 0.015625)" xlink:href="#DejaVuSans-104"/>
     <use transform="translate(1510.253906 0.015625)" xlink:href="#DejaVuSans-114"/>
     <use transform="translate(1551.367188 0.015625)" xlink:href="#DejaVuSans-101"/>
     <use transform="translate(1612.890625 0.015625)" xlink:href="#DejaVuSans-115"/>
     <use transform="translate(1664.990234 0.015625)" xlink:href="#DejaVuSans-104"/>
     <use transform="translate(1728.369141 0.015625)" xlink:href="#DejaVuSans-111"/>
     <use transform="translate(1789.550781 0.015625)" xlink:href="#DejaVuSans-108"/>
     <use transform="translate(1817.333984 0.015625)" xlink:href="#DejaVuSans-100"/>
     <use transform="translate(1880.810547 0.015625)" xlink:href="#DejaVuSans-32"/>
     <use transform="translate(1912.597656 0.015625)" xlink:href="#DejaVuSans-119"/>
     <use transform="translate(1994.384766 0.015625)" xlink:href="#DejaVuSans-105"/>
     <use transform="translate(2022.167969 0.015625)" xlink:href="#DejaVuSans-100"/>
     <use transform="translate(2085.644531 0.015625)" xlink:href="#DejaVuSans-101"/>
     <use transform="translate(2147.167969 0.015625)" xlink:href="#DejaVuSans-32"/>
     <use transform="translate(2178.955078 0.015625)" xlink:href="#DejaVuSans-115"/>
     <use transform="translate(2231.054688 0.015625)" xlink:href="#DejaVuSans-101"/>
     <use transform="translate(2292.578125 0.015625)" xlink:href="#DejaVuSans-97"/>
     <use transform="translate(2353.857422 0.015625)" xlink:href="#DejaVuSans-114"/>
     <use transform="translate(2394.970703 0.015625)" xlink:href="#DejaVuSans-99"/>
     <use transform="translate(2449.951172 0.015625)" xlink:href="#DejaVuSans-104"/>
    </g>
   </g>
   <g id="legend_1">
    <g id="patch_7">
     <path d="M 440.976 156.852 
L 576.426 156.852 
Q 578.826 156.852 578.826 154.452 
L 578.826 49.872 
Q 578.826 47.472 576.426 47.472 
L 440.976 47.472 
Q 438.576 47.472 438.576 49.872 
L 438.576 154.452 
Q 438.576 156.852 440.976 156.852 
z
" style="fill:#ffffff;opacity:0.8;stroke:#cccccc;stroke-linejoin:miter;"/>
    </g>
    <g id="text_19">
     <!-- Prune node k if   -->
     <defs>
      <path d="M 9.1875 72.90625 
L 40.375 72.90625 
Q 54.296875 72.90625 61.734375 66.71875 
Q 69.1875 60.546875 69.1875 49.125 
Q 69.1875 37.640625 61.734375 31.46875 
Q 54.296875 25.296875 40.375 25.296875 
L 27.984375 25.296875 
L 27.984375 0 
L 9.1875 0 
z
M 27.984375 59.28125 
L 27.984375 38.921875 
L 38.375 38.921875 
Q 43.84375 38.921875 46.828125 41.578125 
Q 49.8125 44.234375 49.8125 49.125 
Q 49.8125 54 46.828125 56.640625 
Q 43.84375 59.28125 38.375 59.28125 
z
" id="DejaVuSans-Bold-80"/>
      <path d="M 49.03125 39.796875 
Q 46.734375 40.875 44.453125 41.375 
Q 42.1875 41.890625 39.890625 41.890625 
Q 33.15625 41.890625 29.515625 37.5625 
Q 25.875 33.25 25.875 25.203125 
L 25.875 0 
L 8.40625 0 
L 8.40625 54.6875 
L 25.875 54.6875 
L 25.875 45.703125 
Q 29.25 51.078125 33.609375 53.53125 
Q 37.984375 56 44.09375 56 
Q 44.96875 56 45.984375 55.921875 
Q 47.015625 55.859375 48.96875 55.609375 
z
" id="DejaVuSans-Bold-114"/>
      <path d="M 7.8125 21.296875 
L 7.8125 54.6875 
L 25.390625 54.6875 
L 25.390625 49.21875 
Q 25.390625 44.78125 25.34375 38.0625 
Q 25.296875 31.34375 25.296875 29.109375 
Q 25.296875 22.515625 25.640625 19.609375 
Q 25.984375 16.703125 26.8125 15.375 
Q 27.875 13.671875 29.609375 12.734375 
Q 31.34375 11.8125 33.59375 11.8125 
Q 39.0625 11.8125 42.1875 16.015625 
Q 45.3125 20.21875 45.3125 27.6875 
L 45.3125 54.6875 
L 62.796875 54.6875 
L 62.796875 0 
L 45.3125 0 
L 45.3125 7.90625 
Q 41.359375 3.125 36.9375 0.84375 
Q 32.515625 -1.421875 27.203125 -1.421875 
Q 17.71875 -1.421875 12.765625 4.390625 
Q 7.8125 10.203125 7.8125 21.296875 
z
" id="DejaVuSans-Bold-117"/>
      <path d="M 63.375 33.296875 
L 63.375 0 
L 45.796875 0 
L 45.796875 5.421875 
L 45.796875 25.484375 
Q 45.796875 32.5625 45.484375 35.25 
Q 45.171875 37.9375 44.390625 39.203125 
Q 43.359375 40.921875 41.59375 41.875 
Q 39.84375 42.828125 37.59375 42.828125 
Q 32.125 42.828125 29 38.59375 
Q 25.875 34.375 25.875 26.90625 
L 25.875 0 
L 8.40625 0 
L 8.40625 54.6875 
L 25.875 54.6875 
L 25.875 46.6875 
Q 29.828125 51.46875 34.265625 53.734375 
Q 38.71875 56 44.09375 56 
Q 53.5625 56 58.46875 50.1875 
Q 63.375 44.390625 63.375 33.296875 
z
" id="DejaVuSans-Bold-110"/>
      <path d="M 62.984375 27.484375 
L 62.984375 22.515625 
L 22.125 22.515625 
Q 22.75 16.359375 26.5625 13.28125 
Q 30.375 10.203125 37.203125 10.203125 
Q 42.71875 10.203125 48.5 11.84375 
Q 54.296875 13.484375 60.40625 16.796875 
L 60.40625 3.328125 
Q 54.203125 0.984375 48 -0.21875 
Q 41.796875 -1.421875 35.59375 -1.421875 
Q 20.75 -1.421875 12.515625 6.125 
Q 4.296875 13.671875 4.296875 27.296875 
Q 4.296875 40.671875 12.375 48.328125 
Q 20.453125 56 34.625 56 
Q 47.515625 56 55.25 48.234375 
Q 62.984375 40.484375 62.984375 27.484375 
z
M 45.015625 33.296875 
Q 45.015625 38.28125 42.109375 41.328125 
Q 39.203125 44.390625 34.515625 44.390625 
Q 29.4375 44.390625 26.265625 41.53125 
Q 23.09375 38.671875 22.3125 33.296875 
z
" id="DejaVuSans-Bold-101"/>
      <path id="DejaVuSans-Bold-32"/>
      <path d="M 34.421875 43.5 
Q 28.609375 43.5 25.5625 39.328125 
Q 22.515625 35.15625 22.515625 27.296875 
Q 22.515625 19.4375 25.5625 15.25 
Q 28.609375 11.078125 34.421875 11.078125 
Q 40.140625 11.078125 43.15625 15.25 
Q 46.1875 19.4375 46.1875 27.296875 
Q 46.1875 35.15625 43.15625 39.328125 
Q 40.140625 43.5 34.421875 43.5 
z
M 34.421875 56 
Q 48.53125 56 56.46875 48.375 
Q 64.40625 40.765625 64.40625 27.296875 
Q 64.40625 13.8125 56.46875 6.1875 
Q 48.53125 -1.421875 34.421875 -1.421875 
Q 20.265625 -1.421875 12.28125 6.1875 
Q 4.296875 13.8125 4.296875 27.296875 
Q 4.296875 40.765625 12.28125 48.375 
Q 20.265625 56 34.421875 56 
z
" id="DejaVuSans-Bold-111"/>
      <path d="M 45.609375 46.6875 
L 45.609375 75.984375 
L 63.1875 75.984375 
L 63.1875 0 
L 45.609375 0 
L 45.609375 7.90625 
Q 42 3.078125 37.640625 0.828125 
Q 33.296875 -1.421875 27.59375 -1.421875 
Q 17.484375 -1.421875 10.984375 6.609375 
Q 4.5 14.65625 4.5 27.296875 
Q 4.5 39.9375 10.984375 47.96875 
Q 17.484375 56 27.59375 56 
Q 33.25 56 37.625 53.734375 
Q 42 51.46875 45.609375 46.6875 
z
M 34.078125 11.28125 
Q 39.703125 11.28125 42.65625 15.375 
Q 45.609375 19.484375 45.609375 27.296875 
Q 45.609375 35.109375 42.65625 39.203125 
Q 39.703125 43.3125 34.078125 43.3125 
Q 28.515625 43.3125 25.5625 39.203125 
Q 22.609375 35.109375 22.609375 27.296875 
Q 22.609375 19.484375 25.5625 15.375 
Q 28.515625 11.28125 34.078125 11.28125 
z
" id="DejaVuSans-Bold-100"/>
      <path d="M 8.40625 75.984375 
L 25.875 75.984375 
L 25.875 34.625 
L 46 54.6875 
L 66.3125 54.6875 
L 39.59375 29.59375 
L 68.40625 0 
L 47.21875 0 
L 25.875 22.796875 
L 25.875 0 
L 8.40625 0 
z
" id="DejaVuSans-Bold-107"/>
      <path d="M 8.40625 54.6875 
L 25.875 54.6875 
L 25.875 0 
L 8.40625 0 
z
M 8.40625 75.984375 
L 25.875 75.984375 
L 25.875 61.71875 
L 8.40625 61.71875 
z
" id="DejaVuSans-Bold-105"/>
      <path d="M 44.390625 75.984375 
L 44.390625 64.5 
L 34.71875 64.5 
Q 31 64.5 29.53125 63.15625 
Q 28.078125 61.8125 28.078125 58.5 
L 28.078125 54.6875 
L 43.015625 54.6875 
L 43.015625 42.1875 
L 28.078125 42.1875 
L 28.078125 0 
L 10.59375 0 
L 10.59375 42.1875 
L 1.90625 42.1875 
L 1.90625 54.6875 
L 10.59375 54.6875 
L 10.59375 58.5 
Q 10.59375 67.4375 15.578125 71.703125 
Q 20.5625 75.984375 31 75.984375 
z
" id="DejaVuSans-Bold-102"/>
     </defs>
     <g transform="translate(452.873813 61.390125)scale(0.12 -0.12)">
      <use xlink:href="#DejaVuSans-Bold-80"/>
      <use x="73.291016" xlink:href="#DejaVuSans-Bold-114"/>
      <use x="122.607422" xlink:href="#DejaVuSans-Bold-117"/>
      <use x="193.798828" xlink:href="#DejaVuSans-Bold-110"/>
      <use x="264.990234" xlink:href="#DejaVuSans-Bold-101"/>
      <use x="332.8125" xlink:href="#DejaVuSans-Bold-32"/>
      <use x="367.626953" xlink:href="#DejaVuSans-Bold-110"/>
      <use x="438.818359" xlink:href="#DejaVuSans-Bold-111"/>
      <use x="507.519531" xlink:href="#DejaVuSans-Bold-100"/>
      <use x="579.101562" xlink:href="#DejaVuSans-Bold-101"/>
      <use x="646.923828" xlink:href="#DejaVuSans-Bold-32"/>
      <use x="681.738281" xlink:href="#DejaVuSans-Bold-107"/>
      <use x="748.242188" xlink:href="#DejaVuSans-Bold-32"/>
      <use x="783.056641" xlink:href="#DejaVuSans-Bold-105"/>
      <use x="817.333984" xlink:href="#DejaVuSans-Bold-102"/>
      <use x="860.839844" xlink:href="#DejaVuSans-Bold-32"/>
      <use x="895.654297" xlink:href="#DejaVuSans-Bold-32"/>
     </g>
    </g>
    <g id="line2d_36">
     <path d="M 443.376 74.803875 
L 461.8 74.803875 
" style="fill:none;stroke:#1f77b4;stroke-linecap:square;stroke-width:1.5;"/>
    </g>
    <g id="line2d_37"/>
    <g id="text_20">
     <!-- SET (baseline) -->
     <defs>
      <path d="M 59.90625 70.609375 
L 59.90625 55.171875 
Q 53.90625 57.859375 48.1875 59.21875 
Q 42.484375 60.59375 37.40625 60.59375 
Q 30.671875 60.59375 27.4375 58.734375 
Q 24.21875 56.890625 24.21875 52.984375 
Q 24.21875 50.046875 26.390625 48.40625 
Q 28.5625 46.78125 34.28125 45.609375 
L 42.28125 44 
Q 54.4375 41.546875 59.5625 36.5625 
Q 64.703125 31.59375 64.703125 22.40625 
Q 64.703125 10.359375 57.546875 4.46875 
Q 50.390625 -1.421875 35.6875 -1.421875 
Q 28.765625 -1.421875 21.78125 -0.09375 
Q 14.796875 1.21875 7.8125 3.8125 
L 7.8125 19.671875 
Q 14.796875 15.96875 21.3125 14.078125 
Q 27.828125 12.203125 33.890625 12.203125 
Q 40.046875 12.203125 43.3125 14.25 
Q 46.578125 16.3125 46.578125 20.125 
Q 46.578125 23.53125 44.359375 25.390625 
Q 42.140625 27.25 35.5 28.71875 
L 28.21875 30.328125 
Q 17.28125 32.671875 12.21875 37.796875 
Q 7.171875 42.921875 7.171875 51.609375 
Q 7.171875 62.5 14.203125 68.359375 
Q 21.234375 74.21875 34.421875 74.21875 
Q 40.4375 74.21875 46.78125 73.3125 
Q 53.125 72.40625 59.90625 70.609375 
z
" id="DejaVuSans-Bold-83"/>
      <path d="M 9.1875 72.90625 
L 59.90625 72.90625 
L 59.90625 58.6875 
L 27.984375 58.6875 
L 27.984375 45.125 
L 58.015625 45.125 
L 58.015625 30.90625 
L 27.984375 30.90625 
L 27.984375 14.203125 
L 60.984375 14.203125 
L 60.984375 0 
L 9.1875 0 
z
" id="DejaVuSans-Bold-69"/>
      <path d="M 0.484375 72.90625 
L 67.671875 72.90625 
L 67.671875 58.6875 
L 43.5 58.6875 
L 43.5 0 
L 24.703125 0 
L 24.703125 58.6875 
L 0.484375 58.6875 
z
" id="DejaVuSans-Bold-84"/>
      <path d="M 37.703125 -13.1875 
L 23.1875 -13.1875 
Q 15.71875 -1.125 12.15625 9.734375 
Q 8.59375 20.609375 8.59375 31.296875 
Q 8.59375 42 12.171875 52.953125 
Q 15.765625 63.921875 23.1875 75.875 
L 37.703125 75.875 
Q 31.453125 64.3125 28.328125 53.25 
Q 25.203125 42.1875 25.203125 31.390625 
Q 25.203125 20.609375 28.296875 9.515625 
Q 31.390625 -1.5625 37.703125 -13.1875 
z
" id="DejaVuSans-Bold-40"/>
      <path d="M 37.5 11.28125 
Q 43.109375 11.28125 46.0625 15.375 
Q 49.03125 19.484375 49.03125 27.296875 
Q 49.03125 35.109375 46.0625 39.203125 
Q 43.109375 43.3125 37.5 43.3125 
Q 31.890625 43.3125 28.875 39.1875 
Q 25.875 35.0625 25.875 27.296875 
Q 25.875 19.53125 28.875 15.40625 
Q 31.890625 11.28125 37.5 11.28125 
z
M 25.875 46.6875 
Q 29.5 51.46875 33.890625 53.734375 
Q 38.28125 56 44 56 
Q 54.109375 56 60.59375 47.96875 
Q 67.09375 39.9375 67.09375 27.296875 
Q 67.09375 14.65625 60.59375 6.609375 
Q 54.109375 -1.421875 44 -1.421875 
Q 38.28125 -1.421875 33.890625 0.84375 
Q 29.5 3.125 25.875 7.90625 
L 25.875 0 
L 8.40625 0 
L 8.40625 75.984375 
L 25.875 75.984375 
z
" id="DejaVuSans-Bold-98"/>
      <path d="M 32.90625 24.609375 
Q 27.4375 24.609375 24.671875 22.75 
Q 21.921875 20.90625 21.921875 17.28125 
Q 21.921875 13.96875 24.140625 12.078125 
Q 26.375 10.203125 30.328125 10.203125 
Q 35.25 10.203125 38.625 13.734375 
Q 42 17.28125 42 22.609375 
L 42 24.609375 
z
M 59.625 31.203125 
L 59.625 0 
L 42 0 
L 42 8.109375 
Q 38.484375 3.125 34.078125 0.84375 
Q 29.6875 -1.421875 23.390625 -1.421875 
Q 14.890625 -1.421875 9.59375 3.53125 
Q 4.296875 8.5 4.296875 16.40625 
Q 4.296875 26.03125 10.90625 30.515625 
Q 17.53125 35.015625 31.6875 35.015625 
L 42 35.015625 
L 42 36.375 
Q 42 40.53125 38.71875 42.453125 
Q 35.453125 44.390625 28.515625 44.390625 
Q 22.90625 44.390625 18.0625 43.265625 
Q 13.234375 42.140625 9.078125 39.890625 
L 9.078125 53.21875 
Q 14.703125 54.59375 20.359375 55.296875 
Q 26.03125 56 31.6875 56 
Q 46.484375 56 53.046875 50.171875 
Q 59.625 44.34375 59.625 31.203125 
z
" id="DejaVuSans-Bold-97"/>
      <path d="M 51.125 52.984375 
L 51.125 39.703125 
Q 45.515625 42.046875 40.28125 43.21875 
Q 35.0625 44.390625 30.421875 44.390625 
Q 25.4375 44.390625 23.015625 43.140625 
Q 20.609375 41.890625 20.609375 39.3125 
Q 20.609375 37.203125 22.4375 36.078125 
Q 24.265625 34.96875 29 34.421875 
L 32.078125 33.984375 
Q 45.515625 32.28125 50.140625 28.375 
Q 54.78125 24.46875 54.78125 16.109375 
Q 54.78125 7.375 48.328125 2.96875 
Q 41.890625 -1.421875 29.109375 -1.421875 
Q 23.6875 -1.421875 17.890625 -0.5625 
Q 12.109375 0.296875 6 2 
L 6 15.28125 
Q 11.234375 12.75 16.71875 11.46875 
Q 22.21875 10.203125 27.875 10.203125 
Q 33.015625 10.203125 35.59375 11.609375 
Q 38.1875 13.03125 38.1875 15.828125 
Q 38.1875 18.171875 36.40625 19.3125 
Q 34.625 20.453125 29.296875 21.09375 
L 26.21875 21.484375 
Q 14.546875 22.953125 9.859375 26.90625 
Q 5.171875 30.859375 5.171875 38.921875 
Q 5.171875 47.609375 11.125 51.796875 
Q 17.09375 56 29.390625 56 
Q 34.234375 56 39.546875 55.265625 
Q 44.875 54.546875 51.125 52.984375 
z
" id="DejaVuSans-Bold-115"/>
      <path d="M 8.40625 75.984375 
L 25.875 75.984375 
L 25.875 0 
L 8.40625 0 
z
" id="DejaVuSans-Bold-108"/>
      <path d="M 8.015625 -13.1875 
Q 14.265625 -1.5625 17.390625 9.515625 
Q 20.515625 20.609375 20.515625 31.390625 
Q 20.515625 42.1875 17.390625 53.25 
Q 14.265625 64.3125 8.015625 75.875 
L 22.515625 75.875 
Q 29.9375 63.921875 33.515625 52.953125 
Q 37.109375 42 37.109375 31.296875 
Q 37.109375 20.609375 33.546875 9.734375 
Q 29.984375 -1.125 22.515625 -13.1875 
z
" id="DejaVuSans-Bold-41"/>
     </defs>
     <g transform="translate(476.976 79.003875)scale(0.12 -0.12)">
      <use xlink:href="#DejaVuSans-Bold-83"/>
      <use x="72.021484" xlink:href="#DejaVuSans-Bold-69"/>
      <use x="140.332031" xlink:href="#DejaVuSans-Bold-84"/>
      <use x="208.544922" xlink:href="#DejaVuSans-Bold-32"/>
      <use x="243.359375" xlink:href="#DejaVuSans-Bold-40"/>
      <use x="289.0625" xlink:href="#DejaVuSans-Bold-98"/>
      <use x="360.644531" xlink:href="#DejaVuSans-Bold-97"/>
      <use x="428.125" xlink:href="#DejaVuSans-Bold-115"/>
      <use x="487.646484" xlink:href="#DejaVuSans-Bold-101"/>
      <use x="555.46875" xlink:href="#DejaVuSans-Bold-108"/>
      <use x="589.746094" xlink:href="#DejaVuSans-Bold-105"/>
      <use x="624.023438" xlink:href="#DejaVuSans-Bold-110"/>
      <use x="695.214844" xlink:href="#DejaVuSans-Bold-101"/>
      <use x="763.037109" xlink:href="#DejaVuSans-Bold-41"/>
     </g>
    </g>
    <g id="line2d_38">
     <path d="M 443.376 92.417625 
L 461.8 92.417625 
" style="fill:none;stroke:#ff7f0e;stroke-linecap:square;stroke-width:1.5;"/>
    </g>
    <g id="line2d_39"/>
    <g id="text_21">
     <!-- $\mu - 2.8\sigma$ -->
     <defs>
      <path d="M -2.6875 -20.90625 
L 12.015625 54.6875 
L 29.59375 54.6875 
L 23.390625 22.90625 
Q 23.1875 21.875 23.09375 20.890625 
Q 23 19.921875 23 19.09375 
Q 23 15.53125 25.09375 13.625 
Q 27.203125 11.71875 31.203125 11.71875 
Q 36.1875 11.71875 39.109375 14.453125 
Q 42.046875 17.1875 43.21875 22.90625 
L 49.421875 54.6875 
L 67 54.6875 
L 59.90625 18.109375 
Q 59.71875 17.09375 59.609375 16.234375 
Q 59.515625 15.375 59.515625 14.703125 
Q 59.515625 13.28125 60.171875 12.59375 
Q 60.84375 11.921875 62.203125 11.921875 
Q 63.03125 11.921875 63.984375 12.1875 
Q 64.9375 12.453125 65.921875 12.984375 
L 63.484375 0.78125 
Q 60.6875 -0.34375 58.296875 -0.875 
Q 55.90625 -1.421875 53.71875 -1.421875 
Q 49.421875 -1.421875 47 0.4375 
Q 44.578125 2.296875 43.609375 6.296875 
Q 40.578125 2.4375 36.890625 0.5 
Q 33.203125 -1.421875 28.90625 -1.421875 
Q 25.296875 -1.421875 23.015625 -0.265625 
Q 20.75 0.875 19.671875 3.21875 
L 14.984375 -20.90625 
z
" id="DejaVuSans-BoldOblique-956"/>
      <path d="M 10.59375 37.109375 
L 73.1875 37.109375 
L 73.1875 25.59375 
L 10.59375 25.59375 
z
" id="DejaVuSans-Bold-8722"/>
      <path d="M 10.203125 18.890625 
L 27.78125 18.890625 
L 27.78125 0 
L 10.203125 0 
z
" id="DejaVuSans-Bold-46"/>
      <path d="M 34.8125 32.625 
Q 29.546875 32.625 26.703125 29.734375 
Q 23.875 26.859375 23.875 21.484375 
Q 23.875 16.109375 26.703125 13.25 
Q 29.546875 10.40625 34.8125 10.40625 
Q 40.046875 10.40625 42.828125 13.25 
Q 45.609375 16.109375 45.609375 21.484375 
Q 45.609375 26.90625 42.828125 29.765625 
Q 40.046875 32.625 34.8125 32.625 
z
M 21.09375 38.8125 
Q 14.453125 40.828125 11.078125 44.96875 
Q 7.71875 49.125 7.71875 55.328125 
Q 7.71875 64.546875 14.59375 69.375 
Q 21.484375 74.21875 34.8125 74.21875 
Q 48.046875 74.21875 54.921875 69.40625 
Q 61.8125 64.59375 61.8125 55.328125 
Q 61.8125 49.125 58.421875 44.96875 
Q 55.03125 40.828125 48.390625 38.8125 
Q 55.8125 36.765625 59.59375 32.15625 
Q 63.375 27.546875 63.375 20.515625 
Q 63.375 9.671875 56.171875 4.125 
Q 48.96875 -1.421875 34.8125 -1.421875 
Q 20.609375 -1.421875 13.359375 4.125 
Q 6.109375 9.671875 6.109375 20.515625 
Q 6.109375 27.546875 9.890625 32.15625 
Q 13.671875 36.765625 21.09375 38.8125 
z
M 25.484375 53.421875 
Q 25.484375 49.078125 27.90625 46.734375 
Q 30.328125 44.390625 34.8125 44.390625 
Q 39.203125 44.390625 41.59375 46.734375 
Q 44 49.078125 44 53.421875 
Q 44 57.765625 41.59375 60.078125 
Q 39.203125 62.40625 34.8125 62.40625 
Q 30.328125 62.40625 27.90625 60.0625 
Q 25.484375 57.71875 25.484375 53.421875 
z
" id="DejaVuSans-Bold-56"/>
     </defs>
     <g transform="translate(476.976 96.617625)scale(0.12 -0.12)">
      <use transform="translate(0 0.78125)" xlink:href="#DejaVuSans-BoldOblique-956"/>
      <use transform="translate(94.423828 0.78125)" xlink:href="#DejaVuSans-Bold-8722"/>
      <use transform="translate(199.052734 0.78125)" xlink:href="#DejaVuSans-Bold-50"/>
      <use transform="translate(268.632812 0.78125)" xlink:href="#DejaVuSans-Bold-46"/>
      <use transform="translate(306.605469 0.78125)" xlink:href="#DejaVuSans-Bold-56"/>
      <use transform="translate(376.185547 0.78125)" xlink:href="#DejaVuSans-BoldOblique-963"/>
     </g>
    </g>
    <g id="line2d_40">
     <path d="M 443.376 110.05575 
L 461.8 110.05575 
" style="fill:none;stroke:#2ca02c;stroke-linecap:square;stroke-width:1.5;"/>
    </g>
    <g id="line2d_41"/>
    <g id="text_22">
     <!--  $\mu - 3.2\sigma$ -->
     <g transform="translate(476.976 114.25575)scale(0.12 -0.12)">
      <use transform="translate(0 0.78125)" xlink:href="#DejaVuSans-Bold-32"/>
      <use transform="translate(34.814453 0.78125)" xlink:href="#DejaVuSans-BoldOblique-956"/>
      <use transform="translate(129.238281 0.78125)" xlink:href="#DejaVuSans-Bold-8722"/>
      <use transform="translate(233.867188 0.78125)" xlink:href="#DejaVuSans-Bold-51"/>
      <use transform="translate(303.447266 0.78125)" xlink:href="#DejaVuSans-Bold-46"/>
      <use transform="translate(341.373047 0.78125)" xlink:href="#DejaVuSans-Bold-50"/>
      <use transform="translate(410.953125 0.78125)" xlink:href="#DejaVuSans-BoldOblique-963"/>
     </g>
    </g>
    <g id="line2d_42">
     <path d="M 443.376 127.693875 
L 461.8 127.693875 
" style="fill:none;stroke:#d62728;stroke-linecap:square;stroke-width:1.5;"/>
    </g>
    <g id="line2d_43"/>
    <g id="text_23">
     <!--  $\mu - 3.6\sigma$ -->
     <g transform="translate(476.976 131.893875)scale(0.12 -0.12)">
      <use transform="translate(0 0.78125)" xlink:href="#DejaVuSans-Bold-32"/>
      <use transform="translate(34.814453 0.78125)" xlink:href="#DejaVuSans-BoldOblique-956"/>
      <use transform="translate(129.238281 0.78125)" xlink:href="#DejaVuSans-Bold-8722"/>
      <use transform="translate(233.867188 0.78125)" xlink:href="#DejaVuSans-Bold-51"/>
      <use transform="translate(303.447266 0.78125)" xlink:href="#DejaVuSans-Bold-46"/>
      <use transform="translate(341.435547 0.78125)" xlink:href="#DejaVuSans-Bold-54"/>
      <use transform="translate(411.015625 0.78125)" xlink:href="#DejaVuSans-BoldOblique-963"/>
     </g>
    </g>
    <g id="line2d_44">
     <path d="M 443.376 145.332 
L 461.8 145.332 
" style="fill:none;stroke:#9467bd;stroke-linecap:square;stroke-width:1.5;"/>
    </g>
    <g id="line2d_45"/>
    <g id="text_24">
     <!--  $\mu - 4\sigma$ -->
     <g transform="translate(476.976 149.532)scale(0.12 -0.12)">
      <use transform="translate(0 0.09375)" xlink:href="#DejaVuSans-Bold-32"/>
      <use transform="translate(34.814453 0.09375)" xlink:href="#DejaVuSans-BoldOblique-956"/>
      <use transform="translate(129.238281 0.09375)" xlink:href="#DejaVuSans-Bold-8722"/>
      <use transform="translate(233.867188 0.09375)" xlink:href="#DejaVuSans-Bold-52"/>
      <use transform="translate(303.447266 0.09375)" xlink:href="#DejaVuSans-BoldOblique-963"/>
     </g>
    </g>
   </g>
  </g>
 </g>
 <defs>
  <clipPath id="p3b0d74e1fa">
   <rect height="266.112" width="357.12" x="57.6" y="41.472"/>
  </clipPath>
 </defs>
</svg>
