<?xml version="1.0" encoding="utf-8" standalone="no"?>
<!DOCTYPE svg PUBLIC "-//W3C//DTD SVG 1.1//EN"
  "http://www.w3.org/Graphics/SVG/1.1/DTD/svg11.dtd">
<!-- Created with matplotlib (https://matplotlib.org/) -->
<svg height="345.6pt" version="1.1" viewBox="0 0 460.8 345.6" width="460.8pt" xmlns="http://www.w3.org/2000/svg" xmlns:xlink="http://www.w3.org/1999/xlink">
 <defs>
  <style type="text/css">
*{stroke-linecap:butt;stroke-linejoin:round;}
  </style>
 </defs>
 <g id="figure_1">
  <g id="patch_1">
   <path d="M 0 345.6 
L 460.8 345.6 
L 460.8 0 
L 0 0 
z
" style="fill:#ffffff;"/>
  </g>
  <g id="axes_1">
   <g id="patch_2">
    <path d="M 57.6 307.584 
L 414.72 307.584 
L 414.72 41.472 
L 57.6 41.472 
z
" style="fill:#ffffff;"/>
   </g>
   <g id="matplotlib.axis_1">
    <g id="xtick_1">
     <g id="line2d_1">
      <defs>
       <path d="M 0 0 
L 0 3.5 
" id="mbe4975ae0a" style="stroke:#000000;stroke-width:0.8;"/>
      </defs>
      <g>
       <use style="stroke:#000000;stroke-width:0.8;" x="73.832727" xlink:href="#mbe4975ae0a" y="307.584"/>
      </g>
     </g>
     <g id="text_1">
      <!-- 0 -->
      <defs>
       <path d="M 31.78125 66.40625 
Q 24.171875 66.40625 20.328125 58.90625 
Q 16.5 51.421875 16.5 36.375 
Q 16.5 21.390625 20.328125 13.890625 
Q 24.171875 6.390625 31.78125 6.390625 
Q 39.453125 6.390625 43.28125 13.890625 
Q 47.125 21.390625 47.125 36.375 
Q 47.125 51.421875 43.28125 58.90625 
Q 39.453125 66.40625 31.78125 66.40625 
z
M 31.78125 74.21875 
Q 44.046875 74.21875 50.515625 64.515625 
Q 56.984375 54.828125 56.984375 36.375 
Q 56.984375 17.96875 50.515625 8.265625 
Q 44.046875 -1.421875 31.78125 -1.421875 
Q 19.53125 -1.421875 13.0625 8.265625 
Q 6.59375 17.96875 6.59375 36.375 
Q 6.59375 54.828125 13.0625 64.515625 
Q 19.53125 74.21875 31.78125 74.21875 
z
" id="DejaVuSans-48"/>
      </defs>
      <g transform="translate(70.651477 322.182437)scale(0.1 -0.1)">
       <use xlink:href="#DejaVuSans-48"/>
      </g>
     </g>
    </g>
    <g id="xtick_2">
     <g id="line2d_2">
      <g>
       <use style="stroke:#000000;stroke-width:0.8;" x="140.088757" xlink:href="#mbe4975ae0a" y="307.584"/>
      </g>
     </g>
     <g id="text_2">
      <!-- 10 -->
      <defs>
       <path d="M 12.40625 8.296875 
L 28.515625 8.296875 
L 28.515625 63.921875 
L 10.984375 60.40625 
L 10.984375 69.390625 
L 28.421875 72.90625 
L 38.28125 72.90625 
L 38.28125 8.296875 
L 54.390625 8.296875 
L 54.390625 0 
L 12.40625 0 
z
" id="DejaVuSans-49"/>
      </defs>
      <g transform="translate(133.726257 322.182437)scale(0.1 -0.1)">
       <use xlink:href="#DejaVuSans-49"/>
       <use x="63.623047" xlink:href="#DejaVuSans-48"/>
      </g>
     </g>
    </g>
    <g id="xtick_3">
     <g id="line2d_3">
      <g>
       <use style="stroke:#000000;stroke-width:0.8;" x="206.344787" xlink:href="#mbe4975ae0a" y="307.584"/>
      </g>
     </g>
     <g id="text_3">
      <!-- 20 -->
      <defs>
       <path d="M 19.1875 8.296875 
L 53.609375 8.296875 
L 53.609375 0 
L 7.328125 0 
L 7.328125 8.296875 
Q 12.9375 14.109375 22.625 23.890625 
Q 32.328125 33.6875 34.8125 36.53125 
Q 39.546875 41.84375 41.421875 45.53125 
Q 43.3125 49.21875 43.3125 52.78125 
Q 43.3125 58.59375 39.234375 62.25 
Q 35.15625 65.921875 28.609375 65.921875 
Q 23.96875 65.921875 18.8125 64.3125 
Q 13.671875 62.703125 7.8125 59.421875 
L 7.8125 69.390625 
Q 13.765625 71.78125 18.9375 73 
Q 24.125 74.21875 28.421875 74.21875 
Q 39.75 74.21875 46.484375 68.546875 
Q 53.21875 62.890625 53.21875 53.421875 
Q 53.21875 48.921875 51.53125 44.890625 
Q 49.859375 40.875 45.40625 35.40625 
Q 44.1875 33.984375 37.640625 27.21875 
Q 31.109375 20.453125 19.1875 8.296875 
z
" id="DejaVuSans-50"/>
      </defs>
      <g transform="translate(199.982287 322.182437)scale(0.1 -0.1)">
       <use xlink:href="#DejaVuSans-50"/>
       <use x="63.623047" xlink:href="#DejaVuSans-48"/>
      </g>
     </g>
    </g>
    <g id="xtick_4">
     <g id="line2d_4">
      <g>
       <use style="stroke:#000000;stroke-width:0.8;" x="272.600816" xlink:href="#mbe4975ae0a" y="307.584"/>
      </g>
     </g>
     <g id="text_4">
      <!-- 30 -->
      <defs>
       <path d="M 40.578125 39.3125 
Q 47.65625 37.796875 51.625 33 
Q 55.609375 28.21875 55.609375 21.1875 
Q 55.609375 10.40625 48.1875 4.484375 
Q 40.765625 -1.421875 27.09375 -1.421875 
Q 22.515625 -1.421875 17.65625 -0.515625 
Q 12.796875 0.390625 7.625 2.203125 
L 7.625 11.71875 
Q 11.71875 9.328125 16.59375 8.109375 
Q 21.484375 6.890625 26.8125 6.890625 
Q 36.078125 6.890625 40.9375 10.546875 
Q 45.796875 14.203125 45.796875 21.1875 
Q 45.796875 27.640625 41.28125 31.265625 
Q 36.765625 34.90625 28.71875 34.90625 
L 20.21875 34.90625 
L 20.21875 43.015625 
L 29.109375 43.015625 
Q 36.375 43.015625 40.234375 45.921875 
Q 44.09375 48.828125 44.09375 54.296875 
Q 44.09375 59.90625 40.109375 62.90625 
Q 36.140625 65.921875 28.71875 65.921875 
Q 24.65625 65.921875 20.015625 65.03125 
Q 15.375 64.15625 9.8125 62.3125 
L 9.8125 71.09375 
Q 15.4375 72.65625 20.34375 73.4375 
Q 25.25 74.21875 29.59375 74.21875 
Q 40.828125 74.21875 47.359375 69.109375 
Q 53.90625 64.015625 53.90625 55.328125 
Q 53.90625 49.265625 50.4375 45.09375 
Q 46.96875 40.921875 40.578125 39.3125 
z
" id="DejaVuSans-51"/>
      </defs>
      <g transform="translate(266.238316 322.182437)scale(0.1 -0.1)">
       <use xlink:href="#DejaVuSans-51"/>
       <use x="63.623047" xlink:href="#DejaVuSans-48"/>
      </g>
     </g>
    </g>
    <g id="xtick_5">
     <g id="line2d_5">
      <g>
       <use style="stroke:#000000;stroke-width:0.8;" x="338.856846" xlink:href="#mbe4975ae0a" y="307.584"/>
      </g>
     </g>
     <g id="text_5">
      <!-- 40 -->
      <defs>
       <path d="M 37.796875 64.3125 
L 12.890625 25.390625 
L 37.796875 25.390625 
z
M 35.203125 72.90625 
L 47.609375 72.90625 
L 47.609375 25.390625 
L 58.015625 25.390625 
L 58.015625 17.1875 
L 47.609375 17.1875 
L 47.609375 0 
L 37.796875 0 
L 37.796875 17.1875 
L 4.890625 17.1875 
L 4.890625 26.703125 
z
" id="DejaVuSans-52"/>
      </defs>
      <g transform="translate(332.494346 322.182437)scale(0.1 -0.1)">
       <use xlink:href="#DejaVuSans-52"/>
       <use x="63.623047" xlink:href="#DejaVuSans-48"/>
      </g>
     </g>
    </g>
    <g id="xtick_6">
     <g id="line2d_6">
      <g>
       <use style="stroke:#000000;stroke-width:0.8;" x="405.112876" xlink:href="#mbe4975ae0a" y="307.584"/>
      </g>
     </g>
     <g id="text_6">
      <!-- 50 -->
      <defs>
       <path d="M 10.796875 72.90625 
L 49.515625 72.90625 
L 49.515625 64.59375 
L 19.828125 64.59375 
L 19.828125 46.734375 
Q 21.96875 47.46875 24.109375 47.828125 
Q 26.265625 48.1875 28.421875 48.1875 
Q 40.625 48.1875 47.75 41.5 
Q 54.890625 34.8125 54.890625 23.390625 
Q 54.890625 11.625 47.5625 5.09375 
Q 40.234375 -1.421875 26.90625 -1.421875 
Q 22.3125 -1.421875 17.546875 -0.640625 
Q 12.796875 0.140625 7.71875 1.703125 
L 7.71875 11.625 
Q 12.109375 9.234375 16.796875 8.0625 
Q 21.484375 6.890625 26.703125 6.890625 
Q 35.15625 6.890625 40.078125 11.328125 
Q 45.015625 15.765625 45.015625 23.390625 
Q 45.015625 31 40.078125 35.4375 
Q 35.15625 39.890625 26.703125 39.890625 
Q 22.75 39.890625 18.8125 39.015625 
Q 14.890625 38.140625 10.796875 36.28125 
z
" id="DejaVuSans-53"/>
      </defs>
      <g transform="translate(398.750376 322.182437)scale(0.1 -0.1)">
       <use xlink:href="#DejaVuSans-53"/>
       <use x="63.623047" xlink:href="#DejaVuSans-48"/>
      </g>
     </g>
    </g>
    <g id="text_7">
     <!-- Epochs [#] -->
     <defs>
      <path d="M 9.8125 72.90625 
L 55.90625 72.90625 
L 55.90625 64.59375 
L 19.671875 64.59375 
L 19.671875 43.015625 
L 54.390625 43.015625 
L 54.390625 34.71875 
L 19.671875 34.71875 
L 19.671875 8.296875 
L 56.78125 8.296875 
L 56.78125 0 
L 9.8125 0 
z
" id="DejaVuSans-69"/>
      <path d="M 18.109375 8.203125 
L 18.109375 -20.796875 
L 9.078125 -20.796875 
L 9.078125 54.6875 
L 18.109375 54.6875 
L 18.109375 46.390625 
Q 20.953125 51.265625 25.265625 53.625 
Q 29.59375 56 35.59375 56 
Q 45.5625 56 51.78125 48.09375 
Q 58.015625 40.1875 58.015625 27.296875 
Q 58.015625 14.40625 51.78125 6.484375 
Q 45.5625 -1.421875 35.59375 -1.421875 
Q 29.59375 -1.421875 25.265625 0.953125 
Q 20.953125 3.328125 18.109375 8.203125 
z
M 48.6875 27.296875 
Q 48.6875 37.203125 44.609375 42.84375 
Q 40.53125 48.484375 33.40625 48.484375 
Q 26.265625 48.484375 22.1875 42.84375 
Q 18.109375 37.203125 18.109375 27.296875 
Q 18.109375 17.390625 22.1875 11.75 
Q 26.265625 6.109375 33.40625 6.109375 
Q 40.53125 6.109375 44.609375 11.75 
Q 48.6875 17.390625 48.6875 27.296875 
z
" id="DejaVuSans-112"/>
      <path d="M 30.609375 48.390625 
Q 23.390625 48.390625 19.1875 42.75 
Q 14.984375 37.109375 14.984375 27.296875 
Q 14.984375 17.484375 19.15625 11.84375 
Q 23.34375 6.203125 30.609375 6.203125 
Q 37.796875 6.203125 41.984375 11.859375 
Q 46.1875 17.53125 46.1875 27.296875 
Q 46.1875 37.015625 41.984375 42.703125 
Q 37.796875 48.390625 30.609375 48.390625 
z
M 30.609375 56 
Q 42.328125 56 49.015625 48.375 
Q 55.71875 40.765625 55.71875 27.296875 
Q 55.71875 13.875 49.015625 6.21875 
Q 42.328125 -1.421875 30.609375 -1.421875 
Q 18.84375 -1.421875 12.171875 6.21875 
Q 5.515625 13.875 5.515625 27.296875 
Q 5.515625 40.765625 12.171875 48.375 
Q 18.84375 56 30.609375 56 
z
" id="DejaVuSans-111"/>
      <path d="M 48.78125 52.59375 
L 48.78125 44.1875 
Q 44.96875 46.296875 41.140625 47.34375 
Q 37.3125 48.390625 33.40625 48.390625 
Q 24.65625 48.390625 19.8125 42.84375 
Q 14.984375 37.3125 14.984375 27.296875 
Q 14.984375 17.28125 19.8125 11.734375 
Q 24.65625 6.203125 33.40625 6.203125 
Q 37.3125 6.203125 41.140625 7.25 
Q 44.96875 8.296875 48.78125 10.40625 
L 48.78125 2.09375 
Q 45.015625 0.34375 40.984375 -0.53125 
Q 36.96875 -1.421875 32.421875 -1.421875 
Q 20.0625 -1.421875 12.78125 6.34375 
Q 5.515625 14.109375 5.515625 27.296875 
Q 5.515625 40.671875 12.859375 48.328125 
Q 20.21875 56 33.015625 56 
Q 37.15625 56 41.109375 55.140625 
Q 45.0625 54.296875 48.78125 52.59375 
z
" id="DejaVuSans-99"/>
      <path d="M 54.890625 33.015625 
L 54.890625 0 
L 45.90625 0 
L 45.90625 32.71875 
Q 45.90625 40.484375 42.875 44.328125 
Q 39.84375 48.1875 33.796875 48.1875 
Q 26.515625 48.1875 22.3125 43.546875 
Q 18.109375 38.921875 18.109375 30.90625 
L 18.109375 0 
L 9.078125 0 
L 9.078125 75.984375 
L 18.109375 75.984375 
L 18.109375 46.1875 
Q 21.34375 51.125 25.703125 53.5625 
Q 30.078125 56 35.796875 56 
Q 45.21875 56 50.046875 50.171875 
Q 54.890625 44.34375 54.890625 33.015625 
z
" id="DejaVuSans-104"/>
      <path d="M 44.28125 53.078125 
L 44.28125 44.578125 
Q 40.484375 46.53125 36.375 47.5 
Q 32.28125 48.484375 27.875 48.484375 
Q 21.1875 48.484375 17.84375 46.4375 
Q 14.5 44.390625 14.5 40.28125 
Q 14.5 37.15625 16.890625 35.375 
Q 19.28125 33.59375 26.515625 31.984375 
L 29.59375 31.296875 
Q 39.15625 29.25 43.1875 25.515625 
Q 47.21875 21.78125 47.21875 15.09375 
Q 47.21875 7.46875 41.1875 3.015625 
Q 35.15625 -1.421875 24.609375 -1.421875 
Q 20.21875 -1.421875 15.453125 -0.5625 
Q 10.6875 0.296875 5.421875 2 
L 5.421875 11.28125 
Q 10.40625 8.6875 15.234375 7.390625 
Q 20.0625 6.109375 24.8125 6.109375 
Q 31.15625 6.109375 34.5625 8.28125 
Q 37.984375 10.453125 37.984375 14.40625 
Q 37.984375 18.0625 35.515625 20.015625 
Q 33.0625 21.96875 24.703125 23.78125 
L 21.578125 24.515625 
Q 13.234375 26.265625 9.515625 29.90625 
Q 5.8125 33.546875 5.8125 39.890625 
Q 5.8125 47.609375 11.28125 51.796875 
Q 16.75 56 26.8125 56 
Q 31.78125 56 36.171875 55.265625 
Q 40.578125 54.546875 44.28125 53.078125 
z
" id="DejaVuSans-115"/>
      <path id="DejaVuSans-32"/>
      <path d="M 8.59375 75.984375 
L 29.296875 75.984375 
L 29.296875 69 
L 17.578125 69 
L 17.578125 -6.203125 
L 29.296875 -6.203125 
L 29.296875 -13.1875 
L 8.59375 -13.1875 
z
" id="DejaVuSans-91"/>
      <path d="M 51.125 44 
L 36.921875 44 
L 32.8125 27.6875 
L 47.125 27.6875 
z
M 43.796875 71.78125 
L 38.71875 51.515625 
L 52.984375 51.515625 
L 58.109375 71.78125 
L 65.921875 71.78125 
L 60.890625 51.515625 
L 76.125 51.515625 
L 76.125 44 
L 58.984375 44 
L 54.984375 27.6875 
L 70.515625 27.6875 
L 70.515625 20.21875 
L 53.078125 20.21875 
L 48 0 
L 40.1875 0 
L 45.21875 20.21875 
L 30.90625 20.21875 
L 25.875 0 
L 18.015625 0 
L 23.09375 20.21875 
L 7.71875 20.21875 
L 7.71875 27.6875 
L 24.90625 27.6875 
L 29 44 
L 13.28125 44 
L 13.28125 51.515625 
L 30.90625 51.515625 
L 35.890625 71.78125 
z
" id="DejaVuSans-35"/>
      <path d="M 30.421875 75.984375 
L 30.421875 -13.1875 
L 9.71875 -13.1875 
L 9.71875 -6.203125 
L 21.390625 -6.203125 
L 21.390625 69 
L 9.71875 69 
L 9.71875 75.984375 
z
" id="DejaVuSans-93"/>
     </defs>
     <g transform="translate(208.563906 335.860562)scale(0.1 -0.1)">
      <use xlink:href="#DejaVuSans-69"/>
      <use x="63.183594" xlink:href="#DejaVuSans-112"/>
      <use x="126.660156" xlink:href="#DejaVuSans-111"/>
      <use x="187.841797" xlink:href="#DejaVuSans-99"/>
      <use x="242.822266" xlink:href="#DejaVuSans-104"/>
      <use x="306.201172" xlink:href="#DejaVuSans-115"/>
      <use x="358.300781" xlink:href="#DejaVuSans-32"/>
      <use x="390.087891" xlink:href="#DejaVuSans-91"/>
      <use x="429.101562" xlink:href="#DejaVuSans-35"/>
      <use x="512.890625" xlink:href="#DejaVuSans-93"/>
     </g>
    </g>
   </g>
   <g id="matplotlib.axis_2">
    <g id="ytick_1">
     <g id="line2d_7">
      <defs>
       <path d="M 0 0 
L -3.5 0 
" id="mac75bb01fd" style="stroke:#000000;stroke-width:0.8;"/>
      </defs>
      <g>
       <use style="stroke:#000000;stroke-width:0.8;" x="57.6" xlink:href="#mac75bb01fd" y="270.70449"/>
      </g>
     </g>
     <g id="text_8">
      <!-- 55 -->
      <g transform="translate(37.875 274.503709)scale(0.1 -0.1)">
       <use xlink:href="#DejaVuSans-53"/>
       <use x="63.623047" xlink:href="#DejaVuSans-53"/>
      </g>
     </g>
    </g>
    <g id="ytick_2">
     <g id="line2d_8">
      <g>
       <use style="stroke:#000000;stroke-width:0.8;" x="57.6" xlink:href="#mac75bb01fd" y="233.267161"/>
      </g>
     </g>
     <g id="text_9">
      <!-- 60 -->
      <defs>
       <path d="M 33.015625 40.375 
Q 26.375 40.375 22.484375 35.828125 
Q 18.609375 31.296875 18.609375 23.390625 
Q 18.609375 15.53125 22.484375 10.953125 
Q 26.375 6.390625 33.015625 6.390625 
Q 39.65625 6.390625 43.53125 10.953125 
Q 47.40625 15.53125 47.40625 23.390625 
Q 47.40625 31.296875 43.53125 35.828125 
Q 39.65625 40.375 33.015625 40.375 
z
M 52.59375 71.296875 
L 52.59375 62.3125 
Q 48.875 64.0625 45.09375 64.984375 
Q 41.3125 65.921875 37.59375 65.921875 
Q 27.828125 65.921875 22.671875 59.328125 
Q 17.53125 52.734375 16.796875 39.40625 
Q 19.671875 43.65625 24.015625 45.921875 
Q 28.375 48.1875 33.59375 48.1875 
Q 44.578125 48.1875 50.953125 41.515625 
Q 57.328125 34.859375 57.328125 23.390625 
Q 57.328125 12.15625 50.6875 5.359375 
Q 44.046875 -1.421875 33.015625 -1.421875 
Q 20.359375 -1.421875 13.671875 8.265625 
Q 6.984375 17.96875 6.984375 36.375 
Q 6.984375 53.65625 15.1875 63.9375 
Q 23.390625 74.21875 37.203125 74.21875 
Q 40.921875 74.21875 44.703125 73.484375 
Q 48.484375 72.75 52.59375 71.296875 
z
" id="DejaVuSans-54"/>
      </defs>
      <g transform="translate(37.875 237.06638)scale(0.1 -0.1)">
       <use xlink:href="#DejaVuSans-54"/>
       <use x="63.623047" xlink:href="#DejaVuSans-48"/>
      </g>
     </g>
    </g>
    <g id="ytick_3">
     <g id="line2d_9">
      <g>
       <use style="stroke:#000000;stroke-width:0.8;" x="57.6" xlink:href="#mac75bb01fd" y="195.829832"/>
      </g>
     </g>
     <g id="text_10">
      <!-- 65 -->
      <g transform="translate(37.875 199.62905)scale(0.1 -0.1)">
       <use xlink:href="#DejaVuSans-54"/>
       <use x="63.623047" xlink:href="#DejaVuSans-53"/>
      </g>
     </g>
    </g>
    <g id="ytick_4">
     <g id="line2d_10">
      <g>
       <use style="stroke:#000000;stroke-width:0.8;" x="57.6" xlink:href="#mac75bb01fd" y="158.392502"/>
      </g>
     </g>
     <g id="text_11">
      <!-- 70 -->
      <defs>
       <path d="M 8.203125 72.90625 
L 55.078125 72.90625 
L 55.078125 68.703125 
L 28.609375 0 
L 18.3125 0 
L 43.21875 64.59375 
L 8.203125 64.59375 
z
" id="DejaVuSans-55"/>
      </defs>
      <g transform="translate(37.875 162.191721)scale(0.1 -0.1)">
       <use xlink:href="#DejaVuSans-55"/>
       <use x="63.623047" xlink:href="#DejaVuSans-48"/>
      </g>
     </g>
    </g>
    <g id="ytick_5">
     <g id="line2d_11">
      <g>
       <use style="stroke:#000000;stroke-width:0.8;" x="57.6" xlink:href="#mac75bb01fd" y="120.955173"/>
      </g>
     </g>
     <g id="text_12">
      <!-- 75 -->
      <g transform="translate(37.875 124.754392)scale(0.1 -0.1)">
       <use xlink:href="#DejaVuSans-55"/>
       <use x="63.623047" xlink:href="#DejaVuSans-53"/>
      </g>
     </g>
    </g>
    <g id="ytick_6">
     <g id="line2d_12">
      <g>
       <use style="stroke:#000000;stroke-width:0.8;" x="57.6" xlink:href="#mac75bb01fd" y="83.517844"/>
      </g>
     </g>
     <g id="text_13">
      <!-- 80 -->
      <defs>
       <path d="M 31.78125 34.625 
Q 24.75 34.625 20.71875 30.859375 
Q 16.703125 27.09375 16.703125 20.515625 
Q 16.703125 13.921875 20.71875 10.15625 
Q 24.75 6.390625 31.78125 6.390625 
Q 38.8125 6.390625 42.859375 10.171875 
Q 46.921875 13.96875 46.921875 20.515625 
Q 46.921875 27.09375 42.890625 30.859375 
Q 38.875 34.625 31.78125 34.625 
z
M 21.921875 38.8125 
Q 15.578125 40.375 12.03125 44.71875 
Q 8.5 49.078125 8.5 55.328125 
Q 8.5 64.0625 14.71875 69.140625 
Q 20.953125 74.21875 31.78125 74.21875 
Q 42.671875 74.21875 48.875 69.140625 
Q 55.078125 64.0625 55.078125 55.328125 
Q 55.078125 49.078125 51.53125 44.71875 
Q 48 40.375 41.703125 38.8125 
Q 48.828125 37.15625 52.796875 32.3125 
Q 56.78125 27.484375 56.78125 20.515625 
Q 56.78125 9.90625 50.3125 4.234375 
Q 43.84375 -1.421875 31.78125 -1.421875 
Q 19.734375 -1.421875 13.25 4.234375 
Q 6.78125 9.90625 6.78125 20.515625 
Q 6.78125 27.484375 10.78125 32.3125 
Q 14.796875 37.15625 21.921875 38.8125 
z
M 18.3125 54.390625 
Q 18.3125 48.734375 21.84375 45.5625 
Q 25.390625 42.390625 31.78125 42.390625 
Q 38.140625 42.390625 41.71875 45.5625 
Q 45.3125 48.734375 45.3125 54.390625 
Q 45.3125 60.0625 41.71875 63.234375 
Q 38.140625 66.40625 31.78125 66.40625 
Q 25.390625 66.40625 21.84375 63.234375 
Q 18.3125 60.0625 18.3125 54.390625 
z
" id="DejaVuSans-56"/>
      </defs>
      <g transform="translate(37.875 87.317063)scale(0.1 -0.1)">
       <use xlink:href="#DejaVuSans-56"/>
       <use x="63.623047" xlink:href="#DejaVuSans-48"/>
      </g>
     </g>
    </g>
    <g id="ytick_7">
     <g id="line2d_13">
      <g>
       <use style="stroke:#000000;stroke-width:0.8;" x="57.6" xlink:href="#mac75bb01fd" y="46.080515"/>
      </g>
     </g>
     <g id="text_14">
      <!-- 85 -->
      <g transform="translate(37.875 49.879733)scale(0.1 -0.1)">
       <use xlink:href="#DejaVuSans-56"/>
       <use x="63.623047" xlink:href="#DejaVuSans-53"/>
      </g>
     </g>
    </g>
    <g id="text_15">
     <!-- Accuracy [%]  -->
     <defs>
      <path d="M 34.1875 63.1875 
L 20.796875 26.90625 
L 47.609375 26.90625 
z
M 28.609375 72.90625 
L 39.796875 72.90625 
L 67.578125 0 
L 57.328125 0 
L 50.6875 18.703125 
L 17.828125 18.703125 
L 11.1875 0 
L 0.78125 0 
z
" id="DejaVuSans-65"/>
      <path d="M 8.5 21.578125 
L 8.5 54.6875 
L 17.484375 54.6875 
L 17.484375 21.921875 
Q 17.484375 14.15625 20.5 10.265625 
Q 23.53125 6.390625 29.59375 6.390625 
Q 36.859375 6.390625 41.078125 11.03125 
Q 45.3125 15.671875 45.3125 23.6875 
L 45.3125 54.6875 
L 54.296875 54.6875 
L 54.296875 0 
L 45.3125 0 
L 45.3125 8.40625 
Q 42.046875 3.421875 37.71875 1 
Q 33.40625 -1.421875 27.6875 -1.421875 
Q 18.265625 -1.421875 13.375 4.4375 
Q 8.5 10.296875 8.5 21.578125 
z
M 31.109375 56 
z
" id="DejaVuSans-117"/>
      <path d="M 41.109375 46.296875 
Q 39.59375 47.171875 37.8125 47.578125 
Q 36.03125 48 33.890625 48 
Q 26.265625 48 22.1875 43.046875 
Q 18.109375 38.09375 18.109375 28.8125 
L 18.109375 0 
L 9.078125 0 
L 9.078125 54.6875 
L 18.109375 54.6875 
L 18.109375 46.1875 
Q 20.953125 51.171875 25.484375 53.578125 
Q 30.03125 56 36.53125 56 
Q 37.453125 56 38.578125 55.875 
Q 39.703125 55.765625 41.0625 55.515625 
z
" id="DejaVuSans-114"/>
      <path d="M 34.28125 27.484375 
Q 23.390625 27.484375 19.1875 25 
Q 14.984375 22.515625 14.984375 16.5 
Q 14.984375 11.71875 18.140625 8.90625 
Q 21.296875 6.109375 26.703125 6.109375 
Q 34.1875 6.109375 38.703125 11.40625 
Q 43.21875 16.703125 43.21875 25.484375 
L 43.21875 27.484375 
z
M 52.203125 31.203125 
L 52.203125 0 
L 43.21875 0 
L 43.21875 8.296875 
Q 40.140625 3.328125 35.546875 0.953125 
Q 30.953125 -1.421875 24.3125 -1.421875 
Q 15.921875 -1.421875 10.953125 3.296875 
Q 6 8.015625 6 15.921875 
Q 6 25.140625 12.171875 29.828125 
Q 18.359375 34.515625 30.609375 34.515625 
L 43.21875 34.515625 
L 43.21875 35.40625 
Q 43.21875 41.609375 39.140625 45 
Q 35.0625 48.390625 27.6875 48.390625 
Q 23 48.390625 18.546875 47.265625 
Q 14.109375 46.140625 10.015625 43.890625 
L 10.015625 52.203125 
Q 14.9375 54.109375 19.578125 55.046875 
Q 24.21875 56 28.609375 56 
Q 40.484375 56 46.34375 49.84375 
Q 52.203125 43.703125 52.203125 31.203125 
z
" id="DejaVuSans-97"/>
      <path d="M 32.171875 -5.078125 
Q 28.375 -14.84375 24.75 -17.8125 
Q 21.140625 -20.796875 15.09375 -20.796875 
L 7.90625 -20.796875 
L 7.90625 -13.28125 
L 13.1875 -13.28125 
Q 16.890625 -13.28125 18.9375 -11.515625 
Q 21 -9.765625 23.484375 -3.21875 
L 25.09375 0.875 
L 2.984375 54.6875 
L 12.5 54.6875 
L 29.59375 11.921875 
L 46.6875 54.6875 
L 56.203125 54.6875 
z
" id="DejaVuSans-121"/>
      <path d="M 72.703125 32.078125 
Q 68.453125 32.078125 66.03125 28.46875 
Q 63.625 24.859375 63.625 18.40625 
Q 63.625 12.0625 66.03125 8.421875 
Q 68.453125 4.78125 72.703125 4.78125 
Q 76.859375 4.78125 79.265625 8.421875 
Q 81.6875 12.0625 81.6875 18.40625 
Q 81.6875 24.8125 79.265625 28.4375 
Q 76.859375 32.078125 72.703125 32.078125 
z
M 72.703125 38.28125 
Q 80.421875 38.28125 84.953125 32.90625 
Q 89.5 27.546875 89.5 18.40625 
Q 89.5 9.28125 84.9375 3.921875 
Q 80.375 -1.421875 72.703125 -1.421875 
Q 64.890625 -1.421875 60.34375 3.921875 
Q 55.8125 9.28125 55.8125 18.40625 
Q 55.8125 27.59375 60.375 32.9375 
Q 64.9375 38.28125 72.703125 38.28125 
z
M 22.3125 68.015625 
Q 18.109375 68.015625 15.6875 64.375 
Q 13.28125 60.75 13.28125 54.390625 
Q 13.28125 47.953125 15.671875 44.328125 
Q 18.0625 40.71875 22.3125 40.71875 
Q 26.5625 40.71875 28.96875 44.328125 
Q 31.390625 47.953125 31.390625 54.390625 
Q 31.390625 60.6875 28.953125 64.34375 
Q 26.515625 68.015625 22.3125 68.015625 
z
M 66.40625 74.21875 
L 74.21875 74.21875 
L 28.609375 -1.421875 
L 20.796875 -1.421875 
z
M 22.3125 74.21875 
Q 30.03125 74.21875 34.609375 68.875 
Q 39.203125 63.53125 39.203125 54.390625 
Q 39.203125 45.171875 34.640625 39.84375 
Q 30.078125 34.515625 22.3125 34.515625 
Q 14.546875 34.515625 10.03125 39.859375 
Q 5.515625 45.21875 5.515625 54.390625 
Q 5.515625 63.484375 10.046875 68.84375 
Q 14.59375 74.21875 22.3125 74.21875 
z
" id="DejaVuSans-37"/>
     </defs>
     <g transform="translate(31.795312 209.273313)rotate(-90)scale(0.1 -0.1)">
      <use xlink:href="#DejaVuSans-65"/>
      <use x="68.392578" xlink:href="#DejaVuSans-99"/>
      <use x="123.373047" xlink:href="#DejaVuSans-99"/>
      <use x="178.353516" xlink:href="#DejaVuSans-117"/>
      <use x="241.732422" xlink:href="#DejaVuSans-114"/>
      <use x="282.845703" xlink:href="#DejaVuSans-97"/>
      <use x="344.125" xlink:href="#DejaVuSans-99"/>
      <use x="399.105469" xlink:href="#DejaVuSans-121"/>
      <use x="458.285156" xlink:href="#DejaVuSans-32"/>
      <use x="490.072266" xlink:href="#DejaVuSans-91"/>
      <use x="529.085938" xlink:href="#DejaVuSans-37"/>
      <use x="624.105469" xlink:href="#DejaVuSans-93"/>
      <use x="663.119141" xlink:href="#DejaVuSans-32"/>
     </g>
    </g>
   </g>
   <g id="line2d_14">
    <path clip-path="url(#p4ce1ddd7b4)" d="M 73.832727 139.374361 
L 80.45833 124.025053 
L 87.083933 119.008421 
L 93.709536 109.948602 
L 100.335139 94.29979 
L 106.960742 91.229955 
L 113.586345 92.128421 
L 120.211948 84.566076 
L 126.837551 83.967113 
L 133.463154 79.249985 
L 140.088757 81.496241 
L 146.71436 76.554496 
L 153.339963 77.977128 
L 159.965566 76.704271 
L 166.591169 73.185158 
L 173.216772 72.73588 
L 179.842375 71.53791 
L 186.467978 69.441429 
L 193.093581 68.093684 
L 199.719184 67.27006 
L 206.344787 66.521279 
L 212.97039 67.41979 
L 219.595993 65.473038 
L 226.221596 66.895669 
L 232.847199 64.125294 
L 239.472801 62.927323 
L 246.098404 64.050451 
L 252.724007 61.953925 
L 259.34961 63.376557 
L 265.975213 62.028812 
L 272.600816 60.531338 
L 279.226419 59.333324 
L 285.852022 59.707714 
L 292.477625 61.429805 
L 299.103228 57.386572 
L 305.728831 61.804196 
L 312.354434 58.584587 
L 318.980037 57.910692 
L 325.60564 56.263489 
L 332.231243 57.087068 
L 338.856846 59.707714 
L 345.482449 55.814211 
L 352.108052 55.963985 
L 358.733655 56.862451 
L 365.359258 57.236842 
L 371.984861 54.24185 
L 378.610464 58.135353 
L 385.236067 58.35997 
L 391.86167 55.215203 
L 398.487273 53.568 
" style="fill:none;stroke:#1f77b4;stroke-linecap:square;stroke-width:1.5;"/>
   </g>
   <g id="line2d_15">
    <path clip-path="url(#p4ce1ddd7b4)" d="M 73.832727 148.134677 
L 80.45833 143.342707 
L 87.083933 135.331128 
L 93.709536 140.946722 
L 100.335139 139.973324 
L 106.960742 138.625579 
L 113.586345 144.540677 
L 120.211948 131.362737 
L 126.837551 133.159759 
L 133.463154 144.091444 
L 140.088757 132.935098 
L 146.71436 137.801955 
L 153.339963 143.417549 
L 159.965566 141.620572 
L 166.591169 137.876842 
L 173.216772 139.224587 
L 179.842375 132.410978 
L 186.467978 140.272827 
L 193.093581 141.920075 
L 199.719184 145.139684 
L 206.344787 138.700466 
L 212.97039 152.252797 
L 219.595993 165.131233 
L 226.221596 149.856812 
L 232.847199 159.964872 
L 239.472801 177.710165 
L 246.098404 218.217339 
L 252.724007 197.776557 
L 259.34961 189.240857 
L 265.975213 209.082632 
L 272.600816 213.275639 
L 279.226419 208.034391 
L 285.852022 242.92597 
L 292.477625 295.488 
L 299.103228 279.614571 
L 305.728831 268.982391 
L 312.354434 258.574782 
L 318.980037 264.48988 
L 325.60564 244.498376 
L 332.231243 226.154075 
L 338.856846 218.741459 
L 345.482449 240.529985 
L 352.108052 222.560075 
L 358.733655 211.927895 
L 365.359258 230.496812 
L 371.984861 205.863023 
L 378.610464 207.510271 
L 385.236067 199.648421 
L 391.86167 216.644978 
L 398.487273 256.328571 
" style="fill:none;stroke:#ff7f0e;stroke-linecap:square;stroke-width:1.5;"/>
   </g>
   <g id="line2d_16">
    <path clip-path="url(#p4ce1ddd7b4)" d="M 73.832727 150.380932 
L 80.45833 129.341143 
L 87.083933 118.634075 
L 93.709536 113.31794 
L 100.335139 113.392827 
L 106.960742 105.530978 
L 113.586345 109.798827 
L 120.211948 110.098331 
L 126.837551 100.364662 
L 133.463154 103.284767 
L 140.088757 107.028496 
L 146.71436 98.94203 
L 153.339963 104.482737 
L 159.965566 101.637519 
L 166.591169 101.637519 
L 173.216772 102.086752 
L 179.842375 105.530978 
L 186.467978 110.996842 
L 193.093581 105.456135 
L 199.719184 108.52597 
L 206.344787 112.718977 
L 212.97039 107.47773 
L 219.595993 108.376241 
L 226.221596 106.504376 
L 232.847199 109.873715 
L 239.472801 113.842061 
L 246.098404 109.050091 
L 252.724007 110.847113 
L 259.34961 114.590842 
L 265.975213 106.579218 
L 272.600816 105.081745 
L 279.226419 104.857128 
L 285.852022 108.975248 
L 292.477625 102.610872 
L 299.103228 99.840541 
L 305.728831 97.818902 
L 312.354434 102.311369 
L 318.980037 99.990271 
L 325.60564 107.702346 
L 332.231243 108.151624 
L 338.856846 104.108391 
L 345.482449 106.129985 
L 352.108052 109.199865 
L 358.733655 100.888782 
L 365.359258 105.456135 
L 371.984861 104.782241 
L 378.610464 103.88373 
L 385.236067 108.151624 
L 391.86167 104.108391 
L 398.487273 104.033504 
" style="fill:none;stroke:#2ca02c;stroke-linecap:square;stroke-width:1.5;"/>
   </g>
   <g id="line2d_17">
    <path clip-path="url(#p4ce1ddd7b4)" d="M 73.832727 142.59397 
L 80.45833 122.003414 
L 87.083933 113.542601 
L 93.709536 115.564196 
L 100.335139 109.124978 
L 106.960742 102.011865 
L 113.586345 99.241534 
L 120.211948 94.000286 
L 126.837551 92.502812 
L 133.463154 90.780677 
L 140.088757 97.519399 
L 146.71436 89.582707 
L 153.339963 95.048527 
L 159.965566 87.336451 
L 166.591169 84.640963 
L 173.216772 90.18167 
L 179.842375 89.358046 
L 186.467978 86.812331 
L 193.093581 88.309805 
L 199.719184 90.855564 
L 206.344787 90.855564 
L 212.97039 87.561068 
L 219.595993 83.068602 
L 226.221596 87.635955 
L 232.847199 87.111835 
L 239.472801 86.962061 
L 246.098404 85.165083 
L 252.724007 84.940466 
L 259.34961 85.539474 
L 265.975213 86.662601 
L 272.600816 83.368105 
L 279.226419 82.244978 
L 285.852022 82.020361 
L 292.477625 86.063594 
L 299.103228 84.940466 
L 305.728831 82.244978 
L 312.354434 84.566076 
L 318.980037 83.967113 
L 325.60564 83.368105 
L 332.231243 85.539474 
L 338.856846 81.196737 
L 345.482449 83.817339 
L 352.108052 82.769098 
L 358.733655 80.897233 
L 365.359258 84.041955 
L 371.984861 86.288211 
L 378.610464 82.469594 
L 385.236067 80.223339 
L 391.86167 81.64597 
L 398.487273 83.892226 
" style="fill:none;stroke:#d62728;stroke-linecap:square;stroke-width:1.5;"/>
   </g>
   <g id="line2d_18">
    <path clip-path="url(#p4ce1ddd7b4)" d="M 73.832727 146.412542 
L 80.45833 124.324512 
L 87.083933 112.569203 
L 93.709536 104.932015 
L 100.335139 97.444512 
L 106.960742 92.802316 
L 113.586345 89.50782 
L 120.211948 91.529414 
L 126.837551 88.609309 
L 133.463154 89.88221 
L 140.088757 86.288211 
L 146.71436 84.865579 
L 153.339963 82.769098 
L 159.965566 82.319865 
L 166.591169 82.170091 
L 173.216772 79.549489 
L 179.842375 78.351474 
L 186.467978 77.303233 
L 193.093581 78.276632 
L 199.719184 78.800752 
L 206.344787 80.298226 
L 212.97039 78.126857 
L 219.595993 76.854 
L 226.221596 74.832361 
L 232.847199 74.083624 
L 239.472801 73.484662 
L 246.098404 73.634391 
L 252.724007 73.110271 
L 259.34961 73.185158 
L 265.975213 75.655985 
L 272.600816 73.933895 
L 279.226419 69.591158 
L 285.852022 70.115278 
L 292.477625 72.06203 
L 299.103228 69.666045 
L 305.728831 70.489669 
L 312.354434 69.666045 
L 318.980037 67.494677 
L 325.60564 67.41979 
L 332.231243 68.393143 
L 338.856846 69.516271 
L 345.482449 70.564512 
L 352.108052 69.366541 
L 358.733655 69.366541 
L 365.359258 69.366541 
L 371.984861 66.895669 
L 378.610464 64.948918 
L 385.236067 69.067038 
L 391.86167 63.002166 
L 398.487273 65.473038 
" style="fill:none;stroke:#9467bd;stroke-linecap:square;stroke-width:1.5;"/>
   </g>
   <g id="line2d_19">
    <path clip-path="url(#p4ce1ddd7b4)" d="M 73.832727 149.257805 
L 80.45833 132.860256 
L 87.083933 116.76221 
L 93.709536 112.2697 
L 100.335139 102.610872 
L 106.960742 96.620888 
L 113.586345 90.55606 
L 120.211948 90.930451 
L 126.837551 84.491233 
L 133.463154 84.041955 
L 140.088757 82.244978 
L 146.71436 81.870587 
L 153.339963 78.126857 
L 159.965566 78.351474 
L 166.591169 75.655985 
L 173.216772 73.185158 
L 179.842375 73.559504 
L 186.467978 74.233399 
L 193.093581 74.982136 
L 199.719184 77.00373 
L 206.344787 72.810767 
L 212.97039 73.334887 
L 219.595993 69.591158 
L 226.221596 70.864015 
L 232.847199 70.115278 
L 239.472801 67.94391 
L 246.098404 72.436376 
L 252.724007 66.820782 
L 259.34961 68.617805 
L 265.975213 68.542917 
L 272.600816 69.366541 
L 279.226419 67.195173 
L 285.852022 66.895669 
L 292.477625 68.093684 
L 299.103228 66.596166 
L 305.728831 67.045399 
L 312.354434 68.842421 
L 318.980037 65.173534 
L 325.60564 64.724301 
L 332.231243 66.970556 
L 338.856846 66.072045 
L 345.482449 62.777549 
L 352.108052 62.178586 
L 358.733655 63.226827 
L 365.359258 62.777549 
L 371.984861 65.697655 
L 378.610464 63.376557 
L 385.236067 62.702707 
L 391.86167 64.724301 
L 398.487273 67.27006 
" style="fill:none;stroke:#8c564b;stroke-linecap:square;stroke-width:1.5;"/>
   </g>
   <g id="line2d_20">
    <path clip-path="url(#p4ce1ddd7b4)" d="M 73.832727 137.652226 
L 80.45833 128.966752 
L 87.083933 109.050091 
L 93.709536 101.562632 
L 100.335139 98.792256 
L 106.960742 95.797308 
L 113.586345 89.208316 
L 120.211948 92.427925 
L 126.837551 85.614316 
L 133.463154 83.892226 
L 140.088757 79.175098 
L 146.71436 79.92388 
L 153.339963 76.479609 
L 159.965566 75.955489 
L 166.591169 75.506256 
L 173.216772 75.206752 
L 179.842375 69.291654 
L 186.467978 70.789173 
L 193.093581 70.265008 
L 199.719184 67.79418 
L 206.344787 70.040391 
L 212.97039 65.473038 
L 219.595993 66.072045 
L 226.221596 65.248421 
L 232.847199 65.323308 
L 239.472801 63.67606 
L 246.098404 61.280075 
L 252.724007 61.205188 
L 259.34961 62.702707 
L 265.975213 62.478046 
L 272.600816 61.879083 
L 279.226419 62.178586 
L 285.852022 61.579579 
L 292.477625 62.403203 
L 299.103228 59.707714 
L 305.728831 60.306722 
L 312.354434 58.135353 
L 318.980037 56.637835 
L 325.60564 56.338331 
L 332.231243 57.985579 
L 338.856846 59.333324 
L 345.482449 57.386572 
L 352.108052 57.611233 
L 358.733655 59.108707 
L 365.359258 55.140361 
L 371.984861 59.857444 
L 378.610464 58.135353 
L 385.236067 56.038827 
L 391.86167 58.35997 
L 398.487273 56.712722 
" style="fill:none;stroke:#e377c2;stroke-linecap:square;stroke-width:1.5;"/>
   </g>
   <g id="line2d_21">
    <path clip-path="url(#p4ce1ddd7b4)" d="M 73.832727 143.417549 
L 80.45833 125.447639 
L 87.083933 110.847113 
L 93.709536 101.188241 
L 100.335139 96.246541 
L 106.960742 93.10182 
L 113.586345 88.609309 
L 120.211948 82.469594 
L 126.837551 80.522842 
L 133.463154 79.998722 
L 140.088757 77.602737 
L 146.71436 75.655985 
L 153.339963 74.008782 
L 159.965566 73.484662 
L 166.591169 75.730872 
L 173.216772 73.634391 
L 179.842375 73.859008 
L 186.467978 69.516271 
L 193.093581 68.46803 
L 199.719184 68.692647 
L 206.344787 66.371549 
L 212.97039 68.617805 
L 219.595993 65.622812 
L 226.221596 65.398195 
L 232.847199 64.574571 
L 239.472801 67.94391 
L 246.098404 65.323308 
L 252.724007 63.002166 
L 259.34961 65.248421 
L 265.975213 63.15194 
L 272.600816 63.67606 
L 279.226419 62.178586 
L 285.852022 60.606181 
L 292.477625 67.494677 
L 299.103228 60.531338 
L 305.728831 59.03382 
L 312.354434 60.007218 
L 318.980037 59.55794 
L 325.60564 60.681068 
L 332.231243 60.531338 
L 338.856846 59.932331 
L 345.482449 60.905685 
L 352.108052 58.5097 
L 358.733655 61.579579 
L 365.359258 57.461459 
L 371.984861 58.5097 
L 378.610464 59.03382 
L 385.236067 57.461459 
L 391.86167 58.88409 
L 398.487273 59.782557 
" style="fill:none;stroke:#7f7f7f;stroke-linecap:square;stroke-width:1.5;"/>
   </g>
   <g id="line2d_22">
    <path clip-path="url(#p4ce1ddd7b4)" d="M 73.832727 135.855248 
L 80.45833 122.377805 
L 87.083933 112.64409 
L 93.709536 102.985263 
L 100.335139 100.963624 
L 106.960742 92.053534 
L 113.586345 88.085188 
L 120.211948 87.935459 
L 126.837551 82.619368 
L 133.463154 82.918827 
L 140.088757 80.897233 
L 146.71436 76.704271 
L 153.339963 76.928887 
L 159.965566 77.453008 
L 166.591169 74.907248 
L 173.216772 75.506256 
L 179.842375 71.238406 
L 186.467978 72.73588 
L 193.093581 69.516271 
L 199.719184 68.168527 
L 206.344787 68.692647 
L 212.97039 70.864015 
L 219.595993 67.94391 
L 226.221596 66.446436 
L 232.847199 67.94391 
L 239.472801 65.697655 
L 246.098404 64.050451 
L 252.724007 66.446436 
L 259.34961 68.168527 
L 265.975213 68.917264 
L 272.600816 65.023805 
L 279.226419 65.473038 
L 285.852022 61.804196 
L 292.477625 67.79418 
L 299.103228 60.905685 
L 305.728831 61.130301 
L 312.354434 63.900677 
L 318.980037 65.323308 
L 325.60564 60.830842 
L 332.231243 60.755955 
L 338.856846 61.729309 
L 345.482449 61.729309 
L 352.108052 58.285083 
L 358.733655 62.028812 
L 365.359258 59.857444 
L 371.984861 61.280075 
L 378.610464 57.910692 
L 385.236067 60.606181 
L 391.86167 58.958977 
L 398.487273 60.755955 
" style="fill:none;stroke:#bcbd22;stroke-linecap:square;stroke-width:1.5;"/>
   </g>
   <g id="line2d_23">
    <path clip-path="url(#p4ce1ddd7b4)" d="M 73.832727 144.915068 
L 80.45833 129.41603 
L 87.083933 114.141564 
L 93.709536 104.033504 
L 100.335139 96.471158 
L 106.960742 92.502812 
L 113.586345 86.512827 
L 120.211948 85.314857 
L 126.837551 85.539474 
L 133.463154 86.063594 
L 140.088757 81.870587 
L 146.71436 75.880647 
L 153.339963 78.501248 
L 159.965566 76.854 
L 166.591169 75.356526 
L 173.216772 73.484662 
L 179.842375 74.458015 
L 186.467978 76.554496 
L 193.093581 73.709278 
L 199.719184 70.789173 
L 206.344787 71.762526 
L 212.97039 67.569519 
L 219.595993 66.596166 
L 226.221596 69.216767 
L 232.847199 68.168527 
L 239.472801 65.323308 
L 246.098404 68.393143 
L 252.724007 66.072045 
L 259.34961 68.318301 
L 265.975213 66.596166 
L 272.600816 66.521279 
L 279.226419 63.601173 
L 285.852022 66.671053 
L 292.477625 64.574571 
L 299.103228 61.504692 
L 305.728831 63.900677 
L 312.354434 65.547925 
L 318.980037 60.306722 
L 325.60564 64.499684 
L 332.231243 61.280075 
L 338.856846 61.429805 
L 345.482449 62.178586 
L 352.108052 61.579579 
L 358.733655 61.055459 
L 365.359258 61.055459 
L 371.984861 60.755955 
L 378.610464 59.932331 
L 385.236067 61.130301 
L 391.86167 58.958977 
L 398.487273 57.686076 
" style="fill:none;stroke:#17becf;stroke-linecap:square;stroke-width:1.5;"/>
   </g>
   <g id="patch_3">
    <path d="M 57.6 307.584 
L 57.6 41.472 
" style="fill:none;stroke:#000000;stroke-linecap:square;stroke-linejoin:miter;stroke-width:0.8;"/>
   </g>
   <g id="patch_4">
    <path d="M 414.72 307.584 
L 414.72 41.472 
" style="fill:none;stroke:#000000;stroke-linecap:square;stroke-linejoin:miter;stroke-width:0.8;"/>
   </g>
   <g id="patch_5">
    <path d="M 57.6 307.584 
L 414.72 307.584 
" style="fill:none;stroke:#000000;stroke-linecap:square;stroke-linejoin:miter;stroke-width:0.8;"/>
   </g>
   <g id="patch_6">
    <path d="M 57.6 41.472 
L 414.72 41.472 
" style="fill:none;stroke:#000000;stroke-linecap:square;stroke-linejoin:miter;stroke-width:0.8;"/>
   </g>
   <g id="legend_1">
    <g id="patch_7">
     <path d="M 439.576 211.12825 
L 556.576 211.12825 
Q 558.576 211.12825 558.576 209.12825 
L 558.576 48.472 
Q 558.576 46.472 556.576 46.472 
L 439.576 46.472 
Q 437.576 46.472 437.576 48.472 
L 437.576 209.12825 
Q 437.576 211.12825 439.576 211.12825 
z
" style="fill:#ffffff;opacity:0.8;stroke:#cccccc;stroke-linejoin:miter;"/>
    </g>
    <g id="text_16">
     <!-- Prune node k if -->
     <defs>
      <path d="M 19.671875 64.796875 
L 19.671875 37.40625 
L 32.078125 37.40625 
Q 38.96875 37.40625 42.71875 40.96875 
Q 46.484375 44.53125 46.484375 51.125 
Q 46.484375 57.671875 42.71875 61.234375 
Q 38.96875 64.796875 32.078125 64.796875 
z
M 9.8125 72.90625 
L 32.078125 72.90625 
Q 44.34375 72.90625 50.609375 67.359375 
Q 56.890625 61.8125 56.890625 51.125 
Q 56.890625 40.328125 50.609375 34.8125 
Q 44.34375 29.296875 32.078125 29.296875 
L 19.671875 29.296875 
L 19.671875 0 
L 9.8125 0 
z
" id="DejaVuSans-80"/>
      <path d="M 54.890625 33.015625 
L 54.890625 0 
L 45.90625 0 
L 45.90625 32.71875 
Q 45.90625 40.484375 42.875 44.328125 
Q 39.84375 48.1875 33.796875 48.1875 
Q 26.515625 48.1875 22.3125 43.546875 
Q 18.109375 38.921875 18.109375 30.90625 
L 18.109375 0 
L 9.078125 0 
L 9.078125 54.6875 
L 18.109375 54.6875 
L 18.109375 46.1875 
Q 21.34375 51.125 25.703125 53.5625 
Q 30.078125 56 35.796875 56 
Q 45.21875 56 50.046875 50.171875 
Q 54.890625 44.34375 54.890625 33.015625 
z
" id="DejaVuSans-110"/>
      <path d="M 56.203125 29.59375 
L 56.203125 25.203125 
L 14.890625 25.203125 
Q 15.484375 15.921875 20.484375 11.0625 
Q 25.484375 6.203125 34.421875 6.203125 
Q 39.59375 6.203125 44.453125 7.46875 
Q 49.3125 8.734375 54.109375 11.28125 
L 54.109375 2.78125 
Q 49.265625 0.734375 44.1875 -0.34375 
Q 39.109375 -1.421875 33.890625 -1.421875 
Q 20.796875 -1.421875 13.15625 6.1875 
Q 5.515625 13.8125 5.515625 26.8125 
Q 5.515625 40.234375 12.765625 48.109375 
Q 20.015625 56 32.328125 56 
Q 43.359375 56 49.78125 48.890625 
Q 56.203125 41.796875 56.203125 29.59375 
z
M 47.21875 32.234375 
Q 47.125 39.59375 43.09375 43.984375 
Q 39.0625 48.390625 32.421875 48.390625 
Q 24.90625 48.390625 20.390625 44.140625 
Q 15.875 39.890625 15.1875 32.171875 
z
" id="DejaVuSans-101"/>
      <path d="M 45.40625 46.390625 
L 45.40625 75.984375 
L 54.390625 75.984375 
L 54.390625 0 
L 45.40625 0 
L 45.40625 8.203125 
Q 42.578125 3.328125 38.25 0.953125 
Q 33.9375 -1.421875 27.875 -1.421875 
Q 17.96875 -1.421875 11.734375 6.484375 
Q 5.515625 14.40625 5.515625 27.296875 
Q 5.515625 40.1875 11.734375 48.09375 
Q 17.96875 56 27.875 56 
Q 33.9375 56 38.25 53.625 
Q 42.578125 51.265625 45.40625 46.390625 
z
M 14.796875 27.296875 
Q 14.796875 17.390625 18.875 11.75 
Q 22.953125 6.109375 30.078125 6.109375 
Q 37.203125 6.109375 41.296875 11.75 
Q 45.40625 17.390625 45.40625 27.296875 
Q 45.40625 37.203125 41.296875 42.84375 
Q 37.203125 48.484375 30.078125 48.484375 
Q 22.953125 48.484375 18.875 42.84375 
Q 14.796875 37.203125 14.796875 27.296875 
z
" id="DejaVuSans-100"/>
      <path d="M 9.078125 75.984375 
L 18.109375 75.984375 
L 18.109375 31.109375 
L 44.921875 54.6875 
L 56.390625 54.6875 
L 27.390625 29.109375 
L 57.625 0 
L 45.90625 0 
L 18.109375 26.703125 
L 18.109375 0 
L 9.078125 0 
z
" id="DejaVuSans-107"/>
      <path d="M 9.421875 54.6875 
L 18.40625 54.6875 
L 18.40625 0 
L 9.421875 0 
z
M 9.421875 75.984375 
L 18.40625 75.984375 
L 18.40625 64.59375 
L 9.421875 64.59375 
z
" id="DejaVuSans-105"/>
      <path d="M 37.109375 75.984375 
L 37.109375 68.5 
L 28.515625 68.5 
Q 23.6875 68.5 21.796875 66.546875 
Q 19.921875 64.59375 19.921875 59.515625 
L 19.921875 54.6875 
L 34.71875 54.6875 
L 34.71875 47.703125 
L 19.921875 47.703125 
L 19.921875 0 
L 10.890625 0 
L 10.890625 47.703125 
L 2.296875 47.703125 
L 2.296875 54.6875 
L 10.890625 54.6875 
L 10.890625 58.5 
Q 10.890625 67.625 15.140625 71.796875 
Q 19.390625 75.984375 28.609375 75.984375 
z
" id="DejaVuSans-102"/>
     </defs>
     <g transform="translate(460.301781 58.070438)scale(0.1 -0.1)">
      <use xlink:href="#DejaVuSans-80"/>
      <use x="60.287109" xlink:href="#DejaVuSans-114"/>
      <use x="101.400391" xlink:href="#DejaVuSans-117"/>
      <use x="164.779297" xlink:href="#DejaVuSans-110"/>
      <use x="228.158203" xlink:href="#DejaVuSans-101"/>
      <use x="289.681641" xlink:href="#DejaVuSans-32"/>
      <use x="321.46875" xlink:href="#DejaVuSans-110"/>
      <use x="384.847656" xlink:href="#DejaVuSans-111"/>
      <use x="446.029297" xlink:href="#DejaVuSans-100"/>
      <use x="509.505859" xlink:href="#DejaVuSans-101"/>
      <use x="571.029297" xlink:href="#DejaVuSans-32"/>
      <use x="602.816406" xlink:href="#DejaVuSans-107"/>
      <use x="660.726562" xlink:href="#DejaVuSans-32"/>
      <use x="692.513672" xlink:href="#DejaVuSans-105"/>
      <use x="720.296875" xlink:href="#DejaVuSans-102"/>
     </g>
    </g>
    <g id="line2d_24">
     <path d="M 441.576 69.248562 
L 461.576 69.248562 
" style="fill:none;stroke:#1f77b4;stroke-linecap:square;stroke-width:1.5;"/>
    </g>
    <g id="line2d_25"/>
    <g id="text_17">
     <!-- SET (Baseline) -->
     <defs>
      <path d="M 53.515625 70.515625 
L 53.515625 60.890625 
Q 47.90625 63.578125 42.921875 64.890625 
Q 37.9375 66.21875 33.296875 66.21875 
Q 25.25 66.21875 20.875 63.09375 
Q 16.5 59.96875 16.5 54.203125 
Q 16.5 49.359375 19.40625 46.890625 
Q 22.3125 44.4375 30.421875 42.921875 
L 36.375 41.703125 
Q 47.40625 39.59375 52.65625 34.296875 
Q 57.90625 29 57.90625 20.125 
Q 57.90625 9.515625 50.796875 4.046875 
Q 43.703125 -1.421875 29.984375 -1.421875 
Q 24.8125 -1.421875 18.96875 -0.25 
Q 13.140625 0.921875 6.890625 3.21875 
L 6.890625 13.375 
Q 12.890625 10.015625 18.65625 8.296875 
Q 24.421875 6.59375 29.984375 6.59375 
Q 38.421875 6.59375 43.015625 9.90625 
Q 47.609375 13.234375 47.609375 19.390625 
Q 47.609375 24.75 44.3125 27.78125 
Q 41.015625 30.8125 33.5 32.328125 
L 27.484375 33.5 
Q 16.453125 35.6875 11.515625 40.375 
Q 6.59375 45.0625 6.59375 53.421875 
Q 6.59375 63.09375 13.40625 68.65625 
Q 20.21875 74.21875 32.171875 74.21875 
Q 37.3125 74.21875 42.625 73.28125 
Q 47.953125 72.359375 53.515625 70.515625 
z
" id="DejaVuSans-83"/>
      <path d="M -0.296875 72.90625 
L 61.375 72.90625 
L 61.375 64.59375 
L 35.5 64.59375 
L 35.5 0 
L 25.59375 0 
L 25.59375 64.59375 
L -0.296875 64.59375 
z
" id="DejaVuSans-84"/>
      <path d="M 31 75.875 
Q 24.46875 64.65625 21.28125 53.65625 
Q 18.109375 42.671875 18.109375 31.390625 
Q 18.109375 20.125 21.3125 9.0625 
Q 24.515625 -2 31 -13.1875 
L 23.1875 -13.1875 
Q 15.875 -1.703125 12.234375 9.375 
Q 8.59375 20.453125 8.59375 31.390625 
Q 8.59375 42.28125 12.203125 53.3125 
Q 15.828125 64.359375 23.1875 75.875 
z
" id="DejaVuSans-40"/>
      <path d="M 19.671875 34.8125 
L 19.671875 8.109375 
L 35.5 8.109375 
Q 43.453125 8.109375 47.28125 11.40625 
Q 51.125 14.703125 51.125 21.484375 
Q 51.125 28.328125 47.28125 31.5625 
Q 43.453125 34.8125 35.5 34.8125 
z
M 19.671875 64.796875 
L 19.671875 42.828125 
L 34.28125 42.828125 
Q 41.5 42.828125 45.03125 45.53125 
Q 48.578125 48.25 48.578125 53.8125 
Q 48.578125 59.328125 45.03125 62.0625 
Q 41.5 64.796875 34.28125 64.796875 
z
M 9.8125 72.90625 
L 35.015625 72.90625 
Q 46.296875 72.90625 52.390625 68.21875 
Q 58.5 63.53125 58.5 54.890625 
Q 58.5 48.1875 55.375 44.234375 
Q 52.25 40.28125 46.1875 39.3125 
Q 53.46875 37.75 57.5 32.78125 
Q 61.53125 27.828125 61.53125 20.40625 
Q 61.53125 10.640625 54.890625 5.3125 
Q 48.25 0 35.984375 0 
L 9.8125 0 
z
" id="DejaVuSans-66"/>
      <path d="M 9.421875 75.984375 
L 18.40625 75.984375 
L 18.40625 0 
L 9.421875 0 
z
" id="DejaVuSans-108"/>
      <path d="M 8.015625 75.875 
L 15.828125 75.875 
Q 23.140625 64.359375 26.78125 53.3125 
Q 30.421875 42.28125 30.421875 31.390625 
Q 30.421875 20.453125 26.78125 9.375 
Q 23.140625 -1.703125 15.828125 -13.1875 
L 8.015625 -13.1875 
Q 14.5 -2 17.703125 9.0625 
Q 20.90625 20.125 20.90625 31.390625 
Q 20.90625 42.671875 17.703125 53.65625 
Q 14.5 64.65625 8.015625 75.875 
z
" id="DejaVuSans-41"/>
     </defs>
     <g transform="translate(469.576 72.748562)scale(0.1 -0.1)">
      <use xlink:href="#DejaVuSans-83"/>
      <use x="63.476562" xlink:href="#DejaVuSans-69"/>
      <use x="126.660156" xlink:href="#DejaVuSans-84"/>
      <use x="187.744141" xlink:href="#DejaVuSans-32"/>
      <use x="219.53125" xlink:href="#DejaVuSans-40"/>
      <use x="258.544922" xlink:href="#DejaVuSans-66"/>
      <use x="327.148438" xlink:href="#DejaVuSans-97"/>
      <use x="388.427734" xlink:href="#DejaVuSans-115"/>
      <use x="440.527344" xlink:href="#DejaVuSans-101"/>
      <use x="502.050781" xlink:href="#DejaVuSans-108"/>
      <use x="529.833984" xlink:href="#DejaVuSans-105"/>
      <use x="557.617188" xlink:href="#DejaVuSans-110"/>
      <use x="620.996094" xlink:href="#DejaVuSans-101"/>
      <use x="682.519531" xlink:href="#DejaVuSans-41"/>
     </g>
    </g>
    <g id="line2d_26">
     <path d="M 441.576 83.92825 
L 461.576 83.92825 
" style="fill:none;stroke:#ff7f0e;stroke-linecap:square;stroke-width:1.5;"/>
    </g>
    <g id="line2d_27"/>
    <g id="text_18">
     <!--  LC(k) &lt; $\mu - 0\sigma$ -->
     <defs>
      <path d="M 9.8125 72.90625 
L 19.671875 72.90625 
L 19.671875 8.296875 
L 55.171875 8.296875 
L 55.171875 0 
L 9.8125 0 
z
" id="DejaVuSans-76"/>
      <path d="M 64.40625 67.28125 
L 64.40625 56.890625 
Q 59.421875 61.53125 53.78125 63.8125 
Q 48.140625 66.109375 41.796875 66.109375 
Q 29.296875 66.109375 22.65625 58.46875 
Q 16.015625 50.828125 16.015625 36.375 
Q 16.015625 21.96875 22.65625 14.328125 
Q 29.296875 6.6875 41.796875 6.6875 
Q 48.140625 6.6875 53.78125 8.984375 
Q 59.421875 11.28125 64.40625 15.921875 
L 64.40625 5.609375 
Q 59.234375 2.09375 53.4375 0.328125 
Q 47.65625 -1.421875 41.21875 -1.421875 
Q 24.65625 -1.421875 15.125 8.703125 
Q 5.609375 18.84375 5.609375 36.375 
Q 5.609375 53.953125 15.125 64.078125 
Q 24.65625 74.21875 41.21875 74.21875 
Q 47.75 74.21875 53.53125 72.484375 
Q 59.328125 70.75 64.40625 67.28125 
z
" id="DejaVuSans-67"/>
      <path d="M 73.1875 49.21875 
L 22.796875 31.296875 
L 73.1875 13.484375 
L 73.1875 4.59375 
L 10.59375 27.296875 
L 10.59375 35.40625 
L 73.1875 58.109375 
z
" id="DejaVuSans-60"/>
      <path d="M -1.3125 -20.796875 
L 13.375 54.6875 
L 22.40625 54.6875 
L 15.765625 20.65625 
Q 15.578125 19.625 15.421875 18.359375 
Q 15.28125 17.09375 15.28125 15.828125 
Q 15.28125 11.28125 18.140625 8.828125 
Q 21 6.390625 26.3125 6.390625 
Q 33.546875 6.390625 37.984375 10.484375 
Q 42.4375 14.59375 44 22.796875 
L 50.203125 54.6875 
L 59.1875 54.6875 
L 51.03125 12.640625 
Q 50.828125 11.71875 50.75 11.03125 
Q 50.6875 10.359375 50.6875 9.8125 
Q 50.6875 8.296875 51.296875 7.59375 
Q 51.90625 6.890625 53.21875 6.890625 
Q 53.71875 6.890625 54.5625 7.125 
Q 55.421875 7.375 56.984375 8.015625 
L 55.609375 0.78125 
Q 53.46875 -0.296875 51.515625 -0.859375 
Q 49.5625 -1.421875 47.703125 -1.421875 
Q 44.484375 -1.421875 42.65625 0.625 
Q 40.828125 2.6875 40.828125 6.296875 
Q 38.09375 2.390625 34.296875 0.484375 
Q 30.515625 -1.421875 25.390625 -1.421875 
Q 20.84375 -1.421875 17.453125 0.671875 
Q 14.0625 2.78125 12.984375 6.203125 
L 7.71875 -20.796875 
z
" id="DejaVuSans-Oblique-956"/>
      <path d="M 10.59375 35.5 
L 73.1875 35.5 
L 73.1875 27.203125 
L 10.59375 27.203125 
z
" id="DejaVuSans-8722"/>
      <path d="M 34.671875 47.5625 
Q 27.25 47.5625 22.21875 42.1875 
Q 16.890625 36.578125 15.140625 27.296875 
Q 13.1875 17.484375 16.3125 11.8125 
Q 19.390625 6.203125 26.65625 6.203125 
Q 33.84375 6.203125 39.109375 11.859375 
Q 44.4375 17.53125 46.34375 27.296875 
Q 48.046875 36.234375 45.015625 42.1875 
Q 42.1875 47.5625 34.671875 47.5625 
z
M 36.078125 54.734375 
L 65.921875 54.6875 
L 64.15625 45.703125 
L 54.109375 45.703125 
Q 57.90625 38.09375 55.859375 27.296875 
Q 53.21875 13.875 45.0625 6.25 
Q 36.859375 -1.421875 25.140625 -1.421875 
Q 13.375 -1.421875 8.203125 6.25 
Q 3.03125 13.875 5.671875 27.296875 
Q 8.25 40.765625 16.40625 48.390625 
Q 23.1875 54.734375 36.078125 54.734375 
z
" id="DejaVuSans-Oblique-963"/>
     </defs>
     <g transform="translate(469.576 87.42825)scale(0.1 -0.1)">
      <use transform="translate(0 0.015625)" xlink:href="#DejaVuSans-32"/>
      <use transform="translate(31.787109 0.015625)" xlink:href="#DejaVuSans-76"/>
      <use transform="translate(87.5 0.015625)" xlink:href="#DejaVuSans-67"/>
      <use transform="translate(157.324219 0.015625)" xlink:href="#DejaVuSans-40"/>
      <use transform="translate(196.337891 0.015625)" xlink:href="#DejaVuSans-107"/>
      <use transform="translate(254.248047 0.015625)" xlink:href="#DejaVuSans-41"/>
      <use transform="translate(293.261719 0.015625)" xlink:href="#DejaVuSans-32"/>
      <use transform="translate(325.048828 0.015625)" xlink:href="#DejaVuSans-60"/>
      <use transform="translate(408.837891 0.015625)" xlink:href="#DejaVuSans-32"/>
      <use transform="translate(440.625 0.015625)" xlink:href="#DejaVuSans-Oblique-956"/>
      <use transform="translate(523.730469 0.015625)" xlink:href="#DejaVuSans-8722"/>
      <use transform="translate(627.001953 0.015625)" xlink:href="#DejaVuSans-48"/>
      <use transform="translate(690.625 0.015625)" xlink:href="#DejaVuSans-Oblique-963"/>
     </g>
    </g>
    <g id="line2d_28">
     <path d="M 441.576 98.62825 
L 461.576 98.62825 
" style="fill:none;stroke:#2ca02c;stroke-linecap:square;stroke-width:1.5;"/>
    </g>
    <g id="line2d_29"/>
    <g id="text_19">
     <!--  LC(k) &lt; $\mu - 0.5\sigma$ -->
     <defs>
      <path d="M 10.6875 12.40625 
L 21 12.40625 
L 21 0 
L 10.6875 0 
z
" id="DejaVuSans-46"/>
     </defs>
     <g transform="translate(469.576 102.12825)scale(0.1 -0.1)">
      <use transform="translate(0 0.015625)" xlink:href="#DejaVuSans-32"/>
      <use transform="translate(31.787109 0.015625)" xlink:href="#DejaVuSans-76"/>
      <use transform="translate(87.5 0.015625)" xlink:href="#DejaVuSans-67"/>
      <use transform="translate(157.324219 0.015625)" xlink:href="#DejaVuSans-40"/>
      <use transform="translate(196.337891 0.015625)" xlink:href="#DejaVuSans-107"/>
      <use transform="translate(254.248047 0.015625)" xlink:href="#DejaVuSans-41"/>
      <use transform="translate(293.261719 0.015625)" xlink:href="#DejaVuSans-32"/>
      <use transform="translate(325.048828 0.015625)" xlink:href="#DejaVuSans-60"/>
      <use transform="translate(408.837891 0.015625)" xlink:href="#DejaVuSans-32"/>
      <use transform="translate(440.625 0.015625)" xlink:href="#DejaVuSans-Oblique-956"/>
      <use transform="translate(523.730469 0.015625)" xlink:href="#DejaVuSans-8722"/>
      <use transform="translate(627.001953 0.015625)" xlink:href="#DejaVuSans-48"/>
      <use transform="translate(690.625 0.015625)" xlink:href="#DejaVuSans-46"/>
      <use transform="translate(722.412109 0.015625)" xlink:href="#DejaVuSans-53"/>
      <use transform="translate(786.035156 0.015625)" xlink:href="#DejaVuSans-Oblique-963"/>
     </g>
    </g>
    <g id="line2d_30">
     <path d="M 441.576 113.32825 
L 461.576 113.32825 
" style="fill:none;stroke:#d62728;stroke-linecap:square;stroke-width:1.5;"/>
    </g>
    <g id="line2d_31"/>
    <g id="text_20">
     <!--  LC(k) &lt; $\mu - \sigma$ -->
     <g transform="translate(469.576 116.82825)scale(0.1 -0.1)">
      <use transform="translate(0 0.015625)" xlink:href="#DejaVuSans-32"/>
      <use transform="translate(31.787109 0.015625)" xlink:href="#DejaVuSans-76"/>
      <use transform="translate(87.5 0.015625)" xlink:href="#DejaVuSans-67"/>
      <use transform="translate(157.324219 0.015625)" xlink:href="#DejaVuSans-40"/>
      <use transform="translate(196.337891 0.015625)" xlink:href="#DejaVuSans-107"/>
      <use transform="translate(254.248047 0.015625)" xlink:href="#DejaVuSans-41"/>
      <use transform="translate(293.261719 0.015625)" xlink:href="#DejaVuSans-32"/>
      <use transform="translate(325.048828 0.015625)" xlink:href="#DejaVuSans-60"/>
      <use transform="translate(408.837891 0.015625)" xlink:href="#DejaVuSans-32"/>
      <use transform="translate(440.625 0.015625)" xlink:href="#DejaVuSans-Oblique-956"/>
      <use transform="translate(523.730469 0.015625)" xlink:href="#DejaVuSans-8722"/>
      <use transform="translate(627.001953 0.015625)" xlink:href="#DejaVuSans-Oblique-963"/>
     </g>
    </g>
    <g id="line2d_32">
     <path d="M 441.576 128.02825 
L 461.576 128.02825 
" style="fill:none;stroke:#9467bd;stroke-linecap:square;stroke-width:1.5;"/>
    </g>
    <g id="line2d_33"/>
    <g id="text_21">
     <!--  LC(k) &lt; $\mu - 1.5\sigma$ -->
     <g transform="translate(469.576 131.52825)scale(0.1 -0.1)">
      <use transform="translate(0 0.015625)" xlink:href="#DejaVuSans-32"/>
      <use transform="translate(31.787109 0.015625)" xlink:href="#DejaVuSans-76"/>
      <use transform="translate(87.5 0.015625)" xlink:href="#DejaVuSans-67"/>
      <use transform="translate(157.324219 0.015625)" xlink:href="#DejaVuSans-40"/>
      <use transform="translate(196.337891 0.015625)" xlink:href="#DejaVuSans-107"/>
      <use transform="translate(254.248047 0.015625)" xlink:href="#DejaVuSans-41"/>
      <use transform="translate(293.261719 0.015625)" xlink:href="#DejaVuSans-32"/>
      <use transform="translate(325.048828 0.015625)" xlink:href="#DejaVuSans-60"/>
      <use transform="translate(408.837891 0.015625)" xlink:href="#DejaVuSans-32"/>
      <use transform="translate(440.625 0.015625)" xlink:href="#DejaVuSans-Oblique-956"/>
      <use transform="translate(523.730469 0.015625)" xlink:href="#DejaVuSans-8722"/>
      <use transform="translate(627.001953 0.015625)" xlink:href="#DejaVuSans-49"/>
      <use transform="translate(690.625 0.015625)" xlink:href="#DejaVuSans-46"/>
      <use transform="translate(722.412109 0.015625)" xlink:href="#DejaVuSans-53"/>
      <use transform="translate(786.035156 0.015625)" xlink:href="#DejaVuSans-Oblique-963"/>
     </g>
    </g>
    <g id="line2d_34">
     <path d="M 441.576 142.72825 
L 461.576 142.72825 
" style="fill:none;stroke:#8c564b;stroke-linecap:square;stroke-width:1.5;"/>
    </g>
    <g id="line2d_35"/>
    <g id="text_22">
     <!--  LC(k) &lt; $\mu - 2\sigma$ -->
     <g transform="translate(469.576 146.22825)scale(0.1 -0.1)">
      <use transform="translate(0 0.015625)" xlink:href="#DejaVuSans-32"/>
      <use transform="translate(31.787109 0.015625)" xlink:href="#DejaVuSans-76"/>
      <use transform="translate(87.5 0.015625)" xlink:href="#DejaVuSans-67"/>
      <use transform="translate(157.324219 0.015625)" xlink:href="#DejaVuSans-40"/>
      <use transform="translate(196.337891 0.015625)" xlink:href="#DejaVuSans-107"/>
      <use transform="translate(254.248047 0.015625)" xlink:href="#DejaVuSans-41"/>
      <use transform="translate(293.261719 0.015625)" xlink:href="#DejaVuSans-32"/>
      <use transform="translate(325.048828 0.015625)" xlink:href="#DejaVuSans-60"/>
      <use transform="translate(408.837891 0.015625)" xlink:href="#DejaVuSans-32"/>
      <use transform="translate(440.625 0.015625)" xlink:href="#DejaVuSans-Oblique-956"/>
      <use transform="translate(523.730469 0.015625)" xlink:href="#DejaVuSans-8722"/>
      <use transform="translate(627.001953 0.015625)" xlink:href="#DejaVuSans-50"/>
      <use transform="translate(690.625 0.015625)" xlink:href="#DejaVuSans-Oblique-963"/>
     </g>
    </g>
    <g id="line2d_36">
     <path d="M 441.576 157.42825 
L 461.576 157.42825 
" style="fill:none;stroke:#e377c2;stroke-linecap:square;stroke-width:1.5;"/>
    </g>
    <g id="line2d_37"/>
    <g id="text_23">
     <!--  LC(k) &lt; $\mu - 2.5\sigma$ -->
     <g transform="translate(469.576 160.92825)scale(0.1 -0.1)">
      <use transform="translate(0 0.015625)" xlink:href="#DejaVuSans-32"/>
      <use transform="translate(31.787109 0.015625)" xlink:href="#DejaVuSans-76"/>
      <use transform="translate(87.5 0.015625)" xlink:href="#DejaVuSans-67"/>
      <use transform="translate(157.324219 0.015625)" xlink:href="#DejaVuSans-40"/>
      <use transform="translate(196.337891 0.015625)" xlink:href="#DejaVuSans-107"/>
      <use transform="translate(254.248047 0.015625)" xlink:href="#DejaVuSans-41"/>
      <use transform="translate(293.261719 0.015625)" xlink:href="#DejaVuSans-32"/>
      <use transform="translate(325.048828 0.015625)" xlink:href="#DejaVuSans-60"/>
      <use transform="translate(408.837891 0.015625)" xlink:href="#DejaVuSans-32"/>
      <use transform="translate(440.625 0.015625)" xlink:href="#DejaVuSans-Oblique-956"/>
      <use transform="translate(523.730469 0.015625)" xlink:href="#DejaVuSans-8722"/>
      <use transform="translate(627.001953 0.015625)" xlink:href="#DejaVuSans-50"/>
      <use transform="translate(690.625 0.015625)" xlink:href="#DejaVuSans-46"/>
      <use transform="translate(722.412109 0.015625)" xlink:href="#DejaVuSans-53"/>
      <use transform="translate(786.035156 0.015625)" xlink:href="#DejaVuSans-Oblique-963"/>
     </g>
    </g>
    <g id="line2d_38">
     <path d="M 441.576 172.12825 
L 461.576 172.12825 
" style="fill:none;stroke:#7f7f7f;stroke-linecap:square;stroke-width:1.5;"/>
    </g>
    <g id="line2d_39"/>
    <g id="text_24">
     <!--  LC(k) &lt; $\mu - 3\sigma$ -->
     <g transform="translate(469.576 175.62825)scale(0.1 -0.1)">
      <use transform="translate(0 0.015625)" xlink:href="#DejaVuSans-32"/>
      <use transform="translate(31.787109 0.015625)" xlink:href="#DejaVuSans-76"/>
      <use transform="translate(87.5 0.015625)" xlink:href="#DejaVuSans-67"/>
      <use transform="translate(157.324219 0.015625)" xlink:href="#DejaVuSans-40"/>
      <use transform="translate(196.337891 0.015625)" xlink:href="#DejaVuSans-107"/>
      <use transform="translate(254.248047 0.015625)" xlink:href="#DejaVuSans-41"/>
      <use transform="translate(293.261719 0.015625)" xlink:href="#DejaVuSans-32"/>
      <use transform="translate(325.048828 0.015625)" xlink:href="#DejaVuSans-60"/>
      <use transform="translate(408.837891 0.015625)" xlink:href="#DejaVuSans-32"/>
      <use transform="translate(440.625 0.015625)" xlink:href="#DejaVuSans-Oblique-956"/>
      <use transform="translate(523.730469 0.015625)" xlink:href="#DejaVuSans-8722"/>
      <use transform="translate(627.001953 0.015625)" xlink:href="#DejaVuSans-51"/>
      <use transform="translate(690.625 0.015625)" xlink:href="#DejaVuSans-Oblique-963"/>
     </g>
    </g>
    <g id="line2d_40">
     <path d="M 441.576 186.82825 
L 461.576 186.82825 
" style="fill:none;stroke:#bcbd22;stroke-linecap:square;stroke-width:1.5;"/>
    </g>
    <g id="line2d_41"/>
    <g id="text_25">
     <!--  LC(k) &lt; $\mu - 3.5\sigma$ -->
     <g transform="translate(469.576 190.32825)scale(0.1 -0.1)">
      <use transform="translate(0 0.015625)" xlink:href="#DejaVuSans-32"/>
      <use transform="translate(31.787109 0.015625)" xlink:href="#DejaVuSans-76"/>
      <use transform="translate(87.5 0.015625)" xlink:href="#DejaVuSans-67"/>
      <use transform="translate(157.324219 0.015625)" xlink:href="#DejaVuSans-40"/>
      <use transform="translate(196.337891 0.015625)" xlink:href="#DejaVuSans-107"/>
      <use transform="translate(254.248047 0.015625)" xlink:href="#DejaVuSans-41"/>
      <use transform="translate(293.261719 0.015625)" xlink:href="#DejaVuSans-32"/>
      <use transform="translate(325.048828 0.015625)" xlink:href="#DejaVuSans-60"/>
      <use transform="translate(408.837891 0.015625)" xlink:href="#DejaVuSans-32"/>
      <use transform="translate(440.625 0.015625)" xlink:href="#DejaVuSans-Oblique-956"/>
      <use transform="translate(523.730469 0.015625)" xlink:href="#DejaVuSans-8722"/>
      <use transform="translate(627.001953 0.015625)" xlink:href="#DejaVuSans-51"/>
      <use transform="translate(690.625 0.015625)" xlink:href="#DejaVuSans-46"/>
      <use transform="translate(722.412109 0.015625)" xlink:href="#DejaVuSans-53"/>
      <use transform="translate(786.035156 0.015625)" xlink:href="#DejaVuSans-Oblique-963"/>
     </g>
    </g>
    <g id="line2d_42">
     <path d="M 441.576 201.52825 
L 461.576 201.52825 
" style="fill:none;stroke:#17becf;stroke-linecap:square;stroke-width:1.5;"/>
    </g>
    <g id="line2d_43"/>
    <g id="text_26">
     <!--  LC(k) &lt; $\mu - 4\sigma$ -->
     <g transform="translate(469.576 205.02825)scale(0.1 -0.1)">
      <use transform="translate(0 0.015625)" xlink:href="#DejaVuSans-32"/>
      <use transform="translate(31.787109 0.015625)" xlink:href="#DejaVuSans-76"/>
      <use transform="translate(87.5 0.015625)" xlink:href="#DejaVuSans-67"/>
      <use transform="translate(157.324219 0.015625)" xlink:href="#DejaVuSans-40"/>
      <use transform="translate(196.337891 0.015625)" xlink:href="#DejaVuSans-107"/>
      <use transform="translate(254.248047 0.015625)" xlink:href="#DejaVuSans-41"/>
      <use transform="translate(293.261719 0.015625)" xlink:href="#DejaVuSans-32"/>
      <use transform="translate(325.048828 0.015625)" xlink:href="#DejaVuSans-60"/>
      <use transform="translate(408.837891 0.015625)" xlink:href="#DejaVuSans-32"/>
      <use transform="translate(440.625 0.015625)" xlink:href="#DejaVuSans-Oblique-956"/>
      <use transform="translate(523.730469 0.015625)" xlink:href="#DejaVuSans-8722"/>
      <use transform="translate(627.001953 0.015625)" xlink:href="#DejaVuSans-52"/>
      <use transform="translate(690.625 0.015625)" xlink:href="#DejaVuSans-Oblique-963"/>
     </g>
    </g>
   </g>
  </g>
 </g>
 <defs>
  <clipPath id="p4ce1ddd7b4">
   <rect height="266.112" width="357.12" x="57.6" y="41.472"/>
  </clipPath>
 </defs>
</svg>
