<?xml version="1.0" encoding="utf-8" standalone="no"?>
<!DOCTYPE svg PUBLIC "-//W3C//DTD SVG 1.1//EN"
  "http://www.w3.org/Graphics/SVG/1.1/DTD/svg11.dtd">
<!-- Created with matplotlib (https://matplotlib.org/) -->
<svg height="345.6pt" version="1.1" viewBox="0 0 460.8 345.6" width="460.8pt" xmlns="http://www.w3.org/2000/svg" xmlns:xlink="http://www.w3.org/1999/xlink">
 <defs>
  <style type="text/css">
*{stroke-linecap:butt;stroke-linejoin:round;}
  </style>
 </defs>
 <g id="figure_1">
  <g id="patch_1">
   <path d="M 0 345.6 
L 460.8 345.6 
L 460.8 0 
L 0 0 
z
" style="fill:#ffffff;"/>
  </g>
  <g id="axes_1">
   <g id="patch_2">
    <path d="M 57.6 307.584 
L 414.72 307.584 
L 414.72 41.472 
L 57.6 41.472 
z
" style="fill:#ffffff;"/>
   </g>
   <g id="matplotlib.axis_1">
    <g id="xtick_1">
     <g id="line2d_1">
      <path clip-path="url(#p4a93ec88de)" d="M 73.832727 307.584 
L 73.832727 41.472 
" style="fill:none;stroke:#b0b0b0;stroke-linecap:square;stroke-width:0.8;"/>
     </g>
     <g id="line2d_2">
      <defs>
       <path d="M 0 0 
L 0 3.5 
" id="mba2550e797" style="stroke:#000000;stroke-width:0.8;"/>
      </defs>
      <g>
       <use style="stroke:#000000;stroke-width:0.8;" x="73.832727" xlink:href="#mba2550e797" y="307.584"/>
      </g>
     </g>
     <g id="text_1">
      <!-- 0 -->
      <defs>
       <path d="M 46 36.53125 
Q 46 50.203125 43.4375 55.78125 
Q 40.875 61.375 34.8125 61.375 
Q 28.765625 61.375 26.171875 55.78125 
Q 23.578125 50.203125 23.578125 36.53125 
Q 23.578125 22.703125 26.171875 17.03125 
Q 28.765625 11.375 34.8125 11.375 
Q 40.828125 11.375 43.40625 17.03125 
Q 46 22.703125 46 36.53125 
z
M 64.796875 36.375 
Q 64.796875 18.265625 56.984375 8.421875 
Q 49.171875 -1.421875 34.8125 -1.421875 
Q 20.40625 -1.421875 12.59375 8.421875 
Q 4.78125 18.265625 4.78125 36.375 
Q 4.78125 54.546875 12.59375 64.375 
Q 20.40625 74.21875 34.8125 74.21875 
Q 49.171875 74.21875 56.984375 64.375 
Q 64.796875 54.546875 64.796875 36.375 
z
" id="DejaVuSans-Bold-48"/>
      </defs>
      <g transform="translate(67.570696 328.261187)scale(0.18 -0.18)">
       <use xlink:href="#DejaVuSans-Bold-48"/>
      </g>
     </g>
    </g>
    <g id="xtick_2">
     <g id="line2d_3">
      <path clip-path="url(#p4a93ec88de)" d="M 139.419504 307.584 
L 139.419504 41.472 
" style="fill:none;stroke:#b0b0b0;stroke-linecap:square;stroke-width:0.8;"/>
     </g>
     <g id="line2d_4">
      <g>
       <use style="stroke:#000000;stroke-width:0.8;" x="139.419504" xlink:href="#mba2550e797" y="307.584"/>
      </g>
     </g>
     <g id="text_2">
      <!-- 20 -->
      <defs>
       <path d="M 28.8125 13.8125 
L 60.890625 13.8125 
L 60.890625 0 
L 7.90625 0 
L 7.90625 13.8125 
L 34.515625 37.3125 
Q 38.09375 40.53125 39.796875 43.609375 
Q 41.5 46.6875 41.5 50 
Q 41.5 55.125 38.0625 58.25 
Q 34.625 61.375 28.90625 61.375 
Q 24.515625 61.375 19.28125 59.5 
Q 14.0625 57.625 8.109375 53.90625 
L 8.109375 69.921875 
Q 14.453125 72.015625 20.65625 73.109375 
Q 26.859375 74.21875 32.8125 74.21875 
Q 45.90625 74.21875 53.15625 68.453125 
Q 60.40625 62.703125 60.40625 52.390625 
Q 60.40625 46.4375 57.328125 41.28125 
Q 54.25 36.140625 44.390625 27.484375 
z
" id="DejaVuSans-Bold-50"/>
      </defs>
      <g transform="translate(126.895442 328.261187)scale(0.18 -0.18)">
       <use xlink:href="#DejaVuSans-Bold-50"/>
       <use x="69.580078" xlink:href="#DejaVuSans-Bold-48"/>
      </g>
     </g>
    </g>
    <g id="xtick_3">
     <g id="line2d_5">
      <path clip-path="url(#p4a93ec88de)" d="M 205.006281 307.584 
L 205.006281 41.472 
" style="fill:none;stroke:#b0b0b0;stroke-linecap:square;stroke-width:0.8;"/>
     </g>
     <g id="line2d_6">
      <g>
       <use style="stroke:#000000;stroke-width:0.8;" x="205.006281" xlink:href="#mba2550e797" y="307.584"/>
      </g>
     </g>
     <g id="text_3">
      <!-- 40 -->
      <defs>
       <path d="M 36.8125 57.421875 
L 16.21875 26.90625 
L 36.8125 26.90625 
z
M 33.6875 72.90625 
L 54.59375 72.90625 
L 54.59375 26.90625 
L 64.984375 26.90625 
L 64.984375 13.28125 
L 54.59375 13.28125 
L 54.59375 0 
L 36.8125 0 
L 36.8125 13.28125 
L 4.5 13.28125 
L 4.5 29.390625 
z
" id="DejaVuSans-Bold-52"/>
      </defs>
      <g transform="translate(192.482218 328.261187)scale(0.18 -0.18)">
       <use xlink:href="#DejaVuSans-Bold-52"/>
       <use x="69.580078" xlink:href="#DejaVuSans-Bold-48"/>
      </g>
     </g>
    </g>
    <g id="xtick_4">
     <g id="line2d_7">
      <path clip-path="url(#p4a93ec88de)" d="M 270.593058 307.584 
L 270.593058 41.472 
" style="fill:none;stroke:#b0b0b0;stroke-linecap:square;stroke-width:0.8;"/>
     </g>
     <g id="line2d_8">
      <g>
       <use style="stroke:#000000;stroke-width:0.8;" x="270.593058" xlink:href="#mba2550e797" y="307.584"/>
      </g>
     </g>
     <g id="text_4">
      <!-- 60 -->
      <defs>
       <path d="M 36.1875 35.984375 
Q 31.25 35.984375 28.78125 32.78125 
Q 26.3125 29.59375 26.3125 23.1875 
Q 26.3125 16.796875 28.78125 13.59375 
Q 31.25 10.40625 36.1875 10.40625 
Q 41.15625 10.40625 43.625 13.59375 
Q 46.09375 16.796875 46.09375 23.1875 
Q 46.09375 29.59375 43.625 32.78125 
Q 41.15625 35.984375 36.1875 35.984375 
z
M 59.421875 71 
L 59.421875 57.515625 
Q 54.78125 59.71875 50.671875 60.765625 
Q 46.578125 61.8125 42.671875 61.8125 
Q 34.28125 61.8125 29.59375 57.140625 
Q 24.90625 52.484375 24.125 43.3125 
Q 27.34375 45.703125 31.09375 46.890625 
Q 34.859375 48.09375 39.3125 48.09375 
Q 50.484375 48.09375 57.34375 41.546875 
Q 64.203125 35.015625 64.203125 24.421875 
Q 64.203125 12.703125 56.53125 5.640625 
Q 48.875 -1.421875 35.984375 -1.421875 
Q 21.78125 -1.421875 13.984375 8.171875 
Q 6.203125 17.78125 6.203125 35.40625 
Q 6.203125 53.46875 15.3125 63.796875 
Q 24.421875 74.125 40.28125 74.125 
Q 45.3125 74.125 50.046875 73.34375 
Q 54.78125 72.5625 59.421875 71 
z
" id="DejaVuSans-Bold-54"/>
      </defs>
      <g transform="translate(258.068995 328.261187)scale(0.18 -0.18)">
       <use xlink:href="#DejaVuSans-Bold-54"/>
       <use x="69.580078" xlink:href="#DejaVuSans-Bold-48"/>
      </g>
     </g>
    </g>
    <g id="xtick_5">
     <g id="line2d_9">
      <path clip-path="url(#p4a93ec88de)" d="M 336.179835 307.584 
L 336.179835 41.472 
" style="fill:none;stroke:#b0b0b0;stroke-linecap:square;stroke-width:0.8;"/>
     </g>
     <g id="line2d_10">
      <g>
       <use style="stroke:#000000;stroke-width:0.8;" x="336.179835" xlink:href="#mba2550e797" y="307.584"/>
      </g>
     </g>
     <g id="text_5">
      <!-- 80 -->
      <defs>
       <path d="M 34.8125 32.625 
Q 29.546875 32.625 26.703125 29.734375 
Q 23.875 26.859375 23.875 21.484375 
Q 23.875 16.109375 26.703125 13.25 
Q 29.546875 10.40625 34.8125 10.40625 
Q 40.046875 10.40625 42.828125 13.25 
Q 45.609375 16.109375 45.609375 21.484375 
Q 45.609375 26.90625 42.828125 29.765625 
Q 40.046875 32.625 34.8125 32.625 
z
M 21.09375 38.8125 
Q 14.453125 40.828125 11.078125 44.96875 
Q 7.71875 49.125 7.71875 55.328125 
Q 7.71875 64.546875 14.59375 69.375 
Q 21.484375 74.21875 34.8125 74.21875 
Q 48.046875 74.21875 54.921875 69.40625 
Q 61.8125 64.59375 61.8125 55.328125 
Q 61.8125 49.125 58.421875 44.96875 
Q 55.03125 40.828125 48.390625 38.8125 
Q 55.8125 36.765625 59.59375 32.15625 
Q 63.375 27.546875 63.375 20.515625 
Q 63.375 9.671875 56.171875 4.125 
Q 48.96875 -1.421875 34.8125 -1.421875 
Q 20.609375 -1.421875 13.359375 4.125 
Q 6.109375 9.671875 6.109375 20.515625 
Q 6.109375 27.546875 9.890625 32.15625 
Q 13.671875 36.765625 21.09375 38.8125 
z
M 25.484375 53.421875 
Q 25.484375 49.078125 27.90625 46.734375 
Q 30.328125 44.390625 34.8125 44.390625 
Q 39.203125 44.390625 41.59375 46.734375 
Q 44 49.078125 44 53.421875 
Q 44 57.765625 41.59375 60.078125 
Q 39.203125 62.40625 34.8125 62.40625 
Q 30.328125 62.40625 27.90625 60.0625 
Q 25.484375 57.71875 25.484375 53.421875 
z
" id="DejaVuSans-Bold-56"/>
      </defs>
      <g transform="translate(323.655772 328.261187)scale(0.18 -0.18)">
       <use xlink:href="#DejaVuSans-Bold-56"/>
       <use x="69.580078" xlink:href="#DejaVuSans-Bold-48"/>
      </g>
     </g>
    </g>
    <g id="xtick_6">
     <g id="line2d_11">
      <path clip-path="url(#p4a93ec88de)" d="M 401.766612 307.584 
L 401.766612 41.472 
" style="fill:none;stroke:#b0b0b0;stroke-linecap:square;stroke-width:0.8;"/>
     </g>
     <g id="line2d_12">
      <g>
       <use style="stroke:#000000;stroke-width:0.8;" x="401.766612" xlink:href="#mba2550e797" y="307.584"/>
      </g>
     </g>
     <g id="text_6">
      <!-- 100 -->
      <defs>
       <path d="M 11.71875 12.984375 
L 28.328125 12.984375 
L 28.328125 60.109375 
L 11.28125 56.59375 
L 11.28125 69.390625 
L 28.21875 72.90625 
L 46.09375 72.90625 
L 46.09375 12.984375 
L 62.703125 12.984375 
L 62.703125 0 
L 11.71875 0 
z
" id="DejaVuSans-Bold-49"/>
      </defs>
      <g transform="translate(382.980518 328.261187)scale(0.18 -0.18)">
       <use xlink:href="#DejaVuSans-Bold-49"/>
       <use x="69.580078" xlink:href="#DejaVuSans-Bold-48"/>
       <use x="139.160156" xlink:href="#DejaVuSans-Bold-48"/>
      </g>
     </g>
    </g>
    <g id="text_7">
     <!-- Epochs [#] -->
     <defs>
      <path d="M 9.8125 72.90625 
L 55.90625 72.90625 
L 55.90625 64.59375 
L 19.671875 64.59375 
L 19.671875 43.015625 
L 54.390625 43.015625 
L 54.390625 34.71875 
L 19.671875 34.71875 
L 19.671875 8.296875 
L 56.78125 8.296875 
L 56.78125 0 
L 9.8125 0 
z
" id="DejaVuSans-69"/>
      <path d="M 18.109375 8.203125 
L 18.109375 -20.796875 
L 9.078125 -20.796875 
L 9.078125 54.6875 
L 18.109375 54.6875 
L 18.109375 46.390625 
Q 20.953125 51.265625 25.265625 53.625 
Q 29.59375 56 35.59375 56 
Q 45.5625 56 51.78125 48.09375 
Q 58.015625 40.1875 58.015625 27.296875 
Q 58.015625 14.40625 51.78125 6.484375 
Q 45.5625 -1.421875 35.59375 -1.421875 
Q 29.59375 -1.421875 25.265625 0.953125 
Q 20.953125 3.328125 18.109375 8.203125 
z
M 48.6875 27.296875 
Q 48.6875 37.203125 44.609375 42.84375 
Q 40.53125 48.484375 33.40625 48.484375 
Q 26.265625 48.484375 22.1875 42.84375 
Q 18.109375 37.203125 18.109375 27.296875 
Q 18.109375 17.390625 22.1875 11.75 
Q 26.265625 6.109375 33.40625 6.109375 
Q 40.53125 6.109375 44.609375 11.75 
Q 48.6875 17.390625 48.6875 27.296875 
z
" id="DejaVuSans-112"/>
      <path d="M 30.609375 48.390625 
Q 23.390625 48.390625 19.1875 42.75 
Q 14.984375 37.109375 14.984375 27.296875 
Q 14.984375 17.484375 19.15625 11.84375 
Q 23.34375 6.203125 30.609375 6.203125 
Q 37.796875 6.203125 41.984375 11.859375 
Q 46.1875 17.53125 46.1875 27.296875 
Q 46.1875 37.015625 41.984375 42.703125 
Q 37.796875 48.390625 30.609375 48.390625 
z
M 30.609375 56 
Q 42.328125 56 49.015625 48.375 
Q 55.71875 40.765625 55.71875 27.296875 
Q 55.71875 13.875 49.015625 6.21875 
Q 42.328125 -1.421875 30.609375 -1.421875 
Q 18.84375 -1.421875 12.171875 6.21875 
Q 5.515625 13.875 5.515625 27.296875 
Q 5.515625 40.765625 12.171875 48.375 
Q 18.84375 56 30.609375 56 
z
" id="DejaVuSans-111"/>
      <path d="M 48.78125 52.59375 
L 48.78125 44.1875 
Q 44.96875 46.296875 41.140625 47.34375 
Q 37.3125 48.390625 33.40625 48.390625 
Q 24.65625 48.390625 19.8125 42.84375 
Q 14.984375 37.3125 14.984375 27.296875 
Q 14.984375 17.28125 19.8125 11.734375 
Q 24.65625 6.203125 33.40625 6.203125 
Q 37.3125 6.203125 41.140625 7.25 
Q 44.96875 8.296875 48.78125 10.40625 
L 48.78125 2.09375 
Q 45.015625 0.34375 40.984375 -0.53125 
Q 36.96875 -1.421875 32.421875 -1.421875 
Q 20.0625 -1.421875 12.78125 6.34375 
Q 5.515625 14.109375 5.515625 27.296875 
Q 5.515625 40.671875 12.859375 48.328125 
Q 20.21875 56 33.015625 56 
Q 37.15625 56 41.109375 55.140625 
Q 45.0625 54.296875 48.78125 52.59375 
z
" id="DejaVuSans-99"/>
      <path d="M 54.890625 33.015625 
L 54.890625 0 
L 45.90625 0 
L 45.90625 32.71875 
Q 45.90625 40.484375 42.875 44.328125 
Q 39.84375 48.1875 33.796875 48.1875 
Q 26.515625 48.1875 22.3125 43.546875 
Q 18.109375 38.921875 18.109375 30.90625 
L 18.109375 0 
L 9.078125 0 
L 9.078125 75.984375 
L 18.109375 75.984375 
L 18.109375 46.1875 
Q 21.34375 51.125 25.703125 53.5625 
Q 30.078125 56 35.796875 56 
Q 45.21875 56 50.046875 50.171875 
Q 54.890625 44.34375 54.890625 33.015625 
z
" id="DejaVuSans-104"/>
      <path d="M 44.28125 53.078125 
L 44.28125 44.578125 
Q 40.484375 46.53125 36.375 47.5 
Q 32.28125 48.484375 27.875 48.484375 
Q 21.1875 48.484375 17.84375 46.4375 
Q 14.5 44.390625 14.5 40.28125 
Q 14.5 37.15625 16.890625 35.375 
Q 19.28125 33.59375 26.515625 31.984375 
L 29.59375 31.296875 
Q 39.15625 29.25 43.1875 25.515625 
Q 47.21875 21.78125 47.21875 15.09375 
Q 47.21875 7.46875 41.1875 3.015625 
Q 35.15625 -1.421875 24.609375 -1.421875 
Q 20.21875 -1.421875 15.453125 -0.5625 
Q 10.6875 0.296875 5.421875 2 
L 5.421875 11.28125 
Q 10.40625 8.6875 15.234375 7.390625 
Q 20.0625 6.109375 24.8125 6.109375 
Q 31.15625 6.109375 34.5625 8.28125 
Q 37.984375 10.453125 37.984375 14.40625 
Q 37.984375 18.0625 35.515625 20.015625 
Q 33.0625 21.96875 24.703125 23.78125 
L 21.578125 24.515625 
Q 13.234375 26.265625 9.515625 29.90625 
Q 5.8125 33.546875 5.8125 39.890625 
Q 5.8125 47.609375 11.28125 51.796875 
Q 16.75 56 26.8125 56 
Q 31.78125 56 36.171875 55.265625 
Q 40.578125 54.546875 44.28125 53.078125 
z
" id="DejaVuSans-115"/>
      <path id="DejaVuSans-32"/>
      <path d="M 8.59375 75.984375 
L 29.296875 75.984375 
L 29.296875 69 
L 17.578125 69 
L 17.578125 -6.203125 
L 29.296875 -6.203125 
L 29.296875 -13.1875 
L 8.59375 -13.1875 
z
" id="DejaVuSans-91"/>
      <path d="M 51.125 44 
L 36.921875 44 
L 32.8125 27.6875 
L 47.125 27.6875 
z
M 43.796875 71.78125 
L 38.71875 51.515625 
L 52.984375 51.515625 
L 58.109375 71.78125 
L 65.921875 71.78125 
L 60.890625 51.515625 
L 76.125 51.515625 
L 76.125 44 
L 58.984375 44 
L 54.984375 27.6875 
L 70.515625 27.6875 
L 70.515625 20.21875 
L 53.078125 20.21875 
L 48 0 
L 40.1875 0 
L 45.21875 20.21875 
L 30.90625 20.21875 
L 25.875 0 
L 18.015625 0 
L 23.09375 20.21875 
L 7.71875 20.21875 
L 7.71875 27.6875 
L 24.90625 27.6875 
L 29 44 
L 13.28125 44 
L 13.28125 51.515625 
L 30.90625 51.515625 
L 35.890625 71.78125 
z
" id="DejaVuSans-35"/>
      <path d="M 30.421875 75.984375 
L 30.421875 -13.1875 
L 9.71875 -13.1875 
L 9.71875 -6.203125 
L 21.390625 -6.203125 
L 21.390625 69 
L 9.71875 69 
L 9.71875 75.984375 
z
" id="DejaVuSans-93"/>
     </defs>
     <g transform="translate(169.929375 354.240875)scale(0.24 -0.24)">
      <use xlink:href="#DejaVuSans-69"/>
      <use x="63.183594" xlink:href="#DejaVuSans-112"/>
      <use x="126.660156" xlink:href="#DejaVuSans-111"/>
      <use x="187.841797" xlink:href="#DejaVuSans-99"/>
      <use x="242.822266" xlink:href="#DejaVuSans-104"/>
      <use x="306.201172" xlink:href="#DejaVuSans-115"/>
      <use x="358.300781" xlink:href="#DejaVuSans-32"/>
      <use x="390.087891" xlink:href="#DejaVuSans-91"/>
      <use x="429.101562" xlink:href="#DejaVuSans-35"/>
      <use x="512.890625" xlink:href="#DejaVuSans-93"/>
     </g>
    </g>
   </g>
   <g id="matplotlib.axis_2">
    <g id="ytick_1">
     <g id="line2d_13">
      <path clip-path="url(#p4a93ec88de)" d="M 57.6 295.488001 
L 414.72 295.488001 
" style="fill:none;stroke:#b0b0b0;stroke-linecap:square;stroke-width:0.8;"/>
     </g>
     <g id="line2d_14">
      <defs>
       <path d="M 0 0 
L -3.5 0 
" id="m8d4d09cbd5" style="stroke:#000000;stroke-width:0.8;"/>
      </defs>
      <g>
       <use style="stroke:#000000;stroke-width:0.8;" x="57.6" xlink:href="#m8d4d09cbd5" y="295.488001"/>
      </g>
     </g>
     <g id="text_8">
      <!-- 10 -->
      <g transform="translate(25.551875 302.326594)scale(0.18 -0.18)">
       <use xlink:href="#DejaVuSans-Bold-49"/>
       <use x="69.580078" xlink:href="#DejaVuSans-Bold-48"/>
      </g>
     </g>
    </g>
    <g id="ytick_2">
     <g id="line2d_15">
      <path clip-path="url(#p4a93ec88de)" d="M 57.6 248.47673 
L 414.72 248.47673 
" style="fill:none;stroke:#b0b0b0;stroke-linecap:square;stroke-width:0.8;"/>
     </g>
     <g id="line2d_16">
      <g>
       <use style="stroke:#000000;stroke-width:0.8;" x="57.6" xlink:href="#m8d4d09cbd5" y="248.47673"/>
      </g>
     </g>
     <g id="text_9">
      <!-- 20 -->
      <g transform="translate(25.551875 255.315324)scale(0.18 -0.18)">
       <use xlink:href="#DejaVuSans-Bold-50"/>
       <use x="69.580078" xlink:href="#DejaVuSans-Bold-48"/>
      </g>
     </g>
    </g>
    <g id="ytick_3">
     <g id="line2d_17">
      <path clip-path="url(#p4a93ec88de)" d="M 57.6 201.465459 
L 414.72 201.465459 
" style="fill:none;stroke:#b0b0b0;stroke-linecap:square;stroke-width:0.8;"/>
     </g>
     <g id="line2d_18">
      <g>
       <use style="stroke:#000000;stroke-width:0.8;" x="57.6" xlink:href="#m8d4d09cbd5" y="201.465459"/>
      </g>
     </g>
     <g id="text_10">
      <!-- 30 -->
      <defs>
       <path d="M 46.578125 39.3125 
Q 53.953125 37.40625 57.78125 32.6875 
Q 61.625 27.984375 61.625 20.703125 
Q 61.625 9.859375 53.3125 4.21875 
Q 45.015625 -1.421875 29.109375 -1.421875 
Q 23.484375 -1.421875 17.84375 -0.515625 
Q 12.203125 0.390625 6.6875 2.203125 
L 6.6875 16.703125 
Q 11.96875 14.0625 17.15625 12.71875 
Q 22.359375 11.375 27.390625 11.375 
Q 34.859375 11.375 38.84375 13.953125 
Q 42.828125 16.546875 42.828125 21.390625 
Q 42.828125 26.375 38.75 28.9375 
Q 34.671875 31.5 26.703125 31.5 
L 19.1875 31.5 
L 19.1875 43.609375 
L 27.09375 43.609375 
Q 34.1875 43.609375 37.640625 45.828125 
Q 41.109375 48.046875 41.109375 52.59375 
Q 41.109375 56.78125 37.734375 59.078125 
Q 34.375 61.375 28.21875 61.375 
Q 23.6875 61.375 19.046875 60.34375 
Q 14.40625 59.328125 9.8125 57.328125 
L 9.8125 71.09375 
Q 15.375 72.65625 20.84375 73.4375 
Q 26.3125 74.21875 31.59375 74.21875 
Q 45.796875 74.21875 52.84375 69.546875 
Q 59.90625 64.890625 59.90625 55.515625 
Q 59.90625 49.125 56.53125 45.046875 
Q 53.171875 40.96875 46.578125 39.3125 
z
" id="DejaVuSans-Bold-51"/>
      </defs>
      <g transform="translate(25.551875 208.304053)scale(0.18 -0.18)">
       <use xlink:href="#DejaVuSans-Bold-51"/>
       <use x="69.580078" xlink:href="#DejaVuSans-Bold-48"/>
      </g>
     </g>
    </g>
    <g id="ytick_4">
     <g id="line2d_19">
      <path clip-path="url(#p4a93ec88de)" d="M 57.6 154.454188 
L 414.72 154.454188 
" style="fill:none;stroke:#b0b0b0;stroke-linecap:square;stroke-width:0.8;"/>
     </g>
     <g id="line2d_20">
      <g>
       <use style="stroke:#000000;stroke-width:0.8;" x="57.6" xlink:href="#m8d4d09cbd5" y="154.454188"/>
      </g>
     </g>
     <g id="text_11">
      <!-- 40 -->
      <g transform="translate(25.551875 161.292782)scale(0.18 -0.18)">
       <use xlink:href="#DejaVuSans-Bold-52"/>
       <use x="69.580078" xlink:href="#DejaVuSans-Bold-48"/>
      </g>
     </g>
    </g>
    <g id="ytick_5">
     <g id="line2d_21">
      <path clip-path="url(#p4a93ec88de)" d="M 57.6 107.442918 
L 414.72 107.442918 
" style="fill:none;stroke:#b0b0b0;stroke-linecap:square;stroke-width:0.8;"/>
     </g>
     <g id="line2d_22">
      <g>
       <use style="stroke:#000000;stroke-width:0.8;" x="57.6" xlink:href="#m8d4d09cbd5" y="107.442918"/>
      </g>
     </g>
     <g id="text_12">
      <!-- 50 -->
      <defs>
       <path d="M 10.59375 72.90625 
L 57.328125 72.90625 
L 57.328125 59.078125 
L 25.59375 59.078125 
L 25.59375 47.796875 
Q 27.734375 48.390625 29.90625 48.703125 
Q 32.078125 49.03125 34.421875 49.03125 
Q 47.75 49.03125 55.171875 42.359375 
Q 62.59375 35.6875 62.59375 23.78125 
Q 62.59375 11.96875 54.515625 5.265625 
Q 46.4375 -1.421875 32.078125 -1.421875 
Q 25.875 -1.421875 19.796875 -0.21875 
Q 13.71875 0.984375 7.71875 3.421875 
L 7.71875 18.21875 
Q 13.671875 14.796875 19.015625 13.078125 
Q 24.359375 11.375 29.109375 11.375 
Q 35.9375 11.375 39.859375 14.71875 
Q 43.796875 18.0625 43.796875 23.78125 
Q 43.796875 29.546875 39.859375 32.859375 
Q 35.9375 36.1875 29.109375 36.1875 
Q 25.046875 36.1875 20.453125 35.125 
Q 15.875 34.078125 10.59375 31.890625 
z
" id="DejaVuSans-Bold-53"/>
      </defs>
      <g transform="translate(25.551875 114.281511)scale(0.18 -0.18)">
       <use xlink:href="#DejaVuSans-Bold-53"/>
       <use x="69.580078" xlink:href="#DejaVuSans-Bold-48"/>
      </g>
     </g>
    </g>
    <g id="ytick_6">
     <g id="line2d_23">
      <path clip-path="url(#p4a93ec88de)" d="M 57.6 60.431647 
L 414.72 60.431647 
" style="fill:none;stroke:#b0b0b0;stroke-linecap:square;stroke-width:0.8;"/>
     </g>
     <g id="line2d_24">
      <g>
       <use style="stroke:#000000;stroke-width:0.8;" x="57.6" xlink:href="#m8d4d09cbd5" y="60.431647"/>
      </g>
     </g>
     <g id="text_13">
      <!-- 60 -->
      <g transform="translate(25.551875 67.270241)scale(0.18 -0.18)">
       <use xlink:href="#DejaVuSans-Bold-54"/>
       <use x="69.580078" xlink:href="#DejaVuSans-Bold-48"/>
      </g>
     </g>
    </g>
    <g id="text_14">
     <!-- Accuracy [%] -->
     <defs>
      <path d="M 34.1875 63.1875 
L 20.796875 26.90625 
L 47.609375 26.90625 
z
M 28.609375 72.90625 
L 39.796875 72.90625 
L 67.578125 0 
L 57.328125 0 
L 50.6875 18.703125 
L 17.828125 18.703125 
L 11.1875 0 
L 0.78125 0 
z
" id="DejaVuSans-65"/>
      <path d="M 8.5 21.578125 
L 8.5 54.6875 
L 17.484375 54.6875 
L 17.484375 21.921875 
Q 17.484375 14.15625 20.5 10.265625 
Q 23.53125 6.390625 29.59375 6.390625 
Q 36.859375 6.390625 41.078125 11.03125 
Q 45.3125 15.671875 45.3125 23.6875 
L 45.3125 54.6875 
L 54.296875 54.6875 
L 54.296875 0 
L 45.3125 0 
L 45.3125 8.40625 
Q 42.046875 3.421875 37.71875 1 
Q 33.40625 -1.421875 27.6875 -1.421875 
Q 18.265625 -1.421875 13.375 4.4375 
Q 8.5 10.296875 8.5 21.578125 
z
M 31.109375 56 
z
" id="DejaVuSans-117"/>
      <path d="M 41.109375 46.296875 
Q 39.59375 47.171875 37.8125 47.578125 
Q 36.03125 48 33.890625 48 
Q 26.265625 48 22.1875 43.046875 
Q 18.109375 38.09375 18.109375 28.8125 
L 18.109375 0 
L 9.078125 0 
L 9.078125 54.6875 
L 18.109375 54.6875 
L 18.109375 46.1875 
Q 20.953125 51.171875 25.484375 53.578125 
Q 30.03125 56 36.53125 56 
Q 37.453125 56 38.578125 55.875 
Q 39.703125 55.765625 41.0625 55.515625 
z
" id="DejaVuSans-114"/>
      <path d="M 34.28125 27.484375 
Q 23.390625 27.484375 19.1875 25 
Q 14.984375 22.515625 14.984375 16.5 
Q 14.984375 11.71875 18.140625 8.90625 
Q 21.296875 6.109375 26.703125 6.109375 
Q 34.1875 6.109375 38.703125 11.40625 
Q 43.21875 16.703125 43.21875 25.484375 
L 43.21875 27.484375 
z
M 52.203125 31.203125 
L 52.203125 0 
L 43.21875 0 
L 43.21875 8.296875 
Q 40.140625 3.328125 35.546875 0.953125 
Q 30.953125 -1.421875 24.3125 -1.421875 
Q 15.921875 -1.421875 10.953125 3.296875 
Q 6 8.015625 6 15.921875 
Q 6 25.140625 12.171875 29.828125 
Q 18.359375 34.515625 30.609375 34.515625 
L 43.21875 34.515625 
L 43.21875 35.40625 
Q 43.21875 41.609375 39.140625 45 
Q 35.0625 48.390625 27.6875 48.390625 
Q 23 48.390625 18.546875 47.265625 
Q 14.109375 46.140625 10.015625 43.890625 
L 10.015625 52.203125 
Q 14.9375 54.109375 19.578125 55.046875 
Q 24.21875 56 28.609375 56 
Q 40.484375 56 46.34375 49.84375 
Q 52.203125 43.703125 52.203125 31.203125 
z
" id="DejaVuSans-97"/>
      <path d="M 32.171875 -5.078125 
Q 28.375 -14.84375 24.75 -17.8125 
Q 21.140625 -20.796875 15.09375 -20.796875 
L 7.90625 -20.796875 
L 7.90625 -13.28125 
L 13.1875 -13.28125 
Q 16.890625 -13.28125 18.9375 -11.515625 
Q 21 -9.765625 23.484375 -3.21875 
L 25.09375 0.875 
L 2.984375 54.6875 
L 12.5 54.6875 
L 29.59375 11.921875 
L 46.6875 54.6875 
L 56.203125 54.6875 
z
" id="DejaVuSans-121"/>
      <path d="M 72.703125 32.078125 
Q 68.453125 32.078125 66.03125 28.46875 
Q 63.625 24.859375 63.625 18.40625 
Q 63.625 12.0625 66.03125 8.421875 
Q 68.453125 4.78125 72.703125 4.78125 
Q 76.859375 4.78125 79.265625 8.421875 
Q 81.6875 12.0625 81.6875 18.40625 
Q 81.6875 24.8125 79.265625 28.4375 
Q 76.859375 32.078125 72.703125 32.078125 
z
M 72.703125 38.28125 
Q 80.421875 38.28125 84.953125 32.90625 
Q 89.5 27.546875 89.5 18.40625 
Q 89.5 9.28125 84.9375 3.921875 
Q 80.375 -1.421875 72.703125 -1.421875 
Q 64.890625 -1.421875 60.34375 3.921875 
Q 55.8125 9.28125 55.8125 18.40625 
Q 55.8125 27.59375 60.375 32.9375 
Q 64.9375 38.28125 72.703125 38.28125 
z
M 22.3125 68.015625 
Q 18.109375 68.015625 15.6875 64.375 
Q 13.28125 60.75 13.28125 54.390625 
Q 13.28125 47.953125 15.671875 44.328125 
Q 18.0625 40.71875 22.3125 40.71875 
Q 26.5625 40.71875 28.96875 44.328125 
Q 31.390625 47.953125 31.390625 54.390625 
Q 31.390625 60.6875 28.953125 64.34375 
Q 26.515625 68.015625 22.3125 68.015625 
z
M 66.40625 74.21875 
L 74.21875 74.21875 
L 28.609375 -1.421875 
L 20.796875 -1.421875 
z
M 22.3125 74.21875 
Q 30.03125 74.21875 34.609375 68.875 
Q 39.203125 63.53125 39.203125 54.390625 
Q 39.203125 45.171875 34.640625 39.84375 
Q 30.078125 34.515625 22.3125 34.515625 
Q 14.546875 34.515625 10.03125 39.859375 
Q 5.515625 45.21875 5.515625 54.390625 
Q 5.515625 63.484375 10.046875 68.84375 
Q 14.59375 74.21875 22.3125 74.21875 
z
" id="DejaVuSans-37"/>
     </defs>
     <g transform="translate(16.560625 254.103)rotate(-90)scale(0.24 -0.24)">
      <use xlink:href="#DejaVuSans-65"/>
      <use x="68.392578" xlink:href="#DejaVuSans-99"/>
      <use x="123.373047" xlink:href="#DejaVuSans-99"/>
      <use x="178.353516" xlink:href="#DejaVuSans-117"/>
      <use x="241.732422" xlink:href="#DejaVuSans-114"/>
      <use x="282.845703" xlink:href="#DejaVuSans-97"/>
      <use x="344.125" xlink:href="#DejaVuSans-99"/>
      <use x="399.105469" xlink:href="#DejaVuSans-121"/>
      <use x="458.285156" xlink:href="#DejaVuSans-32"/>
      <use x="490.072266" xlink:href="#DejaVuSans-91"/>
      <use x="529.085938" xlink:href="#DejaVuSans-37"/>
      <use x="624.105469" xlink:href="#DejaVuSans-93"/>
     </g>
    </g>
   </g>
   <g id="line2d_25">
    <path clip-path="url(#p4a93ec88de)" d="M 73.832727 278.281874 
L 77.112066 263.426314 
L 80.391405 245.79709 
L 83.670744 226.522465 
L 86.950083 205.55544 
L 90.229421 188.866444 
L 93.50876 178.429933 
L 96.788099 168.745616 
L 100.067438 156.663718 
L 103.346777 145.381018 
L 106.626116 138.658397 
L 109.905455 130.948559 
L 113.184793 125.589267 
L 116.464132 121.781353 
L 119.743471 117.221259 
L 123.02281 116.092998 
L 126.302149 115.669896 
L 129.581488 110.545658 
L 132.860826 108.994295 
L 136.140165 105.515444 
L 139.419504 103.776046 
L 142.698843 99.450992 
L 145.978182 100.720311 
L 149.257521 100.438225 
L 152.53686 95.031928 
L 155.816198 97.664576 
L 159.095537 95.361034 
L 162.374876 94.185753 
L 165.654215 91.788173 
L 168.933554 91.694134 
L 172.212893 87.510138 
L 175.492231 88.168293 
L 178.77157 87.839215 
L 182.050909 85.441635 
L 185.330248 86.616915 
L 188.609587 83.138092 
L 191.888926 83.091073 
L 195.168264 81.680753 
L 198.447603 79.941328 
L 201.726942 80.693493 
L 205.006281 80.646502 
L 208.28562 80.975579 
L 211.564959 80.035338 
L 214.844298 79.048106 
L 218.123636 76.650525 
L 221.402975 77.355699 
L 224.682314 76.321448 
L 227.961653 78.154883 
L 231.240992 73.453761 
L 234.520331 72.043441 
L 237.799669 72.419509 
L 241.079008 73.688828 
L 244.358347 70.915151 
L 247.637686 74.158935 
L 250.917025 71.714363 
L 254.196364 71.573306 
L 257.475702 70.96217 
L 260.755041 67.812425 
L 264.03438 67.483348 
L 267.313719 69.034697 
L 270.593058 67.483348 
L 273.872397 66.872184 
L 277.151736 64.8507 
L 280.431074 65.602893 
L 283.710413 67.483348 
L 286.989752 64.944738 
L 290.269091 65.743922 
L 293.54843 63.581409 
L 296.827769 63.957506 
L 300.107107 63.393361 
L 303.386446 60.807732 
L 306.665785 61.042799 
L 309.945124 61.700954 
L 313.224463 60.713722 
L 316.503802 61.512906 
L 319.78314 61.983013 
L 323.062479 58.5982 
L 326.341818 60.572693 
L 329.621157 59.585432 
L 332.900496 60.055567 
L 336.179835 59.444403 
L 339.459174 58.222104 
L 342.738512 56.811784 
L 346.017851 57.657987 
L 349.29719 60.666703 
L 352.576529 56.952813 
L 355.855868 57.18788 
L 359.135207 56.435687 
L 362.414545 55.119377 
L 365.693884 56.294658 
L 368.973223 56.247639 
L 372.252562 57.234871 
L 375.531901 56.670754 
L 378.81124 55.495474 
L 382.090579 54.88431 
L 385.369917 55.871542 
L 388.649256 54.273174 
L 391.928595 54.132145 
L 395.207934 56.388668 
L 398.487273 53.568 
" style="fill:none;stroke:#1f77b4;stroke-linecap:square;stroke-width:1.5;"/>
   </g>
   <g id="line2d_26">
    <path clip-path="url(#p4a93ec88de)" d="M 73.832727 295.488 
L 77.112066 283.688171 
L 80.391405 285.192533 
L 83.670744 276.401427 
L 86.950083 273.15765 
L 90.229421 233.856228 
L 93.50876 207.059798 
L 96.788099 192.721363 
L 100.067438 187.597139 
L 103.346777 175.04512 
L 106.626116 168.040442 
L 109.905455 159.672434 
L 113.184793 154.830282 
L 116.464132 153.278905 
L 119.743471 145.710095 
L 123.02281 145.7571 
L 126.302149 145.475042 
L 129.581488 139.128518 
L 132.860826 142.372288 
L 136.140165 140.25678 
L 139.419504 134.521406 
L 142.698843 132.828999 
L 145.978182 130.948559 
L 149.257521 131.935791 
L 152.53686 130.431433 
L 155.816198 128.503973 
L 159.095537 128.127877 
L 162.374876 127.234668 
L 165.654215 127.140644 
L 168.933554 128.456954 
L 172.212893 129.632235 
L 175.492231 124.837088 
L 178.77157 128.080872 
L 182.050909 125.025136 
L 185.330248 125.354214 
L 188.609587 124.131914 
L 191.888926 124.03789 
L 195.168264 127.093625 
L 198.447603 123.191687 
L 201.726942 121.969401 
L 205.006281 123.191687 
L 208.28562 121.123198 
L 211.564959 123.755832 
L 214.844298 119.994922 
L 218.123636 123.802837 
L 221.402975 120.653091 
L 224.682314 119.383786 
L 227.961653 120.79412 
L 231.240992 123.050658 
L 234.520331 121.123198 
L 237.799669 121.922396 
L 241.079008 120.79412 
L 244.358347 121.029174 
L 247.637686 121.123198 
L 250.917025 123.426754 
L 254.196364 121.499294 
L 257.475702 122.862609 
L 260.755041 123.520778 
L 264.03438 122.674575 
L 267.313719 123.191687 
L 270.593058 123.285711 
L 273.872397 120.888144 
L 277.151736 122.486527 
L 280.431074 121.264227 
L 283.710413 120.512048 
L 286.989752 121.358251 
L 290.269091 121.40527 
L 293.54843 122.063425 
L 296.827769 123.426754 
L 300.107107 122.204454 
L 303.386446 121.170203 
L 306.665785 124.03789 
L 309.945124 122.016406 
L 313.224463 120.700096 
L 316.503802 121.123198 
L 319.78314 119.806888 
L 323.062479 122.016406 
L 326.341818 121.076193 
L 329.621157 119.148719 
L 332.900496 123.520778 
L 336.179835 121.123198 
L 339.459174 122.72158 
L 342.738512 119.665845 
L 346.017851 121.969401 
L 349.29719 120.653091 
L 352.576529 120.841125 
L 355.855868 120.700096 
L 359.135207 119.101714 
L 362.414545 118.631593 
L 365.693884 118.067463 
L 368.973223 120.371019 
L 372.252562 120.371019 
L 375.531901 118.302516 
L 378.81124 119.477796 
L 382.090579 118.866661 
L 385.369917 117.879414 
L 388.649256 120.653091 
L 391.928595 120.324 
L 395.207934 117.832409 
L 398.487273 115.669896 
" style="fill:none;stroke:#ff7f0e;stroke-linecap:square;stroke-width:1.5;"/>
   </g>
   <g id="line2d_27">
    <path clip-path="url(#p4a93ec88de)" d="M 73.832727 279.410143 
L 77.112066 274.191895 
L 80.391405 261.592878 
L 83.670744 231.928761 
L 86.950083 207.953021 
L 90.229421 191.217005 
L 93.50876 180.310388 
L 96.788099 176.549493 
L 100.067438 160.612661 
L 103.346777 151.539493 
L 106.626116 143.312515 
L 109.905455 136.965991 
L 113.184793 134.709454 
L 116.464132 126.670524 
L 119.743471 124.555016 
L 123.02281 121.170203 
L 126.302149 123.473759 
L 129.581488 119.054695 
L 132.860826 115.15277 
L 136.140165 114.823693 
L 139.419504 114.447596 
L 142.698843 111.579909 
L 145.978182 109.934508 
L 149.257521 107.771995 
L 152.53686 107.536942 
L 155.816198 105.89154 
L 159.095537 102.08364 
L 162.374876 102.835805 
L 165.654215 103.729027 
L 168.933554 100.109147 
L 172.212893 101.754563 
L 175.492231 100.908359 
L 178.77157 98.604789 
L 182.050909 102.929843 
L 185.330248 99.404001 
L 188.609587 97.100431 
L 191.888926 99.592022 
L 195.168264 101.096408 
L 198.447603 96.912383 
L 201.726942 99.309963 
L 205.006281 97.993653 
L 208.28562 97.006421 
L 211.564959 97.05344 
L 214.844298 95.549054 
L 218.123636 99.356982 
L 221.402975 96.207237 
L 224.682314 96.865392 
L 227.961653 97.194469 
L 231.240992 99.545031 
L 234.520331 99.168934 
L 237.799669 98.839857 
L 241.079008 99.592022 
L 244.358347 100.250205 
L 247.637686 101.566514 
L 250.917025 100.156166 
L 254.196364 103.164883 
L 257.475702 102.976834 
L 260.755041 102.976834 
L 264.03438 105.79753 
L 267.313719 112.849214 
L 270.593058 105.139375 
L 273.872397 108.195097 
L 277.151736 109.699455 
L 280.431074 103.917076 
L 283.710413 106.455685 
L 286.989752 110.498653 
L 290.269091 109.981527 
L 293.54843 112.708185 
L 296.827769 114.588626 
L 300.107107 114.823693 
L 303.386446 111.485885 
L 306.665785 111.956006 
L 309.945124 113.413345 
L 313.224463 115.716901 
L 316.503802 113.836447 
L 319.78314 114.917703 
L 323.062479 112.473118 
L 326.341818 116.375056 
L 329.621157 114.212543 
L 332.900496 112.332088 
L 336.179835 113.507369 
L 339.459174 112.285083 
L 342.738512 111.062784 
L 346.017851 112.238064 
L 349.29719 112.520137 
L 352.576529 111.391861 
L 355.855868 115.2938 
L 359.135207 112.990243 
L 362.414545 111.626914 
L 365.693884 110.451634 
L 368.973223 112.426113 
L 372.252562 114.024495 
L 375.531901 111.673934 
L 378.81124 113.178292 
L 382.090579 109.370377 
L 385.369917 113.789442 
L 388.649256 113.037262 
L 391.928595 110.733706 
L 395.207934 110.733706 
L 398.487273 111.673934 
" style="fill:none;stroke:#2ca02c;stroke-linecap:square;stroke-width:1.5;"/>
   </g>
   <g id="line2d_28">
    <path clip-path="url(#p4a93ec88de)" d="M 73.832727 279.880257 
L 77.112066 258.772196 
L 80.391405 247.019382 
L 83.670744 227.791769 
L 86.950083 206.87175 
L 90.229421 188.631377 
L 93.50876 179.887286 
L 96.788099 169.779867 
L 100.067438 156.381645 
L 103.346777 146.274226 
L 106.626116 136.542889 
L 109.905455 135.132555 
L 113.184793 128.786032 
L 116.464132 126.952596 
L 119.743471 124.555016 
L 123.02281 120.559067 
L 126.302149 116.516099 
L 129.581488 114.917703 
L 132.860826 116.045979 
L 136.140165 110.169575 
L 139.419504 109.699455 
L 142.698843 106.079589 
L 145.978182 103.023853 
L 149.257521 105.374415 
L 152.53686 102.08364 
L 155.816198 100.203185 
L 159.095537 102.224669 
L 162.374876 100.250205 
L 165.654215 100.015137 
L 168.933554 99.827089 
L 172.212893 96.301247 
L 175.492231 97.24146 
L 178.77157 96.395257 
L 182.050909 96.254228 
L 185.330248 97.523547 
L 188.609587 93.715618 
L 191.888926 93.43356 
L 195.168264 94.65586 
L 198.447603 92.540338 
L 201.726942 92.775405 
L 205.006281 91.929202 
L 208.28562 91.412076 
L 211.564959 90.753921 
L 214.844298 90.847931 
L 218.123636 93.292531 
L 221.402975 90.753921 
L 224.682314 90.612892 
L 227.961653 90.706902 
L 231.240992 89.766689 
L 234.520331 87.463119 
L 237.799669 88.732437 
L 241.079008 87.745205 
L 244.358347 89.484602 
L 247.637686 86.993012 
L 250.917025 89.202544 
L 254.196364 91.506086 
L 257.475702 90.565873 
L 260.755041 93.762637 
L 264.03438 93.43356 
L 267.313719 91.177009 
L 270.593058 92.305298 
L 273.872397 92.634376 
L 277.151736 93.151502 
L 280.431074 93.43356 
L 283.710413 92.634376 
L 286.989752 95.502063 
L 290.269091 103.682008 
L 293.54843 97.100431 
L 296.827769 96.395257 
L 300.107107 98.040672 
L 303.386446 100.203185 
L 306.665785 102.412718 
L 309.945124 101.801554 
L 313.224463 100.814321 
L 316.503802 102.224669 
L 319.78314 101.425485 
L 323.062479 104.199134 
L 326.341818 103.117892 
L 329.621157 106.267637 
L 332.900496 105.092356 
L 336.179835 103.964095 
L 339.459174 104.998318 
L 342.738512 105.186366 
L 346.017851 106.079589 
L 349.29719 105.139375 
L 352.576529 110.733706 
L 355.855868 107.489923 
L 359.135207 108.900271 
L 362.414545 109.276353 
L 365.693884 107.20785 
L 368.973223 113.037262 
L 372.252562 107.254869 
L 375.531901 110.35761 
L 378.81124 105.186366 
L 382.090579 105.092356 
L 385.369917 108.618198 
L 388.649256 102.036621 
L 391.928595 106.784763 
L 395.207934 106.690725 
L 398.487273 105.045337 
" style="fill:none;stroke:#d62728;stroke-linecap:square;stroke-width:1.5;"/>
   </g>
   <g id="line2d_29">
    <path clip-path="url(#p4a93ec88de)" d="M 73.832727 266.90515 
L 77.112066 252.378667 
L 80.391405 261.216781 
L 83.670744 225.582244 
L 86.950083 203.957058 
L 90.229421 186.656912 
L 93.50876 172.083409 
L 96.788099 159.202327 
L 100.067438 151.257421 
L 103.346777 144.064694 
L 106.626116 139.316552 
L 109.905455 134.051299 
L 113.184793 128.174882 
L 116.464132 125.636286 
L 119.743471 119.994922 
L 123.02281 117.738385 
L 126.302149 114.353572 
L 129.581488 112.473118 
L 132.860826 110.028532 
L 136.140165 110.592677 
L 139.419504 105.515444 
L 142.698843 105.233386 
L 145.978182 105.374415 
L 149.257521 106.126608 
L 152.53686 100.015137 
L 155.816198 97.335498 
L 159.095537 97.24146 
L 162.374876 95.078947 
L 165.654215 94.608841 
L 168.933554 96.395257 
L 172.212893 96.254228 
L 175.492231 92.634376 
L 178.77157 90.189776 
L 182.050909 93.668627 
L 185.330248 91.412076 
L 188.609587 91.929202 
L 191.888926 89.202544 
L 195.168264 86.804964 
L 198.447603 88.779456 
L 201.726942 85.676702 
L 205.006281 87.369108 
L 208.28562 86.945993 
L 211.564959 86.146809 
L 214.844298 87.557157 
L 218.123636 85.911769 
L 221.402975 86.569924 
L 224.682314 83.890258 
L 227.961653 83.890258 
L 231.240992 84.407383 
L 234.520331 81.06959 
L 237.799669 82.667986 
L 241.079008 81.210619 
L 244.358347 79.988347 
L 247.637686 82.526957 
L 250.917025 82.714977 
L 254.196364 82.15086 
L 257.475702 85.112557 
L 260.755041 83.655218 
L 264.03438 80.082357 
L 267.313719 80.035338 
L 270.593058 82.15086 
L 273.872397 81.210619 
L 277.151736 83.655218 
L 280.431074 81.163628 
L 283.710413 83.044054 
L 286.989752 83.608199 
L 290.269091 81.445686 
L 293.54843 80.975579 
L 296.827769 80.646502 
L 300.107107 85.253586 
L 303.386446 84.172344 
L 306.665785 80.317425 
L 309.945124 85.817731 
L 313.224463 84.830499 
L 316.503802 87.416128 
L 319.78314 85.159576 
L 323.062479 85.817731 
L 326.341818 87.416128 
L 329.621157 83.326141 
L 332.900496 84.924509 
L 336.179835 85.159576 
L 339.459174 86.193828 
L 342.738512 88.591408 
L 346.017851 88.920486 
L 349.29719 93.480579 
L 352.576529 92.822424 
L 355.855868 95.737102 
L 359.135207 91.835164 
L 362.414545 94.044696 
L 365.693884 94.373773 
L 368.973223 94.091715 
L 372.252562 96.019189 
L 375.531901 97.664576 
L 378.81124 97.382517 
L 382.090579 105.938559 
L 385.369917 100.579282 
L 388.649256 101.660524 
L 391.928595 102.647757 
L 395.207934 106.596714 
L 398.487273 105.562463 
" style="fill:none;stroke:#9467bd;stroke-linecap:square;stroke-width:1.5;"/>
   </g>
   <g id="line2d_30">
    <path clip-path="url(#p4a93ec88de)" d="M 73.832727 277.01257 
L 77.112066 261.40483 
L 80.391405 253.741989 
L 83.670744 224.124891 
L 86.950083 205.414411 
L 90.229421 191.87516 
L 93.50876 177.254653 
L 96.788099 166.630108 
L 100.067438 154.078103 
L 103.346777 145.428023 
L 106.626116 139.739654 
L 109.905455 134.239347 
L 113.184793 129.209133 
L 116.464132 123.94388 
L 119.743471 122.956633 
L 123.02281 118.020457 
L 126.302149 115.810925 
L 129.581488 112.332088 
L 132.860826 107.72499 
L 136.140165 107.630966 
L 139.419504 106.03257 
L 142.698843 105.092356 
L 145.978182 102.835805 
L 149.257521 101.942611 
L 152.53686 100.391234 
L 155.816198 98.698827 
L 159.095537 96.771354 
L 162.374876 94.937918 
L 165.654215 93.856648 
L 168.933554 93.621608 
L 172.212893 91.365057 
L 175.492231 89.061515 
L 178.77157 92.305298 
L 182.050909 90.753921 
L 185.330248 90.706902 
L 188.609587 88.49737 
L 191.888926 88.873467 
L 195.168264 87.792196 
L 198.447603 84.501421 
L 201.726942 84.78348 
L 205.006281 85.300606 
L 208.28562 85.95876 
L 211.564959 82.620967 
L 214.844298 79.84729 
L 218.123636 80.599483 
L 221.402975 80.552464 
L 224.682314 81.210619 
L 227.961653 78.907077 
L 231.240992 79.894309 
L 234.520331 78.013854 
L 237.799669 77.684777 
L 241.079008 78.577999 
L 244.358347 81.586715 
L 247.637686 79.330164 
L 250.917025 79.236154 
L 254.196364 73.641809 
L 257.475702 73.876877 
L 260.755041 73.829857 
L 264.03438 73.735847 
L 267.313719 76.180419 
L 270.593058 71.432277 
L 273.872397 74.440993 
L 277.151736 72.560567 
L 280.431074 76.415486 
L 283.710413 73.688828 
L 286.989752 73.218722 
L 290.269091 72.701596 
L 293.54843 72.607558 
L 296.827769 70.445045 
L 300.107107 70.068948 
L 303.386446 68.846676 
L 306.665785 70.774122 
L 309.945124 69.598841 
L 313.224463 68.799657 
L 316.503802 70.774122 
L 319.78314 70.256996 
L 323.062479 68.658628 
L 326.341818 69.081716 
L 329.621157 67.765406 
L 332.900496 73.50078 
L 336.179835 70.021957 
L 339.459174 68.658628 
L 342.738512 69.034697 
L 346.017851 67.483348 
L 349.29719 66.16701 
L 352.576529 67.013213 
L 355.855868 70.256996 
L 359.135207 66.919203 
L 362.414545 67.812425 
L 365.693884 67.577358 
L 368.973223 67.953454 
L 372.252562 70.021957 
L 375.531901 63.44038 
L 378.81124 68.893668 
L 382.090579 65.179777 
L 385.369917 65.508855 
L 388.649256 65.978989 
L 391.928595 64.239564 
L 395.207934 67.530339 
L 398.487273 64.145526 
" style="fill:none;stroke:#8c564b;stroke-linecap:square;stroke-width:1.5;"/>
   </g>
   <g id="line2d_31">
    <path clip-path="url(#p4a93ec88de)" d="M 73.832727 295.488 
L 77.112066 254.447163 
L 80.391405 246.549269 
L 83.670744 220.175948 
L 86.950083 204.94429 
L 90.229421 192.768368 
L 93.50876 177.630749 
L 96.788099 164.937701 
L 100.067438 155.394413 
L 103.346777 146.650323 
L 106.626116 138.470363 
L 109.905455 133.722221 
L 113.184793 128.97408 
L 116.464132 124.508011 
L 119.743471 121.311246 
L 123.02281 117.456313 
L 126.302149 112.238064 
L 129.581488 110.733706 
L 132.860826 109.182329 
L 136.140165 106.314656 
L 139.419504 106.173627 
L 142.698843 103.164883 
L 145.978182 103.729027 
L 149.257521 98.322731 
L 152.53686 101.096408 
L 155.816198 96.536314 
L 159.095537 95.502063 
L 162.374876 93.386541 
L 165.654215 93.903667 
L 168.933554 92.728386 
L 172.212893 93.43356 
L 175.492231 91.929202 
L 178.77157 88.544389 
L 182.050909 88.40336 
L 185.330248 87.040031 
L 188.609587 86.475886 
L 191.888926 85.817731 
L 195.168264 84.078306 
L 198.447603 85.206595 
L 201.726942 84.877518 
L 205.006281 84.454402 
L 208.28562 82.809015 
L 211.564959 82.432919 
L 214.844298 81.680753 
L 218.123636 79.894309 
L 221.402975 81.304657 
L 224.682314 80.787531 
L 227.961653 78.907077 
L 231.240992 78.295941 
L 234.520331 76.321448 
L 237.799669 78.013854 
L 241.079008 77.261689 
L 244.358347 76.415486 
L 247.637686 78.907077 
L 250.917025 75.569283 
L 254.196364 74.958119 
L 257.475702 76.650525 
L 260.755041 77.778815 
L 264.03438 76.274457 
L 267.313719 76.744564 
L 270.593058 75.381235 
L 273.872397 73.641809 
L 277.151736 70.492064 
L 280.431074 74.864109 
L 283.710413 73.077692 
L 286.989752 71.479296 
L 290.269091 73.312732 
L 293.54843 71.009189 
L 296.827769 69.739871 
L 300.107107 70.821141 
L 303.386446 69.598841 
L 306.665785 70.680112 
L 309.945124 69.598841 
L 313.224463 69.128735 
L 316.503802 70.115967 
L 319.78314 71.338267 
L 323.062479 67.060232 
L 326.341818 68.000473 
L 329.621157 69.69288 
L 332.900496 67.201261 
L 336.179835 70.492064 
L 339.459174 68.799657 
L 342.738512 67.577358 
L 346.017851 66.590125 
L 349.29719 66.214029 
L 352.576529 65.555874 
L 355.855868 65.837932 
L 359.135207 65.320806 
L 362.414545 64.521622 
L 365.693884 66.684135 
L 368.973223 68.799657 
L 372.252562 65.179777 
L 375.531901 65.696903 
L 378.81124 64.662652 
L 382.090579 63.6284 
L 385.369917 61.13681 
L 388.649256 62.500139 
L 391.928595 64.615661 
L 395.207934 63.111302 
L 398.487273 63.722438 
" style="fill:none;stroke:#e377c2;stroke-linecap:square;stroke-width:1.5;"/>
   </g>
   <g id="line2d_32">
    <path clip-path="url(#p4a93ec88de)" d="M 73.832727 284.628398 
L 77.112066 244.104683 
L 80.391405 249.369944 
L 83.670744 231.646696 
L 86.950083 210.58564 
L 90.229421 192.580334 
L 93.50876 181.767741 
L 96.788099 167.241258 
L 100.067438 154.830282 
L 103.346777 148.107662 
L 106.626116 136.495884 
L 109.905455 133.205096 
L 113.184793 126.764548 
L 116.464132 123.191687 
L 119.743471 123.473759 
L 123.02281 116.422075 
L 126.302149 114.68265 
L 129.581488 110.169575 
L 132.860826 106.925792 
L 136.140165 108.571193 
L 139.419504 105.938559 
L 142.698843 106.267637 
L 145.978182 102.600766 
L 149.257521 98.510779 
L 152.53686 99.404001 
L 155.816198 97.429509 
L 159.095537 98.36975 
L 162.374876 92.681367 
L 165.654215 95.408025 
L 168.933554 90.471863 
L 172.212893 92.258279 
L 175.492231 89.531621 
L 178.77157 89.531621 
L 182.050909 88.967477 
L 185.330248 90.377825 
L 188.609587 86.428867 
L 191.888926 89.531621 
L 195.168264 86.757945 
L 198.447603 86.00578 
L 201.726942 85.582664 
L 205.006281 82.809015 
L 208.28562 83.937277 
L 211.564959 82.009831 
L 214.844298 81.774764 
L 218.123636 82.056822 
L 221.402975 78.389951 
L 224.682314 80.035338 
L 227.961653 78.43697 
L 231.240992 80.364416 
L 234.520331 77.637786 
L 237.799669 78.389951 
L 241.079008 76.556515 
L 244.358347 75.99237 
L 247.637686 71.902384 
L 250.917025 72.983654 
L 254.196364 74.770071 
L 257.475702 73.688828 
L 260.755041 74.911128 
L 264.03438 73.124683 
L 267.313719 73.50078 
L 270.593058 72.560567 
L 273.872397 69.645861 
L 277.151736 71.009189 
L 280.431074 72.936635 
L 283.710413 74.346983 
L 286.989752 68.752638 
L 290.269091 69.128735 
L 293.54843 70.115967 
L 296.827769 68.376542 
L 300.107107 70.398026 
L 303.386446 70.115967 
L 306.665785 66.261048 
L 309.945124 64.474603 
L 313.224463 69.457812 
L 316.503802 67.671396 
L 319.78314 68.517599 
L 323.062479 64.709671 
L 326.341818 70.304015 
L 329.621157 67.201261 
L 332.900496 65.273815 
L 336.179835 63.581409 
L 339.459174 62.171061 
L 342.738512 60.90177 
L 346.017851 62.641168 
L 349.29719 65.320806 
L 352.576529 64.286583 
L 355.855868 62.547158 
L 359.135207 66.355058 
L 362.414545 64.192545 
L 365.693884 63.816448 
L 368.973223 61.465887 
L 372.252562 65.978989 
L 375.531901 61.889003 
L 378.81124 62.265099 
L 382.090579 59.538441 
L 385.369917 60.713722 
L 388.649256 62.688187 
L 391.928595 61.418896 
L 395.207934 59.350393 
L 398.487273 62.265099 
" style="fill:none;stroke:#7f7f7f;stroke-linecap:square;stroke-width:1.5;"/>
   </g>
   <g id="line2d_33">
    <path clip-path="url(#p4a93ec88de)" d="M 73.832727 273.204655 
L 77.112066 258.302082 
L 80.391405 246.032143 
L 83.670744 223.184664 
L 86.950083 199.44397 
L 90.229421 183.883249 
L 93.50876 171.660308 
L 96.788099 160.847715 
L 100.067438 153.890055 
L 103.346777 140.961954 
L 106.626116 135.132555 
L 109.905455 129.632235 
L 113.184793 126.811567 
L 116.464132 124.978117 
L 119.743471 118.255511 
L 123.02281 117.174254 
L 126.302149 115.85793 
L 129.581488 111.720939 
L 132.860826 109.0413 
L 136.140165 106.408666 
L 139.419504 105.374415 
L 142.698843 104.48122 
L 145.978182 104.246153 
L 149.257521 102.271688 
L 152.53686 100.814321 
L 155.816198 99.404001 
L 159.095537 97.946634 
L 162.374876 96.865392 
L 165.654215 96.818373 
L 168.933554 96.113199 
L 172.212893 93.245512 
L 175.492231 91.882183 
L 178.77157 92.869415 
L 182.050909 91.882183 
L 185.330248 91.318038 
L 188.609587 89.296554 
L 191.888926 85.629683 
L 195.168264 90.001728 
L 198.447603 87.369108 
L 201.726942 85.86475 
L 205.006281 83.420151 
L 208.28562 83.37316 
L 211.564959 83.46717 
L 214.844298 83.185112 
L 218.123636 81.868774 
L 221.402975 80.975579 
L 224.682314 79.518212 
L 227.961653 78.201903 
L 231.240992 79.283173 
L 234.520331 78.389951 
L 237.799669 79.471221 
L 241.079008 78.719028 
L 244.358347 76.274457 
L 247.637686 76.603534 
L 250.917025 77.261689 
L 254.196364 76.1334 
L 257.475702 76.415486 
L 260.755041 74.58205 
L 264.03438 71.996422 
L 267.313719 73.970887 
L 270.593058 73.077692 
L 273.872397 73.124683 
L 277.151736 76.321448 
L 280.431074 73.218722 
L 283.710413 72.043441 
L 286.989752 74.676061 
L 290.269091 70.539083 
L 293.54843 69.175754 
L 296.827769 71.150219 
L 300.107107 73.59479 
L 303.386446 69.457812 
L 306.665785 70.915151 
L 309.945124 69.316783 
L 313.224463 69.457812 
L 316.503802 70.727103 
L 319.78314 68.094483 
L 323.062479 66.16701 
L 326.341818 64.944738 
L 329.621157 66.637144 
L 332.900496 66.966222 
L 336.179835 67.906435 
L 339.459174 65.696903 
L 342.738512 67.295299 
L 346.017851 63.722438 
L 349.29719 65.790941 
L 352.576529 65.602893 
L 355.855868 66.449096 
L 359.135207 65.837932 
L 362.414545 64.286583 
L 365.693884 65.508855 
L 368.973223 63.910487 
L 372.252562 61.653935 
L 375.531901 62.923254 
L 378.81124 64.991729 
L 382.090579 62.876235 
L 385.369917 65.367826 
L 388.649256 66.496087 
L 391.928595 64.239564 
L 395.207934 61.512906 
L 398.487273 62.782197 
" style="fill:none;stroke:#bcbd22;stroke-linecap:square;stroke-width:1.5;"/>
   </g>
   <g id="patch_3">
    <path d="M 57.6 307.584 
L 57.6 41.472 
" style="fill:none;stroke:#000000;stroke-linecap:square;stroke-linejoin:miter;stroke-width:0.8;"/>
   </g>
   <g id="patch_4">
    <path d="M 414.72 307.584 
L 414.72 41.472 
" style="fill:none;stroke:#000000;stroke-linecap:square;stroke-linejoin:miter;stroke-width:0.8;"/>
   </g>
   <g id="patch_5">
    <path d="M 57.6 307.584 
L 414.72 307.584 
" style="fill:none;stroke:#000000;stroke-linecap:square;stroke-linejoin:miter;stroke-width:0.8;"/>
   </g>
   <g id="patch_6">
    <path d="M 57.6 41.472 
L 414.72 41.472 
" style="fill:none;stroke:#000000;stroke-linecap:square;stroke-linejoin:miter;stroke-width:0.8;"/>
   </g>
   <g id="legend_1">
    <g id="patch_7">
     <path d="M 134.3325 299.584 
L 337.9875 299.584 
Q 341.1875 299.584 341.1875 296.384 
L 341.1875 180.559 
Q 341.1875 177.359 337.9875 177.359 
L 134.3325 177.359 
Q 131.1325 177.359 131.1325 180.559 
L 131.1325 296.384 
Q 131.1325 299.584 134.3325 299.584 
z
" style="fill:#ffffff;opacity:0.8;stroke:#cccccc;stroke-linejoin:miter;"/>
    </g>
    <g id="line2d_34">
     <path d="M 137.5325 190.3165 
L 169.5325 190.3165 
" style="fill:none;stroke:#1f77b4;stroke-linecap:square;stroke-width:1.5;"/>
    </g>
    <g id="line2d_35"/>
    <g id="text_15">
     <!-- SET* -->
     <defs>
      <path d="M 59.90625 70.609375 
L 59.90625 55.171875 
Q 53.90625 57.859375 48.1875 59.21875 
Q 42.484375 60.59375 37.40625 60.59375 
Q 30.671875 60.59375 27.4375 58.734375 
Q 24.21875 56.890625 24.21875 52.984375 
Q 24.21875 50.046875 26.390625 48.40625 
Q 28.5625 46.78125 34.28125 45.609375 
L 42.28125 44 
Q 54.4375 41.546875 59.5625 36.5625 
Q 64.703125 31.59375 64.703125 22.40625 
Q 64.703125 10.359375 57.546875 4.46875 
Q 50.390625 -1.421875 35.6875 -1.421875 
Q 28.765625 -1.421875 21.78125 -0.09375 
Q 14.796875 1.21875 7.8125 3.8125 
L 7.8125 19.671875 
Q 14.796875 15.96875 21.3125 14.078125 
Q 27.828125 12.203125 33.890625 12.203125 
Q 40.046875 12.203125 43.3125 14.25 
Q 46.578125 16.3125 46.578125 20.125 
Q 46.578125 23.53125 44.359375 25.390625 
Q 42.140625 27.25 35.5 28.71875 
L 28.21875 30.328125 
Q 17.28125 32.671875 12.21875 37.796875 
Q 7.171875 42.921875 7.171875 51.609375 
Q 7.171875 62.5 14.203125 68.359375 
Q 21.234375 74.21875 34.421875 74.21875 
Q 40.4375 74.21875 46.78125 73.3125 
Q 53.125 72.40625 59.90625 70.609375 
z
" id="DejaVuSans-Bold-83"/>
      <path d="M 9.1875 72.90625 
L 59.90625 72.90625 
L 59.90625 58.6875 
L 27.984375 58.6875 
L 27.984375 45.125 
L 58.015625 45.125 
L 58.015625 30.90625 
L 27.984375 30.90625 
L 27.984375 14.203125 
L 60.984375 14.203125 
L 60.984375 0 
L 9.1875 0 
z
" id="DejaVuSans-Bold-69"/>
      <path d="M 0.484375 72.90625 
L 67.671875 72.90625 
L 67.671875 58.6875 
L 43.5 58.6875 
L 43.5 0 
L 24.703125 0 
L 24.703125 58.6875 
L 0.484375 58.6875 
z
" id="DejaVuSans-Bold-84"/>
      <path d="M 50.296875 59.421875 
L 34.1875 50.984375 
L 50.296875 42.484375 
L 46.578125 35.59375 
L 30.328125 44.578125 
L 30.328125 27.78125 
L 22.015625 27.78125 
L 22.015625 44.578125 
L 5.71875 35.59375 
L 2 42.484375 
L 18.3125 50.984375 
L 2 59.421875 
L 5.71875 66.3125 
L 22.015625 57.421875 
L 22.015625 74.21875 
L 30.328125 74.21875 
L 30.328125 57.421875 
L 46.578125 66.3125 
z
" id="DejaVuSans-Bold-42"/>
     </defs>
     <g transform="translate(182.3325 195.9165)scale(0.16 -0.16)">
      <use xlink:href="#DejaVuSans-Bold-83"/>
      <use x="72.021484" xlink:href="#DejaVuSans-Bold-69"/>
      <use x="140.332031" xlink:href="#DejaVuSans-Bold-84"/>
      <use x="208.544922" xlink:href="#DejaVuSans-Bold-42"/>
     </g>
    </g>
    <g id="line2d_36">
     <path d="M 137.5325 213.8015 
L 169.5325 213.8015 
" style="fill:none;stroke:#ff7f0e;stroke-linecap:square;stroke-width:1.5;"/>
    </g>
    <g id="line2d_37"/>
    <g id="text_16">
     <!--  $ 0.5$ -->
     <defs>
      <path id="DejaVuSans-Bold-32"/>
      <path d="M 10.203125 18.890625 
L 27.78125 18.890625 
L 27.78125 0 
L 10.203125 0 
z
" id="DejaVuSans-Bold-46"/>
     </defs>
     <g transform="translate(182.3325 219.4015)scale(0.16 -0.16)">
      <use transform="translate(0 0.78125)" xlink:href="#DejaVuSans-Bold-32"/>
      <use transform="translate(34.814453 0.78125)" xlink:href="#DejaVuSans-Bold-48"/>
      <use transform="translate(104.394531 0.78125)" xlink:href="#DejaVuSans-Bold-46"/>
      <use transform="translate(142.382812 0.78125)" xlink:href="#DejaVuSans-Bold-53"/>
     </g>
    </g>
    <g id="line2d_38">
     <path d="M 137.5325 237.2865 
L 169.5325 237.2865 
" style="fill:none;stroke:#2ca02c;stroke-linecap:square;stroke-width:1.5;"/>
    </g>
    <g id="line2d_39"/>
    <g id="text_17">
     <!--  $1 $ -->
     <g transform="translate(182.3325 242.8865)scale(0.16 -0.16)">
      <use transform="translate(0 0.09375)" xlink:href="#DejaVuSans-Bold-32"/>
      <use transform="translate(34.814453 0.09375)" xlink:href="#DejaVuSans-Bold-49"/>
     </g>
    </g>
    <g id="line2d_40">
     <path d="M 137.5325 260.7715 
L 169.5325 260.7715 
" style="fill:none;stroke:#d62728;stroke-linecap:square;stroke-width:1.5;"/>
    </g>
    <g id="line2d_41"/>
    <g id="text_18">
     <!--  $ 1.5$ -->
     <g transform="translate(182.3325 266.3715)scale(0.16 -0.16)">
      <use transform="translate(0 0.09375)" xlink:href="#DejaVuSans-Bold-32"/>
      <use transform="translate(34.814453 0.09375)" xlink:href="#DejaVuSans-Bold-49"/>
      <use transform="translate(104.394531 0.09375)" xlink:href="#DejaVuSans-Bold-46"/>
      <use transform="translate(142.382812 0.09375)" xlink:href="#DejaVuSans-Bold-53"/>
     </g>
    </g>
    <g id="line2d_42">
     <path d="M 137.5325 284.2565 
L 169.5325 284.2565 
" style="fill:none;stroke:#9467bd;stroke-linecap:square;stroke-width:1.5;"/>
    </g>
    <g id="line2d_43"/>
    <g id="text_19">
     <!--  $ 2$ -->
     <g transform="translate(182.3325 289.8565)scale(0.16 -0.16)">
      <use transform="translate(0 0.78125)" xlink:href="#DejaVuSans-Bold-32"/>
      <use transform="translate(34.814453 0.78125)" xlink:href="#DejaVuSans-Bold-50"/>
     </g>
    </g>
    <g id="line2d_44">
     <path d="M 256.0675 190.3165 
L 288.0675 190.3165 
" style="fill:none;stroke:#8c564b;stroke-linecap:square;stroke-width:1.5;"/>
    </g>
    <g id="line2d_45"/>
    <g id="text_20">
     <!--  $ 2.5$ -->
     <g transform="translate(300.8675 195.9165)scale(0.16 -0.16)">
      <use transform="translate(0 0.78125)" xlink:href="#DejaVuSans-Bold-32"/>
      <use transform="translate(34.814453 0.78125)" xlink:href="#DejaVuSans-Bold-50"/>
      <use transform="translate(104.394531 0.78125)" xlink:href="#DejaVuSans-Bold-46"/>
      <use transform="translate(142.382812 0.78125)" xlink:href="#DejaVuSans-Bold-53"/>
     </g>
    </g>
    <g id="line2d_46">
     <path d="M 256.0675 213.8015 
L 288.0675 213.8015 
" style="fill:none;stroke:#e377c2;stroke-linecap:square;stroke-width:1.5;"/>
    </g>
    <g id="line2d_47"/>
    <g id="text_21">
     <!--  $ 3$ -->
     <g transform="translate(300.8675 219.4015)scale(0.16 -0.16)">
      <use transform="translate(0 0.78125)" xlink:href="#DejaVuSans-Bold-32"/>
      <use transform="translate(34.814453 0.78125)" xlink:href="#DejaVuSans-Bold-51"/>
     </g>
    </g>
    <g id="line2d_48">
     <path d="M 256.0675 237.2865 
L 288.0675 237.2865 
" style="fill:none;stroke:#7f7f7f;stroke-linecap:square;stroke-width:1.5;"/>
    </g>
    <g id="line2d_49"/>
    <g id="text_22">
     <!--  $ 3.5$ -->
     <g transform="translate(300.8675 242.8865)scale(0.16 -0.16)">
      <use transform="translate(0 0.78125)" xlink:href="#DejaVuSans-Bold-32"/>
      <use transform="translate(34.814453 0.78125)" xlink:href="#DejaVuSans-Bold-51"/>
      <use transform="translate(104.394531 0.78125)" xlink:href="#DejaVuSans-Bold-46"/>
      <use transform="translate(142.382812 0.78125)" xlink:href="#DejaVuSans-Bold-53"/>
     </g>
    </g>
    <g id="line2d_50">
     <path d="M 256.0675 260.7715 
L 288.0675 260.7715 
" style="fill:none;stroke:#bcbd22;stroke-linecap:square;stroke-width:1.5;"/>
    </g>
    <g id="line2d_51"/>
    <g id="text_23">
     <!--  $ 4$ -->
     <g transform="translate(300.8675 266.3715)scale(0.16 -0.16)">
      <use transform="translate(0 0.09375)" xlink:href="#DejaVuSans-Bold-32"/>
      <use transform="translate(34.814453 0.09375)" xlink:href="#DejaVuSans-Bold-52"/>
     </g>
    </g>
   </g>
  </g>
 </g>
 <defs>
  <clipPath id="p4a93ec88de">
   <rect height="266.112" width="357.12" x="57.6" y="41.472"/>
  </clipPath>
 </defs>
</svg>
