<?xml version="1.0" encoding="utf-8" standalone="no"?>
<!DOCTYPE svg PUBLIC "-//W3C//DTD SVG 1.1//EN"
  "http://www.w3.org/Graphics/SVG/1.1/DTD/svg11.dtd">
<!-- Created with matplotlib (https://matplotlib.org/) -->
<svg height="345.6pt" version="1.1" viewBox="0 0 460.8 345.6" width="460.8pt" xmlns="http://www.w3.org/2000/svg" xmlns:xlink="http://www.w3.org/1999/xlink">
 <defs>
  <style type="text/css">
*{stroke-linecap:butt;stroke-linejoin:round;}
  </style>
 </defs>
 <g id="figure_1">
  <g id="patch_1">
   <path d="M 0 345.6 
L 460.8 345.6 
L 460.8 0 
L 0 0 
z
" style="fill:#ffffff;"/>
  </g>
  <g id="axes_1">
   <g id="patch_2">
    <path d="M 57.6 307.584 
L 414.72 307.584 
L 414.72 41.472 
L 57.6 41.472 
z
" style="fill:#ffffff;"/>
   </g>
   <g id="matplotlib.axis_1">
    <g id="xtick_1">
     <g id="line2d_1">
      <path clip-path="url(#p3080a37b99)" d="M 73.832727 307.584 
L 73.832727 41.472 
" style="fill:none;stroke:#b0b0b0;stroke-linecap:square;stroke-width:0.8;"/>
     </g>
     <g id="line2d_2">
      <defs>
       <path d="M 0 0 
L 0 3.5 
" id="m1f77297530" style="stroke:#000000;stroke-width:0.8;"/>
      </defs>
      <g>
       <use style="stroke:#000000;stroke-width:0.8;" x="73.832727" xlink:href="#m1f77297530" y="307.584"/>
      </g>
     </g>
     <g id="text_1">
      <!-- 0 -->
      <defs>
       <path d="M 46 36.53125 
Q 46 50.203125 43.4375 55.78125 
Q 40.875 61.375 34.8125 61.375 
Q 28.765625 61.375 26.171875 55.78125 
Q 23.578125 50.203125 23.578125 36.53125 
Q 23.578125 22.703125 26.171875 17.03125 
Q 28.765625 11.375 34.8125 11.375 
Q 40.828125 11.375 43.40625 17.03125 
Q 46 22.703125 46 36.53125 
z
M 64.796875 36.375 
Q 64.796875 18.265625 56.984375 8.421875 
Q 49.171875 -1.421875 34.8125 -1.421875 
Q 20.40625 -1.421875 12.59375 8.421875 
Q 4.78125 18.265625 4.78125 36.375 
Q 4.78125 54.546875 12.59375 64.375 
Q 20.40625 74.21875 34.8125 74.21875 
Q 49.171875 74.21875 56.984375 64.375 
Q 64.796875 54.546875 64.796875 36.375 
z
" id="DejaVuSans-Bold-48"/>
      </defs>
      <g transform="translate(67.570696 328.261187)scale(0.18 -0.18)">
       <use xlink:href="#DejaVuSans-Bold-48"/>
      </g>
     </g>
    </g>
    <g id="xtick_2">
     <g id="line2d_3">
      <path clip-path="url(#p3080a37b99)" d="M 155.404221 307.584 
L 155.404221 41.472 
" style="fill:none;stroke:#b0b0b0;stroke-linecap:square;stroke-width:0.8;"/>
     </g>
     <g id="line2d_4">
      <g>
       <use style="stroke:#000000;stroke-width:0.8;" x="155.404221" xlink:href="#m1f77297530" y="307.584"/>
      </g>
     </g>
     <g id="text_2">
      <!-- 50 -->
      <defs>
       <path d="M 10.59375 72.90625 
L 57.328125 72.90625 
L 57.328125 59.078125 
L 25.59375 59.078125 
L 25.59375 47.796875 
Q 27.734375 48.390625 29.90625 48.703125 
Q 32.078125 49.03125 34.421875 49.03125 
Q 47.75 49.03125 55.171875 42.359375 
Q 62.59375 35.6875 62.59375 23.78125 
Q 62.59375 11.96875 54.515625 5.265625 
Q 46.4375 -1.421875 32.078125 -1.421875 
Q 25.875 -1.421875 19.796875 -0.21875 
Q 13.71875 0.984375 7.71875 3.421875 
L 7.71875 18.21875 
Q 13.671875 14.796875 19.015625 13.078125 
Q 24.359375 11.375 29.109375 11.375 
Q 35.9375 11.375 39.859375 14.71875 
Q 43.796875 18.0625 43.796875 23.78125 
Q 43.796875 29.546875 39.859375 32.859375 
Q 35.9375 36.1875 29.109375 36.1875 
Q 25.046875 36.1875 20.453125 35.125 
Q 15.875 34.078125 10.59375 31.890625 
z
" id="DejaVuSans-Bold-53"/>
      </defs>
      <g transform="translate(142.880159 328.261187)scale(0.18 -0.18)">
       <use xlink:href="#DejaVuSans-Bold-53"/>
       <use x="69.580078" xlink:href="#DejaVuSans-Bold-48"/>
      </g>
     </g>
    </g>
    <g id="xtick_3">
     <g id="line2d_5">
      <path clip-path="url(#p3080a37b99)" d="M 236.975715 307.584 
L 236.975715 41.472 
" style="fill:none;stroke:#b0b0b0;stroke-linecap:square;stroke-width:0.8;"/>
     </g>
     <g id="line2d_6">
      <g>
       <use style="stroke:#000000;stroke-width:0.8;" x="236.975715" xlink:href="#m1f77297530" y="307.584"/>
      </g>
     </g>
     <g id="text_3">
      <!-- 100 -->
      <defs>
       <path d="M 11.71875 12.984375 
L 28.328125 12.984375 
L 28.328125 60.109375 
L 11.28125 56.59375 
L 11.28125 69.390625 
L 28.21875 72.90625 
L 46.09375 72.90625 
L 46.09375 12.984375 
L 62.703125 12.984375 
L 62.703125 0 
L 11.71875 0 
z
" id="DejaVuSans-Bold-49"/>
      </defs>
      <g transform="translate(218.189621 328.261187)scale(0.18 -0.18)">
       <use xlink:href="#DejaVuSans-Bold-49"/>
       <use x="69.580078" xlink:href="#DejaVuSans-Bold-48"/>
       <use x="139.160156" xlink:href="#DejaVuSans-Bold-48"/>
      </g>
     </g>
    </g>
    <g id="xtick_4">
     <g id="line2d_7">
      <path clip-path="url(#p3080a37b99)" d="M 318.547209 307.584 
L 318.547209 41.472 
" style="fill:none;stroke:#b0b0b0;stroke-linecap:square;stroke-width:0.8;"/>
     </g>
     <g id="line2d_8">
      <g>
       <use style="stroke:#000000;stroke-width:0.8;" x="318.547209" xlink:href="#m1f77297530" y="307.584"/>
      </g>
     </g>
     <g id="text_4">
      <!-- 150 -->
      <g transform="translate(299.761115 328.261187)scale(0.18 -0.18)">
       <use xlink:href="#DejaVuSans-Bold-49"/>
       <use x="69.580078" xlink:href="#DejaVuSans-Bold-53"/>
       <use x="139.160156" xlink:href="#DejaVuSans-Bold-48"/>
      </g>
     </g>
    </g>
    <g id="xtick_5">
     <g id="line2d_9">
      <path clip-path="url(#p3080a37b99)" d="M 400.118703 307.584 
L 400.118703 41.472 
" style="fill:none;stroke:#b0b0b0;stroke-linecap:square;stroke-width:0.8;"/>
     </g>
     <g id="line2d_10">
      <g>
       <use style="stroke:#000000;stroke-width:0.8;" x="400.118703" xlink:href="#m1f77297530" y="307.584"/>
      </g>
     </g>
     <g id="text_5">
      <!-- 200 -->
      <defs>
       <path d="M 28.8125 13.8125 
L 60.890625 13.8125 
L 60.890625 0 
L 7.90625 0 
L 7.90625 13.8125 
L 34.515625 37.3125 
Q 38.09375 40.53125 39.796875 43.609375 
Q 41.5 46.6875 41.5 50 
Q 41.5 55.125 38.0625 58.25 
Q 34.625 61.375 28.90625 61.375 
Q 24.515625 61.375 19.28125 59.5 
Q 14.0625 57.625 8.109375 53.90625 
L 8.109375 69.921875 
Q 14.453125 72.015625 20.65625 73.109375 
Q 26.859375 74.21875 32.8125 74.21875 
Q 45.90625 74.21875 53.15625 68.453125 
Q 60.40625 62.703125 60.40625 52.390625 
Q 60.40625 46.4375 57.328125 41.28125 
Q 54.25 36.140625 44.390625 27.484375 
z
" id="DejaVuSans-Bold-50"/>
      </defs>
      <g transform="translate(381.332609 328.261187)scale(0.18 -0.18)">
       <use xlink:href="#DejaVuSans-Bold-50"/>
       <use x="69.580078" xlink:href="#DejaVuSans-Bold-48"/>
       <use x="139.160156" xlink:href="#DejaVuSans-Bold-48"/>
      </g>
     </g>
    </g>
    <g id="text_6">
     <!-- Epochs [#] -->
     <defs>
      <path d="M 9.8125 72.90625 
L 55.90625 72.90625 
L 55.90625 64.59375 
L 19.671875 64.59375 
L 19.671875 43.015625 
L 54.390625 43.015625 
L 54.390625 34.71875 
L 19.671875 34.71875 
L 19.671875 8.296875 
L 56.78125 8.296875 
L 56.78125 0 
L 9.8125 0 
z
" id="DejaVuSans-69"/>
      <path d="M 18.109375 8.203125 
L 18.109375 -20.796875 
L 9.078125 -20.796875 
L 9.078125 54.6875 
L 18.109375 54.6875 
L 18.109375 46.390625 
Q 20.953125 51.265625 25.265625 53.625 
Q 29.59375 56 35.59375 56 
Q 45.5625 56 51.78125 48.09375 
Q 58.015625 40.1875 58.015625 27.296875 
Q 58.015625 14.40625 51.78125 6.484375 
Q 45.5625 -1.421875 35.59375 -1.421875 
Q 29.59375 -1.421875 25.265625 0.953125 
Q 20.953125 3.328125 18.109375 8.203125 
z
M 48.6875 27.296875 
Q 48.6875 37.203125 44.609375 42.84375 
Q 40.53125 48.484375 33.40625 48.484375 
Q 26.265625 48.484375 22.1875 42.84375 
Q 18.109375 37.203125 18.109375 27.296875 
Q 18.109375 17.390625 22.1875 11.75 
Q 26.265625 6.109375 33.40625 6.109375 
Q 40.53125 6.109375 44.609375 11.75 
Q 48.6875 17.390625 48.6875 27.296875 
z
" id="DejaVuSans-112"/>
      <path d="M 30.609375 48.390625 
Q 23.390625 48.390625 19.1875 42.75 
Q 14.984375 37.109375 14.984375 27.296875 
Q 14.984375 17.484375 19.15625 11.84375 
Q 23.34375 6.203125 30.609375 6.203125 
Q 37.796875 6.203125 41.984375 11.859375 
Q 46.1875 17.53125 46.1875 27.296875 
Q 46.1875 37.015625 41.984375 42.703125 
Q 37.796875 48.390625 30.609375 48.390625 
z
M 30.609375 56 
Q 42.328125 56 49.015625 48.375 
Q 55.71875 40.765625 55.71875 27.296875 
Q 55.71875 13.875 49.015625 6.21875 
Q 42.328125 -1.421875 30.609375 -1.421875 
Q 18.84375 -1.421875 12.171875 6.21875 
Q 5.515625 13.875 5.515625 27.296875 
Q 5.515625 40.765625 12.171875 48.375 
Q 18.84375 56 30.609375 56 
z
" id="DejaVuSans-111"/>
      <path d="M 48.78125 52.59375 
L 48.78125 44.1875 
Q 44.96875 46.296875 41.140625 47.34375 
Q 37.3125 48.390625 33.40625 48.390625 
Q 24.65625 48.390625 19.8125 42.84375 
Q 14.984375 37.3125 14.984375 27.296875 
Q 14.984375 17.28125 19.8125 11.734375 
Q 24.65625 6.203125 33.40625 6.203125 
Q 37.3125 6.203125 41.140625 7.25 
Q 44.96875 8.296875 48.78125 10.40625 
L 48.78125 2.09375 
Q 45.015625 0.34375 40.984375 -0.53125 
Q 36.96875 -1.421875 32.421875 -1.421875 
Q 20.0625 -1.421875 12.78125 6.34375 
Q 5.515625 14.109375 5.515625 27.296875 
Q 5.515625 40.671875 12.859375 48.328125 
Q 20.21875 56 33.015625 56 
Q 37.15625 56 41.109375 55.140625 
Q 45.0625 54.296875 48.78125 52.59375 
z
" id="DejaVuSans-99"/>
      <path d="M 54.890625 33.015625 
L 54.890625 0 
L 45.90625 0 
L 45.90625 32.71875 
Q 45.90625 40.484375 42.875 44.328125 
Q 39.84375 48.1875 33.796875 48.1875 
Q 26.515625 48.1875 22.3125 43.546875 
Q 18.109375 38.921875 18.109375 30.90625 
L 18.109375 0 
L 9.078125 0 
L 9.078125 75.984375 
L 18.109375 75.984375 
L 18.109375 46.1875 
Q 21.34375 51.125 25.703125 53.5625 
Q 30.078125 56 35.796875 56 
Q 45.21875 56 50.046875 50.171875 
Q 54.890625 44.34375 54.890625 33.015625 
z
" id="DejaVuSans-104"/>
      <path d="M 44.28125 53.078125 
L 44.28125 44.578125 
Q 40.484375 46.53125 36.375 47.5 
Q 32.28125 48.484375 27.875 48.484375 
Q 21.1875 48.484375 17.84375 46.4375 
Q 14.5 44.390625 14.5 40.28125 
Q 14.5 37.15625 16.890625 35.375 
Q 19.28125 33.59375 26.515625 31.984375 
L 29.59375 31.296875 
Q 39.15625 29.25 43.1875 25.515625 
Q 47.21875 21.78125 47.21875 15.09375 
Q 47.21875 7.46875 41.1875 3.015625 
Q 35.15625 -1.421875 24.609375 -1.421875 
Q 20.21875 -1.421875 15.453125 -0.5625 
Q 10.6875 0.296875 5.421875 2 
L 5.421875 11.28125 
Q 10.40625 8.6875 15.234375 7.390625 
Q 20.0625 6.109375 24.8125 6.109375 
Q 31.15625 6.109375 34.5625 8.28125 
Q 37.984375 10.453125 37.984375 14.40625 
Q 37.984375 18.0625 35.515625 20.015625 
Q 33.0625 21.96875 24.703125 23.78125 
L 21.578125 24.515625 
Q 13.234375 26.265625 9.515625 29.90625 
Q 5.8125 33.546875 5.8125 39.890625 
Q 5.8125 47.609375 11.28125 51.796875 
Q 16.75 56 26.8125 56 
Q 31.78125 56 36.171875 55.265625 
Q 40.578125 54.546875 44.28125 53.078125 
z
" id="DejaVuSans-115"/>
      <path id="DejaVuSans-32"/>
      <path d="M 8.59375 75.984375 
L 29.296875 75.984375 
L 29.296875 69 
L 17.578125 69 
L 17.578125 -6.203125 
L 29.296875 -6.203125 
L 29.296875 -13.1875 
L 8.59375 -13.1875 
z
" id="DejaVuSans-91"/>
      <path d="M 51.125 44 
L 36.921875 44 
L 32.8125 27.6875 
L 47.125 27.6875 
z
M 43.796875 71.78125 
L 38.71875 51.515625 
L 52.984375 51.515625 
L 58.109375 71.78125 
L 65.921875 71.78125 
L 60.890625 51.515625 
L 76.125 51.515625 
L 76.125 44 
L 58.984375 44 
L 54.984375 27.6875 
L 70.515625 27.6875 
L 70.515625 20.21875 
L 53.078125 20.21875 
L 48 0 
L 40.1875 0 
L 45.21875 20.21875 
L 30.90625 20.21875 
L 25.875 0 
L 18.015625 0 
L 23.09375 20.21875 
L 7.71875 20.21875 
L 7.71875 27.6875 
L 24.90625 27.6875 
L 29 44 
L 13.28125 44 
L 13.28125 51.515625 
L 30.90625 51.515625 
L 35.890625 71.78125 
z
" id="DejaVuSans-35"/>
      <path d="M 30.421875 75.984375 
L 30.421875 -13.1875 
L 9.71875 -13.1875 
L 9.71875 -6.203125 
L 21.390625 -6.203125 
L 21.390625 69 
L 9.71875 69 
L 9.71875 75.984375 
z
" id="DejaVuSans-93"/>
     </defs>
     <g transform="translate(169.929375 354.240875)scale(0.24 -0.24)">
      <use xlink:href="#DejaVuSans-69"/>
      <use x="63.183594" xlink:href="#DejaVuSans-112"/>
      <use x="126.660156" xlink:href="#DejaVuSans-111"/>
      <use x="187.841797" xlink:href="#DejaVuSans-99"/>
      <use x="242.822266" xlink:href="#DejaVuSans-104"/>
      <use x="306.201172" xlink:href="#DejaVuSans-115"/>
      <use x="358.300781" xlink:href="#DejaVuSans-32"/>
      <use x="390.087891" xlink:href="#DejaVuSans-91"/>
      <use x="429.101562" xlink:href="#DejaVuSans-35"/>
      <use x="512.890625" xlink:href="#DejaVuSans-93"/>
     </g>
    </g>
   </g>
   <g id="matplotlib.axis_2">
    <g id="ytick_1">
     <g id="line2d_11">
      <path clip-path="url(#p3080a37b99)" d="M 57.6 270.811879 
L 414.72 270.811879 
" style="fill:none;stroke:#b0b0b0;stroke-linecap:square;stroke-width:0.8;"/>
     </g>
     <g id="line2d_12">
      <defs>
       <path d="M 0 0 
L -3.5 0 
" id="mffe291c6bd" style="stroke:#000000;stroke-width:0.8;"/>
      </defs>
      <g>
       <use style="stroke:#000000;stroke-width:0.8;" x="57.6" xlink:href="#mffe291c6bd" y="270.811879"/>
      </g>
     </g>
     <g id="text_7">
      <!-- 72.5 -->
      <defs>
       <path d="M 6.6875 72.90625 
L 61.625 72.90625 
L 61.625 62.3125 
L 33.203125 0 
L 14.890625 0 
L 41.796875 59.078125 
L 6.6875 59.078125 
z
" id="DejaVuSans-Bold-55"/>
       <path d="M 10.203125 18.890625 
L 27.78125 18.890625 
L 27.78125 0 
L 10.203125 0 
z
" id="DejaVuSans-Bold-46"/>
      </defs>
      <g transform="translate(6.190625 277.650473)scale(0.18 -0.18)">
       <use xlink:href="#DejaVuSans-Bold-55"/>
       <use x="69.580078" xlink:href="#DejaVuSans-Bold-50"/>
       <use x="139.160156" xlink:href="#DejaVuSans-Bold-46"/>
       <use x="177.148438" xlink:href="#DejaVuSans-Bold-53"/>
      </g>
     </g>
    </g>
    <g id="ytick_2">
     <g id="line2d_13">
      <path clip-path="url(#p3080a37b99)" d="M 57.6 231.767323 
L 414.72 231.767323 
" style="fill:none;stroke:#b0b0b0;stroke-linecap:square;stroke-width:0.8;"/>
     </g>
     <g id="line2d_14">
      <g>
       <use style="stroke:#000000;stroke-width:0.8;" x="57.6" xlink:href="#mffe291c6bd" y="231.767323"/>
      </g>
     </g>
     <g id="text_8">
      <!-- 75.0 -->
      <g transform="translate(6.190625 238.605916)scale(0.18 -0.18)">
       <use xlink:href="#DejaVuSans-Bold-55"/>
       <use x="69.580078" xlink:href="#DejaVuSans-Bold-53"/>
       <use x="139.160156" xlink:href="#DejaVuSans-Bold-46"/>
       <use x="177.148438" xlink:href="#DejaVuSans-Bold-48"/>
      </g>
     </g>
    </g>
    <g id="ytick_3">
     <g id="line2d_15">
      <path clip-path="url(#p3080a37b99)" d="M 57.6 192.722766 
L 414.72 192.722766 
" style="fill:none;stroke:#b0b0b0;stroke-linecap:square;stroke-width:0.8;"/>
     </g>
     <g id="line2d_16">
      <g>
       <use style="stroke:#000000;stroke-width:0.8;" x="57.6" xlink:href="#mffe291c6bd" y="192.722766"/>
      </g>
     </g>
     <g id="text_9">
      <!-- 77.5 -->
      <g transform="translate(6.190625 199.56136)scale(0.18 -0.18)">
       <use xlink:href="#DejaVuSans-Bold-55"/>
       <use x="69.580078" xlink:href="#DejaVuSans-Bold-55"/>
       <use x="139.160156" xlink:href="#DejaVuSans-Bold-46"/>
       <use x="177.148438" xlink:href="#DejaVuSans-Bold-53"/>
      </g>
     </g>
    </g>
    <g id="ytick_4">
     <g id="line2d_17">
      <path clip-path="url(#p3080a37b99)" d="M 57.6 153.67821 
L 414.72 153.67821 
" style="fill:none;stroke:#b0b0b0;stroke-linecap:square;stroke-width:0.8;"/>
     </g>
     <g id="line2d_18">
      <g>
       <use style="stroke:#000000;stroke-width:0.8;" x="57.6" xlink:href="#mffe291c6bd" y="153.67821"/>
      </g>
     </g>
     <g id="text_10">
      <!-- 80.0 -->
      <defs>
       <path d="M 34.8125 32.625 
Q 29.546875 32.625 26.703125 29.734375 
Q 23.875 26.859375 23.875 21.484375 
Q 23.875 16.109375 26.703125 13.25 
Q 29.546875 10.40625 34.8125 10.40625 
Q 40.046875 10.40625 42.828125 13.25 
Q 45.609375 16.109375 45.609375 21.484375 
Q 45.609375 26.90625 42.828125 29.765625 
Q 40.046875 32.625 34.8125 32.625 
z
M 21.09375 38.8125 
Q 14.453125 40.828125 11.078125 44.96875 
Q 7.71875 49.125 7.71875 55.328125 
Q 7.71875 64.546875 14.59375 69.375 
Q 21.484375 74.21875 34.8125 74.21875 
Q 48.046875 74.21875 54.921875 69.40625 
Q 61.8125 64.59375 61.8125 55.328125 
Q 61.8125 49.125 58.421875 44.96875 
Q 55.03125 40.828125 48.390625 38.8125 
Q 55.8125 36.765625 59.59375 32.15625 
Q 63.375 27.546875 63.375 20.515625 
Q 63.375 9.671875 56.171875 4.125 
Q 48.96875 -1.421875 34.8125 -1.421875 
Q 20.609375 -1.421875 13.359375 4.125 
Q 6.109375 9.671875 6.109375 20.515625 
Q 6.109375 27.546875 9.890625 32.15625 
Q 13.671875 36.765625 21.09375 38.8125 
z
M 25.484375 53.421875 
Q 25.484375 49.078125 27.90625 46.734375 
Q 30.328125 44.390625 34.8125 44.390625 
Q 39.203125 44.390625 41.59375 46.734375 
Q 44 49.078125 44 53.421875 
Q 44 57.765625 41.59375 60.078125 
Q 39.203125 62.40625 34.8125 62.40625 
Q 30.328125 62.40625 27.90625 60.0625 
Q 25.484375 57.71875 25.484375 53.421875 
z
" id="DejaVuSans-Bold-56"/>
      </defs>
      <g transform="translate(6.190625 160.516804)scale(0.18 -0.18)">
       <use xlink:href="#DejaVuSans-Bold-56"/>
       <use x="69.580078" xlink:href="#DejaVuSans-Bold-48"/>
       <use x="139.160156" xlink:href="#DejaVuSans-Bold-46"/>
       <use x="177.148438" xlink:href="#DejaVuSans-Bold-48"/>
      </g>
     </g>
    </g>
    <g id="ytick_5">
     <g id="line2d_19">
      <path clip-path="url(#p3080a37b99)" d="M 57.6 114.633654 
L 414.72 114.633654 
" style="fill:none;stroke:#b0b0b0;stroke-linecap:square;stroke-width:0.8;"/>
     </g>
     <g id="line2d_20">
      <g>
       <use style="stroke:#000000;stroke-width:0.8;" x="57.6" xlink:href="#mffe291c6bd" y="114.633654"/>
      </g>
     </g>
     <g id="text_11">
      <!-- 82.5 -->
      <g transform="translate(6.190625 121.472248)scale(0.18 -0.18)">
       <use xlink:href="#DejaVuSans-Bold-56"/>
       <use x="69.580078" xlink:href="#DejaVuSans-Bold-50"/>
       <use x="139.160156" xlink:href="#DejaVuSans-Bold-46"/>
       <use x="177.148438" xlink:href="#DejaVuSans-Bold-53"/>
      </g>
     </g>
    </g>
    <g id="ytick_6">
     <g id="line2d_21">
      <path clip-path="url(#p3080a37b99)" d="M 57.6 75.589098 
L 414.72 75.589098 
" style="fill:none;stroke:#b0b0b0;stroke-linecap:square;stroke-width:0.8;"/>
     </g>
     <g id="line2d_22">
      <g>
       <use style="stroke:#000000;stroke-width:0.8;" x="57.6" xlink:href="#mffe291c6bd" y="75.589098"/>
      </g>
     </g>
     <g id="text_12">
      <!-- 85.0 -->
      <g transform="translate(6.190625 82.427691)scale(0.18 -0.18)">
       <use xlink:href="#DejaVuSans-Bold-56"/>
       <use x="69.580078" xlink:href="#DejaVuSans-Bold-53"/>
       <use x="139.160156" xlink:href="#DejaVuSans-Bold-46"/>
       <use x="177.148438" xlink:href="#DejaVuSans-Bold-48"/>
      </g>
     </g>
    </g>
    <g id="text_13">
     <!-- Accuracy [%]  -->
     <defs>
      <path d="M 34.1875 63.1875 
L 20.796875 26.90625 
L 47.609375 26.90625 
z
M 28.609375 72.90625 
L 39.796875 72.90625 
L 67.578125 0 
L 57.328125 0 
L 50.6875 18.703125 
L 17.828125 18.703125 
L 11.1875 0 
L 0.78125 0 
z
" id="DejaVuSans-65"/>
      <path d="M 8.5 21.578125 
L 8.5 54.6875 
L 17.484375 54.6875 
L 17.484375 21.921875 
Q 17.484375 14.15625 20.5 10.265625 
Q 23.53125 6.390625 29.59375 6.390625 
Q 36.859375 6.390625 41.078125 11.03125 
Q 45.3125 15.671875 45.3125 23.6875 
L 45.3125 54.6875 
L 54.296875 54.6875 
L 54.296875 0 
L 45.3125 0 
L 45.3125 8.40625 
Q 42.046875 3.421875 37.71875 1 
Q 33.40625 -1.421875 27.6875 -1.421875 
Q 18.265625 -1.421875 13.375 4.4375 
Q 8.5 10.296875 8.5 21.578125 
z
M 31.109375 56 
z
" id="DejaVuSans-117"/>
      <path d="M 41.109375 46.296875 
Q 39.59375 47.171875 37.8125 47.578125 
Q 36.03125 48 33.890625 48 
Q 26.265625 48 22.1875 43.046875 
Q 18.109375 38.09375 18.109375 28.8125 
L 18.109375 0 
L 9.078125 0 
L 9.078125 54.6875 
L 18.109375 54.6875 
L 18.109375 46.1875 
Q 20.953125 51.171875 25.484375 53.578125 
Q 30.03125 56 36.53125 56 
Q 37.453125 56 38.578125 55.875 
Q 39.703125 55.765625 41.0625 55.515625 
z
" id="DejaVuSans-114"/>
      <path d="M 34.28125 27.484375 
Q 23.390625 27.484375 19.1875 25 
Q 14.984375 22.515625 14.984375 16.5 
Q 14.984375 11.71875 18.140625 8.90625 
Q 21.296875 6.109375 26.703125 6.109375 
Q 34.1875 6.109375 38.703125 11.40625 
Q 43.21875 16.703125 43.21875 25.484375 
L 43.21875 27.484375 
z
M 52.203125 31.203125 
L 52.203125 0 
L 43.21875 0 
L 43.21875 8.296875 
Q 40.140625 3.328125 35.546875 0.953125 
Q 30.953125 -1.421875 24.3125 -1.421875 
Q 15.921875 -1.421875 10.953125 3.296875 
Q 6 8.015625 6 15.921875 
Q 6 25.140625 12.171875 29.828125 
Q 18.359375 34.515625 30.609375 34.515625 
L 43.21875 34.515625 
L 43.21875 35.40625 
Q 43.21875 41.609375 39.140625 45 
Q 35.0625 48.390625 27.6875 48.390625 
Q 23 48.390625 18.546875 47.265625 
Q 14.109375 46.140625 10.015625 43.890625 
L 10.015625 52.203125 
Q 14.9375 54.109375 19.578125 55.046875 
Q 24.21875 56 28.609375 56 
Q 40.484375 56 46.34375 49.84375 
Q 52.203125 43.703125 52.203125 31.203125 
z
" id="DejaVuSans-97"/>
      <path d="M 32.171875 -5.078125 
Q 28.375 -14.84375 24.75 -17.8125 
Q 21.140625 -20.796875 15.09375 -20.796875 
L 7.90625 -20.796875 
L 7.90625 -13.28125 
L 13.1875 -13.28125 
Q 16.890625 -13.28125 18.9375 -11.515625 
Q 21 -9.765625 23.484375 -3.21875 
L 25.09375 0.875 
L 2.984375 54.6875 
L 12.5 54.6875 
L 29.59375 11.921875 
L 46.6875 54.6875 
L 56.203125 54.6875 
z
" id="DejaVuSans-121"/>
      <path d="M 72.703125 32.078125 
Q 68.453125 32.078125 66.03125 28.46875 
Q 63.625 24.859375 63.625 18.40625 
Q 63.625 12.0625 66.03125 8.421875 
Q 68.453125 4.78125 72.703125 4.78125 
Q 76.859375 4.78125 79.265625 8.421875 
Q 81.6875 12.0625 81.6875 18.40625 
Q 81.6875 24.8125 79.265625 28.4375 
Q 76.859375 32.078125 72.703125 32.078125 
z
M 72.703125 38.28125 
Q 80.421875 38.28125 84.953125 32.90625 
Q 89.5 27.546875 89.5 18.40625 
Q 89.5 9.28125 84.9375 3.921875 
Q 80.375 -1.421875 72.703125 -1.421875 
Q 64.890625 -1.421875 60.34375 3.921875 
Q 55.8125 9.28125 55.8125 18.40625 
Q 55.8125 27.59375 60.375 32.9375 
Q 64.9375 38.28125 72.703125 38.28125 
z
M 22.3125 68.015625 
Q 18.109375 68.015625 15.6875 64.375 
Q 13.28125 60.75 13.28125 54.390625 
Q 13.28125 47.953125 15.671875 44.328125 
Q 18.0625 40.71875 22.3125 40.71875 
Q 26.5625 40.71875 28.96875 44.328125 
Q 31.390625 47.953125 31.390625 54.390625 
Q 31.390625 60.6875 28.953125 64.34375 
Q 26.515625 68.015625 22.3125 68.015625 
z
M 66.40625 74.21875 
L 74.21875 74.21875 
L 28.609375 -1.421875 
L 20.796875 -1.421875 
z
M 22.3125 74.21875 
Q 30.03125 74.21875 34.609375 68.875 
Q 39.203125 63.53125 39.203125 54.390625 
Q 39.203125 45.171875 34.640625 39.84375 
Q 30.078125 34.515625 22.3125 34.515625 
Q 14.546875 34.515625 10.03125 39.859375 
Q 5.515625 45.21875 5.515625 54.390625 
Q 5.515625 63.484375 10.046875 68.84375 
Q 14.59375 74.21875 22.3125 74.21875 
z
" id="DejaVuSans-37"/>
     </defs>
     <g transform="translate(-2.800625 257.91675)rotate(-90)scale(0.24 -0.24)">
      <use xlink:href="#DejaVuSans-65"/>
      <use x="68.392578" xlink:href="#DejaVuSans-99"/>
      <use x="123.373047" xlink:href="#DejaVuSans-99"/>
      <use x="178.353516" xlink:href="#DejaVuSans-117"/>
      <use x="241.732422" xlink:href="#DejaVuSans-114"/>
      <use x="282.845703" xlink:href="#DejaVuSans-97"/>
      <use x="344.125" xlink:href="#DejaVuSans-99"/>
      <use x="399.105469" xlink:href="#DejaVuSans-121"/>
      <use x="458.285156" xlink:href="#DejaVuSans-32"/>
      <use x="490.072266" xlink:href="#DejaVuSans-91"/>
      <use x="529.085938" xlink:href="#DejaVuSans-37"/>
      <use x="624.105469" xlink:href="#DejaVuSans-93"/>
      <use x="663.119141" xlink:href="#DejaVuSans-32"/>
     </g>
    </g>
   </g>
   <g id="line2d_23">
    <path clip-path="url(#p3080a37b99)" d="M 73.832727 270.187211 
L 75.464157 238.170668 
L 77.095587 227.706667 
L 78.727017 208.809131 
L 80.358447 176.167864 
L 81.989877 169.764611 
L 83.621307 171.638689 
L 85.252736 155.864677 
L 86.884166 154.615323 
L 88.515596 144.776045 
L 90.147026 149.461424 
L 91.778456 139.153627 
L 93.409886 142.12104 
L 95.041316 139.466035 
L 96.672746 132.12565 
L 98.304175 131.188519 
L 99.935605 128.689718 
L 101.567035 124.316747 
L 103.198465 121.505538 
L 106.461325 118.225716 
L 108.092755 120.099886 
L 109.724185 116.03923 
L 111.355614 119.006644 
L 112.987044 113.228021 
L 114.618474 110.729221 
L 116.249904 113.07191 
L 117.881334 108.698846 
L 119.512764 111.666259 
L 121.144194 108.85505 
L 122.775624 105.731526 
L 124.407053 103.232632 
L 126.038483 104.01356 
L 127.669913 107.605603 
L 129.301343 99.171976 
L 130.932773 108.386531 
L 132.564203 101.67087 
L 134.195633 100.265219 
L 135.827063 96.829379 
L 137.458492 98.547252 
L 139.089922 104.01356 
L 140.721352 95.892247 
L 142.352782 96.204656 
L 143.984212 98.078733 
L 145.615642 98.859661 
L 147.247072 92.612519 
L 148.878502 100.733831 
L 150.509931 101.20235 
L 152.141361 94.642801 
L 153.772791 91.206961 
L 155.404221 94.486689 
L 157.035651 94.01817 
L 158.667081 90.269829 
L 160.298511 90.894553 
L 161.929941 87.771028 
L 163.56137 93.549558 
L 165.1928 91.831591 
L 166.82423 91.67548 
L 168.45566 88.864271 
L 170.08709 90.113718 
L 171.71852 91.67548 
L 173.34995 91.206961 
L 174.98138 85.740654 
L 176.61281 82.460925 
L 178.244239 86.677786 
L 179.875669 89.176586 
L 181.507099 86.365377 
L 183.138529 84.803615 
L 184.769959 89.020382 
L 186.401389 88.239548 
L 188.032819 84.178892 
L 189.664249 84.959819 
L 191.295678 84.803615 
L 192.927108 87.146305 
L 194.558538 80.118236 
L 196.189968 80.586755 
L 197.821398 82.460925 
L 199.452828 87.771028 
L 201.084258 80.899163 
L 202.715688 86.365377 
L 204.347117 80.27444 
L 205.978547 80.899163 
L 207.609977 79.024993 
L 209.241407 83.241853 
L 210.872837 79.962125 
L 212.504267 80.742959 
L 214.135697 77.463231 
L 215.767127 72.309332 
L 217.398556 81.992406 
L 219.029986 82.14861 
L 220.661416 75.120541 
L 222.292846 78.087954 
L 223.924276 80.430644 
L 225.555706 78.400269 
L 227.187136 78.712678 
L 228.818566 72.465536 
L 230.449995 73.871094 
L 232.081425 73.871094 
L 233.712855 75.120541 
L 235.344285 75.58906 
L 236.975715 74.339706 
L 238.607145 79.181197 
L 240.238575 75.120541 
L 241.870005 74.652022 
L 243.501434 76.057673 
L 245.132864 78.712678 
L 246.764294 73.714983 
L 248.395724 78.087954 
L 250.027154 76.682303 
L 251.658584 71.528497 
L 253.290014 70.435255 
L 254.921444 78.400269 
L 256.552873 69.966642 
L 258.184303 69.498123 
L 259.815733 75.432949 
L 261.447163 69.654327 
L 263.078593 70.122846 
L 264.710023 72.153221 
L 266.341453 72.934055 
L 267.972883 69.654327 
L 269.604312 71.684608 
L 271.235742 70.903774 
L 272.867172 74.652022 
L 274.498602 75.901469 
L 276.130032 71.528497 
L 277.761462 66.06219 
L 279.392892 67.467841 
L 281.024322 71.528497 
L 282.655751 69.966642 
L 284.287181 65.281356 
L 285.918611 66.374599 
L 287.550041 68.092565 
L 289.181471 70.435255 
L 290.812901 63.09487 
L 292.444331 61.845423 
L 294.075761 72.465536 
L 295.70719 67.780157 
L 297.33862 70.591366 
L 298.97005 67.936361 
L 300.60148 67.467841 
L 302.23291 69.966642 
L 303.86434 66.530803 
L 305.49577 62.157738 
L 307.1272 65.593671 
L 308.75863 64.031909 
L 310.390059 71.997017 
L 312.021489 63.09487 
L 313.652919 67.780157 
L 315.284349 66.999322 
L 316.915779 65.281356 
L 318.547209 71.840813 
L 320.178639 62.938666 
L 321.810069 65.281356 
L 323.441498 66.218394 
L 325.072928 65.906079 
L 326.704358 66.374599 
L 328.335788 66.218394 
L 329.967218 60.127457 
L 331.598648 65.437467 
L 333.230078 65.125152 
L 334.861508 67.936361 
L 336.492937 64.656632 
L 338.124367 65.281356 
L 339.755797 60.75218 
L 341.387227 61.376904 
L 343.018657 61.064496 
L 344.650087 62.157738 
L 346.281517 66.686914 
L 347.912947 58.097175 
L 349.544376 64.968947 
L 351.175806 62.001627 
L 352.807236 61.064496 
L 354.438666 58.097175 
L 356.070096 59.034214 
L 357.701526 63.563389 
L 359.332956 62.001627 
L 360.964386 59.815142 
L 362.595815 55.442077 
L 364.227245 57.784767 
L 365.858675 58.409491 
L 367.490105 53.568 
L 369.121535 62.938666 
L 370.752965 63.09487 
L 372.384395 58.721806 
L 374.015825 59.502733 
L 375.647254 66.06219 
L 377.278684 58.097175 
L 378.910114 56.53532 
L 380.541544 55.910597 
L 382.172974 59.034214 
L 383.804404 61.064496 
L 385.435834 58.097175 
L 387.067264 63.09487 
L 388.698693 64.344224 
L 390.330123 56.847728 
L 391.961553 63.719594 
L 393.592983 62.782462 
L 395.224413 58.409491 
L 396.855843 58.409491 
L 398.487273 61.689219 
L 398.487273 61.689219 
" style="fill:none;stroke:#1f77b4;stroke-linecap:square;stroke-width:1.5;"/>
   </g>
   <g id="line2d_24">
    <path clip-path="url(#p3080a37b99)" d="M 73.832727 278.30843 
L 75.464157 238.639188 
L 78.727017 189.911594 
L 80.358447 181.477967 
L 81.989877 164.298304 
L 83.621307 157.114124 
L 85.252736 160.862372 
L 86.884166 155.864677 
L 88.515596 149.929944 
L 90.147026 136.810937 
L 91.778456 132.59417 
L 93.409886 132.437966 
L 95.041316 133.062689 
L 96.672746 128.221199 
L 98.304175 131.344723 
L 101.567035 126.190824 
L 103.198465 125.253785 
L 104.829895 124.785266 
L 106.461325 119.631367 
L 108.092755 125.722305 
L 109.724185 116.976362 
L 111.355614 115.883119 
L 112.987044 117.288677 
L 114.618474 117.757197 
L 116.249904 119.943682 
L 117.881334 121.817853 
L 119.512764 120.256091 
L 121.144194 116.976362 
L 122.775624 114.321264 
L 124.407053 115.258396 
L 126.038483 114.633672 
L 127.669913 111.041536 
L 129.301343 113.54043 
L 130.932773 108.230327 
L 132.564203 108.230327 
L 134.195633 105.731526 
L 135.827063 106.98088 
L 137.458492 109.011254 
L 139.089922 116.976362 
L 140.721352 106.51236 
L 142.352782 110.885332 
L 143.984212 111.510055 
L 145.615642 106.51236 
L 147.247072 108.230327 
L 148.878502 105.731526 
L 150.509931 113.384225 
L 152.141361 109.792089 
L 153.772791 107.605603 
L 155.404221 107.449492 
L 157.035651 106.51236 
L 158.667081 104.638283 
L 160.298511 110.260701 
L 161.929941 100.109108 
L 165.1928 109.792089 
L 166.82423 109.011254 
L 168.45566 103.232632 
L 170.08709 106.98088 
L 171.71852 99.640588 
L 173.34995 101.983185 
L 174.98138 99.640588 
L 176.61281 97.610214 
L 178.244239 103.701151 
L 179.875669 104.169671 
L 181.507099 101.358461 
L 183.138529 99.015865 
L 184.769959 97.610214 
L 186.401389 99.171976 
L 188.032819 101.358461 
L 189.664249 104.01356 
L 191.295678 95.579932 
L 192.927108 99.015865 
L 194.558538 94.642801 
L 196.189968 103.388836 
L 197.821398 96.516971 
L 199.452828 99.952903 
L 201.084258 105.731526 
L 204.347117 100.733831 
L 205.978547 97.45401 
L 207.609977 99.796699 
L 210.872837 98.859661 
L 212.504267 100.889942 
L 214.135697 95.111413 
L 215.767127 95.892247 
L 217.398556 104.950598 
L 219.029986 99.484384 
L 220.661416 96.673175 
L 222.292846 102.451797 
L 223.924276 89.332791 
L 225.555706 93.549558 
L 228.818566 97.45401 
L 230.449995 92.768723 
L 232.081425 95.111413 
L 233.712855 98.547252 
L 235.344285 95.892247 
L 236.975715 92.300204 
L 238.607145 95.111413 
L 240.238575 97.610214 
L 241.870005 100.577627 
L 243.501434 95.267524 
L 245.132864 94.330485 
L 246.764294 92.456315 
L 248.395724 101.20235 
L 250.027154 91.831591 
L 251.658584 92.144 
L 253.290014 96.048452 
L 254.921444 95.579932 
L 256.552873 96.829379 
L 258.184303 96.98549 
L 259.815733 94.01817 
L 261.447163 91.519276 
L 263.078593 90.738349 
L 264.710023 91.519276 
L 266.341453 90.894553 
L 267.972883 93.549558 
L 269.604312 95.579932 
L 271.235742 94.330485 
L 272.867172 87.92714 
L 274.498602 91.050757 
L 276.130032 91.363072 
L 277.761462 96.98549 
L 279.392892 94.799005 
L 281.024322 91.363072 
L 282.655751 94.01817 
L 284.287181 91.831591 
L 285.918611 94.642801 
L 287.550041 92.300204 
L 289.181471 93.705762 
L 290.812901 94.330485 
L 292.444331 89.176586 
L 294.075761 94.330485 
L 295.70719 94.642801 
L 297.33862 93.237243 
L 298.97005 89.645106 
L 300.60148 90.582238 
L 302.23291 93.081038 
L 303.86434 94.330485 
L 305.49577 94.174281 
L 307.1272 93.549558 
L 308.75863 96.204656 
L 310.390059 95.423728 
L 312.021489 94.174281 
L 313.652919 92.612519 
L 315.284349 87.92714 
L 316.915779 92.456315 
L 318.547209 94.174281 
L 320.178639 86.833897 
L 321.810069 95.423728 
L 323.441498 89.488995 
L 325.072928 87.92714 
L 326.704358 89.020382 
L 328.335788 95.267524 
L 329.967218 95.736043 
L 331.598648 94.955209 
L 333.230078 93.393447 
L 334.861508 86.990101 
L 336.492937 89.332791 
L 338.124367 90.894553 
L 339.755797 94.330485 
L 341.387227 90.894553 
L 343.018657 89.332791 
L 344.650087 87.302509 
L 346.281517 89.957514 
L 347.912947 89.176586 
L 349.544376 89.020382 
L 351.175806 86.833897 
L 352.807236 90.113718 
L 354.438666 91.050757 
L 356.070096 93.393447 
L 357.701526 87.302509 
L 359.332956 86.521582 
L 360.964386 92.924834 
L 362.595815 88.864271 
L 364.227245 85.11593 
L 365.858675 87.92714 
L 367.490105 86.677786 
L 369.121535 91.519276 
L 370.752965 86.990101 
L 372.384395 86.365377 
L 374.015825 85.428339 
L 375.647254 84.335096 
L 377.278684 89.020382 
L 378.910114 82.929445 
L 380.541544 86.990101 
L 382.172974 93.393447 
L 383.804404 89.488995 
L 385.435834 86.990101 
L 387.067264 86.209173 
L 388.698693 90.582238 
L 390.330123 91.67548 
L 391.961553 86.053062 
L 393.592983 84.178892 
L 395.224413 88.083344 
L 396.855843 87.45862 
L 398.487273 88.083344 
L 398.487273 88.083344 
" style="fill:none;stroke:#ff7f0e;stroke-linecap:square;stroke-width:1.5;"/>
   </g>
   <g id="line2d_25">
    <path clip-path="url(#p3080a37b99)" d="M 73.832727 269.718599 
L 75.464157 254.413199 
L 77.095587 223.02138 
L 78.727017 214.900068 
L 80.358447 193.503638 
L 81.989877 173.981379 
L 83.621307 174.918417 
L 85.252736 156.645605 
L 86.884166 153.365876 
L 88.515596 141.652521 
L 90.147026 150.086148 
L 91.778456 147.274939 
L 93.409886 142.12104 
L 95.041316 135.092971 
L 96.672746 132.59417 
L 98.304175 138.372699 
L 99.935605 134.624451 
L 101.567035 129.158237 
L 103.198465 128.533514 
L 104.829895 131.657038 
L 106.461325 117.913401 
L 108.092755 116.663954 
L 109.724185 120.256091 
L 111.355614 122.754891 
L 112.987044 115.883119 
L 114.618474 118.538124 
L 116.249904 113.696541 
L 117.881334 113.07191 
L 119.512764 113.54043 
L 121.144194 114.321264 
L 122.775624 115.258396 
L 124.407053 114.789877 
L 126.038483 117.601086 
L 127.669913 113.384225 
L 129.301343 110.573016 
L 130.932773 108.386531 
L 132.564203 109.635978 
L 134.195633 118.38192 
L 135.827063 108.85505 
L 137.458492 109.792089 
L 139.089922 111.510055 
L 140.721352 109.167458 
L 142.352782 112.134779 
L 143.984212 108.074122 
L 145.615642 106.98088 
L 147.247072 107.449492 
L 148.878502 109.323569 
L 150.509931 109.167458 
L 152.141361 109.948293 
L 153.772791 104.638283 
L 155.404221 110.885332 
L 157.035651 108.230327 
L 158.667081 104.01356 
L 160.298511 109.635978 
L 161.929941 104.482079 
L 163.56137 110.260701 
L 165.1928 111.510055 
L 166.82423 113.696541 
L 168.45566 108.698846 
L 170.08709 101.67087 
L 171.71852 105.419118 
L 173.34995 100.109108 
L 174.98138 106.668564 
L 176.61281 104.325875 
L 178.244239 104.169671 
L 179.875669 102.764113 
L 181.507099 103.388836 
L 183.138529 100.733831 
L 184.769959 99.640588 
L 186.401389 105.575322 
L 188.032819 98.547252 
L 189.664249 100.109108 
L 191.295678 100.109108 
L 192.927108 110.416812 
L 194.558538 100.265219 
L 196.189968 98.703457 
L 197.821398 99.171976 
L 199.452828 99.171976 
L 201.084258 100.265219 
L 202.715688 95.892247 
L 204.347117 95.736043 
L 205.978547 95.267524 
L 207.609977 93.549558 
L 209.241407 96.98549 
L 210.872837 105.731526 
L 212.504267 96.516971 
L 214.135697 101.358461 
L 215.767127 90.894553 
L 217.398556 102.764113 
L 219.029986 99.640588 
L 220.661416 98.234937 
L 222.292846 93.861966 
L 223.924276 94.01817 
L 225.555706 101.20235 
L 227.187136 92.924834 
L 228.818566 99.796699 
L 230.449995 96.204656 
L 232.081425 98.391141 
L 233.712855 91.987796 
L 235.344285 96.98549 
L 236.975715 90.426033 
L 238.607145 91.987796 
L 240.238575 95.111413 
L 241.870005 88.395752 
L 243.501434 85.584543 
L 245.132864 90.113718 
L 246.764294 90.738349 
L 248.395724 97.297899 
L 250.027154 94.01817 
L 251.658584 88.551863 
L 253.290014 94.330485 
L 254.921444 86.365377 
L 256.552873 85.740654 
L 258.184303 88.708067 
L 259.815733 90.426033 
L 261.447163 94.486689 
L 263.078593 91.831591 
L 264.710023 89.645106 
L 266.341453 90.894553 
L 267.972883 94.799005 
L 269.604312 87.771028 
L 271.235742 95.267524 
L 272.867172 92.144 
L 274.498602 85.584543 
L 276.130032 92.300204 
L 277.761462 87.92714 
L 279.392892 88.551863 
L 281.024322 91.67548 
L 282.655751 88.083344 
L 285.918611 84.022688 
L 287.550041 91.363072 
L 289.181471 89.957514 
L 290.812901 88.083344 
L 292.444331 84.647411 
L 294.075761 87.614824 
L 295.70719 88.551863 
L 297.33862 90.582238 
L 298.97005 86.365377 
L 300.60148 85.740654 
L 302.23291 84.022688 
L 303.86434 93.705762 
L 305.49577 83.554168 
L 307.1272 89.020382 
L 308.75863 88.551863 
L 310.390059 88.551863 
L 312.021489 85.896858 
L 313.652919 82.14861 
L 315.284349 84.022688 
L 316.915779 86.521582 
L 318.547209 85.272135 
L 320.178639 99.32818 
L 321.810069 86.833897 
L 323.441498 88.708067 
L 325.072928 86.209173 
L 326.704358 89.957514 
L 328.335788 84.022688 
L 329.967218 86.209173 
L 331.598648 87.771028 
L 333.230078 85.740654 
L 334.861508 95.579932 
L 336.492937 88.395752 
L 338.124367 86.990101 
L 339.755797 88.239548 
L 341.387227 86.209173 
L 343.018657 87.146305 
L 344.650087 89.488995 
L 346.281517 94.799005 
L 347.912947 84.178892 
L 349.544376 89.020382 
L 351.175806 89.645106 
L 352.807236 88.708067 
L 354.438666 77.93175 
L 356.070096 83.085649 
L 357.701526 82.61713 
L 359.332956 78.868882 
L 360.964386 89.020382 
L 362.595815 80.586755 
L 364.227245 82.929445 
L 365.858675 89.332791 
L 367.490105 81.992406 
L 369.121535 89.80131 
L 370.752965 88.239548 
L 372.384395 82.61713 
L 374.015825 80.899163 
L 375.647254 82.14861 
L 377.278684 86.521582 
L 378.910114 86.053062 
L 380.541544 82.773334 
L 382.172974 86.053062 
L 383.804404 83.710372 
L 385.435834 82.773334 
L 387.067264 83.554168 
L 388.698693 83.710372 
L 390.330123 80.118236 
L 391.961553 79.649716 
L 393.592983 89.80131 
L 395.224413 80.118236 
L 396.855843 84.803615 
L 398.487273 84.647411 
L 398.487273 84.647411 
" style="fill:none;stroke:#2ca02c;stroke-linecap:square;stroke-width:1.5;"/>
   </g>
   <g id="line2d_26">
    <path clip-path="url(#p3080a37b99)" d="M 73.832727 287.366781 
L 75.464157 248.946892 
L 77.095587 219.273039 
L 78.727017 205.997921 
L 80.358447 191.004837 
L 81.989877 184.289176 
L 83.621307 176.01166 
L 85.252736 169.452203 
L 86.884166 162.268023 
L 88.515596 161.018576 
L 90.147026 155.083843 
L 91.778456 154.771434 
L 93.409886 147.743458 
L 95.041316 149.77374 
L 96.672746 147.118735 
L 98.304175 135.873898 
L 99.935605 134.468247 
L 101.567035 133.531208 
L 103.198465 138.685107 
L 104.829895 130.563795 
L 106.461325 131.813242 
L 108.092755 133.218893 
L 109.724185 133.375004 
L 111.355614 132.59417 
L 112.987044 123.848134 
L 114.618474 131.032408 
L 116.249904 127.752586 
L 117.881334 118.694328 
L 119.512764 120.880814 
L 121.144194 122.286372 
L 122.775624 117.444882 
L 124.407053 115.102192 
L 126.038483 116.50775 
L 127.669913 121.817853 
L 129.301343 114.945988 
L 130.932773 106.824769 
L 132.564203 117.601086 
L 134.195633 114.165153 
L 135.827063 107.761807 
L 137.458492 110.260701 
L 139.089922 109.323569 
L 140.721352 111.822463 
L 142.352782 114.789877 
L 143.984212 109.323569 
L 145.615642 109.792089 
L 147.247072 103.701151 
L 148.878502 107.761807 
L 150.509931 101.983185 
L 152.141361 103.857355 
L 153.772791 103.857355 
L 155.404221 108.698846 
L 157.035651 101.514666 
L 158.667081 104.482079 
L 160.298511 104.950598 
L 161.929941 98.703457 
L 163.56137 104.325875 
L 165.1928 103.857355 
L 166.82423 101.983185 
L 168.45566 96.829379 
L 170.08709 98.078733 
L 171.71852 96.829379 
L 173.34995 102.451797 
L 174.98138 96.204656 
L 176.61281 99.796699 
L 178.244239 97.45401 
L 179.875669 104.01356 
L 181.507099 99.796699 
L 183.138529 101.358461 
L 184.769959 100.421423 
L 186.401389 98.859661 
L 188.032819 100.733831 
L 189.664249 98.234937 
L 191.295678 94.955209 
L 192.927108 95.111413 
L 194.558538 94.486689 
L 196.189968 96.98549 
L 197.821398 101.046146 
L 199.452828 98.391141 
L 201.084258 97.141694 
L 202.715688 95.111413 
L 204.347117 91.363072 
L 205.978547 96.048452 
L 207.609977 97.45401 
L 209.241407 89.645106 
L 210.872837 92.144 
L 212.504267 98.234937 
L 215.767127 89.957514 
L 217.398556 95.579932 
L 219.029986 102.607908 
L 220.661416 100.265219 
L 222.292846 97.45401 
L 223.924276 88.239548 
L 225.555706 99.952903 
L 227.187136 92.768723 
L 228.818566 89.80131 
L 230.449995 91.206961 
L 232.081425 90.894553 
L 233.712855 92.144 
L 235.344285 93.081038 
L 236.975715 92.924834 
L 238.607145 96.673175 
L 240.238575 101.358461 
L 241.870005 93.705762 
L 243.501434 93.705762 
L 245.132864 91.67548 
L 246.764294 99.171976 
L 248.395724 91.831591 
L 250.027154 93.081038 
L 251.658584 92.612519 
L 253.290014 89.645106 
L 254.921444 96.048452 
L 256.552873 95.423728 
L 258.184303 90.426033 
L 259.815733 91.050757 
L 261.447163 95.111413 
L 263.078593 94.799005 
L 264.710023 90.426033 
L 266.341453 94.642801 
L 267.972883 95.423728 
L 269.604312 88.708067 
L 271.235742 98.234937 
L 272.867172 93.393447 
L 274.498602 91.831591 
L 276.130032 93.081038 
L 277.761462 94.642801 
L 279.392892 98.234937 
L 281.024322 95.267524 
L 282.655751 95.579932 
L 284.287181 92.924834 
L 285.918611 91.363072 
L 287.550041 92.456315 
L 289.181471 89.488995 
L 290.812901 95.267524 
L 292.444331 93.393447 
L 294.075761 94.642801 
L 295.70719 90.738349 
L 297.33862 94.486689 
L 298.97005 94.01817 
L 300.60148 91.206961 
L 302.23291 89.957514 
L 303.86434 91.363072 
L 305.49577 90.269829 
L 307.1272 86.677786 
L 308.75863 87.92714 
L 310.390059 89.80131 
L 312.021489 85.272135 
L 313.652919 91.050757 
L 315.284349 89.332791 
L 316.915779 92.612519 
L 318.547209 86.521582 
L 320.178639 89.332791 
L 321.810069 94.01817 
L 323.441498 87.92714 
L 325.072928 90.582238 
L 326.704358 88.864271 
L 328.335788 92.300204 
L 329.967218 98.391141 
L 331.598648 94.174281 
L 333.230078 90.738349 
L 334.861508 89.488995 
L 336.492937 89.176586 
L 338.124367 89.645106 
L 339.755797 88.395752 
L 341.387227 91.519276 
L 343.018657 86.833897 
L 344.650087 88.708067 
L 346.281517 88.708067 
L 347.912947 89.645106 
L 349.544376 92.768723 
L 351.175806 89.488995 
L 352.807236 84.647411 
L 354.438666 90.269829 
L 356.070096 90.738349 
L 357.701526 90.582238 
L 359.332956 89.645106 
L 360.964386 89.645106 
L 362.595815 86.053062 
L 364.227245 81.367683 
L 365.858675 90.738349 
L 367.490105 91.363072 
L 369.121535 89.176586 
L 370.752965 94.330485 
L 372.384395 82.304721 
L 374.015825 89.80131 
L 375.647254 92.768723 
L 377.278684 86.053062 
L 378.910114 85.896858 
L 380.541544 89.176586 
L 382.172974 88.708067 
L 383.804404 87.45862 
L 385.435834 84.178892 
L 387.067264 84.335096 
L 388.698693 89.957514 
L 390.330123 85.740654 
L 391.961553 92.144 
L 393.592983 85.11593 
L 395.224413 83.241853 
L 396.855843 88.239548 
L 398.487273 85.272135 
L 398.487273 85.272135 
" style="fill:none;stroke:#d62728;stroke-linecap:square;stroke-width:1.5;"/>
   </g>
   <g id="line2d_27">
    <path clip-path="url(#p3080a37b99)" d="M 73.832727 270.811842 
L 75.464157 235.359459 
L 77.095587 215.212476 
L 78.727017 205.216994 
L 80.358447 188.505943 
L 81.989877 165.235436 
L 83.621307 168.82748 
L 85.252736 165.079232 
L 86.884166 163.829785 
L 88.515596 156.020881 
L 90.147026 150.866982 
L 91.778456 148.680497 
L 93.409886 141.808632 
L 95.041316 147.274939 
L 96.672746 139.77835 
L 98.304175 139.466035 
L 99.935605 134.155932 
L 101.567035 128.37731 
L 103.198465 128.064994 
L 104.829895 128.064994 
L 106.461325 134.468247 
L 108.092755 128.689718 
L 109.724185 117.132473 
L 111.355614 124.472858 
L 112.987044 121.193129 
L 114.618474 115.414507 
L 116.249904 118.38192 
L 117.881334 115.414507 
L 119.512764 117.288677 
L 121.144194 118.694328 
L 122.775624 116.195435 
L 124.407053 120.880814 
L 126.038483 118.694328 
L 127.669913 115.883119 
L 129.301343 116.663954 
L 130.932773 115.102192 
L 132.564203 114.789877 
L 134.195633 111.19774 
L 135.827063 114.789877 
L 137.458492 109.011254 
L 139.089922 114.789877 
L 140.721352 114.789877 
L 142.352782 113.228021 
L 143.984212 107.918011 
L 145.615642 112.603298 
L 147.247072 114.321264 
L 148.878502 107.605603 
L 150.509931 105.106802 
L 152.141361 107.605603 
L 153.772791 119.631367 
L 155.404221 112.134779 
L 157.035651 115.570711 
L 158.667081 101.827074 
L 160.298511 106.668564 
L 161.929941 103.54504 
L 163.56137 108.074122 
L 165.1928 108.386531 
L 166.82423 107.449492 
L 168.45566 100.109108 
L 170.08709 108.698846 
L 171.71852 109.948293 
L 173.34995 106.98088 
L 174.98138 106.51236 
L 176.61281 103.232632 
L 178.244239 109.011254 
L 179.875669 101.827074 
L 181.507099 100.577627 
L 183.138529 102.607908 
L 184.769959 99.32818 
L 186.401389 103.232632 
L 188.032819 106.824769 
L 189.664249 101.67087 
L 191.295678 98.703457 
L 192.927108 101.046146 
L 194.558538 104.794394 
L 196.189968 96.98549 
L 197.821398 101.20235 
L 199.452828 98.859661 
L 201.084258 110.573016 
L 202.715688 99.640588 
L 204.347117 99.484384 
L 205.978547 95.111413 
L 207.609977 97.610214 
L 209.241407 94.486689 
L 210.872837 100.421423 
L 212.504267 99.32818 
L 214.135697 98.703457 
L 215.767127 91.987796 
L 217.398556 100.889942 
L 219.029986 97.297899 
L 220.661416 95.267524 
L 223.924276 99.171976 
L 225.555706 92.768723 
L 227.187136 97.922622 
L 228.818566 104.325875 
L 230.449995 90.426033 
L 232.081425 99.484384 
L 233.712855 96.98549 
L 235.344285 100.109108 
L 236.975715 102.451797 
L 238.607145 95.111413 
L 240.238575 97.45401 
L 241.870005 92.768723 
L 243.501434 95.423728 
L 245.132864 94.642801 
L 246.764294 89.957514 
L 248.395724 100.577627 
L 250.027154 95.579932 
L 251.658584 96.673175 
L 253.290014 93.081038 
L 254.921444 92.612519 
L 256.552873 94.01817 
L 258.184303 97.766418 
L 259.815733 94.01817 
L 261.447163 95.267524 
L 263.078593 94.486689 
L 264.710023 95.267524 
L 266.341453 85.272135 
L 267.972883 91.987796 
L 269.604312 92.144 
L 271.235742 89.957514 
L 272.867172 93.393447 
L 274.498602 91.831591 
L 276.130032 95.267524 
L 277.761462 87.92714 
L 279.392892 94.642801 
L 281.024322 90.426033 
L 282.655751 92.612519 
L 284.287181 87.771028 
L 285.918611 91.050757 
L 287.550041 93.705762 
L 289.181471 91.831591 
L 290.812901 89.020382 
L 292.444331 91.987796 
L 294.075761 93.705762 
L 295.70719 88.551863 
L 297.33862 88.708067 
L 298.97005 86.677786 
L 300.60148 90.113718 
L 302.23291 86.365377 
L 303.86434 80.899163 
L 305.49577 83.866577 
L 307.1272 84.022688 
L 308.75863 89.957514 
L 310.390059 85.428339 
L 312.021489 82.460925 
L 313.652919 87.146305 
L 315.284349 83.554168 
L 316.915779 85.11593 
L 318.547209 86.209173 
L 320.178639 84.803615 
L 321.810069 84.178892 
L 325.072928 91.831591 
L 326.704358 87.92714 
L 328.335788 83.397964 
L 329.967218 80.118236 
L 331.598648 87.771028 
L 333.230078 88.551863 
L 336.492937 92.612519 
L 338.124367 91.050757 
L 339.755797 80.586755 
L 341.387227 89.332791 
L 343.018657 90.426033 
L 344.650087 87.614824 
L 346.281517 78.712678 
L 347.912947 84.647411 
L 349.544376 89.80131 
L 351.175806 87.146305 
L 352.807236 87.771028 
L 354.438666 88.551863 
L 356.070096 86.990101 
L 357.701526 86.365377 
L 359.332956 86.521582 
L 360.964386 86.053062 
L 362.595815 87.771028 
L 364.227245 81.367683 
L 365.858675 88.864271 
L 367.490105 87.302509 
L 369.121535 84.178892 
L 370.752965 86.053062 
L 372.384395 88.551863 
L 374.015825 88.708067 
L 375.647254 80.742959 
L 378.910114 85.584543 
L 380.541544 81.211479 
L 382.172974 87.614824 
L 385.435834 82.460925 
L 387.067264 81.367683 
L 388.698693 79.337401 
L 390.330123 84.959819 
L 391.961553 83.397964 
L 393.592983 85.272135 
L 395.224413 85.896858 
L 396.855843 82.61713 
L 398.487273 89.488995 
L 398.487273 89.488995 
" style="fill:none;stroke:#9467bd;stroke-linecap:square;stroke-width:1.5;"/>
   </g>
   <g id="line2d_28">
    <path clip-path="url(#p3080a37b99)" d="M 73.832727 279.714081 
L 75.464157 242.54364 
L 77.095587 227.394351 
L 78.727017 197.876609 
L 81.989877 182.102691 
L 83.621307 171.013965 
L 85.252736 166.640994 
L 86.884166 165.391547 
L 88.515596 148.211977 
L 90.147026 148.836701 
L 91.778456 145.400768 
L 93.409886 139.77835 
L 95.041316 142.589559 
L 96.672746 141.027797 
L 98.304175 132.437966 
L 99.935605 137.748069 
L 103.198465 134.155932 
L 104.829895 130.095276 
L 106.461325 132.59417 
L 108.092755 122.911096 
L 109.724185 133.218893 
L 111.355614 125.878509 
L 112.987044 126.815547 
L 114.618474 120.72461 
L 116.249904 118.38192 
L 117.881334 123.692023 
L 119.512764 111.666259 
L 121.144194 116.351639 
L 122.775624 116.663954 
L 124.407053 117.601086 
L 126.038483 117.757197 
L 127.669913 107.918011 
L 129.301343 115.726915 
L 130.932773 113.07191 
L 132.564203 105.887637 
L 134.195633 112.447187 
L 135.827063 107.449492 
L 137.458492 110.573016 
L 139.089922 115.414507 
L 140.721352 109.792089 
L 142.352782 104.794394 
L 143.984212 105.263006 
L 145.615642 99.171976 
L 147.247072 104.794394 
L 148.878502 102.764113 
L 150.509931 97.45401 
L 152.141361 101.358461 
L 153.772791 104.638283 
L 155.404221 106.200045 
L 157.035651 106.824769 
L 158.667081 102.139389 
L 160.298511 102.607908 
L 161.929941 102.764113 
L 163.56137 100.421423 
L 165.1928 104.482079 
L 166.82423 104.169671 
L 168.45566 94.642801 
L 170.08709 103.701151 
L 171.71852 98.078733 
L 173.34995 98.859661 
L 174.98138 100.733831 
L 176.61281 93.861966 
L 178.244239 91.67548 
L 179.875669 99.32818 
L 181.507099 90.426033 
L 183.138529 91.831591 
L 184.769959 94.01817 
L 186.401389 92.924834 
L 188.032819 88.551863 
L 189.664249 93.393447 
L 191.295678 92.768723 
L 192.927108 97.141694 
L 194.558538 98.391141 
L 196.189968 99.32818 
L 197.821398 90.113718 
L 201.084258 98.391141 
L 202.715688 85.11593 
L 204.347117 92.456315 
L 205.978547 88.864271 
L 207.609977 87.92714 
L 209.241407 92.612519 
L 210.872837 82.773334 
L 212.504267 81.836202 
L 214.135697 87.45862 
L 215.767127 81.992406 
L 217.398556 90.738349 
L 219.029986 86.833897 
L 220.661416 91.206961 
L 222.292846 86.209173 
L 223.924276 86.990101 
L 225.555706 88.395752 
L 227.187136 90.894553 
L 228.818566 90.113718 
L 230.449995 83.397964 
L 232.081425 84.178892 
L 235.344285 86.677786 
L 236.975715 85.740654 
L 238.607145 89.645106 
L 240.238575 83.241853 
L 241.870005 84.803615 
L 243.501434 88.239548 
L 245.132864 91.050757 
L 246.764294 86.990101 
L 248.395724 90.113718 
L 250.027154 86.521582 
L 251.658584 89.957514 
L 253.290014 89.488995 
L 254.921444 85.896858 
L 256.552873 83.710372 
L 258.184303 84.803615 
L 259.815733 84.022688 
L 261.447163 84.4913 
L 263.078593 86.521582 
L 264.710023 87.92714 
L 266.341453 83.866577 
L 267.972883 79.024993 
L 269.604312 84.335096 
L 271.235742 85.11593 
L 272.867172 89.176586 
L 274.498602 84.959819 
L 276.130032 85.428339 
L 277.761462 84.022688 
L 279.392892 87.92714 
L 281.024322 86.990101 
L 282.655751 88.239548 
L 284.287181 85.272135 
L 285.918611 81.055367 
L 287.550041 84.022688 
L 289.181471 83.397964 
L 290.812901 82.304721 
L 292.444331 82.61713 
L 294.075761 85.428339 
L 295.70719 82.304721 
L 297.33862 84.022688 
L 298.97005 84.959819 
L 300.60148 80.586755 
L 302.23291 83.241853 
L 303.86434 85.272135 
L 305.49577 81.680091 
L 307.1272 84.4913 
L 308.75863 84.959819 
L 310.390059 77.93175 
L 312.021489 78.244158 
L 313.652919 85.896858 
L 315.284349 79.337401 
L 316.915779 77.150916 
L 318.547209 79.493512 
L 320.178639 84.803615 
L 321.810069 81.523887 
L 323.441498 81.211479 
L 325.072928 78.868882 
L 326.704358 79.962125 
L 328.335788 79.962125 
L 329.967218 86.990101 
L 331.598648 82.929445 
L 333.230078 83.866577 
L 334.861508 80.742959 
L 336.492937 86.209173 
L 338.124367 87.92714 
L 339.755797 78.712678 
L 341.387227 80.430644 
L 343.018657 79.805921 
L 344.650087 80.27444 
L 346.281517 79.181197 
L 347.912947 81.992406 
L 349.544376 80.118236 
L 351.175806 82.773334 
L 352.807236 79.493512 
L 354.438666 81.367683 
L 356.070096 88.551863 
L 357.701526 76.994711 
L 359.332956 77.93175 
L 360.964386 78.400269 
L 362.595815 78.087954 
L 364.227245 75.58906 
L 365.858675 77.93175 
L 367.490105 81.523887 
L 369.121535 73.09026 
L 370.752965 79.024993 
L 372.384395 83.866577 
L 374.015825 74.027298 
L 377.278684 79.962125 
L 378.910114 79.805921 
L 380.541544 76.838507 
L 382.172974 79.337401 
L 383.804404 79.649716 
L 385.435834 81.367683 
L 387.067264 85.740654 
L 388.698693 83.710372 
L 390.330123 82.304721 
L 391.961553 76.838507 
L 393.592983 80.586755 
L 395.224413 85.11593 
L 396.855843 77.93175 
L 398.487273 84.959819 
L 398.487273 84.959819 
" style="fill:none;stroke:#8c564b;stroke-linecap:square;stroke-width:1.5;"/>
   </g>
   <g id="line2d_29">
    <path clip-path="url(#p3080a37b99)" d="M 73.832727 279.714081 
L 75.464157 242.54364 
L 77.095587 227.394351 
L 78.727017 197.876609 
L 81.989877 182.102691 
L 83.621307 171.013965 
L 85.252736 166.640994 
L 86.884166 165.391547 
L 88.515596 148.211977 
L 90.147026 148.836701 
L 91.778456 145.400768 
L 93.409886 139.77835 
L 95.041316 142.589559 
L 96.672746 141.027797 
L 98.304175 132.437966 
L 99.935605 137.748069 
L 103.198465 134.155932 
L 104.829895 130.095276 
L 106.461325 132.59417 
L 108.092755 122.911096 
L 109.724185 133.218893 
L 111.355614 125.878509 
L 112.987044 126.815547 
L 114.618474 120.72461 
L 116.249904 118.38192 
L 117.881334 123.692023 
L 119.512764 111.666259 
L 121.144194 116.351639 
L 122.775624 116.663954 
L 124.407053 117.601086 
L 126.038483 117.757197 
L 127.669913 107.918011 
L 129.301343 115.726915 
L 130.932773 113.07191 
L 132.564203 105.887637 
L 134.195633 112.447187 
L 135.827063 107.449492 
L 137.458492 110.573016 
L 139.089922 115.414507 
L 140.721352 109.792089 
L 142.352782 104.794394 
L 143.984212 105.263006 
L 145.615642 99.171976 
L 147.247072 104.794394 
L 148.878502 102.764113 
L 150.509931 97.45401 
L 152.141361 101.358461 
L 153.772791 104.638283 
L 155.404221 106.200045 
L 157.035651 106.824769 
L 158.667081 102.139389 
L 160.298511 102.607908 
L 161.929941 102.764113 
L 163.56137 100.421423 
L 165.1928 104.482079 
L 166.82423 104.169671 
L 168.45566 94.642801 
L 170.08709 103.701151 
L 171.71852 98.078733 
L 173.34995 98.859661 
L 174.98138 100.733831 
L 176.61281 93.861966 
L 178.244239 91.67548 
L 179.875669 99.32818 
L 181.507099 90.426033 
L 183.138529 91.831591 
L 184.769959 94.01817 
L 186.401389 92.924834 
L 188.032819 88.551863 
L 189.664249 93.393447 
L 191.295678 92.768723 
L 192.927108 97.141694 
L 194.558538 98.391141 
L 196.189968 99.32818 
L 197.821398 90.113718 
L 201.084258 98.391141 
L 202.715688 85.11593 
L 204.347117 92.456315 
L 205.978547 88.864271 
L 207.609977 87.92714 
L 209.241407 92.612519 
L 210.872837 82.773334 
L 212.504267 81.836202 
L 214.135697 87.45862 
L 215.767127 81.992406 
L 217.398556 90.738349 
L 219.029986 86.833897 
L 220.661416 91.206961 
L 222.292846 86.209173 
L 223.924276 86.990101 
L 225.555706 88.395752 
L 227.187136 90.894553 
L 228.818566 90.113718 
L 230.449995 83.397964 
L 232.081425 84.178892 
L 235.344285 86.677786 
L 236.975715 85.740654 
L 238.607145 89.645106 
L 240.238575 83.241853 
L 241.870005 84.803615 
L 243.501434 88.239548 
L 245.132864 91.050757 
L 246.764294 86.990101 
L 248.395724 90.113718 
L 250.027154 86.521582 
L 251.658584 89.957514 
L 253.290014 89.488995 
L 254.921444 85.896858 
L 256.552873 83.710372 
L 258.184303 84.803615 
L 259.815733 84.022688 
L 261.447163 84.4913 
L 263.078593 86.521582 
L 264.710023 87.92714 
L 266.341453 83.866577 
L 267.972883 79.024993 
L 269.604312 84.335096 
L 271.235742 85.11593 
L 272.867172 89.176586 
L 274.498602 84.959819 
L 276.130032 85.428339 
L 277.761462 84.022688 
L 279.392892 87.92714 
L 281.024322 86.990101 
L 282.655751 88.239548 
L 284.287181 85.272135 
L 285.918611 81.055367 
L 287.550041 84.022688 
L 289.181471 83.397964 
L 290.812901 82.304721 
L 292.444331 82.61713 
L 294.075761 85.428339 
L 295.70719 82.304721 
L 297.33862 84.022688 
L 298.97005 84.959819 
L 300.60148 80.586755 
L 302.23291 83.241853 
L 303.86434 85.272135 
L 305.49577 81.680091 
L 307.1272 84.4913 
L 308.75863 84.959819 
L 310.390059 77.93175 
L 312.021489 78.244158 
L 313.652919 85.896858 
L 315.284349 79.337401 
L 316.915779 77.150916 
L 318.547209 79.493512 
L 320.178639 84.803615 
L 321.810069 81.523887 
L 323.441498 81.211479 
L 325.072928 78.868882 
L 326.704358 79.962125 
L 328.335788 79.962125 
L 329.967218 86.990101 
L 331.598648 82.929445 
L 333.230078 83.866577 
L 334.861508 80.742959 
L 336.492937 86.209173 
L 338.124367 87.92714 
L 339.755797 78.712678 
L 341.387227 80.430644 
L 343.018657 79.805921 
L 344.650087 80.27444 
L 346.281517 79.181197 
L 347.912947 81.992406 
L 349.544376 80.118236 
L 351.175806 82.773334 
L 352.807236 79.493512 
L 354.438666 81.367683 
L 356.070096 88.551863 
L 357.701526 76.994711 
L 359.332956 77.93175 
L 360.964386 78.400269 
L 362.595815 78.087954 
L 364.227245 75.58906 
L 365.858675 77.93175 
L 367.490105 81.523887 
L 369.121535 73.09026 
L 370.752965 79.024993 
L 372.384395 83.866577 
L 374.015825 74.027298 
L 377.278684 79.962125 
L 378.910114 79.805921 
L 380.541544 76.838507 
L 382.172974 79.337401 
L 383.804404 79.649716 
L 385.435834 81.367683 
L 387.067264 85.740654 
L 388.698693 83.710372 
L 390.330123 82.304721 
L 391.961553 76.838507 
L 393.592983 80.586755 
L 395.224413 85.11593 
L 396.855843 77.93175 
L 398.487273 84.959819 
L 398.487273 84.959819 
" style="fill:none;stroke:#e377c2;stroke-linecap:square;stroke-width:1.5;"/>
   </g>
   <g id="line2d_30">
    <path clip-path="url(#p3080a37b99)" d="M 73.832727 295.488 
L 75.464157 236.452702 
L 77.095587 209.27765 
L 78.727017 201.156431 
L 80.358447 183.195933 
L 81.989877 171.482485 
L 83.621307 171.951097 
L 85.252736 160.862372 
L 86.884166 153.053468 
L 88.515596 153.053468 
L 90.147026 142.12104 
L 91.778456 137.748069 
L 93.409886 131.500927 
L 95.041316 133.687413 
L 96.672746 134.155932 
L 98.304175 128.221199 
L 99.935605 132.906485 
L 101.567035 128.37731 
L 103.198465 120.412202 
L 104.829895 118.069605 
L 106.461325 116.351639 
L 108.092755 119.162848 
L 109.724185 111.041536 
L 111.355614 119.318959 
L 112.987044 118.069605 
L 114.618474 120.256091 
L 116.249904 114.321264 
L 117.881334 116.195435 
L 119.512764 109.948293 
L 121.144194 110.416812 
L 122.775624 115.570711 
L 124.407053 109.635978 
L 126.038483 111.353944 
L 127.669913 102.607908 
L 129.301343 109.323569 
L 130.932773 106.668564 
L 132.564203 108.698846 
L 134.195633 111.822463 
L 135.827063 107.918011 
L 137.458492 107.137084 
L 139.089922 99.171976 
L 140.721352 108.85505 
L 142.352782 103.388836 
L 143.984212 106.200045 
L 145.615642 106.98088 
L 147.247072 99.796699 
L 148.878502 101.67087 
L 150.509931 110.260701 
L 152.141361 106.043841 
L 153.772791 96.829379 
L 155.404221 101.983185 
L 157.035651 101.358461 
L 158.667081 101.983185 
L 160.298511 104.638283 
L 161.929941 99.484384 
L 163.56137 102.607908 
L 165.1928 100.889942 
L 166.82423 100.577627 
L 168.45566 95.736043 
L 170.08709 101.046146 
L 171.71852 94.486689 
L 173.34995 95.736043 
L 174.98138 95.111413 
L 176.61281 99.952903 
L 178.244239 91.363072 
L 179.875669 92.768723 
L 181.507099 92.300204 
L 183.138529 92.612519 
L 184.769959 91.831591 
L 186.401389 93.237243 
L 188.032819 91.050757 
L 189.664249 89.957514 
L 191.295678 89.020382 
L 192.927108 92.612519 
L 194.558538 93.393447 
L 196.189968 90.582238 
L 197.821398 90.269829 
L 199.452828 93.393447 
L 201.084258 89.80131 
L 202.715688 85.896858 
L 204.347117 86.990101 
L 205.978547 87.45862 
L 207.609977 84.022688 
L 209.241407 90.269829 
L 210.872837 91.206961 
L 212.504267 86.990101 
L 215.767127 88.864271 
L 217.398556 87.302509 
L 219.029986 90.426033 
L 220.661416 90.113718 
L 222.292846 84.4913 
L 223.924276 88.239548 
L 225.555706 84.022688 
L 227.187136 88.864271 
L 228.818566 80.586755 
L 230.449995 84.647411 
L 232.081425 83.085649 
L 233.712855 87.614824 
L 235.344285 83.085649 
L 236.975715 84.803615 
L 238.607145 86.053062 
L 240.238575 86.833897 
L 241.870005 85.740654 
L 243.501434 77.463231 
L 245.132864 81.055367 
L 246.764294 86.209173 
L 248.395724 85.584543 
L 250.027154 89.332791 
L 251.658584 82.304721 
L 253.290014 80.742959 
L 254.921444 81.211479 
L 256.552873 80.118236 
L 258.184303 90.426033 
L 259.815733 82.304721 
L 261.447163 84.959819 
L 263.078593 86.833897 
L 264.710023 81.523887 
L 266.341453 82.14861 
L 267.972883 89.645106 
L 269.604312 83.085649 
L 271.235742 78.244158 
L 272.867172 79.962125 
L 274.498602 79.649716 
L 276.130032 81.055367 
L 277.761462 79.805921 
L 279.392892 76.526192 
L 281.024322 86.990101 
L 282.655751 81.211479 
L 284.287181 82.304721 
L 285.918611 80.899163 
L 287.550041 82.304721 
L 289.181471 79.181197 
L 290.812901 78.400269 
L 292.444331 78.087954 
L 294.075761 82.304721 
L 295.70719 78.712678 
L 297.33862 77.775639 
L 298.97005 83.085649 
L 300.60148 78.868882 
L 302.23291 82.304721 
L 303.86434 80.586755 
L 305.49577 79.337401 
L 307.1272 82.14861 
L 308.75863 78.244158 
L 310.390059 76.838507 
L 312.021489 77.150916 
L 313.652919 79.649716 
L 315.284349 79.181197 
L 316.915779 80.586755 
L 318.547209 78.244158 
L 320.178639 82.929445 
L 321.810069 77.463231 
L 323.441498 84.022688 
L 325.072928 79.493512 
L 326.704358 82.929445 
L 328.335788 74.96443 
L 329.967218 87.614824 
L 331.598648 77.463231 
L 333.230078 79.181197 
L 334.861508 74.183502 
L 336.492937 80.586755 
L 338.124367 72.309332 
L 339.755797 76.994711 
L 341.387227 79.962125 
L 343.018657 85.428339 
L 344.650087 78.868882 
L 346.281517 78.712678 
L 347.912947 81.211479 
L 349.544376 77.93175 
L 351.175806 81.211479 
L 352.807236 76.213784 
L 354.438666 77.93175 
L 356.070096 76.682303 
L 357.701526 84.803615 
L 359.332956 80.586755 
L 360.964386 71.528497 
L 362.595815 78.712678 
L 364.227245 77.150916 
L 365.858675 78.712678 
L 367.490105 75.745264 
L 369.121535 77.150916 
L 370.752965 75.120541 
L 372.384395 77.307027 
L 374.015825 77.150916 
L 375.647254 71.528497 
L 377.278684 82.61713 
L 378.910114 69.966642 
L 380.541544 78.556474 
L 382.172974 80.430644 
L 383.804404 78.087954 
L 385.435834 76.994711 
L 387.067264 75.58906 
L 388.698693 72.153221 
L 390.330123 79.649716 
L 391.961553 75.276745 
L 393.592983 75.901469 
L 395.224413 75.276745 
L 396.855843 79.962125 
L 398.487273 74.495818 
L 398.487273 74.495818 
" style="fill:none;stroke:#7f7f7f;stroke-linecap:square;stroke-width:1.5;"/>
   </g>
   <g id="line2d_31">
    <path clip-path="url(#p3080a37b99)" d="M 73.832727 286.585853 
L 75.464157 237.85826 
L 77.095587 213.338306 
L 78.727017 202.561989 
L 80.358447 186.319458 
L 81.989877 166.328679 
L 83.621307 173.200451 
L 85.252736 158.363571 
L 86.884166 154.771434 
L 88.515596 150.554667 
L 90.147026 147.118735 
L 91.778456 144.307526 
L 93.409886 135.56149 
L 95.041316 131.500927 
L 96.672746 131.500927 
L 98.304175 129.626757 
L 99.935605 130.563795 
L 101.567035 128.221199 
L 103.198465 132.281762 
L 104.829895 121.974057 
L 106.461325 119.318959 
L 108.092755 121.661649 
L 109.724185 126.971752 
L 111.355614 119.162848 
L 112.987044 117.444882 
L 114.618474 118.85044 
L 116.249904 121.193129 
L 117.881334 118.85044 
L 119.512764 117.444882 
L 121.144194 120.256091 
L 122.775624 111.666259 
L 124.407053 113.54043 
L 126.038483 113.07191 
L 127.669913 113.228021 
L 129.301343 110.260701 
L 130.932773 105.575322 
L 132.564203 107.605603 
L 134.195633 112.759502 
L 135.827063 105.106802 
L 137.458492 104.169671 
L 139.089922 109.323569 
L 140.721352 109.167458 
L 142.352782 106.98088 
L 143.984212 102.451797 
L 145.615642 103.232632 
L 147.247072 108.542735 
L 148.878502 101.20235 
L 150.509931 99.015865 
L 152.141361 105.731526 
L 153.772791 98.391141 
L 155.404221 106.51236 
L 157.035651 99.796699 
L 158.667081 106.043841 
L 160.298511 99.171976 
L 161.929941 104.482079 
L 163.56137 97.610214 
L 165.1928 102.764113 
L 166.82423 96.98549 
L 168.45566 97.297899 
L 170.08709 102.920317 
L 171.71852 101.20235 
L 173.34995 92.144 
L 174.98138 98.078733 
L 176.61281 96.516971 
L 178.244239 94.174281 
L 179.875669 97.922622 
L 181.507099 99.640588 
L 183.138529 101.67087 
L 184.769959 97.141694 
L 186.401389 98.703457 
L 188.032819 93.705762 
L 189.664249 95.579932 
L 191.295678 89.020382 
L 192.927108 92.456315 
L 194.558538 96.98549 
L 196.189968 98.391141 
L 197.821398 100.577627 
L 199.452828 94.642801 
L 201.084258 92.612519 
L 202.715688 96.360767 
L 204.347117 98.234937 
L 205.978547 94.799005 
L 207.609977 95.267524 
L 209.241407 95.267524 
L 210.872837 96.829379 
L 212.504267 94.486689 
L 214.135697 96.048452 
L 215.767127 95.892247 
L 217.398556 91.363072 
L 219.029986 95.579932 
L 220.661416 91.050757 
L 222.292846 91.363072 
L 223.924276 97.45401 
L 227.187136 88.395752 
L 228.818566 91.050757 
L 230.449995 91.67548 
L 232.081425 97.45401 
L 233.712855 92.924834 
L 235.344285 92.300204 
L 236.975715 94.174281 
L 238.607145 91.363072 
L 240.238575 91.987796 
L 241.870005 90.113718 
L 243.501434 93.705762 
L 245.132864 94.01817 
L 246.764294 92.456315 
L 248.395724 85.272135 
L 250.027154 92.456315 
L 251.658584 94.01817 
L 253.290014 90.582238 
L 254.921444 89.332791 
L 256.552873 84.803615 
L 258.184303 90.269829 
L 259.815733 82.460925 
L 261.447163 89.957514 
L 263.078593 86.677786 
L 264.710023 94.01817 
L 266.341453 85.272135 
L 267.972883 85.272135 
L 269.604312 87.92714 
L 271.235742 90.113718 
L 272.867172 85.740654 
L 274.498602 92.924834 
L 276.130032 90.113718 
L 277.761462 86.365377 
L 279.392892 91.987796 
L 281.024322 90.894553 
L 282.655751 90.738349 
L 284.287181 90.113718 
L 285.918611 95.579932 
L 287.550041 91.519276 
L 289.181471 86.990101 
L 292.444331 91.831591 
L 294.075761 94.799005 
L 295.70719 90.738349 
L 297.33862 87.614824 
L 298.97005 86.209173 
L 300.60148 93.705762 
L 302.23291 86.677786 
L 303.86434 84.4913 
L 305.49577 84.335096 
L 307.1272 84.803615 
L 308.75863 88.239548 
L 310.390059 82.460925 
L 312.021489 84.959819 
L 313.652919 86.833897 
L 315.284349 84.178892 
L 316.915779 89.020382 
L 318.547209 89.645106 
L 320.178639 83.554168 
L 321.810069 84.335096 
L 323.441498 89.645106 
L 325.072928 81.367683 
L 326.704358 80.899163 
L 328.335788 85.272135 
L 329.967218 88.864271 
L 331.598648 84.335096 
L 333.230078 93.081038 
L 336.492937 83.085649 
L 338.124367 87.45862 
L 339.755797 86.521582 
L 341.387227 85.896858 
L 343.018657 84.178892 
L 344.650087 89.332791 
L 347.912947 81.992406 
L 349.544376 87.45862 
L 351.175806 84.647411 
L 352.807236 79.649716 
L 354.438666 83.710372 
L 356.070096 89.176586 
L 357.701526 79.649716 
L 359.332956 83.554168 
L 360.964386 85.11593 
L 362.595815 87.614824 
L 364.227245 79.493512 
L 365.858675 84.178892 
L 367.490105 86.365377 
L 369.121535 91.519276 
L 370.752965 80.118236 
L 372.384395 83.241853 
L 374.015825 82.14861 
L 375.647254 85.428339 
L 377.278684 85.428339 
L 378.910114 85.272135 
L 380.541544 81.211479 
L 382.172974 83.554168 
L 383.804404 86.677786 
L 385.435834 83.710372 
L 387.067264 83.710372 
L 388.698693 81.523887 
L 390.330123 84.022688 
L 391.961553 84.959819 
L 393.592983 81.680091 
L 395.224413 85.428339 
L 396.855843 84.335096 
L 398.487273 84.647411 
L 398.487273 84.647411 
" style="fill:none;stroke:#bcbd22;stroke-linecap:square;stroke-width:1.5;"/>
   </g>
   <g id="line2d_32">
    <path clip-path="url(#p3080a37b99)" d="M 73.832727 267.688317 
L 75.464157 227.394351 
L 77.095587 212.713582 
L 78.727017 196.939571 
L 80.358447 176.636384 
L 81.989877 166.797198 
L 83.621307 164.142193 
L 85.252736 154.771434 
L 86.884166 147.274939 
L 88.515596 151.179391 
L 90.147026 150.242259 
L 91.778456 142.901874 
L 93.409886 146.181696 
L 95.041316 132.12565 
L 96.672746 136.810937 
L 98.304175 135.249175 
L 99.935605 129.470552 
L 101.567035 135.717694 
L 103.198465 131.500927 
L 104.829895 134.155932 
L 106.461325 128.845829 
L 108.092755 123.0673 
L 109.724185 125.409989 
L 111.355614 120.72461 
L 112.987044 120.568406 
L 114.618474 119.318959 
L 116.249904 121.349333 
L 117.881334 113.852745 
L 119.512764 124.629062 
L 121.144194 115.570711 
L 122.775624 112.447187 
L 124.407053 113.54043 
L 126.038483 112.134779 
L 127.669913 109.011254 
L 129.301343 112.290983 
L 130.932773 109.948293 
L 132.564203 109.948293 
L 134.195633 114.321264 
L 135.827063 104.794394 
L 137.458492 107.137084 
L 139.089922 104.325875 
L 140.721352 104.169671 
L 142.352782 105.887637 
L 143.984212 103.388836 
L 147.247072 104.01356 
L 148.878502 102.764113 
L 150.509931 107.293288 
L 152.141361 106.51236 
L 153.772791 97.922622 
L 155.404221 103.701151 
L 157.035651 100.265219 
L 158.667081 108.85505 
L 160.298511 109.323569 
L 161.929941 101.67087 
L 163.56137 102.764113 
L 165.1928 98.391141 
L 166.82423 100.421423 
L 168.45566 99.640588 
L 170.08709 106.98088 
L 171.71852 104.169671 
L 173.34995 101.046146 
L 174.98138 101.046146 
L 176.61281 99.171976 
L 178.244239 99.952903 
L 179.875669 93.237243 
L 183.138529 100.889942 
L 184.769959 101.514666 
L 186.401389 92.456315 
L 188.032819 95.736043 
L 189.664249 96.048452 
L 191.295678 88.551863 
L 192.927108 92.924834 
L 194.558538 94.955209 
L 196.189968 93.861966 
L 197.821398 90.113718 
L 199.452828 93.237243 
L 201.084258 91.050757 
L 202.715688 96.516971 
L 204.347117 90.738349 
L 205.978547 90.269829 
L 207.609977 91.206961 
L 209.241407 93.549558 
L 210.872837 92.924834 
L 212.504267 90.426033 
L 215.767127 96.204656 
L 217.398556 87.302509 
L 219.029986 87.45862 
L 220.661416 85.428339 
L 222.292846 93.081038 
L 223.924276 91.67548 
L 225.555706 89.176586 
L 227.187136 86.365377 
L 228.818566 89.332791 
L 230.449995 85.740654 
L 232.081425 90.269829 
L 233.712855 90.113718 
L 235.344285 88.864271 
L 236.975715 85.428339 
L 238.607145 90.269829 
L 240.238575 90.738349 
L 241.870005 86.677786 
L 243.501434 96.673175 
L 245.132864 89.957514 
L 246.764294 89.176586 
L 248.395724 90.582238 
L 250.027154 87.302509 
L 251.658584 85.272135 
L 253.290014 94.799005 
L 254.921444 86.053062 
L 256.552873 90.113718 
L 258.184303 88.083344 
L 259.815733 88.864271 
L 261.447163 87.45862 
L 263.078593 86.209173 
L 264.710023 90.738349 
L 266.341453 91.519276 
L 267.972883 94.642801 
L 269.604312 87.92714 
L 271.235742 89.80131 
L 272.867172 90.269829 
L 274.498602 84.647411 
L 276.130032 88.551863 
L 277.761462 84.647411 
L 279.392892 84.335096 
L 281.024322 83.866577 
L 282.655751 86.521582 
L 284.287181 83.241853 
L 285.918611 80.586755 
L 287.550041 83.866577 
L 289.181471 83.085649 
L 290.812901 84.178892 
L 292.444331 84.803615 
L 294.075761 84.022688 
L 295.70719 83.710372 
L 297.33862 80.899163 
L 298.97005 86.209173 
L 300.60148 90.269829 
L 302.23291 86.365377 
L 303.86434 87.614824 
L 305.49577 79.649716 
L 307.1272 83.241853 
L 308.75863 82.61713 
L 310.390059 83.866577 
L 312.021489 82.304721 
L 313.652919 84.022688 
L 315.284349 83.241853 
L 316.915779 84.178892 
L 318.547209 83.866577 
L 320.178639 78.556474 
L 321.810069 79.493512 
L 323.441498 82.460925 
L 325.072928 89.020382 
L 326.704358 80.27444 
L 328.335788 87.45862 
L 329.967218 80.586755 
L 331.598648 86.677786 
L 333.230078 85.11593 
L 334.861508 81.836202 
L 336.492937 84.178892 
L 338.124367 82.773334 
L 339.755797 80.27444 
L 341.387227 81.523887 
L 343.018657 75.432949 
L 344.650087 79.962125 
L 346.281517 82.929445 
L 347.912947 81.992406 
L 349.544376 81.523887 
L 351.175806 80.118236 
L 352.807236 77.93175 
L 354.438666 81.680091 
L 356.070096 81.055367 
L 357.701526 86.365377 
L 359.332956 80.27444 
L 360.964386 83.554168 
L 362.595815 79.962125 
L 364.227245 84.959819 
L 365.858675 76.369988 
L 367.490105 79.805921 
L 369.121535 89.020382 
L 370.752965 82.61713 
L 372.384395 83.397964 
L 374.015825 78.712678 
L 375.647254 79.181197 
L 377.278684 80.118236 
L 378.910114 76.213784 
L 380.541544 79.181197 
L 382.172974 80.742959 
L 383.804404 80.742959 
L 385.435834 78.400269 
L 387.067264 75.432949 
L 388.698693 82.929445 
L 390.330123 81.836202 
L 391.961553 79.337401 
L 393.592983 82.14861 
L 395.224413 78.244158 
L 396.855843 73.402575 
L 398.487273 79.649716 
L 398.487273 79.649716 
" style="fill:none;stroke:#17becf;stroke-linecap:square;stroke-width:1.5;"/>
   </g>
   <g id="patch_3">
    <path d="M 57.6 307.584 
L 57.6 41.472 
" style="fill:none;stroke:#000000;stroke-linecap:square;stroke-linejoin:miter;stroke-width:0.8;"/>
   </g>
   <g id="patch_4">
    <path d="M 414.72 307.584 
L 414.72 41.472 
" style="fill:none;stroke:#000000;stroke-linecap:square;stroke-linejoin:miter;stroke-width:0.8;"/>
   </g>
   <g id="patch_5">
    <path d="M 57.6 307.584 
L 414.72 307.584 
" style="fill:none;stroke:#000000;stroke-linecap:square;stroke-linejoin:miter;stroke-width:0.8;"/>
   </g>
   <g id="patch_6">
    <path d="M 57.6 41.472 
L 414.72 41.472 
" style="fill:none;stroke:#000000;stroke-linecap:square;stroke-linejoin:miter;stroke-width:0.8;"/>
   </g>
   <g id="legend_1">
    <g id="patch_7">
     <path d="M 118.470938 298.584 
L 353.849062 298.584 
Q 357.449062 298.584 357.449062 294.984 
L 357.449062 164.680875 
Q 357.449062 161.080875 353.849062 161.080875 
L 118.470938 161.080875 
Q 114.870938 161.080875 114.870938 164.680875 
L 114.870938 294.984 
Q 114.870938 298.584 118.470938 298.584 
z
" style="fill:#ffffff;opacity:0.8;stroke:#cccccc;stroke-linejoin:miter;"/>
    </g>
    <g id="line2d_33">
     <path d="M 122.070938 175.658062 
L 158.070938 175.658062 
" style="fill:none;stroke:#1f77b4;stroke-linecap:square;stroke-width:1.5;"/>
    </g>
    <g id="line2d_34"/>
    <g id="text_14">
     <!-- SET * -->
     <defs>
      <path d="M 59.90625 70.609375 
L 59.90625 55.171875 
Q 53.90625 57.859375 48.1875 59.21875 
Q 42.484375 60.59375 37.40625 60.59375 
Q 30.671875 60.59375 27.4375 58.734375 
Q 24.21875 56.890625 24.21875 52.984375 
Q 24.21875 50.046875 26.390625 48.40625 
Q 28.5625 46.78125 34.28125 45.609375 
L 42.28125 44 
Q 54.4375 41.546875 59.5625 36.5625 
Q 64.703125 31.59375 64.703125 22.40625 
Q 64.703125 10.359375 57.546875 4.46875 
Q 50.390625 -1.421875 35.6875 -1.421875 
Q 28.765625 -1.421875 21.78125 -0.09375 
Q 14.796875 1.21875 7.8125 3.8125 
L 7.8125 19.671875 
Q 14.796875 15.96875 21.3125 14.078125 
Q 27.828125 12.203125 33.890625 12.203125 
Q 40.046875 12.203125 43.3125 14.25 
Q 46.578125 16.3125 46.578125 20.125 
Q 46.578125 23.53125 44.359375 25.390625 
Q 42.140625 27.25 35.5 28.71875 
L 28.21875 30.328125 
Q 17.28125 32.671875 12.21875 37.796875 
Q 7.171875 42.921875 7.171875 51.609375 
Q 7.171875 62.5 14.203125 68.359375 
Q 21.234375 74.21875 34.421875 74.21875 
Q 40.4375 74.21875 46.78125 73.3125 
Q 53.125 72.40625 59.90625 70.609375 
z
" id="DejaVuSans-Bold-83"/>
      <path d="M 9.1875 72.90625 
L 59.90625 72.90625 
L 59.90625 58.6875 
L 27.984375 58.6875 
L 27.984375 45.125 
L 58.015625 45.125 
L 58.015625 30.90625 
L 27.984375 30.90625 
L 27.984375 14.203125 
L 60.984375 14.203125 
L 60.984375 0 
L 9.1875 0 
z
" id="DejaVuSans-Bold-69"/>
      <path d="M 0.484375 72.90625 
L 67.671875 72.90625 
L 67.671875 58.6875 
L 43.5 58.6875 
L 43.5 0 
L 24.703125 0 
L 24.703125 58.6875 
L 0.484375 58.6875 
z
" id="DejaVuSans-Bold-84"/>
      <path id="DejaVuSans-Bold-32"/>
      <path d="M 50.296875 59.421875 
L 34.1875 50.984375 
L 50.296875 42.484375 
L 46.578125 35.59375 
L 30.328125 44.578125 
L 30.328125 27.78125 
L 22.015625 27.78125 
L 22.015625 44.578125 
L 5.71875 35.59375 
L 2 42.484375 
L 18.3125 50.984375 
L 2 59.421875 
L 5.71875 66.3125 
L 22.015625 57.421875 
L 22.015625 74.21875 
L 30.328125 74.21875 
L 30.328125 57.421875 
L 46.578125 66.3125 
z
" id="DejaVuSans-Bold-42"/>
     </defs>
     <g transform="translate(172.470938 181.958062)scale(0.18 -0.18)">
      <use xlink:href="#DejaVuSans-Bold-83"/>
      <use x="72.021484" xlink:href="#DejaVuSans-Bold-69"/>
      <use x="140.332031" xlink:href="#DejaVuSans-Bold-84"/>
      <use x="208.544922" xlink:href="#DejaVuSans-Bold-32"/>
      <use x="243.359375" xlink:href="#DejaVuSans-Bold-42"/>
     </g>
    </g>
    <g id="line2d_35">
     <path d="M 122.070938 202.078687 
L 158.070938 202.078687 
" style="fill:none;stroke:#ff7f0e;stroke-linecap:square;stroke-width:1.5;"/>
    </g>
    <g id="line2d_36"/>
    <g id="text_15">
     <!--  $ 2.1$ -->
     <g transform="translate(172.470938 208.378687)scale(0.18 -0.18)">
      <use transform="translate(0 0.78125)" xlink:href="#DejaVuSans-Bold-32"/>
      <use transform="translate(34.814453 0.78125)" xlink:href="#DejaVuSans-Bold-50"/>
      <use transform="translate(104.394531 0.78125)" xlink:href="#DejaVuSans-Bold-46"/>
      <use transform="translate(142.382812 0.78125)" xlink:href="#DejaVuSans-Bold-49"/>
     </g>
    </g>
    <g id="line2d_37">
     <path d="M 122.070938 228.499312 
L 158.070938 228.499312 
" style="fill:none;stroke:#2ca02c;stroke-linecap:square;stroke-width:1.5;"/>
    </g>
    <g id="line2d_38"/>
    <g id="text_16">
     <!--  $ 2.2$ -->
     <g transform="translate(172.470938 234.799312)scale(0.18 -0.18)">
      <use transform="translate(0 0.78125)" xlink:href="#DejaVuSans-Bold-32"/>
      <use transform="translate(34.814453 0.78125)" xlink:href="#DejaVuSans-Bold-50"/>
      <use transform="translate(104.394531 0.78125)" xlink:href="#DejaVuSans-Bold-46"/>
      <use transform="translate(142.320312 0.78125)" xlink:href="#DejaVuSans-Bold-50"/>
     </g>
    </g>
    <g id="line2d_39">
     <path d="M 122.070938 254.919937 
L 158.070938 254.919937 
" style="fill:none;stroke:#d62728;stroke-linecap:square;stroke-width:1.5;"/>
    </g>
    <g id="line2d_40"/>
    <g id="text_17">
     <!--  $ 2.3$ -->
     <defs>
      <path d="M 46.578125 39.3125 
Q 53.953125 37.40625 57.78125 32.6875 
Q 61.625 27.984375 61.625 20.703125 
Q 61.625 9.859375 53.3125 4.21875 
Q 45.015625 -1.421875 29.109375 -1.421875 
Q 23.484375 -1.421875 17.84375 -0.515625 
Q 12.203125 0.390625 6.6875 2.203125 
L 6.6875 16.703125 
Q 11.96875 14.0625 17.15625 12.71875 
Q 22.359375 11.375 27.390625 11.375 
Q 34.859375 11.375 38.84375 13.953125 
Q 42.828125 16.546875 42.828125 21.390625 
Q 42.828125 26.375 38.75 28.9375 
Q 34.671875 31.5 26.703125 31.5 
L 19.1875 31.5 
L 19.1875 43.609375 
L 27.09375 43.609375 
Q 34.1875 43.609375 37.640625 45.828125 
Q 41.109375 48.046875 41.109375 52.59375 
Q 41.109375 56.78125 37.734375 59.078125 
Q 34.375 61.375 28.21875 61.375 
Q 23.6875 61.375 19.046875 60.34375 
Q 14.40625 59.328125 9.8125 57.328125 
L 9.8125 71.09375 
Q 15.375 72.65625 20.84375 73.4375 
Q 26.3125 74.21875 31.59375 74.21875 
Q 45.796875 74.21875 52.84375 69.546875 
Q 59.90625 64.890625 59.90625 55.515625 
Q 59.90625 49.125 56.53125 45.046875 
Q 53.171875 40.96875 46.578125 39.3125 
z
" id="DejaVuSans-Bold-51"/>
     </defs>
     <g transform="translate(172.470938 261.219937)scale(0.18 -0.18)">
      <use transform="translate(0 0.78125)" xlink:href="#DejaVuSans-Bold-32"/>
      <use transform="translate(34.814453 0.78125)" xlink:href="#DejaVuSans-Bold-50"/>
      <use transform="translate(104.394531 0.78125)" xlink:href="#DejaVuSans-Bold-46"/>
      <use transform="translate(142.382812 0.78125)" xlink:href="#DejaVuSans-Bold-51"/>
     </g>
    </g>
    <g id="line2d_41">
     <path d="M 122.070938 281.340562 
L 158.070938 281.340562 
" style="fill:none;stroke:#9467bd;stroke-linecap:square;stroke-width:1.5;"/>
    </g>
    <g id="line2d_42"/>
    <g id="text_18">
     <!--  $ 2.4$ -->
     <defs>
      <path d="M 36.8125 57.421875 
L 16.21875 26.90625 
L 36.8125 26.90625 
z
M 33.6875 72.90625 
L 54.59375 72.90625 
L 54.59375 26.90625 
L 64.984375 26.90625 
L 64.984375 13.28125 
L 54.59375 13.28125 
L 54.59375 0 
L 36.8125 0 
L 36.8125 13.28125 
L 4.5 13.28125 
L 4.5 29.390625 
z
" id="DejaVuSans-Bold-52"/>
     </defs>
     <g transform="translate(172.470938 287.640562)scale(0.18 -0.18)">
      <use transform="translate(0 0.78125)" xlink:href="#DejaVuSans-Bold-32"/>
      <use transform="translate(34.814453 0.78125)" xlink:href="#DejaVuSans-Bold-50"/>
      <use transform="translate(104.394531 0.78125)" xlink:href="#DejaVuSans-Bold-46"/>
      <use transform="translate(142.382812 0.78125)" xlink:href="#DejaVuSans-Bold-52"/>
     </g>
    </g>
    <g id="line2d_43">
     <path d="M 261.689062 175.658062 
L 297.689062 175.658062 
" style="fill:none;stroke:#8c564b;stroke-linecap:square;stroke-width:1.5;"/>
    </g>
    <g id="line2d_44"/>
    <g id="text_19">
     <!--  $ 2.5$ -->
     <g transform="translate(312.089062 181.958062)scale(0.18 -0.18)">
      <use transform="translate(0 0.78125)" xlink:href="#DejaVuSans-Bold-32"/>
      <use transform="translate(34.814453 0.78125)" xlink:href="#DejaVuSans-Bold-50"/>
      <use transform="translate(104.394531 0.78125)" xlink:href="#DejaVuSans-Bold-46"/>
      <use transform="translate(142.382812 0.78125)" xlink:href="#DejaVuSans-Bold-53"/>
     </g>
    </g>
    <g id="line2d_45">
     <path d="M 261.689062 202.078687 
L 297.689062 202.078687 
" style="fill:none;stroke:#e377c2;stroke-linecap:square;stroke-width:1.5;"/>
    </g>
    <g id="line2d_46"/>
    <g id="text_20">
     <!--  $ 2.6$ -->
     <defs>
      <path d="M 36.1875 35.984375 
Q 31.25 35.984375 28.78125 32.78125 
Q 26.3125 29.59375 26.3125 23.1875 
Q 26.3125 16.796875 28.78125 13.59375 
Q 31.25 10.40625 36.1875 10.40625 
Q 41.15625 10.40625 43.625 13.59375 
Q 46.09375 16.796875 46.09375 23.1875 
Q 46.09375 29.59375 43.625 32.78125 
Q 41.15625 35.984375 36.1875 35.984375 
z
M 59.421875 71 
L 59.421875 57.515625 
Q 54.78125 59.71875 50.671875 60.765625 
Q 46.578125 61.8125 42.671875 61.8125 
Q 34.28125 61.8125 29.59375 57.140625 
Q 24.90625 52.484375 24.125 43.3125 
Q 27.34375 45.703125 31.09375 46.890625 
Q 34.859375 48.09375 39.3125 48.09375 
Q 50.484375 48.09375 57.34375 41.546875 
Q 64.203125 35.015625 64.203125 24.421875 
Q 64.203125 12.703125 56.53125 5.640625 
Q 48.875 -1.421875 35.984375 -1.421875 
Q 21.78125 -1.421875 13.984375 8.171875 
Q 6.203125 17.78125 6.203125 35.40625 
Q 6.203125 53.46875 15.3125 63.796875 
Q 24.421875 74.125 40.28125 74.125 
Q 45.3125 74.125 50.046875 73.34375 
Q 54.78125 72.5625 59.421875 71 
z
" id="DejaVuSans-Bold-54"/>
     </defs>
     <g transform="translate(312.089062 208.378687)scale(0.18 -0.18)">
      <use transform="translate(0 0.78125)" xlink:href="#DejaVuSans-Bold-32"/>
      <use transform="translate(34.814453 0.78125)" xlink:href="#DejaVuSans-Bold-50"/>
      <use transform="translate(104.394531 0.78125)" xlink:href="#DejaVuSans-Bold-46"/>
      <use transform="translate(142.382812 0.78125)" xlink:href="#DejaVuSans-Bold-54"/>
     </g>
    </g>
    <g id="line2d_47">
     <path d="M 261.689062 228.499312 
L 297.689062 228.499312 
" style="fill:none;stroke:#7f7f7f;stroke-linecap:square;stroke-width:1.5;"/>
    </g>
    <g id="line2d_48"/>
    <g id="text_21">
     <!--  $ 2.7$ -->
     <g transform="translate(312.089062 234.799312)scale(0.18 -0.18)">
      <use transform="translate(0 0.78125)" xlink:href="#DejaVuSans-Bold-32"/>
      <use transform="translate(34.814453 0.78125)" xlink:href="#DejaVuSans-Bold-50"/>
      <use transform="translate(104.394531 0.78125)" xlink:href="#DejaVuSans-Bold-46"/>
      <use transform="translate(142.382812 0.78125)" xlink:href="#DejaVuSans-Bold-55"/>
     </g>
    </g>
    <g id="line2d_49">
     <path d="M 261.689062 254.919937 
L 297.689062 254.919937 
" style="fill:none;stroke:#bcbd22;stroke-linecap:square;stroke-width:1.5;"/>
    </g>
    <g id="line2d_50"/>
    <g id="text_22">
     <!--  $ 2.8$ -->
     <g transform="translate(312.089062 261.219937)scale(0.18 -0.18)">
      <use transform="translate(0 0.78125)" xlink:href="#DejaVuSans-Bold-32"/>
      <use transform="translate(34.814453 0.78125)" xlink:href="#DejaVuSans-Bold-50"/>
      <use transform="translate(104.394531 0.78125)" xlink:href="#DejaVuSans-Bold-46"/>
      <use transform="translate(142.367188 0.78125)" xlink:href="#DejaVuSans-Bold-56"/>
     </g>
    </g>
    <g id="line2d_51">
     <path d="M 261.689062 281.340562 
L 297.689062 281.340562 
" style="fill:none;stroke:#17becf;stroke-linecap:square;stroke-width:1.5;"/>
    </g>
    <g id="line2d_52"/>
    <g id="text_23">
     <!--  $ 3$ -->
     <g transform="translate(312.089062 287.640562)scale(0.18 -0.18)">
      <use transform="translate(0 0.78125)" xlink:href="#DejaVuSans-Bold-32"/>
      <use transform="translate(34.814453 0.78125)" xlink:href="#DejaVuSans-Bold-51"/>
     </g>
    </g>
   </g>
  </g>
 </g>
 <defs>
  <clipPath id="p3080a37b99">
   <rect height="266.112" width="357.12" x="57.6" y="41.472"/>
  </clipPath>
 </defs>
</svg>
