<?xml version="1.0" encoding="utf-8" standalone="no"?>
<!DOCTYPE svg PUBLIC "-//W3C//DTD SVG 1.1//EN"
  "http://www.w3.org/Graphics/SVG/1.1/DTD/svg11.dtd">
<!-- Created with matplotlib (https://matplotlib.org/) -->
<svg height="345.6pt" version="1.1" viewBox="0 0 460.8 345.6" width="460.8pt" xmlns="http://www.w3.org/2000/svg" xmlns:xlink="http://www.w3.org/1999/xlink">
 <defs>
  <style type="text/css">
*{stroke-linecap:butt;stroke-linejoin:round;}
  </style>
 </defs>
 <g id="figure_1">
  <g id="patch_1">
   <path d="M 0 345.6 
L 460.8 345.6 
L 460.8 0 
L 0 0 
z
" style="fill:#ffffff;"/>
  </g>
  <g id="axes_1">
   <g id="patch_2">
    <path d="M 57.6 307.584 
L 414.72 307.584 
L 414.72 41.472 
L 57.6 41.472 
z
" style="fill:#ffffff;"/>
   </g>
   <g id="matplotlib.axis_1">
    <g id="xtick_1">
     <g id="line2d_1">
      <path clip-path="url(#p69443c803a)" d="M 73.832727 307.584 
L 73.832727 41.472 
" style="fill:none;stroke:#b0b0b0;stroke-linecap:square;stroke-width:0.8;"/>
     </g>
     <g id="line2d_2">
      <defs>
       <path d="M 0 0 
L 0 3.5 
" id="m9cb39e1dfe" style="stroke:#000000;stroke-width:0.8;"/>
      </defs>
      <g>
       <use style="stroke:#000000;stroke-width:0.8;" x="73.832727" xlink:href="#m9cb39e1dfe" y="307.584"/>
      </g>
     </g>
     <g id="text_1">
      <!-- 0 -->
      <defs>
       <path d="M 46 36.53125 
Q 46 50.203125 43.4375 55.78125 
Q 40.875 61.375 34.8125 61.375 
Q 28.765625 61.375 26.171875 55.78125 
Q 23.578125 50.203125 23.578125 36.53125 
Q 23.578125 22.703125 26.171875 17.03125 
Q 28.765625 11.375 34.8125 11.375 
Q 40.828125 11.375 43.40625 17.03125 
Q 46 22.703125 46 36.53125 
z
M 64.796875 36.375 
Q 64.796875 18.265625 56.984375 8.421875 
Q 49.171875 -1.421875 34.8125 -1.421875 
Q 20.40625 -1.421875 12.59375 8.421875 
Q 4.78125 18.265625 4.78125 36.375 
Q 4.78125 54.546875 12.59375 64.375 
Q 20.40625 74.21875 34.8125 74.21875 
Q 49.171875 74.21875 56.984375 64.375 
Q 64.796875 54.546875 64.796875 36.375 
z
" id="DejaVuSans-Bold-48"/>
      </defs>
      <g transform="translate(67.570696 328.261187)scale(0.18 -0.18)">
       <use xlink:href="#DejaVuSans-Bold-48"/>
      </g>
     </g>
    </g>
    <g id="xtick_2">
     <g id="line2d_3">
      <path clip-path="url(#p69443c803a)" d="M 155.199781 307.584 
L 155.199781 41.472 
" style="fill:none;stroke:#b0b0b0;stroke-linecap:square;stroke-width:0.8;"/>
     </g>
     <g id="line2d_4">
      <g>
       <use style="stroke:#000000;stroke-width:0.8;" x="155.199781" xlink:href="#m9cb39e1dfe" y="307.584"/>
      </g>
     </g>
     <g id="text_2">
      <!-- 100 -->
      <defs>
       <path d="M 11.71875 12.984375 
L 28.328125 12.984375 
L 28.328125 60.109375 
L 11.28125 56.59375 
L 11.28125 69.390625 
L 28.21875 72.90625 
L 46.09375 72.90625 
L 46.09375 12.984375 
L 62.703125 12.984375 
L 62.703125 0 
L 11.71875 0 
z
" id="DejaVuSans-Bold-49"/>
      </defs>
      <g transform="translate(136.413688 328.261187)scale(0.18 -0.18)">
       <use xlink:href="#DejaVuSans-Bold-49"/>
       <use x="69.580078" xlink:href="#DejaVuSans-Bold-48"/>
       <use x="139.160156" xlink:href="#DejaVuSans-Bold-48"/>
      </g>
     </g>
    </g>
    <g id="xtick_3">
     <g id="line2d_5">
      <path clip-path="url(#p69443c803a)" d="M 236.566835 307.584 
L 236.566835 41.472 
" style="fill:none;stroke:#b0b0b0;stroke-linecap:square;stroke-width:0.8;"/>
     </g>
     <g id="line2d_6">
      <g>
       <use style="stroke:#000000;stroke-width:0.8;" x="236.566835" xlink:href="#m9cb39e1dfe" y="307.584"/>
      </g>
     </g>
     <g id="text_3">
      <!-- 200 -->
      <defs>
       <path d="M 28.8125 13.8125 
L 60.890625 13.8125 
L 60.890625 0 
L 7.90625 0 
L 7.90625 13.8125 
L 34.515625 37.3125 
Q 38.09375 40.53125 39.796875 43.609375 
Q 41.5 46.6875 41.5 50 
Q 41.5 55.125 38.0625 58.25 
Q 34.625 61.375 28.90625 61.375 
Q 24.515625 61.375 19.28125 59.5 
Q 14.0625 57.625 8.109375 53.90625 
L 8.109375 69.921875 
Q 14.453125 72.015625 20.65625 73.109375 
Q 26.859375 74.21875 32.8125 74.21875 
Q 45.90625 74.21875 53.15625 68.453125 
Q 60.40625 62.703125 60.40625 52.390625 
Q 60.40625 46.4375 57.328125 41.28125 
Q 54.25 36.140625 44.390625 27.484375 
z
" id="DejaVuSans-Bold-50"/>
      </defs>
      <g transform="translate(217.780742 328.261187)scale(0.18 -0.18)">
       <use xlink:href="#DejaVuSans-Bold-50"/>
       <use x="69.580078" xlink:href="#DejaVuSans-Bold-48"/>
       <use x="139.160156" xlink:href="#DejaVuSans-Bold-48"/>
      </g>
     </g>
    </g>
    <g id="xtick_4">
     <g id="line2d_7">
      <path clip-path="url(#p69443c803a)" d="M 317.933889 307.584 
L 317.933889 41.472 
" style="fill:none;stroke:#b0b0b0;stroke-linecap:square;stroke-width:0.8;"/>
     </g>
     <g id="line2d_8">
      <g>
       <use style="stroke:#000000;stroke-width:0.8;" x="317.933889" xlink:href="#m9cb39e1dfe" y="307.584"/>
      </g>
     </g>
     <g id="text_4">
      <!-- 300 -->
      <defs>
       <path d="M 46.578125 39.3125 
Q 53.953125 37.40625 57.78125 32.6875 
Q 61.625 27.984375 61.625 20.703125 
Q 61.625 9.859375 53.3125 4.21875 
Q 45.015625 -1.421875 29.109375 -1.421875 
Q 23.484375 -1.421875 17.84375 -0.515625 
Q 12.203125 0.390625 6.6875 2.203125 
L 6.6875 16.703125 
Q 11.96875 14.0625 17.15625 12.71875 
Q 22.359375 11.375 27.390625 11.375 
Q 34.859375 11.375 38.84375 13.953125 
Q 42.828125 16.546875 42.828125 21.390625 
Q 42.828125 26.375 38.75 28.9375 
Q 34.671875 31.5 26.703125 31.5 
L 19.1875 31.5 
L 19.1875 43.609375 
L 27.09375 43.609375 
Q 34.1875 43.609375 37.640625 45.828125 
Q 41.109375 48.046875 41.109375 52.59375 
Q 41.109375 56.78125 37.734375 59.078125 
Q 34.375 61.375 28.21875 61.375 
Q 23.6875 61.375 19.046875 60.34375 
Q 14.40625 59.328125 9.8125 57.328125 
L 9.8125 71.09375 
Q 15.375 72.65625 20.84375 73.4375 
Q 26.3125 74.21875 31.59375 74.21875 
Q 45.796875 74.21875 52.84375 69.546875 
Q 59.90625 64.890625 59.90625 55.515625 
Q 59.90625 49.125 56.53125 45.046875 
Q 53.171875 40.96875 46.578125 39.3125 
z
" id="DejaVuSans-Bold-51"/>
      </defs>
      <g transform="translate(299.147796 328.261187)scale(0.18 -0.18)">
       <use xlink:href="#DejaVuSans-Bold-51"/>
       <use x="69.580078" xlink:href="#DejaVuSans-Bold-48"/>
       <use x="139.160156" xlink:href="#DejaVuSans-Bold-48"/>
      </g>
     </g>
    </g>
    <g id="xtick_5">
     <g id="line2d_9">
      <path clip-path="url(#p69443c803a)" d="M 399.300943 307.584 
L 399.300943 41.472 
" style="fill:none;stroke:#b0b0b0;stroke-linecap:square;stroke-width:0.8;"/>
     </g>
     <g id="line2d_10">
      <g>
       <use style="stroke:#000000;stroke-width:0.8;" x="399.300943" xlink:href="#m9cb39e1dfe" y="307.584"/>
      </g>
     </g>
     <g id="text_5">
      <!-- 400 -->
      <defs>
       <path d="M 36.8125 57.421875 
L 16.21875 26.90625 
L 36.8125 26.90625 
z
M 33.6875 72.90625 
L 54.59375 72.90625 
L 54.59375 26.90625 
L 64.984375 26.90625 
L 64.984375 13.28125 
L 54.59375 13.28125 
L 54.59375 0 
L 36.8125 0 
L 36.8125 13.28125 
L 4.5 13.28125 
L 4.5 29.390625 
z
" id="DejaVuSans-Bold-52"/>
      </defs>
      <g transform="translate(380.51485 328.261187)scale(0.18 -0.18)">
       <use xlink:href="#DejaVuSans-Bold-52"/>
       <use x="69.580078" xlink:href="#DejaVuSans-Bold-48"/>
       <use x="139.160156" xlink:href="#DejaVuSans-Bold-48"/>
      </g>
     </g>
    </g>
    <g id="text_6">
     <!-- Epoch[#] -->
     <defs>
      <path d="M 9.8125 72.90625 
L 55.90625 72.90625 
L 55.90625 64.59375 
L 19.671875 64.59375 
L 19.671875 43.015625 
L 54.390625 43.015625 
L 54.390625 34.71875 
L 19.671875 34.71875 
L 19.671875 8.296875 
L 56.78125 8.296875 
L 56.78125 0 
L 9.8125 0 
z
" id="DejaVuSans-69"/>
      <path d="M 18.109375 8.203125 
L 18.109375 -20.796875 
L 9.078125 -20.796875 
L 9.078125 54.6875 
L 18.109375 54.6875 
L 18.109375 46.390625 
Q 20.953125 51.265625 25.265625 53.625 
Q 29.59375 56 35.59375 56 
Q 45.5625 56 51.78125 48.09375 
Q 58.015625 40.1875 58.015625 27.296875 
Q 58.015625 14.40625 51.78125 6.484375 
Q 45.5625 -1.421875 35.59375 -1.421875 
Q 29.59375 -1.421875 25.265625 0.953125 
Q 20.953125 3.328125 18.109375 8.203125 
z
M 48.6875 27.296875 
Q 48.6875 37.203125 44.609375 42.84375 
Q 40.53125 48.484375 33.40625 48.484375 
Q 26.265625 48.484375 22.1875 42.84375 
Q 18.109375 37.203125 18.109375 27.296875 
Q 18.109375 17.390625 22.1875 11.75 
Q 26.265625 6.109375 33.40625 6.109375 
Q 40.53125 6.109375 44.609375 11.75 
Q 48.6875 17.390625 48.6875 27.296875 
z
" id="DejaVuSans-112"/>
      <path d="M 30.609375 48.390625 
Q 23.390625 48.390625 19.1875 42.75 
Q 14.984375 37.109375 14.984375 27.296875 
Q 14.984375 17.484375 19.15625 11.84375 
Q 23.34375 6.203125 30.609375 6.203125 
Q 37.796875 6.203125 41.984375 11.859375 
Q 46.1875 17.53125 46.1875 27.296875 
Q 46.1875 37.015625 41.984375 42.703125 
Q 37.796875 48.390625 30.609375 48.390625 
z
M 30.609375 56 
Q 42.328125 56 49.015625 48.375 
Q 55.71875 40.765625 55.71875 27.296875 
Q 55.71875 13.875 49.015625 6.21875 
Q 42.328125 -1.421875 30.609375 -1.421875 
Q 18.84375 -1.421875 12.171875 6.21875 
Q 5.515625 13.875 5.515625 27.296875 
Q 5.515625 40.765625 12.171875 48.375 
Q 18.84375 56 30.609375 56 
z
" id="DejaVuSans-111"/>
      <path d="M 48.78125 52.59375 
L 48.78125 44.1875 
Q 44.96875 46.296875 41.140625 47.34375 
Q 37.3125 48.390625 33.40625 48.390625 
Q 24.65625 48.390625 19.8125 42.84375 
Q 14.984375 37.3125 14.984375 27.296875 
Q 14.984375 17.28125 19.8125 11.734375 
Q 24.65625 6.203125 33.40625 6.203125 
Q 37.3125 6.203125 41.140625 7.25 
Q 44.96875 8.296875 48.78125 10.40625 
L 48.78125 2.09375 
Q 45.015625 0.34375 40.984375 -0.53125 
Q 36.96875 -1.421875 32.421875 -1.421875 
Q 20.0625 -1.421875 12.78125 6.34375 
Q 5.515625 14.109375 5.515625 27.296875 
Q 5.515625 40.671875 12.859375 48.328125 
Q 20.21875 56 33.015625 56 
Q 37.15625 56 41.109375 55.140625 
Q 45.0625 54.296875 48.78125 52.59375 
z
" id="DejaVuSans-99"/>
      <path d="M 54.890625 33.015625 
L 54.890625 0 
L 45.90625 0 
L 45.90625 32.71875 
Q 45.90625 40.484375 42.875 44.328125 
Q 39.84375 48.1875 33.796875 48.1875 
Q 26.515625 48.1875 22.3125 43.546875 
Q 18.109375 38.921875 18.109375 30.90625 
L 18.109375 0 
L 9.078125 0 
L 9.078125 75.984375 
L 18.109375 75.984375 
L 18.109375 46.1875 
Q 21.34375 51.125 25.703125 53.5625 
Q 30.078125 56 35.796875 56 
Q 45.21875 56 50.046875 50.171875 
Q 54.890625 44.34375 54.890625 33.015625 
z
" id="DejaVuSans-104"/>
      <path d="M 8.59375 75.984375 
L 29.296875 75.984375 
L 29.296875 69 
L 17.578125 69 
L 17.578125 -6.203125 
L 29.296875 -6.203125 
L 29.296875 -13.1875 
L 8.59375 -13.1875 
z
" id="DejaVuSans-91"/>
      <path d="M 51.125 44 
L 36.921875 44 
L 32.8125 27.6875 
L 47.125 27.6875 
z
M 43.796875 71.78125 
L 38.71875 51.515625 
L 52.984375 51.515625 
L 58.109375 71.78125 
L 65.921875 71.78125 
L 60.890625 51.515625 
L 76.125 51.515625 
L 76.125 44 
L 58.984375 44 
L 54.984375 27.6875 
L 70.515625 27.6875 
L 70.515625 20.21875 
L 53.078125 20.21875 
L 48 0 
L 40.1875 0 
L 45.21875 20.21875 
L 30.90625 20.21875 
L 25.875 0 
L 18.015625 0 
L 23.09375 20.21875 
L 7.71875 20.21875 
L 7.71875 27.6875 
L 24.90625 27.6875 
L 29 44 
L 13.28125 44 
L 13.28125 51.515625 
L 30.90625 51.515625 
L 35.890625 71.78125 
z
" id="DejaVuSans-35"/>
      <path d="M 30.421875 75.984375 
L 30.421875 -13.1875 
L 9.71875 -13.1875 
L 9.71875 -6.203125 
L 21.390625 -6.203125 
L 21.390625 69 
L 9.71875 69 
L 9.71875 75.984375 
z
" id="DejaVuSans-93"/>
     </defs>
     <g transform="translate(179.994375 354.240875)scale(0.24 -0.24)">
      <use xlink:href="#DejaVuSans-69"/>
      <use x="63.183594" xlink:href="#DejaVuSans-112"/>
      <use x="126.660156" xlink:href="#DejaVuSans-111"/>
      <use x="187.841797" xlink:href="#DejaVuSans-99"/>
      <use x="242.822266" xlink:href="#DejaVuSans-104"/>
      <use x="306.201172" xlink:href="#DejaVuSans-91"/>
      <use x="345.214844" xlink:href="#DejaVuSans-35"/>
      <use x="429.003906" xlink:href="#DejaVuSans-93"/>
     </g>
    </g>
   </g>
   <g id="matplotlib.axis_2">
    <g id="ytick_1">
     <g id="line2d_11">
      <path clip-path="url(#p69443c803a)" d="M 57.6 295.488001 
L 414.72 295.488001 
" style="fill:none;stroke:#b0b0b0;stroke-linecap:square;stroke-width:0.8;"/>
     </g>
     <g id="line2d_12">
      <defs>
       <path d="M 0 0 
L -3.5 0 
" id="m681d3b49aa" style="stroke:#000000;stroke-width:0.8;"/>
      </defs>
      <g>
       <use style="stroke:#000000;stroke-width:0.8;" x="57.6" xlink:href="#m681d3b49aa" y="295.488001"/>
      </g>
     </g>
     <g id="text_7">
      <!-- 10 -->
      <g transform="translate(25.551875 302.326594)scale(0.18 -0.18)">
       <use xlink:href="#DejaVuSans-Bold-49"/>
       <use x="69.580078" xlink:href="#DejaVuSans-Bold-48"/>
      </g>
     </g>
    </g>
    <g id="ytick_2">
     <g id="line2d_13">
      <path clip-path="url(#p69443c803a)" d="M 57.6 253.436897 
L 414.72 253.436897 
" style="fill:none;stroke:#b0b0b0;stroke-linecap:square;stroke-width:0.8;"/>
     </g>
     <g id="line2d_14">
      <g>
       <use style="stroke:#000000;stroke-width:0.8;" x="57.6" xlink:href="#m681d3b49aa" y="253.436897"/>
      </g>
     </g>
     <g id="text_8">
      <!-- 20 -->
      <g transform="translate(25.551875 260.275491)scale(0.18 -0.18)">
       <use xlink:href="#DejaVuSans-Bold-50"/>
       <use x="69.580078" xlink:href="#DejaVuSans-Bold-48"/>
      </g>
     </g>
    </g>
    <g id="ytick_3">
     <g id="line2d_15">
      <path clip-path="url(#p69443c803a)" d="M 57.6 211.385793 
L 414.72 211.385793 
" style="fill:none;stroke:#b0b0b0;stroke-linecap:square;stroke-width:0.8;"/>
     </g>
     <g id="line2d_16">
      <g>
       <use style="stroke:#000000;stroke-width:0.8;" x="57.6" xlink:href="#m681d3b49aa" y="211.385793"/>
      </g>
     </g>
     <g id="text_9">
      <!-- 30 -->
      <g transform="translate(25.551875 218.224387)scale(0.18 -0.18)">
       <use xlink:href="#DejaVuSans-Bold-51"/>
       <use x="69.580078" xlink:href="#DejaVuSans-Bold-48"/>
      </g>
     </g>
    </g>
    <g id="ytick_4">
     <g id="line2d_17">
      <path clip-path="url(#p69443c803a)" d="M 57.6 169.334689 
L 414.72 169.334689 
" style="fill:none;stroke:#b0b0b0;stroke-linecap:square;stroke-width:0.8;"/>
     </g>
     <g id="line2d_18">
      <g>
       <use style="stroke:#000000;stroke-width:0.8;" x="57.6" xlink:href="#m681d3b49aa" y="169.334689"/>
      </g>
     </g>
     <g id="text_10">
      <!-- 40 -->
      <g transform="translate(25.551875 176.173283)scale(0.18 -0.18)">
       <use xlink:href="#DejaVuSans-Bold-52"/>
       <use x="69.580078" xlink:href="#DejaVuSans-Bold-48"/>
      </g>
     </g>
    </g>
    <g id="ytick_5">
     <g id="line2d_19">
      <path clip-path="url(#p69443c803a)" d="M 57.6 127.283586 
L 414.72 127.283586 
" style="fill:none;stroke:#b0b0b0;stroke-linecap:square;stroke-width:0.8;"/>
     </g>
     <g id="line2d_20">
      <g>
       <use style="stroke:#000000;stroke-width:0.8;" x="57.6" xlink:href="#m681d3b49aa" y="127.283586"/>
      </g>
     </g>
     <g id="text_11">
      <!-- 50 -->
      <defs>
       <path d="M 10.59375 72.90625 
L 57.328125 72.90625 
L 57.328125 59.078125 
L 25.59375 59.078125 
L 25.59375 47.796875 
Q 27.734375 48.390625 29.90625 48.703125 
Q 32.078125 49.03125 34.421875 49.03125 
Q 47.75 49.03125 55.171875 42.359375 
Q 62.59375 35.6875 62.59375 23.78125 
Q 62.59375 11.96875 54.515625 5.265625 
Q 46.4375 -1.421875 32.078125 -1.421875 
Q 25.875 -1.421875 19.796875 -0.21875 
Q 13.71875 0.984375 7.71875 3.421875 
L 7.71875 18.21875 
Q 13.671875 14.796875 19.015625 13.078125 
Q 24.359375 11.375 29.109375 11.375 
Q 35.9375 11.375 39.859375 14.71875 
Q 43.796875 18.0625 43.796875 23.78125 
Q 43.796875 29.546875 39.859375 32.859375 
Q 35.9375 36.1875 29.109375 36.1875 
Q 25.046875 36.1875 20.453125 35.125 
Q 15.875 34.078125 10.59375 31.890625 
z
" id="DejaVuSans-Bold-53"/>
      </defs>
      <g transform="translate(25.551875 134.122179)scale(0.18 -0.18)">
       <use xlink:href="#DejaVuSans-Bold-53"/>
       <use x="69.580078" xlink:href="#DejaVuSans-Bold-48"/>
      </g>
     </g>
    </g>
    <g id="ytick_6">
     <g id="line2d_21">
      <path clip-path="url(#p69443c803a)" d="M 57.6 85.232482 
L 414.72 85.232482 
" style="fill:none;stroke:#b0b0b0;stroke-linecap:square;stroke-width:0.8;"/>
     </g>
     <g id="line2d_22">
      <g>
       <use style="stroke:#000000;stroke-width:0.8;" x="57.6" xlink:href="#m681d3b49aa" y="85.232482"/>
      </g>
     </g>
     <g id="text_12">
      <!-- 60 -->
      <defs>
       <path d="M 36.1875 35.984375 
Q 31.25 35.984375 28.78125 32.78125 
Q 26.3125 29.59375 26.3125 23.1875 
Q 26.3125 16.796875 28.78125 13.59375 
Q 31.25 10.40625 36.1875 10.40625 
Q 41.15625 10.40625 43.625 13.59375 
Q 46.09375 16.796875 46.09375 23.1875 
Q 46.09375 29.59375 43.625 32.78125 
Q 41.15625 35.984375 36.1875 35.984375 
z
M 59.421875 71 
L 59.421875 57.515625 
Q 54.78125 59.71875 50.671875 60.765625 
Q 46.578125 61.8125 42.671875 61.8125 
Q 34.28125 61.8125 29.59375 57.140625 
Q 24.90625 52.484375 24.125 43.3125 
Q 27.34375 45.703125 31.09375 46.890625 
Q 34.859375 48.09375 39.3125 48.09375 
Q 50.484375 48.09375 57.34375 41.546875 
Q 64.203125 35.015625 64.203125 24.421875 
Q 64.203125 12.703125 56.53125 5.640625 
Q 48.875 -1.421875 35.984375 -1.421875 
Q 21.78125 -1.421875 13.984375 8.171875 
Q 6.203125 17.78125 6.203125 35.40625 
Q 6.203125 53.46875 15.3125 63.796875 
Q 24.421875 74.125 40.28125 74.125 
Q 45.3125 74.125 50.046875 73.34375 
Q 54.78125 72.5625 59.421875 71 
z
" id="DejaVuSans-Bold-54"/>
      </defs>
      <g transform="translate(25.551875 92.071076)scale(0.18 -0.18)">
       <use xlink:href="#DejaVuSans-Bold-54"/>
       <use x="69.580078" xlink:href="#DejaVuSans-Bold-48"/>
      </g>
     </g>
    </g>
    <g id="ytick_7">
     <g id="line2d_23">
      <path clip-path="url(#p69443c803a)" d="M 57.6 43.181378 
L 414.72 43.181378 
" style="fill:none;stroke:#b0b0b0;stroke-linecap:square;stroke-width:0.8;"/>
     </g>
     <g id="line2d_24">
      <g>
       <use style="stroke:#000000;stroke-width:0.8;" x="57.6" xlink:href="#m681d3b49aa" y="43.181378"/>
      </g>
     </g>
     <g id="text_13">
      <!-- 70 -->
      <defs>
       <path d="M 6.6875 72.90625 
L 61.625 72.90625 
L 61.625 62.3125 
L 33.203125 0 
L 14.890625 0 
L 41.796875 59.078125 
L 6.6875 59.078125 
z
" id="DejaVuSans-Bold-55"/>
      </defs>
      <g transform="translate(25.551875 50.019972)scale(0.18 -0.18)">
       <use xlink:href="#DejaVuSans-Bold-55"/>
       <use x="69.580078" xlink:href="#DejaVuSans-Bold-48"/>
      </g>
     </g>
    </g>
    <g id="text_14">
     <!-- Accuracy [%] -->
     <defs>
      <path d="M 34.1875 63.1875 
L 20.796875 26.90625 
L 47.609375 26.90625 
z
M 28.609375 72.90625 
L 39.796875 72.90625 
L 67.578125 0 
L 57.328125 0 
L 50.6875 18.703125 
L 17.828125 18.703125 
L 11.1875 0 
L 0.78125 0 
z
" id="DejaVuSans-65"/>
      <path d="M 8.5 21.578125 
L 8.5 54.6875 
L 17.484375 54.6875 
L 17.484375 21.921875 
Q 17.484375 14.15625 20.5 10.265625 
Q 23.53125 6.390625 29.59375 6.390625 
Q 36.859375 6.390625 41.078125 11.03125 
Q 45.3125 15.671875 45.3125 23.6875 
L 45.3125 54.6875 
L 54.296875 54.6875 
L 54.296875 0 
L 45.3125 0 
L 45.3125 8.40625 
Q 42.046875 3.421875 37.71875 1 
Q 33.40625 -1.421875 27.6875 -1.421875 
Q 18.265625 -1.421875 13.375 4.4375 
Q 8.5 10.296875 8.5 21.578125 
z
M 31.109375 56 
z
" id="DejaVuSans-117"/>
      <path d="M 41.109375 46.296875 
Q 39.59375 47.171875 37.8125 47.578125 
Q 36.03125 48 33.890625 48 
Q 26.265625 48 22.1875 43.046875 
Q 18.109375 38.09375 18.109375 28.8125 
L 18.109375 0 
L 9.078125 0 
L 9.078125 54.6875 
L 18.109375 54.6875 
L 18.109375 46.1875 
Q 20.953125 51.171875 25.484375 53.578125 
Q 30.03125 56 36.53125 56 
Q 37.453125 56 38.578125 55.875 
Q 39.703125 55.765625 41.0625 55.515625 
z
" id="DejaVuSans-114"/>
      <path d="M 34.28125 27.484375 
Q 23.390625 27.484375 19.1875 25 
Q 14.984375 22.515625 14.984375 16.5 
Q 14.984375 11.71875 18.140625 8.90625 
Q 21.296875 6.109375 26.703125 6.109375 
Q 34.1875 6.109375 38.703125 11.40625 
Q 43.21875 16.703125 43.21875 25.484375 
L 43.21875 27.484375 
z
M 52.203125 31.203125 
L 52.203125 0 
L 43.21875 0 
L 43.21875 8.296875 
Q 40.140625 3.328125 35.546875 0.953125 
Q 30.953125 -1.421875 24.3125 -1.421875 
Q 15.921875 -1.421875 10.953125 3.296875 
Q 6 8.015625 6 15.921875 
Q 6 25.140625 12.171875 29.828125 
Q 18.359375 34.515625 30.609375 34.515625 
L 43.21875 34.515625 
L 43.21875 35.40625 
Q 43.21875 41.609375 39.140625 45 
Q 35.0625 48.390625 27.6875 48.390625 
Q 23 48.390625 18.546875 47.265625 
Q 14.109375 46.140625 10.015625 43.890625 
L 10.015625 52.203125 
Q 14.9375 54.109375 19.578125 55.046875 
Q 24.21875 56 28.609375 56 
Q 40.484375 56 46.34375 49.84375 
Q 52.203125 43.703125 52.203125 31.203125 
z
" id="DejaVuSans-97"/>
      <path d="M 32.171875 -5.078125 
Q 28.375 -14.84375 24.75 -17.8125 
Q 21.140625 -20.796875 15.09375 -20.796875 
L 7.90625 -20.796875 
L 7.90625 -13.28125 
L 13.1875 -13.28125 
Q 16.890625 -13.28125 18.9375 -11.515625 
Q 21 -9.765625 23.484375 -3.21875 
L 25.09375 0.875 
L 2.984375 54.6875 
L 12.5 54.6875 
L 29.59375 11.921875 
L 46.6875 54.6875 
L 56.203125 54.6875 
z
" id="DejaVuSans-121"/>
      <path id="DejaVuSans-32"/>
      <path d="M 72.703125 32.078125 
Q 68.453125 32.078125 66.03125 28.46875 
Q 63.625 24.859375 63.625 18.40625 
Q 63.625 12.0625 66.03125 8.421875 
Q 68.453125 4.78125 72.703125 4.78125 
Q 76.859375 4.78125 79.265625 8.421875 
Q 81.6875 12.0625 81.6875 18.40625 
Q 81.6875 24.8125 79.265625 28.4375 
Q 76.859375 32.078125 72.703125 32.078125 
z
M 72.703125 38.28125 
Q 80.421875 38.28125 84.953125 32.90625 
Q 89.5 27.546875 89.5 18.40625 
Q 89.5 9.28125 84.9375 3.921875 
Q 80.375 -1.421875 72.703125 -1.421875 
Q 64.890625 -1.421875 60.34375 3.921875 
Q 55.8125 9.28125 55.8125 18.40625 
Q 55.8125 27.59375 60.375 32.9375 
Q 64.9375 38.28125 72.703125 38.28125 
z
M 22.3125 68.015625 
Q 18.109375 68.015625 15.6875 64.375 
Q 13.28125 60.75 13.28125 54.390625 
Q 13.28125 47.953125 15.671875 44.328125 
Q 18.0625 40.71875 22.3125 40.71875 
Q 26.5625 40.71875 28.96875 44.328125 
Q 31.390625 47.953125 31.390625 54.390625 
Q 31.390625 60.6875 28.953125 64.34375 
Q 26.515625 68.015625 22.3125 68.015625 
z
M 66.40625 74.21875 
L 74.21875 74.21875 
L 28.609375 -1.421875 
L 20.796875 -1.421875 
z
M 22.3125 74.21875 
Q 30.03125 74.21875 34.609375 68.875 
Q 39.203125 63.53125 39.203125 54.390625 
Q 39.203125 45.171875 34.640625 39.84375 
Q 30.078125 34.515625 22.3125 34.515625 
Q 14.546875 34.515625 10.03125 39.859375 
Q 5.515625 45.21875 5.515625 54.390625 
Q 5.515625 63.484375 10.046875 68.84375 
Q 14.59375 74.21875 22.3125 74.21875 
z
" id="DejaVuSans-37"/>
     </defs>
     <g transform="translate(16.560625 254.103)rotate(-90)scale(0.24 -0.24)">
      <use xlink:href="#DejaVuSans-65"/>
      <use x="68.392578" xlink:href="#DejaVuSans-99"/>
      <use x="123.373047" xlink:href="#DejaVuSans-99"/>
      <use x="178.353516" xlink:href="#DejaVuSans-117"/>
      <use x="241.732422" xlink:href="#DejaVuSans-114"/>
      <use x="282.845703" xlink:href="#DejaVuSans-97"/>
      <use x="344.125" xlink:href="#DejaVuSans-99"/>
      <use x="399.105469" xlink:href="#DejaVuSans-121"/>
      <use x="458.285156" xlink:href="#DejaVuSans-32"/>
      <use x="490.072266" xlink:href="#DejaVuSans-91"/>
      <use x="529.085938" xlink:href="#DejaVuSans-37"/>
      <use x="624.105469" xlink:href="#DejaVuSans-93"/>
     </g>
    </g>
   </g>
   <g id="line2d_25">
    <path clip-path="url(#p69443c803a)" d="M 73.832727 152.514249 
L 74.646398 138.889686 
L 75.460068 133.465096 
L 76.273739 130.101013 
L 77.087409 123.541043 
L 77.90108 125.727687 
L 78.714751 119.546177 
L 79.528421 116.686704 
L 80.342092 111.724677 
L 81.155762 119.462086 
L 81.969433 111.808768 
L 82.783103 110.883666 
L 83.596774 110.294928 
L 84.410444 107.64572 
L 85.224115 114.415943 
L 86.037785 109.790331 
L 86.851456 110.547251 
L 87.665126 105.753432 
L 88.478797 102.599577 
L 89.292468 105.080603 
L 90.106138 102.137014 
L 90.919809 103.987268 
L 91.733479 103.777028 
L 92.54715 98.604736 
L 93.36082 103.020108 
L 94.174491 99.0673 
L 94.988161 99.193449 
L 95.801832 102.305221 
L 96.615502 100.791381 
L 97.429173 100.497024 
L 98.242843 99.151391 
L 99.056514 97.090896 
L 99.870185 97.217045 
L 100.683855 95.072434 
L 101.497526 100.412933 
L 102.311196 98.142173 
L 103.124867 93.684743 
L 103.938537 93.979099 
L 104.752208 95.198583 
L 105.565878 94.39963 
L 106.379549 95.324757 
L 107.193219 95.619114 
L 108.00689 94.147306 
L 108.82056 93.348353 
L 109.634231 93.85295 
L 110.447902 93.264237 
L 111.261572 89.773993 
L 112.075243 89.9422 
L 112.888913 89.101189 
L 113.702584 92.044753 
L 115.329925 88.638625 
L 116.143595 88.97504 
L 116.957266 89.858109 
L 117.770936 88.932982 
L 118.584607 89.017073 
L 119.398278 85.737094 
L 120.211948 89.9422 
L 121.839289 89.479636 
L 123.46663 84.980174 
L 124.280301 87.166843 
L 125.093971 85.358646 
L 125.907642 88.302211 
L 126.721312 84.51761 
L 127.534983 85.148381 
L 128.348653 85.442737 
L 129.162324 85.568886 
L 129.975995 87.755556 
L 130.789665 88.638625 
L 131.603336 88.007854 
L 132.417006 83.886839 
L 133.230677 85.022232 
L 134.044347 87.377083 
L 134.858018 85.484795 
L 135.671688 85.82121 
L 136.485359 82.162758 
L 137.299029 84.559668 
L 138.1127 84.811966 
L 138.92637 86.830428 
L 139.740041 90.572971 
L 140.553712 82.709413 
L 141.367382 82.751471 
L 142.181053 85.316588 
L 142.994723 83.718632 
L 143.808394 87.166843 
L 144.622064 82.541206 
L 145.435735 82.541206 
L 146.249405 84.559668 
L 147.063076 81.489929 
L 147.876746 84.896083 
L 148.690417 84.769908 
L 149.504087 83.634541 
L 150.317758 82.793529 
L 151.131429 83.508391 
L 151.945099 81.153515 
L 152.75877 82.751471 
L 153.57244 81.994551 
L 154.386111 81.910435 
L 155.199781 81.321722 
L 156.013452 83.76069 
L 156.827122 78.714572 
L 157.640793 79.891998 
L 158.454463 79.345318 
L 159.268134 77.495088 
L 160.081805 81.910435 
L 160.895475 78.714572 
L 162.522816 79.934031 
L 163.336487 82.457115 
L 164.150157 83.676599 
L 164.963828 78.420216 
L 165.777498 80.228412 
L 166.591169 78.125834 
L 167.404839 77.957652 
L 168.21851 77.200732 
L 169.03218 80.775067 
L 169.845851 81.742253 
L 170.659522 80.228412 
L 172.286863 83.886839 
L 173.100533 82.204791 
L 173.914204 81.111482 
L 174.727874 76.948408 
L 175.541545 77.368914 
L 177.168886 81.237631 
L 177.982556 80.438653 
L 178.796227 79.008929 
L 179.609897 78.798663 
L 181.237239 76.527903 
L 182.050909 81.153515 
L 182.86458 77.116616 
L 183.67825 75.518684 
L 184.491921 77.032525 
L 185.305591 76.569961 
L 186.119262 79.513525 
L 186.932932 74.929971 
L 187.746603 76.191488 
L 188.560273 78.882754 
L 189.373944 76.738168 
L 190.187614 77.831478 
L 191.001285 77.495088 
L 191.814956 76.275604 
L 193.442297 79.345318 
L 194.255967 77.873536 
L 195.069638 81.826344 
L 195.883308 78.083801 
L 196.696979 77.242765 
L 197.510649 77.957652 
L 198.32432 76.485845 
L 199.13799 76.149455 
L 199.951661 75.93919 
L 200.765332 77.410972 
L 201.579002 75.518684 
L 202.392673 78.882754 
L 203.206343 77.873536 
L 204.020014 75.855074 
L 204.833684 74.845855 
L 205.647355 74.383292 
L 206.461025 76.023281 
L 207.274696 79.008929 
L 208.088366 77.158674 
L 208.902037 75.602775 
L 209.715707 77.326881 
L 210.529378 74.551499 
L 211.343049 75.140212 
L 212.156719 75.350477 
L 212.97039 76.738168 
L 214.597731 78.167892 
L 215.411401 72.575095 
L 216.225072 77.537121 
L 217.038742 78.714572 
L 217.852413 72.322796 
L 218.666083 77.45303 
L 219.479754 74.719706 
L 220.293424 74.004844 
L 221.107095 78.882754 
L 221.920766 79.807882 
L 222.734436 76.107397 
L 223.548107 74.088935 
L 224.361777 76.569961 
L 225.175448 74.467408 
L 225.989118 71.734084 
L 226.802789 76.065339 
L 227.616459 73.668429 
L 228.43013 74.004844 
L 229.2438 77.705329 
L 230.057471 75.728925 
L 230.871141 75.224328 
L 231.684812 74.173051 
L 232.498483 75.18227 
L 233.312153 77.410972 
L 234.125824 77.368914 
L 234.939494 73.962786 
L 235.753165 72.575095 
L 236.566835 73.836637 
L 237.380506 75.602775 
L 239.007847 74.929971 
L 239.821517 72.448946 
L 241.448859 74.972004 
L 242.262529 76.401754 
L 243.0762 76.906375 
L 243.88987 78.167892 
L 244.703541 74.551499 
L 245.517211 76.233546 
L 246.330882 74.2992 
L 247.144552 72.78536 
L 247.958223 76.443812 
L 248.771893 76.443812 
L 249.585564 75.392535 
L 250.399234 72.9956 
L 251.212905 73.121775 
L 252.026576 72.02844 
L 252.840246 73.584338 
L 253.653917 74.761764 
L 254.467587 77.032525 
L 255.281258 74.635615 
L 256.094928 71.019196 
L 256.908599 75.350477 
L 258.53594 72.406888 
L 259.34961 72.743302 
L 260.163281 76.191488 
L 261.790622 72.196647 
L 262.604293 71.355611 
L 263.417963 72.070498 
L 264.231634 74.803797 
L 265.045304 72.491004 
L 265.858975 75.18227 
L 266.672645 74.761764 
L 267.486316 72.154589 
L 268.299986 72.911509 
L 269.113657 73.121775 
L 269.927327 72.743302 
L 270.740998 74.929971 
L 271.554668 71.692025 
L 272.368339 71.439727 
L 273.18201 74.972004 
L 273.99568 70.472542 
L 274.809351 72.280738 
L 275.623021 74.42535 
L 276.436692 73.163808 
L 277.250362 74.551499 
L 278.064033 73.584338 
L 278.877703 71.818175 
L 279.691374 73.416131 
L 280.505044 76.485845 
L 281.318715 75.93919 
L 282.132386 72.280738 
L 282.946056 72.322796 
L 283.759727 71.48176 
L 284.573397 71.103313 
L 285.387068 71.439727 
L 286.200738 74.551499 
L 287.014409 72.491004 
L 287.828079 76.780201 
L 288.64175 71.103313 
L 289.45542 72.827418 
L 290.269091 73.332015 
L 291.082761 71.565876 
L 291.896432 72.953567 
L 292.710103 71.565876 
L 293.523773 73.626371 
L 294.337444 76.149455 
L 295.151114 70.682807 
L 295.964785 70.766898 
L 296.778455 74.761764 
L 297.592126 70.136127 
L 298.405796 69.253058 
L 299.219467 73.079717 
L 300.033137 73.710488 
L 300.846808 68.538196 
L 302.474149 73.500222 
L 303.28782 70.430484 
L 304.10149 71.397669 
L 304.915161 70.556658 
L 305.728831 70.388451 
L 306.542502 69.589472 
L 307.356172 73.374073 
L 308.169843 72.659211 
L 308.983513 74.173051 
L 309.797184 73.710488 
L 310.610854 74.215084 
L 311.424525 71.860233 
L 312.238195 72.743302 
L 313.051866 71.860233 
L 313.865537 72.701244 
L 314.679207 71.986382 
L 315.492878 74.088935 
L 316.306548 74.088935 
L 317.120219 71.355611 
L 317.933889 72.78536 
L 318.74756 73.163808 
L 319.56123 73.037658 
L 320.374901 74.719706 
L 321.188571 73.920728 
L 322.815913 71.313578 
L 323.629583 71.944324 
L 324.443254 73.205866 
L 325.256924 70.935105 
L 326.070595 72.154589 
L 326.884265 70.935105 
L 327.697936 72.196647 
L 328.511606 72.827418 
L 329.325277 73.878695 
L 330.138947 77.116616 
L 330.952618 74.341259 
L 331.766288 72.575095 
L 332.579959 72.575095 
L 333.39363 70.851014 
L 334.2073 71.818175 
L 335.020971 71.649967 
L 335.834641 72.23868 
L 336.648312 69.295116 
L 337.461982 74.046877 
L 338.275653 70.977163 
L 339.089323 69.08485 
L 339.902994 73.205866 
L 340.716664 71.818175 
L 341.530335 75.18227 
L 342.344005 76.107397 
L 343.157676 73.878695 
L 343.971347 72.280738 
L 344.785017 68.832552 
L 345.598688 72.196647 
L 346.412358 71.103313 
L 347.226029 72.617153 
L 348.039699 73.037658 
L 348.85337 72.953567 
L 349.66704 73.247924 
L 350.480711 73.163808 
L 351.294381 70.808956 
L 352.108052 70.893047 
L 352.921722 72.491004 
L 353.735393 72.911509 
L 354.549064 71.355611 
L 355.362734 71.944324 
L 356.176405 68.87461 
L 356.990075 70.640749 
L 357.803746 71.523818 
L 358.617416 72.196647 
L 359.431087 67.991541 
L 360.244757 71.818175 
L 361.058428 70.851014 
L 361.872098 68.285897 
L 362.685769 71.27152 
L 363.49944 70.598691 
L 364.31311 70.388451 
L 365.126781 66.772057 
L 365.940451 76.569961 
L 366.754122 69.211 
L 367.567792 69.925887 
L 368.381463 72.154589 
L 369.195133 70.766898 
L 370.008804 74.677648 
L 370.822474 72.322796 
L 372.449815 71.061254 
L 373.263486 73.920728 
L 374.077157 72.070498 
L 374.890827 69.75768 
L 375.704498 69.547414 
L 376.518168 71.355611 
L 377.331839 68.033574 
L 378.145509 71.061254 
L 378.95918 71.48176 
L 379.77285 70.052036 
L 380.586521 74.383292 
L 381.400191 67.655126 
L 382.213862 71.734084 
L 383.027532 69.379207 
L 383.841203 71.313578 
L 384.654874 71.607934 
L 385.468544 68.496138 
L 386.282215 73.668429 
L 387.095885 71.187404 
L 387.909556 70.72484 
L 388.723226 73.121775 
L 389.536897 74.173051 
L 390.350567 72.448946 
L 391.977908 73.878695 
L 392.791579 72.743302 
L 393.605249 73.205866 
L 394.41892 70.009978 
L 395.232591 70.682807 
L 396.046261 74.341259 
L 396.859932 71.860233 
L 397.673602 70.262301 
L 398.487273 71.776117 
L 398.487273 71.776117 
" style="fill:none;stroke:#1f77b4;stroke-linecap:square;stroke-width:1.5;"/>
   </g>
   <g id="line2d_26">
    <path clip-path="url(#p69443c803a)" d="M 73.832727 293.21724 
L 74.646398 269.206063 
L 75.460068 262.940449 
L 77.087409 215.086285 
L 77.90108 205.750945 
L 79.528421 181.361306 
L 80.342092 173.497748 
L 81.155762 162.606509 
L 81.969433 157.43423 
L 82.783103 153.397318 
L 83.596774 145.53376 
L 84.410444 143.809667 
L 85.224115 137.922513 
L 86.851456 134.726625 
L 87.665126 134.390223 
L 88.478797 131.278439 
L 89.292468 130.01691 
L 90.106138 125.811804 
L 90.919809 124.844618 
L 91.733479 127.367689 
L 92.54715 122.069261 
L 93.36082 120.345155 
L 94.174491 118.116453 
L 94.988161 119.125671 
L 95.801832 116.812853 
L 96.615502 115.004656 
L 97.429173 115.971842 
L 98.242843 112.187241 
L 99.056514 114.878507 
L 99.870185 111.976975 
L 100.683855 110.547251 
L 101.497526 110.000571 
L 102.311196 107.64572 
L 103.124867 109.664182 
L 103.938537 107.309305 
L 104.752208 106.762651 
L 105.565878 105.122661 
L 106.379549 106.342145 
L 107.193219 107.141098 
L 108.00689 106.13188 
L 108.82056 102.137014 
L 109.634231 103.903177 
L 110.447902 102.725752 
L 111.261572 100.539082 
L 112.075243 101.506268 
L 113.702584 98.983184 
L 114.516254 99.908311 
L 115.329925 102.725752 
L 116.143595 98.394471 
L 117.770936 96.24986 
L 119.398278 101.211911 
L 120.211948 95.703205 
L 121.025619 95.997561 
L 121.839289 95.577056 
L 122.65296 93.558594 
L 123.46663 94.567837 
L 124.280301 96.460125 
L 125.093971 97.385252 
L 125.907642 94.904227 
L 126.721312 95.49294 
L 128.348653 94.105273 
L 129.162324 92.801673 
L 129.975995 92.801673 
L 130.789665 94.904227 
L 131.603336 91.708364 
L 132.417006 91.413982 
L 133.230677 90.236557 
L 134.044347 90.278615 
L 134.858018 92.00272 
L 135.671688 93.053997 
L 136.485359 89.563753 
L 137.299029 90.69912 
L 138.1127 87.461199 
L 138.92637 91.624248 
L 139.740041 88.722716 
L 140.553712 88.21812 
L 141.367382 88.890924 
L 142.181053 87.755556 
L 142.994723 87.629407 
L 144.622064 86.325807 
L 145.435735 86.283749 
L 146.249405 88.596567 
L 147.063076 89.479636 
L 147.876746 89.479636 
L 148.690417 87.839647 
L 149.504087 90.446822 
L 150.317758 84.559668 
L 151.131429 87.208876 
L 151.945099 85.106323 
L 152.75877 83.802748 
L 153.57244 84.055046 
L 154.386111 83.382242 
L 155.199781 85.526828 
L 156.013452 83.76069 
L 157.640793 85.526828 
L 158.454463 84.433519 
L 159.268134 87.335025 
L 160.895475 83.340184 
L 161.709146 85.358646 
L 162.522816 87.965796 
L 163.336487 83.382242 
L 164.150157 84.30737 
L 164.963828 86.494014 
L 165.777498 83.129919 
L 166.591169 83.382242 
L 167.404839 82.919679 
L 168.21851 81.658137 
L 169.03218 83.382242 
L 169.845851 81.742253 
L 170.659522 82.709413 
L 171.473192 79.513525 
L 172.286863 81.826344 
L 173.100533 80.102238 
L 173.914204 84.223253 
L 174.727874 81.027366 
L 175.541545 81.111482 
L 176.355215 84.433519 
L 177.982556 83.424275 
L 178.796227 80.60686 
L 179.609897 80.186354 
L 180.423568 81.153515 
L 181.237239 84.391461 
L 182.050909 80.901216 
L 182.86458 80.60686 
L 183.67825 79.177111 
L 184.491921 80.312504 
L 185.305591 81.826344 
L 186.119262 82.709413 
L 186.932932 78.546365 
L 187.746603 78.378158 
L 188.560273 79.513525 
L 189.373944 78.840721 
L 190.187614 79.555583 
L 191.001285 79.135078 
L 192.628626 79.050962 
L 193.442297 78.252008 
L 194.255967 80.102238 
L 195.069638 76.569961 
L 195.883308 77.915594 
L 196.696979 78.167892 
L 197.510649 79.219169 
L 198.32432 79.177111 
L 199.13799 81.489929 
L 200.765332 77.957652 
L 201.579002 79.84994 
L 202.392673 78.083801 
L 203.206343 75.602775 
L 204.020014 79.723791 
L 204.833684 78.882754 
L 205.647355 77.495088 
L 206.461025 80.733009 
L 207.274696 77.45303 
L 208.088366 75.098154 
L 208.902037 77.831478 
L 209.715707 78.756605 
L 210.529378 75.140212 
L 211.343049 78.294041 
L 212.156719 77.326881 
L 212.97039 77.242765 
L 213.78406 78.420216 
L 214.597731 76.990467 
L 215.411401 76.275604 
L 216.225072 79.09302 
L 217.038742 76.948408 
L 217.852413 76.485845 
L 218.666083 75.560717 
L 219.479754 75.392535 
L 220.293424 78.378158 
L 221.107095 78.378158 
L 221.920766 76.359696 
L 222.734436 75.897132 
L 223.548107 77.368914 
L 224.361777 75.770983 
L 225.175448 75.476626 
L 225.989118 78.378158 
L 226.802789 74.719706 
L 228.43013 77.957652 
L 229.2438 74.215084 
L 230.057471 74.929971 
L 230.871141 76.906375 
L 231.684812 75.266361 
L 232.498483 74.593557 
L 233.312153 78.504307 
L 234.939494 72.701244 
L 235.753165 74.551499 
L 236.566835 74.215084 
L 237.380506 74.635615 
L 238.194176 74.677648 
L 239.007847 77.074558 
L 239.821517 75.392535 
L 240.635188 75.855074 
L 241.448859 71.692025 
L 242.262529 75.224328 
L 243.0762 74.551499 
L 243.88987 72.196647 
L 244.703541 77.831478 
L 245.517211 72.911509 
L 246.330882 73.710488 
L 247.144552 76.023281 
L 247.958223 73.962786 
L 248.771893 75.098154 
L 250.399234 74.130993 
L 251.212905 74.509441 
L 252.026576 72.911509 
L 252.840246 74.088935 
L 253.653917 74.088935 
L 254.467587 76.065339 
L 255.281258 76.275604 
L 256.094928 75.770983 
L 257.722269 72.533037 
L 258.53594 72.659211 
L 260.163281 74.887913 
L 260.976951 74.088935 
L 261.790622 73.962786 
L 262.604293 76.149455 
L 263.417963 73.037658 
L 264.231634 72.78536 
L 265.045304 73.037658 
L 265.858975 74.761764 
L 266.672645 73.458164 
L 267.486316 73.332015 
L 268.299986 73.626371 
L 269.927327 73.121775 
L 270.740998 71.103313 
L 271.554668 70.893047 
L 272.368339 72.869451 
L 273.18201 73.289957 
L 273.99568 71.565876 
L 274.809351 72.112531 
L 275.623021 73.037658 
L 277.250362 71.776117 
L 278.064033 73.037658 
L 278.877703 76.065339 
L 279.691374 73.710488 
L 280.505044 73.121775 
L 281.318715 71.439727 
L 282.132386 72.617153 
L 282.946056 71.313578 
L 283.759727 72.911509 
L 284.573397 71.27152 
L 285.387068 72.364855 
L 286.200738 71.313578 
L 287.014409 73.289957 
L 287.828079 70.682807 
L 288.64175 72.448946 
L 289.45542 72.196647 
L 290.269091 71.397669 
L 291.082761 70.935105 
L 291.896432 73.54228 
L 292.710103 71.523818 
L 293.523773 70.682807 
L 294.337444 74.046877 
L 295.151114 73.416131 
L 295.964785 73.163808 
L 296.778455 74.341259 
L 297.592126 72.743302 
L 298.405796 73.037658 
L 299.219467 71.145371 
L 300.033137 72.322796 
L 300.846808 72.322796 
L 301.660478 71.860233 
L 302.474149 72.154589 
L 303.28782 71.48176 
L 304.10149 69.63153 
L 304.915161 72.869451 
L 305.728831 69.589472 
L 307.356172 71.818175 
L 308.169843 70.262301 
L 308.983513 71.229462 
L 309.797184 72.491004 
L 310.610854 71.565876 
L 311.424525 70.388451 
L 312.238195 71.061254 
L 313.051866 71.902291 
L 313.865537 73.416131 
L 314.679207 70.766898 
L 315.492878 72.070498 
L 316.306548 71.397669 
L 317.120219 68.832552 
L 317.933889 70.094094 
L 318.74756 69.211 
L 319.56123 68.832552 
L 320.374901 71.776117 
L 321.188571 70.178185 
L 322.002242 70.893047 
L 322.815913 68.622287 
L 323.629583 70.136127 
L 324.443254 69.63153 
L 325.256924 70.430484 
L 326.070595 71.692025 
L 326.884265 71.776117 
L 327.697936 70.808956 
L 328.511606 70.052036 
L 329.325277 71.229462 
L 330.138947 69.547414 
L 330.952618 71.565876 
L 331.766288 72.364855 
L 332.579959 68.412047 
L 333.39363 71.48176 
L 334.2073 70.009978 
L 335.020971 68.11769 
L 335.834641 70.472542 
L 336.648312 71.229462 
L 337.461982 69.799738 
L 338.275653 73.205866 
L 339.089323 71.649967 
L 339.902994 69.547414 
L 340.716664 71.397669 
L 341.530335 70.346392 
L 342.344005 71.692025 
L 343.157676 68.11769 
L 343.971347 69.63153 
L 344.785017 70.851014 
L 345.598688 70.052036 
L 346.412358 69.421265 
L 347.226029 69.799738 
L 348.039699 68.32793 
L 348.85337 71.944324 
L 349.66704 69.505381 
L 350.480711 68.075632 
L 351.294381 68.916643 
L 352.108052 70.220243 
L 352.921722 68.496138 
L 353.735393 68.201781 
L 354.549064 68.916643 
L 355.362734 69.883829 
L 356.176405 70.052036 
L 356.990075 68.285897 
L 357.803746 70.304334 
L 358.617416 67.991541 
L 359.431087 69.08485 
L 360.244757 71.145371 
L 361.058428 68.45408 
L 361.872098 70.598691 
L 362.685769 69.63153 
L 363.49944 70.304334 
L 364.31311 71.313578 
L 365.126781 69.253058 
L 365.940451 70.598691 
L 366.754122 69.715621 
L 367.567792 69.715621 
L 368.381463 71.523818 
L 369.195133 70.304334 
L 370.008804 67.528977 
L 370.822474 68.790494 
L 371.636145 70.388451 
L 372.449815 68.832552 
L 373.263486 68.45408 
L 374.077157 69.841771 
L 374.890827 69.75768 
L 375.704498 70.977163 
L 376.518168 70.766898 
L 377.331839 69.505381 
L 378.145509 69.96792 
L 378.95918 69.883829 
L 379.77285 69.253058 
L 380.586521 70.388451 
L 381.400191 68.369988 
L 382.213862 68.790494 
L 383.841203 68.45408 
L 384.654874 69.042817 
L 385.468544 68.958701 
L 386.282215 70.178185 
L 387.095885 68.832552 
L 387.909556 71.397669 
L 388.723226 69.211 
L 389.536897 70.682807 
L 390.350567 68.622287 
L 391.164238 70.5146 
L 391.977908 70.430484 
L 392.791579 70.682807 
L 393.605249 68.622287 
L 394.41892 67.150505 
L 395.232591 68.075632 
L 396.046261 69.925887 
L 396.859932 68.916643 
L 397.673602 66.309493 
L 398.487273 67.444861 
L 398.487273 67.444861 
" style="fill:none;stroke:#ff7f0e;stroke-linecap:square;stroke-width:1.5;"/>
   </g>
   <g id="line2d_27">
    <path clip-path="url(#p69443c803a)" d="M 73.832727 295.488 
L 75.460068 247.802046 
L 76.273739 232.285196 
L 77.087409 212.058605 
L 81.155762 162.143946 
L 82.783103 151.715271 
L 83.596774 144.566587 
L 85.224115 138.174824 
L 86.037785 133.969705 
L 86.851456 130.521519 
L 87.665126 131.488692 
L 88.478797 127.493839 
L 89.292468 126.442574 
L 90.106138 123.793341 
L 90.919809 123.330778 
L 92.54715 118.705166 
L 93.36082 116.266198 
L 94.174491 117.948246 
L 94.988161 116.0139 
L 95.801832 115.088772 
L 96.615502 112.775954 
L 97.429173 113.238517 
L 98.242843 108.865204 
L 99.056514 111.640586 
L 99.870185 109.790331 
L 100.683855 109.15956 
L 102.311196 106.762651 
L 103.124867 103.945235 
L 103.938537 103.650854 
L 104.752208 105.837523 
L 105.565878 103.482672 
L 106.379549 103.819061 
L 107.193219 101.169853 
L 108.00689 99.361656 
L 108.82056 99.445748 
L 109.634231 98.142173 
L 110.447902 98.478587 
L 111.261572 98.52062 
L 112.075243 98.184231 
L 112.888913 97.637551 
L 113.702584 95.198583 
L 114.516254 97.55346 
L 115.329925 96.333976 
L 116.143595 97.889874 
L 116.957266 94.693986 
L 117.770936 93.222204 
L 118.584607 93.138088 
L 119.398278 94.693986 
L 120.211948 94.315514 
L 121.025619 91.413982 
L 121.839289 93.516561 
L 122.65296 92.549375 
L 123.46663 92.801673 
L 124.280301 91.203742 
L 125.093971 88.890924 
L 125.907642 88.554509 
L 126.721312 92.591433 
L 127.534983 90.993477 
L 128.348653 91.498098 
L 129.162324 88.260153 
L 129.975995 89.9422 
L 130.789665 88.049912 
L 131.603336 87.839647 
L 132.417006 86.998636 
L 133.230677 87.923763 
L 134.044347 86.494014 
L 134.858018 84.391461 
L 135.671688 83.592482 
L 136.485359 85.653003 
L 137.299029 84.30737 
L 138.1127 87.335025 
L 138.92637 84.854024 
L 139.740041 85.232472 
L 140.553712 84.51761 
L 141.367382 81.952493 
L 142.181053 84.896083 
L 142.994723 84.181195 
L 143.808394 82.87762 
L 144.622064 84.433519 
L 145.435735 81.826344 
L 146.249405 82.961712 
L 147.063076 82.330966 
L 147.876746 80.817125 
L 148.690417 81.658137 
L 149.504087 80.733009 
L 150.317758 80.438653 
L 151.131429 81.195573 
L 151.945099 81.742253 
L 152.75877 80.60686 
L 154.386111 79.387376 
L 155.199781 78.252008 
L 156.013452 79.934031 
L 156.827122 79.471492 
L 157.640793 78.3361 
L 159.268134 80.354562 
L 160.081805 79.723791 
L 160.895475 78.083801 
L 161.709146 77.957652 
L 162.522816 78.924812 
L 163.336487 77.495088 
L 164.150157 77.579179 
L 164.963828 76.485845 
L 165.777498 77.747387 
L 166.591169 76.654052 
L 167.404839 77.326881 
L 168.21851 75.981248 
L 169.03218 76.780201 
L 169.845851 74.551499 
L 170.659522 75.644833 
L 171.473192 75.93919 
L 172.286863 75.308419 
L 173.100533 75.813041 
L 173.914204 75.476626 
L 174.727874 75.644833 
L 175.541545 75.140212 
L 176.355215 72.953567 
L 177.168886 74.467408 
L 177.982556 72.911509 
L 178.796227 74.509441 
L 179.609897 75.014062 
L 180.423568 73.626371 
L 181.237239 74.173051 
L 182.050909 74.887913 
L 182.86458 74.2992 
L 183.67825 73.247924 
L 184.491921 71.902291 
L 185.305591 73.54228 
L 186.119262 72.953567 
L 186.932932 73.752521 
L 187.746603 74.383292 
L 188.560273 71.649967 
L 189.373944 72.659211 
L 190.187614 74.004844 
L 191.001285 72.070498 
L 191.814956 71.818175 
L 192.628626 72.701244 
L 193.442297 71.27152 
L 194.255967 71.439727 
L 195.069638 72.827418 
L 195.883308 72.23868 
L 196.696979 70.72484 
L 197.510649 73.037658 
L 198.32432 70.935105 
L 199.13799 72.827418 
L 199.951661 71.734084 
L 200.765332 69.08485 
L 201.579002 71.061254 
L 202.392673 70.136127 
L 203.206343 71.061254 
L 204.020014 70.094094 
L 204.833684 69.463323 
L 205.647355 69.379207 
L 206.461025 68.580254 
L 208.902037 71.818175 
L 209.715707 69.379207 
L 210.529378 69.042817 
L 211.343049 69.421265 
L 212.156719 71.313578 
L 212.97039 71.103313 
L 213.78406 67.318712 
L 214.597731 68.412047 
L 215.411401 72.911509 
L 216.225072 65.636664 
L 217.038742 67.276654 
L 217.852413 69.673563 
L 219.479754 67.318712 
L 220.293424 68.369988 
L 221.107095 67.991541 
L 221.920766 68.916643 
L 222.734436 66.351526 
L 223.548107 67.781276 
L 224.361777 67.697159 
L 225.175448 65.888963 
L 225.989118 66.898206 
L 226.802789 66.729999 
L 227.616459 67.697159 
L 228.43013 66.309493 
L 229.2438 66.982297 
L 230.057471 66.267435 
L 230.871141 67.318712 
L 231.684812 65.468457 
L 232.498483 69.463323 
L 233.312153 66.309493 
L 234.125824 66.393584 
L 234.939494 64.795653 
L 235.753165 65.72078 
L 236.566835 64.122824 
L 237.380506 64.038733 
L 238.194176 65.552573 
L 239.007847 65.678722 
L 239.821517 65.510515 
L 240.635188 67.108446 
L 241.448859 67.276654 
L 243.0762 64.333089 
L 243.88987 65.426424 
L 244.703541 65.30025 
L 245.517211 65.468457 
L 246.330882 67.192563 
L 247.144552 66.561792 
L 247.958223 64.501297 
L 248.771893 65.552573 
L 250.399234 62.735133 
L 251.212905 64.54333 
L 252.026576 65.132042 
L 252.840246 63.702318 
L 253.653917 64.080766 
L 254.467587 63.870526 
L 255.281258 63.071547 
L 256.094928 63.323846 
L 256.908599 64.879744 
L 257.722269 64.837686 
L 258.53594 63.702318 
L 259.34961 61.557707 
L 260.163281 61.515649 
L 260.976951 63.407962 
L 261.790622 62.861307 
L 262.604293 61.221293 
L 263.417963 62.14642 
L 264.231634 61.725914 
L 265.045304 62.777191 
L 265.858975 63.492053 
L 266.672645 64.038733 
L 267.486316 63.534111 
L 268.299986 63.912584 
L 269.113657 62.6931 
L 269.927327 63.071547 
L 270.740998 62.819249 
L 271.554668 62.020271 
L 272.368339 60.296165 
L 273.18201 60.926936 
L 273.99568 62.566926 
L 274.809351 61.305409 
L 275.623021 63.576169 
L 276.436692 61.852064 
L 277.250362 64.54333 
L 278.064033 61.431558 
L 278.877703 61.557707 
L 279.691374 62.566926 
L 280.505044 63.239755 
L 281.318715 60.590547 
L 282.132386 62.651042 
L 283.759727 60.842845 
L 284.573397 60.716696 
L 285.387068 62.230536 
L 286.200738 62.608984 
L 287.014409 59.371063 
L 287.828079 59.665419 
L 288.64175 61.641823 
L 289.45542 61.810005 
L 290.269091 60.590547 
L 291.082761 60.422339 
L 291.896432 64.20694 
L 292.710103 62.314627 
L 293.523773 61.431558 
L 294.337444 63.155664 
L 295.151114 60.548489 
L 295.964785 61.557707 
L 296.778455 59.959776 
L 297.592126 58.78235 
L 298.405796 61.347467 
L 299.219467 59.959776 
L 300.033137 59.371063 
L 300.846808 59.244889 
L 302.474149 60.842845 
L 303.28782 59.707452 
L 304.10149 60.127983 
L 304.915161 62.14642 
L 305.728831 60.380281 
L 306.542502 60.926936 
L 307.356172 59.286947 
L 308.169843 62.314627 
L 308.983513 59.413096 
L 309.797184 60.127983 
L 310.610854 61.305409 
L 311.424525 59.87566 
L 312.238195 59.497212 
L 313.051866 62.482835 
L 313.865537 59.581303 
L 314.679207 62.272569 
L 315.492878 61.515649 
L 316.306548 61.221293 
L 317.933889 59.118739 
L 318.74756 60.758729 
L 319.56123 59.497212 
L 320.374901 60.001809 
L 321.188571 60.043867 
L 322.002242 59.665419 
L 322.815913 60.716696 
L 323.629583 58.99259 
L 324.443254 59.244889 
L 325.256924 60.422339 
L 326.070595 58.02543 
L 326.884265 58.698234 
L 327.697936 59.707452 
L 328.511606 57.899256 
L 329.325277 57.604899 
L 330.138947 58.319786 
L 330.952618 57.226452 
L 331.766288 60.212074 
L 332.579959 59.497212 
L 333.39363 59.707452 
L 334.2073 57.899256 
L 335.020971 58.02543 
L 335.834641 60.716696 
L 336.648312 60.548489 
L 337.461982 59.202856 
L 338.275653 56.679772 
L 339.089323 58.02543 
L 339.902994 58.487968 
L 340.716664 56.637739 
L 341.530335 57.47875 
L 342.344005 57.773106 
L 343.157676 57.100302 
L 343.971347 60.170016 
L 344.785017 58.614143 
L 345.598688 57.436692 
L 346.412358 59.623361 
L 347.226029 59.160797 
L 348.039699 58.445935 
L 348.85337 58.067463 
L 349.66704 57.226452 
L 350.480711 59.413096 
L 351.294381 57.142335 
L 352.108052 58.740292 
L 352.921722 59.74951 
L 353.735393 57.016186 
L 354.549064 59.202856 
L 355.362734 56.385415 
L 356.176405 58.530027 
L 356.990075 57.562866 
L 357.803746 59.455154 
L 358.617416 57.310543 
L 359.431087 56.091059 
L 360.244757 58.193612 
L 361.058428 57.226452 
L 362.685769 59.791568 
L 363.49944 55.08184 
L 364.31311 58.487968 
L 365.126781 56.091059 
L 365.940451 59.371063 
L 366.754122 56.805946 
L 367.567792 56.595681 
L 368.381463 58.277728 
L 369.195133 56.847979 
L 370.008804 57.815164 
L 370.822474 57.016186 
L 371.636145 55.96491 
L 372.449815 58.99259 
L 374.077157 55.712611 
L 374.890827 57.941314 
L 375.704498 56.637739 
L 376.518168 55.96491 
L 377.331839 56.217208 
L 378.145509 57.899256 
L 378.95918 55.83876 
L 379.77285 55.502346 
L 380.586521 58.02543 
L 382.213862 55.628495 
L 383.027532 56.385415 
L 383.841203 55.922852 
L 384.654874 56.805946 
L 385.468544 55.207989 
L 386.282215 57.058244 
L 387.095885 55.96491 
L 387.909556 56.006968 
L 388.723226 55.039782 
L 389.536897 54.703393 
L 390.350567 56.469531 
L 391.164238 56.301324 
L 391.977908 53.568 
L 392.791579 57.689015 
L 393.605249 55.460313 
L 394.41892 53.904415 
L 396.046261 56.805946 
L 396.859932 55.292106 
L 397.673602 54.451069 
L 398.487273 55.334139 
L 398.487273 55.334139 
" style="fill:none;stroke:#2ca02c;stroke-linecap:square;stroke-width:1.5;"/>
   </g>
   <g id="patch_3">
    <path d="M 57.6 307.584 
L 57.6 41.472 
" style="fill:none;stroke:#000000;stroke-linecap:square;stroke-linejoin:miter;stroke-width:0.8;"/>
   </g>
   <g id="patch_4">
    <path d="M 414.72 307.584 
L 414.72 41.472 
" style="fill:none;stroke:#000000;stroke-linecap:square;stroke-linejoin:miter;stroke-width:0.8;"/>
   </g>
   <g id="patch_5">
    <path d="M 57.6 307.584 
L 414.72 307.584 
" style="fill:none;stroke:#000000;stroke-linecap:square;stroke-linejoin:miter;stroke-width:0.8;"/>
   </g>
   <g id="patch_6">
    <path d="M 57.6 41.472 
L 414.72 41.472 
" style="fill:none;stroke:#000000;stroke-linecap:square;stroke-linejoin:miter;stroke-width:0.8;"/>
   </g>
   <g id="legend_1">
    <g id="patch_7">
     <path d="M 268.748438 298.584 
L 402.12 298.584 
Q 405.72 298.584 405.72 294.984 
L 405.72 217.522125 
Q 405.72 213.922125 402.12 213.922125 
L 268.748438 213.922125 
Q 265.148438 213.922125 265.148438 217.522125 
L 265.148438 294.984 
Q 265.148438 298.584 268.748438 298.584 
z
" style="fill:#ffffff;opacity:0.8;stroke:#cccccc;stroke-linejoin:miter;"/>
    </g>
    <g id="line2d_28">
     <path d="M 272.348437 228.499312 
L 308.348437 228.499312 
" style="fill:none;stroke:#1f77b4;stroke-linecap:square;stroke-width:1.5;"/>
    </g>
    <g id="line2d_29"/>
    <g id="text_15">
     <!-- MLP -->
     <defs>
      <path d="M 9.1875 72.90625 
L 33.109375 72.90625 
L 49.703125 33.890625 
L 66.40625 72.90625 
L 90.28125 72.90625 
L 90.28125 0 
L 72.515625 0 
L 72.515625 53.328125 
L 55.71875 14.015625 
L 43.796875 14.015625 
L 27 53.328125 
L 27 0 
L 9.1875 0 
z
" id="DejaVuSans-Bold-77"/>
      <path d="M 9.1875 72.90625 
L 27.984375 72.90625 
L 27.984375 14.203125 
L 60.984375 14.203125 
L 60.984375 0 
L 9.1875 0 
z
" id="DejaVuSans-Bold-76"/>
      <path d="M 9.1875 72.90625 
L 40.375 72.90625 
Q 54.296875 72.90625 61.734375 66.71875 
Q 69.1875 60.546875 69.1875 49.125 
Q 69.1875 37.640625 61.734375 31.46875 
Q 54.296875 25.296875 40.375 25.296875 
L 27.984375 25.296875 
L 27.984375 0 
L 9.1875 0 
z
M 27.984375 59.28125 
L 27.984375 38.921875 
L 38.375 38.921875 
Q 43.84375 38.921875 46.828125 41.578125 
Q 49.8125 44.234375 49.8125 49.125 
Q 49.8125 54 46.828125 56.640625 
Q 43.84375 59.28125 38.375 59.28125 
z
" id="DejaVuSans-Bold-80"/>
     </defs>
     <g transform="translate(322.748437 234.799312)scale(0.18 -0.18)">
      <use xlink:href="#DejaVuSans-Bold-77"/>
      <use x="99.511719" xlink:href="#DejaVuSans-Bold-76"/>
      <use x="163.232422" xlink:href="#DejaVuSans-Bold-80"/>
     </g>
    </g>
    <g id="line2d_30">
     <path d="M 272.348437 254.919938 
L 308.348437 254.919938 
" style="fill:none;stroke:#ff7f0e;stroke-linecap:square;stroke-width:1.5;"/>
    </g>
    <g id="line2d_31"/>
    <g id="text_16">
     <!-- CenSET -->
     <defs>
      <path d="M 67 4 
Q 61.8125 1.3125 56.203125 -0.046875 
Q 50.59375 -1.421875 44.484375 -1.421875 
Q 26.265625 -1.421875 15.625 8.765625 
Q 4.984375 18.953125 4.984375 36.375 
Q 4.984375 53.859375 15.625 64.03125 
Q 26.265625 74.21875 44.484375 74.21875 
Q 50.59375 74.21875 56.203125 72.84375 
Q 61.8125 71.484375 67 68.796875 
L 67 53.71875 
Q 61.765625 57.28125 56.6875 58.9375 
Q 51.609375 60.59375 46 60.59375 
Q 35.9375 60.59375 30.171875 54.140625 
Q 24.421875 47.703125 24.421875 36.375 
Q 24.421875 25.09375 30.171875 18.640625 
Q 35.9375 12.203125 46 12.203125 
Q 51.609375 12.203125 56.6875 13.859375 
Q 61.765625 15.53125 67 19.09375 
z
" id="DejaVuSans-Bold-67"/>
      <path d="M 62.984375 27.484375 
L 62.984375 22.515625 
L 22.125 22.515625 
Q 22.75 16.359375 26.5625 13.28125 
Q 30.375 10.203125 37.203125 10.203125 
Q 42.71875 10.203125 48.5 11.84375 
Q 54.296875 13.484375 60.40625 16.796875 
L 60.40625 3.328125 
Q 54.203125 0.984375 48 -0.21875 
Q 41.796875 -1.421875 35.59375 -1.421875 
Q 20.75 -1.421875 12.515625 6.125 
Q 4.296875 13.671875 4.296875 27.296875 
Q 4.296875 40.671875 12.375 48.328125 
Q 20.453125 56 34.625 56 
Q 47.515625 56 55.25 48.234375 
Q 62.984375 40.484375 62.984375 27.484375 
z
M 45.015625 33.296875 
Q 45.015625 38.28125 42.109375 41.328125 
Q 39.203125 44.390625 34.515625 44.390625 
Q 29.4375 44.390625 26.265625 41.53125 
Q 23.09375 38.671875 22.3125 33.296875 
z
" id="DejaVuSans-Bold-101"/>
      <path d="M 63.375 33.296875 
L 63.375 0 
L 45.796875 0 
L 45.796875 5.421875 
L 45.796875 25.484375 
Q 45.796875 32.5625 45.484375 35.25 
Q 45.171875 37.9375 44.390625 39.203125 
Q 43.359375 40.921875 41.59375 41.875 
Q 39.84375 42.828125 37.59375 42.828125 
Q 32.125 42.828125 29 38.59375 
Q 25.875 34.375 25.875 26.90625 
L 25.875 0 
L 8.40625 0 
L 8.40625 54.6875 
L 25.875 54.6875 
L 25.875 46.6875 
Q 29.828125 51.46875 34.265625 53.734375 
Q 38.71875 56 44.09375 56 
Q 53.5625 56 58.46875 50.1875 
Q 63.375 44.390625 63.375 33.296875 
z
" id="DejaVuSans-Bold-110"/>
      <path d="M 59.90625 70.609375 
L 59.90625 55.171875 
Q 53.90625 57.859375 48.1875 59.21875 
Q 42.484375 60.59375 37.40625 60.59375 
Q 30.671875 60.59375 27.4375 58.734375 
Q 24.21875 56.890625 24.21875 52.984375 
Q 24.21875 50.046875 26.390625 48.40625 
Q 28.5625 46.78125 34.28125 45.609375 
L 42.28125 44 
Q 54.4375 41.546875 59.5625 36.5625 
Q 64.703125 31.59375 64.703125 22.40625 
Q 64.703125 10.359375 57.546875 4.46875 
Q 50.390625 -1.421875 35.6875 -1.421875 
Q 28.765625 -1.421875 21.78125 -0.09375 
Q 14.796875 1.21875 7.8125 3.8125 
L 7.8125 19.671875 
Q 14.796875 15.96875 21.3125 14.078125 
Q 27.828125 12.203125 33.890625 12.203125 
Q 40.046875 12.203125 43.3125 14.25 
Q 46.578125 16.3125 46.578125 20.125 
Q 46.578125 23.53125 44.359375 25.390625 
Q 42.140625 27.25 35.5 28.71875 
L 28.21875 30.328125 
Q 17.28125 32.671875 12.21875 37.796875 
Q 7.171875 42.921875 7.171875 51.609375 
Q 7.171875 62.5 14.203125 68.359375 
Q 21.234375 74.21875 34.421875 74.21875 
Q 40.4375 74.21875 46.78125 73.3125 
Q 53.125 72.40625 59.90625 70.609375 
z
" id="DejaVuSans-Bold-83"/>
      <path d="M 9.1875 72.90625 
L 59.90625 72.90625 
L 59.90625 58.6875 
L 27.984375 58.6875 
L 27.984375 45.125 
L 58.015625 45.125 
L 58.015625 30.90625 
L 27.984375 30.90625 
L 27.984375 14.203125 
L 60.984375 14.203125 
L 60.984375 0 
L 9.1875 0 
z
" id="DejaVuSans-Bold-69"/>
      <path d="M 0.484375 72.90625 
L 67.671875 72.90625 
L 67.671875 58.6875 
L 43.5 58.6875 
L 43.5 0 
L 24.703125 0 
L 24.703125 58.6875 
L 0.484375 58.6875 
z
" id="DejaVuSans-Bold-84"/>
     </defs>
     <g transform="translate(322.748437 261.219938)scale(0.18 -0.18)">
      <use xlink:href="#DejaVuSans-Bold-67"/>
      <use x="73.388672" xlink:href="#DejaVuSans-Bold-101"/>
      <use x="141.210938" xlink:href="#DejaVuSans-Bold-110"/>
      <use x="212.402344" xlink:href="#DejaVuSans-Bold-83"/>
      <use x="284.423828" xlink:href="#DejaVuSans-Bold-69"/>
      <use x="352.734375" xlink:href="#DejaVuSans-Bold-84"/>
     </g>
    </g>
    <g id="line2d_32">
     <path d="M 272.348437 281.340562 
L 308.348437 281.340562 
" style="fill:none;stroke:#2ca02c;stroke-linecap:square;stroke-width:1.5;"/>
    </g>
    <g id="line2d_33"/>
    <g id="text_17">
     <!-- SET -->
     <g transform="translate(322.748437 287.640562)scale(0.18 -0.18)">
      <use xlink:href="#DejaVuSans-Bold-83"/>
      <use x="72.021484" xlink:href="#DejaVuSans-Bold-69"/>
      <use x="140.332031" xlink:href="#DejaVuSans-Bold-84"/>
     </g>
    </g>
   </g>
  </g>
 </g>
 <defs>
  <clipPath id="p69443c803a">
   <rect height="266.112" width="357.12" x="57.6" y="41.472"/>
  </clipPath>
 </defs>
</svg>
