<?xml version="1.0" encoding="utf-8" standalone="no"?>
<!DOCTYPE svg PUBLIC "-//W3C//DTD SVG 1.1//EN"
  "http://www.w3.org/Graphics/SVG/1.1/DTD/svg11.dtd">
<!-- Created with matplotlib (https://matplotlib.org/) -->
<svg height="345.6pt" version="1.1" viewBox="0 0 460.8 345.6" width="460.8pt" xmlns="http://www.w3.org/2000/svg" xmlns:xlink="http://www.w3.org/1999/xlink">
 <defs>
  <style type="text/css">
*{stroke-linecap:butt;stroke-linejoin:round;}
  </style>
 </defs>
 <g id="figure_1">
  <g id="patch_1">
   <path d="M 0 345.6 
L 460.8 345.6 
L 460.8 0 
L 0 0 
z
" style="fill:#ffffff;"/>
  </g>
  <g id="axes_1">
   <g id="patch_2">
    <path d="M 57.6 307.584 
L 414.72 307.584 
L 414.72 41.472 
L 57.6 41.472 
z
" style="fill:#ffffff;"/>
   </g>
   <g id="matplotlib.axis_1">
    <g id="xtick_1">
     <g id="line2d_1">
      <path clip-path="url(#p13b4e7f76e)" d="M 73.832727 307.584 
L 73.832727 41.472 
" style="fill:none;stroke:#b0b0b0;stroke-linecap:square;stroke-width:0.8;"/>
     </g>
     <g id="line2d_2">
      <defs>
       <path d="M 0 0 
L 0 3.5 
" id="m4ce11e0f00" style="stroke:#000000;stroke-width:0.8;"/>
      </defs>
      <g>
       <use style="stroke:#000000;stroke-width:0.8;" x="73.832727" xlink:href="#m4ce11e0f00" y="307.584"/>
      </g>
     </g>
     <g id="text_1">
      <!-- 0 -->
      <defs>
       <path d="M 46 36.53125 
Q 46 50.203125 43.4375 55.78125 
Q 40.875 61.375 34.8125 61.375 
Q 28.765625 61.375 26.171875 55.78125 
Q 23.578125 50.203125 23.578125 36.53125 
Q 23.578125 22.703125 26.171875 17.03125 
Q 28.765625 11.375 34.8125 11.375 
Q 40.828125 11.375 43.40625 17.03125 
Q 46 22.703125 46 36.53125 
z
M 64.796875 36.375 
Q 64.796875 18.265625 56.984375 8.421875 
Q 49.171875 -1.421875 34.8125 -1.421875 
Q 20.40625 -1.421875 12.59375 8.421875 
Q 4.78125 18.265625 4.78125 36.375 
Q 4.78125 54.546875 12.59375 64.375 
Q 20.40625 74.21875 34.8125 74.21875 
Q 49.171875 74.21875 56.984375 64.375 
Q 64.796875 54.546875 64.796875 36.375 
z
" id="DejaVuSans-Bold-48"/>
      </defs>
      <g transform="translate(67.570696 328.261187)scale(0.18 -0.18)">
       <use xlink:href="#DejaVuSans-Bold-48"/>
      </g>
     </g>
    </g>
    <g id="xtick_2">
     <g id="line2d_3">
      <path clip-path="url(#p13b4e7f76e)" d="M 155.404221 307.584 
L 155.404221 41.472 
" style="fill:none;stroke:#b0b0b0;stroke-linecap:square;stroke-width:0.8;"/>
     </g>
     <g id="line2d_4">
      <g>
       <use style="stroke:#000000;stroke-width:0.8;" x="155.404221" xlink:href="#m4ce11e0f00" y="307.584"/>
      </g>
     </g>
     <g id="text_2">
      <!-- 50 -->
      <defs>
       <path d="M 10.59375 72.90625 
L 57.328125 72.90625 
L 57.328125 59.078125 
L 25.59375 59.078125 
L 25.59375 47.796875 
Q 27.734375 48.390625 29.90625 48.703125 
Q 32.078125 49.03125 34.421875 49.03125 
Q 47.75 49.03125 55.171875 42.359375 
Q 62.59375 35.6875 62.59375 23.78125 
Q 62.59375 11.96875 54.515625 5.265625 
Q 46.4375 -1.421875 32.078125 -1.421875 
Q 25.875 -1.421875 19.796875 -0.21875 
Q 13.71875 0.984375 7.71875 3.421875 
L 7.71875 18.21875 
Q 13.671875 14.796875 19.015625 13.078125 
Q 24.359375 11.375 29.109375 11.375 
Q 35.9375 11.375 39.859375 14.71875 
Q 43.796875 18.0625 43.796875 23.78125 
Q 43.796875 29.546875 39.859375 32.859375 
Q 35.9375 36.1875 29.109375 36.1875 
Q 25.046875 36.1875 20.453125 35.125 
Q 15.875 34.078125 10.59375 31.890625 
z
" id="DejaVuSans-Bold-53"/>
      </defs>
      <g transform="translate(142.880159 328.261187)scale(0.18 -0.18)">
       <use xlink:href="#DejaVuSans-Bold-53"/>
       <use x="69.580078" xlink:href="#DejaVuSans-Bold-48"/>
      </g>
     </g>
    </g>
    <g id="xtick_3">
     <g id="line2d_5">
      <path clip-path="url(#p13b4e7f76e)" d="M 236.975715 307.584 
L 236.975715 41.472 
" style="fill:none;stroke:#b0b0b0;stroke-linecap:square;stroke-width:0.8;"/>
     </g>
     <g id="line2d_6">
      <g>
       <use style="stroke:#000000;stroke-width:0.8;" x="236.975715" xlink:href="#m4ce11e0f00" y="307.584"/>
      </g>
     </g>
     <g id="text_3">
      <!-- 100 -->
      <defs>
       <path d="M 11.71875 12.984375 
L 28.328125 12.984375 
L 28.328125 60.109375 
L 11.28125 56.59375 
L 11.28125 69.390625 
L 28.21875 72.90625 
L 46.09375 72.90625 
L 46.09375 12.984375 
L 62.703125 12.984375 
L 62.703125 0 
L 11.71875 0 
z
" id="DejaVuSans-Bold-49"/>
      </defs>
      <g transform="translate(218.189621 328.261187)scale(0.18 -0.18)">
       <use xlink:href="#DejaVuSans-Bold-49"/>
       <use x="69.580078" xlink:href="#DejaVuSans-Bold-48"/>
       <use x="139.160156" xlink:href="#DejaVuSans-Bold-48"/>
      </g>
     </g>
    </g>
    <g id="xtick_4">
     <g id="line2d_7">
      <path clip-path="url(#p13b4e7f76e)" d="M 318.547209 307.584 
L 318.547209 41.472 
" style="fill:none;stroke:#b0b0b0;stroke-linecap:square;stroke-width:0.8;"/>
     </g>
     <g id="line2d_8">
      <g>
       <use style="stroke:#000000;stroke-width:0.8;" x="318.547209" xlink:href="#m4ce11e0f00" y="307.584"/>
      </g>
     </g>
     <g id="text_4">
      <!-- 150 -->
      <g transform="translate(299.761115 328.261187)scale(0.18 -0.18)">
       <use xlink:href="#DejaVuSans-Bold-49"/>
       <use x="69.580078" xlink:href="#DejaVuSans-Bold-53"/>
       <use x="139.160156" xlink:href="#DejaVuSans-Bold-48"/>
      </g>
     </g>
    </g>
    <g id="xtick_5">
     <g id="line2d_9">
      <path clip-path="url(#p13b4e7f76e)" d="M 400.118703 307.584 
L 400.118703 41.472 
" style="fill:none;stroke:#b0b0b0;stroke-linecap:square;stroke-width:0.8;"/>
     </g>
     <g id="line2d_10">
      <g>
       <use style="stroke:#000000;stroke-width:0.8;" x="400.118703" xlink:href="#m4ce11e0f00" y="307.584"/>
      </g>
     </g>
     <g id="text_5">
      <!-- 200 -->
      <defs>
       <path d="M 28.8125 13.8125 
L 60.890625 13.8125 
L 60.890625 0 
L 7.90625 0 
L 7.90625 13.8125 
L 34.515625 37.3125 
Q 38.09375 40.53125 39.796875 43.609375 
Q 41.5 46.6875 41.5 50 
Q 41.5 55.125 38.0625 58.25 
Q 34.625 61.375 28.90625 61.375 
Q 24.515625 61.375 19.28125 59.5 
Q 14.0625 57.625 8.109375 53.90625 
L 8.109375 69.921875 
Q 14.453125 72.015625 20.65625 73.109375 
Q 26.859375 74.21875 32.8125 74.21875 
Q 45.90625 74.21875 53.15625 68.453125 
Q 60.40625 62.703125 60.40625 52.390625 
Q 60.40625 46.4375 57.328125 41.28125 
Q 54.25 36.140625 44.390625 27.484375 
z
" id="DejaVuSans-Bold-50"/>
      </defs>
      <g transform="translate(381.332609 328.261187)scale(0.18 -0.18)">
       <use xlink:href="#DejaVuSans-Bold-50"/>
       <use x="69.580078" xlink:href="#DejaVuSans-Bold-48"/>
       <use x="139.160156" xlink:href="#DejaVuSans-Bold-48"/>
      </g>
     </g>
    </g>
    <g id="text_6">
     <!-- Epoch[#] -->
     <defs>
      <path d="M 9.8125 72.90625 
L 55.90625 72.90625 
L 55.90625 64.59375 
L 19.671875 64.59375 
L 19.671875 43.015625 
L 54.390625 43.015625 
L 54.390625 34.71875 
L 19.671875 34.71875 
L 19.671875 8.296875 
L 56.78125 8.296875 
L 56.78125 0 
L 9.8125 0 
z
" id="DejaVuSans-69"/>
      <path d="M 18.109375 8.203125 
L 18.109375 -20.796875 
L 9.078125 -20.796875 
L 9.078125 54.6875 
L 18.109375 54.6875 
L 18.109375 46.390625 
Q 20.953125 51.265625 25.265625 53.625 
Q 29.59375 56 35.59375 56 
Q 45.5625 56 51.78125 48.09375 
Q 58.015625 40.1875 58.015625 27.296875 
Q 58.015625 14.40625 51.78125 6.484375 
Q 45.5625 -1.421875 35.59375 -1.421875 
Q 29.59375 -1.421875 25.265625 0.953125 
Q 20.953125 3.328125 18.109375 8.203125 
z
M 48.6875 27.296875 
Q 48.6875 37.203125 44.609375 42.84375 
Q 40.53125 48.484375 33.40625 48.484375 
Q 26.265625 48.484375 22.1875 42.84375 
Q 18.109375 37.203125 18.109375 27.296875 
Q 18.109375 17.390625 22.1875 11.75 
Q 26.265625 6.109375 33.40625 6.109375 
Q 40.53125 6.109375 44.609375 11.75 
Q 48.6875 17.390625 48.6875 27.296875 
z
" id="DejaVuSans-112"/>
      <path d="M 30.609375 48.390625 
Q 23.390625 48.390625 19.1875 42.75 
Q 14.984375 37.109375 14.984375 27.296875 
Q 14.984375 17.484375 19.15625 11.84375 
Q 23.34375 6.203125 30.609375 6.203125 
Q 37.796875 6.203125 41.984375 11.859375 
Q 46.1875 17.53125 46.1875 27.296875 
Q 46.1875 37.015625 41.984375 42.703125 
Q 37.796875 48.390625 30.609375 48.390625 
z
M 30.609375 56 
Q 42.328125 56 49.015625 48.375 
Q 55.71875 40.765625 55.71875 27.296875 
Q 55.71875 13.875 49.015625 6.21875 
Q 42.328125 -1.421875 30.609375 -1.421875 
Q 18.84375 -1.421875 12.171875 6.21875 
Q 5.515625 13.875 5.515625 27.296875 
Q 5.515625 40.765625 12.171875 48.375 
Q 18.84375 56 30.609375 56 
z
" id="DejaVuSans-111"/>
      <path d="M 48.78125 52.59375 
L 48.78125 44.1875 
Q 44.96875 46.296875 41.140625 47.34375 
Q 37.3125 48.390625 33.40625 48.390625 
Q 24.65625 48.390625 19.8125 42.84375 
Q 14.984375 37.3125 14.984375 27.296875 
Q 14.984375 17.28125 19.8125 11.734375 
Q 24.65625 6.203125 33.40625 6.203125 
Q 37.3125 6.203125 41.140625 7.25 
Q 44.96875 8.296875 48.78125 10.40625 
L 48.78125 2.09375 
Q 45.015625 0.34375 40.984375 -0.53125 
Q 36.96875 -1.421875 32.421875 -1.421875 
Q 20.0625 -1.421875 12.78125 6.34375 
Q 5.515625 14.109375 5.515625 27.296875 
Q 5.515625 40.671875 12.859375 48.328125 
Q 20.21875 56 33.015625 56 
Q 37.15625 56 41.109375 55.140625 
Q 45.0625 54.296875 48.78125 52.59375 
z
" id="DejaVuSans-99"/>
      <path d="M 54.890625 33.015625 
L 54.890625 0 
L 45.90625 0 
L 45.90625 32.71875 
Q 45.90625 40.484375 42.875 44.328125 
Q 39.84375 48.1875 33.796875 48.1875 
Q 26.515625 48.1875 22.3125 43.546875 
Q 18.109375 38.921875 18.109375 30.90625 
L 18.109375 0 
L 9.078125 0 
L 9.078125 75.984375 
L 18.109375 75.984375 
L 18.109375 46.1875 
Q 21.34375 51.125 25.703125 53.5625 
Q 30.078125 56 35.796875 56 
Q 45.21875 56 50.046875 50.171875 
Q 54.890625 44.34375 54.890625 33.015625 
z
" id="DejaVuSans-104"/>
      <path d="M 8.59375 75.984375 
L 29.296875 75.984375 
L 29.296875 69 
L 17.578125 69 
L 17.578125 -6.203125 
L 29.296875 -6.203125 
L 29.296875 -13.1875 
L 8.59375 -13.1875 
z
" id="DejaVuSans-91"/>
      <path d="M 51.125 44 
L 36.921875 44 
L 32.8125 27.6875 
L 47.125 27.6875 
z
M 43.796875 71.78125 
L 38.71875 51.515625 
L 52.984375 51.515625 
L 58.109375 71.78125 
L 65.921875 71.78125 
L 60.890625 51.515625 
L 76.125 51.515625 
L 76.125 44 
L 58.984375 44 
L 54.984375 27.6875 
L 70.515625 27.6875 
L 70.515625 20.21875 
L 53.078125 20.21875 
L 48 0 
L 40.1875 0 
L 45.21875 20.21875 
L 30.90625 20.21875 
L 25.875 0 
L 18.015625 0 
L 23.09375 20.21875 
L 7.71875 20.21875 
L 7.71875 27.6875 
L 24.90625 27.6875 
L 29 44 
L 13.28125 44 
L 13.28125 51.515625 
L 30.90625 51.515625 
L 35.890625 71.78125 
z
" id="DejaVuSans-35"/>
      <path d="M 30.421875 75.984375 
L 30.421875 -13.1875 
L 9.71875 -13.1875 
L 9.71875 -6.203125 
L 21.390625 -6.203125 
L 21.390625 69 
L 9.71875 69 
L 9.71875 75.984375 
z
" id="DejaVuSans-93"/>
     </defs>
     <g transform="translate(179.994375 354.240875)scale(0.24 -0.24)">
      <use xlink:href="#DejaVuSans-69"/>
      <use x="63.183594" xlink:href="#DejaVuSans-112"/>
      <use x="126.660156" xlink:href="#DejaVuSans-111"/>
      <use x="187.841797" xlink:href="#DejaVuSans-99"/>
      <use x="242.822266" xlink:href="#DejaVuSans-104"/>
      <use x="306.201172" xlink:href="#DejaVuSans-91"/>
      <use x="345.214844" xlink:href="#DejaVuSans-35"/>
      <use x="429.003906" xlink:href="#DejaVuSans-93"/>
     </g>
    </g>
   </g>
   <g id="matplotlib.axis_2">
    <g id="ytick_1">
     <g id="line2d_11">
      <path clip-path="url(#p13b4e7f76e)" d="M 57.6 243.007223 
L 414.72 243.007223 
" style="fill:none;stroke:#b0b0b0;stroke-linecap:square;stroke-width:0.8;"/>
     </g>
     <g id="line2d_12">
      <defs>
       <path d="M 0 0 
L -3.5 0 
" id="m6e54cc0d7d" style="stroke:#000000;stroke-width:0.8;"/>
      </defs>
      <g>
       <use style="stroke:#000000;stroke-width:0.8;" x="57.6" xlink:href="#m6e54cc0d7d" y="243.007223"/>
      </g>
     </g>
     <g id="text_7">
      <!-- 75 -->
      <defs>
       <path d="M 6.6875 72.90625 
L 61.625 72.90625 
L 61.625 62.3125 
L 33.203125 0 
L 14.890625 0 
L 41.796875 59.078125 
L 6.6875 59.078125 
z
" id="DejaVuSans-Bold-55"/>
      </defs>
      <g transform="translate(25.551875 249.845817)scale(0.18 -0.18)">
       <use xlink:href="#DejaVuSans-Bold-55"/>
       <use x="69.580078" xlink:href="#DejaVuSans-Bold-53"/>
      </g>
     </g>
    </g>
    <g id="ytick_2">
     <g id="line2d_13">
      <path clip-path="url(#p13b4e7f76e)" d="M 57.6 168.248247 
L 414.72 168.248247 
" style="fill:none;stroke:#b0b0b0;stroke-linecap:square;stroke-width:0.8;"/>
     </g>
     <g id="line2d_14">
      <g>
       <use style="stroke:#000000;stroke-width:0.8;" x="57.6" xlink:href="#m6e54cc0d7d" y="168.248247"/>
      </g>
     </g>
     <g id="text_8">
      <!-- 80 -->
      <defs>
       <path d="M 34.8125 32.625 
Q 29.546875 32.625 26.703125 29.734375 
Q 23.875 26.859375 23.875 21.484375 
Q 23.875 16.109375 26.703125 13.25 
Q 29.546875 10.40625 34.8125 10.40625 
Q 40.046875 10.40625 42.828125 13.25 
Q 45.609375 16.109375 45.609375 21.484375 
Q 45.609375 26.90625 42.828125 29.765625 
Q 40.046875 32.625 34.8125 32.625 
z
M 21.09375 38.8125 
Q 14.453125 40.828125 11.078125 44.96875 
Q 7.71875 49.125 7.71875 55.328125 
Q 7.71875 64.546875 14.59375 69.375 
Q 21.484375 74.21875 34.8125 74.21875 
Q 48.046875 74.21875 54.921875 69.40625 
Q 61.8125 64.59375 61.8125 55.328125 
Q 61.8125 49.125 58.421875 44.96875 
Q 55.03125 40.828125 48.390625 38.8125 
Q 55.8125 36.765625 59.59375 32.15625 
Q 63.375 27.546875 63.375 20.515625 
Q 63.375 9.671875 56.171875 4.125 
Q 48.96875 -1.421875 34.8125 -1.421875 
Q 20.609375 -1.421875 13.359375 4.125 
Q 6.109375 9.671875 6.109375 20.515625 
Q 6.109375 27.546875 9.890625 32.15625 
Q 13.671875 36.765625 21.09375 38.8125 
z
M 25.484375 53.421875 
Q 25.484375 49.078125 27.90625 46.734375 
Q 30.328125 44.390625 34.8125 44.390625 
Q 39.203125 44.390625 41.59375 46.734375 
Q 44 49.078125 44 53.421875 
Q 44 57.765625 41.59375 60.078125 
Q 39.203125 62.40625 34.8125 62.40625 
Q 30.328125 62.40625 27.90625 60.0625 
Q 25.484375 57.71875 25.484375 53.421875 
z
" id="DejaVuSans-Bold-56"/>
      </defs>
      <g transform="translate(25.551875 175.08684)scale(0.18 -0.18)">
       <use xlink:href="#DejaVuSans-Bold-56"/>
       <use x="69.580078" xlink:href="#DejaVuSans-Bold-48"/>
      </g>
     </g>
    </g>
    <g id="ytick_3">
     <g id="line2d_15">
      <path clip-path="url(#p13b4e7f76e)" d="M 57.6 93.48927 
L 414.72 93.48927 
" style="fill:none;stroke:#b0b0b0;stroke-linecap:square;stroke-width:0.8;"/>
     </g>
     <g id="line2d_16">
      <g>
       <use style="stroke:#000000;stroke-width:0.8;" x="57.6" xlink:href="#m6e54cc0d7d" y="93.48927"/>
      </g>
     </g>
     <g id="text_9">
      <!-- 85 -->
      <g transform="translate(25.551875 100.327864)scale(0.18 -0.18)">
       <use xlink:href="#DejaVuSans-Bold-56"/>
       <use x="69.580078" xlink:href="#DejaVuSans-Bold-53"/>
      </g>
     </g>
    </g>
    <g id="text_10">
     <!-- Accuracy [%] -->
     <defs>
      <path d="M 34.1875 63.1875 
L 20.796875 26.90625 
L 47.609375 26.90625 
z
M 28.609375 72.90625 
L 39.796875 72.90625 
L 67.578125 0 
L 57.328125 0 
L 50.6875 18.703125 
L 17.828125 18.703125 
L 11.1875 0 
L 0.78125 0 
z
" id="DejaVuSans-65"/>
      <path d="M 8.5 21.578125 
L 8.5 54.6875 
L 17.484375 54.6875 
L 17.484375 21.921875 
Q 17.484375 14.15625 20.5 10.265625 
Q 23.53125 6.390625 29.59375 6.390625 
Q 36.859375 6.390625 41.078125 11.03125 
Q 45.3125 15.671875 45.3125 23.6875 
L 45.3125 54.6875 
L 54.296875 54.6875 
L 54.296875 0 
L 45.3125 0 
L 45.3125 8.40625 
Q 42.046875 3.421875 37.71875 1 
Q 33.40625 -1.421875 27.6875 -1.421875 
Q 18.265625 -1.421875 13.375 4.4375 
Q 8.5 10.296875 8.5 21.578125 
z
M 31.109375 56 
z
" id="DejaVuSans-117"/>
      <path d="M 41.109375 46.296875 
Q 39.59375 47.171875 37.8125 47.578125 
Q 36.03125 48 33.890625 48 
Q 26.265625 48 22.1875 43.046875 
Q 18.109375 38.09375 18.109375 28.8125 
L 18.109375 0 
L 9.078125 0 
L 9.078125 54.6875 
L 18.109375 54.6875 
L 18.109375 46.1875 
Q 20.953125 51.171875 25.484375 53.578125 
Q 30.03125 56 36.53125 56 
Q 37.453125 56 38.578125 55.875 
Q 39.703125 55.765625 41.0625 55.515625 
z
" id="DejaVuSans-114"/>
      <path d="M 34.28125 27.484375 
Q 23.390625 27.484375 19.1875 25 
Q 14.984375 22.515625 14.984375 16.5 
Q 14.984375 11.71875 18.140625 8.90625 
Q 21.296875 6.109375 26.703125 6.109375 
Q 34.1875 6.109375 38.703125 11.40625 
Q 43.21875 16.703125 43.21875 25.484375 
L 43.21875 27.484375 
z
M 52.203125 31.203125 
L 52.203125 0 
L 43.21875 0 
L 43.21875 8.296875 
Q 40.140625 3.328125 35.546875 0.953125 
Q 30.953125 -1.421875 24.3125 -1.421875 
Q 15.921875 -1.421875 10.953125 3.296875 
Q 6 8.015625 6 15.921875 
Q 6 25.140625 12.171875 29.828125 
Q 18.359375 34.515625 30.609375 34.515625 
L 43.21875 34.515625 
L 43.21875 35.40625 
Q 43.21875 41.609375 39.140625 45 
Q 35.0625 48.390625 27.6875 48.390625 
Q 23 48.390625 18.546875 47.265625 
Q 14.109375 46.140625 10.015625 43.890625 
L 10.015625 52.203125 
Q 14.9375 54.109375 19.578125 55.046875 
Q 24.21875 56 28.609375 56 
Q 40.484375 56 46.34375 49.84375 
Q 52.203125 43.703125 52.203125 31.203125 
z
" id="DejaVuSans-97"/>
      <path d="M 32.171875 -5.078125 
Q 28.375 -14.84375 24.75 -17.8125 
Q 21.140625 -20.796875 15.09375 -20.796875 
L 7.90625 -20.796875 
L 7.90625 -13.28125 
L 13.1875 -13.28125 
Q 16.890625 -13.28125 18.9375 -11.515625 
Q 21 -9.765625 23.484375 -3.21875 
L 25.09375 0.875 
L 2.984375 54.6875 
L 12.5 54.6875 
L 29.59375 11.921875 
L 46.6875 54.6875 
L 56.203125 54.6875 
z
" id="DejaVuSans-121"/>
      <path id="DejaVuSans-32"/>
      <path d="M 72.703125 32.078125 
Q 68.453125 32.078125 66.03125 28.46875 
Q 63.625 24.859375 63.625 18.40625 
Q 63.625 12.0625 66.03125 8.421875 
Q 68.453125 4.78125 72.703125 4.78125 
Q 76.859375 4.78125 79.265625 8.421875 
Q 81.6875 12.0625 81.6875 18.40625 
Q 81.6875 24.8125 79.265625 28.4375 
Q 76.859375 32.078125 72.703125 32.078125 
z
M 72.703125 38.28125 
Q 80.421875 38.28125 84.953125 32.90625 
Q 89.5 27.546875 89.5 18.40625 
Q 89.5 9.28125 84.9375 3.921875 
Q 80.375 -1.421875 72.703125 -1.421875 
Q 64.890625 -1.421875 60.34375 3.921875 
Q 55.8125 9.28125 55.8125 18.40625 
Q 55.8125 27.59375 60.375 32.9375 
Q 64.9375 38.28125 72.703125 38.28125 
z
M 22.3125 68.015625 
Q 18.109375 68.015625 15.6875 64.375 
Q 13.28125 60.75 13.28125 54.390625 
Q 13.28125 47.953125 15.671875 44.328125 
Q 18.0625 40.71875 22.3125 40.71875 
Q 26.5625 40.71875 28.96875 44.328125 
Q 31.390625 47.953125 31.390625 54.390625 
Q 31.390625 60.6875 28.953125 64.34375 
Q 26.515625 68.015625 22.3125 68.015625 
z
M 66.40625 74.21875 
L 74.21875 74.21875 
L 28.609375 -1.421875 
L 20.796875 -1.421875 
z
M 22.3125 74.21875 
Q 30.03125 74.21875 34.609375 68.875 
Q 39.203125 63.53125 39.203125 54.390625 
Q 39.203125 45.171875 34.640625 39.84375 
Q 30.078125 34.515625 22.3125 34.515625 
Q 14.546875 34.515625 10.03125 39.859375 
Q 5.515625 45.21875 5.515625 54.390625 
Q 5.515625 63.484375 10.046875 68.84375 
Q 14.59375 74.21875 22.3125 74.21875 
z
" id="DejaVuSans-37"/>
     </defs>
     <g transform="translate(16.560625 254.103)rotate(-90)scale(0.24 -0.24)">
      <use xlink:href="#DejaVuSans-65"/>
      <use x="68.392578" xlink:href="#DejaVuSans-99"/>
      <use x="123.373047" xlink:href="#DejaVuSans-99"/>
      <use x="178.353516" xlink:href="#DejaVuSans-117"/>
      <use x="241.732422" xlink:href="#DejaVuSans-114"/>
      <use x="282.845703" xlink:href="#DejaVuSans-97"/>
      <use x="344.125" xlink:href="#DejaVuSans-99"/>
      <use x="399.105469" xlink:href="#DejaVuSans-121"/>
      <use x="458.285156" xlink:href="#DejaVuSans-32"/>
      <use x="490.072266" xlink:href="#DejaVuSans-91"/>
      <use x="529.085938" xlink:href="#DejaVuSans-37"/>
      <use x="624.105469" xlink:href="#DejaVuSans-93"/>
     </g>
    </g>
   </g>
   <g id="line2d_17">
    <path clip-path="url(#p13b4e7f76e)" d="M 73.832727 224.018411 
L 75.464157 205.627771 
L 77.095587 192.769232 
L 78.727017 174.976584 
L 80.358447 171.089096 
L 81.989877 155.987772 
L 83.621307 170.640557 
L 85.252736 156.436311 
L 86.884166 148.063342 
L 88.515596 142.97969 
L 90.147026 135.5038 
L 91.778456 133.5601 
L 93.409886 134.307636 
L 95.041316 136.101882 
L 96.672746 127.130831 
L 98.304175 128.625991 
L 99.935605 116.215991 
L 101.567035 121.59864 
L 103.198465 116.963616 
L 104.829895 117.860694 
L 106.461325 108.889644 
L 108.092755 108.291562 
L 109.724185 110.833343 
L 111.355614 108.889644 
L 112.987044 110.235261 
L 114.618474 106.945855 
L 116.249904 105.899234 
L 117.881334 110.6838 
L 119.512764 106.796401 
L 121.144194 100.815671 
L 122.775624 97.675808 
L 124.407053 101.712749 
L 126.038483 104.404074 
L 127.669913 92.741699 
L 129.301343 94.984484 
L 130.932773 96.330101 
L 132.564203 94.087316 
L 134.195633 92.143617 
L 135.827063 93.489234 
L 137.458492 88.555214 
L 139.089922 89.153207 
L 140.721352 90.050374 
L 142.352782 97.077726 
L 143.984212 91.246538 
L 145.615642 88.256129 
L 147.247072 83.770559 
L 148.878502 89.153207 
L 150.509931 86.760968 
L 152.141361 86.312429 
L 153.772791 85.265808 
L 155.404221 83.322019 
L 157.035651 78.088914 
L 158.667081 83.471562 
L 160.298511 83.471562 
L 161.929941 84.069644 
L 163.56137 82.87348 
L 165.1928 83.770559 
L 166.82423 83.023023 
L 168.45566 83.172566 
L 170.08709 79.434621 
L 171.71852 87.059965 
L 173.34995 80.780238 
L 174.98138 88.106586 
L 176.61281 84.069644 
L 178.244239 81.228777 
L 179.875669 83.322019 
L 181.507099 86.910511 
L 183.138529 83.172566 
L 184.769959 76.593754 
L 186.401389 77.341289 
L 188.032819 81.976402 
L 189.664249 77.789917 
L 191.295678 77.939371 
L 192.927108 77.191836 
L 194.558538 73.304347 
L 196.189968 85.714347 
L 197.821398 85.714347 
L 199.452828 76.294668 
L 202.715688 81.976402 
L 204.347117 82.424941 
L 205.978547 75.248047 
L 207.609977 74.201426 
L 209.241407 80.481242 
L 210.872837 74.799508 
L 212.504267 78.238457 
L 214.135697 74.799508 
L 215.767127 77.789917 
L 217.398556 78.088914 
L 219.029986 86.013344 
L 220.661416 79.584074 
L 222.292846 75.248047 
L 223.924276 73.304347 
L 225.555706 70.014941 
L 227.187136 76.89275 
L 228.818566 76.593754 
L 230.449995 69.117863 
L 232.081425 72.257726 
L 233.712855 73.304347 
L 235.344285 67.921699 
L 236.975715 65.080832 
L 238.607145 69.865399 
L 240.238575 73.45389 
L 241.870005 75.547132 
L 243.501434 68.220696 
L 245.132864 68.96832 
L 246.764294 77.640375 
L 248.395724 67.622703 
L 250.027154 75.696675 
L 251.658584 74.799508 
L 253.290014 76.145214 
L 254.921444 63.884757 
L 256.552873 72.257726 
L 258.184303 71.510102 
L 259.815733 65.230375 
L 261.447163 74.500511 
L 263.078593 67.921699 
L 264.710023 67.622703 
L 266.341453 63.436129 
L 267.972883 71.958641 
L 269.604312 72.706266 
L 271.235742 70.014941 
L 272.867172 73.005351 
L 274.498602 68.519781 
L 276.130032 67.921699 
L 277.761462 73.603344 
L 279.392892 67.772156 
L 282.655751 71.809187 
L 284.287181 67.47316 
L 285.918611 66.576082 
L 287.550041 68.669324 
L 289.181471 68.669324 
L 290.812901 67.323617 
L 292.444331 64.333297 
L 294.075761 61.641972 
L 295.70719 64.034211 
L 297.33862 63.436129 
L 298.97005 67.47316 
L 300.60148 68.669324 
L 302.23291 64.034211 
L 303.86434 66.725535 
L 305.49577 68.818778 
L 307.1272 63.735215 
L 308.75863 61.193433 
L 310.390059 69.267406 
L 312.021489 60.894348 
L 313.652919 61.342887 
L 315.284349 65.230375 
L 316.915779 66.276996 
L 318.547209 60.744805 
L 320.178639 61.791426 
L 321.810069 64.632293 
L 323.441498 69.865399 
L 325.072928 63.137133 
L 326.704358 67.174074 
L 328.335788 69.416859 
L 329.967218 61.49243 
L 331.598648 64.781836 
L 333.230078 59.399187 
L 334.861508 61.49243 
L 336.492937 66.276996 
L 338.124367 68.818778 
L 339.755797 68.220696 
L 341.387227 62.090512 
L 343.018657 57.156403 
L 344.650087 61.641972 
L 346.281517 60.595351 
L 347.912947 62.240054 
L 349.544376 60.744805 
L 351.175806 63.884757 
L 352.807236 65.828457 
L 354.438666 58.950648 
L 356.070096 65.529371 
L 357.701526 66.725535 
L 359.332956 61.49243 
L 360.964386 63.735215 
L 362.595815 62.389508 
L 364.227245 64.781836 
L 365.858675 61.193433 
L 367.490105 53.568 
L 369.121535 63.137133 
L 370.752965 62.688594 
L 372.384395 61.193433 
L 374.015825 58.502109 
L 375.647254 58.801106 
L 377.278684 59.997269 
L 378.910114 60.445809 
L 380.541544 62.688594 
L 382.172974 62.389508 
L 383.804404 61.940969 
L 385.435834 61.641972 
L 387.067264 63.286676 
L 388.698693 62.389508 
L 390.330123 62.98759 
L 391.961553 57.305945 
L 393.592983 60.296266 
L 396.855843 61.193433 
L 398.487273 58.801106 
L 398.487273 58.801106 
" style="fill:none;stroke:#1f77b4;stroke-linecap:square;stroke-width:1.5;"/>
   </g>
   <g id="line2d_18">
    <path clip-path="url(#p13b4e7f76e)" d="M 73.832727 283.227543 
L 77.095587 227.008821 
L 78.727017 216.542521 
L 80.358447 193.965307 
L 81.989877 198.450876 
L 83.621307 184.994256 
L 85.252736 177.518365 
L 86.884166 174.677498 
L 88.515596 164.659826 
L 90.147026 170.192017 
L 91.778456 162.86558 
L 93.409886 157.782018 
L 95.041316 154.044072 
L 96.672746 154.193526 
L 98.304175 152.997451 
L 99.935605 150.90412 
L 101.567035 152.249827 
L 103.198465 146.867178 
L 104.829895 139.391288 
L 106.461325 141.185533 
L 108.092755 136.99896 
L 109.724185 137.298045 
L 111.355614 132.962018 
L 112.987044 140.587452 
L 116.249904 131.317315 
L 117.881334 140.437909 
L 119.512764 127.57937 
L 121.144194 127.878366 
L 122.775624 125.037589 
L 124.407053 127.57937 
L 126.038483 132.363936 
L 127.669913 123.0938 
L 129.301343 122.495718 
L 130.932773 120.851015 
L 132.564203 118.159691 
L 134.195633 126.682292 
L 135.827063 122.196722 
L 137.458492 126.383206 
L 139.089922 124.888046 
L 140.721352 119.056858 
L 142.352782 122.794804 
L 143.984212 118.757773 
L 145.615642 124.140421 
L 147.247072 126.08421 
L 148.878502 118.159691 
L 150.509931 119.65494 
L 152.141361 121.748182 
L 153.772791 124.439507 
L 155.404221 113.823753 
L 157.035651 120.402476 
L 158.667081 115.767452 
L 160.298511 114.421746 
L 161.929941 116.963616 
L 163.56137 116.664531 
L 165.1928 122.495718 
L 166.82423 115.916995 
L 168.45566 112.627589 
L 171.71852 116.814073 
L 173.34995 114.720831 
L 174.98138 114.571288 
L 176.61281 116.664531 
L 178.244239 112.17905 
L 179.875669 112.926585 
L 181.507099 108.889644 
L 183.138529 111.580968 
L 184.769959 115.318913 
L 186.401389 110.982886 
L 188.032819 109.637179 
L 189.664249 110.982886 
L 191.295678 115.468367 
L 192.927108 115.916995 
L 194.558538 114.421746 
L 196.189968 111.730421 
L 197.821398 111.580968 
L 199.452828 110.534347 
L 201.084258 112.029507 
L 202.715688 111.879964 
L 204.347117 112.478046 
L 205.978547 104.105077 
L 207.609977 106.945855 
L 209.241407 107.24494 
L 210.872837 113.524667 
L 212.504267 108.142019 
L 214.135697 115.318913 
L 215.767127 112.627589 
L 217.398556 107.394483 
L 219.029986 110.384804 
L 220.661416 108.590558 
L 222.292846 104.852613 
L 223.924276 109.338183 
L 225.555706 105.600237 
L 227.187136 105.899234 
L 228.818566 106.796401 
L 230.449995 105.002156 
L 232.081425 102.460374 
L 233.712855 106.198319 
L 235.344285 108.590558 
L 236.975715 100.068046 
L 238.607145 105.74978 
L 240.238575 112.926585 
L 241.870005 108.441104 
L 243.501434 102.310831 
L 245.132864 107.69348 
L 246.764294 108.889644 
L 248.395724 109.786722 
L 250.027154 105.151698 
L 251.658584 105.74978 
L 253.290014 104.105077 
L 254.921444 99.469964 
L 256.552873 101.712749 
L 258.184303 101.712749 
L 259.815733 106.198319 
L 261.447163 104.404074 
L 263.078593 106.198319 
L 264.710023 103.656449 
L 266.341453 105.301152 
L 267.972883 106.048777 
L 269.604312 100.516586 
L 271.235742 99.170968 
L 272.867172 106.796401 
L 274.498602 109.637179 
L 276.130032 103.805992 
L 277.761462 103.656449 
L 279.392892 99.918504 
L 281.024322 106.646859 
L 282.655751 101.114667 
L 284.287181 103.805992 
L 285.918611 106.048777 
L 287.550041 102.011835 
L 289.181471 107.24494 
L 290.812901 102.759371 
L 292.444331 108.142019 
L 294.075761 107.095398 
L 295.70719 102.460374 
L 297.33862 100.965125 
L 298.97005 103.805992 
L 300.60148 113.67421 
L 302.23291 111.132429 
L 303.86434 106.945855 
L 305.49577 99.320511 
L 307.1272 98.124347 
L 308.75863 106.497316 
L 312.021489 97.376722 
L 313.652919 105.301152 
L 315.284349 100.516586 
L 316.915779 105.002156 
L 318.547209 96.928183 
L 320.178639 102.759371 
L 321.810069 98.572886 
L 323.441498 103.656449 
L 325.072928 105.450695 
L 326.704358 106.945855 
L 328.335788 106.646859 
L 329.967218 110.085718 
L 331.598648 101.413753 
L 333.230078 98.871882 
L 334.861508 100.217589 
L 336.492937 100.367132 
L 338.124367 101.413753 
L 339.755797 100.815671 
L 341.387227 99.021425 
L 343.018657 103.656449 
L 344.650087 96.77864 
L 346.281517 107.24494 
L 347.912947 100.516586 
L 349.544376 103.357452 
L 351.175806 97.974804 
L 352.807236 101.114667 
L 354.438666 99.170968 
L 356.070096 106.497316 
L 357.701526 99.021425 
L 359.332956 94.386402 
L 360.964386 98.572886 
L 362.595815 94.087316 
L 364.227245 102.011835 
L 365.858675 104.703159 
L 367.490105 100.068046 
L 369.121535 93.78832 
L 370.752965 103.955534 
L 372.384395 96.928183 
L 374.015825 96.479644 
L 375.647254 101.563207 
L 377.278684 95.881562 
L 378.910114 98.124347 
L 380.541544 99.021425 
L 382.172974 102.011835 
L 383.804404 100.965125 
L 385.435834 96.330101 
L 387.067264 97.376722 
L 388.698693 91.994074 
L 390.330123 101.413753 
L 391.961553 97.974804 
L 393.592983 98.124347 
L 395.224413 92.592156 
L 396.855843 93.489234 
L 398.487273 99.320511 
L 398.487273 99.320511 
" style="fill:none;stroke:#ff7f0e;stroke-linecap:square;stroke-width:1.5;"/>
   </g>
   <g id="line2d_19">
    <path clip-path="url(#p13b4e7f76e)" d="M 73.832727 295.488 
L 75.464157 255.566766 
L 77.095587 230.298227 
L 78.727017 209.06663 
L 80.358447 198.899416 
L 81.989877 185.891334 
L 83.621307 184.396174 
L 85.252736 176.77074 
L 88.515596 165.407362 
L 91.778456 158.978092 
L 93.409886 154.492612 
L 95.041316 152.698366 
L 96.672746 148.810878 
L 98.304175 140.138912 
L 99.935605 144.923479 
L 101.567035 136.550421 
L 103.198465 132.662933 
L 104.829895 139.839827 
L 106.461325 132.812475 
L 108.092755 129.373616 
L 109.724185 135.653342 
L 111.355614 129.822155 
L 112.987044 129.672612 
L 114.618474 131.765854 
L 116.249904 120.552019 
L 117.881334 120.253022 
L 119.512764 122.495718 
L 121.144194 120.701561 
L 122.775624 118.159691 
L 124.407053 127.130831 
L 126.038483 120.701561 
L 127.669913 123.0938 
L 129.301343 119.355855 
L 130.932773 121.000558 
L 132.564203 121.449097 
L 134.195633 114.720831 
L 135.827063 115.617909 
L 137.458492 113.375124 
L 139.089922 118.907315 
L 140.721352 116.515077 
L 142.352782 112.478046 
L 143.984212 111.730421 
L 145.615642 111.580968 
L 147.247072 115.617909 
L 148.878502 112.478046 
L 150.509931 110.833343 
L 152.141361 107.543937 
L 153.772791 106.048777 
L 155.404221 111.431425 
L 157.035651 106.198319 
L 158.667081 113.225671 
L 160.298511 107.992476 
L 161.929941 103.955534 
L 163.56137 106.497316 
L 165.1928 109.936265 
L 166.82423 102.310831 
L 168.45566 104.703159 
L 170.08709 102.609828 
L 171.71852 100.068046 
L 173.34995 98.722429 
L 174.98138 102.460374 
L 176.61281 102.908913 
L 178.244239 98.124347 
L 179.875669 107.543937 
L 181.507099 101.563207 
L 183.138529 102.011835 
L 184.769959 101.712749 
L 186.401389 100.815671 
L 188.032819 99.76905 
L 189.664249 97.675808 
L 191.295678 101.413753 
L 192.927108 94.535855 
L 194.558538 100.217589 
L 196.189968 93.489234 
L 197.821398 97.526265 
L 199.452828 95.433023 
L 201.084258 98.423343 
L 202.715688 100.068046 
L 204.347117 90.349371 
L 205.978547 97.526265 
L 207.609977 95.732019 
L 209.241407 95.28348 
L 210.872837 101.26421 
L 212.504267 97.825261 
L 214.135697 89.452292 
L 215.767127 91.994074 
L 217.398556 92.741699 
L 219.029986 87.059965 
L 220.661416 90.349371 
L 222.292846 89.30275 
L 223.924276 94.535855 
L 225.555706 97.077726 
L 227.187136 89.30275 
L 228.818566 94.087316 
L 230.449995 100.367132 
L 232.081425 90.79791 
L 233.712855 95.133937 
L 235.344285 95.433023 
L 236.975715 96.180558 
L 238.607145 90.050374 
L 240.238575 92.293159 
L 241.870005 92.891241 
L 243.501434 93.339781 
L 245.132864 92.293159 
L 246.764294 93.489234 
L 248.395724 87.508593 
L 250.027154 84.966722 
L 251.658584 93.638777 
L 253.290014 91.994074 
L 254.921444 90.648456 
L 256.552873 92.741699 
L 258.184303 87.059965 
L 259.815733 90.199917 
L 261.447163 88.405671 
L 263.078593 88.555214 
L 264.710023 87.508593 
L 266.341453 87.059965 
L 267.972883 88.405671 
L 269.604312 87.957132 
L 271.235742 85.265808 
L 272.867172 88.704668 
L 274.498602 89.900832 
L 276.130032 84.966722 
L 277.761462 87.658047 
L 279.392892 89.003753 
L 281.024322 87.807589 
L 282.655751 86.162886 
L 284.287181 88.854211 
L 285.918611 84.219187 
L 287.550041 86.461883 
L 289.181471 87.508593 
L 290.812901 87.807589 
L 292.444331 84.966722 
L 294.075761 87.508593 
L 295.70719 89.153207 
L 297.33862 83.023023 
L 298.97005 84.966722 
L 300.60148 85.714347 
L 302.23291 87.658047 
L 303.86434 83.621105 
L 305.49577 81.527863 
L 307.1272 81.976402 
L 308.75863 88.704668 
L 310.390059 86.611426 
L 312.021489 87.957132 
L 313.652919 84.219187 
L 315.284349 77.042293 
L 316.915779 86.760968 
L 318.547209 87.658047 
L 320.178639 77.640375 
L 321.810069 88.106586 
L 323.441498 80.780238 
L 325.072928 80.331699 
L 326.704358 83.471562 
L 328.335788 78.985992 
L 329.967218 80.481242 
L 331.598648 82.723937 
L 333.230078 77.341289 
L 334.861508 79.733617 
L 336.492937 78.985992 
L 338.124367 85.564804 
L 339.755797 80.331699 
L 341.387227 79.584074 
L 343.018657 74.201426 
L 344.650087 87.35905 
L 346.281517 72.855808 
L 347.912947 81.976402 
L 349.544376 80.630695 
L 351.175806 78.088914 
L 352.807236 74.799508 
L 354.438666 81.826859 
L 356.070096 79.434621 
L 357.701526 83.172566 
L 359.332956 78.985992 
L 360.964386 75.39759 
L 362.595815 79.88316 
L 364.227245 80.331699 
L 365.858675 82.87348 
L 367.490105 75.39759 
L 369.121535 77.490832 
L 370.752965 75.846129 
L 372.384395 79.434621 
L 374.015825 75.098593 
L 375.647254 79.584074 
L 377.278684 79.285078 
L 378.910114 73.902429 
L 380.541544 76.89275 
L 382.172974 76.145214 
L 383.804404 73.005351 
L 385.435834 81.826859 
L 387.067264 78.537453 
L 388.698693 80.032613 
L 390.330123 78.238457 
L 391.961553 75.39759 
L 393.592983 71.510102 
L 395.224413 80.331699 
L 396.855843 79.434621 
L 398.487273 78.238457 
L 398.487273 78.238457 
" style="fill:none;stroke:#2ca02c;stroke-linecap:square;stroke-width:1.5;"/>
   </g>
   <g id="patch_3">
    <path d="M 57.6 307.584 
L 57.6 41.472 
" style="fill:none;stroke:#000000;stroke-linecap:square;stroke-linejoin:miter;stroke-width:0.8;"/>
   </g>
   <g id="patch_4">
    <path d="M 414.72 307.584 
L 414.72 41.472 
" style="fill:none;stroke:#000000;stroke-linecap:square;stroke-linejoin:miter;stroke-width:0.8;"/>
   </g>
   <g id="patch_5">
    <path d="M 57.6 307.584 
L 414.72 307.584 
" style="fill:none;stroke:#000000;stroke-linecap:square;stroke-linejoin:miter;stroke-width:0.8;"/>
   </g>
   <g id="patch_6">
    <path d="M 57.6 41.472 
L 414.72 41.472 
" style="fill:none;stroke:#000000;stroke-linecap:square;stroke-linejoin:miter;stroke-width:0.8;"/>
   </g>
   <g id="legend_1">
    <g id="patch_7">
     <path d="M 268.748438 298.584 
L 402.12 298.584 
Q 405.72 298.584 405.72 294.984 
L 405.72 217.522125 
Q 405.72 213.922125 402.12 213.922125 
L 268.748438 213.922125 
Q 265.148438 213.922125 265.148438 217.522125 
L 265.148438 294.984 
Q 265.148438 298.584 268.748438 298.584 
z
" style="fill:#ffffff;opacity:0.8;stroke:#cccccc;stroke-linejoin:miter;"/>
    </g>
    <g id="line2d_20">
     <path d="M 272.348437 228.499312 
L 308.348437 228.499312 
" style="fill:none;stroke:#1f77b4;stroke-linecap:square;stroke-width:1.5;"/>
    </g>
    <g id="line2d_21"/>
    <g id="text_11">
     <!-- MLP -->
     <defs>
      <path d="M 9.1875 72.90625 
L 33.109375 72.90625 
L 49.703125 33.890625 
L 66.40625 72.90625 
L 90.28125 72.90625 
L 90.28125 0 
L 72.515625 0 
L 72.515625 53.328125 
L 55.71875 14.015625 
L 43.796875 14.015625 
L 27 53.328125 
L 27 0 
L 9.1875 0 
z
" id="DejaVuSans-Bold-77"/>
      <path d="M 9.1875 72.90625 
L 27.984375 72.90625 
L 27.984375 14.203125 
L 60.984375 14.203125 
L 60.984375 0 
L 9.1875 0 
z
" id="DejaVuSans-Bold-76"/>
      <path d="M 9.1875 72.90625 
L 40.375 72.90625 
Q 54.296875 72.90625 61.734375 66.71875 
Q 69.1875 60.546875 69.1875 49.125 
Q 69.1875 37.640625 61.734375 31.46875 
Q 54.296875 25.296875 40.375 25.296875 
L 27.984375 25.296875 
L 27.984375 0 
L 9.1875 0 
z
M 27.984375 59.28125 
L 27.984375 38.921875 
L 38.375 38.921875 
Q 43.84375 38.921875 46.828125 41.578125 
Q 49.8125 44.234375 49.8125 49.125 
Q 49.8125 54 46.828125 56.640625 
Q 43.84375 59.28125 38.375 59.28125 
z
" id="DejaVuSans-Bold-80"/>
     </defs>
     <g transform="translate(322.748437 234.799312)scale(0.18 -0.18)">
      <use xlink:href="#DejaVuSans-Bold-77"/>
      <use x="99.511719" xlink:href="#DejaVuSans-Bold-76"/>
      <use x="163.232422" xlink:href="#DejaVuSans-Bold-80"/>
     </g>
    </g>
    <g id="line2d_22">
     <path d="M 272.348437 254.919938 
L 308.348437 254.919938 
" style="fill:none;stroke:#ff7f0e;stroke-linecap:square;stroke-width:1.5;"/>
    </g>
    <g id="line2d_23"/>
    <g id="text_12">
     <!-- CenSET -->
     <defs>
      <path d="M 67 4 
Q 61.8125 1.3125 56.203125 -0.046875 
Q 50.59375 -1.421875 44.484375 -1.421875 
Q 26.265625 -1.421875 15.625 8.765625 
Q 4.984375 18.953125 4.984375 36.375 
Q 4.984375 53.859375 15.625 64.03125 
Q 26.265625 74.21875 44.484375 74.21875 
Q 50.59375 74.21875 56.203125 72.84375 
Q 61.8125 71.484375 67 68.796875 
L 67 53.71875 
Q 61.765625 57.28125 56.6875 58.9375 
Q 51.609375 60.59375 46 60.59375 
Q 35.9375 60.59375 30.171875 54.140625 
Q 24.421875 47.703125 24.421875 36.375 
Q 24.421875 25.09375 30.171875 18.640625 
Q 35.9375 12.203125 46 12.203125 
Q 51.609375 12.203125 56.6875 13.859375 
Q 61.765625 15.53125 67 19.09375 
z
" id="DejaVuSans-Bold-67"/>
      <path d="M 62.984375 27.484375 
L 62.984375 22.515625 
L 22.125 22.515625 
Q 22.75 16.359375 26.5625 13.28125 
Q 30.375 10.203125 37.203125 10.203125 
Q 42.71875 10.203125 48.5 11.84375 
Q 54.296875 13.484375 60.40625 16.796875 
L 60.40625 3.328125 
Q 54.203125 0.984375 48 -0.21875 
Q 41.796875 -1.421875 35.59375 -1.421875 
Q 20.75 -1.421875 12.515625 6.125 
Q 4.296875 13.671875 4.296875 27.296875 
Q 4.296875 40.671875 12.375 48.328125 
Q 20.453125 56 34.625 56 
Q 47.515625 56 55.25 48.234375 
Q 62.984375 40.484375 62.984375 27.484375 
z
M 45.015625 33.296875 
Q 45.015625 38.28125 42.109375 41.328125 
Q 39.203125 44.390625 34.515625 44.390625 
Q 29.4375 44.390625 26.265625 41.53125 
Q 23.09375 38.671875 22.3125 33.296875 
z
" id="DejaVuSans-Bold-101"/>
      <path d="M 63.375 33.296875 
L 63.375 0 
L 45.796875 0 
L 45.796875 5.421875 
L 45.796875 25.484375 
Q 45.796875 32.5625 45.484375 35.25 
Q 45.171875 37.9375 44.390625 39.203125 
Q 43.359375 40.921875 41.59375 41.875 
Q 39.84375 42.828125 37.59375 42.828125 
Q 32.125 42.828125 29 38.59375 
Q 25.875 34.375 25.875 26.90625 
L 25.875 0 
L 8.40625 0 
L 8.40625 54.6875 
L 25.875 54.6875 
L 25.875 46.6875 
Q 29.828125 51.46875 34.265625 53.734375 
Q 38.71875 56 44.09375 56 
Q 53.5625 56 58.46875 50.1875 
Q 63.375 44.390625 63.375 33.296875 
z
" id="DejaVuSans-Bold-110"/>
      <path d="M 59.90625 70.609375 
L 59.90625 55.171875 
Q 53.90625 57.859375 48.1875 59.21875 
Q 42.484375 60.59375 37.40625 60.59375 
Q 30.671875 60.59375 27.4375 58.734375 
Q 24.21875 56.890625 24.21875 52.984375 
Q 24.21875 50.046875 26.390625 48.40625 
Q 28.5625 46.78125 34.28125 45.609375 
L 42.28125 44 
Q 54.4375 41.546875 59.5625 36.5625 
Q 64.703125 31.59375 64.703125 22.40625 
Q 64.703125 10.359375 57.546875 4.46875 
Q 50.390625 -1.421875 35.6875 -1.421875 
Q 28.765625 -1.421875 21.78125 -0.09375 
Q 14.796875 1.21875 7.8125 3.8125 
L 7.8125 19.671875 
Q 14.796875 15.96875 21.3125 14.078125 
Q 27.828125 12.203125 33.890625 12.203125 
Q 40.046875 12.203125 43.3125 14.25 
Q 46.578125 16.3125 46.578125 20.125 
Q 46.578125 23.53125 44.359375 25.390625 
Q 42.140625 27.25 35.5 28.71875 
L 28.21875 30.328125 
Q 17.28125 32.671875 12.21875 37.796875 
Q 7.171875 42.921875 7.171875 51.609375 
Q 7.171875 62.5 14.203125 68.359375 
Q 21.234375 74.21875 34.421875 74.21875 
Q 40.4375 74.21875 46.78125 73.3125 
Q 53.125 72.40625 59.90625 70.609375 
z
" id="DejaVuSans-Bold-83"/>
      <path d="M 9.1875 72.90625 
L 59.90625 72.90625 
L 59.90625 58.6875 
L 27.984375 58.6875 
L 27.984375 45.125 
L 58.015625 45.125 
L 58.015625 30.90625 
L 27.984375 30.90625 
L 27.984375 14.203125 
L 60.984375 14.203125 
L 60.984375 0 
L 9.1875 0 
z
" id="DejaVuSans-Bold-69"/>
      <path d="M 0.484375 72.90625 
L 67.671875 72.90625 
L 67.671875 58.6875 
L 43.5 58.6875 
L 43.5 0 
L 24.703125 0 
L 24.703125 58.6875 
L 0.484375 58.6875 
z
" id="DejaVuSans-Bold-84"/>
     </defs>
     <g transform="translate(322.748437 261.219938)scale(0.18 -0.18)">
      <use xlink:href="#DejaVuSans-Bold-67"/>
      <use x="73.388672" xlink:href="#DejaVuSans-Bold-101"/>
      <use x="141.210938" xlink:href="#DejaVuSans-Bold-110"/>
      <use x="212.402344" xlink:href="#DejaVuSans-Bold-83"/>
      <use x="284.423828" xlink:href="#DejaVuSans-Bold-69"/>
      <use x="352.734375" xlink:href="#DejaVuSans-Bold-84"/>
     </g>
    </g>
    <g id="line2d_24">
     <path d="M 272.348437 281.340562 
L 308.348437 281.340562 
" style="fill:none;stroke:#2ca02c;stroke-linecap:square;stroke-width:1.5;"/>
    </g>
    <g id="line2d_25"/>
    <g id="text_13">
     <!-- SET -->
     <g transform="translate(322.748437 287.640562)scale(0.18 -0.18)">
      <use xlink:href="#DejaVuSans-Bold-83"/>
      <use x="72.021484" xlink:href="#DejaVuSans-Bold-69"/>
      <use x="140.332031" xlink:href="#DejaVuSans-Bold-84"/>
     </g>
    </g>
   </g>
  </g>
 </g>
 <defs>
  <clipPath id="p13b4e7f76e">
   <rect height="266.112" width="357.12" x="57.6" y="41.472"/>
  </clipPath>
 </defs>
</svg>
