<?xml version="1.0" encoding="utf-8" standalone="no"?>
<!DOCTYPE svg PUBLIC "-//W3C//DTD SVG 1.1//EN"
  "http://www.w3.org/Graphics/SVG/1.1/DTD/svg11.dtd">
<!-- Created with matplotlib (https://matplotlib.org/) -->
<svg height="345.6pt" version="1.1" viewBox="0 0 460.8 345.6" width="460.8pt" xmlns="http://www.w3.org/2000/svg" xmlns:xlink="http://www.w3.org/1999/xlink">
 <defs>
  <style type="text/css">
*{stroke-linecap:butt;stroke-linejoin:round;}
  </style>
 </defs>
 <g id="figure_1">
  <g id="patch_1">
   <path d="M 0 345.6 
L 460.8 345.6 
L 460.8 0 
L 0 0 
z
" style="fill:#ffffff;"/>
  </g>
  <g id="axes_1">
   <g id="patch_2">
    <path d="M 57.6 307.584 
L 414.72 307.584 
L 414.72 41.472 
L 57.6 41.472 
z
" style="fill:#ffffff;"/>
   </g>
   <g id="matplotlib.axis_1">
    <g id="xtick_1">
     <g id="line2d_1">
      <defs>
       <path d="M 0 0 
L 0 3.5 
" id="m321ff3a1be" style="stroke:#000000;stroke-width:0.8;"/>
      </defs>
      <g>
       <use style="stroke:#000000;stroke-width:0.8;" x="73.832727" xlink:href="#m321ff3a1be" y="307.584"/>
      </g>
     </g>
     <g id="text_1">
      <!-- 0 -->
      <defs>
       <path d="M 31.78125 66.40625 
Q 24.171875 66.40625 20.328125 58.90625 
Q 16.5 51.421875 16.5 36.375 
Q 16.5 21.390625 20.328125 13.890625 
Q 24.171875 6.390625 31.78125 6.390625 
Q 39.453125 6.390625 43.28125 13.890625 
Q 47.125 21.390625 47.125 36.375 
Q 47.125 51.421875 43.28125 58.90625 
Q 39.453125 66.40625 31.78125 66.40625 
z
M 31.78125 74.21875 
Q 44.046875 74.21875 50.515625 64.515625 
Q 56.984375 54.828125 56.984375 36.375 
Q 56.984375 17.96875 50.515625 8.265625 
Q 44.046875 -1.421875 31.78125 -1.421875 
Q 19.53125 -1.421875 13.0625 8.265625 
Q 6.59375 17.96875 6.59375 36.375 
Q 6.59375 54.828125 13.0625 64.515625 
Q 19.53125 74.21875 31.78125 74.21875 
z
" id="DejaVuSans-48"/>
      </defs>
      <g transform="translate(70.651477 322.182437)scale(0.1 -0.1)">
       <use xlink:href="#DejaVuSans-48"/>
      </g>
     </g>
    </g>
    <g id="xtick_2">
     <g id="line2d_2">
      <g>
       <use style="stroke:#000000;stroke-width:0.8;" x="114.618474" xlink:href="#m321ff3a1be" y="307.584"/>
      </g>
     </g>
     <g id="text_2">
      <!-- 25 -->
      <defs>
       <path d="M 19.1875 8.296875 
L 53.609375 8.296875 
L 53.609375 0 
L 7.328125 0 
L 7.328125 8.296875 
Q 12.9375 14.109375 22.625 23.890625 
Q 32.328125 33.6875 34.8125 36.53125 
Q 39.546875 41.84375 41.421875 45.53125 
Q 43.3125 49.21875 43.3125 52.78125 
Q 43.3125 58.59375 39.234375 62.25 
Q 35.15625 65.921875 28.609375 65.921875 
Q 23.96875 65.921875 18.8125 64.3125 
Q 13.671875 62.703125 7.8125 59.421875 
L 7.8125 69.390625 
Q 13.765625 71.78125 18.9375 73 
Q 24.125 74.21875 28.421875 74.21875 
Q 39.75 74.21875 46.484375 68.546875 
Q 53.21875 62.890625 53.21875 53.421875 
Q 53.21875 48.921875 51.53125 44.890625 
Q 49.859375 40.875 45.40625 35.40625 
Q 44.1875 33.984375 37.640625 27.21875 
Q 31.109375 20.453125 19.1875 8.296875 
z
" id="DejaVuSans-50"/>
       <path d="M 10.796875 72.90625 
L 49.515625 72.90625 
L 49.515625 64.59375 
L 19.828125 64.59375 
L 19.828125 46.734375 
Q 21.96875 47.46875 24.109375 47.828125 
Q 26.265625 48.1875 28.421875 48.1875 
Q 40.625 48.1875 47.75 41.5 
Q 54.890625 34.8125 54.890625 23.390625 
Q 54.890625 11.625 47.5625 5.09375 
Q 40.234375 -1.421875 26.90625 -1.421875 
Q 22.3125 -1.421875 17.546875 -0.640625 
Q 12.796875 0.140625 7.71875 1.703125 
L 7.71875 11.625 
Q 12.109375 9.234375 16.796875 8.0625 
Q 21.484375 6.890625 26.703125 6.890625 
Q 35.15625 6.890625 40.078125 11.328125 
Q 45.015625 15.765625 45.015625 23.390625 
Q 45.015625 31 40.078125 35.4375 
Q 35.15625 39.890625 26.703125 39.890625 
Q 22.75 39.890625 18.8125 39.015625 
Q 14.890625 38.140625 10.796875 36.28125 
z
" id="DejaVuSans-53"/>
      </defs>
      <g transform="translate(108.255974 322.182437)scale(0.1 -0.1)">
       <use xlink:href="#DejaVuSans-50"/>
       <use x="63.623047" xlink:href="#DejaVuSans-53"/>
      </g>
     </g>
    </g>
    <g id="xtick_3">
     <g id="line2d_3">
      <g>
       <use style="stroke:#000000;stroke-width:0.8;" x="155.404221" xlink:href="#m321ff3a1be" y="307.584"/>
      </g>
     </g>
     <g id="text_3">
      <!-- 50 -->
      <g transform="translate(149.041721 322.182437)scale(0.1 -0.1)">
       <use xlink:href="#DejaVuSans-53"/>
       <use x="63.623047" xlink:href="#DejaVuSans-48"/>
      </g>
     </g>
    </g>
    <g id="xtick_4">
     <g id="line2d_4">
      <g>
       <use style="stroke:#000000;stroke-width:0.8;" x="196.189968" xlink:href="#m321ff3a1be" y="307.584"/>
      </g>
     </g>
     <g id="text_4">
      <!-- 75 -->
      <defs>
       <path d="M 8.203125 72.90625 
L 55.078125 72.90625 
L 55.078125 68.703125 
L 28.609375 0 
L 18.3125 0 
L 43.21875 64.59375 
L 8.203125 64.59375 
z
" id="DejaVuSans-55"/>
      </defs>
      <g transform="translate(189.827468 322.182437)scale(0.1 -0.1)">
       <use xlink:href="#DejaVuSans-55"/>
       <use x="63.623047" xlink:href="#DejaVuSans-53"/>
      </g>
     </g>
    </g>
    <g id="xtick_5">
     <g id="line2d_5">
      <g>
       <use style="stroke:#000000;stroke-width:0.8;" x="236.975715" xlink:href="#m321ff3a1be" y="307.584"/>
      </g>
     </g>
     <g id="text_5">
      <!-- 100 -->
      <defs>
       <path d="M 12.40625 8.296875 
L 28.515625 8.296875 
L 28.515625 63.921875 
L 10.984375 60.40625 
L 10.984375 69.390625 
L 28.421875 72.90625 
L 38.28125 72.90625 
L 38.28125 8.296875 
L 54.390625 8.296875 
L 54.390625 0 
L 12.40625 0 
z
" id="DejaVuSans-49"/>
      </defs>
      <g transform="translate(227.431965 322.182437)scale(0.1 -0.1)">
       <use xlink:href="#DejaVuSans-49"/>
       <use x="63.623047" xlink:href="#DejaVuSans-48"/>
       <use x="127.246094" xlink:href="#DejaVuSans-48"/>
      </g>
     </g>
    </g>
    <g id="xtick_6">
     <g id="line2d_6">
      <g>
       <use style="stroke:#000000;stroke-width:0.8;" x="277.761462" xlink:href="#m321ff3a1be" y="307.584"/>
      </g>
     </g>
     <g id="text_6">
      <!-- 125 -->
      <g transform="translate(268.217712 322.182437)scale(0.1 -0.1)">
       <use xlink:href="#DejaVuSans-49"/>
       <use x="63.623047" xlink:href="#DejaVuSans-50"/>
       <use x="127.246094" xlink:href="#DejaVuSans-53"/>
      </g>
     </g>
    </g>
    <g id="xtick_7">
     <g id="line2d_7">
      <g>
       <use style="stroke:#000000;stroke-width:0.8;" x="318.547209" xlink:href="#m321ff3a1be" y="307.584"/>
      </g>
     </g>
     <g id="text_7">
      <!-- 150 -->
      <g transform="translate(309.003459 322.182437)scale(0.1 -0.1)">
       <use xlink:href="#DejaVuSans-49"/>
       <use x="63.623047" xlink:href="#DejaVuSans-53"/>
       <use x="127.246094" xlink:href="#DejaVuSans-48"/>
      </g>
     </g>
    </g>
    <g id="xtick_8">
     <g id="line2d_8">
      <g>
       <use style="stroke:#000000;stroke-width:0.8;" x="359.332956" xlink:href="#m321ff3a1be" y="307.584"/>
      </g>
     </g>
     <g id="text_8">
      <!-- 175 -->
      <g transform="translate(349.789206 322.182437)scale(0.1 -0.1)">
       <use xlink:href="#DejaVuSans-49"/>
       <use x="63.623047" xlink:href="#DejaVuSans-55"/>
       <use x="127.246094" xlink:href="#DejaVuSans-53"/>
      </g>
     </g>
    </g>
    <g id="xtick_9">
     <g id="line2d_9">
      <g>
       <use style="stroke:#000000;stroke-width:0.8;" x="400.118703" xlink:href="#m321ff3a1be" y="307.584"/>
      </g>
     </g>
     <g id="text_9">
      <!-- 200 -->
      <g transform="translate(390.574953 322.182437)scale(0.1 -0.1)">
       <use xlink:href="#DejaVuSans-50"/>
       <use x="63.623047" xlink:href="#DejaVuSans-48"/>
       <use x="127.246094" xlink:href="#DejaVuSans-48"/>
      </g>
     </g>
    </g>
    <g id="text_10">
     <!-- Epoch[\#] -->
     <defs>
      <path d="M 9.8125 72.90625 
L 55.90625 72.90625 
L 55.90625 64.59375 
L 19.671875 64.59375 
L 19.671875 43.015625 
L 54.390625 43.015625 
L 54.390625 34.71875 
L 19.671875 34.71875 
L 19.671875 8.296875 
L 56.78125 8.296875 
L 56.78125 0 
L 9.8125 0 
z
" id="DejaVuSans-69"/>
      <path d="M 18.109375 8.203125 
L 18.109375 -20.796875 
L 9.078125 -20.796875 
L 9.078125 54.6875 
L 18.109375 54.6875 
L 18.109375 46.390625 
Q 20.953125 51.265625 25.265625 53.625 
Q 29.59375 56 35.59375 56 
Q 45.5625 56 51.78125 48.09375 
Q 58.015625 40.1875 58.015625 27.296875 
Q 58.015625 14.40625 51.78125 6.484375 
Q 45.5625 -1.421875 35.59375 -1.421875 
Q 29.59375 -1.421875 25.265625 0.953125 
Q 20.953125 3.328125 18.109375 8.203125 
z
M 48.6875 27.296875 
Q 48.6875 37.203125 44.609375 42.84375 
Q 40.53125 48.484375 33.40625 48.484375 
Q 26.265625 48.484375 22.1875 42.84375 
Q 18.109375 37.203125 18.109375 27.296875 
Q 18.109375 17.390625 22.1875 11.75 
Q 26.265625 6.109375 33.40625 6.109375 
Q 40.53125 6.109375 44.609375 11.75 
Q 48.6875 17.390625 48.6875 27.296875 
z
" id="DejaVuSans-112"/>
      <path d="M 30.609375 48.390625 
Q 23.390625 48.390625 19.1875 42.75 
Q 14.984375 37.109375 14.984375 27.296875 
Q 14.984375 17.484375 19.15625 11.84375 
Q 23.34375 6.203125 30.609375 6.203125 
Q 37.796875 6.203125 41.984375 11.859375 
Q 46.1875 17.53125 46.1875 27.296875 
Q 46.1875 37.015625 41.984375 42.703125 
Q 37.796875 48.390625 30.609375 48.390625 
z
M 30.609375 56 
Q 42.328125 56 49.015625 48.375 
Q 55.71875 40.765625 55.71875 27.296875 
Q 55.71875 13.875 49.015625 6.21875 
Q 42.328125 -1.421875 30.609375 -1.421875 
Q 18.84375 -1.421875 12.171875 6.21875 
Q 5.515625 13.875 5.515625 27.296875 
Q 5.515625 40.765625 12.171875 48.375 
Q 18.84375 56 30.609375 56 
z
" id="DejaVuSans-111"/>
      <path d="M 48.78125 52.59375 
L 48.78125 44.1875 
Q 44.96875 46.296875 41.140625 47.34375 
Q 37.3125 48.390625 33.40625 48.390625 
Q 24.65625 48.390625 19.8125 42.84375 
Q 14.984375 37.3125 14.984375 27.296875 
Q 14.984375 17.28125 19.8125 11.734375 
Q 24.65625 6.203125 33.40625 6.203125 
Q 37.3125 6.203125 41.140625 7.25 
Q 44.96875 8.296875 48.78125 10.40625 
L 48.78125 2.09375 
Q 45.015625 0.34375 40.984375 -0.53125 
Q 36.96875 -1.421875 32.421875 -1.421875 
Q 20.0625 -1.421875 12.78125 6.34375 
Q 5.515625 14.109375 5.515625 27.296875 
Q 5.515625 40.671875 12.859375 48.328125 
Q 20.21875 56 33.015625 56 
Q 37.15625 56 41.109375 55.140625 
Q 45.0625 54.296875 48.78125 52.59375 
z
" id="DejaVuSans-99"/>
      <path d="M 54.890625 33.015625 
L 54.890625 0 
L 45.90625 0 
L 45.90625 32.71875 
Q 45.90625 40.484375 42.875 44.328125 
Q 39.84375 48.1875 33.796875 48.1875 
Q 26.515625 48.1875 22.3125 43.546875 
Q 18.109375 38.921875 18.109375 30.90625 
L 18.109375 0 
L 9.078125 0 
L 9.078125 75.984375 
L 18.109375 75.984375 
L 18.109375 46.1875 
Q 21.34375 51.125 25.703125 53.5625 
Q 30.078125 56 35.796875 56 
Q 45.21875 56 50.046875 50.171875 
Q 54.890625 44.34375 54.890625 33.015625 
z
" id="DejaVuSans-104"/>
      <path d="M 8.59375 75.984375 
L 29.296875 75.984375 
L 29.296875 69 
L 17.578125 69 
L 17.578125 -6.203125 
L 29.296875 -6.203125 
L 29.296875 -13.1875 
L 8.59375 -13.1875 
z
" id="DejaVuSans-91"/>
      <path d="M 8.296875 72.90625 
L 33.6875 -9.28125 
L 25.390625 -9.28125 
L 0 72.90625 
z
" id="DejaVuSans-92"/>
      <path d="M 51.125 44 
L 36.921875 44 
L 32.8125 27.6875 
L 47.125 27.6875 
z
M 43.796875 71.78125 
L 38.71875 51.515625 
L 52.984375 51.515625 
L 58.109375 71.78125 
L 65.921875 71.78125 
L 60.890625 51.515625 
L 76.125 51.515625 
L 76.125 44 
L 58.984375 44 
L 54.984375 27.6875 
L 70.515625 27.6875 
L 70.515625 20.21875 
L 53.078125 20.21875 
L 48 0 
L 40.1875 0 
L 45.21875 20.21875 
L 30.90625 20.21875 
L 25.875 0 
L 18.015625 0 
L 23.09375 20.21875 
L 7.71875 20.21875 
L 7.71875 27.6875 
L 24.90625 27.6875 
L 29 44 
L 13.28125 44 
L 13.28125 51.515625 
L 30.90625 51.515625 
L 35.890625 71.78125 
z
" id="DejaVuSans-35"/>
      <path d="M 30.421875 75.984375 
L 30.421875 -13.1875 
L 9.71875 -13.1875 
L 9.71875 -6.203125 
L 21.390625 -6.203125 
L 21.390625 69 
L 9.71875 69 
L 9.71875 75.984375 
z
" id="DejaVuSans-93"/>
     </defs>
     <g transform="translate(211.073281 335.860562)scale(0.1 -0.1)">
      <use xlink:href="#DejaVuSans-69"/>
      <use x="63.183594" xlink:href="#DejaVuSans-112"/>
      <use x="126.660156" xlink:href="#DejaVuSans-111"/>
      <use x="187.841797" xlink:href="#DejaVuSans-99"/>
      <use x="242.822266" xlink:href="#DejaVuSans-104"/>
      <use x="306.201172" xlink:href="#DejaVuSans-91"/>
      <use x="345.214844" xlink:href="#DejaVuSans-92"/>
      <use x="378.90625" xlink:href="#DejaVuSans-35"/>
      <use x="462.695312" xlink:href="#DejaVuSans-93"/>
     </g>
    </g>
   </g>
   <g id="matplotlib.axis_2">
    <g id="ytick_1">
     <g id="line2d_10">
      <defs>
       <path d="M 0 0 
L -3.5 0 
" id="m1fb8deb847" style="stroke:#000000;stroke-width:0.8;"/>
      </defs>
      <g>
       <use style="stroke:#000000;stroke-width:0.8;" x="57.6" xlink:href="#m1fb8deb847" y="287.862609"/>
      </g>
     </g>
     <g id="text_11">
      <!-- 0.72 -->
      <defs>
       <path d="M 10.6875 12.40625 
L 21 12.40625 
L 21 0 
L 10.6875 0 
z
" id="DejaVuSans-46"/>
      </defs>
      <g transform="translate(28.334375 291.661828)scale(0.1 -0.1)">
       <use xlink:href="#DejaVuSans-48"/>
       <use x="63.623047" xlink:href="#DejaVuSans-46"/>
       <use x="95.410156" xlink:href="#DejaVuSans-55"/>
       <use x="159.033203" xlink:href="#DejaVuSans-50"/>
      </g>
     </g>
    </g>
    <g id="ytick_2">
     <g id="line2d_11">
      <g>
       <use style="stroke:#000000;stroke-width:0.8;" x="57.6" xlink:href="#m1fb8deb847" y="257.959019"/>
      </g>
     </g>
     <g id="text_12">
      <!-- 0.74 -->
      <defs>
       <path d="M 37.796875 64.3125 
L 12.890625 25.390625 
L 37.796875 25.390625 
z
M 35.203125 72.90625 
L 47.609375 72.90625 
L 47.609375 25.390625 
L 58.015625 25.390625 
L 58.015625 17.1875 
L 47.609375 17.1875 
L 47.609375 0 
L 37.796875 0 
L 37.796875 17.1875 
L 4.890625 17.1875 
L 4.890625 26.703125 
z
" id="DejaVuSans-52"/>
      </defs>
      <g transform="translate(28.334375 261.758237)scale(0.1 -0.1)">
       <use xlink:href="#DejaVuSans-48"/>
       <use x="63.623047" xlink:href="#DejaVuSans-46"/>
       <use x="95.410156" xlink:href="#DejaVuSans-55"/>
       <use x="159.033203" xlink:href="#DejaVuSans-52"/>
      </g>
     </g>
    </g>
    <g id="ytick_3">
     <g id="line2d_12">
      <g>
       <use style="stroke:#000000;stroke-width:0.8;" x="57.6" xlink:href="#m1fb8deb847" y="228.055428"/>
      </g>
     </g>
     <g id="text_13">
      <!-- 0.76 -->
      <defs>
       <path d="M 33.015625 40.375 
Q 26.375 40.375 22.484375 35.828125 
Q 18.609375 31.296875 18.609375 23.390625 
Q 18.609375 15.53125 22.484375 10.953125 
Q 26.375 6.390625 33.015625 6.390625 
Q 39.65625 6.390625 43.53125 10.953125 
Q 47.40625 15.53125 47.40625 23.390625 
Q 47.40625 31.296875 43.53125 35.828125 
Q 39.65625 40.375 33.015625 40.375 
z
M 52.59375 71.296875 
L 52.59375 62.3125 
Q 48.875 64.0625 45.09375 64.984375 
Q 41.3125 65.921875 37.59375 65.921875 
Q 27.828125 65.921875 22.671875 59.328125 
Q 17.53125 52.734375 16.796875 39.40625 
Q 19.671875 43.65625 24.015625 45.921875 
Q 28.375 48.1875 33.59375 48.1875 
Q 44.578125 48.1875 50.953125 41.515625 
Q 57.328125 34.859375 57.328125 23.390625 
Q 57.328125 12.15625 50.6875 5.359375 
Q 44.046875 -1.421875 33.015625 -1.421875 
Q 20.359375 -1.421875 13.671875 8.265625 
Q 6.984375 17.96875 6.984375 36.375 
Q 6.984375 53.65625 15.1875 63.9375 
Q 23.390625 74.21875 37.203125 74.21875 
Q 40.921875 74.21875 44.703125 73.484375 
Q 48.484375 72.75 52.59375 71.296875 
z
" id="DejaVuSans-54"/>
      </defs>
      <g transform="translate(28.334375 231.854647)scale(0.1 -0.1)">
       <use xlink:href="#DejaVuSans-48"/>
       <use x="63.623047" xlink:href="#DejaVuSans-46"/>
       <use x="95.410156" xlink:href="#DejaVuSans-55"/>
       <use x="159.033203" xlink:href="#DejaVuSans-54"/>
      </g>
     </g>
    </g>
    <g id="ytick_4">
     <g id="line2d_13">
      <g>
       <use style="stroke:#000000;stroke-width:0.8;" x="57.6" xlink:href="#m1fb8deb847" y="198.151837"/>
      </g>
     </g>
     <g id="text_14">
      <!-- 0.78 -->
      <defs>
       <path d="M 31.78125 34.625 
Q 24.75 34.625 20.71875 30.859375 
Q 16.703125 27.09375 16.703125 20.515625 
Q 16.703125 13.921875 20.71875 10.15625 
Q 24.75 6.390625 31.78125 6.390625 
Q 38.8125 6.390625 42.859375 10.171875 
Q 46.921875 13.96875 46.921875 20.515625 
Q 46.921875 27.09375 42.890625 30.859375 
Q 38.875 34.625 31.78125 34.625 
z
M 21.921875 38.8125 
Q 15.578125 40.375 12.03125 44.71875 
Q 8.5 49.078125 8.5 55.328125 
Q 8.5 64.0625 14.71875 69.140625 
Q 20.953125 74.21875 31.78125 74.21875 
Q 42.671875 74.21875 48.875 69.140625 
Q 55.078125 64.0625 55.078125 55.328125 
Q 55.078125 49.078125 51.53125 44.71875 
Q 48 40.375 41.703125 38.8125 
Q 48.828125 37.15625 52.796875 32.3125 
Q 56.78125 27.484375 56.78125 20.515625 
Q 56.78125 9.90625 50.3125 4.234375 
Q 43.84375 -1.421875 31.78125 -1.421875 
Q 19.734375 -1.421875 13.25 4.234375 
Q 6.78125 9.90625 6.78125 20.515625 
Q 6.78125 27.484375 10.78125 32.3125 
Q 14.796875 37.15625 21.921875 38.8125 
z
M 18.3125 54.390625 
Q 18.3125 48.734375 21.84375 45.5625 
Q 25.390625 42.390625 31.78125 42.390625 
Q 38.140625 42.390625 41.71875 45.5625 
Q 45.3125 48.734375 45.3125 54.390625 
Q 45.3125 60.0625 41.71875 63.234375 
Q 38.140625 66.40625 31.78125 66.40625 
Q 25.390625 66.40625 21.84375 63.234375 
Q 18.3125 60.0625 18.3125 54.390625 
z
" id="DejaVuSans-56"/>
      </defs>
      <g transform="translate(28.334375 201.951056)scale(0.1 -0.1)">
       <use xlink:href="#DejaVuSans-48"/>
       <use x="63.623047" xlink:href="#DejaVuSans-46"/>
       <use x="95.410156" xlink:href="#DejaVuSans-55"/>
       <use x="159.033203" xlink:href="#DejaVuSans-56"/>
      </g>
     </g>
    </g>
    <g id="ytick_5">
     <g id="line2d_14">
      <g>
       <use style="stroke:#000000;stroke-width:0.8;" x="57.6" xlink:href="#m1fb8deb847" y="168.248247"/>
      </g>
     </g>
     <g id="text_15">
      <!-- 0.80 -->
      <g transform="translate(28.334375 172.047465)scale(0.1 -0.1)">
       <use xlink:href="#DejaVuSans-48"/>
       <use x="63.623047" xlink:href="#DejaVuSans-46"/>
       <use x="95.410156" xlink:href="#DejaVuSans-56"/>
       <use x="159.033203" xlink:href="#DejaVuSans-48"/>
      </g>
     </g>
    </g>
    <g id="ytick_6">
     <g id="line2d_15">
      <g>
       <use style="stroke:#000000;stroke-width:0.8;" x="57.6" xlink:href="#m1fb8deb847" y="138.344656"/>
      </g>
     </g>
     <g id="text_16">
      <!-- 0.82 -->
      <g transform="translate(28.334375 142.143875)scale(0.1 -0.1)">
       <use xlink:href="#DejaVuSans-48"/>
       <use x="63.623047" xlink:href="#DejaVuSans-46"/>
       <use x="95.410156" xlink:href="#DejaVuSans-56"/>
       <use x="159.033203" xlink:href="#DejaVuSans-50"/>
      </g>
     </g>
    </g>
    <g id="ytick_7">
     <g id="line2d_16">
      <g>
       <use style="stroke:#000000;stroke-width:0.8;" x="57.6" xlink:href="#m1fb8deb847" y="108.441065"/>
      </g>
     </g>
     <g id="text_17">
      <!-- 0.84 -->
      <g transform="translate(28.334375 112.240284)scale(0.1 -0.1)">
       <use xlink:href="#DejaVuSans-48"/>
       <use x="63.623047" xlink:href="#DejaVuSans-46"/>
       <use x="95.410156" xlink:href="#DejaVuSans-56"/>
       <use x="159.033203" xlink:href="#DejaVuSans-52"/>
      </g>
     </g>
    </g>
    <g id="ytick_8">
     <g id="line2d_17">
      <g>
       <use style="stroke:#000000;stroke-width:0.8;" x="57.6" xlink:href="#m1fb8deb847" y="78.537474"/>
      </g>
     </g>
     <g id="text_18">
      <!-- 0.86 -->
      <g transform="translate(28.334375 82.336693)scale(0.1 -0.1)">
       <use xlink:href="#DejaVuSans-48"/>
       <use x="63.623047" xlink:href="#DejaVuSans-46"/>
       <use x="95.410156" xlink:href="#DejaVuSans-56"/>
       <use x="159.033203" xlink:href="#DejaVuSans-54"/>
      </g>
     </g>
    </g>
    <g id="ytick_9">
     <g id="line2d_18">
      <g>
       <use style="stroke:#000000;stroke-width:0.8;" x="57.6" xlink:href="#m1fb8deb847" y="48.633884"/>
      </g>
     </g>
     <g id="text_19">
      <!-- 0.88 -->
      <g transform="translate(28.334375 52.433102)scale(0.1 -0.1)">
       <use xlink:href="#DejaVuSans-48"/>
       <use x="63.623047" xlink:href="#DejaVuSans-46"/>
       <use x="95.410156" xlink:href="#DejaVuSans-56"/>
       <use x="159.033203" xlink:href="#DejaVuSans-56"/>
      </g>
     </g>
    </g>
    <g id="text_20">
     <!-- Accuracy [\%] -->
     <defs>
      <path d="M 34.1875 63.1875 
L 20.796875 26.90625 
L 47.609375 26.90625 
z
M 28.609375 72.90625 
L 39.796875 72.90625 
L 67.578125 0 
L 57.328125 0 
L 50.6875 18.703125 
L 17.828125 18.703125 
L 11.1875 0 
L 0.78125 0 
z
" id="DejaVuSans-65"/>
      <path d="M 8.5 21.578125 
L 8.5 54.6875 
L 17.484375 54.6875 
L 17.484375 21.921875 
Q 17.484375 14.15625 20.5 10.265625 
Q 23.53125 6.390625 29.59375 6.390625 
Q 36.859375 6.390625 41.078125 11.03125 
Q 45.3125 15.671875 45.3125 23.6875 
L 45.3125 54.6875 
L 54.296875 54.6875 
L 54.296875 0 
L 45.3125 0 
L 45.3125 8.40625 
Q 42.046875 3.421875 37.71875 1 
Q 33.40625 -1.421875 27.6875 -1.421875 
Q 18.265625 -1.421875 13.375 4.4375 
Q 8.5 10.296875 8.5 21.578125 
z
M 31.109375 56 
z
" id="DejaVuSans-117"/>
      <path d="M 41.109375 46.296875 
Q 39.59375 47.171875 37.8125 47.578125 
Q 36.03125 48 33.890625 48 
Q 26.265625 48 22.1875 43.046875 
Q 18.109375 38.09375 18.109375 28.8125 
L 18.109375 0 
L 9.078125 0 
L 9.078125 54.6875 
L 18.109375 54.6875 
L 18.109375 46.1875 
Q 20.953125 51.171875 25.484375 53.578125 
Q 30.03125 56 36.53125 56 
Q 37.453125 56 38.578125 55.875 
Q 39.703125 55.765625 41.0625 55.515625 
z
" id="DejaVuSans-114"/>
      <path d="M 34.28125 27.484375 
Q 23.390625 27.484375 19.1875 25 
Q 14.984375 22.515625 14.984375 16.5 
Q 14.984375 11.71875 18.140625 8.90625 
Q 21.296875 6.109375 26.703125 6.109375 
Q 34.1875 6.109375 38.703125 11.40625 
Q 43.21875 16.703125 43.21875 25.484375 
L 43.21875 27.484375 
z
M 52.203125 31.203125 
L 52.203125 0 
L 43.21875 0 
L 43.21875 8.296875 
Q 40.140625 3.328125 35.546875 0.953125 
Q 30.953125 -1.421875 24.3125 -1.421875 
Q 15.921875 -1.421875 10.953125 3.296875 
Q 6 8.015625 6 15.921875 
Q 6 25.140625 12.171875 29.828125 
Q 18.359375 34.515625 30.609375 34.515625 
L 43.21875 34.515625 
L 43.21875 35.40625 
Q 43.21875 41.609375 39.140625 45 
Q 35.0625 48.390625 27.6875 48.390625 
Q 23 48.390625 18.546875 47.265625 
Q 14.109375 46.140625 10.015625 43.890625 
L 10.015625 52.203125 
Q 14.9375 54.109375 19.578125 55.046875 
Q 24.21875 56 28.609375 56 
Q 40.484375 56 46.34375 49.84375 
Q 52.203125 43.703125 52.203125 31.203125 
z
" id="DejaVuSans-97"/>
      <path d="M 32.171875 -5.078125 
Q 28.375 -14.84375 24.75 -17.8125 
Q 21.140625 -20.796875 15.09375 -20.796875 
L 7.90625 -20.796875 
L 7.90625 -13.28125 
L 13.1875 -13.28125 
Q 16.890625 -13.28125 18.9375 -11.515625 
Q 21 -9.765625 23.484375 -3.21875 
L 25.09375 0.875 
L 2.984375 54.6875 
L 12.5 54.6875 
L 29.59375 11.921875 
L 46.6875 54.6875 
L 56.203125 54.6875 
z
" id="DejaVuSans-121"/>
      <path id="DejaVuSans-32"/>
      <path d="M 72.703125 32.078125 
Q 68.453125 32.078125 66.03125 28.46875 
Q 63.625 24.859375 63.625 18.40625 
Q 63.625 12.0625 66.03125 8.421875 
Q 68.453125 4.78125 72.703125 4.78125 
Q 76.859375 4.78125 79.265625 8.421875 
Q 81.6875 12.0625 81.6875 18.40625 
Q 81.6875 24.8125 79.265625 28.4375 
Q 76.859375 32.078125 72.703125 32.078125 
z
M 72.703125 38.28125 
Q 80.421875 38.28125 84.953125 32.90625 
Q 89.5 27.546875 89.5 18.40625 
Q 89.5 9.28125 84.9375 3.921875 
Q 80.375 -1.421875 72.703125 -1.421875 
Q 64.890625 -1.421875 60.34375 3.921875 
Q 55.8125 9.28125 55.8125 18.40625 
Q 55.8125 27.59375 60.375 32.9375 
Q 64.9375 38.28125 72.703125 38.28125 
z
M 22.3125 68.015625 
Q 18.109375 68.015625 15.6875 64.375 
Q 13.28125 60.75 13.28125 54.390625 
Q 13.28125 47.953125 15.671875 44.328125 
Q 18.0625 40.71875 22.3125 40.71875 
Q 26.5625 40.71875 28.96875 44.328125 
Q 31.390625 47.953125 31.390625 54.390625 
Q 31.390625 60.6875 28.953125 64.34375 
Q 26.515625 68.015625 22.3125 68.015625 
z
M 66.40625 74.21875 
L 74.21875 74.21875 
L 28.609375 -1.421875 
L 20.796875 -1.421875 
z
M 22.3125 74.21875 
Q 30.03125 74.21875 34.609375 68.875 
Q 39.203125 63.53125 39.203125 54.390625 
Q 39.203125 45.171875 34.640625 39.84375 
Q 30.078125 34.515625 22.3125 34.515625 
Q 14.546875 34.515625 10.03125 39.859375 
Q 5.515625 45.21875 5.515625 54.390625 
Q 5.515625 63.484375 10.046875 68.84375 
Q 14.59375 74.21875 22.3125 74.21875 
z
" id="DejaVuSans-37"/>
     </defs>
     <g transform="translate(22.254687 209.368625)rotate(-90)scale(0.1 -0.1)">
      <use xlink:href="#DejaVuSans-65"/>
      <use x="68.392578" xlink:href="#DejaVuSans-99"/>
      <use x="123.373047" xlink:href="#DejaVuSans-99"/>
      <use x="178.353516" xlink:href="#DejaVuSans-117"/>
      <use x="241.732422" xlink:href="#DejaVuSans-114"/>
      <use x="282.845703" xlink:href="#DejaVuSans-97"/>
      <use x="344.125" xlink:href="#DejaVuSans-99"/>
      <use x="399.105469" xlink:href="#DejaVuSans-121"/>
      <use x="458.285156" xlink:href="#DejaVuSans-32"/>
      <use x="490.072266" xlink:href="#DejaVuSans-91"/>
      <use x="529.085938" xlink:href="#DejaVuSans-92"/>
      <use x="562.777344" xlink:href="#DejaVuSans-37"/>
      <use x="657.796875" xlink:href="#DejaVuSans-93"/>
     </g>
    </g>
   </g>
   <g id="line2d_19">
    <path clip-path="url(#p5525d66c0d)" d="M 73.832727 224.018411 
L 75.464157 205.627771 
L 77.095587 192.769232 
L 78.727017 174.976584 
L 80.358447 171.089096 
L 81.989877 155.987772 
L 83.621307 170.640557 
L 85.252736 156.436311 
L 86.884166 148.063342 
L 88.515596 142.97969 
L 90.147026 135.5038 
L 91.778456 133.5601 
L 93.409886 134.307636 
L 95.041316 136.101882 
L 96.672746 127.130831 
L 98.304175 128.625991 
L 99.935605 116.215991 
L 101.567035 121.59864 
L 103.198465 116.963616 
L 104.829895 117.860694 
L 106.461325 108.889644 
L 108.092755 108.291562 
L 109.724185 110.833343 
L 111.355614 108.889644 
L 112.987044 110.235261 
L 114.618474 106.945855 
L 116.249904 105.899234 
L 117.881334 110.6838 
L 119.512764 106.796401 
L 121.144194 100.815671 
L 122.775624 97.675808 
L 124.407053 101.712749 
L 126.038483 104.404074 
L 127.669913 92.741699 
L 129.301343 94.984484 
L 130.932773 96.330101 
L 132.564203 94.087316 
L 134.195633 92.143617 
L 135.827063 93.489234 
L 137.458492 88.555214 
L 139.089922 89.153207 
L 140.721352 90.050374 
L 142.352782 97.077726 
L 143.984212 91.246538 
L 145.615642 88.256129 
L 147.247072 83.770559 
L 148.878502 89.153207 
L 150.509931 86.760968 
L 152.141361 86.312429 
L 153.772791 85.265808 
L 155.404221 83.322019 
L 157.035651 78.088914 
L 158.667081 83.471562 
L 160.298511 83.471562 
L 161.929941 84.069644 
L 163.56137 82.87348 
L 165.1928 83.770559 
L 166.82423 83.023023 
L 168.45566 83.172566 
L 170.08709 79.434621 
L 171.71852 87.059965 
L 173.34995 80.780238 
L 174.98138 88.106586 
L 176.61281 84.069644 
L 178.244239 81.228777 
L 179.875669 83.322019 
L 181.507099 86.910511 
L 183.138529 83.172566 
L 184.769959 76.593754 
L 186.401389 77.341289 
L 188.032819 81.976402 
L 189.664249 77.789917 
L 191.295678 77.939371 
L 192.927108 77.191836 
L 194.558538 73.304347 
L 196.189968 85.714347 
L 197.821398 85.714347 
L 199.452828 76.294668 
L 202.715688 81.976402 
L 204.347117 82.424941 
L 205.978547 75.248047 
L 207.609977 74.201426 
L 209.241407 80.481242 
L 210.872837 74.799508 
L 212.504267 78.238457 
L 214.135697 74.799508 
L 215.767127 77.789917 
L 217.398556 78.088914 
L 219.029986 86.013344 
L 220.661416 79.584074 
L 222.292846 75.248047 
L 223.924276 73.304347 
L 225.555706 70.014941 
L 227.187136 76.89275 
L 228.818566 76.593754 
L 230.449995 69.117863 
L 232.081425 72.257726 
L 233.712855 73.304347 
L 235.344285 67.921699 
L 236.975715 65.080832 
L 238.607145 69.865399 
L 240.238575 73.45389 
L 241.870005 75.547132 
L 243.501434 68.220696 
L 245.132864 68.96832 
L 246.764294 77.640375 
L 248.395724 67.622703 
L 250.027154 75.696675 
L 251.658584 74.799508 
L 253.290014 76.145214 
L 254.921444 63.884757 
L 256.552873 72.257726 
L 258.184303 71.510102 
L 259.815733 65.230375 
L 261.447163 74.500511 
L 263.078593 67.921699 
L 264.710023 67.622703 
L 266.341453 63.436129 
L 267.972883 71.958641 
L 269.604312 72.706266 
L 271.235742 70.014941 
L 272.867172 73.005351 
L 274.498602 68.519781 
L 276.130032 67.921699 
L 277.761462 73.603344 
L 279.392892 67.772156 
L 282.655751 71.809187 
L 284.287181 67.47316 
L 285.918611 66.576082 
L 287.550041 68.669324 
L 289.181471 68.669324 
L 290.812901 67.323617 
L 292.444331 64.333297 
L 294.075761 61.641972 
L 295.70719 64.034211 
L 297.33862 63.436129 
L 298.97005 67.47316 
L 300.60148 68.669324 
L 302.23291 64.034211 
L 303.86434 66.725535 
L 305.49577 68.818778 
L 307.1272 63.735215 
L 308.75863 61.193433 
L 310.390059 69.267406 
L 312.021489 60.894348 
L 313.652919 61.342887 
L 315.284349 65.230375 
L 316.915779 66.276996 
L 318.547209 60.744805 
L 320.178639 61.791426 
L 321.810069 64.632293 
L 323.441498 69.865399 
L 325.072928 63.137133 
L 326.704358 67.174074 
L 328.335788 69.416859 
L 329.967218 61.49243 
L 331.598648 64.781836 
L 333.230078 59.399187 
L 334.861508 61.49243 
L 336.492937 66.276996 
L 338.124367 68.818778 
L 339.755797 68.220696 
L 341.387227 62.090512 
L 343.018657 57.156403 
L 344.650087 61.641972 
L 346.281517 60.595351 
L 347.912947 62.240054 
L 349.544376 60.744805 
L 351.175806 63.884757 
L 352.807236 65.828457 
L 354.438666 58.950648 
L 356.070096 65.529371 
L 357.701526 66.725535 
L 359.332956 61.49243 
L 360.964386 63.735215 
L 362.595815 62.389508 
L 364.227245 64.781836 
L 365.858675 61.193433 
L 367.490105 53.568 
L 369.121535 63.137133 
L 370.752965 62.688594 
L 372.384395 61.193433 
L 374.015825 58.502109 
L 375.647254 58.801106 
L 377.278684 59.997269 
L 378.910114 60.445809 
L 380.541544 62.688594 
L 382.172974 62.389508 
L 383.804404 61.940969 
L 385.435834 61.641972 
L 387.067264 63.286676 
L 388.698693 62.389508 
L 390.330123 62.98759 
L 391.961553 57.305945 
L 393.592983 60.296266 
L 396.855843 61.193433 
L 398.487273 58.801106 
L 398.487273 58.801106 
" style="fill:none;stroke:#1f77b4;stroke-linecap:square;stroke-width:1.5;"/>
   </g>
   <g id="line2d_20">
    <path clip-path="url(#p5525d66c0d)" d="M 73.832727 283.227543 
L 77.095587 227.008821 
L 78.727017 216.542521 
L 80.358447 193.965307 
L 81.989877 198.450876 
L 83.621307 184.994256 
L 85.252736 177.518365 
L 86.884166 174.677498 
L 88.515596 164.659826 
L 90.147026 170.192017 
L 91.778456 162.86558 
L 93.409886 157.782018 
L 95.041316 154.044072 
L 96.672746 154.193526 
L 98.304175 152.997451 
L 99.935605 150.90412 
L 101.567035 152.249827 
L 103.198465 146.867178 
L 104.829895 139.391288 
L 106.461325 141.185533 
L 108.092755 136.99896 
L 109.724185 137.298045 
L 111.355614 132.962018 
L 112.987044 140.587452 
L 116.249904 131.317315 
L 117.881334 140.437909 
L 119.512764 127.57937 
L 121.144194 127.878366 
L 122.775624 125.037589 
L 124.407053 127.57937 
L 126.038483 132.363936 
L 127.669913 123.0938 
L 129.301343 122.495718 
L 130.932773 120.851015 
L 132.564203 118.159691 
L 134.195633 126.682292 
L 135.827063 122.196722 
L 137.458492 126.383206 
L 139.089922 124.888046 
L 140.721352 119.056858 
L 142.352782 122.794804 
L 143.984212 118.757773 
L 145.615642 124.140421 
L 147.247072 126.08421 
L 148.878502 118.159691 
L 150.509931 119.65494 
L 152.141361 121.748182 
L 153.772791 124.439507 
L 155.404221 113.823753 
L 157.035651 120.402476 
L 158.667081 115.767452 
L 160.298511 114.421746 
L 161.929941 116.963616 
L 163.56137 116.664531 
L 165.1928 122.495718 
L 166.82423 115.916995 
L 168.45566 112.627589 
L 171.71852 116.814073 
L 173.34995 114.720831 
L 174.98138 114.571288 
L 176.61281 116.664531 
L 178.244239 112.17905 
L 179.875669 112.926585 
L 181.507099 108.889644 
L 183.138529 111.580968 
L 184.769959 115.318913 
L 186.401389 110.982886 
L 188.032819 109.637179 
L 189.664249 110.982886 
L 191.295678 115.468367 
L 192.927108 115.916995 
L 194.558538 114.421746 
L 196.189968 111.730421 
L 197.821398 111.580968 
L 199.452828 110.534347 
L 201.084258 112.029507 
L 202.715688 111.879964 
L 204.347117 112.478046 
L 205.978547 104.105077 
L 207.609977 106.945855 
L 209.241407 107.24494 
L 210.872837 113.524667 
L 212.504267 108.142019 
L 214.135697 115.318913 
L 215.767127 112.627589 
L 217.398556 107.394483 
L 219.029986 110.384804 
L 220.661416 108.590558 
L 222.292846 104.852613 
L 223.924276 109.338183 
L 225.555706 105.600237 
L 227.187136 105.899234 
L 228.818566 106.796401 
L 230.449995 105.002156 
L 232.081425 102.460374 
L 233.712855 106.198319 
L 235.344285 108.590558 
L 236.975715 100.068046 
L 238.607145 105.74978 
L 240.238575 112.926585 
L 241.870005 108.441104 
L 243.501434 102.310831 
L 245.132864 107.69348 
L 246.764294 108.889644 
L 248.395724 109.786722 
L 250.027154 105.151698 
L 251.658584 105.74978 
L 253.290014 104.105077 
L 254.921444 99.469964 
L 256.552873 101.712749 
L 258.184303 101.712749 
L 259.815733 106.198319 
L 261.447163 104.404074 
L 263.078593 106.198319 
L 264.710023 103.656449 
L 266.341453 105.301152 
L 267.972883 106.048777 
L 269.604312 100.516586 
L 271.235742 99.170968 
L 272.867172 106.796401 
L 274.498602 109.637179 
L 276.130032 103.805992 
L 277.761462 103.656449 
L 279.392892 99.918504 
L 281.024322 106.646859 
L 282.655751 101.114667 
L 284.287181 103.805992 
L 285.918611 106.048777 
L 287.550041 102.011835 
L 289.181471 107.24494 
L 290.812901 102.759371 
L 292.444331 108.142019 
L 294.075761 107.095398 
L 295.70719 102.460374 
L 297.33862 100.965125 
L 298.97005 103.805992 
L 300.60148 113.67421 
L 302.23291 111.132429 
L 303.86434 106.945855 
L 305.49577 99.320511 
L 307.1272 98.124347 
L 308.75863 106.497316 
L 312.021489 97.376722 
L 313.652919 105.301152 
L 315.284349 100.516586 
L 316.915779 105.002156 
L 318.547209 96.928183 
L 320.178639 102.759371 
L 321.810069 98.572886 
L 323.441498 103.656449 
L 325.072928 105.450695 
L 326.704358 106.945855 
L 328.335788 106.646859 
L 329.967218 110.085718 
L 331.598648 101.413753 
L 333.230078 98.871882 
L 334.861508 100.217589 
L 336.492937 100.367132 
L 338.124367 101.413753 
L 339.755797 100.815671 
L 341.387227 99.021425 
L 343.018657 103.656449 
L 344.650087 96.77864 
L 346.281517 107.24494 
L 347.912947 100.516586 
L 349.544376 103.357452 
L 351.175806 97.974804 
L 352.807236 101.114667 
L 354.438666 99.170968 
L 356.070096 106.497316 
L 357.701526 99.021425 
L 359.332956 94.386402 
L 360.964386 98.572886 
L 362.595815 94.087316 
L 364.227245 102.011835 
L 365.858675 104.703159 
L 367.490105 100.068046 
L 369.121535 93.78832 
L 370.752965 103.955534 
L 372.384395 96.928183 
L 374.015825 96.479644 
L 375.647254 101.563207 
L 377.278684 95.881562 
L 378.910114 98.124347 
L 380.541544 99.021425 
L 382.172974 102.011835 
L 383.804404 100.965125 
L 385.435834 96.330101 
L 387.067264 97.376722 
L 388.698693 91.994074 
L 390.330123 101.413753 
L 391.961553 97.974804 
L 393.592983 98.124347 
L 395.224413 92.592156 
L 396.855843 93.489234 
L 398.487273 99.320511 
L 398.487273 99.320511 
" style="fill:none;stroke:#ff7f0e;stroke-linecap:square;stroke-width:1.5;"/>
   </g>
   <g id="line2d_21">
    <path clip-path="url(#p5525d66c0d)" d="M 73.832727 295.488 
L 75.464157 255.566766 
L 77.095587 230.298227 
L 78.727017 209.06663 
L 80.358447 198.899416 
L 81.989877 185.891334 
L 83.621307 184.396174 
L 85.252736 176.77074 
L 88.515596 165.407362 
L 91.778456 158.978092 
L 93.409886 154.492612 
L 95.041316 152.698366 
L 96.672746 148.810878 
L 98.304175 140.138912 
L 99.935605 144.923479 
L 101.567035 136.550421 
L 103.198465 132.662933 
L 104.829895 139.839827 
L 106.461325 132.812475 
L 108.092755 129.373616 
L 109.724185 135.653342 
L 111.355614 129.822155 
L 112.987044 129.672612 
L 114.618474 131.765854 
L 116.249904 120.552019 
L 117.881334 120.253022 
L 119.512764 122.495718 
L 121.144194 120.701561 
L 122.775624 118.159691 
L 124.407053 127.130831 
L 126.038483 120.701561 
L 127.669913 123.0938 
L 129.301343 119.355855 
L 130.932773 121.000558 
L 132.564203 121.449097 
L 134.195633 114.720831 
L 135.827063 115.617909 
L 137.458492 113.375124 
L 139.089922 118.907315 
L 140.721352 116.515077 
L 142.352782 112.478046 
L 143.984212 111.730421 
L 145.615642 111.580968 
L 147.247072 115.617909 
L 148.878502 112.478046 
L 150.509931 110.833343 
L 152.141361 107.543937 
L 153.772791 106.048777 
L 155.404221 111.431425 
L 157.035651 106.198319 
L 158.667081 113.225671 
L 160.298511 107.992476 
L 161.929941 103.955534 
L 163.56137 106.497316 
L 165.1928 109.936265 
L 166.82423 102.310831 
L 168.45566 104.703159 
L 170.08709 102.609828 
L 171.71852 100.068046 
L 173.34995 98.722429 
L 174.98138 102.460374 
L 176.61281 102.908913 
L 178.244239 98.124347 
L 179.875669 107.543937 
L 181.507099 101.563207 
L 183.138529 102.011835 
L 184.769959 101.712749 
L 186.401389 100.815671 
L 188.032819 99.76905 
L 189.664249 97.675808 
L 191.295678 101.413753 
L 192.927108 94.535855 
L 194.558538 100.217589 
L 196.189968 93.489234 
L 197.821398 97.526265 
L 199.452828 95.433023 
L 201.084258 98.423343 
L 202.715688 100.068046 
L 204.347117 90.349371 
L 205.978547 97.526265 
L 207.609977 95.732019 
L 209.241407 95.28348 
L 210.872837 101.26421 
L 212.504267 97.825261 
L 214.135697 89.452292 
L 215.767127 91.994074 
L 217.398556 92.741699 
L 219.029986 87.059965 
L 220.661416 90.349371 
L 222.292846 89.30275 
L 223.924276 94.535855 
L 225.555706 97.077726 
L 227.187136 89.30275 
L 228.818566 94.087316 
L 230.449995 100.367132 
L 232.081425 90.79791 
L 233.712855 95.133937 
L 235.344285 95.433023 
L 236.975715 96.180558 
L 238.607145 90.050374 
L 240.238575 92.293159 
L 241.870005 92.891241 
L 243.501434 93.339781 
L 245.132864 92.293159 
L 246.764294 93.489234 
L 248.395724 87.508593 
L 250.027154 84.966722 
L 251.658584 93.638777 
L 253.290014 91.994074 
L 254.921444 90.648456 
L 256.552873 92.741699 
L 258.184303 87.059965 
L 259.815733 90.199917 
L 261.447163 88.405671 
L 263.078593 88.555214 
L 264.710023 87.508593 
L 266.341453 87.059965 
L 267.972883 88.405671 
L 269.604312 87.957132 
L 271.235742 85.265808 
L 272.867172 88.704668 
L 274.498602 89.900832 
L 276.130032 84.966722 
L 277.761462 87.658047 
L 279.392892 89.003753 
L 281.024322 87.807589 
L 282.655751 86.162886 
L 284.287181 88.854211 
L 285.918611 84.219187 
L 287.550041 86.461883 
L 289.181471 87.508593 
L 290.812901 87.807589 
L 292.444331 84.966722 
L 294.075761 87.508593 
L 295.70719 89.153207 
L 297.33862 83.023023 
L 298.97005 84.966722 
L 300.60148 85.714347 
L 302.23291 87.658047 
L 303.86434 83.621105 
L 305.49577 81.527863 
L 307.1272 81.976402 
L 308.75863 88.704668 
L 310.390059 86.611426 
L 312.021489 87.957132 
L 313.652919 84.219187 
L 315.284349 77.042293 
L 316.915779 86.760968 
L 318.547209 87.658047 
L 320.178639 77.640375 
L 321.810069 88.106586 
L 323.441498 80.780238 
L 325.072928 80.331699 
L 326.704358 83.471562 
L 328.335788 78.985992 
L 329.967218 80.481242 
L 331.598648 82.723937 
L 333.230078 77.341289 
L 334.861508 79.733617 
L 336.492937 78.985992 
L 338.124367 85.564804 
L 339.755797 80.331699 
L 341.387227 79.584074 
L 343.018657 74.201426 
L 344.650087 87.35905 
L 346.281517 72.855808 
L 347.912947 81.976402 
L 349.544376 80.630695 
L 351.175806 78.088914 
L 352.807236 74.799508 
L 354.438666 81.826859 
L 356.070096 79.434621 
L 357.701526 83.172566 
L 359.332956 78.985992 
L 360.964386 75.39759 
L 362.595815 79.88316 
L 364.227245 80.331699 
L 365.858675 82.87348 
L 367.490105 75.39759 
L 369.121535 77.490832 
L 370.752965 75.846129 
L 372.384395 79.434621 
L 374.015825 75.098593 
L 375.647254 79.584074 
L 377.278684 79.285078 
L 378.910114 73.902429 
L 380.541544 76.89275 
L 382.172974 76.145214 
L 383.804404 73.005351 
L 385.435834 81.826859 
L 387.067264 78.537453 
L 388.698693 80.032613 
L 390.330123 78.238457 
L 391.961553 75.39759 
L 393.592983 71.510102 
L 395.224413 80.331699 
L 396.855843 79.434621 
L 398.487273 78.238457 
L 398.487273 78.238457 
" style="fill:none;stroke:#2ca02c;stroke-linecap:square;stroke-width:1.5;"/>
   </g>
   <g id="patch_3">
    <path d="M 57.6 307.584 
L 57.6 41.472 
" style="fill:none;stroke:#000000;stroke-linecap:square;stroke-linejoin:miter;stroke-width:0.8;"/>
   </g>
   <g id="patch_4">
    <path d="M 414.72 307.584 
L 414.72 41.472 
" style="fill:none;stroke:#000000;stroke-linecap:square;stroke-linejoin:miter;stroke-width:0.8;"/>
   </g>
   <g id="patch_5">
    <path d="M 57.6 307.584 
L 414.72 307.584 
" style="fill:none;stroke:#000000;stroke-linecap:square;stroke-linejoin:miter;stroke-width:0.8;"/>
   </g>
   <g id="patch_6">
    <path d="M 57.6 41.472 
L 414.72 41.472 
" style="fill:none;stroke:#000000;stroke-linecap:square;stroke-linejoin:miter;stroke-width:0.8;"/>
   </g>
   <g id="legend_1">
    <g id="patch_7">
     <path d="M 337.471563 302.584 
L 407.72 302.584 
Q 409.72 302.584 409.72 300.584 
L 409.72 257.549625 
Q 409.72 255.549625 407.72 255.549625 
L 337.471563 255.549625 
Q 335.471563 255.549625 335.471563 257.549625 
L 335.471563 300.584 
Q 335.471563 302.584 337.471563 302.584 
z
" style="fill:#ffffff;opacity:0.8;stroke:#cccccc;stroke-linejoin:miter;"/>
    </g>
    <g id="line2d_22">
     <path d="M 339.471563 263.648062 
L 359.471563 263.648062 
" style="fill:none;stroke:#1f77b4;stroke-linecap:square;stroke-width:1.5;"/>
    </g>
    <g id="line2d_23"/>
    <g id="text_21">
     <!-- MLP -->
     <defs>
      <path d="M 9.8125 72.90625 
L 24.515625 72.90625 
L 43.109375 23.296875 
L 61.8125 72.90625 
L 76.515625 72.90625 
L 76.515625 0 
L 66.890625 0 
L 66.890625 64.015625 
L 48.09375 14.015625 
L 38.1875 14.015625 
L 19.390625 64.015625 
L 19.390625 0 
L 9.8125 0 
z
" id="DejaVuSans-77"/>
      <path d="M 9.8125 72.90625 
L 19.671875 72.90625 
L 19.671875 8.296875 
L 55.171875 8.296875 
L 55.171875 0 
L 9.8125 0 
z
" id="DejaVuSans-76"/>
      <path d="M 19.671875 64.796875 
L 19.671875 37.40625 
L 32.078125 37.40625 
Q 38.96875 37.40625 42.71875 40.96875 
Q 46.484375 44.53125 46.484375 51.125 
Q 46.484375 57.671875 42.71875 61.234375 
Q 38.96875 64.796875 32.078125 64.796875 
z
M 9.8125 72.90625 
L 32.078125 72.90625 
Q 44.34375 72.90625 50.609375 67.359375 
Q 56.890625 61.8125 56.890625 51.125 
Q 56.890625 40.328125 50.609375 34.8125 
Q 44.34375 29.296875 32.078125 29.296875 
L 19.671875 29.296875 
L 19.671875 0 
L 9.8125 0 
z
" id="DejaVuSans-80"/>
     </defs>
     <g transform="translate(367.471563 267.148062)scale(0.1 -0.1)">
      <use xlink:href="#DejaVuSans-77"/>
      <use x="86.279297" xlink:href="#DejaVuSans-76"/>
      <use x="141.992188" xlink:href="#DejaVuSans-80"/>
     </g>
    </g>
    <g id="line2d_24">
     <path d="M 339.471563 278.326188 
L 359.471563 278.326188 
" style="fill:none;stroke:#ff7f0e;stroke-linecap:square;stroke-width:1.5;"/>
    </g>
    <g id="line2d_25"/>
    <g id="text_22">
     <!-- CenSET -->
     <defs>
      <path d="M 64.40625 67.28125 
L 64.40625 56.890625 
Q 59.421875 61.53125 53.78125 63.8125 
Q 48.140625 66.109375 41.796875 66.109375 
Q 29.296875 66.109375 22.65625 58.46875 
Q 16.015625 50.828125 16.015625 36.375 
Q 16.015625 21.96875 22.65625 14.328125 
Q 29.296875 6.6875 41.796875 6.6875 
Q 48.140625 6.6875 53.78125 8.984375 
Q 59.421875 11.28125 64.40625 15.921875 
L 64.40625 5.609375 
Q 59.234375 2.09375 53.4375 0.328125 
Q 47.65625 -1.421875 41.21875 -1.421875 
Q 24.65625 -1.421875 15.125 8.703125 
Q 5.609375 18.84375 5.609375 36.375 
Q 5.609375 53.953125 15.125 64.078125 
Q 24.65625 74.21875 41.21875 74.21875 
Q 47.75 74.21875 53.53125 72.484375 
Q 59.328125 70.75 64.40625 67.28125 
z
" id="DejaVuSans-67"/>
      <path d="M 56.203125 29.59375 
L 56.203125 25.203125 
L 14.890625 25.203125 
Q 15.484375 15.921875 20.484375 11.0625 
Q 25.484375 6.203125 34.421875 6.203125 
Q 39.59375 6.203125 44.453125 7.46875 
Q 49.3125 8.734375 54.109375 11.28125 
L 54.109375 2.78125 
Q 49.265625 0.734375 44.1875 -0.34375 
Q 39.109375 -1.421875 33.890625 -1.421875 
Q 20.796875 -1.421875 13.15625 6.1875 
Q 5.515625 13.8125 5.515625 26.8125 
Q 5.515625 40.234375 12.765625 48.109375 
Q 20.015625 56 32.328125 56 
Q 43.359375 56 49.78125 48.890625 
Q 56.203125 41.796875 56.203125 29.59375 
z
M 47.21875 32.234375 
Q 47.125 39.59375 43.09375 43.984375 
Q 39.0625 48.390625 32.421875 48.390625 
Q 24.90625 48.390625 20.390625 44.140625 
Q 15.875 39.890625 15.1875 32.171875 
z
" id="DejaVuSans-101"/>
      <path d="M 54.890625 33.015625 
L 54.890625 0 
L 45.90625 0 
L 45.90625 32.71875 
Q 45.90625 40.484375 42.875 44.328125 
Q 39.84375 48.1875 33.796875 48.1875 
Q 26.515625 48.1875 22.3125 43.546875 
Q 18.109375 38.921875 18.109375 30.90625 
L 18.109375 0 
L 9.078125 0 
L 9.078125 54.6875 
L 18.109375 54.6875 
L 18.109375 46.1875 
Q 21.34375 51.125 25.703125 53.5625 
Q 30.078125 56 35.796875 56 
Q 45.21875 56 50.046875 50.171875 
Q 54.890625 44.34375 54.890625 33.015625 
z
" id="DejaVuSans-110"/>
      <path d="M 53.515625 70.515625 
L 53.515625 60.890625 
Q 47.90625 63.578125 42.921875 64.890625 
Q 37.9375 66.21875 33.296875 66.21875 
Q 25.25 66.21875 20.875 63.09375 
Q 16.5 59.96875 16.5 54.203125 
Q 16.5 49.359375 19.40625 46.890625 
Q 22.3125 44.4375 30.421875 42.921875 
L 36.375 41.703125 
Q 47.40625 39.59375 52.65625 34.296875 
Q 57.90625 29 57.90625 20.125 
Q 57.90625 9.515625 50.796875 4.046875 
Q 43.703125 -1.421875 29.984375 -1.421875 
Q 24.8125 -1.421875 18.96875 -0.25 
Q 13.140625 0.921875 6.890625 3.21875 
L 6.890625 13.375 
Q 12.890625 10.015625 18.65625 8.296875 
Q 24.421875 6.59375 29.984375 6.59375 
Q 38.421875 6.59375 43.015625 9.90625 
Q 47.609375 13.234375 47.609375 19.390625 
Q 47.609375 24.75 44.3125 27.78125 
Q 41.015625 30.8125 33.5 32.328125 
L 27.484375 33.5 
Q 16.453125 35.6875 11.515625 40.375 
Q 6.59375 45.0625 6.59375 53.421875 
Q 6.59375 63.09375 13.40625 68.65625 
Q 20.21875 74.21875 32.171875 74.21875 
Q 37.3125 74.21875 42.625 73.28125 
Q 47.953125 72.359375 53.515625 70.515625 
z
" id="DejaVuSans-83"/>
      <path d="M -0.296875 72.90625 
L 61.375 72.90625 
L 61.375 64.59375 
L 35.5 64.59375 
L 35.5 0 
L 25.59375 0 
L 25.59375 64.59375 
L -0.296875 64.59375 
z
" id="DejaVuSans-84"/>
     </defs>
     <g transform="translate(367.471563 281.826188)scale(0.1 -0.1)">
      <use xlink:href="#DejaVuSans-67"/>
      <use x="69.824219" xlink:href="#DejaVuSans-101"/>
      <use x="131.347656" xlink:href="#DejaVuSans-110"/>
      <use x="194.726562" xlink:href="#DejaVuSans-83"/>
      <use x="258.203125" xlink:href="#DejaVuSans-69"/>
      <use x="321.386719" xlink:href="#DejaVuSans-84"/>
     </g>
    </g>
    <g id="line2d_26">
     <path d="M 339.471563 293.004312 
L 359.471563 293.004312 
" style="fill:none;stroke:#2ca02c;stroke-linecap:square;stroke-width:1.5;"/>
    </g>
    <g id="line2d_27"/>
    <g id="text_23">
     <!-- SET -->
     <g transform="translate(367.471563 296.504312)scale(0.1 -0.1)">
      <use xlink:href="#DejaVuSans-83"/>
      <use x="63.476562" xlink:href="#DejaVuSans-69"/>
      <use x="126.660156" xlink:href="#DejaVuSans-84"/>
     </g>
    </g>
   </g>
  </g>
 </g>
 <defs>
  <clipPath id="p5525d66c0d">
   <rect height="266.112" width="357.12" x="57.6" y="41.472"/>
  </clipPath>
 </defs>
</svg>
