<?xml version="1.0" encoding="utf-8" standalone="no"?>
<!DOCTYPE svg PUBLIC "-//W3C//DTD SVG 1.1//EN"
  "http://www.w3.org/Graphics/SVG/1.1/DTD/svg11.dtd">
<!-- Created with matplotlib (https://matplotlib.org/) -->
<svg height="345.6pt" version="1.1" viewBox="0 0 460.8 345.6" width="460.8pt" xmlns="http://www.w3.org/2000/svg" xmlns:xlink="http://www.w3.org/1999/xlink">
 <defs>
  <style type="text/css">
*{stroke-linecap:butt;stroke-linejoin:round;}
  </style>
 </defs>
 <g id="figure_1">
  <g id="patch_1">
   <path d="M 0 345.6 
L 460.8 345.6 
L 460.8 0 
L 0 0 
z
" style="fill:#ffffff;"/>
  </g>
  <g id="axes_1">
   <g id="patch_2">
    <path d="M 57.6 307.584 
L 414.72 307.584 
L 414.72 41.472 
L 57.6 41.472 
z
" style="fill:#ffffff;"/>
   </g>
   <g id="matplotlib.axis_1">
    <g id="xtick_1">
     <g id="line2d_1">
      <path clip-path="url(#p494283d19c)" d="M 93.312 307.584 
L 93.312 41.472 
" style="fill:none;stroke:#b0b0b0;stroke-linecap:square;stroke-width:0.8;"/>
     </g>
     <g id="line2d_2">
      <defs>
       <path d="M 0 0 
L 0 3.5 
" id="m7097e7cdaa" style="stroke:#000000;stroke-width:0.8;"/>
      </defs>
      <g>
       <use style="stroke:#000000;stroke-width:0.8;" x="93.312" xlink:href="#m7097e7cdaa" y="307.584"/>
      </g>
     </g>
     <g id="text_1">
      <!-- −20 -->
      <defs>
       <path d="M 10.59375 37.109375 
L 73.1875 37.109375 
L 73.1875 25.59375 
L 10.59375 25.59375 
z
" id="DejaVuSans-Bold-8722"/>
       <path d="M 28.8125 13.8125 
L 60.890625 13.8125 
L 60.890625 0 
L 7.90625 0 
L 7.90625 13.8125 
L 34.515625 37.3125 
Q 38.09375 40.53125 39.796875 43.609375 
Q 41.5 46.6875 41.5 50 
Q 41.5 55.125 38.0625 58.25 
Q 34.625 61.375 28.90625 61.375 
Q 24.515625 61.375 19.28125 59.5 
Q 14.0625 57.625 8.109375 53.90625 
L 8.109375 69.921875 
Q 14.453125 72.015625 20.65625 73.109375 
Q 26.859375 74.21875 32.8125 74.21875 
Q 45.90625 74.21875 53.15625 68.453125 
Q 60.40625 62.703125 60.40625 52.390625 
Q 60.40625 46.4375 57.328125 41.28125 
Q 54.25 36.140625 44.390625 27.484375 
z
" id="DejaVuSans-Bold-50"/>
       <path d="M 46 36.53125 
Q 46 50.203125 43.4375 55.78125 
Q 40.875 61.375 34.8125 61.375 
Q 28.765625 61.375 26.171875 55.78125 
Q 23.578125 50.203125 23.578125 36.53125 
Q 23.578125 22.703125 26.171875 17.03125 
Q 28.765625 11.375 34.8125 11.375 
Q 40.828125 11.375 43.40625 17.03125 
Q 46 22.703125 46 36.53125 
z
M 64.796875 36.375 
Q 64.796875 18.265625 56.984375 8.421875 
Q 49.171875 -1.421875 34.8125 -1.421875 
Q 20.40625 -1.421875 12.59375 8.421875 
Q 4.78125 18.265625 4.78125 36.375 
Q 4.78125 54.546875 12.59375 64.375 
Q 20.40625 74.21875 34.8125 74.21875 
Q 49.171875 74.21875 56.984375 64.375 
Q 64.796875 54.546875 64.796875 36.375 
z
" id="DejaVuSans-Bold-48"/>
      </defs>
      <g transform="translate(77.705281 325.221812)scale(0.14 -0.14)">
       <use xlink:href="#DejaVuSans-Bold-8722"/>
       <use x="83.789062" xlink:href="#DejaVuSans-Bold-50"/>
       <use x="153.369141" xlink:href="#DejaVuSans-Bold-48"/>
      </g>
     </g>
    </g>
    <g id="xtick_2">
     <g id="line2d_3">
      <path clip-path="url(#p494283d19c)" d="M 164.736 307.584 
L 164.736 41.472 
" style="fill:none;stroke:#b0b0b0;stroke-linecap:square;stroke-width:0.8;"/>
     </g>
     <g id="line2d_4">
      <g>
       <use style="stroke:#000000;stroke-width:0.8;" x="164.736" xlink:href="#m7097e7cdaa" y="307.584"/>
      </g>
     </g>
     <g id="text_2">
      <!-- −10 -->
      <defs>
       <path d="M 11.71875 12.984375 
L 28.328125 12.984375 
L 28.328125 60.109375 
L 11.28125 56.59375 
L 11.28125 69.390625 
L 28.21875 72.90625 
L 46.09375 72.90625 
L 46.09375 12.984375 
L 62.703125 12.984375 
L 62.703125 0 
L 11.71875 0 
z
" id="DejaVuSans-Bold-49"/>
      </defs>
      <g transform="translate(149.129281 325.221812)scale(0.14 -0.14)">
       <use xlink:href="#DejaVuSans-Bold-8722"/>
       <use x="83.789062" xlink:href="#DejaVuSans-Bold-49"/>
       <use x="153.369141" xlink:href="#DejaVuSans-Bold-48"/>
      </g>
     </g>
    </g>
    <g id="xtick_3">
     <g id="line2d_5">
      <path clip-path="url(#p494283d19c)" d="M 236.16 307.584 
L 236.16 41.472 
" style="fill:none;stroke:#b0b0b0;stroke-linecap:square;stroke-width:0.8;"/>
     </g>
     <g id="line2d_6">
      <g>
       <use style="stroke:#000000;stroke-width:0.8;" x="236.16" xlink:href="#m7097e7cdaa" y="307.584"/>
      </g>
     </g>
     <g id="text_3">
      <!-- 0 -->
      <g transform="translate(231.289531 325.221812)scale(0.14 -0.14)">
       <use xlink:href="#DejaVuSans-Bold-48"/>
      </g>
     </g>
    </g>
    <g id="xtick_4">
     <g id="line2d_7">
      <path clip-path="url(#p494283d19c)" d="M 307.584 307.584 
L 307.584 41.472 
" style="fill:none;stroke:#b0b0b0;stroke-linecap:square;stroke-width:0.8;"/>
     </g>
     <g id="line2d_8">
      <g>
       <use style="stroke:#000000;stroke-width:0.8;" x="307.584" xlink:href="#m7097e7cdaa" y="307.584"/>
      </g>
     </g>
     <g id="text_4">
      <!-- 10 -->
      <g transform="translate(297.843062 325.221812)scale(0.14 -0.14)">
       <use xlink:href="#DejaVuSans-Bold-49"/>
       <use x="69.580078" xlink:href="#DejaVuSans-Bold-48"/>
      </g>
     </g>
    </g>
    <g id="xtick_5">
     <g id="line2d_9">
      <path clip-path="url(#p494283d19c)" d="M 379.008 307.584 
L 379.008 41.472 
" style="fill:none;stroke:#b0b0b0;stroke-linecap:square;stroke-width:0.8;"/>
     </g>
     <g id="line2d_10">
      <g>
       <use style="stroke:#000000;stroke-width:0.8;" x="379.008" xlink:href="#m7097e7cdaa" y="307.584"/>
      </g>
     </g>
     <g id="text_5">
      <!-- 20 -->
      <g transform="translate(369.267063 325.221812)scale(0.14 -0.14)">
       <use xlink:href="#DejaVuSans-Bold-50"/>
       <use x="69.580078" xlink:href="#DejaVuSans-Bold-48"/>
      </g>
     </g>
    </g>
    <g id="text_6">
     <!-- Laplacian centrality -->
     <defs>
      <path d="M 9.8125 72.90625 
L 19.671875 72.90625 
L 19.671875 8.296875 
L 55.171875 8.296875 
L 55.171875 0 
L 9.8125 0 
z
" id="DejaVuSans-76"/>
      <path d="M 34.28125 27.484375 
Q 23.390625 27.484375 19.1875 25 
Q 14.984375 22.515625 14.984375 16.5 
Q 14.984375 11.71875 18.140625 8.90625 
Q 21.296875 6.109375 26.703125 6.109375 
Q 34.1875 6.109375 38.703125 11.40625 
Q 43.21875 16.703125 43.21875 25.484375 
L 43.21875 27.484375 
z
M 52.203125 31.203125 
L 52.203125 0 
L 43.21875 0 
L 43.21875 8.296875 
Q 40.140625 3.328125 35.546875 0.953125 
Q 30.953125 -1.421875 24.3125 -1.421875 
Q 15.921875 -1.421875 10.953125 3.296875 
Q 6 8.015625 6 15.921875 
Q 6 25.140625 12.171875 29.828125 
Q 18.359375 34.515625 30.609375 34.515625 
L 43.21875 34.515625 
L 43.21875 35.40625 
Q 43.21875 41.609375 39.140625 45 
Q 35.0625 48.390625 27.6875 48.390625 
Q 23 48.390625 18.546875 47.265625 
Q 14.109375 46.140625 10.015625 43.890625 
L 10.015625 52.203125 
Q 14.9375 54.109375 19.578125 55.046875 
Q 24.21875 56 28.609375 56 
Q 40.484375 56 46.34375 49.84375 
Q 52.203125 43.703125 52.203125 31.203125 
z
" id="DejaVuSans-97"/>
      <path d="M 18.109375 8.203125 
L 18.109375 -20.796875 
L 9.078125 -20.796875 
L 9.078125 54.6875 
L 18.109375 54.6875 
L 18.109375 46.390625 
Q 20.953125 51.265625 25.265625 53.625 
Q 29.59375 56 35.59375 56 
Q 45.5625 56 51.78125 48.09375 
Q 58.015625 40.1875 58.015625 27.296875 
Q 58.015625 14.40625 51.78125 6.484375 
Q 45.5625 -1.421875 35.59375 -1.421875 
Q 29.59375 -1.421875 25.265625 0.953125 
Q 20.953125 3.328125 18.109375 8.203125 
z
M 48.6875 27.296875 
Q 48.6875 37.203125 44.609375 42.84375 
Q 40.53125 48.484375 33.40625 48.484375 
Q 26.265625 48.484375 22.1875 42.84375 
Q 18.109375 37.203125 18.109375 27.296875 
Q 18.109375 17.390625 22.1875 11.75 
Q 26.265625 6.109375 33.40625 6.109375 
Q 40.53125 6.109375 44.609375 11.75 
Q 48.6875 17.390625 48.6875 27.296875 
z
" id="DejaVuSans-112"/>
      <path d="M 9.421875 75.984375 
L 18.40625 75.984375 
L 18.40625 0 
L 9.421875 0 
z
" id="DejaVuSans-108"/>
      <path d="M 48.78125 52.59375 
L 48.78125 44.1875 
Q 44.96875 46.296875 41.140625 47.34375 
Q 37.3125 48.390625 33.40625 48.390625 
Q 24.65625 48.390625 19.8125 42.84375 
Q 14.984375 37.3125 14.984375 27.296875 
Q 14.984375 17.28125 19.8125 11.734375 
Q 24.65625 6.203125 33.40625 6.203125 
Q 37.3125 6.203125 41.140625 7.25 
Q 44.96875 8.296875 48.78125 10.40625 
L 48.78125 2.09375 
Q 45.015625 0.34375 40.984375 -0.53125 
Q 36.96875 -1.421875 32.421875 -1.421875 
Q 20.0625 -1.421875 12.78125 6.34375 
Q 5.515625 14.109375 5.515625 27.296875 
Q 5.515625 40.671875 12.859375 48.328125 
Q 20.21875 56 33.015625 56 
Q 37.15625 56 41.109375 55.140625 
Q 45.0625 54.296875 48.78125 52.59375 
z
" id="DejaVuSans-99"/>
      <path d="M 9.421875 54.6875 
L 18.40625 54.6875 
L 18.40625 0 
L 9.421875 0 
z
M 9.421875 75.984375 
L 18.40625 75.984375 
L 18.40625 64.59375 
L 9.421875 64.59375 
z
" id="DejaVuSans-105"/>
      <path d="M 54.890625 33.015625 
L 54.890625 0 
L 45.90625 0 
L 45.90625 32.71875 
Q 45.90625 40.484375 42.875 44.328125 
Q 39.84375 48.1875 33.796875 48.1875 
Q 26.515625 48.1875 22.3125 43.546875 
Q 18.109375 38.921875 18.109375 30.90625 
L 18.109375 0 
L 9.078125 0 
L 9.078125 54.6875 
L 18.109375 54.6875 
L 18.109375 46.1875 
Q 21.34375 51.125 25.703125 53.5625 
Q 30.078125 56 35.796875 56 
Q 45.21875 56 50.046875 50.171875 
Q 54.890625 44.34375 54.890625 33.015625 
z
" id="DejaVuSans-110"/>
      <path id="DejaVuSans-32"/>
      <path d="M 56.203125 29.59375 
L 56.203125 25.203125 
L 14.890625 25.203125 
Q 15.484375 15.921875 20.484375 11.0625 
Q 25.484375 6.203125 34.421875 6.203125 
Q 39.59375 6.203125 44.453125 7.46875 
Q 49.3125 8.734375 54.109375 11.28125 
L 54.109375 2.78125 
Q 49.265625 0.734375 44.1875 -0.34375 
Q 39.109375 -1.421875 33.890625 -1.421875 
Q 20.796875 -1.421875 13.15625 6.1875 
Q 5.515625 13.8125 5.515625 26.8125 
Q 5.515625 40.234375 12.765625 48.109375 
Q 20.015625 56 32.328125 56 
Q 43.359375 56 49.78125 48.890625 
Q 56.203125 41.796875 56.203125 29.59375 
z
M 47.21875 32.234375 
Q 47.125 39.59375 43.09375 43.984375 
Q 39.0625 48.390625 32.421875 48.390625 
Q 24.90625 48.390625 20.390625 44.140625 
Q 15.875 39.890625 15.1875 32.171875 
z
" id="DejaVuSans-101"/>
      <path d="M 18.3125 70.21875 
L 18.3125 54.6875 
L 36.8125 54.6875 
L 36.8125 47.703125 
L 18.3125 47.703125 
L 18.3125 18.015625 
Q 18.3125 11.328125 20.140625 9.421875 
Q 21.96875 7.515625 27.59375 7.515625 
L 36.8125 7.515625 
L 36.8125 0 
L 27.59375 0 
Q 17.1875 0 13.234375 3.875 
Q 9.28125 7.765625 9.28125 18.015625 
L 9.28125 47.703125 
L 2.6875 47.703125 
L 2.6875 54.6875 
L 9.28125 54.6875 
L 9.28125 70.21875 
z
" id="DejaVuSans-116"/>
      <path d="M 41.109375 46.296875 
Q 39.59375 47.171875 37.8125 47.578125 
Q 36.03125 48 33.890625 48 
Q 26.265625 48 22.1875 43.046875 
Q 18.109375 38.09375 18.109375 28.8125 
L 18.109375 0 
L 9.078125 0 
L 9.078125 54.6875 
L 18.109375 54.6875 
L 18.109375 46.1875 
Q 20.953125 51.171875 25.484375 53.578125 
Q 30.03125 56 36.53125 56 
Q 37.453125 56 38.578125 55.875 
Q 39.703125 55.765625 41.0625 55.515625 
z
" id="DejaVuSans-114"/>
      <path d="M 32.171875 -5.078125 
Q 28.375 -14.84375 24.75 -17.8125 
Q 21.140625 -20.796875 15.09375 -20.796875 
L 7.90625 -20.796875 
L 7.90625 -13.28125 
L 13.1875 -13.28125 
Q 16.890625 -13.28125 18.9375 -11.515625 
Q 21 -9.765625 23.484375 -3.21875 
L 25.09375 0.875 
L 2.984375 54.6875 
L 12.5 54.6875 
L 29.59375 11.921875 
L 46.6875 54.6875 
L 56.203125 54.6875 
z
" id="DejaVuSans-121"/>
     </defs>
     <g transform="translate(177.10875 341.2515)scale(0.12 -0.12)">
      <use xlink:href="#DejaVuSans-76"/>
      <use x="55.712891" xlink:href="#DejaVuSans-97"/>
      <use x="116.992188" xlink:href="#DejaVuSans-112"/>
      <use x="180.46875" xlink:href="#DejaVuSans-108"/>
      <use x="208.251953" xlink:href="#DejaVuSans-97"/>
      <use x="269.53125" xlink:href="#DejaVuSans-99"/>
      <use x="324.511719" xlink:href="#DejaVuSans-105"/>
      <use x="352.294922" xlink:href="#DejaVuSans-97"/>
      <use x="413.574219" xlink:href="#DejaVuSans-110"/>
      <use x="476.953125" xlink:href="#DejaVuSans-32"/>
      <use x="508.740234" xlink:href="#DejaVuSans-99"/>
      <use x="563.720703" xlink:href="#DejaVuSans-101"/>
      <use x="625.244141" xlink:href="#DejaVuSans-110"/>
      <use x="688.623047" xlink:href="#DejaVuSans-116"/>
      <use x="727.832031" xlink:href="#DejaVuSans-114"/>
      <use x="768.945312" xlink:href="#DejaVuSans-97"/>
      <use x="830.224609" xlink:href="#DejaVuSans-108"/>
      <use x="858.007812" xlink:href="#DejaVuSans-105"/>
      <use x="885.791016" xlink:href="#DejaVuSans-116"/>
      <use x="925" xlink:href="#DejaVuSans-121"/>
     </g>
    </g>
   </g>
   <g id="matplotlib.axis_2">
    <g id="ytick_1">
     <g id="line2d_11">
      <path clip-path="url(#p494283d19c)" d="M 57.6 295.501835 
L 414.72 295.501835 
" style="fill:none;stroke:#b0b0b0;stroke-linecap:square;stroke-width:0.8;"/>
     </g>
     <g id="line2d_12">
      <defs>
       <path d="M 0 0 
L -3.5 0 
" id="m8fb4e02c09" style="stroke:#000000;stroke-width:0.8;"/>
      </defs>
      <g>
       <use style="stroke:#000000;stroke-width:0.8;" x="57.6" xlink:href="#m8fb4e02c09" y="295.501835"/>
      </g>
     </g>
     <g id="text_7">
      <!-- 0.0 -->
      <defs>
       <path d="M 10.203125 18.890625 
L 27.78125 18.890625 
L 27.78125 0 
L 10.203125 0 
z
" id="DejaVuSans-Bold-46"/>
      </defs>
      <g transform="translate(25.800313 300.820742)scale(0.14 -0.14)">
       <use xlink:href="#DejaVuSans-Bold-48"/>
       <use x="69.580078" xlink:href="#DejaVuSans-Bold-46"/>
       <use x="107.568359" xlink:href="#DejaVuSans-Bold-48"/>
      </g>
     </g>
    </g>
    <g id="ytick_2">
     <g id="line2d_13">
      <path clip-path="url(#p494283d19c)" d="M 57.6 246.268459 
L 414.72 246.268459 
" style="fill:none;stroke:#b0b0b0;stroke-linecap:square;stroke-width:0.8;"/>
     </g>
     <g id="line2d_14">
      <g>
       <use style="stroke:#000000;stroke-width:0.8;" x="57.6" xlink:href="#m8fb4e02c09" y="246.268459"/>
      </g>
     </g>
     <g id="text_8">
      <!-- 0.1 -->
      <g transform="translate(25.800313 251.587365)scale(0.14 -0.14)">
       <use xlink:href="#DejaVuSans-Bold-48"/>
       <use x="69.580078" xlink:href="#DejaVuSans-Bold-46"/>
       <use x="107.568359" xlink:href="#DejaVuSans-Bold-49"/>
      </g>
     </g>
    </g>
    <g id="ytick_3">
     <g id="line2d_15">
      <path clip-path="url(#p494283d19c)" d="M 57.6 197.035083 
L 414.72 197.035083 
" style="fill:none;stroke:#b0b0b0;stroke-linecap:square;stroke-width:0.8;"/>
     </g>
     <g id="line2d_16">
      <g>
       <use style="stroke:#000000;stroke-width:0.8;" x="57.6" xlink:href="#m8fb4e02c09" y="197.035083"/>
      </g>
     </g>
     <g id="text_9">
      <!-- 0.2 -->
      <g transform="translate(25.800313 202.353989)scale(0.14 -0.14)">
       <use xlink:href="#DejaVuSans-Bold-48"/>
       <use x="69.580078" xlink:href="#DejaVuSans-Bold-46"/>
       <use x="107.568359" xlink:href="#DejaVuSans-Bold-50"/>
      </g>
     </g>
    </g>
    <g id="ytick_4">
     <g id="line2d_17">
      <path clip-path="url(#p494283d19c)" d="M 57.6 147.801706 
L 414.72 147.801706 
" style="fill:none;stroke:#b0b0b0;stroke-linecap:square;stroke-width:0.8;"/>
     </g>
     <g id="line2d_18">
      <g>
       <use style="stroke:#000000;stroke-width:0.8;" x="57.6" xlink:href="#m8fb4e02c09" y="147.801706"/>
      </g>
     </g>
     <g id="text_10">
      <!-- 0.3 -->
      <defs>
       <path d="M 46.578125 39.3125 
Q 53.953125 37.40625 57.78125 32.6875 
Q 61.625 27.984375 61.625 20.703125 
Q 61.625 9.859375 53.3125 4.21875 
Q 45.015625 -1.421875 29.109375 -1.421875 
Q 23.484375 -1.421875 17.84375 -0.515625 
Q 12.203125 0.390625 6.6875 2.203125 
L 6.6875 16.703125 
Q 11.96875 14.0625 17.15625 12.71875 
Q 22.359375 11.375 27.390625 11.375 
Q 34.859375 11.375 38.84375 13.953125 
Q 42.828125 16.546875 42.828125 21.390625 
Q 42.828125 26.375 38.75 28.9375 
Q 34.671875 31.5 26.703125 31.5 
L 19.1875 31.5 
L 19.1875 43.609375 
L 27.09375 43.609375 
Q 34.1875 43.609375 37.640625 45.828125 
Q 41.109375 48.046875 41.109375 52.59375 
Q 41.109375 56.78125 37.734375 59.078125 
Q 34.375 61.375 28.21875 61.375 
Q 23.6875 61.375 19.046875 60.34375 
Q 14.40625 59.328125 9.8125 57.328125 
L 9.8125 71.09375 
Q 15.375 72.65625 20.84375 73.4375 
Q 26.3125 74.21875 31.59375 74.21875 
Q 45.796875 74.21875 52.84375 69.546875 
Q 59.90625 64.890625 59.90625 55.515625 
Q 59.90625 49.125 56.53125 45.046875 
Q 53.171875 40.96875 46.578125 39.3125 
z
" id="DejaVuSans-Bold-51"/>
      </defs>
      <g transform="translate(25.800313 153.120613)scale(0.14 -0.14)">
       <use xlink:href="#DejaVuSans-Bold-48"/>
       <use x="69.580078" xlink:href="#DejaVuSans-Bold-46"/>
       <use x="107.568359" xlink:href="#DejaVuSans-Bold-51"/>
      </g>
     </g>
    </g>
    <g id="ytick_5">
     <g id="line2d_19">
      <path clip-path="url(#p494283d19c)" d="M 57.6 98.56833 
L 414.72 98.56833 
" style="fill:none;stroke:#b0b0b0;stroke-linecap:square;stroke-width:0.8;"/>
     </g>
     <g id="line2d_20">
      <g>
       <use style="stroke:#000000;stroke-width:0.8;" x="57.6" xlink:href="#m8fb4e02c09" y="98.56833"/>
      </g>
     </g>
     <g id="text_11">
      <!-- 0.4 -->
      <defs>
       <path d="M 36.8125 57.421875 
L 16.21875 26.90625 
L 36.8125 26.90625 
z
M 33.6875 72.90625 
L 54.59375 72.90625 
L 54.59375 26.90625 
L 64.984375 26.90625 
L 64.984375 13.28125 
L 54.59375 13.28125 
L 54.59375 0 
L 36.8125 0 
L 36.8125 13.28125 
L 4.5 13.28125 
L 4.5 29.390625 
z
" id="DejaVuSans-Bold-52"/>
      </defs>
      <g transform="translate(25.800313 103.887236)scale(0.14 -0.14)">
       <use xlink:href="#DejaVuSans-Bold-48"/>
       <use x="69.580078" xlink:href="#DejaVuSans-Bold-46"/>
       <use x="107.568359" xlink:href="#DejaVuSans-Bold-52"/>
      </g>
     </g>
    </g>
    <g id="ytick_6">
     <g id="line2d_21">
      <path clip-path="url(#p494283d19c)" d="M 57.6 49.334954 
L 414.72 49.334954 
" style="fill:none;stroke:#b0b0b0;stroke-linecap:square;stroke-width:0.8;"/>
     </g>
     <g id="line2d_22">
      <g>
       <use style="stroke:#000000;stroke-width:0.8;" x="57.6" xlink:href="#m8fb4e02c09" y="49.334954"/>
      </g>
     </g>
     <g id="text_12">
      <!-- 0.5 -->
      <defs>
       <path d="M 10.59375 72.90625 
L 57.328125 72.90625 
L 57.328125 59.078125 
L 25.59375 59.078125 
L 25.59375 47.796875 
Q 27.734375 48.390625 29.90625 48.703125 
Q 32.078125 49.03125 34.421875 49.03125 
Q 47.75 49.03125 55.171875 42.359375 
Q 62.59375 35.6875 62.59375 23.78125 
Q 62.59375 11.96875 54.515625 5.265625 
Q 46.4375 -1.421875 32.078125 -1.421875 
Q 25.875 -1.421875 19.796875 -0.21875 
Q 13.71875 0.984375 7.71875 3.421875 
L 7.71875 18.21875 
Q 13.671875 14.796875 19.015625 13.078125 
Q 24.359375 11.375 29.109375 11.375 
Q 35.9375 11.375 39.859375 14.71875 
Q 43.796875 18.0625 43.796875 23.78125 
Q 43.796875 29.546875 39.859375 32.859375 
Q 35.9375 36.1875 29.109375 36.1875 
Q 25.046875 36.1875 20.453125 35.125 
Q 15.875 34.078125 10.59375 31.890625 
z
" id="DejaVuSans-Bold-53"/>
      </defs>
      <g transform="translate(25.800313 54.65386)scale(0.14 -0.14)">
       <use xlink:href="#DejaVuSans-Bold-48"/>
       <use x="69.580078" xlink:href="#DejaVuSans-Bold-46"/>
       <use x="107.568359" xlink:href="#DejaVuSans-Bold-53"/>
      </g>
     </g>
    </g>
    <g id="text_13">
     <!-- Frequency -->
     <defs>
      <path d="M 9.8125 72.90625 
L 51.703125 72.90625 
L 51.703125 64.59375 
L 19.671875 64.59375 
L 19.671875 43.109375 
L 48.578125 43.109375 
L 48.578125 34.8125 
L 19.671875 34.8125 
L 19.671875 0 
L 9.8125 0 
z
" id="DejaVuSans-70"/>
      <path d="M 14.796875 27.296875 
Q 14.796875 17.390625 18.875 11.75 
Q 22.953125 6.109375 30.078125 6.109375 
Q 37.203125 6.109375 41.296875 11.75 
Q 45.40625 17.390625 45.40625 27.296875 
Q 45.40625 37.203125 41.296875 42.84375 
Q 37.203125 48.484375 30.078125 48.484375 
Q 22.953125 48.484375 18.875 42.84375 
Q 14.796875 37.203125 14.796875 27.296875 
z
M 45.40625 8.203125 
Q 42.578125 3.328125 38.25 0.953125 
Q 33.9375 -1.421875 27.875 -1.421875 
Q 17.96875 -1.421875 11.734375 6.484375 
Q 5.515625 14.40625 5.515625 27.296875 
Q 5.515625 40.1875 11.734375 48.09375 
Q 17.96875 56 27.875 56 
Q 33.9375 56 38.25 53.625 
Q 42.578125 51.265625 45.40625 46.390625 
L 45.40625 54.6875 
L 54.390625 54.6875 
L 54.390625 -20.796875 
L 45.40625 -20.796875 
z
" id="DejaVuSans-113"/>
      <path d="M 8.5 21.578125 
L 8.5 54.6875 
L 17.484375 54.6875 
L 17.484375 21.921875 
Q 17.484375 14.15625 20.5 10.265625 
Q 23.53125 6.390625 29.59375 6.390625 
Q 36.859375 6.390625 41.078125 11.03125 
Q 45.3125 15.671875 45.3125 23.6875 
L 45.3125 54.6875 
L 54.296875 54.6875 
L 54.296875 0 
L 45.3125 0 
L 45.3125 8.40625 
Q 42.046875 3.421875 37.71875 1 
Q 33.40625 -1.421875 27.6875 -1.421875 
Q 18.265625 -1.421875 13.375 4.4375 
Q 8.5 10.296875 8.5 21.578125 
z
M 31.109375 56 
z
" id="DejaVuSans-117"/>
     </defs>
     <g transform="translate(19.304688 206.085187)rotate(-90)scale(0.12 -0.12)">
      <use xlink:href="#DejaVuSans-70"/>
      <use x="57.410156" xlink:href="#DejaVuSans-114"/>
      <use x="98.492188" xlink:href="#DejaVuSans-101"/>
      <use x="160.015625" xlink:href="#DejaVuSans-113"/>
      <use x="223.492188" xlink:href="#DejaVuSans-117"/>
      <use x="286.871094" xlink:href="#DejaVuSans-101"/>
      <use x="348.394531" xlink:href="#DejaVuSans-110"/>
      <use x="411.773438" xlink:href="#DejaVuSans-99"/>
      <use x="466.753906" xlink:href="#DejaVuSans-121"/>
     </g>
    </g>
   </g>
   <g id="line2d_23">
    <path clip-path="url(#p494283d19c)" d="M 365.13458 295.433874 
L 321.414591 295.361832 
L 313.390546 294.928073 
L 307.445266 295.107558 
L 305.015526 294.963175 
L 301.1557 294.444196 
L 296.59126 293.805338 
L 290.643926 293.333517 
L 289.224017 292.924751 
L 286.455113 291.83647 
L 282.369472 290.0277 
L 280.879226 289.134639 
L 279.30021 287.912835 
L 277.335142 286.089898 
L 275.556184 284.157201 
L 273.449487 281.470639 
L 270.575799 277.549678 
L 269.546255 275.672717 
L 268.378265 273.049106 
L 265.466971 266.288512 
L 263.743667 263.174635 
L 262.534011 260.749301 
L 261.48465 258.12761 
L 260.065955 253.903265 
L 256.660198 243.568418 
L 254.372634 237.492465 
L 253.088527 234.635761 
L 252.164903 233.087204 
L 251.392158 232.191213 
L 250.630584 231.642622 
L 249.756653 231.300054 
L 247.66214 230.579907 
L 245.523307 229.616704 
L 244.87864 229.642714 
L 244.081058 229.92318 
L 243.393354 230.087006 
L 243.053149 229.948054 
L 242.739178 229.554765 
L 242.403116 228.707709 
L 242.040396 227.091358 
L 241.670158 224.417454 
L 241.22438 219.381884 
L 240.750233 211.262843 
L 240.207282 197.766706 
L 239.571988 175.820521 
L 238.719029 137.5598 
L 237.259397 71.875578 
L 236.761962 58.629242 
L 236.415522 54.175047 
L 236.232127 53.568 
L 236.210963 53.577885 
L 236.136274 53.745497 
L 235.970067 54.859473 
L 235.729258 58.26076 
L 235.382776 66.671877 
L 234.877584 85.337817 
L 234.108356 123.305047 
L 232.527909 201.731097 
L 231.792513 227.04797 
L 231.154834 242.170458 
L 230.528702 252.023534 
L 229.946 258.021558 
L 229.317888 262.299169 
L 228.623483 265.518751 
L 227.763853 268.435144 
L 226.525264 271.80442 
L 224.754439 275.962865 
L 223.183747 279.15566 
L 221.788135 281.496125 
L 216.713192 289.037393 
L 215.660664 290.304618 
L 214.322781 291.497017 
L 212.942647 292.381822 
L 211.188874 293.240977 
L 209.415646 293.894875 
L 207.314543 294.447495 
L 205.607443 294.752968 
L 201.884517 295.150878 
L 196.4979 295.423767 
L 196.4979 295.423767 
" style="fill:none;stroke:#1f77b4;stroke-linecap:square;stroke-width:1.5;"/>
   </g>
   <g id="line2d_24">
    <path clip-path="url(#p494283d19c)" d="M 450.222627 295.452986 
L 347.955748 295.369875 
L 340.677024 295.126462 
L 331.482119 294.696649 
L 325.119438 294.440382 
L 312.491175 293.623535 
L 307.379731 293.308053 
L 304.767755 292.866557 
L 302.055073 292.153602 
L 296.887037 290.742635 
L 294.011765 289.921674 
L 292.461545 289.304248 
L 289.870509 287.988807 
L 286.14161 285.823958 
L 284.719724 284.766312 
L 283.1095 283.261957 
L 280.333025 280.249333 
L 275.685828 275.080556 
L 273.414973 271.970674 
L 269.939842 267.257364 
L 267.873212 264.806978 
L 266.380971 263.36268 
L 264.796841 262.152957 
L 262.34552 260.317306 
L 261.15639 259.098196 
L 259.910674 257.487157 
L 258.222481 254.894019 
L 255.87426 251.329677 
L 254.703276 249.972425 
L 253.659419 249.098711 
L 252.560545 248.469316 
L 250.863232 247.791856 
L 246.299632 246.006167 
L 245.681729 245.449095 
L 245.135201 244.635496 
L 244.608307 243.401281 
L 244.089366 241.566828 
L 243.552315 238.795102 
L 242.981106 234.592081 
L 242.37636 228.411935 
L 241.70632 219.159864 
L 240.939806 205.300152 
L 239.944496 182.766802 
L 237.725633 130.96983 
L 237.123437 122.256681 
L 236.672182 118.528555 
L 236.370334 117.530903 
L 236.225276 117.494649 
L 236.058255 117.812745 
L 235.816062 118.956312 
L 235.481222 121.841127 
L 235.034661 127.909632 
L 234.438825 139.443752 
L 233.592383 160.657505 
L 231.088924 226.400773 
L 230.179309 243.158253 
L 229.406227 253.485037 
L 228.688322 260.30017 
L 227.979579 264.982461 
L 227.278538 268.168916 
L 226.568365 270.414651 
L 225.750907 272.254807 
L 224.75669 273.933019 
L 222.992455 276.395521 
L 216.143327 285.422636 
L 214.386885 287.173025 
L 212.435846 288.800689 
L 210.358781 290.25033 
L 208.28971 291.414319 
L 206.246495 292.303638 
L 203.707255 293.146654 
L 200.610205 293.938996 
L 197.706891 294.455742 
L 193.309493 295.061559 
L 184.079242 295.451181 
L 184.079242 295.451181 
" style="fill:none;stroke:#ff7f0e;stroke-linecap:square;stroke-width:1.5;"/>
   </g>
   <g id="line2d_25">
    <path clip-path="url(#p494283d19c)" d="M 461.8 295.459207 
L 411.905222 295.46398 
L 385.484058 295.165963 
L 366.262826 294.659412 
L 355.947974 294.892391 
L 351.115578 294.468006 
L 347.282919 294.174724 
L 343.777684 294.154937 
L 337.88858 294.175204 
L 334.242472 293.877572 
L 330.395073 293.317747 
L 323.876237 292.337898 
L 313.514153 291.162272 
L 303.689379 289.235247 
L 301.264283 288.519999 
L 299.106139 287.64536 
L 296.936827 286.526045 
L 293.708374 284.568459 
L 278.60824 274.917106 
L 276.146444 273.003109 
L 273.516601 270.649449 
L 270.231566 267.741978 
L 268.429782 266.458639 
L 266.582267 265.421099 
L 263.727644 264.119372 
L 260.66875 262.638204 
L 254.215861 259.314643 
L 252.31189 258.742693 
L 249.86265 258.010901 
L 248.984124 257.485182 
L 248.270528 256.800817 
L 247.615842 255.867231 
L 246.946936 254.498947 
L 246.269912 252.558591 
L 245.581022 249.86678 
L 244.852613 246.075588 
L 244.050155 240.609139 
L 243.216552 233.388506 
L 242.190697 222.409567 
L 240.780873 204.537772 
L 238.76962 179.227836 
L 237.90554 171.112335 
L 237.273021 167.043522 
L 236.80616 165.240861 
L 236.480806 164.632815 
L 236.213329 164.543674 
L 236.012098 164.72314 
L 235.728387 165.335094 
L 235.366687 166.715606 
L 234.865759 169.695389 
L 234.245005 174.96362 
L 233.451061 183.818521 
L 232.296802 199.498358 
L 229.549926 237.566928 
L 228.465806 249.219171 
L 227.491049 257.426083 
L 226.588214 263.23539 
L 225.71814 267.452444 
L 224.804102 270.734766 
L 223.93505 273.05121 
L 222.970438 274.99365 
L 221.908074 276.650211 
L 220.473787 278.453978 
L 218.287232 280.80741 
L 214.876928 284.144695 
L 211.89166 286.785966 
L 209.608152 288.518887 
L 207.618463 289.75062 
L 205.811945 290.633621 
L 203.478184 291.495391 
L 200.705737 292.258731 
L 195.809079 293.369939 
L 191.815248 294.100527 
L 187.982487 294.539258 
L 181.612911 295.009607 
L 177.631556 295.19154 
L 170.076127 295.354603 
L 170.076127 295.354603 
" style="fill:none;stroke:#2ca02c;stroke-linecap:square;stroke-width:1.5;"/>
   </g>
   <g id="line2d_26">
    <path clip-path="url(#p494283d19c)" d="M 461.8 295.377886 
L 443.673269 295.310196 
L 414.324806 295.241982 
L 399.64274 295.074681 
L 390.525367 294.938098 
L 369.936158 294.259123 
L 359.833806 294.019902 
L 347.185185 293.904591 
L 343.109405 293.519424 
L 331.589033 292.179141 
L 325.784283 291.512878 
L 319.700987 290.597821 
L 315.631346 289.766646 
L 311.443927 288.66498 
L 305.748831 286.90263 
L 299.931438 284.922085 
L 296.982227 283.676021 
L 293.537465 281.953016 
L 285.050652 277.617971 
L 281.149768 275.513497 
L 277.126663 273.064978 
L 271.115242 269.401544 
L 268.786708 268.268226 
L 266.740252 267.515835 
L 264.614503 266.980659 
L 262.076001 266.588081 
L 255.296082 265.658009 
L 253.667029 265.159717 
L 252.462695 264.571069 
L 251.450725 263.82977 
L 250.572109 262.912648 
L 249.729898 261.703307 
L 248.926585 260.156303 
L 248.094462 258.045103 
L 247.285343 255.393736 
L 246.403443 251.723312 
L 245.438956 246.676551 
L 244.393727 239.946055 
L 243.130101 230.21119 
L 241.114746 212.580267 
L 239.460543 198.947375 
L 238.479106 192.600507 
L 237.778104 189.296673 
L 237.158915 187.395923 
L 236.71324 186.671281 
L 236.422312 186.500621 
L 236.116334 186.582864 
L 235.809837 186.93507 
L 235.432706 187.736235 
L 234.949613 189.341432 
L 234.343673 192.226642 
L 233.657602 196.551983 
L 232.694097 204.18481 
L 231.326119 217.05287 
L 228.307405 245.868292 
L 227.023308 255.734274 
L 225.907286 262.635716 
L 224.906974 267.532758 
L 223.918283 271.310324 
L 222.936393 274.190979 
L 221.961275 276.374857 
L 220.978078 278.06536 
L 219.906615 279.49454 
L 218.605274 280.856963 
L 216.877927 282.321122 
L 213.983397 284.441422 
L 209.916166 287.160146 
L 207.306898 288.658566 
L 204.937301 289.778485 
L 202.147289 290.825474 
L 198.989377 291.766214 
L 195.177129 292.671195 
L 191.366876 293.340297 
L 186.645771 293.90642 
L 180.120966 294.438286 
L 168.902164 295.162854 
L 160.166047 295.422493 
L 160.166047 295.422493 
" style="fill:none;stroke:#d62728;stroke-linecap:square;stroke-width:1.5;"/>
   </g>
   <g id="line2d_27">
    <path clip-path="url(#p494283d19c)" d="M 461.8 295.110225 
L 449.683623 295.06271 
L 439.178741 295.120321 
L 416.6596 294.865728 
L 401.999656 294.679608 
L 367.260163 293.521068 
L 358.697597 293.336692 
L 353.480156 293.098862 
L 348.205534 292.614438 
L 338.942699 291.728563 
L 332.157255 291.087516 
L 327.059439 290.344234 
L 316.917031 288.604821 
L 313.191955 287.725157 
L 309.548187 286.627259 
L 304.751019 284.925962 
L 295.865957 281.511657 
L 281.130644 275.740547 
L 273.470921 273.000292 
L 268.524368 271.470036 
L 264.190189 270.349958 
L 260.309675 269.581003 
L 256.547159 268.812058 
L 255.084122 268.271229 
L 253.926313 267.604142 
L 252.89171 266.738157 
L 251.943508 265.644442 
L 251.011079 264.217769 
L 250.063345 262.340723 
L 249.121255 259.984937 
L 248.072227 256.727787 
L 246.952251 252.478319 
L 245.684353 246.737122 
L 244.124869 238.563611 
L 239.959192 216.104721 
L 238.902817 211.930665 
L 238.125072 209.638141 
L 237.445691 208.263439 
L 236.890443 207.609822 
L 236.471461 207.407876 
L 236.104379 207.440487 
L 235.686783 207.716561 
L 235.235838 208.298445 
L 234.685558 209.399265 
L 234.014848 211.296504 
L 233.223981 214.255305 
L 232.254997 218.798262 
L 230.976388 225.962504 
L 228.669278 240.464359 
L 226.488034 253.600834 
L 225.015616 261.180728 
L 223.719781 266.743298 
L 222.505172 270.996465 
L 221.334903 274.277584 
L 220.236458 276.719047 
L 219.195267 278.554612 
L 218.033921 280.160103 
L 216.817603 281.459255 
L 215.451601 282.586487 
L 213.841826 283.624869 
L 211.587278 284.801933 
L 206.468571 287.143701 
L 200.975429 289.479051 
L 197.505651 290.721632 
L 193.949328 291.75467 
L 190.47008 292.55249 
L 186.292326 293.28212 
L 181.226698 293.92021 
L 174.459692 294.535331 
L 167.833123 294.955553 
L 160.653971 295.255469 
L 146.093574 295.454678 
L 146.093574 295.454678 
" style="fill:none;stroke:#9467bd;stroke-linecap:square;stroke-width:1.5;"/>
   </g>
   <g id="line2d_28">
    <path clip-path="url(#p494283d19c)" d="M 461.8 294.986374 
L 431.106665 294.726774 
L 419.890515 294.663351 
L 393.54842 294.001633 
L 381.041975 293.551665 
L 368.907138 292.843282 
L 356.236111 292.164451 
L 346.340682 291.639901 
L 340.494678 291.086408 
L 334.037603 290.243724 
L 327.679114 289.19348 
L 322.205297 288.069372 
L 316.708335 286.701506 
L 291.944483 280.003438 
L 285.083277 277.751206 
L 275.972541 274.754795 
L 272.426864 273.853107 
L 269.203458 273.260746 
L 265.541268 272.822904 
L 260.581835 272.229262 
L 258.773646 271.765767 
L 257.346668 271.171343 
L 256.119603 270.422401 
L 254.963689 269.450701 
L 253.874683 268.241887 
L 252.793724 266.70759 
L 251.704471 264.776206 
L 250.520327 262.192528 
L 249.265868 258.875056 
L 247.904028 254.605199 
L 246.304997 248.810634 
L 243.826056 238.833557 
L 241.550138 229.959359 
L 240.198816 225.546925 
L 239.128558 222.803665 
L 238.31853 221.273203 
L 237.595229 220.352595 
L 237.010865 219.936119 
L 236.479507 219.820233 
L 235.984209 219.941079 
L 235.48872 220.283321 
L 234.893573 220.983786 
L 234.24398 222.098947 
L 233.440889 223.956833 
L 232.542358 226.607782 
L 231.405009 230.699843 
L 229.912314 236.993372 
L 226.776624 251.519974 
L 224.68671 260.563843 
L 223.068242 266.603868 
L 221.65994 271.034782 
L 220.352188 274.45343 
L 219.129626 277.082559 
L 217.902637 279.232512 
L 216.584794 281.079997 
L 215.287685 282.520853 
L 213.857673 283.776619 
L 212.269737 284.876149 
L 210.296378 285.959688 
L 207.723845 287.104433 
L 204.043204 288.482316 
L 199.93005 289.794619 
L 195.845361 290.86281 
L 191.716478 291.716652 
L 186.325241 292.582942 
L 179.762878 293.411719 
L 172.33923 294.125545 
L 164.396211 294.665444 
L 155.796897 295.066197 
L 145.124676 295.34011 
L 140.601749 295.406283 
L 140.601749 295.406283 
" style="fill:none;stroke:#8c564b;stroke-linecap:square;stroke-width:1.5;"/>
   </g>
   <g id="line2d_29">
    <path clip-path="url(#p494283d19c)" d="M 461.8 294.867067 
L 436.517204 294.616878 
L 409.174267 294.157894 
L 388.39032 293.550146 
L 377.354802 293.235271 
L 368.560279 292.727965 
L 346.725934 291.173892 
L 340.388966 290.462584 
L 334.579317 289.58111 
L 327.248419 288.224892 
L 318.97092 286.477825 
L 311.453282 284.655477 
L 301.569541 282.024088 
L 292.990805 279.493437 
L 286.992806 277.824174 
L 282.731831 276.872183 
L 278.50745 276.159487 
L 273.749953 275.589895 
L 264.333279 274.539983 
L 262.240824 274.018745 
L 260.535747 273.367803 
L 259.059043 272.568673 
L 257.681782 271.566779 
L 256.391073 270.352575 
L 255.081294 268.801348 
L 253.779518 266.901015 
L 252.4336 264.529784 
L 250.994645 261.524472 
L 249.39496 257.638289 
L 247.485761 252.377956 
L 241.624574 235.756574 
L 240.37438 233.102399 
L 239.32598 231.37115 
L 238.439631 230.316284 
L 237.680411 229.73803 
L 236.985212 229.485697 
L 236.380925 229.487518 
L 235.753527 229.709318 
L 235.080766 230.195116 
L 234.35736 230.998309 
L 233.533291 232.253963 
L 232.540779 234.214906 
L 231.383088 237.050848 
L 229.971953 241.155243 
L 228.045975 247.519663 
L 222.971896 264.614556 
L 221.172127 269.72136 
L 219.628295 273.479184 
L 218.165792 276.493053 
L 216.789213 278.867219 
L 215.385675 280.869561 
L 213.910485 282.579524 
L 212.468869 283.925346 
L 210.829449 285.145363 
L 209.126282 286.147199 
L 207.101357 287.088478 
L 204.507273 288.038035 
L 200.925051 289.086413 
L 195.577634 290.388937 
L 189.1261 291.731539 
L 183.354264 292.706322 
L 177.764992 293.420358 
L 171.895918 293.970207 
L 162.911302 294.567991 
L 152.836094 295.005173 
L 142.067546 295.260524 
L 131.407727 295.394716 
L 131.407727 295.394716 
" style="fill:none;stroke:#e377c2;stroke-linecap:square;stroke-width:1.5;"/>
   </g>
   <g id="line2d_30">
    <path clip-path="url(#p494283d19c)" d="M 461.8 294.673979 
L 443.53219 294.51661 
L 420.175226 294.37835 
L 400.111162 293.904537 
L 388.389211 293.471871 
L 378.753887 292.875567 
L 361.725886 291.77794 
L 351.080139 291.080586 
L 344.172945 290.390098 
L 336.061287 289.339275 
L 327.593504 288.022308 
L 320.823825 286.755331 
L 314.378585 285.321029 
L 305.553002 283.095985 
L 295.875366 280.720468 
L 288.828194 279.229882 
L 282.297413 278.069384 
L 276.186486 277.210188 
L 268.366319 276.123196 
L 265.842213 275.516776 
L 263.827186 274.806093 
L 262.074572 273.95477 
L 260.449822 272.918619 
L 258.908462 271.674283 
L 257.363813 270.138308 
L 255.792837 268.255251 
L 254.145338 265.922798 
L 252.312579 262.914803 
L 250.231851 259.05108 
L 246.833751 252.178466 
L 244.023834 246.703507 
L 242.350549 243.895016 
L 240.97215 241.988486 
L 239.824367 240.749481 
L 238.767432 239.927669 
L 237.839043 239.479266 
L 236.998299 239.30474 
L 236.150493 239.357293 
L 235.280633 239.65149 
L 234.411751 240.185961 
L 233.481269 241.017514 
L 232.401834 242.300885 
L 231.184183 244.124982 
L 229.808309 246.602912 
L 228.092026 250.182979 
L 225.725819 255.677289 
L 220.603445 267.677618 
L 218.485281 272.006804 
L 216.604296 275.362812 
L 214.823368 278.090472 
L 213.137593 280.279442 
L 211.55698 282.010902 
L 209.701482 283.693422 
L 207.885806 285.029792 
L 205.95373 286.179663 
L 203.737563 287.232015 
L 201.187681 288.186919 
L 198.304509 289.042393 
L 194.325841 289.979099 
L 189.255123 290.938378 
L 181.75543 292.110809 
L 173.675441 293.16406 
L 167.219409 293.824076 
L 159.597957 294.377205 
L 150.708506 294.79191 
L 138.229586 295.15116 
L 125.388519 295.37481 
L 125.388519 295.37481 
" style="fill:none;stroke:#7f7f7f;stroke-linecap:square;stroke-width:1.5;"/>
   </g>
   <g id="line2d_31">
    <path clip-path="url(#p494283d19c)" d="M 461.8 295.377886 
L 443.673269 295.310196 
L 414.324806 295.241982 
L 399.64274 295.074681 
L 390.525367 294.938098 
L 369.936158 294.259123 
L 359.833806 294.019902 
L 347.185185 293.904591 
L 343.109405 293.519424 
L 331.589033 292.179141 
L 325.784283 291.512878 
L 319.700987 290.597821 
L 315.631346 289.766646 
L 311.443927 288.66498 
L 305.748831 286.90263 
L 299.931438 284.922085 
L 296.982227 283.676021 
L 293.537465 281.953016 
L 285.050652 277.617971 
L 281.149768 275.513497 
L 277.126663 273.064978 
L 271.115242 269.401544 
L 268.786708 268.268226 
L 266.740252 267.515835 
L 264.614503 266.980659 
L 262.076001 266.588081 
L 255.296082 265.658009 
L 253.667029 265.159717 
L 252.462695 264.571069 
L 251.450725 263.82977 
L 250.572109 262.912648 
L 249.729898 261.703307 
L 248.926585 260.156303 
L 248.094462 258.045103 
L 247.285343 255.393736 
L 246.403443 251.723312 
L 245.438956 246.676551 
L 244.393727 239.946055 
L 243.130101 230.21119 
L 241.114746 212.580267 
L 239.460543 198.947375 
L 238.479106 192.600507 
L 237.778104 189.296673 
L 237.158915 187.395923 
L 236.71324 186.671281 
L 236.422312 186.500621 
L 236.116334 186.582864 
L 235.809837 186.93507 
L 235.432706 187.736235 
L 234.949613 189.341432 
L 234.343673 192.226642 
L 233.657602 196.551983 
L 232.694097 204.18481 
L 231.326119 217.05287 
L 228.307405 245.868292 
L 227.023308 255.734274 
L 225.907286 262.635716 
L 224.906974 267.532758 
L 223.918283 271.310324 
L 222.936393 274.190979 
L 221.961275 276.374857 
L 220.978078 278.06536 
L 219.906615 279.49454 
L 218.605274 280.856963 
L 216.877927 282.321122 
L 213.983397 284.441422 
L 209.916166 287.160146 
L 207.306898 288.658566 
L 204.937301 289.778485 
L 202.147289 290.825474 
L 198.989377 291.766214 
L 195.177129 292.671195 
L 191.366876 293.340297 
L 186.645771 293.90642 
L 180.120966 294.438286 
L 168.902164 295.162854 
L 160.166047 295.422493 
L 160.166047 295.422493 
" style="fill:none;stroke:#bcbd22;stroke-linecap:square;stroke-width:1.5;"/>
   </g>
   <g id="line2d_32">
    <path clip-path="url(#p494283d19c)" d="M 461.8 295.110225 
L 449.683623 295.06271 
L 439.178741 295.120321 
L 416.6596 294.865728 
L 401.999656 294.679608 
L 367.260163 293.521068 
L 358.697597 293.336692 
L 353.480156 293.098862 
L 348.205534 292.614438 
L 338.942699 291.728563 
L 332.157255 291.087516 
L 327.059439 290.344234 
L 316.917031 288.604821 
L 313.191955 287.725157 
L 309.548187 286.627259 
L 304.751019 284.925962 
L 295.865957 281.511657 
L 281.130644 275.740547 
L 273.470921 273.000292 
L 268.524368 271.470036 
L 264.190189 270.349958 
L 260.309675 269.581003 
L 256.547159 268.812058 
L 255.084122 268.271229 
L 253.926313 267.604142 
L 252.89171 266.738157 
L 251.943508 265.644442 
L 251.011079 264.217769 
L 250.063345 262.340723 
L 249.121255 259.984937 
L 248.072227 256.727787 
L 246.952251 252.478319 
L 245.684353 246.737122 
L 244.124869 238.563611 
L 239.959192 216.104721 
L 238.902817 211.930665 
L 238.125072 209.638141 
L 237.445691 208.263439 
L 236.890443 207.609822 
L 236.471461 207.407876 
L 236.104379 207.440487 
L 235.686783 207.716561 
L 235.235838 208.298445 
L 234.685558 209.399265 
L 234.014848 211.296504 
L 233.223981 214.255305 
L 232.254997 218.798262 
L 230.976388 225.962504 
L 228.669278 240.464359 
L 226.488034 253.600834 
L 225.015616 261.180728 
L 223.719781 266.743298 
L 222.505172 270.996465 
L 221.334903 274.277584 
L 220.236458 276.719047 
L 219.195267 278.554612 
L 218.033921 280.160103 
L 216.817603 281.459255 
L 215.451601 282.586487 
L 213.841826 283.624869 
L 211.587278 284.801933 
L 206.468571 287.143701 
L 200.975429 289.479051 
L 197.505651 290.721632 
L 193.949328 291.75467 
L 190.47008 292.55249 
L 186.292326 293.28212 
L 181.226698 293.92021 
L 174.459692 294.535331 
L 167.833123 294.955553 
L 160.653971 295.255469 
L 146.093574 295.454678 
L 146.093574 295.454678 
" style="fill:none;stroke:#17becf;stroke-linecap:square;stroke-width:1.5;"/>
   </g>
   <g id="line2d_33">
    <path clip-path="url(#p494283d19c)" d="M 461.8 294.986374 
L 431.106665 294.726774 
L 419.890515 294.663351 
L 393.54842 294.001633 
L 381.041975 293.551665 
L 368.907138 292.843282 
L 356.236111 292.164451 
L 346.340682 291.639901 
L 340.494678 291.086408 
L 334.037603 290.243724 
L 327.679114 289.19348 
L 322.205297 288.069372 
L 316.708335 286.701506 
L 291.944483 280.003438 
L 285.083277 277.751206 
L 275.972541 274.754795 
L 272.426864 273.853107 
L 269.203458 273.260746 
L 265.541268 272.822904 
L 260.581835 272.229262 
L 258.773646 271.765767 
L 257.346668 271.171343 
L 256.119603 270.422401 
L 254.963689 269.450701 
L 253.874683 268.241887 
L 252.793724 266.70759 
L 251.704471 264.776206 
L 250.520327 262.192528 
L 249.265868 258.875056 
L 247.904028 254.605199 
L 246.304997 248.810634 
L 243.826056 238.833557 
L 241.550138 229.959359 
L 240.198816 225.546925 
L 239.128558 222.803665 
L 238.31853 221.273203 
L 237.595229 220.352595 
L 237.010865 219.936119 
L 236.479507 219.820233 
L 235.984209 219.941079 
L 235.48872 220.283321 
L 234.893573 220.983786 
L 234.24398 222.098947 
L 233.440889 223.956833 
L 232.542358 226.607782 
L 231.405009 230.699843 
L 229.912314 236.993372 
L 226.776624 251.519974 
L 224.68671 260.563843 
L 223.068242 266.603868 
L 221.65994 271.034782 
L 220.352188 274.45343 
L 219.129626 277.082559 
L 217.902637 279.232512 
L 216.584794 281.079997 
L 215.287685 282.520853 
L 213.857673 283.776619 
L 212.269737 284.876149 
L 210.296378 285.959688 
L 207.723845 287.104433 
L 204.043204 288.482316 
L 199.93005 289.794619 
L 195.845361 290.86281 
L 191.716478 291.716652 
L 186.325241 292.582942 
L 179.762878 293.411719 
L 172.33923 294.125545 
L 164.396211 294.665444 
L 155.796897 295.066197 
L 145.124676 295.34011 
L 140.601749 295.406283 
L 140.601749 295.406283 
" style="fill:none;stroke:#1f77b4;stroke-linecap:square;stroke-width:1.5;"/>
   </g>
   <g id="line2d_34">
    <path clip-path="url(#p494283d19c)" d="M 461.8 294.867067 
L 436.517204 294.616878 
L 409.174267 294.157894 
L 388.39032 293.550146 
L 377.354802 293.235271 
L 368.560279 292.727965 
L 346.725934 291.173892 
L 340.388966 290.462584 
L 334.579317 289.58111 
L 327.248419 288.224892 
L 318.97092 286.477825 
L 311.453282 284.655477 
L 301.569541 282.024088 
L 292.990805 279.493437 
L 286.992806 277.824174 
L 282.731831 276.872183 
L 278.50745 276.159487 
L 273.749953 275.589895 
L 264.333279 274.539983 
L 262.240824 274.018745 
L 260.535747 273.367803 
L 259.059043 272.568673 
L 257.681782 271.566779 
L 256.391073 270.352575 
L 255.081294 268.801348 
L 253.779518 266.901015 
L 252.4336 264.529784 
L 250.994645 261.524472 
L 249.39496 257.638289 
L 247.485761 252.377956 
L 241.624574 235.756574 
L 240.37438 233.102399 
L 239.32598 231.37115 
L 238.439631 230.316284 
L 237.680411 229.73803 
L 236.985212 229.485697 
L 236.380925 229.487518 
L 235.753527 229.709318 
L 235.080766 230.195116 
L 234.35736 230.998309 
L 233.533291 232.253963 
L 232.540779 234.214906 
L 231.383088 237.050848 
L 229.971953 241.155243 
L 228.045975 247.519663 
L 222.971896 264.614556 
L 221.172127 269.72136 
L 219.628295 273.479184 
L 218.165792 276.493053 
L 216.789213 278.867219 
L 215.385675 280.869561 
L 213.910485 282.579524 
L 212.468869 283.925346 
L 210.829449 285.145363 
L 209.126282 286.147199 
L 207.101357 287.088478 
L 204.507273 288.038035 
L 200.925051 289.086413 
L 195.577634 290.388937 
L 189.1261 291.731539 
L 183.354264 292.706322 
L 177.764992 293.420358 
L 171.895918 293.970207 
L 162.911302 294.567991 
L 152.836094 295.005173 
L 142.067546 295.260524 
L 131.407727 295.394716 
L 131.407727 295.394716 
" style="fill:none;stroke:#ff7f0e;stroke-linecap:square;stroke-width:1.5;"/>
   </g>
   <g id="line2d_35">
    <path clip-path="url(#p494283d19c)" d="M 461.8 294.673979 
L 443.53219 294.51661 
L 420.175226 294.37835 
L 400.111162 293.904537 
L 388.389211 293.471871 
L 378.753887 292.875567 
L 361.725886 291.77794 
L 351.080139 291.080586 
L 344.172945 290.390098 
L 336.061287 289.339275 
L 327.593504 288.022308 
L 320.823825 286.755331 
L 314.378585 285.321029 
L 305.553002 283.095985 
L 295.875366 280.720468 
L 288.828194 279.229882 
L 282.297413 278.069384 
L 276.186486 277.210188 
L 268.366319 276.123196 
L 265.842213 275.516776 
L 263.827186 274.806093 
L 262.074572 273.95477 
L 260.449822 272.918619 
L 258.908462 271.674283 
L 257.363813 270.138308 
L 255.792837 268.255251 
L 254.145338 265.922798 
L 252.312579 262.914803 
L 250.231851 259.05108 
L 246.833751 252.178466 
L 244.023834 246.703507 
L 242.350549 243.895016 
L 240.97215 241.988486 
L 239.824367 240.749481 
L 238.767432 239.927669 
L 237.839043 239.479266 
L 236.998299 239.30474 
L 236.150493 239.357293 
L 235.280633 239.65149 
L 234.411751 240.185961 
L 233.481269 241.017514 
L 232.401834 242.300885 
L 231.184183 244.124982 
L 229.808309 246.602912 
L 228.092026 250.182979 
L 225.725819 255.677289 
L 220.603445 267.677618 
L 218.485281 272.006804 
L 216.604296 275.362812 
L 214.823368 278.090472 
L 213.137593 280.279442 
L 211.55698 282.010902 
L 209.701482 283.693422 
L 207.885806 285.029792 
L 205.95373 286.179663 
L 203.737563 287.232015 
L 201.187681 288.186919 
L 198.304509 289.042393 
L 194.325841 289.979099 
L 189.255123 290.938378 
L 181.75543 292.110809 
L 173.675441 293.16406 
L 167.219409 293.824076 
L 159.597957 294.377205 
L 150.708506 294.79191 
L 138.229586 295.15116 
L 125.388519 295.37481 
L 125.388519 295.37481 
" style="fill:none;stroke:#2ca02c;stroke-linecap:square;stroke-width:1.5;"/>
   </g>
   <g id="line2d_36">
    <path clip-path="url(#p494283d19c)" d="M 461.8 294.673979 
L 443.53219 294.51661 
L 420.175226 294.37835 
L 400.111162 293.904537 
L 388.389211 293.471871 
L 378.753887 292.875567 
L 361.725886 291.77794 
L 351.080139 291.080586 
L 344.172945 290.390098 
L 336.061287 289.339275 
L 327.593504 288.022308 
L 320.823825 286.755331 
L 314.378585 285.321029 
L 305.553002 283.095985 
L 295.875366 280.720468 
L 288.828194 279.229882 
L 282.297413 278.069384 
L 276.186486 277.210188 
L 268.366319 276.123196 
L 265.842213 275.516776 
L 263.827186 274.806093 
L 262.074572 273.95477 
L 260.449822 272.918619 
L 258.908462 271.674283 
L 257.363813 270.138308 
L 255.792837 268.255251 
L 254.145338 265.922798 
L 252.312579 262.914803 
L 250.231851 259.05108 
L 246.833751 252.178466 
L 244.023834 246.703507 
L 242.350549 243.895016 
L 240.97215 241.988486 
L 239.824367 240.749481 
L 238.767432 239.927669 
L 237.839043 239.479266 
L 236.998299 239.30474 
L 236.150493 239.357293 
L 235.280633 239.65149 
L 234.411751 240.185961 
L 233.481269 241.017514 
L 232.401834 242.300885 
L 231.184183 244.124982 
L 229.808309 246.602912 
L 228.092026 250.182979 
L 225.725819 255.677289 
L 220.603445 267.677618 
L 218.485281 272.006804 
L 216.604296 275.362812 
L 214.823368 278.090472 
L 213.137593 280.279442 
L 211.55698 282.010902 
L 209.701482 283.693422 
L 207.885806 285.029792 
L 205.95373 286.179663 
L 203.737563 287.232015 
L 201.187681 288.186919 
L 198.304509 289.042393 
L 194.325841 289.979099 
L 189.255123 290.938378 
L 181.75543 292.110809 
L 173.675441 293.16406 
L 167.219409 293.824076 
L 159.597957 294.377205 
L 150.708506 294.79191 
L 138.229586 295.15116 
L 125.388519 295.37481 
L 125.388519 295.37481 
" style="fill:none;stroke:#d62728;stroke-linecap:square;stroke-width:1.5;"/>
   </g>
   <g id="line2d_37">
    <path clip-path="url(#p494283d19c)" d="M 461.8 294.673979 
L 443.53219 294.51661 
L 420.175226 294.37835 
L 400.111162 293.904537 
L 388.389211 293.471871 
L 378.753887 292.875567 
L 361.725886 291.77794 
L 351.080139 291.080586 
L 344.172945 290.390098 
L 336.061287 289.339275 
L 327.593504 288.022308 
L 320.823825 286.755331 
L 314.378585 285.321029 
L 305.553002 283.095985 
L 295.875366 280.720468 
L 288.828194 279.229882 
L 282.297413 278.069384 
L 276.186486 277.210188 
L 268.366319 276.123196 
L 265.842213 275.516776 
L 263.827186 274.806093 
L 262.074572 273.95477 
L 260.449822 272.918619 
L 258.908462 271.674283 
L 257.363813 270.138308 
L 255.792837 268.255251 
L 254.145338 265.922798 
L 252.312579 262.914803 
L 250.231851 259.05108 
L 246.833751 252.178466 
L 244.023834 246.703507 
L 242.350549 243.895016 
L 240.97215 241.988486 
L 239.824367 240.749481 
L 238.767432 239.927669 
L 237.839043 239.479266 
L 236.998299 239.30474 
L 236.150493 239.357293 
L 235.280633 239.65149 
L 234.411751 240.185961 
L 233.481269 241.017514 
L 232.401834 242.300885 
L 231.184183 244.124982 
L 229.808309 246.602912 
L 228.092026 250.182979 
L 225.725819 255.677289 
L 220.603445 267.677618 
L 218.485281 272.006804 
L 216.604296 275.362812 
L 214.823368 278.090472 
L 213.137593 280.279442 
L 211.55698 282.010902 
L 209.701482 283.693422 
L 207.885806 285.029792 
L 205.95373 286.179663 
L 203.737563 287.232015 
L 201.187681 288.186919 
L 198.304509 289.042393 
L 194.325841 289.979099 
L 189.255123 290.938378 
L 181.75543 292.110809 
L 173.675441 293.16406 
L 167.219409 293.824076 
L 159.597957 294.377205 
L 150.708506 294.79191 
L 138.229586 295.15116 
L 125.388519 295.37481 
L 125.388519 295.37481 
" style="fill:none;stroke:#9467bd;stroke-linecap:square;stroke-width:1.5;"/>
   </g>
   <g id="line2d_38">
    <path clip-path="url(#p494283d19c)" d="M 461.8 294.673979 
L 443.53219 294.51661 
L 420.175226 294.37835 
L 400.111162 293.904537 
L 388.389211 293.471871 
L 378.753887 292.875567 
L 361.725886 291.77794 
L 351.080139 291.080586 
L 344.172945 290.390098 
L 336.061287 289.339275 
L 327.593504 288.022308 
L 320.823825 286.755331 
L 314.378585 285.321029 
L 305.553002 283.095985 
L 295.875366 280.720468 
L 288.828194 279.229882 
L 282.297413 278.069384 
L 276.186486 277.210188 
L 268.366319 276.123196 
L 265.842213 275.516776 
L 263.827186 274.806093 
L 262.074572 273.95477 
L 260.449822 272.918619 
L 258.908462 271.674283 
L 257.363813 270.138308 
L 255.792837 268.255251 
L 254.145338 265.922798 
L 252.312579 262.914803 
L 250.231851 259.05108 
L 246.833751 252.178466 
L 244.023834 246.703507 
L 242.350549 243.895016 
L 240.97215 241.988486 
L 239.824367 240.749481 
L 238.767432 239.927669 
L 237.839043 239.479266 
L 236.998299 239.30474 
L 236.150493 239.357293 
L 235.280633 239.65149 
L 234.411751 240.185961 
L 233.481269 241.017514 
L 232.401834 242.300885 
L 231.184183 244.124982 
L 229.808309 246.602912 
L 228.092026 250.182979 
L 225.725819 255.677289 
L 220.603445 267.677618 
L 218.485281 272.006804 
L 216.604296 275.362812 
L 214.823368 278.090472 
L 213.137593 280.279442 
L 211.55698 282.010902 
L 209.701482 283.693422 
L 207.885806 285.029792 
L 205.95373 286.179663 
L 203.737563 287.232015 
L 201.187681 288.186919 
L 198.304509 289.042393 
L 194.325841 289.979099 
L 189.255123 290.938378 
L 181.75543 292.110809 
L 173.675441 293.16406 
L 167.219409 293.824076 
L 159.597957 294.377205 
L 150.708506 294.79191 
L 138.229586 295.15116 
L 125.388519 295.37481 
L 125.388519 295.37481 
" style="fill:none;stroke:#8c564b;stroke-linecap:square;stroke-width:1.5;"/>
   </g>
   <g id="patch_3">
    <path d="M 57.6 307.584 
L 57.6 41.472 
" style="fill:none;stroke:#000000;stroke-linecap:square;stroke-linejoin:miter;stroke-width:0.8;"/>
   </g>
   <g id="patch_4">
    <path d="M 414.72 307.584 
L 414.72 41.472 
" style="fill:none;stroke:#000000;stroke-linecap:square;stroke-linejoin:miter;stroke-width:0.8;"/>
   </g>
   <g id="patch_5">
    <path d="M 57.6 307.584 
L 414.72 307.584 
" style="fill:none;stroke:#000000;stroke-linecap:square;stroke-linejoin:miter;stroke-width:0.8;"/>
   </g>
   <g id="patch_6">
    <path d="M 57.6 41.472 
L 414.72 41.472 
" style="fill:none;stroke:#000000;stroke-linecap:square;stroke-linejoin:miter;stroke-width:0.8;"/>
   </g>
   <g id="legend_1">
    <g id="patch_7">
     <path d="M 67.4 402.011375 
L 153.329375 402.011375 
Q 156.129375 402.011375 156.129375 399.211375 
L 156.129375 51.272 
Q 156.129375 48.472 153.329375 48.472 
L 67.4 48.472 
Q 64.6 48.472 64.6 51.272 
L 64.6 399.211375 
Q 64.6 402.011375 67.4 402.011375 
z
" style="fill:#ffffff;opacity:0.8;stroke:#cccccc;stroke-linejoin:miter;"/>
    </g>
    <g id="text_14">
     <!-- Epochs[#] -->
     <defs>
      <path d="M 9.1875 72.90625 
L 59.90625 72.90625 
L 59.90625 58.6875 
L 27.984375 58.6875 
L 27.984375 45.125 
L 58.015625 45.125 
L 58.015625 30.90625 
L 27.984375 30.90625 
L 27.984375 14.203125 
L 60.984375 14.203125 
L 60.984375 0 
L 9.1875 0 
z
" id="DejaVuSans-Bold-69"/>
      <path d="M 25.875 7.90625 
L 25.875 -20.796875 
L 8.40625 -20.796875 
L 8.40625 54.6875 
L 25.875 54.6875 
L 25.875 46.6875 
Q 29.5 51.46875 33.890625 53.734375 
Q 38.28125 56 44 56 
Q 54.109375 56 60.59375 47.96875 
Q 67.09375 39.9375 67.09375 27.296875 
Q 67.09375 14.65625 60.59375 6.609375 
Q 54.109375 -1.421875 44 -1.421875 
Q 38.28125 -1.421875 33.890625 0.84375 
Q 29.5 3.125 25.875 7.90625 
z
M 37.5 43.3125 
Q 31.890625 43.3125 28.875 39.1875 
Q 25.875 35.0625 25.875 27.296875 
Q 25.875 19.53125 28.875 15.40625 
Q 31.890625 11.28125 37.5 11.28125 
Q 43.109375 11.28125 46.0625 15.375 
Q 49.03125 19.484375 49.03125 27.296875 
Q 49.03125 35.109375 46.0625 39.203125 
Q 43.109375 43.3125 37.5 43.3125 
z
" id="DejaVuSans-Bold-112"/>
      <path d="M 34.421875 43.5 
Q 28.609375 43.5 25.5625 39.328125 
Q 22.515625 35.15625 22.515625 27.296875 
Q 22.515625 19.4375 25.5625 15.25 
Q 28.609375 11.078125 34.421875 11.078125 
Q 40.140625 11.078125 43.15625 15.25 
Q 46.1875 19.4375 46.1875 27.296875 
Q 46.1875 35.15625 43.15625 39.328125 
Q 40.140625 43.5 34.421875 43.5 
z
M 34.421875 56 
Q 48.53125 56 56.46875 48.375 
Q 64.40625 40.765625 64.40625 27.296875 
Q 64.40625 13.8125 56.46875 6.1875 
Q 48.53125 -1.421875 34.421875 -1.421875 
Q 20.265625 -1.421875 12.28125 6.1875 
Q 4.296875 13.8125 4.296875 27.296875 
Q 4.296875 40.765625 12.28125 48.375 
Q 20.265625 56 34.421875 56 
z
" id="DejaVuSans-Bold-111"/>
      <path d="M 52.59375 52.984375 
L 52.59375 38.71875 
Q 49.03125 41.15625 45.4375 42.328125 
Q 41.84375 43.5 37.984375 43.5 
Q 30.671875 43.5 26.59375 39.234375 
Q 22.515625 34.96875 22.515625 27.296875 
Q 22.515625 19.625 26.59375 15.34375 
Q 30.671875 11.078125 37.984375 11.078125 
Q 42.09375 11.078125 45.78125 12.296875 
Q 49.46875 13.53125 52.59375 15.921875 
L 52.59375 1.609375 
Q 48.484375 0.09375 44.265625 -0.65625 
Q 40.046875 -1.421875 35.796875 -1.421875 
Q 21 -1.421875 12.640625 6.171875 
Q 4.296875 13.765625 4.296875 27.296875 
Q 4.296875 40.828125 12.640625 48.40625 
Q 21 56 35.796875 56 
Q 40.09375 56 44.265625 55.25 
Q 48.4375 54.5 52.59375 52.984375 
z
" id="DejaVuSans-Bold-99"/>
      <path d="M 63.375 33.296875 
L 63.375 0 
L 45.796875 0 
L 45.796875 5.421875 
L 45.796875 25.390625 
Q 45.796875 32.5625 45.484375 35.25 
Q 45.171875 37.9375 44.390625 39.203125 
Q 43.359375 40.921875 41.59375 41.875 
Q 39.84375 42.828125 37.59375 42.828125 
Q 32.125 42.828125 29 38.59375 
Q 25.875 34.375 25.875 26.90625 
L 25.875 0 
L 8.40625 0 
L 8.40625 75.984375 
L 25.875 75.984375 
L 25.875 46.6875 
Q 29.828125 51.46875 34.265625 53.734375 
Q 38.71875 56 44.09375 56 
Q 53.5625 56 58.46875 50.1875 
Q 63.375 44.390625 63.375 33.296875 
z
" id="DejaVuSans-Bold-104"/>
      <path d="M 51.125 52.984375 
L 51.125 39.703125 
Q 45.515625 42.046875 40.28125 43.21875 
Q 35.0625 44.390625 30.421875 44.390625 
Q 25.4375 44.390625 23.015625 43.140625 
Q 20.609375 41.890625 20.609375 39.3125 
Q 20.609375 37.203125 22.4375 36.078125 
Q 24.265625 34.96875 29 34.421875 
L 32.078125 33.984375 
Q 45.515625 32.28125 50.140625 28.375 
Q 54.78125 24.46875 54.78125 16.109375 
Q 54.78125 7.375 48.328125 2.96875 
Q 41.890625 -1.421875 29.109375 -1.421875 
Q 23.6875 -1.421875 17.890625 -0.5625 
Q 12.109375 0.296875 6 2 
L 6 15.28125 
Q 11.234375 12.75 16.71875 11.46875 
Q 22.21875 10.203125 27.875 10.203125 
Q 33.015625 10.203125 35.59375 11.609375 
Q 38.1875 13.03125 38.1875 15.828125 
Q 38.1875 18.171875 36.40625 19.3125 
Q 34.625 20.453125 29.296875 21.09375 
L 26.21875 21.484375 
Q 14.546875 22.953125 9.859375 26.90625 
Q 5.171875 30.859375 5.171875 38.921875 
Q 5.171875 47.609375 11.125 51.796875 
Q 17.09375 56 29.390625 56 
Q 34.234375 56 39.546875 55.265625 
Q 44.875 54.546875 51.125 52.984375 
z
" id="DejaVuSans-Bold-115"/>
      <path d="M 8.59375 75.984375 
L 38.921875 75.984375 
L 38.921875 64.984375 
L 25.203125 64.984375 
L 25.203125 -2.203125 
L 38.921875 -2.203125 
L 38.921875 -13.1875 
L 8.59375 -13.1875 
z
" id="DejaVuSans-Bold-91"/>
      <path d="M 44.484375 71.78125 
L 39.796875 52.984375 
L 52.6875 52.984375 
L 57.421875 71.78125 
L 68.21875 71.78125 
L 63.484375 52.984375 
L 77 52.984375 
L 77 42.578125 
L 60.890625 42.578125 
L 57.515625 29.203125 
L 71.390625 29.203125 
L 71.390625 18.703125 
L 54.984375 18.703125 
L 50.296875 0 
L 39.5 0 
L 44.1875 18.703125 
L 31.296875 18.703125 
L 26.609375 0 
L 15.71875 0 
L 20.40625 18.703125 
L 6.78125 18.703125 
L 6.78125 29.203125 
L 22.796875 29.203125 
L 26.21875 42.578125 
L 12.40625 42.578125 
L 12.40625 52.984375 
L 28.90625 52.984375 
L 33.59375 71.78125 
z
M 50 42.578125 
L 37.109375 42.578125 
L 33.6875 29.203125 
L 46.578125 29.203125 
z
" id="DejaVuSans-Bold-35"/>
      <path d="M 37.109375 -13.1875 
L 6.78125 -13.1875 
L 6.78125 -2.203125 
L 20.515625 -2.203125 
L 20.515625 64.984375 
L 6.78125 64.984375 
L 6.78125 75.984375 
L 37.109375 75.984375 
z
" id="DejaVuSans-Bold-93"/>
     </defs>
     <g transform="translate(70.2 64.709812)scale(0.14 -0.14)">
      <use xlink:href="#DejaVuSans-Bold-69"/>
      <use x="68.310547" xlink:href="#DejaVuSans-Bold-112"/>
      <use x="139.892578" xlink:href="#DejaVuSans-Bold-111"/>
      <use x="208.59375" xlink:href="#DejaVuSans-Bold-99"/>
      <use x="267.871094" xlink:href="#DejaVuSans-Bold-104"/>
      <use x="339.0625" xlink:href="#DejaVuSans-Bold-115"/>
      <use x="398.583984" xlink:href="#DejaVuSans-Bold-91"/>
      <use x="444.287109" xlink:href="#DejaVuSans-Bold-35"/>
      <use x="528.076172" xlink:href="#DejaVuSans-Bold-93"/>
     </g>
    </g>
    <g id="line2d_39">
     <path d="M 76.153281 80.359187 
L 104.153281 80.359187 
" style="fill:none;stroke:#1f77b4;stroke-linecap:square;stroke-width:1.5;"/>
    </g>
    <g id="line2d_40"/>
    <g id="text_15">
     <!-- 0 -->
     <g transform="translate(115.353281 85.259187)scale(0.14 -0.14)">
      <use xlink:href="#DejaVuSans-Bold-48"/>
     </g>
    </g>
    <g id="line2d_41">
     <path d="M 76.153281 100.908562 
L 104.153281 100.908562 
" style="fill:none;stroke:#ff7f0e;stroke-linecap:square;stroke-width:1.5;"/>
    </g>
    <g id="line2d_42"/>
    <g id="text_16">
     <!-- 25 -->
     <g transform="translate(115.353281 105.808562)scale(0.14 -0.14)">
      <use xlink:href="#DejaVuSans-Bold-50"/>
      <use x="69.580078" xlink:href="#DejaVuSans-Bold-53"/>
     </g>
    </g>
    <g id="line2d_43">
     <path d="M 76.153281 121.457937 
L 104.153281 121.457937 
" style="fill:none;stroke:#2ca02c;stroke-linecap:square;stroke-width:1.5;"/>
    </g>
    <g id="line2d_44"/>
    <g id="text_17">
     <!-- 50 -->
     <g transform="translate(115.353281 126.357937)scale(0.14 -0.14)">
      <use xlink:href="#DejaVuSans-Bold-53"/>
      <use x="69.580078" xlink:href="#DejaVuSans-Bold-48"/>
     </g>
    </g>
    <g id="line2d_45">
     <path d="M 76.153281 142.007312 
L 104.153281 142.007312 
" style="fill:none;stroke:#d62728;stroke-linecap:square;stroke-width:1.5;"/>
    </g>
    <g id="line2d_46"/>
    <g id="text_18">
     <!-- 75 -->
     <defs>
      <path d="M 6.6875 72.90625 
L 61.625 72.90625 
L 61.625 62.3125 
L 33.203125 0 
L 14.890625 0 
L 41.796875 59.078125 
L 6.6875 59.078125 
z
" id="DejaVuSans-Bold-55"/>
     </defs>
     <g transform="translate(115.353281 146.907312)scale(0.14 -0.14)">
      <use xlink:href="#DejaVuSans-Bold-55"/>
      <use x="69.580078" xlink:href="#DejaVuSans-Bold-53"/>
     </g>
    </g>
    <g id="line2d_47">
     <path d="M 76.153281 162.556687 
L 104.153281 162.556687 
" style="fill:none;stroke:#9467bd;stroke-linecap:square;stroke-width:1.5;"/>
    </g>
    <g id="line2d_48"/>
    <g id="text_19">
     <!-- 100 -->
     <g transform="translate(115.353281 167.456687)scale(0.14 -0.14)">
      <use xlink:href="#DejaVuSans-Bold-49"/>
      <use x="69.580078" xlink:href="#DejaVuSans-Bold-48"/>
      <use x="139.160156" xlink:href="#DejaVuSans-Bold-48"/>
     </g>
    </g>
    <g id="line2d_49">
     <path d="M 76.153281 183.106062 
L 104.153281 183.106062 
" style="fill:none;stroke:#8c564b;stroke-linecap:square;stroke-width:1.5;"/>
    </g>
    <g id="line2d_50"/>
    <g id="text_20">
     <!-- 125 -->
     <g transform="translate(115.353281 188.006062)scale(0.14 -0.14)">
      <use xlink:href="#DejaVuSans-Bold-49"/>
      <use x="69.580078" xlink:href="#DejaVuSans-Bold-50"/>
      <use x="139.160156" xlink:href="#DejaVuSans-Bold-53"/>
     </g>
    </g>
    <g id="line2d_51">
     <path d="M 76.153281 203.655437 
L 104.153281 203.655437 
" style="fill:none;stroke:#e377c2;stroke-linecap:square;stroke-width:1.5;"/>
    </g>
    <g id="line2d_52"/>
    <g id="text_21">
     <!-- 150 -->
     <g transform="translate(115.353281 208.555437)scale(0.14 -0.14)">
      <use xlink:href="#DejaVuSans-Bold-49"/>
      <use x="69.580078" xlink:href="#DejaVuSans-Bold-53"/>
      <use x="139.160156" xlink:href="#DejaVuSans-Bold-48"/>
     </g>
    </g>
    <g id="line2d_53">
     <path d="M 76.153281 224.204812 
L 104.153281 224.204812 
" style="fill:none;stroke:#7f7f7f;stroke-linecap:square;stroke-width:1.5;"/>
    </g>
    <g id="line2d_54"/>
    <g id="text_22">
     <!-- 175 -->
     <g transform="translate(115.353281 229.104812)scale(0.14 -0.14)">
      <use xlink:href="#DejaVuSans-Bold-49"/>
      <use x="69.580078" xlink:href="#DejaVuSans-Bold-55"/>
      <use x="139.160156" xlink:href="#DejaVuSans-Bold-53"/>
     </g>
    </g>
    <g id="line2d_55">
     <path d="M 76.153281 244.754187 
L 104.153281 244.754187 
" style="fill:none;stroke:#bcbd22;stroke-linecap:square;stroke-width:1.5;"/>
    </g>
    <g id="line2d_56"/>
    <g id="text_23">
     <!-- 200 -->
     <g transform="translate(115.353281 249.654187)scale(0.14 -0.14)">
      <use xlink:href="#DejaVuSans-Bold-50"/>
      <use x="69.580078" xlink:href="#DejaVuSans-Bold-48"/>
      <use x="139.160156" xlink:href="#DejaVuSans-Bold-48"/>
     </g>
    </g>
    <g id="line2d_57">
     <path d="M 76.153281 265.303562 
L 104.153281 265.303562 
" style="fill:none;stroke:#17becf;stroke-linecap:square;stroke-width:1.5;"/>
    </g>
    <g id="line2d_58"/>
    <g id="text_24">
     <!-- 225 -->
     <g transform="translate(115.353281 270.203562)scale(0.14 -0.14)">
      <use xlink:href="#DejaVuSans-Bold-50"/>
      <use x="69.580078" xlink:href="#DejaVuSans-Bold-50"/>
      <use x="139.160156" xlink:href="#DejaVuSans-Bold-53"/>
     </g>
    </g>
    <g id="line2d_59">
     <path d="M 76.153281 285.852937 
L 104.153281 285.852937 
" style="fill:none;stroke:#1f77b4;stroke-linecap:square;stroke-width:1.5;"/>
    </g>
    <g id="line2d_60"/>
    <g id="text_25">
     <!-- 250 -->
     <g transform="translate(115.353281 290.752937)scale(0.14 -0.14)">
      <use xlink:href="#DejaVuSans-Bold-50"/>
      <use x="69.580078" xlink:href="#DejaVuSans-Bold-53"/>
      <use x="139.160156" xlink:href="#DejaVuSans-Bold-48"/>
     </g>
    </g>
    <g id="line2d_61">
     <path d="M 76.153281 306.402312 
L 104.153281 306.402312 
" style="fill:none;stroke:#ff7f0e;stroke-linecap:square;stroke-width:1.5;"/>
    </g>
    <g id="line2d_62"/>
    <g id="text_26">
     <!-- 275 -->
     <g transform="translate(115.353281 311.302312)scale(0.14 -0.14)">
      <use xlink:href="#DejaVuSans-Bold-50"/>
      <use x="69.580078" xlink:href="#DejaVuSans-Bold-55"/>
      <use x="139.160156" xlink:href="#DejaVuSans-Bold-53"/>
     </g>
    </g>
    <g id="line2d_63">
     <path d="M 76.153281 326.951687 
L 104.153281 326.951687 
" style="fill:none;stroke:#2ca02c;stroke-linecap:square;stroke-width:1.5;"/>
    </g>
    <g id="line2d_64"/>
    <g id="text_27">
     <!-- 300 -->
     <g transform="translate(115.353281 331.851687)scale(0.14 -0.14)">
      <use xlink:href="#DejaVuSans-Bold-51"/>
      <use x="69.580078" xlink:href="#DejaVuSans-Bold-48"/>
      <use x="139.160156" xlink:href="#DejaVuSans-Bold-48"/>
     </g>
    </g>
    <g id="line2d_65">
     <path style="fill:none;stroke:#d62728;stroke-linecap:square;stroke-width:1.5;"/>
    </g>
    <g id="line2d_66"/>
    <g id="text_28">
     <!-- 325 -->
     <g transform="translate(115.353281 352.401062)scale(0.14 -0.14)">
      <use xlink:href="#DejaVuSans-Bold-51"/>
      <use x="69.580078" xlink:href="#DejaVuSans-Bold-50"/>
      <use x="139.160156" xlink:href="#DejaVuSans-Bold-53"/>
     </g>
    </g>
    <g id="line2d_67">
     <path style="fill:none;stroke:#9467bd;stroke-linecap:square;stroke-width:1.5;"/>
    </g>
    <g id="line2d_68"/>
    <g id="text_29">
     <!-- 350 -->
     <g transform="translate(115.353281 372.950437)scale(0.14 -0.14)">
      <use xlink:href="#DejaVuSans-Bold-51"/>
      <use x="69.580078" xlink:href="#DejaVuSans-Bold-53"/>
      <use x="139.160156" xlink:href="#DejaVuSans-Bold-48"/>
     </g>
    </g>
    <g id="line2d_69">
     <path style="fill:none;stroke:#8c564b;stroke-linecap:square;stroke-width:1.5;"/>
    </g>
    <g id="line2d_70"/>
    <g id="text_30">
     <!-- 375 -->
     <g transform="translate(115.353281 393.499812)scale(0.14 -0.14)">
      <use xlink:href="#DejaVuSans-Bold-51"/>
      <use x="69.580078" xlink:href="#DejaVuSans-Bold-55"/>
      <use x="139.160156" xlink:href="#DejaVuSans-Bold-53"/>
     </g>
    </g>
   </g>
  </g>
 </g>
 <defs>
  <clipPath id="p494283d19c">
   <rect height="266.112" width="357.12" x="57.6" y="41.472"/>
  </clipPath>
 </defs>
</svg>
