<?xml version="1.0" encoding="utf-8" standalone="no"?>
<!DOCTYPE svg PUBLIC "-//W3C//DTD SVG 1.1//EN"
  "http://www.w3.org/Graphics/SVG/1.1/DTD/svg11.dtd">
<!-- Created with matplotlib (https://matplotlib.org/) -->
<svg height="345.6pt" version="1.1" viewBox="0 0 460.8 345.6" width="460.8pt" xmlns="http://www.w3.org/2000/svg" xmlns:xlink="http://www.w3.org/1999/xlink">
 <defs>
  <style type="text/css">
*{stroke-linecap:butt;stroke-linejoin:round;}
  </style>
 </defs>
 <g id="figure_1">
  <g id="patch_1">
   <path d="M 0 345.6 
L 460.8 345.6 
L 460.8 0 
L 0 0 
z
" style="fill:#ffffff;"/>
  </g>
  <g id="axes_1">
   <g id="patch_2">
    <path d="M 57.6 307.584 
L 414.72 307.584 
L 414.72 41.472 
L 57.6 41.472 
z
" style="fill:#ffffff;"/>
   </g>
   <g id="matplotlib.axis_1">
    <g id="xtick_1">
     <g id="line2d_1">
      <path clip-path="url(#p13db750ce7)" d="M 108.123094 307.584 
L 108.123094 41.472 
" style="fill:none;stroke:#b0b0b0;stroke-linecap:square;stroke-width:0.8;"/>
     </g>
     <g id="line2d_2">
      <defs>
       <path d="M 0 0 
L 0 3.5 
" id="mfc7646b06a" style="stroke:#000000;stroke-width:0.8;"/>
      </defs>
      <g>
       <use style="stroke:#000000;stroke-width:0.8;" x="108.123094" xlink:href="#mfc7646b06a" y="307.584"/>
      </g>
     </g>
     <g id="text_1">
      <!-- −10 -->
      <defs>
       <path d="M 10.59375 37.109375 
L 73.1875 37.109375 
L 73.1875 25.59375 
L 10.59375 25.59375 
z
" id="DejaVuSans-Bold-8722"/>
       <path d="M 11.71875 12.984375 
L 28.328125 12.984375 
L 28.328125 60.109375 
L 11.28125 56.59375 
L 11.28125 69.390625 
L 28.21875 72.90625 
L 46.09375 72.90625 
L 46.09375 12.984375 
L 62.703125 12.984375 
L 62.703125 0 
L 11.71875 0 
z
" id="DejaVuSans-Bold-49"/>
       <path d="M 46 36.53125 
Q 46 50.203125 43.4375 55.78125 
Q 40.875 61.375 34.8125 61.375 
Q 28.765625 61.375 26.171875 55.78125 
Q 23.578125 50.203125 23.578125 36.53125 
Q 23.578125 22.703125 26.171875 17.03125 
Q 28.765625 11.375 34.8125 11.375 
Q 40.828125 11.375 43.40625 17.03125 
Q 46 22.703125 46 36.53125 
z
M 64.796875 36.375 
Q 64.796875 18.265625 56.984375 8.421875 
Q 49.171875 -1.421875 34.8125 -1.421875 
Q 20.40625 -1.421875 12.59375 8.421875 
Q 4.78125 18.265625 4.78125 36.375 
Q 4.78125 54.546875 12.59375 64.375 
Q 20.40625 74.21875 34.8125 74.21875 
Q 49.171875 74.21875 56.984375 64.375 
Q 64.796875 54.546875 64.796875 36.375 
z
" id="DejaVuSans-Bold-48"/>
      </defs>
      <g transform="translate(88.057312 328.261187)scale(0.18 -0.18)">
       <use xlink:href="#DejaVuSans-Bold-8722"/>
       <use x="83.789062" xlink:href="#DejaVuSans-Bold-49"/>
       <use x="153.369141" xlink:href="#DejaVuSans-Bold-48"/>
      </g>
     </g>
    </g>
    <g id="xtick_2">
     <g id="line2d_3">
      <path clip-path="url(#p13db750ce7)" d="M 169.196516 307.584 
L 169.196516 41.472 
" style="fill:none;stroke:#b0b0b0;stroke-linecap:square;stroke-width:0.8;"/>
     </g>
     <g id="line2d_4">
      <g>
       <use style="stroke:#000000;stroke-width:0.8;" x="169.196516" xlink:href="#mfc7646b06a" y="307.584"/>
      </g>
     </g>
     <g id="text_2">
      <!-- 0 -->
      <g transform="translate(162.934485 328.261187)scale(0.18 -0.18)">
       <use xlink:href="#DejaVuSans-Bold-48"/>
      </g>
     </g>
    </g>
    <g id="xtick_3">
     <g id="line2d_5">
      <path clip-path="url(#p13db750ce7)" d="M 230.269939 307.584 
L 230.269939 41.472 
" style="fill:none;stroke:#b0b0b0;stroke-linecap:square;stroke-width:0.8;"/>
     </g>
     <g id="line2d_6">
      <g>
       <use style="stroke:#000000;stroke-width:0.8;" x="230.269939" xlink:href="#mfc7646b06a" y="307.584"/>
      </g>
     </g>
     <g id="text_3">
      <!-- 10 -->
      <g transform="translate(217.745876 328.261187)scale(0.18 -0.18)">
       <use xlink:href="#DejaVuSans-Bold-49"/>
       <use x="69.580078" xlink:href="#DejaVuSans-Bold-48"/>
      </g>
     </g>
    </g>
    <g id="xtick_4">
     <g id="line2d_7">
      <path clip-path="url(#p13db750ce7)" d="M 291.343361 307.584 
L 291.343361 41.472 
" style="fill:none;stroke:#b0b0b0;stroke-linecap:square;stroke-width:0.8;"/>
     </g>
     <g id="line2d_8">
      <g>
       <use style="stroke:#000000;stroke-width:0.8;" x="291.343361" xlink:href="#mfc7646b06a" y="307.584"/>
      </g>
     </g>
     <g id="text_4">
      <!-- 20 -->
      <defs>
       <path d="M 28.8125 13.8125 
L 60.890625 13.8125 
L 60.890625 0 
L 7.90625 0 
L 7.90625 13.8125 
L 34.515625 37.3125 
Q 38.09375 40.53125 39.796875 43.609375 
Q 41.5 46.6875 41.5 50 
Q 41.5 55.125 38.0625 58.25 
Q 34.625 61.375 28.90625 61.375 
Q 24.515625 61.375 19.28125 59.5 
Q 14.0625 57.625 8.109375 53.90625 
L 8.109375 69.921875 
Q 14.453125 72.015625 20.65625 73.109375 
Q 26.859375 74.21875 32.8125 74.21875 
Q 45.90625 74.21875 53.15625 68.453125 
Q 60.40625 62.703125 60.40625 52.390625 
Q 60.40625 46.4375 57.328125 41.28125 
Q 54.25 36.140625 44.390625 27.484375 
z
" id="DejaVuSans-Bold-50"/>
      </defs>
      <g transform="translate(278.819299 328.261187)scale(0.18 -0.18)">
       <use xlink:href="#DejaVuSans-Bold-50"/>
       <use x="69.580078" xlink:href="#DejaVuSans-Bold-48"/>
      </g>
     </g>
    </g>
    <g id="xtick_5">
     <g id="line2d_9">
      <path clip-path="url(#p13db750ce7)" d="M 352.416784 307.584 
L 352.416784 41.472 
" style="fill:none;stroke:#b0b0b0;stroke-linecap:square;stroke-width:0.8;"/>
     </g>
     <g id="line2d_10">
      <g>
       <use style="stroke:#000000;stroke-width:0.8;" x="352.416784" xlink:href="#mfc7646b06a" y="307.584"/>
      </g>
     </g>
     <g id="text_5">
      <!-- 30 -->
      <defs>
       <path d="M 46.578125 39.3125 
Q 53.953125 37.40625 57.78125 32.6875 
Q 61.625 27.984375 61.625 20.703125 
Q 61.625 9.859375 53.3125 4.21875 
Q 45.015625 -1.421875 29.109375 -1.421875 
Q 23.484375 -1.421875 17.84375 -0.515625 
Q 12.203125 0.390625 6.6875 2.203125 
L 6.6875 16.703125 
Q 11.96875 14.0625 17.15625 12.71875 
Q 22.359375 11.375 27.390625 11.375 
Q 34.859375 11.375 38.84375 13.953125 
Q 42.828125 16.546875 42.828125 21.390625 
Q 42.828125 26.375 38.75 28.9375 
Q 34.671875 31.5 26.703125 31.5 
L 19.1875 31.5 
L 19.1875 43.609375 
L 27.09375 43.609375 
Q 34.1875 43.609375 37.640625 45.828125 
Q 41.109375 48.046875 41.109375 52.59375 
Q 41.109375 56.78125 37.734375 59.078125 
Q 34.375 61.375 28.21875 61.375 
Q 23.6875 61.375 19.046875 60.34375 
Q 14.40625 59.328125 9.8125 57.328125 
L 9.8125 71.09375 
Q 15.375 72.65625 20.84375 73.4375 
Q 26.3125 74.21875 31.59375 74.21875 
Q 45.796875 74.21875 52.84375 69.546875 
Q 59.90625 64.890625 59.90625 55.515625 
Q 59.90625 49.125 56.53125 45.046875 
Q 53.171875 40.96875 46.578125 39.3125 
z
" id="DejaVuSans-Bold-51"/>
      </defs>
      <g transform="translate(339.892721 328.261187)scale(0.18 -0.18)">
       <use xlink:href="#DejaVuSans-Bold-51"/>
       <use x="69.580078" xlink:href="#DejaVuSans-Bold-48"/>
      </g>
     </g>
    </g>
    <g id="xtick_6">
     <g id="line2d_11">
      <path clip-path="url(#p13db750ce7)" d="M 413.490207 307.584 
L 413.490207 41.472 
" style="fill:none;stroke:#b0b0b0;stroke-linecap:square;stroke-width:0.8;"/>
     </g>
     <g id="line2d_12">
      <g>
       <use style="stroke:#000000;stroke-width:0.8;" x="413.490207" xlink:href="#mfc7646b06a" y="307.584"/>
      </g>
     </g>
     <g id="text_6">
      <!-- 40 -->
      <defs>
       <path d="M 36.8125 57.421875 
L 16.21875 26.90625 
L 36.8125 26.90625 
z
M 33.6875 72.90625 
L 54.59375 72.90625 
L 54.59375 26.90625 
L 64.984375 26.90625 
L 64.984375 13.28125 
L 54.59375 13.28125 
L 54.59375 0 
L 36.8125 0 
L 36.8125 13.28125 
L 4.5 13.28125 
L 4.5 29.390625 
z
" id="DejaVuSans-Bold-52"/>
      </defs>
      <g transform="translate(400.966144 328.261187)scale(0.18 -0.18)">
       <use xlink:href="#DejaVuSans-Bold-52"/>
       <use x="69.580078" xlink:href="#DejaVuSans-Bold-48"/>
      </g>
     </g>
    </g>
    <g id="text_7">
     <!-- Laplacian centrality -->
     <defs>
      <path d="M 9.8125 72.90625 
L 19.671875 72.90625 
L 19.671875 8.296875 
L 55.171875 8.296875 
L 55.171875 0 
L 9.8125 0 
z
" id="DejaVuSans-76"/>
      <path d="M 34.28125 27.484375 
Q 23.390625 27.484375 19.1875 25 
Q 14.984375 22.515625 14.984375 16.5 
Q 14.984375 11.71875 18.140625 8.90625 
Q 21.296875 6.109375 26.703125 6.109375 
Q 34.1875 6.109375 38.703125 11.40625 
Q 43.21875 16.703125 43.21875 25.484375 
L 43.21875 27.484375 
z
M 52.203125 31.203125 
L 52.203125 0 
L 43.21875 0 
L 43.21875 8.296875 
Q 40.140625 3.328125 35.546875 0.953125 
Q 30.953125 -1.421875 24.3125 -1.421875 
Q 15.921875 -1.421875 10.953125 3.296875 
Q 6 8.015625 6 15.921875 
Q 6 25.140625 12.171875 29.828125 
Q 18.359375 34.515625 30.609375 34.515625 
L 43.21875 34.515625 
L 43.21875 35.40625 
Q 43.21875 41.609375 39.140625 45 
Q 35.0625 48.390625 27.6875 48.390625 
Q 23 48.390625 18.546875 47.265625 
Q 14.109375 46.140625 10.015625 43.890625 
L 10.015625 52.203125 
Q 14.9375 54.109375 19.578125 55.046875 
Q 24.21875 56 28.609375 56 
Q 40.484375 56 46.34375 49.84375 
Q 52.203125 43.703125 52.203125 31.203125 
z
" id="DejaVuSans-97"/>
      <path d="M 18.109375 8.203125 
L 18.109375 -20.796875 
L 9.078125 -20.796875 
L 9.078125 54.6875 
L 18.109375 54.6875 
L 18.109375 46.390625 
Q 20.953125 51.265625 25.265625 53.625 
Q 29.59375 56 35.59375 56 
Q 45.5625 56 51.78125 48.09375 
Q 58.015625 40.1875 58.015625 27.296875 
Q 58.015625 14.40625 51.78125 6.484375 
Q 45.5625 -1.421875 35.59375 -1.421875 
Q 29.59375 -1.421875 25.265625 0.953125 
Q 20.953125 3.328125 18.109375 8.203125 
z
M 48.6875 27.296875 
Q 48.6875 37.203125 44.609375 42.84375 
Q 40.53125 48.484375 33.40625 48.484375 
Q 26.265625 48.484375 22.1875 42.84375 
Q 18.109375 37.203125 18.109375 27.296875 
Q 18.109375 17.390625 22.1875 11.75 
Q 26.265625 6.109375 33.40625 6.109375 
Q 40.53125 6.109375 44.609375 11.75 
Q 48.6875 17.390625 48.6875 27.296875 
z
" id="DejaVuSans-112"/>
      <path d="M 9.421875 75.984375 
L 18.40625 75.984375 
L 18.40625 0 
L 9.421875 0 
z
" id="DejaVuSans-108"/>
      <path d="M 48.78125 52.59375 
L 48.78125 44.1875 
Q 44.96875 46.296875 41.140625 47.34375 
Q 37.3125 48.390625 33.40625 48.390625 
Q 24.65625 48.390625 19.8125 42.84375 
Q 14.984375 37.3125 14.984375 27.296875 
Q 14.984375 17.28125 19.8125 11.734375 
Q 24.65625 6.203125 33.40625 6.203125 
Q 37.3125 6.203125 41.140625 7.25 
Q 44.96875 8.296875 48.78125 10.40625 
L 48.78125 2.09375 
Q 45.015625 0.34375 40.984375 -0.53125 
Q 36.96875 -1.421875 32.421875 -1.421875 
Q 20.0625 -1.421875 12.78125 6.34375 
Q 5.515625 14.109375 5.515625 27.296875 
Q 5.515625 40.671875 12.859375 48.328125 
Q 20.21875 56 33.015625 56 
Q 37.15625 56 41.109375 55.140625 
Q 45.0625 54.296875 48.78125 52.59375 
z
" id="DejaVuSans-99"/>
      <path d="M 9.421875 54.6875 
L 18.40625 54.6875 
L 18.40625 0 
L 9.421875 0 
z
M 9.421875 75.984375 
L 18.40625 75.984375 
L 18.40625 64.59375 
L 9.421875 64.59375 
z
" id="DejaVuSans-105"/>
      <path d="M 54.890625 33.015625 
L 54.890625 0 
L 45.90625 0 
L 45.90625 32.71875 
Q 45.90625 40.484375 42.875 44.328125 
Q 39.84375 48.1875 33.796875 48.1875 
Q 26.515625 48.1875 22.3125 43.546875 
Q 18.109375 38.921875 18.109375 30.90625 
L 18.109375 0 
L 9.078125 0 
L 9.078125 54.6875 
L 18.109375 54.6875 
L 18.109375 46.1875 
Q 21.34375 51.125 25.703125 53.5625 
Q 30.078125 56 35.796875 56 
Q 45.21875 56 50.046875 50.171875 
Q 54.890625 44.34375 54.890625 33.015625 
z
" id="DejaVuSans-110"/>
      <path id="DejaVuSans-32"/>
      <path d="M 56.203125 29.59375 
L 56.203125 25.203125 
L 14.890625 25.203125 
Q 15.484375 15.921875 20.484375 11.0625 
Q 25.484375 6.203125 34.421875 6.203125 
Q 39.59375 6.203125 44.453125 7.46875 
Q 49.3125 8.734375 54.109375 11.28125 
L 54.109375 2.78125 
Q 49.265625 0.734375 44.1875 -0.34375 
Q 39.109375 -1.421875 33.890625 -1.421875 
Q 20.796875 -1.421875 13.15625 6.1875 
Q 5.515625 13.8125 5.515625 26.8125 
Q 5.515625 40.234375 12.765625 48.109375 
Q 20.015625 56 32.328125 56 
Q 43.359375 56 49.78125 48.890625 
Q 56.203125 41.796875 56.203125 29.59375 
z
M 47.21875 32.234375 
Q 47.125 39.59375 43.09375 43.984375 
Q 39.0625 48.390625 32.421875 48.390625 
Q 24.90625 48.390625 20.390625 44.140625 
Q 15.875 39.890625 15.1875 32.171875 
z
" id="DejaVuSans-101"/>
      <path d="M 18.3125 70.21875 
L 18.3125 54.6875 
L 36.8125 54.6875 
L 36.8125 47.703125 
L 18.3125 47.703125 
L 18.3125 18.015625 
Q 18.3125 11.328125 20.140625 9.421875 
Q 21.96875 7.515625 27.59375 7.515625 
L 36.8125 7.515625 
L 36.8125 0 
L 27.59375 0 
Q 17.1875 0 13.234375 3.875 
Q 9.28125 7.765625 9.28125 18.015625 
L 9.28125 47.703125 
L 2.6875 47.703125 
L 2.6875 54.6875 
L 9.28125 54.6875 
L 9.28125 70.21875 
z
" id="DejaVuSans-116"/>
      <path d="M 41.109375 46.296875 
Q 39.59375 47.171875 37.8125 47.578125 
Q 36.03125 48 33.890625 48 
Q 26.265625 48 22.1875 43.046875 
Q 18.109375 38.09375 18.109375 28.8125 
L 18.109375 0 
L 9.078125 0 
L 9.078125 54.6875 
L 18.109375 54.6875 
L 18.109375 46.1875 
Q 20.953125 51.171875 25.484375 53.578125 
Q 30.03125 56 36.53125 56 
Q 37.453125 56 38.578125 55.875 
Q 39.703125 55.765625 41.0625 55.515625 
z
" id="DejaVuSans-114"/>
      <path d="M 32.171875 -5.078125 
Q 28.375 -14.84375 24.75 -17.8125 
Q 21.140625 -20.796875 15.09375 -20.796875 
L 7.90625 -20.796875 
L 7.90625 -13.28125 
L 13.1875 -13.28125 
Q 16.890625 -13.28125 18.9375 -11.515625 
Q 21 -9.765625 23.484375 -3.21875 
L 25.09375 0.875 
L 2.984375 54.6875 
L 12.5 54.6875 
L 29.59375 11.921875 
L 46.6875 54.6875 
L 56.203125 54.6875 
z
" id="DejaVuSans-121"/>
     </defs>
     <g transform="translate(157.425 348.162125)scale(0.16 -0.16)">
      <use xlink:href="#DejaVuSans-76"/>
      <use x="55.712891" xlink:href="#DejaVuSans-97"/>
      <use x="116.992188" xlink:href="#DejaVuSans-112"/>
      <use x="180.46875" xlink:href="#DejaVuSans-108"/>
      <use x="208.251953" xlink:href="#DejaVuSans-97"/>
      <use x="269.53125" xlink:href="#DejaVuSans-99"/>
      <use x="324.511719" xlink:href="#DejaVuSans-105"/>
      <use x="352.294922" xlink:href="#DejaVuSans-97"/>
      <use x="413.574219" xlink:href="#DejaVuSans-110"/>
      <use x="476.953125" xlink:href="#DejaVuSans-32"/>
      <use x="508.740234" xlink:href="#DejaVuSans-99"/>
      <use x="563.720703" xlink:href="#DejaVuSans-101"/>
      <use x="625.244141" xlink:href="#DejaVuSans-110"/>
      <use x="688.623047" xlink:href="#DejaVuSans-116"/>
      <use x="727.832031" xlink:href="#DejaVuSans-114"/>
      <use x="768.945312" xlink:href="#DejaVuSans-97"/>
      <use x="830.224609" xlink:href="#DejaVuSans-108"/>
      <use x="858.007812" xlink:href="#DejaVuSans-105"/>
      <use x="885.791016" xlink:href="#DejaVuSans-116"/>
      <use x="925" xlink:href="#DejaVuSans-121"/>
     </g>
    </g>
   </g>
   <g id="matplotlib.axis_2">
    <g id="ytick_1">
     <g id="line2d_13">
      <path clip-path="url(#p13db750ce7)" d="M 57.6 295.766641 
L 414.72 295.766641 
" style="fill:none;stroke:#b0b0b0;stroke-linecap:square;stroke-width:0.8;"/>
     </g>
     <g id="line2d_14">
      <defs>
       <path d="M 0 0 
L -3.5 0 
" id="m0cd0538b7c" style="stroke:#000000;stroke-width:0.8;"/>
      </defs>
      <g>
       <use style="stroke:#000000;stroke-width:0.8;" x="57.6" xlink:href="#m0cd0538b7c" y="295.766641"/>
      </g>
     </g>
     <g id="text_8">
      <!-- 0.00 -->
      <defs>
       <path d="M 10.203125 18.890625 
L 27.78125 18.890625 
L 27.78125 0 
L 10.203125 0 
z
" id="DejaVuSans-Bold-46"/>
      </defs>
      <g transform="translate(6.190625 302.605235)scale(0.18 -0.18)">
       <use xlink:href="#DejaVuSans-Bold-48"/>
       <use x="69.580078" xlink:href="#DejaVuSans-Bold-46"/>
       <use x="107.568359" xlink:href="#DejaVuSans-Bold-48"/>
       <use x="177.148438" xlink:href="#DejaVuSans-Bold-48"/>
      </g>
     </g>
    </g>
    <g id="ytick_2">
     <g id="line2d_15">
      <path clip-path="url(#p13db750ce7)" d="M 57.6 245.146541 
L 414.72 245.146541 
" style="fill:none;stroke:#b0b0b0;stroke-linecap:square;stroke-width:0.8;"/>
     </g>
     <g id="line2d_16">
      <g>
       <use style="stroke:#000000;stroke-width:0.8;" x="57.6" xlink:href="#m0cd0538b7c" y="245.146541"/>
      </g>
     </g>
     <g id="text_9">
      <!-- 0.05 -->
      <defs>
       <path d="M 10.59375 72.90625 
L 57.328125 72.90625 
L 57.328125 59.078125 
L 25.59375 59.078125 
L 25.59375 47.796875 
Q 27.734375 48.390625 29.90625 48.703125 
Q 32.078125 49.03125 34.421875 49.03125 
Q 47.75 49.03125 55.171875 42.359375 
Q 62.59375 35.6875 62.59375 23.78125 
Q 62.59375 11.96875 54.515625 5.265625 
Q 46.4375 -1.421875 32.078125 -1.421875 
Q 25.875 -1.421875 19.796875 -0.21875 
Q 13.71875 0.984375 7.71875 3.421875 
L 7.71875 18.21875 
Q 13.671875 14.796875 19.015625 13.078125 
Q 24.359375 11.375 29.109375 11.375 
Q 35.9375 11.375 39.859375 14.71875 
Q 43.796875 18.0625 43.796875 23.78125 
Q 43.796875 29.546875 39.859375 32.859375 
Q 35.9375 36.1875 29.109375 36.1875 
Q 25.046875 36.1875 20.453125 35.125 
Q 15.875 34.078125 10.59375 31.890625 
z
" id="DejaVuSans-Bold-53"/>
      </defs>
      <g transform="translate(6.190625 251.985135)scale(0.18 -0.18)">
       <use xlink:href="#DejaVuSans-Bold-48"/>
       <use x="69.580078" xlink:href="#DejaVuSans-Bold-46"/>
       <use x="107.568359" xlink:href="#DejaVuSans-Bold-48"/>
       <use x="177.148438" xlink:href="#DejaVuSans-Bold-53"/>
      </g>
     </g>
    </g>
    <g id="ytick_3">
     <g id="line2d_17">
      <path clip-path="url(#p13db750ce7)" d="M 57.6 194.526442 
L 414.72 194.526442 
" style="fill:none;stroke:#b0b0b0;stroke-linecap:square;stroke-width:0.8;"/>
     </g>
     <g id="line2d_18">
      <g>
       <use style="stroke:#000000;stroke-width:0.8;" x="57.6" xlink:href="#m0cd0538b7c" y="194.526442"/>
      </g>
     </g>
     <g id="text_10">
      <!-- 0.10 -->
      <g transform="translate(6.190625 201.365035)scale(0.18 -0.18)">
       <use xlink:href="#DejaVuSans-Bold-48"/>
       <use x="69.580078" xlink:href="#DejaVuSans-Bold-46"/>
       <use x="107.568359" xlink:href="#DejaVuSans-Bold-49"/>
       <use x="177.148438" xlink:href="#DejaVuSans-Bold-48"/>
      </g>
     </g>
    </g>
    <g id="ytick_4">
     <g id="line2d_19">
      <path clip-path="url(#p13db750ce7)" d="M 57.6 143.906342 
L 414.72 143.906342 
" style="fill:none;stroke:#b0b0b0;stroke-linecap:square;stroke-width:0.8;"/>
     </g>
     <g id="line2d_20">
      <g>
       <use style="stroke:#000000;stroke-width:0.8;" x="57.6" xlink:href="#m0cd0538b7c" y="143.906342"/>
      </g>
     </g>
     <g id="text_11">
      <!-- 0.15 -->
      <g transform="translate(6.190625 150.744936)scale(0.18 -0.18)">
       <use xlink:href="#DejaVuSans-Bold-48"/>
       <use x="69.580078" xlink:href="#DejaVuSans-Bold-46"/>
       <use x="107.568359" xlink:href="#DejaVuSans-Bold-49"/>
       <use x="177.148438" xlink:href="#DejaVuSans-Bold-53"/>
      </g>
     </g>
    </g>
    <g id="ytick_5">
     <g id="line2d_21">
      <path clip-path="url(#p13db750ce7)" d="M 57.6 93.286242 
L 414.72 93.286242 
" style="fill:none;stroke:#b0b0b0;stroke-linecap:square;stroke-width:0.8;"/>
     </g>
     <g id="line2d_22">
      <g>
       <use style="stroke:#000000;stroke-width:0.8;" x="57.6" xlink:href="#m0cd0538b7c" y="93.286242"/>
      </g>
     </g>
     <g id="text_12">
      <!-- 0.20 -->
      <g transform="translate(6.190625 100.124836)scale(0.18 -0.18)">
       <use xlink:href="#DejaVuSans-Bold-48"/>
       <use x="69.580078" xlink:href="#DejaVuSans-Bold-46"/>
       <use x="107.568359" xlink:href="#DejaVuSans-Bold-50"/>
       <use x="177.148438" xlink:href="#DejaVuSans-Bold-48"/>
      </g>
     </g>
    </g>
    <g id="ytick_6">
     <g id="line2d_23">
      <path clip-path="url(#p13db750ce7)" d="M 57.6 42.666142 
L 414.72 42.666142 
" style="fill:none;stroke:#b0b0b0;stroke-linecap:square;stroke-width:0.8;"/>
     </g>
     <g id="line2d_24">
      <g>
       <use style="stroke:#000000;stroke-width:0.8;" x="57.6" xlink:href="#m0cd0538b7c" y="42.666142"/>
      </g>
     </g>
     <g id="text_13">
      <!-- 0.25 -->
      <g transform="translate(6.190625 49.504736)scale(0.18 -0.18)">
       <use xlink:href="#DejaVuSans-Bold-48"/>
       <use x="69.580078" xlink:href="#DejaVuSans-Bold-46"/>
       <use x="107.568359" xlink:href="#DejaVuSans-Bold-50"/>
       <use x="177.148438" xlink:href="#DejaVuSans-Bold-53"/>
      </g>
     </g>
    </g>
    <g id="text_14">
     <!-- Probability density -->
     <defs>
      <path d="M 19.671875 64.796875 
L 19.671875 37.40625 
L 32.078125 37.40625 
Q 38.96875 37.40625 42.71875 40.96875 
Q 46.484375 44.53125 46.484375 51.125 
Q 46.484375 57.671875 42.71875 61.234375 
Q 38.96875 64.796875 32.078125 64.796875 
z
M 9.8125 72.90625 
L 32.078125 72.90625 
Q 44.34375 72.90625 50.609375 67.359375 
Q 56.890625 61.8125 56.890625 51.125 
Q 56.890625 40.328125 50.609375 34.8125 
Q 44.34375 29.296875 32.078125 29.296875 
L 19.671875 29.296875 
L 19.671875 0 
L 9.8125 0 
z
" id="DejaVuSans-80"/>
      <path d="M 30.609375 48.390625 
Q 23.390625 48.390625 19.1875 42.75 
Q 14.984375 37.109375 14.984375 27.296875 
Q 14.984375 17.484375 19.15625 11.84375 
Q 23.34375 6.203125 30.609375 6.203125 
Q 37.796875 6.203125 41.984375 11.859375 
Q 46.1875 17.53125 46.1875 27.296875 
Q 46.1875 37.015625 41.984375 42.703125 
Q 37.796875 48.390625 30.609375 48.390625 
z
M 30.609375 56 
Q 42.328125 56 49.015625 48.375 
Q 55.71875 40.765625 55.71875 27.296875 
Q 55.71875 13.875 49.015625 6.21875 
Q 42.328125 -1.421875 30.609375 -1.421875 
Q 18.84375 -1.421875 12.171875 6.21875 
Q 5.515625 13.875 5.515625 27.296875 
Q 5.515625 40.765625 12.171875 48.375 
Q 18.84375 56 30.609375 56 
z
" id="DejaVuSans-111"/>
      <path d="M 48.6875 27.296875 
Q 48.6875 37.203125 44.609375 42.84375 
Q 40.53125 48.484375 33.40625 48.484375 
Q 26.265625 48.484375 22.1875 42.84375 
Q 18.109375 37.203125 18.109375 27.296875 
Q 18.109375 17.390625 22.1875 11.75 
Q 26.265625 6.109375 33.40625 6.109375 
Q 40.53125 6.109375 44.609375 11.75 
Q 48.6875 17.390625 48.6875 27.296875 
z
M 18.109375 46.390625 
Q 20.953125 51.265625 25.265625 53.625 
Q 29.59375 56 35.59375 56 
Q 45.5625 56 51.78125 48.09375 
Q 58.015625 40.1875 58.015625 27.296875 
Q 58.015625 14.40625 51.78125 6.484375 
Q 45.5625 -1.421875 35.59375 -1.421875 
Q 29.59375 -1.421875 25.265625 0.953125 
Q 20.953125 3.328125 18.109375 8.203125 
L 18.109375 0 
L 9.078125 0 
L 9.078125 75.984375 
L 18.109375 75.984375 
z
" id="DejaVuSans-98"/>
      <path d="M 45.40625 46.390625 
L 45.40625 75.984375 
L 54.390625 75.984375 
L 54.390625 0 
L 45.40625 0 
L 45.40625 8.203125 
Q 42.578125 3.328125 38.25 0.953125 
Q 33.9375 -1.421875 27.875 -1.421875 
Q 17.96875 -1.421875 11.734375 6.484375 
Q 5.515625 14.40625 5.515625 27.296875 
Q 5.515625 40.1875 11.734375 48.09375 
Q 17.96875 56 27.875 56 
Q 33.9375 56 38.25 53.625 
Q 42.578125 51.265625 45.40625 46.390625 
z
M 14.796875 27.296875 
Q 14.796875 17.390625 18.875 11.75 
Q 22.953125 6.109375 30.078125 6.109375 
Q 37.203125 6.109375 41.296875 11.75 
Q 45.40625 17.390625 45.40625 27.296875 
Q 45.40625 37.203125 41.296875 42.84375 
Q 37.203125 48.484375 30.078125 48.484375 
Q 22.953125 48.484375 18.875 42.84375 
Q 14.796875 37.203125 14.796875 27.296875 
z
" id="DejaVuSans-100"/>
      <path d="M 44.28125 53.078125 
L 44.28125 44.578125 
Q 40.484375 46.53125 36.375 47.5 
Q 32.28125 48.484375 27.875 48.484375 
Q 21.1875 48.484375 17.84375 46.4375 
Q 14.5 44.390625 14.5 40.28125 
Q 14.5 37.15625 16.890625 35.375 
Q 19.28125 33.59375 26.515625 31.984375 
L 29.59375 31.296875 
Q 39.15625 29.25 43.1875 25.515625 
Q 47.21875 21.78125 47.21875 15.09375 
Q 47.21875 7.46875 41.1875 3.015625 
Q 35.15625 -1.421875 24.609375 -1.421875 
Q 20.21875 -1.421875 15.453125 -0.5625 
Q 10.6875 0.296875 5.421875 2 
L 5.421875 11.28125 
Q 10.40625 8.6875 15.234375 7.390625 
Q 20.0625 6.109375 24.8125 6.109375 
Q 31.15625 6.109375 34.5625 8.28125 
Q 37.984375 10.453125 37.984375 14.40625 
Q 37.984375 18.0625 35.515625 20.015625 
Q 33.0625 21.96875 24.703125 23.78125 
L 21.578125 24.515625 
Q 13.234375 26.265625 9.515625 29.90625 
Q 5.8125 33.546875 5.8125 39.890625 
Q 5.8125 47.609375 11.28125 51.796875 
Q 16.75 56 26.8125 56 
Q 31.78125 56 36.171875 55.265625 
Q 40.578125 54.546875 44.28125 53.078125 
z
" id="DejaVuSans-115"/>
     </defs>
     <g transform="translate(-1.136875 249.0055)rotate(-90)scale(0.16 -0.16)">
      <use xlink:href="#DejaVuSans-80"/>
      <use x="60.287109" xlink:href="#DejaVuSans-114"/>
      <use x="101.369141" xlink:href="#DejaVuSans-111"/>
      <use x="162.550781" xlink:href="#DejaVuSans-98"/>
      <use x="226.027344" xlink:href="#DejaVuSans-97"/>
      <use x="287.306641" xlink:href="#DejaVuSans-98"/>
      <use x="350.783203" xlink:href="#DejaVuSans-105"/>
      <use x="378.566406" xlink:href="#DejaVuSans-108"/>
      <use x="406.349609" xlink:href="#DejaVuSans-105"/>
      <use x="434.132812" xlink:href="#DejaVuSans-116"/>
      <use x="473.341797" xlink:href="#DejaVuSans-121"/>
      <use x="532.521484" xlink:href="#DejaVuSans-32"/>
      <use x="564.308594" xlink:href="#DejaVuSans-100"/>
      <use x="627.785156" xlink:href="#DejaVuSans-101"/>
      <use x="689.308594" xlink:href="#DejaVuSans-110"/>
      <use x="752.6875" xlink:href="#DejaVuSans-115"/>
      <use x="804.787109" xlink:href="#DejaVuSans-105"/>
      <use x="832.570312" xlink:href="#DejaVuSans-116"/>
      <use x="871.779297" xlink:href="#DejaVuSans-121"/>
     </g>
    </g>
   </g>
   <g id="line2d_25">
    <path clip-path="url(#p13db750ce7)" d="M 205.610533 290.161087 
L 203.082948 284.927022 
L 201.862516 283.126944 
L 199.844018 280.790717 
L 198.901032 279.293238 
L 198.028133 277.384336 
L 197.009374 274.395882 
L 196.19328 271.330248 
L 194.982465 265.445481 
L 194.363156 261.698706 
L 192.865372 250.251904 
L 191.568717 237.638221 
L 189.774747 217.395003 
L 186.393055 176.663467 
L 184.870624 155.00322 
L 181.673738 108.09136 
L 180.456912 94.216891 
L 179.269115 83.08047 
L 178.094712 74.045311 
L 176.983689 67.082956 
L 175.826038 61.212239 
L 174.80855 57.138256 
L 174.050642 54.929147 
L 173.504666 53.93281 
L 173.121853 53.603793 
L 172.798548 53.597564 
L 172.556219 53.770027 
L 172.238985 54.239355 
L 171.796626 55.377166 
L 171.286094 57.411826 
L 170.656545 60.979983 
L 169.918839 66.56384 
L 169.008753 75.292657 
L 167.905776 88.173189 
L 166.627033 105.861059 
L 165.166764 129.319469 
L 161.064817 198.027674 
L 159.499752 218.589484 
L 157.851365 237.485287 
L 156.613827 249.58938 
L 155.392386 259.286599 
L 153.932573 268.29316 
L 152.858649 273.736039 
L 151.892417 278.046006 
L 148.724203 287.763668 
L 147.783442 289.341566 
L 145.309585 292.089301 
L 144.293642 292.962394 
L 144.293642 292.962394 
" style="fill:none;stroke:#1f77b4;stroke-linecap:square;stroke-width:1.5;"/>
   </g>
   <g id="line2d_26">
    <path clip-path="url(#p13db750ce7)" d="M 315.019603 295.306802 
L 266.297366 294.780631 
L 256.845783 293.981672 
L 247.296019 292.627776 
L 243.853159 292.44342 
L 240.848215 292.425825 
L 235.503627 291.366 
L 232.871519 289.937687 
L 229.471184 287.484588 
L 227.676048 286.043332 
L 225.553103 284.178914 
L 223.286381 281.817586 
L 221.851914 280.033893 
L 219.516442 276.645532 
L 214.247618 268.577874 
L 209.62999 262.102422 
L 208.146809 259.420182 
L 206.836292 256.554197 
L 205.182801 252.228871 
L 203.397159 246.818413 
L 197.360887 227.811428 
L 194.694895 220.604495 
L 190.873439 210.312673 
L 188.786098 203.996649 
L 186.713837 196.967012 
L 184.638846 189.104165 
L 181.798385 177.303812 
L 179.083355 166.250651 
L 177.749675 161.693969 
L 176.684564 158.820606 
L 175.917931 157.290615 
L 175.219747 156.347605 
L 174.6356 155.915468 
L 174.082755 155.820018 
L 173.520788 156.042415 
L 172.940024 156.611381 
L 172.311034 157.609067 
L 171.637734 159.097187 
L 170.727538 161.740939 
L 169.650264 165.668423 
L 168.309043 171.451316 
L 165.929977 182.905105 
L 161.581713 203.766049 
L 155.26469 232.714825 
L 152.795021 242.993771 
L 150.266086 252.467798 
L 147.589637 261.607845 
L 145.078265 269.476633 
L 143.310164 274.451482 
L 141.385085 279.143534 
L 140.009361 281.975613 
L 138.205781 285.040495 
L 136.707838 287.087869 
L 134.45383 289.489502 
L 131.922754 291.468461 
L 125.854062 294.115376 
L 119.769861 294.992574 
L 119.769861 294.992574 
" style="fill:none;stroke:#ff7f0e;stroke-linecap:square;stroke-width:1.5;"/>
   </g>
   <g id="line2d_27">
    <path clip-path="url(#p13db750ce7)" d="M 315.84536 295.268219 
L 306.650673 295.268199 
L 277.43456 294.070785 
L 273.195495 293.487649 
L 267.216921 293.095655 
L 260.187532 292.524855 
L 257.539143 292.087022 
L 251.84012 290.377802 
L 249.388189 289.288253 
L 246.313093 287.67243 
L 238.724887 283.507532 
L 233.134158 280.791279 
L 231.091953 279.444823 
L 229.237712 277.863998 
L 227.26056 275.747715 
L 224.998697 272.806386 
L 222.677457 269.330574 
L 219.433447 264.032087 
L 213.66356 254.605304 
L 204.404912 239.953145 
L 201.70345 234.922382 
L 198.302957 228.028158 
L 192.212593 215.023612 
L 187.636377 205.492937 
L 185.115079 200.733544 
L 183.207125 197.58076 
L 181.625641 195.386421 
L 180.322198 193.937542 
L 179.1501 192.957206 
L 178.072011 192.351534 
L 177.091112 192.060225 
L 176.219346 192.013593 
L 175.294015 192.182407 
L 174.363201 192.574855 
L 173.407929 193.202244 
L 172.269974 194.233597 
L 171.000502 195.73046 
L 169.755168 197.538242 
L 168.211617 200.232974 
L 166.815534 203.100083 
L 165.40023 206.421428 
L 163.49086 211.538531 
L 161.491166 217.580304 
L 158.529398 227.340333 
L 154.319266 241.14599 
L 152.119998 247.630114 
L 149.867226 253.583828 
L 147.493475 259.219244 
L 144.186102 266.412795 
L 140.696776 273.537073 
L 137.899181 278.748183 
L 137.27732 279.810767 
L 135.330222 282.853997 
L 132.307126 286.649456 
L 131.000286 287.94849 
L 128.625439 289.854786 
L 123.714382 292.413871 
L 122.498535 292.841435 
L 120.342559 293.455472 
L 114.701342 294.450504 
L 108.239235 295.05096 
L 108.239235 295.05096 
" style="fill:none;stroke:#2ca02c;stroke-linecap:square;stroke-width:1.5;"/>
   </g>
   <g id="line2d_28">
    <path clip-path="url(#p13db750ce7)" d="M 327.461388 295.341468 
L 315.022221 295.102248 
L 311.298652 295.145848 
L 289.481117 294.268 
L 280.575692 292.937348 
L 273.811979 291.965849 
L 269.125775 290.986706 
L 266.464229 290.263756 
L 260.908481 288.403358 
L 253.702794 285.643714 
L 248.384641 283.421844 
L 241.172615 280.106697 
L 237.354659 278.195926 
L 234.560254 276.53956 
L 232.409425 274.999094 
L 230.752851 273.612622 
L 228.369971 271.287623 
L 226.116573 268.751051 
L 222.858105 264.667816 
L 216.893101 257.077076 
L 213.770285 253.512491 
L 206.188774 245.078246 
L 203.796468 241.94073 
L 201.252307 238.213197 
L 198.302051 233.450001 
L 193.930924 225.905795 
L 189.918566 219.141324 
L 187.67308 215.766142 
L 185.737646 213.261272 
L 184.118963 211.525225 
L 182.639501 210.257868 
L 181.364034 209.421177 
L 179.962789 208.776829 
L 178.753313 208.448415 
L 177.430071 208.324596 
L 176.108241 208.44073 
L 174.729594 208.813777 
L 173.358209 209.44082 
L 171.99762 210.319557 
L 170.595734 211.498183 
L 169.232915 212.913284 
L 167.646837 214.891328 
L 166.000356 217.303291 
L 164.148998 220.404252 
L 161.698719 225.008882 
L 158.493186 231.559094 
L 147.537269 254.255265 
L 142.67937 263.724722 
L 139.1875 270.062976 
L 136.775085 274.090506 
L 134.078205 278.167402 
L 131.461834 281.634895 
L 130.531633 282.743895 
L 127.761102 285.649359 
L 125.452875 287.619055 
L 122.786569 289.421082 
L 120.572808 290.586373 
L 118.401992 291.498765 
L 113.300059 293.056915 
L 109.171023 293.958618 
L 97.554687 295.247545 
L 97.554687 295.247545 
" style="fill:none;stroke:#d62728;stroke-linecap:square;stroke-width:1.5;"/>
   </g>
   <g id="line2d_29">
    <path clip-path="url(#p13db750ce7)" d="M 331.853567 294.968927 
L 325.478043 294.846204 
L 301.205507 294.688753 
L 289.600344 293.524207 
L 278.863725 291.358201 
L 272.391992 290.303108 
L 267.153666 288.992718 
L 262.45046 287.191162 
L 257.692874 284.973962 
L 250.03218 281.130181 
L 243.532891 277.612232 
L 234.662174 272.559602 
L 231.417374 270.408267 
L 229.234733 268.697751 
L 227.021418 266.661357 
L 224.772989 264.231093 
L 222.737205 261.706222 
L 220.070603 257.979139 
L 216.603929 252.64409 
L 211.03711 243.999252 
L 208.468225 240.421658 
L 206.038852 237.442755 
L 203.913626 235.190985 
L 201.946263 233.389252 
L 199.353485 231.3623 
L 196.572552 229.484618 
L 184.006061 221.568649 
L 181.798975 220.472073 
L 180.098717 219.860292 
L 178.522959 219.533133 
L 177.091451 219.474791 
L 175.74732 219.653679 
L 174.466268 220.052215 
L 173.18997 220.681331 
L 171.936408 221.529045 
L 170.494119 222.783363 
L 168.969896 224.418929 
L 167.377895 226.437038 
L 165.446317 229.245284 
L 162.90549 233.376732 
L 153.11227 249.845851 
L 150.138434 254.151071 
L 146.885379 258.462206 
L 136.999463 270.896699 
L 132.063611 276.986025 
L 128.753698 280.707133 
L 126.781413 282.7135 
L 123.90547 285.320069 
L 121.345292 287.314706 
L 120.26542 288.065306 
L 118.050429 289.441059 
L 115.250046 290.876524 
L 106.415054 293.498593 
L 102.733794 294.006768 
L 92.046568 294.953022 
L 92.046568 294.953022 
" style="fill:none;stroke:#9467bd;stroke-linecap:square;stroke-width:1.5;"/>
   </g>
   <g id="line2d_30">
    <path clip-path="url(#p13db750ce7)" d="M 333.519972 294.913751 
L 325.432753 294.374001 
L 318.545602 294.137393 
L 303.931193 294.160116 
L 294.775543 293.470503 
L 285.955311 292.061205 
L 280.492743 290.954499 
L 274.707675 289.530194 
L 268.439163 287.538072 
L 264.467771 285.983627 
L 260.207258 284.076992 
L 253.862577 280.959195 
L 245.276854 276.801749 
L 239.83727 274.120383 
L 236.336003 272.133417 
L 233.40585 270.210062 
L 231.478349 268.793615 
L 228.673496 266.503571 
L 225.112913 263.189146 
L 222.259498 260.192213 
L 219.093933 256.516897 
L 215.355175 251.772266 
L 203.036543 235.72655 
L 200.466149 232.934989 
L 198.192335 230.810832 
L 196.31454 229.341895 
L 194.388228 228.120186 
L 192.529322 227.211418 
L 190.608777 226.529386 
L 188.778943 226.090576 
L 186.558155 225.786039 
L 184.072602 225.688013 
L 181.629864 225.818109 
L 179.294263 226.169183 
L 177.11189 226.730991 
L 175.054894 227.493312 
L 173.038637 228.468703 
L 170.834662 229.781489 
L 168.350635 231.530367 
L 165.492964 233.830625 
L 162.601885 236.435117 
L 159.813734 239.245696 
L 157.608402 241.734417 
L 154.922502 245.152058 
L 152.238848 249.01824 
L 149.362266 253.592978 
L 140.778722 267.568615 
L 138.473075 270.746725 
L 136.845224 272.747859 
L 134.932964 274.840626 
L 132.888093 276.795095 
L 130.254212 278.959269 
L 128.049635 280.549908 
L 124.806961 282.678805 
L 116.150432 287.957709 
L 115.914407 288.095198 
L 109.735042 291.366579 
L 107.681407 292.252956 
L 90.078399 295.158387 
L 83.931211 295.275775 
L 83.931211 295.275775 
" style="fill:none;stroke:#8c564b;stroke-linecap:square;stroke-width:1.5;"/>
   </g>
   <g id="line2d_31">
    <path clip-path="url(#p13db750ce7)" d="M 391.298193 295.488 
L 372.571453 295.47898 
L 342.799737 295.15005 
L 325.057476 294.698977 
L 318.323545 294.263492 
L 304.436156 293.192445 
L 295.13 292.714347 
L 289.55473 292.094925 
L 286.988109 291.619971 
L 282.393027 290.426414 
L 277.691872 288.814004 
L 270.12962 285.816113 
L 259.79946 281.513361 
L 255.594024 279.51468 
L 251.325998 277.240451 
L 232.396812 266.469534 
L 229.534175 264.58529 
L 226.465425 262.282017 
L 224.151205 260.325924 
L 220.712468 257.082839 
L 216.756424 252.965277 
L 207.320721 242.963301 
L 204.350122 240.232809 
L 201.77708 238.161011 
L 199.270708 236.432072 
L 196.956996 235.090521 
L 194.480776 233.90866 
L 191.795806 232.889935 
L 189.064415 232.09172 
L 185.979759 231.434205 
L 183.008093 231.0249 
L 180.136451 230.85308 
L 177.609933 230.923959 
L 175.352065 231.210952 
L 173.342754 231.686255 
L 171.4054 232.377256 
L 169.607551 233.250062 
L 167.823611 234.355289 
L 166.036094 235.711221 
L 164.077328 237.480914 
L 162.001165 239.6611 
L 159.831545 242.23124 
L 156.717436 246.314249 
L 152.164248 252.709878 
L 146.586426 260.448054 
L 143.249627 264.7375 
L 140.052105 268.508387 
L 136.957434 271.810821 
L 133.909286 274.73056 
L 130.852715 277.350729 
L 126.762268 280.442504 
L 123.380931 282.702728 
L 119.889226 284.806849 
L 115.147412 287.349052 
L 110.209252 289.648361 
L 106.659352 291.073909 
L 101.392468 292.782508 
L 96.955014 293.80423 
L 85.168324 295.001445 
L 80.782131 295.180221 
L 80.782131 295.180221 
" style="fill:none;stroke:#e377c2;stroke-linecap:square;stroke-width:1.5;"/>
   </g>
   <g id="line2d_32">
    <path clip-path="url(#p13db750ce7)" d="M 398.487273 295.407319 
L 364.131874 294.810217 
L 353.17183 294.901837 
L 343.746846 294.858881 
L 310.399656 293.947558 
L 302.154996 293.29272 
L 291.812051 292.025119 
L 288.754358 291.542705 
L 282.979078 290.293064 
L 280.788417 289.646622 
L 279.241373 289.119953 
L 274.986321 287.355233 
L 271.229212 285.436599 
L 266.442891 282.643967 
L 247.704017 271.314233 
L 242.8168 268.721149 
L 238.692443 266.79699 
L 233.057166 264.451019 
L 228.921157 262.633231 
L 225.944168 261.067298 
L 223.423547 259.47895 
L 221.630406 258.177537 
L 218.668396 255.708448 
L 215.7693 252.954921 
L 211.26212 248.314545 
L 207.280618 244.333674 
L 205.008642 242.30764 
L 202.521942 240.394849 
L 200.387089 239.041691 
L 198.530501 238.086564 
L 196.371249 237.219635 
L 194.003286 236.530222 
L 191.417605 236.019615 
L 188.427315 235.640628 
L 183.942855 235.316327 
L 180.172512 235.248947 
L 177.248332 235.420368 
L 174.878438 235.784075 
L 172.645166 236.366789 
L 170.547752 237.160842 
L 168.5903 238.135649 
L 166.495469 239.43622 
L 164.705402 240.756176 
L 162.330181 242.790427 
L 160.000882 245.07249 
L 157.203847 248.135811 
L 154.00115 251.978165 
L 149.061728 258.278518 
L 143.82161 264.880197 
L 140.129354 269.150955 
L 137.118286 272.285249 
L 134.275025 274.925134 
L 131.033504 277.559863 
L 128.000143 279.696844 
L 124.730013 281.704661 
L 120.823917 283.799632 
L 117.205856 285.535954 
L 113.155455 287.318716 
L 107.09496 289.707083 
L 102.220566 291.32859 
L 97.15617 292.654063 
L 92.880963 293.474007 
L 82.265118 294.612283 
L 73.832727 295.095953 
L 73.832727 295.095953 
" style="fill:none;stroke:#7f7f7f;stroke-linecap:square;stroke-width:1.5;"/>
   </g>
   <g id="patch_3">
    <path d="M 57.6 307.584 
L 57.6 41.472 
" style="fill:none;stroke:#000000;stroke-linecap:square;stroke-linejoin:miter;stroke-width:0.8;"/>
   </g>
   <g id="patch_4">
    <path d="M 414.72 307.584 
L 414.72 41.472 
" style="fill:none;stroke:#000000;stroke-linecap:square;stroke-linejoin:miter;stroke-width:0.8;"/>
   </g>
   <g id="patch_5">
    <path d="M 57.6 307.584 
L 414.72 307.584 
" style="fill:none;stroke:#000000;stroke-linecap:square;stroke-linejoin:miter;stroke-width:0.8;"/>
   </g>
   <g id="patch_6">
    <path d="M 57.6 41.472 
L 414.72 41.472 
" style="fill:none;stroke:#000000;stroke-linecap:square;stroke-linejoin:miter;stroke-width:0.8;"/>
   </g>
   <g id="legend_1">
    <g id="patch_7">
     <path d="M 195.499688 187.975125 
L 402.12 187.975125 
Q 405.72 187.975125 405.72 184.375125 
L 405.72 54.072 
Q 405.72 50.472 402.12 50.472 
L 195.499688 50.472 
Q 191.899688 50.472 191.899688 54.072 
L 191.899688 184.375125 
Q 191.899688 187.975125 195.499688 187.975125 
z
" style="fill:#ffffff;opacity:0.8;stroke:#cccccc;stroke-linejoin:miter;"/>
    </g>
    <g id="text_15">
     <!-- Epochs[#] -->
     <defs>
      <path d="M 9.1875 72.90625 
L 59.90625 72.90625 
L 59.90625 58.6875 
L 27.984375 58.6875 
L 27.984375 45.125 
L 58.015625 45.125 
L 58.015625 30.90625 
L 27.984375 30.90625 
L 27.984375 14.203125 
L 60.984375 14.203125 
L 60.984375 0 
L 9.1875 0 
z
" id="DejaVuSans-Bold-69"/>
      <path d="M 25.875 7.90625 
L 25.875 -20.796875 
L 8.40625 -20.796875 
L 8.40625 54.6875 
L 25.875 54.6875 
L 25.875 46.6875 
Q 29.5 51.46875 33.890625 53.734375 
Q 38.28125 56 44 56 
Q 54.109375 56 60.59375 47.96875 
Q 67.09375 39.9375 67.09375 27.296875 
Q 67.09375 14.65625 60.59375 6.609375 
Q 54.109375 -1.421875 44 -1.421875 
Q 38.28125 -1.421875 33.890625 0.84375 
Q 29.5 3.125 25.875 7.90625 
z
M 37.5 43.3125 
Q 31.890625 43.3125 28.875 39.1875 
Q 25.875 35.0625 25.875 27.296875 
Q 25.875 19.53125 28.875 15.40625 
Q 31.890625 11.28125 37.5 11.28125 
Q 43.109375 11.28125 46.0625 15.375 
Q 49.03125 19.484375 49.03125 27.296875 
Q 49.03125 35.109375 46.0625 39.203125 
Q 43.109375 43.3125 37.5 43.3125 
z
" id="DejaVuSans-Bold-112"/>
      <path d="M 34.421875 43.5 
Q 28.609375 43.5 25.5625 39.328125 
Q 22.515625 35.15625 22.515625 27.296875 
Q 22.515625 19.4375 25.5625 15.25 
Q 28.609375 11.078125 34.421875 11.078125 
Q 40.140625 11.078125 43.15625 15.25 
Q 46.1875 19.4375 46.1875 27.296875 
Q 46.1875 35.15625 43.15625 39.328125 
Q 40.140625 43.5 34.421875 43.5 
z
M 34.421875 56 
Q 48.53125 56 56.46875 48.375 
Q 64.40625 40.765625 64.40625 27.296875 
Q 64.40625 13.8125 56.46875 6.1875 
Q 48.53125 -1.421875 34.421875 -1.421875 
Q 20.265625 -1.421875 12.28125 6.1875 
Q 4.296875 13.8125 4.296875 27.296875 
Q 4.296875 40.765625 12.28125 48.375 
Q 20.265625 56 34.421875 56 
z
" id="DejaVuSans-Bold-111"/>
      <path d="M 52.59375 52.984375 
L 52.59375 38.71875 
Q 49.03125 41.15625 45.4375 42.328125 
Q 41.84375 43.5 37.984375 43.5 
Q 30.671875 43.5 26.59375 39.234375 
Q 22.515625 34.96875 22.515625 27.296875 
Q 22.515625 19.625 26.59375 15.34375 
Q 30.671875 11.078125 37.984375 11.078125 
Q 42.09375 11.078125 45.78125 12.296875 
Q 49.46875 13.53125 52.59375 15.921875 
L 52.59375 1.609375 
Q 48.484375 0.09375 44.265625 -0.65625 
Q 40.046875 -1.421875 35.796875 -1.421875 
Q 21 -1.421875 12.640625 6.171875 
Q 4.296875 13.765625 4.296875 27.296875 
Q 4.296875 40.828125 12.640625 48.40625 
Q 21 56 35.796875 56 
Q 40.09375 56 44.265625 55.25 
Q 48.4375 54.5 52.59375 52.984375 
z
" id="DejaVuSans-Bold-99"/>
      <path d="M 63.375 33.296875 
L 63.375 0 
L 45.796875 0 
L 45.796875 5.421875 
L 45.796875 25.390625 
Q 45.796875 32.5625 45.484375 35.25 
Q 45.171875 37.9375 44.390625 39.203125 
Q 43.359375 40.921875 41.59375 41.875 
Q 39.84375 42.828125 37.59375 42.828125 
Q 32.125 42.828125 29 38.59375 
Q 25.875 34.375 25.875 26.90625 
L 25.875 0 
L 8.40625 0 
L 8.40625 75.984375 
L 25.875 75.984375 
L 25.875 46.6875 
Q 29.828125 51.46875 34.265625 53.734375 
Q 38.71875 56 44.09375 56 
Q 53.5625 56 58.46875 50.1875 
Q 63.375 44.390625 63.375 33.296875 
z
" id="DejaVuSans-Bold-104"/>
      <path d="M 51.125 52.984375 
L 51.125 39.703125 
Q 45.515625 42.046875 40.28125 43.21875 
Q 35.0625 44.390625 30.421875 44.390625 
Q 25.4375 44.390625 23.015625 43.140625 
Q 20.609375 41.890625 20.609375 39.3125 
Q 20.609375 37.203125 22.4375 36.078125 
Q 24.265625 34.96875 29 34.421875 
L 32.078125 33.984375 
Q 45.515625 32.28125 50.140625 28.375 
Q 54.78125 24.46875 54.78125 16.109375 
Q 54.78125 7.375 48.328125 2.96875 
Q 41.890625 -1.421875 29.109375 -1.421875 
Q 23.6875 -1.421875 17.890625 -0.5625 
Q 12.109375 0.296875 6 2 
L 6 15.28125 
Q 11.234375 12.75 16.71875 11.46875 
Q 22.21875 10.203125 27.875 10.203125 
Q 33.015625 10.203125 35.59375 11.609375 
Q 38.1875 13.03125 38.1875 15.828125 
Q 38.1875 18.171875 36.40625 19.3125 
Q 34.625 20.453125 29.296875 21.09375 
L 26.21875 21.484375 
Q 14.546875 22.953125 9.859375 26.90625 
Q 5.171875 30.859375 5.171875 38.921875 
Q 5.171875 47.609375 11.125 51.796875 
Q 17.09375 56 29.390625 56 
Q 34.234375 56 39.546875 55.265625 
Q 44.875 54.546875 51.125 52.984375 
z
" id="DejaVuSans-Bold-115"/>
      <path d="M 8.59375 75.984375 
L 38.921875 75.984375 
L 38.921875 64.984375 
L 25.203125 64.984375 
L 25.203125 -2.203125 
L 38.921875 -2.203125 
L 38.921875 -13.1875 
L 8.59375 -13.1875 
z
" id="DejaVuSans-Bold-91"/>
      <path d="M 44.484375 71.78125 
L 39.796875 52.984375 
L 52.6875 52.984375 
L 57.421875 71.78125 
L 68.21875 71.78125 
L 63.484375 52.984375 
L 77 52.984375 
L 77 42.578125 
L 60.890625 42.578125 
L 57.515625 29.203125 
L 71.390625 29.203125 
L 71.390625 18.703125 
L 54.984375 18.703125 
L 50.296875 0 
L 39.5 0 
L 44.1875 18.703125 
L 31.296875 18.703125 
L 26.609375 0 
L 15.71875 0 
L 20.40625 18.703125 
L 6.78125 18.703125 
L 6.78125 29.203125 
L 22.796875 29.203125 
L 26.21875 42.578125 
L 12.40625 42.578125 
L 12.40625 52.984375 
L 28.90625 52.984375 
L 33.59375 71.78125 
z
M 50 42.578125 
L 37.109375 42.578125 
L 33.6875 29.203125 
L 46.578125 29.203125 
z
" id="DejaVuSans-Bold-35"/>
      <path d="M 37.109375 -13.1875 
L 6.78125 -13.1875 
L 6.78125 -2.203125 
L 20.515625 -2.203125 
L 20.515625 64.984375 
L 6.78125 64.984375 
L 6.78125 75.984375 
L 37.109375 75.984375 
z
" id="DejaVuSans-Bold-93"/>
     </defs>
     <g transform="translate(247.169531 71.349187)scale(0.18 -0.18)">
      <use xlink:href="#DejaVuSans-Bold-69"/>
      <use x="68.310547" xlink:href="#DejaVuSans-Bold-112"/>
      <use x="139.892578" xlink:href="#DejaVuSans-Bold-111"/>
      <use x="208.59375" xlink:href="#DejaVuSans-Bold-99"/>
      <use x="267.871094" xlink:href="#DejaVuSans-Bold-104"/>
      <use x="339.0625" xlink:href="#DejaVuSans-Bold-115"/>
      <use x="398.583984" xlink:href="#DejaVuSans-Bold-91"/>
      <use x="444.287109" xlink:href="#DejaVuSans-Bold-35"/>
      <use x="528.076172" xlink:href="#DejaVuSans-Bold-93"/>
     </g>
    </g>
    <g id="line2d_33">
     <path d="M 199.099688 91.469812 
L 235.099688 91.469812 
" style="fill:none;stroke:#1f77b4;stroke-linecap:square;stroke-width:1.5;"/>
    </g>
    <g id="line2d_34"/>
    <g id="text_16">
     <!-- 0 -->
     <g transform="translate(249.499688 97.769812)scale(0.18 -0.18)">
      <use xlink:href="#DejaVuSans-Bold-48"/>
     </g>
    </g>
    <g id="line2d_35">
     <path d="M 199.099688 117.890437 
L 235.099688 117.890437 
" style="fill:none;stroke:#ff7f0e;stroke-linecap:square;stroke-width:1.5;"/>
    </g>
    <g id="line2d_36"/>
    <g id="text_17">
     <!-- 25 -->
     <g transform="translate(249.499688 124.190437)scale(0.18 -0.18)">
      <use xlink:href="#DejaVuSans-Bold-50"/>
      <use x="69.580078" xlink:href="#DejaVuSans-Bold-53"/>
     </g>
    </g>
    <g id="line2d_37">
     <path d="M 199.099688 144.311062 
L 235.099688 144.311062 
" style="fill:none;stroke:#2ca02c;stroke-linecap:square;stroke-width:1.5;"/>
    </g>
    <g id="line2d_38"/>
    <g id="text_18">
     <!-- 50 -->
     <g transform="translate(249.499688 150.611062)scale(0.18 -0.18)">
      <use xlink:href="#DejaVuSans-Bold-53"/>
      <use x="69.580078" xlink:href="#DejaVuSans-Bold-48"/>
     </g>
    </g>
    <g id="line2d_39">
     <path d="M 199.099688 170.731687 
L 235.099688 170.731687 
" style="fill:none;stroke:#d62728;stroke-linecap:square;stroke-width:1.5;"/>
    </g>
    <g id="line2d_40"/>
    <g id="text_19">
     <!-- 75 -->
     <defs>
      <path d="M 6.6875 72.90625 
L 61.625 72.90625 
L 61.625 62.3125 
L 33.203125 0 
L 14.890625 0 
L 41.796875 59.078125 
L 6.6875 59.078125 
z
" id="DejaVuSans-Bold-55"/>
     </defs>
     <g transform="translate(249.499688 177.031687)scale(0.18 -0.18)">
      <use xlink:href="#DejaVuSans-Bold-55"/>
      <use x="69.580078" xlink:href="#DejaVuSans-Bold-53"/>
     </g>
    </g>
    <g id="line2d_41">
     <path d="M 310.547813 91.469812 
L 346.547813 91.469812 
" style="fill:none;stroke:#9467bd;stroke-linecap:square;stroke-width:1.5;"/>
    </g>
    <g id="line2d_42"/>
    <g id="text_20">
     <!-- 100 -->
     <g transform="translate(360.947812 97.769812)scale(0.18 -0.18)">
      <use xlink:href="#DejaVuSans-Bold-49"/>
      <use x="69.580078" xlink:href="#DejaVuSans-Bold-48"/>
      <use x="139.160156" xlink:href="#DejaVuSans-Bold-48"/>
     </g>
    </g>
    <g id="line2d_43">
     <path d="M 310.547813 117.890437 
L 346.547813 117.890437 
" style="fill:none;stroke:#8c564b;stroke-linecap:square;stroke-width:1.5;"/>
    </g>
    <g id="line2d_44"/>
    <g id="text_21">
     <!-- 125 -->
     <g transform="translate(360.947812 124.190437)scale(0.18 -0.18)">
      <use xlink:href="#DejaVuSans-Bold-49"/>
      <use x="69.580078" xlink:href="#DejaVuSans-Bold-50"/>
      <use x="139.160156" xlink:href="#DejaVuSans-Bold-53"/>
     </g>
    </g>
    <g id="line2d_45">
     <path d="M 310.547813 144.311062 
L 346.547813 144.311062 
" style="fill:none;stroke:#e377c2;stroke-linecap:square;stroke-width:1.5;"/>
    </g>
    <g id="line2d_46"/>
    <g id="text_22">
     <!-- 150 -->
     <g transform="translate(360.947812 150.611062)scale(0.18 -0.18)">
      <use xlink:href="#DejaVuSans-Bold-49"/>
      <use x="69.580078" xlink:href="#DejaVuSans-Bold-53"/>
      <use x="139.160156" xlink:href="#DejaVuSans-Bold-48"/>
     </g>
    </g>
    <g id="line2d_47">
     <path d="M 310.547813 170.731687 
L 346.547813 170.731687 
" style="fill:none;stroke:#7f7f7f;stroke-linecap:square;stroke-width:1.5;"/>
    </g>
    <g id="line2d_48"/>
    <g id="text_23">
     <!-- 175 -->
     <g transform="translate(360.947812 177.031687)scale(0.18 -0.18)">
      <use xlink:href="#DejaVuSans-Bold-49"/>
      <use x="69.580078" xlink:href="#DejaVuSans-Bold-55"/>
      <use x="139.160156" xlink:href="#DejaVuSans-Bold-53"/>
     </g>
    </g>
   </g>
  </g>
 </g>
 <defs>
  <clipPath id="p13db750ce7">
   <rect height="266.112" width="357.12" x="57.6" y="41.472"/>
  </clipPath>
 </defs>
</svg>
