<?xml version="1.0" encoding="utf-8" standalone="no"?>
<!DOCTYPE svg PUBLIC "-//W3C//DTD SVG 1.1//EN"
  "http://www.w3.org/Graphics/SVG/1.1/DTD/svg11.dtd">
<!-- Created with matplotlib (https://matplotlib.org/) -->
<svg height="345.6pt" version="1.1" viewBox="0 0 460.8 345.6" width="460.8pt" xmlns="http://www.w3.org/2000/svg" xmlns:xlink="http://www.w3.org/1999/xlink">
 <defs>
  <style type="text/css">
*{stroke-linecap:butt;stroke-linejoin:round;}
  </style>
 </defs>
 <g id="figure_1">
  <g id="patch_1">
   <path d="M 0 345.6 
L 460.8 345.6 
L 460.8 0 
L 0 0 
z
" style="fill:#ffffff;"/>
  </g>
  <g id="axes_1">
   <g id="patch_2">
    <path d="M 57.6 307.584 
L 414.72 307.584 
L 414.72 41.472 
L 57.6 41.472 
z
" style="fill:#ffffff;"/>
   </g>
   <g id="matplotlib.axis_1">
    <g id="xtick_1">
     <g id="line2d_1">
      <path clip-path="url(#pc0fb626f3d)" d="M 57.6 307.584 
L 57.6 41.472 
" style="fill:none;stroke:#b0b0b0;stroke-linecap:square;stroke-width:0.8;"/>
     </g>
     <g id="line2d_2">
      <defs>
       <path d="M 0 0 
L 0 3.5 
" id="m8db40f971c" style="stroke:#000000;stroke-width:0.8;"/>
      </defs>
      <g>
       <use style="stroke:#000000;stroke-width:0.8;" x="57.6" xlink:href="#m8db40f971c" y="307.584"/>
      </g>
     </g>
     <g id="text_1">
      <!-- −1.0 -->
      <defs>
       <path d="M 10.59375 37.109375 
L 73.1875 37.109375 
L 73.1875 25.59375 
L 10.59375 25.59375 
z
" id="DejaVuSans-Bold-8722"/>
       <path d="M 11.71875 12.984375 
L 28.328125 12.984375 
L 28.328125 60.109375 
L 11.28125 56.59375 
L 11.28125 69.390625 
L 28.21875 72.90625 
L 46.09375 72.90625 
L 46.09375 12.984375 
L 62.703125 12.984375 
L 62.703125 0 
L 11.71875 0 
z
" id="DejaVuSans-Bold-49"/>
       <path d="M 10.203125 18.890625 
L 27.78125 18.890625 
L 27.78125 0 
L 10.203125 0 
z
" id="DejaVuSans-Bold-46"/>
       <path d="M 46 36.53125 
Q 46 50.203125 43.4375 55.78125 
Q 40.875 61.375 34.8125 61.375 
Q 28.765625 61.375 26.171875 55.78125 
Q 23.578125 50.203125 23.578125 36.53125 
Q 23.578125 22.703125 26.171875 17.03125 
Q 28.765625 11.375 34.8125 11.375 
Q 40.828125 11.375 43.40625 17.03125 
Q 46 22.703125 46 36.53125 
z
M 64.796875 36.375 
Q 64.796875 18.265625 56.984375 8.421875 
Q 49.171875 -1.421875 34.8125 -1.421875 
Q 20.40625 -1.421875 12.59375 8.421875 
Q 4.78125 18.265625 4.78125 36.375 
Q 4.78125 54.546875 12.59375 64.375 
Q 20.40625 74.21875 34.8125 74.21875 
Q 49.171875 74.21875 56.984375 64.375 
Q 64.796875 54.546875 64.796875 36.375 
z
" id="DejaVuSans-Bold-48"/>
      </defs>
      <g transform="translate(34.115625 328.261187)scale(0.18 -0.18)">
       <use xlink:href="#DejaVuSans-Bold-8722"/>
       <use x="83.789062" xlink:href="#DejaVuSans-Bold-49"/>
       <use x="153.369141" xlink:href="#DejaVuSans-Bold-46"/>
       <use x="191.357422" xlink:href="#DejaVuSans-Bold-48"/>
      </g>
     </g>
    </g>
    <g id="xtick_2">
     <g id="line2d_3">
      <path clip-path="url(#pc0fb626f3d)" d="M 146.88 307.584 
L 146.88 41.472 
" style="fill:none;stroke:#b0b0b0;stroke-linecap:square;stroke-width:0.8;"/>
     </g>
     <g id="line2d_4">
      <g>
       <use style="stroke:#000000;stroke-width:0.8;" x="146.88" xlink:href="#m8db40f971c" y="307.584"/>
      </g>
     </g>
     <g id="text_2">
      <!-- −0.5 -->
      <defs>
       <path d="M 10.59375 72.90625 
L 57.328125 72.90625 
L 57.328125 59.078125 
L 25.59375 59.078125 
L 25.59375 47.796875 
Q 27.734375 48.390625 29.90625 48.703125 
Q 32.078125 49.03125 34.421875 49.03125 
Q 47.75 49.03125 55.171875 42.359375 
Q 62.59375 35.6875 62.59375 23.78125 
Q 62.59375 11.96875 54.515625 5.265625 
Q 46.4375 -1.421875 32.078125 -1.421875 
Q 25.875 -1.421875 19.796875 -0.21875 
Q 13.71875 0.984375 7.71875 3.421875 
L 7.71875 18.21875 
Q 13.671875 14.796875 19.015625 13.078125 
Q 24.359375 11.375 29.109375 11.375 
Q 35.9375 11.375 39.859375 14.71875 
Q 43.796875 18.0625 43.796875 23.78125 
Q 43.796875 29.546875 39.859375 32.859375 
Q 35.9375 36.1875 29.109375 36.1875 
Q 25.046875 36.1875 20.453125 35.125 
Q 15.875 34.078125 10.59375 31.890625 
z
" id="DejaVuSans-Bold-53"/>
      </defs>
      <g transform="translate(123.395625 328.261187)scale(0.18 -0.18)">
       <use xlink:href="#DejaVuSans-Bold-8722"/>
       <use x="83.789062" xlink:href="#DejaVuSans-Bold-48"/>
       <use x="153.369141" xlink:href="#DejaVuSans-Bold-46"/>
       <use x="191.357422" xlink:href="#DejaVuSans-Bold-53"/>
      </g>
     </g>
    </g>
    <g id="xtick_3">
     <g id="line2d_5">
      <path clip-path="url(#pc0fb626f3d)" d="M 236.16 307.584 
L 236.16 41.472 
" style="fill:none;stroke:#b0b0b0;stroke-linecap:square;stroke-width:0.8;"/>
     </g>
     <g id="line2d_6">
      <g>
       <use style="stroke:#000000;stroke-width:0.8;" x="236.16" xlink:href="#m8db40f971c" y="307.584"/>
      </g>
     </g>
     <g id="text_3">
      <!-- 0.0 -->
      <g transform="translate(220.217344 328.261187)scale(0.18 -0.18)">
       <use xlink:href="#DejaVuSans-Bold-48"/>
       <use x="69.580078" xlink:href="#DejaVuSans-Bold-46"/>
       <use x="107.568359" xlink:href="#DejaVuSans-Bold-48"/>
      </g>
     </g>
    </g>
    <g id="xtick_4">
     <g id="line2d_7">
      <path clip-path="url(#pc0fb626f3d)" d="M 325.44 307.584 
L 325.44 41.472 
" style="fill:none;stroke:#b0b0b0;stroke-linecap:square;stroke-width:0.8;"/>
     </g>
     <g id="line2d_8">
      <g>
       <use style="stroke:#000000;stroke-width:0.8;" x="325.44" xlink:href="#m8db40f971c" y="307.584"/>
      </g>
     </g>
     <g id="text_4">
      <!-- 0.5 -->
      <g transform="translate(309.497344 328.261187)scale(0.18 -0.18)">
       <use xlink:href="#DejaVuSans-Bold-48"/>
       <use x="69.580078" xlink:href="#DejaVuSans-Bold-46"/>
       <use x="107.568359" xlink:href="#DejaVuSans-Bold-53"/>
      </g>
     </g>
    </g>
    <g id="xtick_5">
     <g id="line2d_9">
      <path clip-path="url(#pc0fb626f3d)" d="M 414.72 307.584 
L 414.72 41.472 
" style="fill:none;stroke:#b0b0b0;stroke-linecap:square;stroke-width:0.8;"/>
     </g>
     <g id="line2d_10">
      <g>
       <use style="stroke:#000000;stroke-width:0.8;" x="414.72" xlink:href="#m8db40f971c" y="307.584"/>
      </g>
     </g>
     <g id="text_5">
      <!-- 1.0 -->
      <g transform="translate(398.777344 328.261187)scale(0.18 -0.18)">
       <use xlink:href="#DejaVuSans-Bold-49"/>
       <use x="69.580078" xlink:href="#DejaVuSans-Bold-46"/>
       <use x="107.568359" xlink:href="#DejaVuSans-Bold-48"/>
      </g>
     </g>
    </g>
    <g id="text_6">
     <!-- Laplacian centrality -->
     <defs>
      <path d="M 9.8125 72.90625 
L 19.671875 72.90625 
L 19.671875 8.296875 
L 55.171875 8.296875 
L 55.171875 0 
L 9.8125 0 
z
" id="DejaVuSans-76"/>
      <path d="M 34.28125 27.484375 
Q 23.390625 27.484375 19.1875 25 
Q 14.984375 22.515625 14.984375 16.5 
Q 14.984375 11.71875 18.140625 8.90625 
Q 21.296875 6.109375 26.703125 6.109375 
Q 34.1875 6.109375 38.703125 11.40625 
Q 43.21875 16.703125 43.21875 25.484375 
L 43.21875 27.484375 
z
M 52.203125 31.203125 
L 52.203125 0 
L 43.21875 0 
L 43.21875 8.296875 
Q 40.140625 3.328125 35.546875 0.953125 
Q 30.953125 -1.421875 24.3125 -1.421875 
Q 15.921875 -1.421875 10.953125 3.296875 
Q 6 8.015625 6 15.921875 
Q 6 25.140625 12.171875 29.828125 
Q 18.359375 34.515625 30.609375 34.515625 
L 43.21875 34.515625 
L 43.21875 35.40625 
Q 43.21875 41.609375 39.140625 45 
Q 35.0625 48.390625 27.6875 48.390625 
Q 23 48.390625 18.546875 47.265625 
Q 14.109375 46.140625 10.015625 43.890625 
L 10.015625 52.203125 
Q 14.9375 54.109375 19.578125 55.046875 
Q 24.21875 56 28.609375 56 
Q 40.484375 56 46.34375 49.84375 
Q 52.203125 43.703125 52.203125 31.203125 
z
" id="DejaVuSans-97"/>
      <path d="M 18.109375 8.203125 
L 18.109375 -20.796875 
L 9.078125 -20.796875 
L 9.078125 54.6875 
L 18.109375 54.6875 
L 18.109375 46.390625 
Q 20.953125 51.265625 25.265625 53.625 
Q 29.59375 56 35.59375 56 
Q 45.5625 56 51.78125 48.09375 
Q 58.015625 40.1875 58.015625 27.296875 
Q 58.015625 14.40625 51.78125 6.484375 
Q 45.5625 -1.421875 35.59375 -1.421875 
Q 29.59375 -1.421875 25.265625 0.953125 
Q 20.953125 3.328125 18.109375 8.203125 
z
M 48.6875 27.296875 
Q 48.6875 37.203125 44.609375 42.84375 
Q 40.53125 48.484375 33.40625 48.484375 
Q 26.265625 48.484375 22.1875 42.84375 
Q 18.109375 37.203125 18.109375 27.296875 
Q 18.109375 17.390625 22.1875 11.75 
Q 26.265625 6.109375 33.40625 6.109375 
Q 40.53125 6.109375 44.609375 11.75 
Q 48.6875 17.390625 48.6875 27.296875 
z
" id="DejaVuSans-112"/>
      <path d="M 9.421875 75.984375 
L 18.40625 75.984375 
L 18.40625 0 
L 9.421875 0 
z
" id="DejaVuSans-108"/>
      <path d="M 48.78125 52.59375 
L 48.78125 44.1875 
Q 44.96875 46.296875 41.140625 47.34375 
Q 37.3125 48.390625 33.40625 48.390625 
Q 24.65625 48.390625 19.8125 42.84375 
Q 14.984375 37.3125 14.984375 27.296875 
Q 14.984375 17.28125 19.8125 11.734375 
Q 24.65625 6.203125 33.40625 6.203125 
Q 37.3125 6.203125 41.140625 7.25 
Q 44.96875 8.296875 48.78125 10.40625 
L 48.78125 2.09375 
Q 45.015625 0.34375 40.984375 -0.53125 
Q 36.96875 -1.421875 32.421875 -1.421875 
Q 20.0625 -1.421875 12.78125 6.34375 
Q 5.515625 14.109375 5.515625 27.296875 
Q 5.515625 40.671875 12.859375 48.328125 
Q 20.21875 56 33.015625 56 
Q 37.15625 56 41.109375 55.140625 
Q 45.0625 54.296875 48.78125 52.59375 
z
" id="DejaVuSans-99"/>
      <path d="M 9.421875 54.6875 
L 18.40625 54.6875 
L 18.40625 0 
L 9.421875 0 
z
M 9.421875 75.984375 
L 18.40625 75.984375 
L 18.40625 64.59375 
L 9.421875 64.59375 
z
" id="DejaVuSans-105"/>
      <path d="M 54.890625 33.015625 
L 54.890625 0 
L 45.90625 0 
L 45.90625 32.71875 
Q 45.90625 40.484375 42.875 44.328125 
Q 39.84375 48.1875 33.796875 48.1875 
Q 26.515625 48.1875 22.3125 43.546875 
Q 18.109375 38.921875 18.109375 30.90625 
L 18.109375 0 
L 9.078125 0 
L 9.078125 54.6875 
L 18.109375 54.6875 
L 18.109375 46.1875 
Q 21.34375 51.125 25.703125 53.5625 
Q 30.078125 56 35.796875 56 
Q 45.21875 56 50.046875 50.171875 
Q 54.890625 44.34375 54.890625 33.015625 
z
" id="DejaVuSans-110"/>
      <path id="DejaVuSans-32"/>
      <path d="M 56.203125 29.59375 
L 56.203125 25.203125 
L 14.890625 25.203125 
Q 15.484375 15.921875 20.484375 11.0625 
Q 25.484375 6.203125 34.421875 6.203125 
Q 39.59375 6.203125 44.453125 7.46875 
Q 49.3125 8.734375 54.109375 11.28125 
L 54.109375 2.78125 
Q 49.265625 0.734375 44.1875 -0.34375 
Q 39.109375 -1.421875 33.890625 -1.421875 
Q 20.796875 -1.421875 13.15625 6.1875 
Q 5.515625 13.8125 5.515625 26.8125 
Q 5.515625 40.234375 12.765625 48.109375 
Q 20.015625 56 32.328125 56 
Q 43.359375 56 49.78125 48.890625 
Q 56.203125 41.796875 56.203125 29.59375 
z
M 47.21875 32.234375 
Q 47.125 39.59375 43.09375 43.984375 
Q 39.0625 48.390625 32.421875 48.390625 
Q 24.90625 48.390625 20.390625 44.140625 
Q 15.875 39.890625 15.1875 32.171875 
z
" id="DejaVuSans-101"/>
      <path d="M 18.3125 70.21875 
L 18.3125 54.6875 
L 36.8125 54.6875 
L 36.8125 47.703125 
L 18.3125 47.703125 
L 18.3125 18.015625 
Q 18.3125 11.328125 20.140625 9.421875 
Q 21.96875 7.515625 27.59375 7.515625 
L 36.8125 7.515625 
L 36.8125 0 
L 27.59375 0 
Q 17.1875 0 13.234375 3.875 
Q 9.28125 7.765625 9.28125 18.015625 
L 9.28125 47.703125 
L 2.6875 47.703125 
L 2.6875 54.6875 
L 9.28125 54.6875 
L 9.28125 70.21875 
z
" id="DejaVuSans-116"/>
      <path d="M 41.109375 46.296875 
Q 39.59375 47.171875 37.8125 47.578125 
Q 36.03125 48 33.890625 48 
Q 26.265625 48 22.1875 43.046875 
Q 18.109375 38.09375 18.109375 28.8125 
L 18.109375 0 
L 9.078125 0 
L 9.078125 54.6875 
L 18.109375 54.6875 
L 18.109375 46.1875 
Q 20.953125 51.171875 25.484375 53.578125 
Q 30.03125 56 36.53125 56 
Q 37.453125 56 38.578125 55.875 
Q 39.703125 55.765625 41.0625 55.515625 
z
" id="DejaVuSans-114"/>
      <path d="M 32.171875 -5.078125 
Q 28.375 -14.84375 24.75 -17.8125 
Q 21.140625 -20.796875 15.09375 -20.796875 
L 7.90625 -20.796875 
L 7.90625 -13.28125 
L 13.1875 -13.28125 
Q 16.890625 -13.28125 18.9375 -11.515625 
Q 21 -9.765625 23.484375 -3.21875 
L 25.09375 0.875 
L 2.984375 54.6875 
L 12.5 54.6875 
L 29.59375 11.921875 
L 46.6875 54.6875 
L 56.203125 54.6875 
z
" id="DejaVuSans-121"/>
     </defs>
     <g transform="translate(157.425 348.162125)scale(0.16 -0.16)">
      <use xlink:href="#DejaVuSans-76"/>
      <use x="55.712891" xlink:href="#DejaVuSans-97"/>
      <use x="116.992188" xlink:href="#DejaVuSans-112"/>
      <use x="180.46875" xlink:href="#DejaVuSans-108"/>
      <use x="208.251953" xlink:href="#DejaVuSans-97"/>
      <use x="269.53125" xlink:href="#DejaVuSans-99"/>
      <use x="324.511719" xlink:href="#DejaVuSans-105"/>
      <use x="352.294922" xlink:href="#DejaVuSans-97"/>
      <use x="413.574219" xlink:href="#DejaVuSans-110"/>
      <use x="476.953125" xlink:href="#DejaVuSans-32"/>
      <use x="508.740234" xlink:href="#DejaVuSans-99"/>
      <use x="563.720703" xlink:href="#DejaVuSans-101"/>
      <use x="625.244141" xlink:href="#DejaVuSans-110"/>
      <use x="688.623047" xlink:href="#DejaVuSans-116"/>
      <use x="727.832031" xlink:href="#DejaVuSans-114"/>
      <use x="768.945312" xlink:href="#DejaVuSans-97"/>
      <use x="830.224609" xlink:href="#DejaVuSans-108"/>
      <use x="858.007812" xlink:href="#DejaVuSans-105"/>
      <use x="885.791016" xlink:href="#DejaVuSans-116"/>
      <use x="925" xlink:href="#DejaVuSans-121"/>
     </g>
    </g>
   </g>
   <g id="matplotlib.axis_2">
    <g id="ytick_1">
     <g id="line2d_11">
      <path clip-path="url(#pc0fb626f3d)" d="M 57.6 307.584 
L 414.72 307.584 
" style="fill:none;stroke:#b0b0b0;stroke-linecap:square;stroke-width:0.8;"/>
     </g>
     <g id="line2d_12">
      <defs>
       <path d="M 0 0 
L -3.5 0 
" id="m34cc3a2a1f" style="stroke:#000000;stroke-width:0.8;"/>
      </defs>
      <g>
       <use style="stroke:#000000;stroke-width:0.8;" x="57.6" xlink:href="#m34cc3a2a1f" y="307.584"/>
      </g>
     </g>
     <g id="text_7">
      <!-- 0 -->
      <g transform="translate(38.075938 314.422594)scale(0.18 -0.18)">
       <use xlink:href="#DejaVuSans-Bold-48"/>
      </g>
     </g>
    </g>
    <g id="ytick_2">
     <g id="line2d_13">
      <path clip-path="url(#pc0fb626f3d)" d="M 57.6 254.3616 
L 414.72 254.3616 
" style="fill:none;stroke:#b0b0b0;stroke-linecap:square;stroke-width:0.8;"/>
     </g>
     <g id="line2d_14">
      <g>
       <use style="stroke:#000000;stroke-width:0.8;" x="57.6" xlink:href="#m34cc3a2a1f" y="254.3616"/>
      </g>
     </g>
     <g id="text_8">
      <!-- 2 -->
      <defs>
       <path d="M 28.8125 13.8125 
L 60.890625 13.8125 
L 60.890625 0 
L 7.90625 0 
L 7.90625 13.8125 
L 34.515625 37.3125 
Q 38.09375 40.53125 39.796875 43.609375 
Q 41.5 46.6875 41.5 50 
Q 41.5 55.125 38.0625 58.25 
Q 34.625 61.375 28.90625 61.375 
Q 24.515625 61.375 19.28125 59.5 
Q 14.0625 57.625 8.109375 53.90625 
L 8.109375 69.921875 
Q 14.453125 72.015625 20.65625 73.109375 
Q 26.859375 74.21875 32.8125 74.21875 
Q 45.90625 74.21875 53.15625 68.453125 
Q 60.40625 62.703125 60.40625 52.390625 
Q 60.40625 46.4375 57.328125 41.28125 
Q 54.25 36.140625 44.390625 27.484375 
z
" id="DejaVuSans-Bold-50"/>
      </defs>
      <g transform="translate(38.075938 261.200194)scale(0.18 -0.18)">
       <use xlink:href="#DejaVuSans-Bold-50"/>
      </g>
     </g>
    </g>
    <g id="ytick_3">
     <g id="line2d_15">
      <path clip-path="url(#pc0fb626f3d)" d="M 57.6 201.1392 
L 414.72 201.1392 
" style="fill:none;stroke:#b0b0b0;stroke-linecap:square;stroke-width:0.8;"/>
     </g>
     <g id="line2d_16">
      <g>
       <use style="stroke:#000000;stroke-width:0.8;" x="57.6" xlink:href="#m34cc3a2a1f" y="201.1392"/>
      </g>
     </g>
     <g id="text_9">
      <!-- 4 -->
      <defs>
       <path d="M 36.8125 57.421875 
L 16.21875 26.90625 
L 36.8125 26.90625 
z
M 33.6875 72.90625 
L 54.59375 72.90625 
L 54.59375 26.90625 
L 64.984375 26.90625 
L 64.984375 13.28125 
L 54.59375 13.28125 
L 54.59375 0 
L 36.8125 0 
L 36.8125 13.28125 
L 4.5 13.28125 
L 4.5 29.390625 
z
" id="DejaVuSans-Bold-52"/>
      </defs>
      <g transform="translate(38.075938 207.977794)scale(0.18 -0.18)">
       <use xlink:href="#DejaVuSans-Bold-52"/>
      </g>
     </g>
    </g>
    <g id="ytick_4">
     <g id="line2d_17">
      <path clip-path="url(#pc0fb626f3d)" d="M 57.6 147.9168 
L 414.72 147.9168 
" style="fill:none;stroke:#b0b0b0;stroke-linecap:square;stroke-width:0.8;"/>
     </g>
     <g id="line2d_18">
      <g>
       <use style="stroke:#000000;stroke-width:0.8;" x="57.6" xlink:href="#m34cc3a2a1f" y="147.9168"/>
      </g>
     </g>
     <g id="text_10">
      <!-- 6 -->
      <defs>
       <path d="M 36.1875 35.984375 
Q 31.25 35.984375 28.78125 32.78125 
Q 26.3125 29.59375 26.3125 23.1875 
Q 26.3125 16.796875 28.78125 13.59375 
Q 31.25 10.40625 36.1875 10.40625 
Q 41.15625 10.40625 43.625 13.59375 
Q 46.09375 16.796875 46.09375 23.1875 
Q 46.09375 29.59375 43.625 32.78125 
Q 41.15625 35.984375 36.1875 35.984375 
z
M 59.421875 71 
L 59.421875 57.515625 
Q 54.78125 59.71875 50.671875 60.765625 
Q 46.578125 61.8125 42.671875 61.8125 
Q 34.28125 61.8125 29.59375 57.140625 
Q 24.90625 52.484375 24.125 43.3125 
Q 27.34375 45.703125 31.09375 46.890625 
Q 34.859375 48.09375 39.3125 48.09375 
Q 50.484375 48.09375 57.34375 41.546875 
Q 64.203125 35.015625 64.203125 24.421875 
Q 64.203125 12.703125 56.53125 5.640625 
Q 48.875 -1.421875 35.984375 -1.421875 
Q 21.78125 -1.421875 13.984375 8.171875 
Q 6.203125 17.78125 6.203125 35.40625 
Q 6.203125 53.46875 15.3125 63.796875 
Q 24.421875 74.125 40.28125 74.125 
Q 45.3125 74.125 50.046875 73.34375 
Q 54.78125 72.5625 59.421875 71 
z
" id="DejaVuSans-Bold-54"/>
      </defs>
      <g transform="translate(38.075938 154.755394)scale(0.18 -0.18)">
       <use xlink:href="#DejaVuSans-Bold-54"/>
      </g>
     </g>
    </g>
    <g id="ytick_5">
     <g id="line2d_19">
      <path clip-path="url(#pc0fb626f3d)" d="M 57.6 94.6944 
L 414.72 94.6944 
" style="fill:none;stroke:#b0b0b0;stroke-linecap:square;stroke-width:0.8;"/>
     </g>
     <g id="line2d_20">
      <g>
       <use style="stroke:#000000;stroke-width:0.8;" x="57.6" xlink:href="#m34cc3a2a1f" y="94.6944"/>
      </g>
     </g>
     <g id="text_11">
      <!-- 8 -->
      <defs>
       <path d="M 34.8125 32.625 
Q 29.546875 32.625 26.703125 29.734375 
Q 23.875 26.859375 23.875 21.484375 
Q 23.875 16.109375 26.703125 13.25 
Q 29.546875 10.40625 34.8125 10.40625 
Q 40.046875 10.40625 42.828125 13.25 
Q 45.609375 16.109375 45.609375 21.484375 
Q 45.609375 26.90625 42.828125 29.765625 
Q 40.046875 32.625 34.8125 32.625 
z
M 21.09375 38.8125 
Q 14.453125 40.828125 11.078125 44.96875 
Q 7.71875 49.125 7.71875 55.328125 
Q 7.71875 64.546875 14.59375 69.375 
Q 21.484375 74.21875 34.8125 74.21875 
Q 48.046875 74.21875 54.921875 69.40625 
Q 61.8125 64.59375 61.8125 55.328125 
Q 61.8125 49.125 58.421875 44.96875 
Q 55.03125 40.828125 48.390625 38.8125 
Q 55.8125 36.765625 59.59375 32.15625 
Q 63.375 27.546875 63.375 20.515625 
Q 63.375 9.671875 56.171875 4.125 
Q 48.96875 -1.421875 34.8125 -1.421875 
Q 20.609375 -1.421875 13.359375 4.125 
Q 6.109375 9.671875 6.109375 20.515625 
Q 6.109375 27.546875 9.890625 32.15625 
Q 13.671875 36.765625 21.09375 38.8125 
z
M 25.484375 53.421875 
Q 25.484375 49.078125 27.90625 46.734375 
Q 30.328125 44.390625 34.8125 44.390625 
Q 39.203125 44.390625 41.59375 46.734375 
Q 44 49.078125 44 53.421875 
Q 44 57.765625 41.59375 60.078125 
Q 39.203125 62.40625 34.8125 62.40625 
Q 30.328125 62.40625 27.90625 60.0625 
Q 25.484375 57.71875 25.484375 53.421875 
z
" id="DejaVuSans-Bold-56"/>
      </defs>
      <g transform="translate(38.075938 101.532994)scale(0.18 -0.18)">
       <use xlink:href="#DejaVuSans-Bold-56"/>
      </g>
     </g>
    </g>
    <g id="ytick_6">
     <g id="line2d_21">
      <path clip-path="url(#pc0fb626f3d)" d="M 57.6 41.472 
L 414.72 41.472 
" style="fill:none;stroke:#b0b0b0;stroke-linecap:square;stroke-width:0.8;"/>
     </g>
     <g id="line2d_22">
      <g>
       <use style="stroke:#000000;stroke-width:0.8;" x="57.6" xlink:href="#m34cc3a2a1f" y="41.472"/>
      </g>
     </g>
     <g id="text_12">
      <!-- 10 -->
      <g transform="translate(25.551875 48.310594)scale(0.18 -0.18)">
       <use xlink:href="#DejaVuSans-Bold-49"/>
       <use x="69.580078" xlink:href="#DejaVuSans-Bold-48"/>
      </g>
     </g>
    </g>
    <g id="text_13">
     <!-- Probability density -->
     <defs>
      <path d="M 19.671875 64.796875 
L 19.671875 37.40625 
L 32.078125 37.40625 
Q 38.96875 37.40625 42.71875 40.96875 
Q 46.484375 44.53125 46.484375 51.125 
Q 46.484375 57.671875 42.71875 61.234375 
Q 38.96875 64.796875 32.078125 64.796875 
z
M 9.8125 72.90625 
L 32.078125 72.90625 
Q 44.34375 72.90625 50.609375 67.359375 
Q 56.890625 61.8125 56.890625 51.125 
Q 56.890625 40.328125 50.609375 34.8125 
Q 44.34375 29.296875 32.078125 29.296875 
L 19.671875 29.296875 
L 19.671875 0 
L 9.8125 0 
z
" id="DejaVuSans-80"/>
      <path d="M 30.609375 48.390625 
Q 23.390625 48.390625 19.1875 42.75 
Q 14.984375 37.109375 14.984375 27.296875 
Q 14.984375 17.484375 19.15625 11.84375 
Q 23.34375 6.203125 30.609375 6.203125 
Q 37.796875 6.203125 41.984375 11.859375 
Q 46.1875 17.53125 46.1875 27.296875 
Q 46.1875 37.015625 41.984375 42.703125 
Q 37.796875 48.390625 30.609375 48.390625 
z
M 30.609375 56 
Q 42.328125 56 49.015625 48.375 
Q 55.71875 40.765625 55.71875 27.296875 
Q 55.71875 13.875 49.015625 6.21875 
Q 42.328125 -1.421875 30.609375 -1.421875 
Q 18.84375 -1.421875 12.171875 6.21875 
Q 5.515625 13.875 5.515625 27.296875 
Q 5.515625 40.765625 12.171875 48.375 
Q 18.84375 56 30.609375 56 
z
" id="DejaVuSans-111"/>
      <path d="M 48.6875 27.296875 
Q 48.6875 37.203125 44.609375 42.84375 
Q 40.53125 48.484375 33.40625 48.484375 
Q 26.265625 48.484375 22.1875 42.84375 
Q 18.109375 37.203125 18.109375 27.296875 
Q 18.109375 17.390625 22.1875 11.75 
Q 26.265625 6.109375 33.40625 6.109375 
Q 40.53125 6.109375 44.609375 11.75 
Q 48.6875 17.390625 48.6875 27.296875 
z
M 18.109375 46.390625 
Q 20.953125 51.265625 25.265625 53.625 
Q 29.59375 56 35.59375 56 
Q 45.5625 56 51.78125 48.09375 
Q 58.015625 40.1875 58.015625 27.296875 
Q 58.015625 14.40625 51.78125 6.484375 
Q 45.5625 -1.421875 35.59375 -1.421875 
Q 29.59375 -1.421875 25.265625 0.953125 
Q 20.953125 3.328125 18.109375 8.203125 
L 18.109375 0 
L 9.078125 0 
L 9.078125 75.984375 
L 18.109375 75.984375 
z
" id="DejaVuSans-98"/>
      <path d="M 45.40625 46.390625 
L 45.40625 75.984375 
L 54.390625 75.984375 
L 54.390625 0 
L 45.40625 0 
L 45.40625 8.203125 
Q 42.578125 3.328125 38.25 0.953125 
Q 33.9375 -1.421875 27.875 -1.421875 
Q 17.96875 -1.421875 11.734375 6.484375 
Q 5.515625 14.40625 5.515625 27.296875 
Q 5.515625 40.1875 11.734375 48.09375 
Q 17.96875 56 27.875 56 
Q 33.9375 56 38.25 53.625 
Q 42.578125 51.265625 45.40625 46.390625 
z
M 14.796875 27.296875 
Q 14.796875 17.390625 18.875 11.75 
Q 22.953125 6.109375 30.078125 6.109375 
Q 37.203125 6.109375 41.296875 11.75 
Q 45.40625 17.390625 45.40625 27.296875 
Q 45.40625 37.203125 41.296875 42.84375 
Q 37.203125 48.484375 30.078125 48.484375 
Q 22.953125 48.484375 18.875 42.84375 
Q 14.796875 37.203125 14.796875 27.296875 
z
" id="DejaVuSans-100"/>
      <path d="M 44.28125 53.078125 
L 44.28125 44.578125 
Q 40.484375 46.53125 36.375 47.5 
Q 32.28125 48.484375 27.875 48.484375 
Q 21.1875 48.484375 17.84375 46.4375 
Q 14.5 44.390625 14.5 40.28125 
Q 14.5 37.15625 16.890625 35.375 
Q 19.28125 33.59375 26.515625 31.984375 
L 29.59375 31.296875 
Q 39.15625 29.25 43.1875 25.515625 
Q 47.21875 21.78125 47.21875 15.09375 
Q 47.21875 7.46875 41.1875 3.015625 
Q 35.15625 -1.421875 24.609375 -1.421875 
Q 20.21875 -1.421875 15.453125 -0.5625 
Q 10.6875 0.296875 5.421875 2 
L 5.421875 11.28125 
Q 10.40625 8.6875 15.234375 7.390625 
Q 20.0625 6.109375 24.8125 6.109375 
Q 31.15625 6.109375 34.5625 8.28125 
Q 37.984375 10.453125 37.984375 14.40625 
Q 37.984375 18.0625 35.515625 20.015625 
Q 33.0625 21.96875 24.703125 23.78125 
L 21.578125 24.515625 
Q 13.234375 26.265625 9.515625 29.90625 
Q 5.8125 33.546875 5.8125 39.890625 
Q 5.8125 47.609375 11.28125 51.796875 
Q 16.75 56 26.8125 56 
Q 31.78125 56 36.171875 55.265625 
Q 40.578125 54.546875 44.28125 53.078125 
z
" id="DejaVuSans-115"/>
     </defs>
     <g transform="translate(18.224375 249.0055)rotate(-90)scale(0.16 -0.16)">
      <use xlink:href="#DejaVuSans-80"/>
      <use x="60.287109" xlink:href="#DejaVuSans-114"/>
      <use x="101.369141" xlink:href="#DejaVuSans-111"/>
      <use x="162.550781" xlink:href="#DejaVuSans-98"/>
      <use x="226.027344" xlink:href="#DejaVuSans-97"/>
      <use x="287.306641" xlink:href="#DejaVuSans-98"/>
      <use x="350.783203" xlink:href="#DejaVuSans-105"/>
      <use x="378.566406" xlink:href="#DejaVuSans-108"/>
      <use x="406.349609" xlink:href="#DejaVuSans-105"/>
      <use x="434.132812" xlink:href="#DejaVuSans-116"/>
      <use x="473.341797" xlink:href="#DejaVuSans-121"/>
      <use x="532.521484" xlink:href="#DejaVuSans-32"/>
      <use x="564.308594" xlink:href="#DejaVuSans-100"/>
      <use x="627.785156" xlink:href="#DejaVuSans-101"/>
      <use x="689.308594" xlink:href="#DejaVuSans-110"/>
      <use x="752.6875" xlink:href="#DejaVuSans-115"/>
      <use x="804.787109" xlink:href="#DejaVuSans-105"/>
      <use x="832.570312" xlink:href="#DejaVuSans-116"/>
      <use x="871.779297" xlink:href="#DejaVuSans-121"/>
     </g>
    </g>
   </g>
   <g id="line2d_23">
    <path clip-path="url(#pc0fb626f3d)" d="M 252.023227 305.782239 
L 251.567806 304.99382 
L 251.015959 304.455457 
L 250.638826 304.097619 
L 250.489679 303.842352 
L 250.126164 302.685529 
L 249.436765 298.527233 
L 248.368959 289.895533 
L 247.447037 281.611752 
L 246.915336 274.06185 
L 246.427425 263.683604 
L 244.629778 214.760589 
L 244.15056 194.153502 
L 241.029917 32.981622 
L 240.603321 -1 
M 234.794415 -1 
L 234.442079 55.979629 
L 233.996889 93.200392 
L 232.80217 164.586535 
L 231.981205 206.457795 
L 231.161545 238.117601 
L 230.493277 254.929307 
L 228.913979 288.737192 
L 228.35349 294.724345 
L 227.632461 299.845128 
L 227.19211 301.795398 
L 227.053866 302.118289 
L 226.724972 302.413071 
L 226.23199 302.523864 
L 226.067847 302.743987 
L 225.665933 303.884429 
L 225.414179 304.863011 
L 225.414179 304.863011 
" style="fill:none;stroke:#1f77b4;stroke-linecap:square;stroke-width:1.5;"/>
   </g>
   <g id="line2d_24">
    <path clip-path="url(#pc0fb626f3d)" d="M 461.8 307.432763 
L 448.449977 307.468993 
L 382.201063 307.286293 
L 370.551893 307.298123 
L 346.296091 306.580901 
L 337.939038 306.207346 
L 332.20346 305.60718 
L 326.681518 305.090065 
L 319.627631 304.531235 
L 317.001307 304.069517 
L 296.999988 299.698052 
L 290.255562 297.667833 
L 287.140399 296.543214 
L 284.666814 295.410905 
L 282.005328 293.932667 
L 278.151847 291.502732 
L 274.024551 288.684735 
L 271.920695 286.992766 
L 270.157278 285.289413 
L 268.49485 283.363608 
L 266.822036 281.076586 
L 264.965814 278.14292 
L 262.772365 274.218965 
L 260.40004 269.502789 
L 258.130191 264.496017 
L 255.966367 259.177386 
L 253.454774 252.373058 
L 250.357257 243.33194 
L 248.70076 237.888181 
L 247.492754 233.156377 
L 246.434174 228.082044 
L 245.422999 222.098121 
L 244.394316 214.61447 
L 243.275351 204.759946 
L 241.874785 190.275827 
L 239.049857 160.591596 
L 238.186721 154.056949 
L 237.53126 150.635519 
L 237.034107 149.08155 
L 236.671067 148.559088 
L 236.415146 148.512175 
L 236.176352 148.711448 
L 235.87993 149.286278 
L 235.47718 150.644031 
L 234.987929 153.162702 
L 234.353219 157.760211 
L 233.582135 165.112296 
L 232.534011 177.456049 
L 230.332731 206.917856 
L 228.704606 227.001701 
L 227.460507 239.709857 
L 226.324544 249.112838 
L 225.227872 256.396116 
L 224.134946 262.230214 
L 222.969864 267.274244 
L 221.738815 271.675342 
L 220.217104 276.236706 
L 218.619885 280.317078 
L 216.918318 284.064672 
L 215.228082 287.256529 
L 213.597471 289.870161 
L 212.028213 291.981552 
L 210.464793 293.723135 
L 208.887361 295.153257 
L 207.243983 296.343931 
L 205.507876 297.336596 
L 203.210922 298.363891 
L 199.19652 299.85225 
L 190.880692 302.782052 
L 188.332848 303.31919 
L 185.63013 303.631732 
L 179.713096 304.24213 
L 175.805035 304.939833 
L 171.001083 305.77368 
L 166.733581 306.286122 
L 162.081368 306.608452 
L 155.296168 306.854043 
L 129.535582 307.190174 
L 116.689882 307.406489 
L 108.578092 307.517279 
L 45.343359 307.539579 
L 45.343359 307.539579 
" style="fill:none;stroke:#ff7f0e;stroke-linecap:square;stroke-width:1.5;"/>
   </g>
   <g id="line2d_25">
    <path clip-path="url(#pc0fb626f3d)" d="M 461.8 307.228762 
L 446.713932 307.129858 
L 433.957855 306.868591 
L 416.708606 306.767483 
L 397.619295 306.741485 
L 388.321607 306.605081 
L 380.668025 306.212335 
L 371.348555 305.723445 
L 361.69391 305.270575 
L 355.709227 304.681373 
L 344.746052 303.553955 
L 330.359855 302.299795 
L 325.992649 301.542969 
L 308.546489 298.249572 
L 300.441884 296.713519 
L 296.090192 295.668618 
L 292.524365 294.584693 
L 289.393586 293.40376 
L 286.264219 291.980873 
L 283.004404 290.252417 
L 279.0637 287.897162 
L 274.711124 285.034924 
L 271.130289 282.430545 
L 268.04953 279.916247 
L 265.189535 277.290792 
L 262.42815 274.450714 
L 259.949494 271.591931 
L 257.868773 268.870552 
L 256.050278 266.124977 
L 254.49561 263.382031 
L 253.002442 260.283335 
L 251.590887 256.8308 
L 250.162508 252.733932 
L 248.662607 247.730632 
L 247.011836 241.431115 
L 244.713659 231.678357 
L 241.787066 219.376465 
L 240.425993 214.606142 
L 239.398438 211.739696 
L 238.554894 209.977232 
L 237.82912 208.943634 
L 237.228908 208.451693 
L 236.69948 208.302002 
L 236.250432 208.388302 
L 235.736291 208.729384 
L 235.18043 209.387999 
L 234.532708 210.52834 
L 233.778906 212.340704 
L 232.900703 215.063368 
L 231.831375 219.158325 
L 230.512025 225.146907 
L 228.549338 235.21972 
L 224.865179 254.20335 
L 223.139362 261.841859 
L 221.636065 267.529631 
L 220.186117 272.141743 
L 218.839903 275.7062 
L 217.491118 278.667403 
L 216.123571 281.144959 
L 214.694189 283.278541 
L 213.151392 285.176418 
L 211.499924 286.861727 
L 209.537587 288.53469 
L 207.25207 290.17933 
L 204.391082 291.947969 
L 200.86925 293.867463 
L 195.902611 296.302587 
L 191.490296 298.228058 
L 187.698275 299.64923 
L 183.740991 300.869092 
L 179.908197 301.806886 
L 175.570477 302.635582 
L 168.938778 303.641803 
L 159.966551 304.803542 
L 154.634868 305.264348 
L 145.880439 305.745002 
L 129.324639 306.488444 
L 110.946963 307.235836 
L 97.486068 307.303082 
L 72.794756 307.387801 
L 58.007455 307.505448 
L 30.138926 307.531519 
L 30.138926 307.531519 
" style="fill:none;stroke:#2ca02c;stroke-linecap:square;stroke-width:1.5;"/>
   </g>
   <g id="line2d_26">
    <path clip-path="url(#pc0fb626f3d)" d="M 461.8 306.9405 
L 453.190513 306.796539 
L 438.630779 306.297268 
L 422.892255 305.77783 
L 410.515116 305.676519 
L 399.777295 305.483357 
L 387.987882 305.02675 
L 373.824724 304.258168 
L 361.980937 303.405986 
L 348.49849 302.19347 
L 335.779331 300.842095 
L 318.19947 298.737512 
L 313.07349 297.868373 
L 308.467506 296.858301 
L 303.722746 295.581111 
L 298.359009 293.894401 
L 291.618006 291.526964 
L 283.559324 288.464163 
L 276.747879 285.651483 
L 272.033012 283.477089 
L 268.681277 281.696706 
L 266.085391 280.076659 
L 263.872826 278.439615 
L 261.894204 276.699747 
L 260.065037 274.795083 
L 258.316692 272.655011 
L 256.555624 270.140135 
L 254.739515 267.140825 
L 252.823216 263.529901 
L 250.614113 258.866501 
L 247.18231 251.01055 
L 244.282245 244.597374 
L 242.552147 241.295601 
L 241.204269 239.168001 
L 240.020858 237.703067 
L 239.013008 236.795418 
L 238.140977 236.284453 
L 237.318628 236.047982 
L 236.517841 236.053358 
L 235.727608 236.289417 
L 234.933579 236.756811 
L 234.04685 237.546349 
L 233.081306 238.714865 
L 231.975653 240.422522 
L 230.743651 242.742434 
L 229.271583 245.99826 
L 227.332572 250.876469 
L 223.709816 260.756095 
L 220.797127 268.387887 
L 218.758978 273.168214 
L 216.768195 277.262794 
L 214.945999 280.487512 
L 213.20155 283.123837 
L 211.472681 285.340873 
L 209.685664 287.271808 
L 207.827505 288.953679 
L 205.854828 290.445236 
L 203.665146 291.824313 
L 201.170262 293.128867 
L 198.376706 294.344329 
L 194.895324 295.606968 
L 190.479224 296.952733 
L 184.125133 298.632591 
L 175.894006 300.582476 
L 169.257686 301.933924 
L 163.239965 302.931346 
L 157.362938 303.685121 
L 151.061355 304.288188 
L 141.612417 304.947563 
L 127.830563 305.664636 
L 108.27722 306.490442 
L 94.235906 306.826646 
L 72.658294 307.110832 
L 21.848407 307.498659 
L -1 307.489898 
L -1 307.489898 
" style="fill:none;stroke:#d62728;stroke-linecap:square;stroke-width:1.5;"/>
   </g>
   <g id="line2d_27">
    <path clip-path="url(#pc0fb626f3d)" d="M 461.8 305.946623 
L 444.958753 305.725044 
L 427.785714 305.192624 
L 409.685595 304.731885 
L 398.586191 304.358985 
L 389.99858 303.827323 
L 377.632814 302.788739 
L 361.793018 301.523043 
L 328.580853 299.045056 
L 321.967911 298.183098 
L 315.244797 297.077252 
L 307.334909 295.539661 
L 298.011351 293.500032 
L 290.711889 291.690803 
L 285.094546 290.077168 
L 280.368641 288.494169 
L 276.370855 286.926195 
L 272.974616 285.359795 
L 270.052493 283.772945 
L 267.403478 282.08236 
L 264.945253 280.247341 
L 262.649288 278.263255 
L 260.295875 275.93256 
L 257.877273 273.218738 
L 255.222191 269.902567 
L 251.429997 264.7627 
L 247.073807 258.933675 
L 244.893342 256.38762 
L 243.126927 254.654968 
L 241.657103 253.500761 
L 240.278822 252.694054 
L 239.04281 252.220308 
L 237.857505 252.001905 
L 236.705182 252.019024 
L 235.630327 252.241894 
L 234.429398 252.726062 
L 233.19057 253.479229 
L 231.872286 254.550028 
L 230.407029 256.040571 
L 228.760876 258.046988 
L 226.806056 260.800776 
L 224.264439 264.797576 
L 215.74019 278.517718 
L 213.322289 281.820939 
L 211.100346 284.494254 
L 208.97348 286.720895 
L 206.821929 288.657481 
L 204.636098 290.329407 
L 202.412199 291.764632 
L 199.964515 293.08632 
L 197.254575 294.299656 
L 194.021493 295.49176 
L 190.186446 296.657133 
L 185.359705 297.879852 
L 179.276314 299.183942 
L 171.896042 300.535207 
L 163.258907 301.883433 
L 154.212846 303.070207 
L 146.133998 303.911052 
L 138.389319 304.498711 
L 128.001206 305.041223 
L 105.684321 305.930966 
L 88.281912 306.386877 
L 55.556057 306.981289 
L 32.827367 307.25606 
L -1 307.438552 
L -1 307.438552 
" style="fill:none;stroke:#9467bd;stroke-linecap:square;stroke-width:1.5;"/>
   </g>
   <g id="line2d_28">
    <path clip-path="url(#pc0fb626f3d)" d="M 461.8 305.386132 
L 429.555673 304.755883 
L 415.813179 304.196943 
L 398.023055 303.208835 
L 381.614534 302.381701 
L 355.62012 301.164117 
L 345.902475 300.419486 
L 336.700139 299.494429 
L 327.524084 298.349332 
L 318.31567 296.977919 
L 308.988012 295.36585 
L 299.520095 293.5024 
L 290.828352 291.575854 
L 284.469364 289.954961 
L 279.824457 288.549353 
L 276.049135 287.177893 
L 272.743167 285.74072 
L 269.747707 284.201106 
L 266.759789 282.408494 
L 263.80563 280.371143 
L 260.636166 277.908156 
L 256.743507 274.581424 
L 248.99103 267.885202 
L 246.433452 266.018491 
L 244.316816 264.735071 
L 242.406359 263.830655 
L 240.664869 263.247385 
L 238.999553 262.924814 
L 237.595695 262.841106 
L 235.989924 262.962094 
L 234.379982 263.31622 
L 232.744055 263.909813 
L 230.966823 264.808782 
L 229.101933 266.013614 
L 227.031748 267.625672 
L 224.623703 269.795518 
L 221.494124 272.941701 
L 211.001304 283.742568 
L 207.990639 286.382731 
L 205.132905 288.592359 
L 202.330164 290.475751 
L 199.523211 292.097483 
L 196.480886 293.590619 
L 193.354705 294.884125 
L 189.673655 296.159259 
L 185.498433 297.361937 
L 180.522662 298.552479 
L 174.771888 299.689359 
L 168.443267 300.708062 
L 161.446894 301.600384 
L 153.36371 302.398602 
L 141.962741 303.279749 
L 124.154087 304.421193 
L 103.543157 305.518009 
L 88.787122 306.107055 
L 73.923911 306.465939 
L 47.296157 306.832892 
L 2.547551 307.250907 
L -1 307.27085 
L -1 307.27085 
" style="fill:none;stroke:#8c564b;stroke-linecap:square;stroke-width:1.5;"/>
   </g>
   <g id="line2d_29">
    <path clip-path="url(#pc0fb626f3d)" d="M 461.8 304.820695 
L 439.612556 304.218584 
L 385.42428 302.479915 
L 373.099963 301.73042 
L 358.246647 300.591383 
L 341.221849 299.071305 
L 327.021293 297.584275 
L 312.229727 295.805198 
L 299.457684 294.06533 
L 291.936532 292.83682 
L 286.44997 291.724507 
L 281.960429 290.590882 
L 278.035883 289.373161 
L 274.409491 288.017082 
L 270.904069 286.469365 
L 267.341504 284.6505 
L 263.526937 282.45043 
L 258.533803 279.291262 
L 251.132393 274.610838 
L 247.886889 272.846607 
L 245.232377 271.655115 
L 242.879673 270.840059 
L 240.717495 270.321892 
L 238.659572 270.053411 
L 236.639391 270.014184 
L 234.627643 270.200389 
L 232.569207 270.621431 
L 230.413282 271.302576 
L 228.181419 272.247686 
L 225.74837 273.524122 
L 222.911709 275.279288 
L 219.444764 277.704399 
L 212.680572 282.787462 
L 207.728237 286.352598 
L 203.899384 288.831302 
L 200.441174 290.806849 
L 197.122065 292.456896 
L 193.708898 293.912724 
L 190.197623 295.180896 
L 186.12148 296.406306 
L 181.625548 297.514844 
L 176.630227 298.527021 
L 170.018747 299.627416 
L 161.823184 300.752465 
L 152.378268 301.830136 
L 141.699594 302.818933 
L 130.449055 303.629332 
L 116.601041 304.388919 
L 95.500844 305.295527 
L 68.821405 306.225241 
L 49.831325 306.676668 
L 29.843089 306.912888 
L -1 307.119838 
L -1 307.119838 
" style="fill:none;stroke:#e377c2;stroke-linecap:square;stroke-width:1.5;"/>
   </g>
   <g id="line2d_30">
    <path clip-path="url(#pc0fb626f3d)" d="M 461.8 304.33599 
L 427.063165 303.490482 
L 395.470787 302.500017 
L 378.791054 301.769523 
L 364.746699 300.929864 
L 350.703887 299.863397 
L 335.558399 298.483834 
L 316.83552 296.542802 
L 303.76922 295.002882 
L 296.156276 293.892934 
L 290.334229 292.823731 
L 285.381915 291.691424 
L 280.846129 290.427925 
L 276.501135 288.988816 
L 272.081893 287.292145 
L 267.063735 285.116466 
L 258.605793 281.147722 
L 253.18703 278.743146 
L 249.436346 277.321368 
L 246.355688 276.380229 
L 243.528076 275.739879 
L 240.850757 275.358363 
L 238.28932 275.214938 
L 235.723186 275.29742 
L 233.204336 275.599872 
L 230.65819 276.122734 
L 227.904191 276.91907 
L 224.944833 278.014554 
L 221.714015 279.448572 
L 217.701979 281.486708 
L 211.394066 284.98709 
L 203.918683 289.071629 
L 199.269974 291.351855 
L 195.065684 293.169005 
L 190.962861 294.701306 
L 186.756886 296.032741 
L 182.251466 297.217535 
L 177.450763 298.250065 
L 171.811034 299.229259 
L 164.952827 300.182345 
L 156.191426 301.165188 
L 144.612228 302.231086 
L 131.136457 303.246358 
L 116.518156 304.116287 
L 99.912771 304.869587 
L 79.305457 305.58058 
L 56.664937 306.148062 
L 30.255195 306.575621 
L -1 306.908694 
L -1 306.908694 
" style="fill:none;stroke:#7f7f7f;stroke-linecap:square;stroke-width:1.5;"/>
   </g>
   <g id="line2d_31">
    <path clip-path="url(#pc0fb626f3d)" d="M 461.8 307.178389 
L 444.582077 307.029827 
L 444.519924 306.998529 
L 423.603017 306.759667 
L 381.470655 306.299377 
L 374.282922 306.125786 
L 368.379592 305.996531 
L 367.318173 305.971724 
L 356.345819 305.66604 
L 355.463229 305.60837 
L 351.443436 305.472008 
L 351.331217 305.44907 
L 347.91964 305.253025 
L 345.344805 305.142576 
L 345.200578 305.128782 
L 344.102219 305.078736 
L 326.509615 304.27117 
L 325.966067 304.193537 
L 318.000668 303.771432 
L 314.502063 303.625463 
L 311.658856 303.481072 
L 311.656442 303.473171 
L 310.615695 303.367817 
L 306.61308 303.122875 
L 305.792663 303.036747 
L 304.361038 302.959033 
L 301.907686 302.828083 
L 300.575686 302.719834 
L 298.755301 302.607633 
L 295.943737 302.312209 
L 295.873442 302.27562 
L 294.368702 302.153413 
L 294.166927 302.117439 
L 292.465053 301.925579 
L 292.265146 301.904738 
L 291.578954 301.805813 
L 291.425727 301.763061 
L 290.24083 301.632629 
L 289.506789 301.503126 
L 288.811007 301.419484 
L 287.769364 301.300883 
L 287.588619 301.241251 
L 286.907925 301.08623 
L 283.10244 300.621614 
L 280.585855 300.168825 
L 280.025669 300.110309 
L 279.311916 299.958968 
L 279.075169 299.932741 
L 276.81732 299.517324 
L 276.043586 299.397473 
L 275.91945 299.373109 
L 275.617223 299.296184 
L 275.145965 299.17339 
L 273.289318 298.670101 
L 273.048789 298.558663 
L 270.35546 298.087888 
L 270.183735 298.037565 
L 268.880889 297.790722 
L 268.652868 297.737814 
L 265.355444 296.980696 
L 265.116591 296.872948 
L 264.967602 296.809 
L 264.320409 296.702959 
L 264.04539 296.638536 
L 261.420872 295.834621 
L 261.274138 295.800935 
L 260.606312 295.608198 
L 260.480565 295.551318 
L 259.598594 295.340636 
L 259.287478 295.198184 
L 258.925466 295.078923 
L 258.666137 294.954257 
L 257.247281 294.351895 
L 257.11945 294.265146 
L 256.7202 294.151323 
L 256.574307 294.085517 
L 255.399399 293.607893 
L 255.183768 293.375673 
L 254.858231 293.1673 
L 254.765904 293.101878 
L 254.52088 292.988209 
L 254.353996 292.865703 
L 254.228893 292.809682 
L 254.147316 292.698779 
L 254.045567 292.61669 
L 252.898406 291.794154 
L 252.7376 291.696917 
L 252.525721 291.566261 
L 252.41266 291.414269 
L 252.085853 291.309048 
L 251.867826 291.106873 
L 251.538135 290.878056 
L 251.336852 290.722272 
L 251.147098 290.599774 
L 249.702101 289.360795 
L 249.555086 289.059412 
L 249.126962 288.829212 
L 248.981281 288.697677 
L 248.696461 288.476205 
L 247.990142 287.777372 
L 247.857308 287.646869 
L 247.703449 287.596229 
L 247.521491 287.459974 
L 247.253635 287.046785 
L 247.056816 286.925938 
L 246.873304 286.586848 
L 246.354256 286.19423 
L 246.203286 286.06148 
L 245.772678 285.416418 
L 245.41711 285.180174 
L 245.30262 284.994425 
L 243.882677 283.742568 
L 243.803456 283.673201 
L 243.612412 283.554228 
L 243.48623 283.406612 
L 243.310129 283.242099 
L 243.18244 283.146828 
L 243.063605 283.029712 
L 242.942141 282.785221 
L 242.733661 282.647728 
L 242.420928 282.468937 
L 242.135326 282.358737 
L 242.009989 282.277292 
L 241.860464 282.175939 
L 241.764129 282.072825 
L 241.505262 281.949593 
L 241.367724 281.838803 
L 240.904403 281.595668 
L 240.766538 281.451483 
L 240.625977 281.349639 
L 240.285022 280.985593 
L 240.077783 280.863199 
L 239.599895 280.581224 
L 239.473811 280.446033 
L 239.350782 280.289581 
L 239.07253 280.161339 
L 238.749104 279.977408 
L 238.624826 279.900616 
L 237.414917 279.46128 
L 237.113808 279.386082 
L 236.637593 279.261868 
L 236.16 279.147849 
L 236.16 279.12778 
L 236.16 279.164767 
L 236.054271 279.164767 
L 233.714289 279.270916 
L 233.631624 279.282739 
L 233.155208 279.393429 
L 233.060777 279.447311 
L 232.331845 279.654834 
L 232.17725 279.693509 
L 231.875893 279.836222 
L 229.782633 281.254033 
L 229.548799 281.502053 
L 229.149635 281.921655 
L 228.337236 282.373838 
L 228.197612 282.506019 
L 228.049011 282.652712 
L 227.873488 282.79536 
L 227.36632 283.137556 
L 227.304944 283.276407 
L 227.105472 283.456329 
L 226.856845 283.764123 
L 226.690444 284.027529 
L 226.193296 284.762829 
L 226.030851 284.905886 
L 225.699288 285.189609 
L 225.482621 285.320409 
L 225.24783 285.683486 
L 225.104508 285.833976 
L 225.031394 285.941951 
L 224.951327 286.133082 
L 224.523776 286.34516 
L 224.338945 286.46874 
L 224.173777 286.774041 
L 223.917034 286.899655 
L 223.615801 287.207766 
L 223.451705 287.35316 
L 223.339597 287.596995 
L 223.067351 287.796857 
L 222.943924 287.904308 
L 222.832729 288.054194 
L 222.720448 288.217368 
L 222.571106 288.325877 
L 222.435768 288.502926 
L 222.305168 288.652039 
L 222.101054 288.860875 
L 221.981884 289.108561 
L 221.916038 289.232389 
L 221.813581 289.29193 
L 221.705001 289.37534 
L 221.60961 289.435341 
L 221.430501 289.624889 
L 221.305114 289.941922 
L 221.053834 290.151611 
L 220.690884 290.412069 
L 220.456545 290.795843 
L 220.306395 290.913188 
L 220.185109 291.010083 
L 219.269471 291.65564 
L 219.040578 291.931737 
L 218.876521 292.067627 
L 218.758978 292.180296 
L 218.498107 292.238248 
L 218.310162 292.390813 
L 217.946701 292.517561 
L 217.38114 292.883547 
L 217.145028 293.018559 
L 217.066584 293.195469 
L 216.966686 293.289198 
L 216.50056 293.500755 
L 215.218118 294.611061 
L 214.071196 295.147521 
L 213.729636 295.304372 
L 212.516207 296.398651 
L 210.491956 297.156384 
L 210.406285 297.261606 
L 210.041861 297.357115 
L 209.386345 297.723537 
L 208.344009 298.25047 
L 208.040399 298.555472 
L 206.15307 299.354537 
L 205.576469 299.501669 
L 205.473635 299.543758 
L 204.810873 299.673645 
L 204.040288 299.934517 
L 203.154263 300.191335 
L 203.03349 300.289004 
L 201.100815 300.688698 
L 199.732942 300.860482 
L 199.349802 301.019682 
L 198.488082 301.154651 
L 198.376706 301.169206 
L 197.391617 301.290936 
L 196.755864 301.431534 
L 195.485071 301.671767 
L 195.009333 301.780328 
L 187.874955 302.962522 
L 185.11055 303.524563 
L 183.47812 303.751873 
L 183.376759 303.767898 
L 181.941759 303.948457 
L 181.533922 303.992706 
L 174.202075 304.499992 
L 173.217787 304.572267 
L 169.284157 304.890569 
L 168.836179 304.932726 
L 168.123088 305.006269 
L 165.686004 305.12786 
L 162.653073 305.236348 
L 157.824913 305.40708 
L 155.434115 305.520972 
L 151.712875 305.729843 
L 144.237484 306.056884 
L 140.849174 306.198697 
L 137.096243 306.328454 
L 137.019149 306.370805 
L 125.131495 306.700726 
L 117.295323 306.850052 
L 116.948253 306.877458 
L 97.938568 307.060016 
L 94.235906 307.107651 
L 84.984386 307.23347 
L 67.138909 307.428465 
L -1 307.551759 
L -1 307.551759 
" style="fill:none;stroke:#bcbd22;stroke-linecap:square;stroke-width:1.5;"/>
   </g>
   <g id="line2d_32">
    <path clip-path="url(#pc0fb626f3d)" d="M 461.8 306.740948 
L 452.830903 306.69062 
L 434.925194 306.561324 
L 375.64125 305.218058 
L 375.069406 305.178225 
L 371.494473 305.065459 
L 366.558804 304.902705 
L 363.071588 304.76921 
L 362.802837 304.749142 
L 353.377227 304.284425 
L 348.244007 304.081861 
L 335.092686 303.628914 
L 331.543201 303.520019 
L 319.448574 302.924538 
L 318.102443 302.840577 
L 316.159299 302.729296 
L 310.459111 302.341966 
L 304.488972 301.754903 
L 303.810338 301.688418 
L 302.523682 301.566477 
L 301.95537 301.498133 
L 300.735107 301.388455 
L 299.367592 301.200522 
L 296.757659 300.929277 
L 295.565398 300.759264 
L 294.582484 300.619863 
L 294.489635 300.591323 
L 293.110769 300.454651 
L 290.059952 300.081426 
L 289.905791 300.064192 
L 288.693588 299.938825 
L 285.912457 299.602918 
L 285.527765 299.533898 
L 284.231058 299.390813 
L 284.131474 299.367722 
L 283.630384 299.329918 
L 282.589366 299.199391 
L 282.297972 299.134619 
L 281.341611 299.023836 
L 280.589301 298.927786 
L 279.735962 298.812917 
L 277.269086 298.544287 
L 276.726252 298.43311 
L 276.719757 298.426544 
L 275.143646 298.251288 
L 275.056482 298.231776 
L 274.368645 298.122816 
L 274.032805 298.065581 
L 273.065615 297.938248 
L 272.943155 297.91588 
L 272.02309 297.792306 
L 271.398468 297.699173 
L 266.460333 296.740478 
L 266.395131 296.720634 
L 266.018483 296.613833 
L 264.525804 296.207787 
L 263.280867 295.818 
L 263.084566 295.698647 
L 261.696949 295.162014 
L 261.156641 295.040136 
L 260.459899 294.6504 
L 260.135986 294.546345 
L 256.951968 293.194524 
L 256.81857 293.108216 
L 256.432651 292.959046 
L 253.19384 290.870741 
L 253.101109 290.804906 
L 252.80895 290.577494 
L 252.698251 290.475011 
L 252.616648 290.369168 
L 252.513075 290.301622 
L 252.225452 290.104406 
L 252.115877 289.96488 
L 251.686428 289.623484 
L 251.377907 289.497607 
L 250.296205 288.93489 
L 250.179601 288.847728 
L 249.913272 288.68665 
L 249.649878 288.474285 
L 249.480519 288.340657 
L 249.226808 288.220653 
L 249.117683 288.035638 
L 248.798926 287.876349 
L 247.829477 287.51351 
L 247.712642 287.369487 
L 247.241145 287.12844 
L 247.126118 287.028302 
L 246.871943 286.915566 
L 246.672709 286.807891 
L 246.56838 286.677328 
L 244.954047 285.514522 
L 244.753595 285.365619 
L 242.234921 284.178792 
L 241.739879 283.904203 
L 241.239818 283.651693 
L 240.851124 283.519792 
L 240.096849 283.263743 
L 239.891436 283.144282 
L 239.566077 283.069959 
L 238.859986 282.918555 
L 238.751631 282.878751 
L 238.410784 282.799131 
L 237.694359 282.672788 
L 236.16 282.466105 
L 236.16 282.416266 
L 236.083091 282.463318 
L 232.852303 282.569983 
L 232.724708 282.583595 
L 232.239309 282.696061 
L 231.114921 283.013737 
L 230.742773 283.136901 
L 229.906945 283.403265 
L 229.566935 283.505652 
L 229.463258 283.55723 
L 229.237052 283.691856 
L 226.453935 285.058502 
L 226.315555 285.17968 
L 226.139566 285.362568 
L 225.754271 285.718726 
L 225.728735 285.749108 
L 225.393395 285.876301 
L 225.21351 286.071442 
L 225.093727 286.174388 
L 224.559573 286.376197 
L 224.203811 286.704682 
L 223.989813 286.849822 
L 223.897756 286.974901 
L 223.45341 287.221031 
L 223.315301 287.434012 
L 223.145422 287.57486 
L 222.988747 287.704488 
L 222.853336 287.781435 
L 222.67472 288.009986 
L 221.512357 288.748596 
L 221.413861 288.871761 
L 220.927957 288.987288 
L 220.723232 289.365411 
L 220.562921 289.496081 
L 219.669404 290.311015 
L 219.320101 290.427845 
L 219.198936 290.57062 
L 218.789309 290.717115 
L 218.581011 290.905671 
L 218.4653 291.00768 
L 217.857279 291.468509 
L 217.292268 291.616434 
L 216.801531 292.060816 
L 216.38989 292.178924 
L 216.273396 292.344293 
L 215.893299 292.483321 
L 215.665882 292.643682 
L 215.463263 292.94922 
L 213.411586 293.893529 
L 213.322289 294.036029 
L 212.80769 294.156512 
L 212.31323 294.639292 
L 210.802871 295.371625 
L 210.66304 295.442479 
L 210.094205 295.678275 
L 209.692018 295.789873 
L 209.615446 295.936054 
L 209.462691 296.05544 
L 209.430085 296.086332 
L 208.853349 296.203473 
L 208.226614 296.463948 
L 207.980252 296.708736 
L 207.773263 296.889801 
L 206.587676 297.588297 
L 206.495185 297.614898 
L 205.575608 298.021429 
L 205.233082 298.128737 
L 205.135244 298.170401 
L 204.689175 298.306175 
L 204.578128 298.449035 
L 204.291095 298.570397 
L 203.709654 298.715898 
L 203.32261 298.833455 
L 203.094217 298.992792 
L 200.964649 299.6459 
L 200.825319 299.714441 
L 200.424582 299.815049 
L 199.812079 299.955538 
L 199.724664 299.976853 
L 198.169972 300.353303 
L 196.898613 300.619902 
L 196.72501 300.664345 
L 196.089404 300.818936 
L 192.5351 301.363926 
L 192.275689 301.446967 
L 188.642279 301.907953 
L 187.721584 302.056184 
L 187.687041 302.105616 
L 186.23162 302.351815 
L 185.820241 302.453489 
L 185.110437 302.571494 
L 183.780957 302.752937 
L 181.907599 302.911091 
L 181.689349 302.953271 
L 180.423852 303.08847 
L 180.189744 303.117367 
L 177.79267 303.270657 
L 176.541711 303.372604 
L 175.115861 303.502047 
L 174.776447 303.568073 
L 170.748884 303.878498 
L 170.577439 303.940395 
L 168.701178 304.049648 
L 160.548211 304.703335 
L 159.684093 304.788362 
L 157.054331 304.928011 
L 148.023232 305.360422 
L 143.968131 305.468592 
L 136.763906 305.710028 
L 136.110303 305.743001 
L 128.120104 306.007436 
L 127.253469 306.055317 
L 109.138887 306.50709 
L 100.661057 306.65873 
L 100.17489 306.680985 
L 96.804324 306.789674 
L 37.978758 307.394245 
L -1 307.514853 
L -1 307.514853 
" style="fill:none;stroke:#17becf;stroke-linecap:square;stroke-width:1.5;"/>
   </g>
   <g id="line2d_33">
    <path clip-path="url(#pc0fb626f3d)" d="M 461.8 306.439397 
L 454.958964 306.327509 
L 445.850234 306.123896 
L 444.903568 306.075729 
L 426.836977 305.721375 
L 424.744668 305.66784 
L 419.256122 305.554085 
L 418.900733 305.535053 
L 409.715579 305.361011 
L 409.652041 305.354447 
L 402.782746 305.197244 
L 402.667569 305.194015 
L 395.358446 305.059645 
L 394.995518 305.047206 
L 384.151475 304.777009 
L 384.074147 304.762105 
L 378.160533 304.605479 
L 376.001204 304.536431 
L 371.820322 304.425601 
L 370.372426 304.407575 
L 367.430855 304.297261 
L 366.623118 304.255022 
L 345.394174 303.511448 
L 345.229237 303.487985 
L 340.142928 303.239914 
L 338.846419 303.192504 
L 334.964023 303.049721 
L 331.14206 302.840836 
L 330.78989 302.816622 
L 328.605025 302.65247 
L 324.824478 302.458026 
L 321.76339 302.294475 
L 321.656462 302.285426 
L 319.581587 302.17561 
L 317.692189 302.018665 
L 317.583636 301.988084 
L 315.624523 301.859985 
L 315.499624 301.834893 
L 294.083236 300.123681 
L 293.728713 300.070705 
L 289.815262 299.729847 
L 289.605561 299.705097 
L 287.65298 299.507533 
L 285.831965 299.355553 
L 285.13331 299.269987 
L 284.324946 299.158403 
L 283.857053 299.062978 
L 282.936512 298.952126 
L 280.843986 298.739919 
L 280.251215 298.656601 
L 274.870183 297.696986 
L 274.715097 297.662833 
L 273.818409 297.55419 
L 272.862027 297.446477 
L 272.695755 297.396507 
L 272.219571 297.283143 
L 271.496444 297.115856 
L 270.089718 296.765117 
L 269.178304 296.568987 
L 268.620047 296.43022 
L 268.061122 296.25798 
L 267.009016 296.025527 
L 266.910835 295.952763 
L 266.203904 295.727531 
L 264.647448 295.264337 
L 264.493162 295.201626 
L 263.954083 295.042019 
L 263.64082 294.84683 
L 263.516203 294.77205 
L 263.192729 294.63699 
L 262.957427 294.524725 
L 262.334079 294.366817 
L 261.417934 294.057642 
L 261.29157 293.99139 
L 260.931223 293.863932 
L 260.385109 293.642517 
L 260.313102 293.569234 
L 259.877227 293.450759 
L 259.222179 293.203987 
L 258.600823 292.958767 
L 258.466513 292.78503 
L 258.263299 292.682802 
L 258.125015 292.59175 
L 257.727236 292.3657 
L 257.508606 292.241455 
L 256.643608 291.838933 
L 256.439161 291.751358 
L 255.381083 291.27078 
L 254.757327 291.040265 
L 254.533478 290.977586 
L 254.404882 290.865855 
L 254.122895 290.731603 
L 253.976892 290.662352 
L 253.031681 290.241265 
L 252.362808 290.10422 
L 252.117695 289.931546 
L 251.872087 289.82318 
L 251.524189 289.645715 
L 251.148486 289.50707 
L 250.897963 289.391322 
L 250.826875 289.260011 
L 250.213652 289.039019 
L 249.995268 288.89959 
L 248.982057 288.526569 
L 248.828613 288.482111 
L 248.454952 288.325485 
L 248.338344 288.263414 
L 248.065288 288.152721 
L 247.821986 288.014557 
L 247.706701 287.915547 
L 247.437951 287.786523 
L 247.329879 287.678323 
L 246.812964 287.509483 
L 244.550814 286.689562 
L 244.254112 286.58421 
L 244.059234 286.499709 
L 243.684203 286.350177 
L 243.558904 286.250355 
L 243.236069 286.11756 
L 242.97221 286.030198 
L 242.600521 285.901023 
L 242.252426 285.768011 
L 242.087959 285.706662 
L 238.414441 284.962376 
L 237.646129 284.854167 
L 237.595695 284.841306 
L 232.33938 284.925462 
L 231.976574 284.983194 
L 227.645346 285.82978 
L 227.258485 285.992259 
L 226.845434 286.107121 
L 226.55503 286.261188 
L 226.459698 286.349702 
L 225.825739 286.484743 
L 225.297759 286.831244 
L 224.931194 287.046918 
L 224.766607 287.162191 
L 224.6639 287.21242 
L 224.169754 287.460204 
L 224.010029 287.498019 
L 223.450024 287.736497 
L 222.942977 287.910457 
L 222.417534 288.225543 
L 221.522093 288.574868 
L 221.384266 288.767423 
L 221.272841 288.809795 
L 220.727679 288.925241 
L 220.533057 289.026478 
L 220.373757 289.130478 
L 219.763127 289.684754 
L 219.497987 289.779006 
L 219.357618 289.921472 
L 218.374913 290.395338 
L 217.751162 290.675463 
L 216.907553 290.903116 
L 216.598121 291.155465 
L 215.817926 291.575527 
L 215.611218 291.785009 
L 215.429839 291.857856 
L 215.311686 291.937076 
L 214.96207 292.030832 
L 214.728321 292.143192 
L 211.687266 293.532307 
L 211.571124 293.633068 
L 211.101886 293.762571 
L 211.001304 293.871999 
L 210.517108 294.013128 
L 210.281548 294.130838 
L 209.916089 294.32521 
L 209.746821 294.548629 
L 209.347064 294.683079 
L 209.182419 294.929408 
L 207.911187 295.148304 
L 207.730854 295.272587 
L 207.485467 295.418422 
L 207.437169 295.487906 
L 207.101201 295.597332 
L 206.918058 295.666084 
L 206.433635 295.765099 
L 206.254687 295.891032 
L 203.642791 297.037091 
L 203.546067 297.0973 
L 203.177994 297.21346 
L 202.924796 297.279776 
L 202.190851 297.506256 
L 202.07057 297.587382 
L 201.785077 297.779923 
L 201.656346 297.893488 
L 201.005361 298.06627 
L 200.781597 298.153242 
L 200.53536 298.297555 
L 200.084211 298.555881 
L 199.761531 298.682437 
L 199.670649 298.746154 
L 199.542341 298.873366 
L 199.261379 298.983892 
L 198.956177 299.117563 
L 196.48143 299.805801 
L 196.39825 299.835597 
L 196.21412 299.948474 
L 195.965378 300.00076 
L 195.23332 300.212455 
L 194.714258 300.369421 
L 194.434444 300.41691 
L 193.867438 300.522679 
L 193.498216 300.68678 
L 192.263329 300.847321 
L 192.068168 300.924344 
L 191.137997 301.033393 
L 191.120863 301.04724 
L 190.520381 301.160809 
L 190.001174 301.316328 
L 189.846958 301.339145 
L 188.651922 301.677757 
L 188.545847 301.76202 
L 186.131745 302.065245 
L 185.945006 302.106603 
L 184.251683 302.227326 
L 172.404347 303.25556 
L 170.106138 303.373846 
L 164.007952 303.840908 
L 161.955807 303.945419 
L 161.893981 303.961307 
L 159.554708 304.070906 
L 156.639295 304.237661 
L 152.84044 304.3837 
L 152.212503 304.421291 
L 148.892923 304.696247 
L 146.116609 304.847772 
L 142.347144 304.993034 
L 142.337236 305.020683 
L 140.238243 305.132422 
L 135.389731 305.282245 
L 135.252906 305.302822 
L 132.033275 305.421318 
L 129.66438 305.53586 
L 127.257543 305.607553 
L 119.733782 305.764662 
L 119.460561 305.783404 
L 114.159544 305.959227 
L 113.954865 305.972621 
L 94.776968 306.453402 
L 26.802536 307.304858 
L -1 307.419596 
L -1 307.419596 
" style="fill:none;stroke:#1f77b4;stroke-linecap:square;stroke-width:1.5;"/>
   </g>
   <g id="line2d_34">
    <path clip-path="url(#pc0fb626f3d)" d="M 461.8 305.828149 
L 453.752192 305.708314 
L 445.733733 305.542959 
L 437.129018 305.376955 
L 437.092121 305.368482 
L 429.410543 305.212331 
L 427.808758 305.187586 
L 424.268143 305.072409 
L 371.147856 303.863921 
L 370.822184 303.852653 
L 364.40956 303.71041 
L 318.79955 301.633665 
L 318.460712 301.621609 
L 314.414946 301.428009 
L 312.646787 301.329354 
L 312.634054 301.311055 
L 309.648262 301.185756 
L 308.98996 301.142617 
L 307.559799 301.067796 
L 304.633758 300.89806 
L 303.53607 300.829685 
L 301.9326 300.708953 
L 298.418966 300.426504 
L 287.881734 299.434523 
L 287.785848 299.425183 
L 278.926894 298.147476 
L 278.099553 297.962513 
L 277.018013 297.837911 
L 276.304786 297.677769 
L 276.301167 297.655566 
L 273.814906 297.335313 
L 273.690342 297.310094 
L 272.886356 297.141863 
L 272.432417 297.052795 
L 271.997122 296.929816 
L 271.558092 296.833157 
L 267.538461 295.915707 
L 267.484969 295.862321 
L 266.93967 295.725585 
L 265.864949 295.185752 
L 265.751883 295.119378 
L 265.011538 294.915801 
L 263.229611 294.453672 
L 263.113356 294.418164 
L 262.112858 294.097837 
L 260.611078 293.554239 
L 260.564347 293.469176 
L 260.20829 293.33662 
L 259.848738 293.202414 
L 258.915669 292.965251 
L 258.880802 292.937447 
L 258.227246 292.830764 
L 258.166167 292.773875 
L 255.007577 291.585572 
L 254.268639 291.361535 
L 254.147951 291.319791 
L 253.843667 291.21503 
L 253.701275 291.161471 
L 253.293626 291.030841 
L 252.905963 290.917739 
L 252.869164 290.898092 
L 252.333035 290.781369 
L 251.720883 290.638126 
L 250.685313 290.428434 
L 250.280202 290.294542 
L 249.745976 290.148329 
L 249.611388 290.046484 
L 249.39299 289.946645 
L 248.054739 289.665965 
L 247.886889 289.575068 
L 247.368107 289.418872 
L 246.915487 289.341429 
L 246.385595 289.120158 
L 246.238424 289.069641 
L 244.453451 288.586597 
L 244.179174 288.47939 
L 243.519644 288.308675 
L 242.30194 287.973441 
L 241.74807 287.893917 
L 240.584664 287.750271 
L 239.685879 287.546636 
L 237.69834 287.241033 
L 234.234506 287.0516 
L 230.981981 287.159522 
L 230.795505 287.169794 
L 229.898024 287.284638 
L 229.860004 287.297689 
L 228.425343 287.427338 
L 228.181419 287.470988 
L 227.511888 287.608291 
L 225.992726 287.8912 
L 225.74837 287.946883 
L 224.940153 288.050909 
L 223.412519 288.401753 
L 223.075113 288.502508 
L 222.943357 288.648097 
L 222.78907 288.736087 
L 222.425306 288.861675 
L 222.265823 288.979105 
L 222.114818 289.136295 
L 220.353113 289.458122 
L 219.969774 289.608272 
L 219.490812 289.767425 
L 217.44067 290.417084 
L 216.833584 290.538973 
L 216.429909 290.737999 
L 216.329465 290.855315 
L 215.461923 291.101337 
L 214.346364 291.468787 
L 214.166679 291.588529 
L 210.998787 292.828424 
L 210.913401 292.933865 
L 210.293392 293.026207 
L 210.152941 293.197441 
L 208.235206 293.786704 
L 208.089866 293.948982 
L 207.849588 294.073823 
L 207.728237 294.215212 
L 207.541483 294.256609 
L 207.365541 294.519348 
L 207.162744 294.661412 
L 207.114392 294.723079 
L 206.652785 294.840935 
L 206.353377 295.044588 
L 205.755681 295.274613 
L 205.529167 295.385314 
L 205.104276 295.502642 
L 204.803342 295.670688 
L 204.036613 295.838931 
L 203.531029 295.998198 
L 203.420666 296.184944 
L 202.667818 296.586395 
L 202.570844 296.679525 
L 202.260516 296.769764 
L 202.147942 296.900771 
L 201.793955 297.015279 
L 201.343052 297.182532 
L 201.093423 297.317144 
L 200.77801 297.414775 
L 199.766646 297.728135 
L 198.992428 297.850647 
L 198.77265 297.921163 
L 198.56002 298.042761 
L 198.428866 298.127485 
L 198.264924 298.26107 
L 196.738874 298.602969 
L 196.67012 298.756637 
L 195.940925 298.90725 
L 193.875259 299.374841 
L 193.144016 299.500286 
L 192.544601 299.722767 
L 192.160843 299.830734 
L 191.959136 299.919094 
L 191.93198 299.949158 
L 191.404226 300.098567 
L 191.115489 300.237588 
L 190.308208 300.453281 
L 190.197623 300.510128 
L 187.884044 300.853767 
L 187.845574 300.88884 
L 186.794728 301.100579 
L 186.3796 301.195684 
L 185.263491 301.350253 
L 185.214266 301.380418 
L 184.307599 301.507833 
L 184.154982 301.550087 
L 182.81965 301.68289 
L 182.74372 301.70002 
L 182.210098 301.774725 
L 181.433608 301.874443 
L 181.427788 301.900587 
L 180.322957 302.013224 
L 180.126038 302.042438 
L 179.107084 302.134385 
L 178.986742 302.183949 
L 176.850611 302.350135 
L 174.592657 302.485541 
L 174.458335 302.53203 
L 167.020698 303.340838 
L 164.887435 303.450709 
L 163.220937 303.570461 
L 161.522089 303.682395 
L 159.556829 303.794012 
L 157.717812 303.874653 
L 155.31696 304.039256 
L 155.148656 304.067783 
L 152.415511 304.20037 
L 152.378268 304.211683 
L 148.857237 304.375211 
L 148.853869 304.381988 
L 137.602018 304.898943 
L 137.598671 304.901713 
L 134.227226 305.031254 
L 133.473978 305.079896 
L 127.756814 305.208511 
L 107.726993 305.922535 
L 102.25297 306.037431 
L 102.12522 306.074977 
L 94.063988 306.257485 
L 82.984247 306.522039 
L 75.292073 306.690781 
L 67.188104 306.804823 
L 56.345757 306.948711 
L 35.879457 307.07488 
L 23.594323 307.176257 
L 6.152937 307.311386 
L -1 307.338754 
L -1 307.338754 
" style="fill:none;stroke:#ff7f0e;stroke-linecap:square;stroke-width:1.5;"/>
   </g>
   <g id="line2d_35">
    <path clip-path="url(#pc0fb626f3d)" d="M 461.8 305.444719 
L 459.577053 305.414174 
L 452.190904 305.307504 
L 423.676919 304.697934 
L 422.886462 304.685003 
L 407.588611 304.386609 
L 403.274625 304.275948 
L 400.507892 304.17034 
L 362.724692 303.158945 
L 362.069602 303.13123 
L 360.410325 303.071968 
L 355.151312 302.917232 
L 354.868646 302.892801 
L 351.4045 302.772883 
L 342.398315 302.454308 
L 342.085944 302.424738 
L 341.623188 302.416453 
L 336.862827 302.300373 
L 335.919337 302.250067 
L 333.144938 302.106165 
L 331.459678 302.054874 
L 323.158022 301.641361 
L 322.38826 301.601467 
L 318.861085 301.46771 
L 315.748317 301.31494 
L 312.098056 301.112882 
L 310.320049 301.014739 
L 308.005785 300.889769 
L 306.778703 300.78703 
L 304.391401 300.67398 
L 304.173348 300.638136 
L 301.933094 300.515772 
L 301.612214 300.490759 
L 297.850988 300.224292 
L 295.070662 299.946039 
L 293.835134 299.835507 
L 293.135074 299.723176 
L 283.19858 298.59232 
L 283.101622 298.57522 
L 281.551515 298.366461 
L 281.439957 298.355634 
L 281.361456 298.324786 
L 277.897104 297.800308 
L 276.908722 297.687599 
L 276.793541 297.638387 
L 275.491684 297.491369 
L 275.413253 297.479749 
L 275.085816 297.402024 
L 274.926219 297.331417 
L 274.246439 297.177819 
L 274.130671 297.143548 
L 273.328246 297.027983 
L 272.594383 296.824763 
L 271.690713 296.717139 
L 271.003802 296.506122 
L 270.915198 296.453996 
L 269.334837 296.134649 
L 269.166725 296.098334 
L 268.552121 295.872201 
L 268.45817 295.833174 
L 267.411365 295.680813 
L 267.040451 295.548255 
L 265.659399 295.240664 
L 265.472854 295.131562 
L 264.968281 294.861146 
L 264.880374 294.820578 
L 264.305532 294.703236 
L 263.273405 294.47578 
L 263.169738 294.423852 
L 260.67357 293.929364 
L 260.081663 293.790073 
L 259.672737 293.667208 
L 258.954848 293.548518 
L 258.85427 293.507881 
L 258.174626 293.395292 
L 257.954174 293.341569 
L 254.073962 291.971333 
L 253.471117 291.869677 
L 253.066328 291.788714 
L 251.396738 291.467553 
L 251.253299 291.411957 
L 250.845438 291.28811 
L 249.252576 290.942429 
L 248.434843 290.816876 
L 248.353481 290.79563 
L 247.716083 290.671504 
L 246.376831 290.247172 
L 245.091033 289.940829 
L 244.884823 289.878974 
L 244.458372 289.736157 
L 244.188339 289.700552 
L 243.333939 289.541364 
L 242.793776 289.446011 
L 241.900352 289.343924 
L 241.729089 289.283908 
L 240.382784 289.136697 
L 239.24144 289.025658 
L 238.878253 289.013898 
L 232.361038 288.882024 
L 232.121718 288.90831 
L 227.807646 289.226449 
L 227.658869 289.274276 
L 225.949295 289.558965 
L 225.871847 289.564588 
L 225.595931 289.665264 
L 225.549788 289.68912 
L 225.063267 289.817781 
L 223.686225 290.040836 
L 222.903205 290.157546 
L 222.302733 290.301553 
L 222.121809 290.357797 
L 221.92525 290.464819 
L 221.841568 290.48395 
L 221.381278 290.599046 
L 220.419487 290.830973 
L 220.299161 290.984091 
L 219.53051 291.362702 
L 219.529528 291.371653 
L 218.845991 291.563559 
L 218.692751 291.609149 
L 218.260415 291.687348 
L 218.155231 291.761636 
L 218.069366 291.791775 
L 217.077747 291.949185 
L 216.633919 292.043716 
L 215.881427 292.133389 
L 215.697362 292.306109 
L 215.185248 292.414466 
L 214.961902 292.533077 
L 214.419497 292.632359 
L 214.256796 292.69135 
L 213.948764 292.807595 
L 213.730962 292.902422 
L 213.128744 293.010257 
L 212.932049 293.083547 
L 212.379769 293.1924 
L 212.331633 293.238281 
L 211.622057 293.448227 
L 210.865286 293.617906 
L 210.528335 293.775181 
L 210.424652 293.878913 
L 210.075711 293.960228 
L 209.675262 294.08192 
L 209.072369 294.18723 
L 207.289421 294.797248 
L 206.980014 294.948022 
L 204.96719 295.508787 
L 204.608136 295.61442 
L 204.090664 295.765793 
L 203.481628 295.927771 
L 202.988664 296.063418 
L 202.627018 296.158686 
L 202.435065 296.223091 
L 200.979984 296.61583 
L 200.207313 296.854098 
L 199.35046 297.049408 
L 199.257852 297.162414 
L 199.177663 297.239447 
L 198.743961 297.40409 
L 198.378764 297.473473 
L 198.04416 297.544581 
L 197.566823 297.600335 
L 196.477848 297.734108 
L 196.221168 297.890534 
L 195.808448 298.046483 
L 195.479898 298.189222 
L 195.032231 298.298192 
L 194.974905 298.341112 
L 194.419238 298.464535 
L 193.760787 298.586703 
L 192.83445 298.724347 
L 192.715784 298.848454 
L 192.004078 298.966097 
L 191.857772 299.032525 
L 191.3202 299.197906 
L 191.262631 299.226375 
L 190.498399 299.385683 
L 189.232576 299.689571 
L 189.036561 299.762794 
L 187.904208 300.021515 
L 187.807429 300.083838 
L 187.149777 300.209727 
L 186.756886 300.2654 
L 185.843798 300.398891 
L 185.308785 300.516435 
L 184.926915 300.618869 
L 183.519871 300.924936 
L 183.265419 300.96761 
L 182.40474 301.091918 
L 182.138745 301.17447 
L 180.864221 301.30352 
L 180.786303 301.338112 
L 179.784571 301.489324 
L 179.427421 301.584569 
L 177.986515 301.71866 
L 170.492167 302.570927 
L 170.381874 302.58803 
L 167.423032 302.937653 
L 167.101858 302.971368 
L 163.795332 303.246245 
L 161.261019 303.370409 
L 161.088954 303.390733 
L 159.318398 303.526301 
L 157.81526 303.63649 
L 153.757582 303.847737 
L 151.083504 303.956252 
L 150.863539 303.972334 
L 148.062086 304.107303 
L 147.944814 304.127652 
L 143.188454 304.315634 
L 142.494633 304.343551 
L 130.101389 304.91475 
L 129.838528 304.927381 
L 126.914848 304.984103 
L 122.801369 305.134871 
L 120.745625 305.19865 
L 115.239229 305.310101 
L 111.107086 305.442633 
L 110.890342 305.48253 
L 108.525011 305.523044 
L 103.520992 305.636306 
L 102.942207 305.670609 
L 92.691218 306.002921 
L 88.777915 306.096195 
L 85.591809 306.195256 
L 80.194056 306.363421 
L 74.819316 306.481442 
L 74.795637 306.494238 
L 63.63972 306.60519 
L 43.645565 306.940915 
L 32.23079 307.0551 
L 4.305508 307.192931 
L 0.379194 307.21808 
L -1 307.2214 
L -1 307.2214 
" style="fill:none;stroke:#2ca02c;stroke-linecap:square;stroke-width:1.5;"/>
   </g>
   <g id="line2d_36">
    <path clip-path="url(#pc0fb626f3d)" d="M 461.8 305.56697 
L 456.913246 305.471079 
L 448.003505 305.317593 
L 444.802673 305.257304 
L 438.881999 305.122558 
L 397.017088 304.323916 
L 390.786469 304.177434 
L 385.787442 304.053514 
L 372.375106 303.703451 
L 369.178756 303.610424 
L 363.900468 303.42509 
L 361.98197 303.341525 
L 353.920886 303.111297 
L 353.794472 303.099503 
L 315.463747 301.747509 
L 315.135979 301.733761 
L 309.051183 301.44398 
L 306.88011 301.34174 
L 299.557218 300.994391 
L 288.368331 300.137795 
L 288.075775 300.106008 
L 286.291007 299.901747 
L 284.798629 299.764444 
L 284.088196 299.681405 
L 283.440916 299.57725 
L 283.384461 299.540376 
L 282.277966 299.380675 
L 275.22528 298.435507 
L 274.52194 298.306894 
L 274.416718 298.296557 
L 274.156652 298.236776 
L 272.907085 298.03126 
L 270.311242 297.550028 
L 270.290355 297.535385 
L 269.334837 297.411571 
L 269.142711 297.352806 
L 266.324626 296.868684 
L 266.240222 296.841486 
L 265.936308 296.745052 
L 265.502789 296.547706 
L 265.335949 296.502357 
L 264.90276 296.362024 
L 264.447334 296.277484 
L 263.304859 296.130439 
L 263.169738 296.042555 
L 262.743242 295.926785 
L 262.529971 295.854276 
L 261.575905 295.692798 
L 261.528595 295.67287 
L 260.907389 295.525942 
L 260.843071 295.492718 
L 260.081663 295.3403 
L 258.116332 294.801787 
L 257.545042 294.687019 
L 257.430618 294.646255 
L 256.775648 294.49028 
L 256.698757 294.438943 
L 256.430955 294.327017 
L 256.325438 294.267286 
L 254.81506 293.776762 
L 254.697774 293.713737 
L 254.361277 293.606452 
L 252.68566 293.135083 
L 251.064504 292.793162 
L 250.832512 292.708865 
L 250.435296 292.557507 
L 250.045246 292.473533 
L 249.252576 292.348614 
L 243.913996 291.238911 
L 241.951672 290.863696 
L 238.790135 290.423701 
L 234.519132 290.271643 
L 230.532639 290.381652 
L 227.083027 290.616894 
L 222.903205 291.361222 
L 222.310487 291.481366 
L 221.841568 291.699928 
L 220.993898 291.818421 
L 220.872388 291.870707 
L 220.419487 291.982445 
L 220.304817 292.104441 
L 220.155836 292.145162 
L 217.946985 292.645336 
L 217.77437 292.678293 
L 217.077747 292.756602 
L 216.95545 292.848399 
L 213.836492 293.74172 
L 213.730962 293.830016 
L 213.256199 293.943219 
L 213.064851 294.04785 
L 212.412969 294.141681 
L 212.236825 294.22198 
L 211.283163 294.381858 
L 210.842838 294.46892 
L 210.719697 294.640478 
L 210.499863 294.789465 
L 210.242664 294.841245 
L 210.002423 294.924981 
L 209.616662 295.02238 
L 208.614858 295.226542 
L 208.402601 295.274681 
L 207.894748 295.461189 
L 207.761365 295.607499 
L 207.460443 295.768319 
L 207.388611 295.806412 
L 206.280661 295.963176 
L 205.992298 296.044242 
L 200.352281 297.574585 
L 199.89317 297.677589 
L 199.512653 297.754522 
L 199.253088 297.856836 
L 199.177663 297.978945 
L 197.392396 298.355674 
L 196.477848 298.455665 
L 195.924178 298.649345 
L 195.012864 298.956848 
L 194.856947 298.988378 
L 193.203538 299.271168 
L 192.144688 299.407323 
L 191.414086 299.591735 
L 189.310882 300.022594 
L 189.153587 300.116408 
L 188.585837 300.28501 
L 188.186016 300.394335 
L 178.752239 301.873517 
L 177.59709 301.981805 
L 161.171803 303.660921 
L 159.413784 303.806388 
L 159.318398 303.817798 
L 156.995499 303.972747 
L 156.714524 304.042995 
L 151.145293 304.276887 
L 150.423799 304.355331 
L 147.226698 304.52922 
L 146.876199 304.567213 
L 142.807757 304.682578 
L 125.063991 305.311815 
L 119.798874 305.479201 
L 119.106857 305.508131 
L 114.409162 305.627059 
L 107.330098 305.756049 
L 104.985841 305.82785 
L 101.10191 305.936732 
L 99.876004 306.009515 
L 94.899665 306.119023 
L 94.884773 306.123989 
L 87.673525 306.250349 
L 80.99067 306.423763 
L 72.924415 306.533011 
L 51.928138 306.805582 
L 51.048865 306.820072 
L 43.922918 306.927565 
L 35.904028 307.042266 
L 9.245625 307.183729 
L -1 307.256272 
L -1 307.256272 
" style="fill:none;stroke:#d62728;stroke-linecap:square;stroke-width:1.5;"/>
   </g>
   <g id="line2d_37">
    <path clip-path="url(#pc0fb626f3d)" d="M 461.8 305.714938 
L 457.895572 305.669134 
L 450.024245 305.556679 
L 449.448592 305.537614 
L 439.000423 305.337085 
L 436.959751 305.29614 
L 412.687559 304.897448 
L 333.189204 302.751552 
L 332.833067 302.720327 
L 329.238854 302.585766 
L 323.25628 302.37617 
L 323.116956 302.354287 
L 321.244283 302.303787 
L 317.833447 302.18697 
L 316.659417 302.136726 
L 313.48575 301.988936 
L 313.434566 301.974272 
L 311.509084 301.857507 
L 302.92022 301.512188 
L 302.680765 301.495934 
L 300.273798 301.374961 
L 288.01528 300.531456 
L 287.867093 300.489941 
L 286.972458 300.415601 
L 271.598719 298.497999 
L 271.482855 298.439471 
L 270.825479 298.320216 
L 262.765207 296.995249 
L 262.454199 296.94448 
L 262.194975 296.817591 
L 261.528595 296.642822 
L 260.925453 296.495835 
L 260.843071 296.465187 
L 259.823717 296.238706 
L 259.672737 296.139469 
L 258.910773 295.996424 
L 258.605793 295.953776 
L 257.954174 295.840889 
L 256.780718 295.50395 
L 256.698757 295.470979 
L 256.372541 295.357471 
L 255.509563 295.124609 
L 254.611648 294.917805 
L 254.073962 294.780251 
L 252.339409 294.419314 
L 251.984947 294.34623 
L 251.426268 294.229235 
L 250.832512 294.032077 
L 250.150636 293.913757 
L 249.653869 293.790788 
L 249.252576 293.688151 
L 248.438034 293.578355 
L 248.353481 293.551188 
L 247.63785 293.439798 
L 247.409435 293.375664 
L 240.026631 291.941345 
L 236.16 291.591383 
L 236.16 291.567817 
L 236.16 291.593338 
L 236.118729 291.593338 
L 229.987062 291.697697 
L 228.822482 291.760994 
L 226.836287 291.921568 
L 226.384551 291.985195 
L 225.262306 292.120471 
L 224.723546 292.240661 
L 224.113492 292.36218 
L 222.734193 292.538356 
L 222.456654 292.615511 
L 221.961397 292.755931 
L 219.570583 293.341725 
L 219.016125 293.445808 
L 218.815695 293.545746 
L 218.359526 293.646319 
L 218.215651 293.824031 
L 217.351841 293.967841 
L 216.912608 294.082507 
L 216.633919 294.208521 
L 215.779437 294.349076 
L 214.961902 294.632396 
L 212.412969 295.128946 
L 211.861753 295.248436 
L 211.092085 295.37738 
L 210.34325 295.668338 
L 209.682018 295.780421 
L 209.616662 295.807967 
L 208.349143 295.989563 
L 208.147782 296.143594 
L 204.481709 296.954396 
L 204.024816 297.07136 
L 203.202015 297.281559 
L 202.872163 297.405439 
L 202.09012 297.599747 
L 201.537672 297.756624 
L 201.3568 297.863662 
L 200.72022 297.979815 
L 200.59882 298.013561 
L 199.89317 298.129971 
L 199.248536 298.390026 
L 197.931657 298.703045 
L 197.168598 298.833756 
L 188.972295 300.410116 
L 188.747805 300.519196 
L 185.684697 301.124528 
L 184.293507 301.294699 
L 177.783935 302.134974 
L 176.060022 302.330509 
L 175.811824 302.383334 
L 173.826678 302.608833 
L 173.721441 302.629299 
L 167.720835 303.318756 
L 167.659775 303.355136 
L 164.706182 303.592308 
L 162.651198 303.78246 
L 160.638855 303.912978 
L 151.083504 304.413559 
L 150.863539 304.451495 
L 149.586342 304.553056 
L 149.481125 304.576 
L 145.968153 304.681191 
L 145.079209 304.747793 
L 141.41224 304.885115 
L 140.075328 304.963806 
L 135.811963 305.162922 
L 135.795128 305.182437 
L 130.562721 305.355351 
L 129.750029 305.406451 
L 125.063991 305.518913 
L 123.450268 305.578474 
L 116.989316 305.74932 
L 112.238045 305.909107 
L 100.675552 306.159525 
L 96.440387 306.255932 
L 87.08955 306.392574 
L 86.127932 306.415238 
L 80.99067 306.532355 
L 64.010362 306.666129 
L 55.731834 306.784283 
L 37.085433 306.991211 
L 35.904028 307.053996 
L -1 307.309463 
L -1 307.309463 
" style="fill:none;stroke:#9467bd;stroke-linecap:square;stroke-width:1.5;"/>
   </g>
   <g id="line2d_38">
    <path clip-path="url(#pc0fb626f3d)" d="M 461.8 305.823985 
L 459.125071 305.791963 
L 448.376885 305.621178 
L 446.532023 305.587978 
L 437.185268 305.459632 
L 428.615874 305.315179 
L 420.074364 305.181055 
L 412.193305 305.034615 
L 385.896173 304.499858 
L 380.579036 304.362258 
L 373.745422 304.204831 
L 314.230392 302.301666 
L 314.011923 302.297299 
L 311.768319 302.181077 
L 309.921916 302.100325 
L 306.778703 301.938481 
L 300.597003 301.67743 
L 298.764575 301.562817 
L 296.325091 301.435813 
L 284.890608 300.656199 
L 274.418228 299.493817 
L 274.371573 299.465425 
L 273.333248 299.333606 
L 273.282718 299.311917 
L 271.58401 299.026246 
L 271.482855 299.004994 
L 270.825479 298.891591 
L 268.971632 298.599157 
L 268.868574 298.538804 
L 267.726727 298.361969 
L 266.783634 298.244344 
L 266.039778 298.054128 
L 265.472854 297.879386 
L 264.597129 297.76271 
L 264.586284 297.725423 
L 263.663623 297.614758 
L 263.135134 297.490133 
L 262.300543 297.281854 
L 261.393503 297.122129 
L 261.302083 297.088711 
L 260.295917 296.888612 
L 260.212777 296.853037 
L 259.737075 296.738293 
L 259.118982 296.598007 
L 258.712867 296.487365 
L 258.305495 296.446372 
L 257.520457 296.332063 
L 256.762334 296.157215 
L 256.127487 295.955988 
L 255.981978 295.916425 
L 254.758221 295.658247 
L 254.611648 295.607843 
L 253.471117 295.381117 
L 252.914708 295.247564 
L 251.649733 295.00579 
L 251.495897 294.983634 
L 250.533396 294.823726 
L 250.361556 294.767338 
L 249.719307 294.662012 
L 249.252576 294.53641 
L 248.472948 294.414499 
L 248.11417 294.369643 
L 247.632623 294.24293 
L 247.440724 294.182198 
L 242.429552 293.265809 
L 241.526125 293.154115 
L 236.16 292.609677 
L 236.16 292.570856 
L 236.16 292.611514 
L 236.118729 292.611514 
L 227.310904 292.720015 
L 226.384551 292.804129 
L 225.069419 292.951048 
L 224.944833 292.973255 
L 223.044214 293.205551 
L 222.029319 293.37936 
L 221.922323 293.464034 
L 221.714015 293.539828 
L 220.343894 293.727303 
L 220.155836 293.826028 
L 219.412991 293.971162 
L 219.296677 294.030811 
L 217.909296 294.350577 
L 217.80076 294.391749 
L 217.45511 294.504727 
L 216.491652 294.645013 
L 215.697362 294.789168 
L 215.425334 294.856959 
L 214.768368 295.011615 
L 214.419497 295.097391 
L 213.82884 295.277462 
L 212.82987 295.43446 
L 212.700025 295.542088 
L 212.389707 295.65881 
L 212.213285 295.726235 
L 210.827316 296.072982 
L 210.686618 296.165052 
L 210.482441 296.361693 
L 209.902062 296.441392 
L 209.414836 296.555032 
L 209.384361 296.611542 
L 207.903905 296.803847 
L 207.619486 296.972196 
L 206.874533 297.183069 
L 206.540574 297.278389 
L 203.586668 297.989608 
L 203.054962 298.111304 
L 202.902841 298.176905 
L 202.697329 298.231697 
L 201.843706 298.320502 
L 201.71196 298.392764 
L 201.201967 298.54318 
L 201.131995 298.59057 
L 199.969434 298.774365 
L 199.512653 298.863453 
L 199.1985 298.976821 
L 198.743961 299.118656 
L 198.10166 299.248229 
L 197.618248 299.286095 
L 196.841839 299.423792 
L 188.899628 300.992591 
L 188.787937 301.052872 
L 187.407354 301.264462 
L 187.241 301.312004 
L 185.649254 301.551532 
L 185.240507 301.641974 
L 183.71158 301.908387 
L 183.611307 301.921759 
L 182.575848 302.054026 
L 180.871056 302.215685 
L 180.786303 302.269308 
L 179.736266 302.395861 
L 179.427421 302.443143 
L 178.025766 302.581321 
L 177.783935 302.617031 
L 175.948677 302.770557 
L 175.811824 302.80116 
L 173.347338 302.969709 
L 172.941413 303.066453 
L 171.527518 303.164413 
L 170.505588 303.33584 
L 170.381874 303.368046 
L 165.600634 303.678756 
L 159.817094 304.011583 
L 158.910157 304.101538 
L 156.77839 304.223958 
L 156.714524 304.241909 
L 150.912882 304.492013 
L 150.321971 304.506637 
L 147.423288 304.617946 
L 146.750462 304.680769 
L 144.612228 304.863585 
L 141.41224 305.012403 
L 141.068927 305.034495 
L 137.742738 305.161464 
L 137.689499 305.19671 
L 129.944035 305.451446 
L 128.184085 305.501323 
L 102.942207 306.156549 
L 95.329914 306.265317 
L 95.09009 306.281275 
L 92.395861 306.339696 
L 86.997834 306.459731 
L 80.99067 306.606291 
L 27.644086 307.106693 
L 11.787409 307.211889 
L 11.615674 307.234923 
L -1 307.322398 
L -1 307.322398 
" style="fill:none;stroke:#8c564b;stroke-linecap:square;stroke-width:1.5;"/>
   </g>
   <g id="patch_3">
    <path d="M 57.6 307.584 
L 57.6 41.472 
" style="fill:none;stroke:#000000;stroke-linecap:square;stroke-linejoin:miter;stroke-width:0.8;"/>
   </g>
   <g id="patch_4">
    <path d="M 414.72 307.584 
L 414.72 41.472 
" style="fill:none;stroke:#000000;stroke-linecap:square;stroke-linejoin:miter;stroke-width:0.8;"/>
   </g>
   <g id="patch_5">
    <path d="M 57.6 307.584 
L 414.72 307.584 
" style="fill:none;stroke:#000000;stroke-linecap:square;stroke-linejoin:miter;stroke-width:0.8;"/>
   </g>
   <g id="patch_6">
    <path d="M 57.6 41.472 
L 414.72 41.472 
" style="fill:none;stroke:#000000;stroke-linecap:square;stroke-linejoin:miter;stroke-width:0.8;"/>
   </g>
   <g id="legend_1">
    <g id="patch_7">
     <path d="M 260.22375 215.402625 
L 406.32 215.402625 
Q 408.72 215.402625 408.72 213.002625 
L 408.72 49.872 
Q 408.72 47.472 406.32 47.472 
L 260.22375 47.472 
Q 257.82375 47.472 257.82375 49.872 
L 257.82375 213.002625 
Q 257.82375 215.402625 260.22375 215.402625 
z
" style="fill:#ffffff;opacity:0.8;stroke:#cccccc;stroke-linejoin:miter;"/>
    </g>
    <g id="text_14">
     <!-- Epoch[#] -->
     <defs>
      <path d="M 9.1875 72.90625 
L 59.90625 72.90625 
L 59.90625 58.6875 
L 27.984375 58.6875 
L 27.984375 45.125 
L 58.015625 45.125 
L 58.015625 30.90625 
L 27.984375 30.90625 
L 27.984375 14.203125 
L 60.984375 14.203125 
L 60.984375 0 
L 9.1875 0 
z
" id="DejaVuSans-Bold-69"/>
      <path d="M 25.875 7.90625 
L 25.875 -20.796875 
L 8.40625 -20.796875 
L 8.40625 54.6875 
L 25.875 54.6875 
L 25.875 46.6875 
Q 29.5 51.46875 33.890625 53.734375 
Q 38.28125 56 44 56 
Q 54.109375 56 60.59375 47.96875 
Q 67.09375 39.9375 67.09375 27.296875 
Q 67.09375 14.65625 60.59375 6.609375 
Q 54.109375 -1.421875 44 -1.421875 
Q 38.28125 -1.421875 33.890625 0.84375 
Q 29.5 3.125 25.875 7.90625 
z
M 37.5 43.3125 
Q 31.890625 43.3125 28.875 39.1875 
Q 25.875 35.0625 25.875 27.296875 
Q 25.875 19.53125 28.875 15.40625 
Q 31.890625 11.28125 37.5 11.28125 
Q 43.109375 11.28125 46.0625 15.375 
Q 49.03125 19.484375 49.03125 27.296875 
Q 49.03125 35.109375 46.0625 39.203125 
Q 43.109375 43.3125 37.5 43.3125 
z
" id="DejaVuSans-Bold-112"/>
      <path d="M 34.421875 43.5 
Q 28.609375 43.5 25.5625 39.328125 
Q 22.515625 35.15625 22.515625 27.296875 
Q 22.515625 19.4375 25.5625 15.25 
Q 28.609375 11.078125 34.421875 11.078125 
Q 40.140625 11.078125 43.15625 15.25 
Q 46.1875 19.4375 46.1875 27.296875 
Q 46.1875 35.15625 43.15625 39.328125 
Q 40.140625 43.5 34.421875 43.5 
z
M 34.421875 56 
Q 48.53125 56 56.46875 48.375 
Q 64.40625 40.765625 64.40625 27.296875 
Q 64.40625 13.8125 56.46875 6.1875 
Q 48.53125 -1.421875 34.421875 -1.421875 
Q 20.265625 -1.421875 12.28125 6.1875 
Q 4.296875 13.8125 4.296875 27.296875 
Q 4.296875 40.765625 12.28125 48.375 
Q 20.265625 56 34.421875 56 
z
" id="DejaVuSans-Bold-111"/>
      <path d="M 52.59375 52.984375 
L 52.59375 38.71875 
Q 49.03125 41.15625 45.4375 42.328125 
Q 41.84375 43.5 37.984375 43.5 
Q 30.671875 43.5 26.59375 39.234375 
Q 22.515625 34.96875 22.515625 27.296875 
Q 22.515625 19.625 26.59375 15.34375 
Q 30.671875 11.078125 37.984375 11.078125 
Q 42.09375 11.078125 45.78125 12.296875 
Q 49.46875 13.53125 52.59375 15.921875 
L 52.59375 1.609375 
Q 48.484375 0.09375 44.265625 -0.65625 
Q 40.046875 -1.421875 35.796875 -1.421875 
Q 21 -1.421875 12.640625 6.171875 
Q 4.296875 13.765625 4.296875 27.296875 
Q 4.296875 40.828125 12.640625 48.40625 
Q 21 56 35.796875 56 
Q 40.09375 56 44.265625 55.25 
Q 48.4375 54.5 52.59375 52.984375 
z
" id="DejaVuSans-Bold-99"/>
      <path d="M 63.375 33.296875 
L 63.375 0 
L 45.796875 0 
L 45.796875 5.421875 
L 45.796875 25.390625 
Q 45.796875 32.5625 45.484375 35.25 
Q 45.171875 37.9375 44.390625 39.203125 
Q 43.359375 40.921875 41.59375 41.875 
Q 39.84375 42.828125 37.59375 42.828125 
Q 32.125 42.828125 29 38.59375 
Q 25.875 34.375 25.875 26.90625 
L 25.875 0 
L 8.40625 0 
L 8.40625 75.984375 
L 25.875 75.984375 
L 25.875 46.6875 
Q 29.828125 51.46875 34.265625 53.734375 
Q 38.71875 56 44.09375 56 
Q 53.5625 56 58.46875 50.1875 
Q 63.375 44.390625 63.375 33.296875 
z
" id="DejaVuSans-Bold-104"/>
      <path d="M 8.59375 75.984375 
L 38.921875 75.984375 
L 38.921875 64.984375 
L 25.203125 64.984375 
L 25.203125 -2.203125 
L 38.921875 -2.203125 
L 38.921875 -13.1875 
L 8.59375 -13.1875 
z
" id="DejaVuSans-Bold-91"/>
      <path d="M 44.484375 71.78125 
L 39.796875 52.984375 
L 52.6875 52.984375 
L 57.421875 71.78125 
L 68.21875 71.78125 
L 63.484375 52.984375 
L 77 52.984375 
L 77 42.578125 
L 60.890625 42.578125 
L 57.515625 29.203125 
L 71.390625 29.203125 
L 71.390625 18.703125 
L 54.984375 18.703125 
L 50.296875 0 
L 39.5 0 
L 44.1875 18.703125 
L 31.296875 18.703125 
L 26.609375 0 
L 15.71875 0 
L 20.40625 18.703125 
L 6.78125 18.703125 
L 6.78125 29.203125 
L 22.796875 29.203125 
L 26.21875 42.578125 
L 12.40625 42.578125 
L 12.40625 52.984375 
L 28.90625 52.984375 
L 33.59375 71.78125 
z
M 50 42.578125 
L 37.109375 42.578125 
L 33.6875 29.203125 
L 46.578125 29.203125 
z
" id="DejaVuSans-Bold-35"/>
      <path d="M 37.109375 -13.1875 
L 6.78125 -13.1875 
L 6.78125 -2.203125 
L 20.515625 -2.203125 
L 20.515625 64.984375 
L 6.78125 64.984375 
L 6.78125 75.984375 
L 37.109375 75.984375 
z
" id="DejaVuSans-Bold-93"/>
     </defs>
     <g transform="translate(286.987969 65.949187)scale(0.18 -0.18)">
      <use xlink:href="#DejaVuSans-Bold-69"/>
      <use x="68.310547" xlink:href="#DejaVuSans-Bold-112"/>
      <use x="139.892578" xlink:href="#DejaVuSans-Bold-111"/>
      <use x="208.59375" xlink:href="#DejaVuSans-Bold-99"/>
      <use x="267.871094" xlink:href="#DejaVuSans-Bold-104"/>
      <use x="339.0625" xlink:href="#DejaVuSans-Bold-91"/>
      <use x="384.765625" xlink:href="#DejaVuSans-Bold-35"/>
      <use x="468.554688" xlink:href="#DejaVuSans-Bold-93"/>
     </g>
    </g>
    <g id="line2d_39">
     <path d="M 262.62375 80.61075 
L 286.62375 80.61075 
" style="fill:none;stroke:#1f77b4;stroke-linecap:square;stroke-width:1.5;"/>
    </g>
    <g id="line2d_40"/>
    <g id="text_15">
     <!-- 0 -->
     <g transform="translate(296.22375 84.81075)scale(0.12 -0.12)">
      <use xlink:href="#DejaVuSans-Bold-48"/>
     </g>
    </g>
    <g id="line2d_41">
     <path d="M 262.62375 98.2245 
L 286.62375 98.2245 
" style="fill:none;stroke:#ff7f0e;stroke-linecap:square;stroke-width:1.5;"/>
    </g>
    <g id="line2d_42"/>
    <g id="text_16">
     <!-- 25 -->
     <g transform="translate(296.22375 102.4245)scale(0.12 -0.12)">
      <use xlink:href="#DejaVuSans-Bold-50"/>
      <use x="69.580078" xlink:href="#DejaVuSans-Bold-53"/>
     </g>
    </g>
    <g id="line2d_43">
     <path d="M 262.62375 115.83825 
L 286.62375 115.83825 
" style="fill:none;stroke:#2ca02c;stroke-linecap:square;stroke-width:1.5;"/>
    </g>
    <g id="line2d_44"/>
    <g id="text_17">
     <!-- 50 -->
     <g transform="translate(296.22375 120.03825)scale(0.12 -0.12)">
      <use xlink:href="#DejaVuSans-Bold-53"/>
      <use x="69.580078" xlink:href="#DejaVuSans-Bold-48"/>
     </g>
    </g>
    <g id="line2d_45">
     <path d="M 262.62375 133.452 
L 286.62375 133.452 
" style="fill:none;stroke:#d62728;stroke-linecap:square;stroke-width:1.5;"/>
    </g>
    <g id="line2d_46"/>
    <g id="text_18">
     <!-- 75 -->
     <defs>
      <path d="M 6.6875 72.90625 
L 61.625 72.90625 
L 61.625 62.3125 
L 33.203125 0 
L 14.890625 0 
L 41.796875 59.078125 
L 6.6875 59.078125 
z
" id="DejaVuSans-Bold-55"/>
     </defs>
     <g transform="translate(296.22375 137.652)scale(0.12 -0.12)">
      <use xlink:href="#DejaVuSans-Bold-55"/>
      <use x="69.580078" xlink:href="#DejaVuSans-Bold-53"/>
     </g>
    </g>
    <g id="line2d_47">
     <path d="M 262.62375 151.06575 
L 286.62375 151.06575 
" style="fill:none;stroke:#9467bd;stroke-linecap:square;stroke-width:1.5;"/>
    </g>
    <g id="line2d_48"/>
    <g id="text_19">
     <!-- 100 -->
     <g transform="translate(296.22375 155.26575)scale(0.12 -0.12)">
      <use xlink:href="#DejaVuSans-Bold-49"/>
      <use x="69.580078" xlink:href="#DejaVuSans-Bold-48"/>
      <use x="139.160156" xlink:href="#DejaVuSans-Bold-48"/>
     </g>
    </g>
    <g id="line2d_49">
     <path d="M 262.62375 168.6795 
L 286.62375 168.6795 
" style="fill:none;stroke:#8c564b;stroke-linecap:square;stroke-width:1.5;"/>
    </g>
    <g id="line2d_50"/>
    <g id="text_20">
     <!-- 125 -->
     <g transform="translate(296.22375 172.8795)scale(0.12 -0.12)">
      <use xlink:href="#DejaVuSans-Bold-49"/>
      <use x="69.580078" xlink:href="#DejaVuSans-Bold-50"/>
      <use x="139.160156" xlink:href="#DejaVuSans-Bold-53"/>
     </g>
    </g>
    <g id="line2d_51">
     <path d="M 262.62375 186.29325 
L 286.62375 186.29325 
" style="fill:none;stroke:#e377c2;stroke-linecap:square;stroke-width:1.5;"/>
    </g>
    <g id="line2d_52"/>
    <g id="text_21">
     <!-- 150 -->
     <g transform="translate(296.22375 190.49325)scale(0.12 -0.12)">
      <use xlink:href="#DejaVuSans-Bold-49"/>
      <use x="69.580078" xlink:href="#DejaVuSans-Bold-53"/>
      <use x="139.160156" xlink:href="#DejaVuSans-Bold-48"/>
     </g>
    </g>
    <g id="line2d_53">
     <path d="M 262.62375 203.907 
L 286.62375 203.907 
" style="fill:none;stroke:#7f7f7f;stroke-linecap:square;stroke-width:1.5;"/>
    </g>
    <g id="line2d_54"/>
    <g id="text_22">
     <!-- 175 -->
     <g transform="translate(296.22375 208.107)scale(0.12 -0.12)">
      <use xlink:href="#DejaVuSans-Bold-49"/>
      <use x="69.580078" xlink:href="#DejaVuSans-Bold-55"/>
      <use x="139.160156" xlink:href="#DejaVuSans-Bold-53"/>
     </g>
    </g>
    <g id="line2d_55">
     <path d="M 345.271875 80.61075 
L 369.271875 80.61075 
" style="fill:none;stroke:#bcbd22;stroke-linecap:square;stroke-width:1.5;"/>
    </g>
    <g id="line2d_56"/>
    <g id="text_23">
     <!-- 200 -->
     <g transform="translate(378.871875 84.81075)scale(0.12 -0.12)">
      <use xlink:href="#DejaVuSans-Bold-50"/>
      <use x="69.580078" xlink:href="#DejaVuSans-Bold-48"/>
      <use x="139.160156" xlink:href="#DejaVuSans-Bold-48"/>
     </g>
    </g>
    <g id="line2d_57">
     <path d="M 345.271875 98.2245 
L 369.271875 98.2245 
" style="fill:none;stroke:#17becf;stroke-linecap:square;stroke-width:1.5;"/>
    </g>
    <g id="line2d_58"/>
    <g id="text_24">
     <!-- 225 -->
     <g transform="translate(378.871875 102.4245)scale(0.12 -0.12)">
      <use xlink:href="#DejaVuSans-Bold-50"/>
      <use x="69.580078" xlink:href="#DejaVuSans-Bold-50"/>
      <use x="139.160156" xlink:href="#DejaVuSans-Bold-53"/>
     </g>
    </g>
    <g id="line2d_59">
     <path d="M 345.271875 115.83825 
L 369.271875 115.83825 
" style="fill:none;stroke:#1f77b4;stroke-linecap:square;stroke-width:1.5;"/>
    </g>
    <g id="line2d_60"/>
    <g id="text_25">
     <!-- 250 -->
     <g transform="translate(378.871875 120.03825)scale(0.12 -0.12)">
      <use xlink:href="#DejaVuSans-Bold-50"/>
      <use x="69.580078" xlink:href="#DejaVuSans-Bold-53"/>
      <use x="139.160156" xlink:href="#DejaVuSans-Bold-48"/>
     </g>
    </g>
    <g id="line2d_61">
     <path d="M 345.271875 133.452 
L 369.271875 133.452 
" style="fill:none;stroke:#ff7f0e;stroke-linecap:square;stroke-width:1.5;"/>
    </g>
    <g id="line2d_62"/>
    <g id="text_26">
     <!-- 275 -->
     <g transform="translate(378.871875 137.652)scale(0.12 -0.12)">
      <use xlink:href="#DejaVuSans-Bold-50"/>
      <use x="69.580078" xlink:href="#DejaVuSans-Bold-55"/>
      <use x="139.160156" xlink:href="#DejaVuSans-Bold-53"/>
     </g>
    </g>
    <g id="line2d_63">
     <path d="M 345.271875 151.06575 
L 369.271875 151.06575 
" style="fill:none;stroke:#2ca02c;stroke-linecap:square;stroke-width:1.5;"/>
    </g>
    <g id="line2d_64"/>
    <g id="text_27">
     <!-- 300 -->
     <defs>
      <path d="M 46.578125 39.3125 
Q 53.953125 37.40625 57.78125 32.6875 
Q 61.625 27.984375 61.625 20.703125 
Q 61.625 9.859375 53.3125 4.21875 
Q 45.015625 -1.421875 29.109375 -1.421875 
Q 23.484375 -1.421875 17.84375 -0.515625 
Q 12.203125 0.390625 6.6875 2.203125 
L 6.6875 16.703125 
Q 11.96875 14.0625 17.15625 12.71875 
Q 22.359375 11.375 27.390625 11.375 
Q 34.859375 11.375 38.84375 13.953125 
Q 42.828125 16.546875 42.828125 21.390625 
Q 42.828125 26.375 38.75 28.9375 
Q 34.671875 31.5 26.703125 31.5 
L 19.1875 31.5 
L 19.1875 43.609375 
L 27.09375 43.609375 
Q 34.1875 43.609375 37.640625 45.828125 
Q 41.109375 48.046875 41.109375 52.59375 
Q 41.109375 56.78125 37.734375 59.078125 
Q 34.375 61.375 28.21875 61.375 
Q 23.6875 61.375 19.046875 60.34375 
Q 14.40625 59.328125 9.8125 57.328125 
L 9.8125 71.09375 
Q 15.375 72.65625 20.84375 73.4375 
Q 26.3125 74.21875 31.59375 74.21875 
Q 45.796875 74.21875 52.84375 69.546875 
Q 59.90625 64.890625 59.90625 55.515625 
Q 59.90625 49.125 56.53125 45.046875 
Q 53.171875 40.96875 46.578125 39.3125 
z
" id="DejaVuSans-Bold-51"/>
     </defs>
     <g transform="translate(378.871875 155.26575)scale(0.12 -0.12)">
      <use xlink:href="#DejaVuSans-Bold-51"/>
      <use x="69.580078" xlink:href="#DejaVuSans-Bold-48"/>
      <use x="139.160156" xlink:href="#DejaVuSans-Bold-48"/>
     </g>
    </g>
    <g id="line2d_65">
     <path d="M 345.271875 168.6795 
L 369.271875 168.6795 
" style="fill:none;stroke:#d62728;stroke-linecap:square;stroke-width:1.5;"/>
    </g>
    <g id="line2d_66"/>
    <g id="text_28">
     <!-- 325 -->
     <g transform="translate(378.871875 172.8795)scale(0.12 -0.12)">
      <use xlink:href="#DejaVuSans-Bold-51"/>
      <use x="69.580078" xlink:href="#DejaVuSans-Bold-50"/>
      <use x="139.160156" xlink:href="#DejaVuSans-Bold-53"/>
     </g>
    </g>
    <g id="line2d_67">
     <path d="M 345.271875 186.29325 
L 369.271875 186.29325 
" style="fill:none;stroke:#9467bd;stroke-linecap:square;stroke-width:1.5;"/>
    </g>
    <g id="line2d_68"/>
    <g id="text_29">
     <!-- 350 -->
     <g transform="translate(378.871875 190.49325)scale(0.12 -0.12)">
      <use xlink:href="#DejaVuSans-Bold-51"/>
      <use x="69.580078" xlink:href="#DejaVuSans-Bold-53"/>
      <use x="139.160156" xlink:href="#DejaVuSans-Bold-48"/>
     </g>
    </g>
    <g id="line2d_69">
     <path d="M 345.271875 203.907 
L 369.271875 203.907 
" style="fill:none;stroke:#8c564b;stroke-linecap:square;stroke-width:1.5;"/>
    </g>
    <g id="line2d_70"/>
    <g id="text_30">
     <!-- 375 -->
     <g transform="translate(378.871875 208.107)scale(0.12 -0.12)">
      <use xlink:href="#DejaVuSans-Bold-51"/>
      <use x="69.580078" xlink:href="#DejaVuSans-Bold-55"/>
      <use x="139.160156" xlink:href="#DejaVuSans-Bold-53"/>
     </g>
    </g>
   </g>
  </g>
 </g>
 <defs>
  <clipPath id="pc0fb626f3d">
   <rect height="266.112" width="357.12" x="57.6" y="41.472"/>
  </clipPath>
 </defs>
</svg>
