<?xml version="1.0" encoding="utf-8" standalone="no"?>
<!DOCTYPE svg PUBLIC "-//W3C//DTD SVG 1.1//EN"
  "http://www.w3.org/Graphics/SVG/1.1/DTD/svg11.dtd">
<!-- Created with matplotlib (https://matplotlib.org/) -->
<svg height="345.6pt" version="1.1" viewBox="0 0 460.8 345.6" width="460.8pt" xmlns="http://www.w3.org/2000/svg" xmlns:xlink="http://www.w3.org/1999/xlink">
 <defs>
  <style type="text/css">
*{stroke-linecap:butt;stroke-linejoin:round;}
  </style>
 </defs>
 <g id="figure_1">
  <g id="patch_1">
   <path d="M 0 345.6 
L 460.8 345.6 
L 460.8 0 
L 0 0 
z
" style="fill:#ffffff;"/>
  </g>
  <g id="axes_1">
   <g id="patch_2">
    <path d="M 57.6 307.584 
L 414.72 307.584 
L 414.72 41.472 
L 57.6 41.472 
z
" style="fill:#ffffff;"/>
   </g>
   <g id="matplotlib.axis_1">
    <g id="xtick_1">
     <g id="line2d_1">
      <defs>
       <path d="M 0 0 
L 0 3.5 
" id="m4905b77e57" style="stroke:#000000;stroke-width:0.8;"/>
      </defs>
      <g>
       <use style="stroke:#000000;stroke-width:0.8;" x="73.832727" xlink:href="#m4905b77e57" y="307.584"/>
      </g>
     </g>
     <g id="text_1">
      <!-- 0 -->
      <defs>
       <path d="M 46 36.53125 
Q 46 50.203125 43.4375 55.78125 
Q 40.875 61.375 34.8125 61.375 
Q 28.765625 61.375 26.171875 55.78125 
Q 23.578125 50.203125 23.578125 36.53125 
Q 23.578125 22.703125 26.171875 17.03125 
Q 28.765625 11.375 34.8125 11.375 
Q 40.828125 11.375 43.40625 17.03125 
Q 46 22.703125 46 36.53125 
z
M 64.796875 36.375 
Q 64.796875 18.265625 56.984375 8.421875 
Q 49.171875 -1.421875 34.8125 -1.421875 
Q 20.40625 -1.421875 12.59375 8.421875 
Q 4.78125 18.265625 4.78125 36.375 
Q 4.78125 54.546875 12.59375 64.375 
Q 20.40625 74.21875 34.8125 74.21875 
Q 49.171875 74.21875 56.984375 64.375 
Q 64.796875 54.546875 64.796875 36.375 
z
" id="DejaVuSans-Bold-48"/>
      </defs>
      <g transform="translate(66.874915 329.780875)scale(0.2 -0.2)">
       <use xlink:href="#DejaVuSans-Bold-48"/>
      </g>
     </g>
    </g>
    <g id="xtick_2">
     <g id="line2d_2">
      <g>
       <use style="stroke:#000000;stroke-width:0.8;" x="155.199781" xlink:href="#m4905b77e57" y="307.584"/>
      </g>
     </g>
     <g id="text_2">
      <!-- 100 -->
      <defs>
       <path d="M 11.71875 12.984375 
L 28.328125 12.984375 
L 28.328125 60.109375 
L 11.28125 56.59375 
L 11.28125 69.390625 
L 28.21875 72.90625 
L 46.09375 72.90625 
L 46.09375 12.984375 
L 62.703125 12.984375 
L 62.703125 0 
L 11.71875 0 
z
" id="DejaVuSans-Bold-49"/>
      </defs>
      <g transform="translate(134.326344 329.780875)scale(0.2 -0.2)">
       <use xlink:href="#DejaVuSans-Bold-49"/>
       <use x="69.580078" xlink:href="#DejaVuSans-Bold-48"/>
       <use x="139.160156" xlink:href="#DejaVuSans-Bold-48"/>
      </g>
     </g>
    </g>
    <g id="xtick_3">
     <g id="line2d_3">
      <g>
       <use style="stroke:#000000;stroke-width:0.8;" x="236.566835" xlink:href="#m4905b77e57" y="307.584"/>
      </g>
     </g>
     <g id="text_3">
      <!-- 200 -->
      <defs>
       <path d="M 28.8125 13.8125 
L 60.890625 13.8125 
L 60.890625 0 
L 7.90625 0 
L 7.90625 13.8125 
L 34.515625 37.3125 
Q 38.09375 40.53125 39.796875 43.609375 
Q 41.5 46.6875 41.5 50 
Q 41.5 55.125 38.0625 58.25 
Q 34.625 61.375 28.90625 61.375 
Q 24.515625 61.375 19.28125 59.5 
Q 14.0625 57.625 8.109375 53.90625 
L 8.109375 69.921875 
Q 14.453125 72.015625 20.65625 73.109375 
Q 26.859375 74.21875 32.8125 74.21875 
Q 45.90625 74.21875 53.15625 68.453125 
Q 60.40625 62.703125 60.40625 52.390625 
Q 60.40625 46.4375 57.328125 41.28125 
Q 54.25 36.140625 44.390625 27.484375 
z
" id="DejaVuSans-Bold-50"/>
      </defs>
      <g transform="translate(215.693398 329.780875)scale(0.2 -0.2)">
       <use xlink:href="#DejaVuSans-Bold-50"/>
       <use x="69.580078" xlink:href="#DejaVuSans-Bold-48"/>
       <use x="139.160156" xlink:href="#DejaVuSans-Bold-48"/>
      </g>
     </g>
    </g>
    <g id="xtick_4">
     <g id="line2d_4">
      <g>
       <use style="stroke:#000000;stroke-width:0.8;" x="317.933889" xlink:href="#m4905b77e57" y="307.584"/>
      </g>
     </g>
     <g id="text_4">
      <!-- 300 -->
      <defs>
       <path d="M 46.578125 39.3125 
Q 53.953125 37.40625 57.78125 32.6875 
Q 61.625 27.984375 61.625 20.703125 
Q 61.625 9.859375 53.3125 4.21875 
Q 45.015625 -1.421875 29.109375 -1.421875 
Q 23.484375 -1.421875 17.84375 -0.515625 
Q 12.203125 0.390625 6.6875 2.203125 
L 6.6875 16.703125 
Q 11.96875 14.0625 17.15625 12.71875 
Q 22.359375 11.375 27.390625 11.375 
Q 34.859375 11.375 38.84375 13.953125 
Q 42.828125 16.546875 42.828125 21.390625 
Q 42.828125 26.375 38.75 28.9375 
Q 34.671875 31.5 26.703125 31.5 
L 19.1875 31.5 
L 19.1875 43.609375 
L 27.09375 43.609375 
Q 34.1875 43.609375 37.640625 45.828125 
Q 41.109375 48.046875 41.109375 52.59375 
Q 41.109375 56.78125 37.734375 59.078125 
Q 34.375 61.375 28.21875 61.375 
Q 23.6875 61.375 19.046875 60.34375 
Q 14.40625 59.328125 9.8125 57.328125 
L 9.8125 71.09375 
Q 15.375 72.65625 20.84375 73.4375 
Q 26.3125 74.21875 31.59375 74.21875 
Q 45.796875 74.21875 52.84375 69.546875 
Q 59.90625 64.890625 59.90625 55.515625 
Q 59.90625 49.125 56.53125 45.046875 
Q 53.171875 40.96875 46.578125 39.3125 
z
" id="DejaVuSans-Bold-51"/>
      </defs>
      <g transform="translate(297.060452 329.780875)scale(0.2 -0.2)">
       <use xlink:href="#DejaVuSans-Bold-51"/>
       <use x="69.580078" xlink:href="#DejaVuSans-Bold-48"/>
       <use x="139.160156" xlink:href="#DejaVuSans-Bold-48"/>
      </g>
     </g>
    </g>
    <g id="xtick_5">
     <g id="line2d_5">
      <g>
       <use style="stroke:#000000;stroke-width:0.8;" x="399.300943" xlink:href="#m4905b77e57" y="307.584"/>
      </g>
     </g>
     <g id="text_5">
      <!-- 400 -->
      <defs>
       <path d="M 36.8125 57.421875 
L 16.21875 26.90625 
L 36.8125 26.90625 
z
M 33.6875 72.90625 
L 54.59375 72.90625 
L 54.59375 26.90625 
L 64.984375 26.90625 
L 64.984375 13.28125 
L 54.59375 13.28125 
L 54.59375 0 
L 36.8125 0 
L 36.8125 13.28125 
L 4.5 13.28125 
L 4.5 29.390625 
z
" id="DejaVuSans-Bold-52"/>
      </defs>
      <g transform="translate(378.427506 329.780875)scale(0.2 -0.2)">
       <use xlink:href="#DejaVuSans-Bold-52"/>
       <use x="69.580078" xlink:href="#DejaVuSans-Bold-48"/>
       <use x="139.160156" xlink:href="#DejaVuSans-Bold-48"/>
      </g>
     </g>
    </g>
    <g id="text_6">
     <!-- Epoch [#] -->
     <defs>
      <path d="M 9.8125 72.90625 
L 55.90625 72.90625 
L 55.90625 64.59375 
L 19.671875 64.59375 
L 19.671875 43.015625 
L 54.390625 43.015625 
L 54.390625 34.71875 
L 19.671875 34.71875 
L 19.671875 8.296875 
L 56.78125 8.296875 
L 56.78125 0 
L 9.8125 0 
z
" id="DejaVuSans-69"/>
      <path d="M 18.109375 8.203125 
L 18.109375 -20.796875 
L 9.078125 -20.796875 
L 9.078125 54.6875 
L 18.109375 54.6875 
L 18.109375 46.390625 
Q 20.953125 51.265625 25.265625 53.625 
Q 29.59375 56 35.59375 56 
Q 45.5625 56 51.78125 48.09375 
Q 58.015625 40.1875 58.015625 27.296875 
Q 58.015625 14.40625 51.78125 6.484375 
Q 45.5625 -1.421875 35.59375 -1.421875 
Q 29.59375 -1.421875 25.265625 0.953125 
Q 20.953125 3.328125 18.109375 8.203125 
z
M 48.6875 27.296875 
Q 48.6875 37.203125 44.609375 42.84375 
Q 40.53125 48.484375 33.40625 48.484375 
Q 26.265625 48.484375 22.1875 42.84375 
Q 18.109375 37.203125 18.109375 27.296875 
Q 18.109375 17.390625 22.1875 11.75 
Q 26.265625 6.109375 33.40625 6.109375 
Q 40.53125 6.109375 44.609375 11.75 
Q 48.6875 17.390625 48.6875 27.296875 
z
" id="DejaVuSans-112"/>
      <path d="M 30.609375 48.390625 
Q 23.390625 48.390625 19.1875 42.75 
Q 14.984375 37.109375 14.984375 27.296875 
Q 14.984375 17.484375 19.15625 11.84375 
Q 23.34375 6.203125 30.609375 6.203125 
Q 37.796875 6.203125 41.984375 11.859375 
Q 46.1875 17.53125 46.1875 27.296875 
Q 46.1875 37.015625 41.984375 42.703125 
Q 37.796875 48.390625 30.609375 48.390625 
z
M 30.609375 56 
Q 42.328125 56 49.015625 48.375 
Q 55.71875 40.765625 55.71875 27.296875 
Q 55.71875 13.875 49.015625 6.21875 
Q 42.328125 -1.421875 30.609375 -1.421875 
Q 18.84375 -1.421875 12.171875 6.21875 
Q 5.515625 13.875 5.515625 27.296875 
Q 5.515625 40.765625 12.171875 48.375 
Q 18.84375 56 30.609375 56 
z
" id="DejaVuSans-111"/>
      <path d="M 48.78125 52.59375 
L 48.78125 44.1875 
Q 44.96875 46.296875 41.140625 47.34375 
Q 37.3125 48.390625 33.40625 48.390625 
Q 24.65625 48.390625 19.8125 42.84375 
Q 14.984375 37.3125 14.984375 27.296875 
Q 14.984375 17.28125 19.8125 11.734375 
Q 24.65625 6.203125 33.40625 6.203125 
Q 37.3125 6.203125 41.140625 7.25 
Q 44.96875 8.296875 48.78125 10.40625 
L 48.78125 2.09375 
Q 45.015625 0.34375 40.984375 -0.53125 
Q 36.96875 -1.421875 32.421875 -1.421875 
Q 20.0625 -1.421875 12.78125 6.34375 
Q 5.515625 14.109375 5.515625 27.296875 
Q 5.515625 40.671875 12.859375 48.328125 
Q 20.21875 56 33.015625 56 
Q 37.15625 56 41.109375 55.140625 
Q 45.0625 54.296875 48.78125 52.59375 
z
" id="DejaVuSans-99"/>
      <path d="M 54.890625 33.015625 
L 54.890625 0 
L 45.90625 0 
L 45.90625 32.71875 
Q 45.90625 40.484375 42.875 44.328125 
Q 39.84375 48.1875 33.796875 48.1875 
Q 26.515625 48.1875 22.3125 43.546875 
Q 18.109375 38.921875 18.109375 30.90625 
L 18.109375 0 
L 9.078125 0 
L 9.078125 75.984375 
L 18.109375 75.984375 
L 18.109375 46.1875 
Q 21.34375 51.125 25.703125 53.5625 
Q 30.078125 56 35.796875 56 
Q 45.21875 56 50.046875 50.171875 
Q 54.890625 44.34375 54.890625 33.015625 
z
" id="DejaVuSans-104"/>
      <path id="DejaVuSans-32"/>
      <path d="M 8.59375 75.984375 
L 29.296875 75.984375 
L 29.296875 69 
L 17.578125 69 
L 17.578125 -6.203125 
L 29.296875 -6.203125 
L 29.296875 -13.1875 
L 8.59375 -13.1875 
z
" id="DejaVuSans-91"/>
      <path d="M 51.125 44 
L 36.921875 44 
L 32.8125 27.6875 
L 47.125 27.6875 
z
M 43.796875 71.78125 
L 38.71875 51.515625 
L 52.984375 51.515625 
L 58.109375 71.78125 
L 65.921875 71.78125 
L 60.890625 51.515625 
L 76.125 51.515625 
L 76.125 44 
L 58.984375 44 
L 54.984375 27.6875 
L 70.515625 27.6875 
L 70.515625 20.21875 
L 53.078125 20.21875 
L 48 0 
L 40.1875 0 
L 45.21875 20.21875 
L 30.90625 20.21875 
L 25.875 0 
L 18.015625 0 
L 23.09375 20.21875 
L 7.71875 20.21875 
L 7.71875 27.6875 
L 24.90625 27.6875 
L 29 44 
L 13.28125 44 
L 13.28125 51.515625 
L 30.90625 51.515625 
L 35.890625 71.78125 
z
" id="DejaVuSans-35"/>
      <path d="M 30.421875 75.984375 
L 30.421875 -13.1875 
L 9.71875 -13.1875 
L 9.71875 -6.203125 
L 21.390625 -6.203125 
L 21.390625 69 
L 9.71875 69 
L 9.71875 75.984375 
z
" id="DejaVuSans-93"/>
     </defs>
     <g transform="translate(181.178906 354.656813)scale(0.22 -0.22)">
      <use xlink:href="#DejaVuSans-69"/>
      <use x="63.183594" xlink:href="#DejaVuSans-112"/>
      <use x="126.660156" xlink:href="#DejaVuSans-111"/>
      <use x="187.841797" xlink:href="#DejaVuSans-99"/>
      <use x="242.822266" xlink:href="#DejaVuSans-104"/>
      <use x="306.201172" xlink:href="#DejaVuSans-32"/>
      <use x="337.988281" xlink:href="#DejaVuSans-91"/>
      <use x="377.001953" xlink:href="#DejaVuSans-35"/>
      <use x="460.791016" xlink:href="#DejaVuSans-93"/>
     </g>
    </g>
   </g>
   <g id="matplotlib.axis_2">
    <g id="ytick_1">
     <g id="line2d_6">
      <defs>
       <path d="M 0 0 
L -3.5 0 
" id="m59b1ea2a51" style="stroke:#000000;stroke-width:0.8;"/>
      </defs>
      <g>
       <use style="stroke:#000000;stroke-width:0.8;" x="57.6" xlink:href="#m59b1ea2a51" y="283.623356"/>
      </g>
     </g>
     <g id="text_7">
      <!-- 45 -->
      <defs>
       <path d="M 10.59375 72.90625 
L 57.328125 72.90625 
L 57.328125 59.078125 
L 25.59375 59.078125 
L 25.59375 47.796875 
Q 27.734375 48.390625 29.90625 48.703125 
Q 32.078125 49.03125 34.421875 49.03125 
Q 47.75 49.03125 55.171875 42.359375 
Q 62.59375 35.6875 62.59375 23.78125 
Q 62.59375 11.96875 54.515625 5.265625 
Q 46.4375 -1.421875 32.078125 -1.421875 
Q 25.875 -1.421875 19.796875 -0.21875 
Q 13.71875 0.984375 7.71875 3.421875 
L 7.71875 18.21875 
Q 13.671875 14.796875 19.015625 13.078125 
Q 24.359375 11.375 29.109375 11.375 
Q 35.9375 11.375 39.859375 14.71875 
Q 43.796875 18.0625 43.796875 23.78125 
Q 43.796875 29.546875 39.859375 32.859375 
Q 35.9375 36.1875 29.109375 36.1875 
Q 25.046875 36.1875 20.453125 35.125 
Q 15.875 34.078125 10.59375 31.890625 
z
" id="DejaVuSans-Bold-53"/>
      </defs>
      <g transform="translate(22.76875 291.221794)scale(0.2 -0.2)">
       <use xlink:href="#DejaVuSans-Bold-52"/>
       <use x="69.580078" xlink:href="#DejaVuSans-Bold-53"/>
      </g>
     </g>
    </g>
    <g id="ytick_2">
     <g id="line2d_7">
      <g>
       <use style="stroke:#000000;stroke-width:0.8;" x="57.6" xlink:href="#m59b1ea2a51" y="224.300153"/>
      </g>
     </g>
     <g id="text_8">
      <!-- 50 -->
      <g transform="translate(22.76875 231.89859)scale(0.2 -0.2)">
       <use xlink:href="#DejaVuSans-Bold-53"/>
       <use x="69.580078" xlink:href="#DejaVuSans-Bold-48"/>
      </g>
     </g>
    </g>
    <g id="ytick_3">
     <g id="line2d_8">
      <g>
       <use style="stroke:#000000;stroke-width:0.8;" x="57.6" xlink:href="#m59b1ea2a51" y="164.976949"/>
      </g>
     </g>
     <g id="text_9">
      <!-- 55 -->
      <g transform="translate(22.76875 172.575387)scale(0.2 -0.2)">
       <use xlink:href="#DejaVuSans-Bold-53"/>
       <use x="69.580078" xlink:href="#DejaVuSans-Bold-53"/>
      </g>
     </g>
    </g>
    <g id="ytick_4">
     <g id="line2d_9">
      <g>
       <use style="stroke:#000000;stroke-width:0.8;" x="57.6" xlink:href="#m59b1ea2a51" y="105.653746"/>
      </g>
     </g>
     <g id="text_10">
      <!-- 60 -->
      <defs>
       <path d="M 36.1875 35.984375 
Q 31.25 35.984375 28.78125 32.78125 
Q 26.3125 29.59375 26.3125 23.1875 
Q 26.3125 16.796875 28.78125 13.59375 
Q 31.25 10.40625 36.1875 10.40625 
Q 41.15625 10.40625 43.625 13.59375 
Q 46.09375 16.796875 46.09375 23.1875 
Q 46.09375 29.59375 43.625 32.78125 
Q 41.15625 35.984375 36.1875 35.984375 
z
M 59.421875 71 
L 59.421875 57.515625 
Q 54.78125 59.71875 50.671875 60.765625 
Q 46.578125 61.8125 42.671875 61.8125 
Q 34.28125 61.8125 29.59375 57.140625 
Q 24.90625 52.484375 24.125 43.3125 
Q 27.34375 45.703125 31.09375 46.890625 
Q 34.859375 48.09375 39.3125 48.09375 
Q 50.484375 48.09375 57.34375 41.546875 
Q 64.203125 35.015625 64.203125 24.421875 
Q 64.203125 12.703125 56.53125 5.640625 
Q 48.875 -1.421875 35.984375 -1.421875 
Q 21.78125 -1.421875 13.984375 8.171875 
Q 6.203125 17.78125 6.203125 35.40625 
Q 6.203125 53.46875 15.3125 63.796875 
Q 24.421875 74.125 40.28125 74.125 
Q 45.3125 74.125 50.046875 73.34375 
Q 54.78125 72.5625 59.421875 71 
z
" id="DejaVuSans-Bold-54"/>
      </defs>
      <g transform="translate(22.76875 113.252183)scale(0.2 -0.2)">
       <use xlink:href="#DejaVuSans-Bold-54"/>
       <use x="69.580078" xlink:href="#DejaVuSans-Bold-48"/>
      </g>
     </g>
    </g>
    <g id="ytick_5">
     <g id="line2d_10">
      <g>
       <use style="stroke:#000000;stroke-width:0.8;" x="57.6" xlink:href="#m59b1ea2a51" y="46.330542"/>
      </g>
     </g>
     <g id="text_11">
      <!-- 65 -->
      <g transform="translate(22.76875 53.92898)scale(0.2 -0.2)">
       <use xlink:href="#DejaVuSans-Bold-54"/>
       <use x="69.580078" xlink:href="#DejaVuSans-Bold-53"/>
      </g>
     </g>
    </g>
    <g id="text_12">
     <!-- Accuracy [%] -->
     <defs>
      <path d="M 34.1875 63.1875 
L 20.796875 26.90625 
L 47.609375 26.90625 
z
M 28.609375 72.90625 
L 39.796875 72.90625 
L 67.578125 0 
L 57.328125 0 
L 50.6875 18.703125 
L 17.828125 18.703125 
L 11.1875 0 
L 0.78125 0 
z
" id="DejaVuSans-65"/>
      <path d="M 8.5 21.578125 
L 8.5 54.6875 
L 17.484375 54.6875 
L 17.484375 21.921875 
Q 17.484375 14.15625 20.5 10.265625 
Q 23.53125 6.390625 29.59375 6.390625 
Q 36.859375 6.390625 41.078125 11.03125 
Q 45.3125 15.671875 45.3125 23.6875 
L 45.3125 54.6875 
L 54.296875 54.6875 
L 54.296875 0 
L 45.3125 0 
L 45.3125 8.40625 
Q 42.046875 3.421875 37.71875 1 
Q 33.40625 -1.421875 27.6875 -1.421875 
Q 18.265625 -1.421875 13.375 4.4375 
Q 8.5 10.296875 8.5 21.578125 
z
M 31.109375 56 
z
" id="DejaVuSans-117"/>
      <path d="M 41.109375 46.296875 
Q 39.59375 47.171875 37.8125 47.578125 
Q 36.03125 48 33.890625 48 
Q 26.265625 48 22.1875 43.046875 
Q 18.109375 38.09375 18.109375 28.8125 
L 18.109375 0 
L 9.078125 0 
L 9.078125 54.6875 
L 18.109375 54.6875 
L 18.109375 46.1875 
Q 20.953125 51.171875 25.484375 53.578125 
Q 30.03125 56 36.53125 56 
Q 37.453125 56 38.578125 55.875 
Q 39.703125 55.765625 41.0625 55.515625 
z
" id="DejaVuSans-114"/>
      <path d="M 34.28125 27.484375 
Q 23.390625 27.484375 19.1875 25 
Q 14.984375 22.515625 14.984375 16.5 
Q 14.984375 11.71875 18.140625 8.90625 
Q 21.296875 6.109375 26.703125 6.109375 
Q 34.1875 6.109375 38.703125 11.40625 
Q 43.21875 16.703125 43.21875 25.484375 
L 43.21875 27.484375 
z
M 52.203125 31.203125 
L 52.203125 0 
L 43.21875 0 
L 43.21875 8.296875 
Q 40.140625 3.328125 35.546875 0.953125 
Q 30.953125 -1.421875 24.3125 -1.421875 
Q 15.921875 -1.421875 10.953125 3.296875 
Q 6 8.015625 6 15.921875 
Q 6 25.140625 12.171875 29.828125 
Q 18.359375 34.515625 30.609375 34.515625 
L 43.21875 34.515625 
L 43.21875 35.40625 
Q 43.21875 41.609375 39.140625 45 
Q 35.0625 48.390625 27.6875 48.390625 
Q 23 48.390625 18.546875 47.265625 
Q 14.109375 46.140625 10.015625 43.890625 
L 10.015625 52.203125 
Q 14.9375 54.109375 19.578125 55.046875 
Q 24.21875 56 28.609375 56 
Q 40.484375 56 46.34375 49.84375 
Q 52.203125 43.703125 52.203125 31.203125 
z
" id="DejaVuSans-97"/>
      <path d="M 32.171875 -5.078125 
Q 28.375 -14.84375 24.75 -17.8125 
Q 21.140625 -20.796875 15.09375 -20.796875 
L 7.90625 -20.796875 
L 7.90625 -13.28125 
L 13.1875 -13.28125 
Q 16.890625 -13.28125 18.9375 -11.515625 
Q 21 -9.765625 23.484375 -3.21875 
L 25.09375 0.875 
L 2.984375 54.6875 
L 12.5 54.6875 
L 29.59375 11.921875 
L 46.6875 54.6875 
L 56.203125 54.6875 
z
" id="DejaVuSans-121"/>
      <path d="M 72.703125 32.078125 
Q 68.453125 32.078125 66.03125 28.46875 
Q 63.625 24.859375 63.625 18.40625 
Q 63.625 12.0625 66.03125 8.421875 
Q 68.453125 4.78125 72.703125 4.78125 
Q 76.859375 4.78125 79.265625 8.421875 
Q 81.6875 12.0625 81.6875 18.40625 
Q 81.6875 24.8125 79.265625 28.4375 
Q 76.859375 32.078125 72.703125 32.078125 
z
M 72.703125 38.28125 
Q 80.421875 38.28125 84.953125 32.90625 
Q 89.5 27.546875 89.5 18.40625 
Q 89.5 9.28125 84.9375 3.921875 
Q 80.375 -1.421875 72.703125 -1.421875 
Q 64.890625 -1.421875 60.34375 3.921875 
Q 55.8125 9.28125 55.8125 18.40625 
Q 55.8125 27.59375 60.375 32.9375 
Q 64.9375 38.28125 72.703125 38.28125 
z
M 22.3125 68.015625 
Q 18.109375 68.015625 15.6875 64.375 
Q 13.28125 60.75 13.28125 54.390625 
Q 13.28125 47.953125 15.671875 44.328125 
Q 18.0625 40.71875 22.3125 40.71875 
Q 26.5625 40.71875 28.96875 44.328125 
Q 31.390625 47.953125 31.390625 54.390625 
Q 31.390625 60.6875 28.953125 64.34375 
Q 26.515625 68.015625 22.3125 68.015625 
z
M 66.40625 74.21875 
L 74.21875 74.21875 
L 28.609375 -1.421875 
L 20.796875 -1.421875 
z
M 22.3125 74.21875 
Q 30.03125 74.21875 34.609375 68.875 
Q 39.203125 63.53125 39.203125 54.390625 
Q 39.203125 45.171875 34.640625 39.84375 
Q 30.078125 34.515625 22.3125 34.515625 
Q 14.546875 34.515625 10.03125 39.859375 
Q 5.515625 45.21875 5.515625 54.390625 
Q 5.515625 63.484375 10.046875 68.84375 
Q 14.59375 74.21875 22.3125 74.21875 
z
" id="DejaVuSans-37"/>
     </defs>
     <g transform="translate(14.193437 247.47175)rotate(-90)scale(0.22 -0.22)">
      <use xlink:href="#DejaVuSans-65"/>
      <use x="68.392578" xlink:href="#DejaVuSans-99"/>
      <use x="123.373047" xlink:href="#DejaVuSans-99"/>
      <use x="178.353516" xlink:href="#DejaVuSans-117"/>
      <use x="241.732422" xlink:href="#DejaVuSans-114"/>
      <use x="282.845703" xlink:href="#DejaVuSans-97"/>
      <use x="344.125" xlink:href="#DejaVuSans-99"/>
      <use x="399.105469" xlink:href="#DejaVuSans-121"/>
      <use x="458.285156" xlink:href="#DejaVuSans-32"/>
      <use x="490.072266" xlink:href="#DejaVuSans-91"/>
      <use x="529.085938" xlink:href="#DejaVuSans-37"/>
      <use x="624.105469" xlink:href="#DejaVuSans-93"/>
     </g>
    </g>
   </g>
   <g id="line2d_11">
    <path clip-path="url(#p572c983ef0)" d="M 73.832727 295.488 
L 74.646398 257.04655 
L 75.460068 241.741169 
L 76.273739 232.249473 
L 77.087409 213.740638 
L 77.90108 219.910215 
L 78.714751 202.469198 
L 79.528421 194.401247 
L 80.342092 180.400982 
L 81.155762 202.231937 
L 81.969433 180.638243 
L 82.783103 178.028084 
L 83.596774 176.366971 
L 84.410444 168.89228 
L 85.224115 187.994339 
L 86.037785 174.943261 
L 86.851456 177.078897 
L 87.665126 163.553225 
L 88.478797 154.654682 
L 89.292468 161.65485 
L 90.106138 153.349567 
L 90.919809 158.570027 
L 91.733479 157.976838 
L 92.54715 143.383312 
L 93.36082 155.841202 
L 94.174491 144.688427 
L 94.988161 145.044355 
L 95.801832 153.824161 
L 96.615502 149.552889 
L 97.429173 148.722367 
L 98.242843 144.925689 
L 99.056514 139.11204 
L 99.870185 139.467968 
L 100.683855 133.416987 
L 101.497526 148.485106 
L 102.311196 142.078198 
L 103.124867 129.501642 
L 103.938537 130.332164 
L 104.752208 133.772915 
L 105.565878 131.518683 
L 106.379549 134.128913 
L 107.193219 134.959434 
L 108.00689 130.806757 
L 108.82056 128.552526 
L 109.634231 129.976236 
L 110.447902 128.315194 
L 111.261572 118.467534 
L 112.075243 118.942128 
L 112.888913 116.56923 
L 113.702584 124.874443 
L 115.329925 115.264115 
L 116.143595 116.213303 
L 116.957266 118.704866 
L 117.770936 116.094637 
L 118.584607 116.331898 
L 119.398278 107.077498 
L 120.211948 118.942128 
L 121.839289 117.637013 
L 123.46663 104.941862 
L 124.280301 111.111509 
L 125.093971 106.009716 
L 125.907642 114.314928 
L 126.721312 103.636747 
L 127.534983 105.416456 
L 128.348653 106.246977 
L 129.162324 106.602905 
L 129.975995 112.772552 
L 130.789665 115.264115 
L 131.603336 113.484407 
L 132.417006 101.857039 
L 133.230677 105.060528 
L 134.044347 111.704698 
L 134.858018 106.365643 
L 135.671688 107.314831 
L 136.485359 96.992578 
L 137.299029 103.755413 
L 138.1127 104.467269 
L 138.92637 110.162322 
L 139.740041 120.721836 
L 140.553712 98.534954 
L 141.367382 98.65362 
L 142.181053 105.89105 
L 142.994723 101.382445 
L 143.808394 111.111509 
L 144.622064 98.06036 
L 145.435735 98.06036 
L 146.249405 103.755413 
L 147.063076 95.094203 
L 147.876746 104.704601 
L 148.690417 104.348603 
L 149.504087 101.145184 
L 150.317758 98.772286 
L 151.131429 100.789256 
L 151.945099 94.145016 
L 152.75877 98.65362 
L 153.57244 96.517984 
L 154.386111 96.280652 
L 155.199781 94.619609 
L 156.013452 101.501111 
L 156.827122 87.263584 
L 157.640793 90.585669 
L 158.454463 89.043222 
L 159.268134 83.822833 
L 160.081805 96.280652 
L 160.895475 87.263584 
L 161.709146 88.805961 
L 162.522816 90.704265 
L 163.336487 97.823099 
L 164.150157 101.26385 
L 164.963828 86.433063 
L 165.777498 91.534857 
L 166.591169 85.602471 
L 167.404839 85.127948 
L 168.21851 82.992312 
L 169.03218 93.077233 
L 169.845851 95.806129 
L 170.659522 91.534857 
L 172.286863 101.857039 
L 173.100533 97.111173 
L 173.914204 94.02642 
L 174.727874 82.280386 
L 175.541545 83.466835 
L 177.168886 94.382348 
L 177.982556 92.128046 
L 178.796227 88.094106 
L 179.609897 87.500846 
L 180.423568 84.534688 
L 181.237239 81.093937 
L 182.050909 94.145016 
L 182.86458 82.75498 
L 183.67825 78.246446 
L 184.491921 82.517718 
L 185.305591 81.212603 
L 186.119262 89.517816 
L 186.932932 76.585404 
L 187.746603 80.14475 
L 188.560273 87.738107 
L 189.373944 81.687197 
L 190.187614 84.77195 
L 191.001285 83.822833 
L 191.814956 80.382082 
L 193.442297 89.043222 
L 194.255967 84.890616 
L 195.069638 96.04339 
L 195.883308 85.483876 
L 196.696979 83.110907 
L 197.510649 85.127948 
L 198.32432 80.975271 
L 199.13799 80.026155 
L 199.951661 79.432895 
L 200.765332 83.585501 
L 201.579002 78.246446 
L 202.392673 87.738107 
L 203.206343 84.890616 
L 204.020014 79.195563 
L 204.833684 76.348071 
L 205.647355 75.042957 
L 206.461025 79.670156 
L 207.274696 88.094106 
L 208.088366 82.873646 
L 208.902037 78.483708 
L 209.715707 83.34824 
L 210.529378 75.51755 
L 211.343049 77.178593 
L 212.156719 77.771852 
L 212.97039 81.687197 
L 214.597731 85.721137 
L 215.411401 69.941163 
L 216.225072 83.941429 
L 217.038742 87.263584 
L 217.852413 69.229308 
L 218.666083 83.704167 
L 219.479754 75.992144 
L 220.293424 73.975174 
L 221.107095 87.738107 
L 221.920766 90.348337 
L 222.734436 79.907489 
L 223.548107 74.212435 
L 224.361777 81.212603 
L 225.175448 75.280289 
L 225.989118 67.568266 
L 226.802789 79.788822 
L 227.616459 73.025987 
L 228.43013 73.975174 
L 229.2438 84.416022 
L 230.057471 78.839635 
L 230.871141 77.415925 
L 231.684812 74.449768 
L 232.498483 77.297259 
L 233.312153 83.585501 
L 234.125824 83.466835 
L 234.939494 73.856508 
L 235.753165 69.941163 
L 236.566835 73.50058 
L 237.380506 78.483708 
L 238.194176 77.653186 
L 239.007847 76.585404 
L 239.821517 69.585236 
L 241.448859 76.703999 
L 242.262529 80.73801 
L 243.0762 82.161791 
L 243.88987 85.721137 
L 244.703541 75.51755 
L 245.517211 80.263416 
L 246.330882 74.805695 
L 247.144552 70.534423 
L 247.958223 80.856676 
L 248.771893 80.856676 
L 249.585564 77.890519 
L 250.399234 71.127612 
L 251.212905 71.48361 
L 252.026576 68.398787 
L 252.840246 72.788725 
L 253.653917 76.11081 
L 254.467587 82.517718 
L 255.281258 75.754882 
L 256.094928 65.551225 
L 256.908599 77.771852 
L 258.53594 69.466569 
L 259.34961 70.415757 
L 260.163281 80.14475 
L 261.790622 68.87338 
L 262.604293 66.500412 
L 263.417963 68.517453 
L 264.231634 76.229405 
L 265.045304 69.703902 
L 265.858975 77.297259 
L 266.672645 76.11081 
L 267.486316 68.754714 
L 268.299986 70.89035 
L 269.113657 71.48361 
L 269.927327 70.415757 
L 270.740998 76.585404 
L 271.554668 67.449599 
L 272.368339 66.737744 
L 273.18201 76.703999 
L 273.99568 64.008848 
L 274.809351 69.110642 
L 275.623021 75.161623 
L 276.436692 71.602206 
L 277.250362 75.51755 
L 278.064033 72.788725 
L 278.877703 67.805527 
L 279.691374 72.314131 
L 280.505044 80.975271 
L 281.318715 79.432895 
L 282.132386 69.110642 
L 282.946056 69.229308 
L 283.759727 66.85634 
L 284.573397 65.788557 
L 285.387068 66.737744 
L 286.200738 75.51755 
L 287.014409 69.703902 
L 287.828079 81.805793 
L 288.64175 65.788557 
L 289.45542 70.653089 
L 290.269091 72.076799 
L 291.082761 67.093672 
L 291.896432 71.009017 
L 292.710103 67.093672 
L 293.523773 72.90732 
L 294.337444 80.026155 
L 295.151114 64.602108 
L 295.964785 64.83937 
L 296.778455 76.11081 
L 297.592126 63.059661 
L 298.405796 60.568097 
L 299.219467 71.364944 
L 300.033137 73.144653 
L 300.846808 58.551127 
L 302.474149 72.551393 
L 303.28782 63.890182 
L 304.10149 66.619078 
L 304.915161 64.246181 
L 305.728831 63.771587 
L 306.542502 61.517285 
L 307.356172 72.195465 
L 308.169843 70.178495 
L 308.983513 74.449768 
L 309.797184 73.144653 
L 310.610854 74.568363 
L 311.424525 67.924193 
L 312.238195 70.415757 
L 313.051866 67.924193 
L 313.865537 70.297091 
L 314.679207 68.280121 
L 315.492878 74.212435 
L 316.306548 74.212435 
L 317.120219 66.500412 
L 317.933889 70.534423 
L 318.74756 71.602206 
L 319.56123 71.246278 
L 320.374901 75.992144 
L 321.188571 73.737842 
L 322.815913 66.381817 
L 323.629583 68.161455 
L 324.443254 71.720872 
L 325.256924 65.313963 
L 326.070595 68.754714 
L 326.884265 65.313963 
L 327.697936 68.87338 
L 328.511606 70.653089 
L 329.325277 73.619246 
L 330.138947 82.75498 
L 330.952618 74.924361 
L 331.766288 69.941163 
L 332.579959 69.941163 
L 333.39363 65.076702 
L 334.2073 67.805527 
L 335.020971 67.330933 
L 335.834641 68.991976 
L 336.648312 60.686763 
L 337.461982 74.093769 
L 338.275653 65.432629 
L 339.089323 60.093504 
L 339.902994 71.720872 
L 340.716664 67.805527 
L 341.530335 77.297259 
L 342.344005 79.907489 
L 343.157676 73.619246 
L 343.971347 69.110642 
L 344.785017 59.381649 
L 345.598688 68.87338 
L 346.412358 65.788557 
L 347.226029 70.059829 
L 348.039699 71.246278 
L 348.85337 71.009017 
L 349.66704 71.839538 
L 350.480711 71.602206 
L 351.294381 64.958036 
L 352.108052 65.195297 
L 352.921722 69.703902 
L 353.735393 70.89035 
L 354.549064 66.500412 
L 355.362734 68.161455 
L 356.176405 59.500315 
L 356.990075 64.483442 
L 357.803746 66.975006 
L 358.617416 68.87338 
L 359.431087 57.008751 
L 360.244757 67.805527 
L 361.058428 65.076702 
L 361.872098 57.839272 
L 362.685769 66.263151 
L 363.49944 64.364776 
L 364.31311 63.771587 
L 365.126781 53.568 
L 365.940451 81.212603 
L 366.754122 60.449431 
L 367.567792 62.466472 
L 368.381463 68.754714 
L 369.195133 64.83937 
L 370.008804 75.873478 
L 370.822474 69.229308 
L 372.449815 65.669891 
L 373.263486 73.737842 
L 374.077157 68.517453 
L 374.890827 61.991878 
L 375.704498 61.398619 
L 376.518168 66.500412 
L 377.331839 57.127346 
L 378.145509 65.669891 
L 378.95918 66.85634 
L 379.77285 62.8224 
L 380.586521 75.042957 
L 381.400191 56.059564 
L 382.213862 67.568266 
L 383.027532 60.924025 
L 383.841203 66.381817 
L 384.654874 67.212338 
L 385.468544 58.432461 
L 386.282215 73.025987 
L 387.095885 66.025818 
L 387.909556 64.720704 
L 388.723226 71.48361 
L 389.536897 74.449768 
L 390.350567 69.585236 
L 391.977908 73.619246 
L 392.791579 70.415757 
L 393.605249 71.720872 
L 394.41892 62.703734 
L 395.232591 64.602108 
L 396.046261 74.924361 
L 396.859932 67.924193 
L 397.673602 63.415659 
L 398.487273 67.686861 
L 398.487273 67.686861 
" style="fill:none;stroke:#000000;stroke-linecap:square;stroke-width:1.5;"/>
   </g>
   <g id="patch_3">
    <path d="M 57.6 307.584 
L 57.6 41.472 
" style="fill:none;stroke:#000000;stroke-linecap:square;stroke-linejoin:miter;stroke-width:0.8;"/>
   </g>
   <g id="patch_4">
    <path d="M 414.72 307.584 
L 414.72 41.472 
" style="fill:none;stroke:#000000;stroke-linecap:square;stroke-linejoin:miter;stroke-width:0.8;"/>
   </g>
   <g id="patch_5">
    <path d="M 57.6 307.584 
L 414.72 307.584 
" style="fill:none;stroke:#000000;stroke-linecap:square;stroke-linejoin:miter;stroke-width:0.8;"/>
   </g>
   <g id="patch_6">
    <path d="M 57.6 41.472 
L 414.72 41.472 
" style="fill:none;stroke:#000000;stroke-linecap:square;stroke-linejoin:miter;stroke-width:0.8;"/>
   </g>
  </g>
  <g id="axes_2">
   <g id="matplotlib.axis_3">
    <g id="ytick_6">
     <g id="line2d_12">
      <path clip-path="url(#p572c983ef0)" d="M 57.6 261.315139 
L 414.72 261.315139 
" style="fill:none;stroke:#b0b0b0;stroke-linecap:square;stroke-width:0.8;"/>
     </g>
     <g id="line2d_13">
      <defs>
       <path d="M 0 0 
L 3.5 0 
" id="me0babf09e6" style="stroke:#000000;stroke-width:0.8;"/>
      </defs>
      <g>
       <use style="stroke:#000000;stroke-width:0.8;" x="414.72" xlink:href="#me0babf09e6" y="261.315139"/>
      </g>
     </g>
     <g id="text_13">
      <!-- 2 -->
      <g transform="translate(421.72 268.913576)scale(0.2 -0.2)">
       <use xlink:href="#DejaVuSans-Bold-50"/>
      </g>
     </g>
    </g>
    <g id="ytick_7">
     <g id="line2d_14">
      <path clip-path="url(#p572c983ef0)" d="M 57.6 179.046758 
L 414.72 179.046758 
" style="fill:none;stroke:#b0b0b0;stroke-linecap:square;stroke-width:0.8;"/>
     </g>
     <g id="line2d_15">
      <g>
       <use style="stroke:#000000;stroke-width:0.8;" x="414.72" xlink:href="#me0babf09e6" y="179.046758"/>
      </g>
     </g>
     <g id="text_14">
      <!-- 4 -->
      <g transform="translate(421.72 186.645196)scale(0.2 -0.2)">
       <use xlink:href="#DejaVuSans-Bold-52"/>
      </g>
     </g>
    </g>
    <g id="ytick_8">
     <g id="line2d_16">
      <path clip-path="url(#p572c983ef0)" d="M 57.6 96.778378 
L 414.72 96.778378 
" style="fill:none;stroke:#b0b0b0;stroke-linecap:square;stroke-width:0.8;"/>
     </g>
     <g id="line2d_17">
      <g>
       <use style="stroke:#000000;stroke-width:0.8;" x="414.72" xlink:href="#me0babf09e6" y="96.778378"/>
      </g>
     </g>
     <g id="text_15">
      <!-- 6 -->
      <g transform="translate(421.72 104.376815)scale(0.2 -0.2)">
       <use xlink:href="#DejaVuSans-Bold-54"/>
      </g>
     </g>
    </g>
    <g id="text_16">
     <!-- Laplacian Centrality -->
     <defs>
      <path d="M 9.8125 72.90625 
L 19.671875 72.90625 
L 19.671875 8.296875 
L 55.171875 8.296875 
L 55.171875 0 
L 9.8125 0 
z
" id="DejaVuSans-76"/>
      <path d="M 9.421875 75.984375 
L 18.40625 75.984375 
L 18.40625 0 
L 9.421875 0 
z
" id="DejaVuSans-108"/>
      <path d="M 9.421875 54.6875 
L 18.40625 54.6875 
L 18.40625 0 
L 9.421875 0 
z
M 9.421875 75.984375 
L 18.40625 75.984375 
L 18.40625 64.59375 
L 9.421875 64.59375 
z
" id="DejaVuSans-105"/>
      <path d="M 54.890625 33.015625 
L 54.890625 0 
L 45.90625 0 
L 45.90625 32.71875 
Q 45.90625 40.484375 42.875 44.328125 
Q 39.84375 48.1875 33.796875 48.1875 
Q 26.515625 48.1875 22.3125 43.546875 
Q 18.109375 38.921875 18.109375 30.90625 
L 18.109375 0 
L 9.078125 0 
L 9.078125 54.6875 
L 18.109375 54.6875 
L 18.109375 46.1875 
Q 21.34375 51.125 25.703125 53.5625 
Q 30.078125 56 35.796875 56 
Q 45.21875 56 50.046875 50.171875 
Q 54.890625 44.34375 54.890625 33.015625 
z
" id="DejaVuSans-110"/>
      <path d="M 64.40625 67.28125 
L 64.40625 56.890625 
Q 59.421875 61.53125 53.78125 63.8125 
Q 48.140625 66.109375 41.796875 66.109375 
Q 29.296875 66.109375 22.65625 58.46875 
Q 16.015625 50.828125 16.015625 36.375 
Q 16.015625 21.96875 22.65625 14.328125 
Q 29.296875 6.6875 41.796875 6.6875 
Q 48.140625 6.6875 53.78125 8.984375 
Q 59.421875 11.28125 64.40625 15.921875 
L 64.40625 5.609375 
Q 59.234375 2.09375 53.4375 0.328125 
Q 47.65625 -1.421875 41.21875 -1.421875 
Q 24.65625 -1.421875 15.125 8.703125 
Q 5.609375 18.84375 5.609375 36.375 
Q 5.609375 53.953125 15.125 64.078125 
Q 24.65625 74.21875 41.21875 74.21875 
Q 47.75 74.21875 53.53125 72.484375 
Q 59.328125 70.75 64.40625 67.28125 
z
" id="DejaVuSans-67"/>
      <path d="M 56.203125 29.59375 
L 56.203125 25.203125 
L 14.890625 25.203125 
Q 15.484375 15.921875 20.484375 11.0625 
Q 25.484375 6.203125 34.421875 6.203125 
Q 39.59375 6.203125 44.453125 7.46875 
Q 49.3125 8.734375 54.109375 11.28125 
L 54.109375 2.78125 
Q 49.265625 0.734375 44.1875 -0.34375 
Q 39.109375 -1.421875 33.890625 -1.421875 
Q 20.796875 -1.421875 13.15625 6.1875 
Q 5.515625 13.8125 5.515625 26.8125 
Q 5.515625 40.234375 12.765625 48.109375 
Q 20.015625 56 32.328125 56 
Q 43.359375 56 49.78125 48.890625 
Q 56.203125 41.796875 56.203125 29.59375 
z
M 47.21875 32.234375 
Q 47.125 39.59375 43.09375 43.984375 
Q 39.0625 48.390625 32.421875 48.390625 
Q 24.90625 48.390625 20.390625 44.140625 
Q 15.875 39.890625 15.1875 32.171875 
z
" id="DejaVuSans-101"/>
      <path d="M 18.3125 70.21875 
L 18.3125 54.6875 
L 36.8125 54.6875 
L 36.8125 47.703125 
L 18.3125 47.703125 
L 18.3125 18.015625 
Q 18.3125 11.328125 20.140625 9.421875 
Q 21.96875 7.515625 27.59375 7.515625 
L 36.8125 7.515625 
L 36.8125 0 
L 27.59375 0 
Q 17.1875 0 13.234375 3.875 
Q 9.28125 7.765625 9.28125 18.015625 
L 9.28125 47.703125 
L 2.6875 47.703125 
L 2.6875 54.6875 
L 9.28125 54.6875 
L 9.28125 70.21875 
z
" id="DejaVuSans-116"/>
     </defs>
     <g style="fill:#ff0000;" transform="translate(456.352188 284.421438)rotate(-90)scale(0.22 -0.22)">
      <use xlink:href="#DejaVuSans-76"/>
      <use x="55.712891" xlink:href="#DejaVuSans-97"/>
      <use x="116.992188" xlink:href="#DejaVuSans-112"/>
      <use x="180.46875" xlink:href="#DejaVuSans-108"/>
      <use x="208.251953" xlink:href="#DejaVuSans-97"/>
      <use x="269.53125" xlink:href="#DejaVuSans-99"/>
      <use x="324.511719" xlink:href="#DejaVuSans-105"/>
      <use x="352.294922" xlink:href="#DejaVuSans-97"/>
      <use x="413.574219" xlink:href="#DejaVuSans-110"/>
      <use x="476.953125" xlink:href="#DejaVuSans-32"/>
      <use x="508.740234" xlink:href="#DejaVuSans-67"/>
      <use x="578.564453" xlink:href="#DejaVuSans-101"/>
      <use x="640.087891" xlink:href="#DejaVuSans-110"/>
      <use x="703.466797" xlink:href="#DejaVuSans-116"/>
      <use x="742.675781" xlink:href="#DejaVuSans-114"/>
      <use x="783.789062" xlink:href="#DejaVuSans-97"/>
      <use x="845.068359" xlink:href="#DejaVuSans-108"/>
      <use x="872.851562" xlink:href="#DejaVuSans-105"/>
      <use x="900.634766" xlink:href="#DejaVuSans-116"/>
      <use x="939.84375" xlink:href="#DejaVuSans-121"/>
     </g>
    </g>
   </g>
   <g id="line2d_18">
    <path clip-path="url(#p572c983ef0)" d="M 73.832727 295.488 
L 94.174491 280.568595 
L 114.516254 259.871492 
L 134.858018 241.549498 
L 155.199781 219.337426 
L 175.541545 196.260377 
L 195.883308 178.496381 
L 216.225072 160.836203 
L 236.566835 147.809959 
L 256.908599 131.795902 
L 277.250362 121.253267 
L 297.592126 107.001367 
L 317.933889 81.296782 
L 338.275653 64.937168 
L 358.617416 60.523527 
L 378.95918 53.568 
" style="fill:none;stroke:#ff0000;stroke-linecap:square;stroke-width:1.5;"/>
   </g>
   <g id="patch_7">
    <path d="M 57.6 307.584 
L 57.6 41.472 
" style="fill:none;stroke:#000000;stroke-linecap:square;stroke-linejoin:miter;stroke-width:0.8;"/>
   </g>
   <g id="patch_8">
    <path d="M 414.72 307.584 
L 414.72 41.472 
" style="fill:none;stroke:#000000;stroke-linecap:square;stroke-linejoin:miter;stroke-width:0.8;"/>
   </g>
   <g id="patch_9">
    <path d="M 57.6 307.584 
L 414.72 307.584 
" style="fill:none;stroke:#000000;stroke-linecap:square;stroke-linejoin:miter;stroke-width:0.8;"/>
   </g>
   <g id="patch_10">
    <path d="M 57.6 41.472 
L 414.72 41.472 
" style="fill:none;stroke:#000000;stroke-linecap:square;stroke-linejoin:miter;stroke-width:0.8;"/>
   </g>
  </g>
 </g>
 <defs>
  <clipPath id="p572c983ef0">
   <rect height="266.112" width="357.12" x="57.6" y="41.472"/>
  </clipPath>
 </defs>
</svg>
