<?xml version="1.0" encoding="utf-8" standalone="no"?>
<!DOCTYPE svg PUBLIC "-//W3C//DTD SVG 1.1//EN"
  "http://www.w3.org/Graphics/SVG/1.1/DTD/svg11.dtd">
<!-- Created with matplotlib (https://matplotlib.org/) -->
<svg height="345.6pt" version="1.1" viewBox="0 0 460.8 345.6" width="460.8pt" xmlns="http://www.w3.org/2000/svg" xmlns:xlink="http://www.w3.org/1999/xlink">
 <defs>
  <style type="text/css">
*{stroke-linecap:butt;stroke-linejoin:round;}
  </style>
 </defs>
 <g id="figure_1">
  <g id="patch_1">
   <path d="M 0 345.6 
L 460.8 345.6 
L 460.8 0 
L 0 0 
z
" style="fill:#ffffff;"/>
  </g>
  <g id="axes_1">
   <g id="patch_2">
    <path d="M 57.6 307.584 
L 414.72 307.584 
L 414.72 41.472 
L 57.6 41.472 
z
" style="fill:#ffffff;"/>
   </g>
   <g id="matplotlib.axis_1">
    <g id="xtick_1">
     <g id="line2d_1">
      <defs>
       <path d="M 0 0 
L 0 3.5 
" id="m8195935e0e" style="stroke:#000000;stroke-width:0.8;"/>
      </defs>
      <g>
       <use style="stroke:#000000;stroke-width:0.8;" x="73.832727" xlink:href="#m8195935e0e" y="307.584"/>
      </g>
     </g>
     <g id="text_1">
      <!-- 0 -->
      <defs>
       <path d="M 46 36.53125 
Q 46 50.203125 43.4375 55.78125 
Q 40.875 61.375 34.8125 61.375 
Q 28.765625 61.375 26.171875 55.78125 
Q 23.578125 50.203125 23.578125 36.53125 
Q 23.578125 22.703125 26.171875 17.03125 
Q 28.765625 11.375 34.8125 11.375 
Q 40.828125 11.375 43.40625 17.03125 
Q 46 22.703125 46 36.53125 
z
M 64.796875 36.375 
Q 64.796875 18.265625 56.984375 8.421875 
Q 49.171875 -1.421875 34.8125 -1.421875 
Q 20.40625 -1.421875 12.59375 8.421875 
Q 4.78125 18.265625 4.78125 36.375 
Q 4.78125 54.546875 12.59375 64.375 
Q 20.40625 74.21875 34.8125 74.21875 
Q 49.171875 74.21875 56.984375 64.375 
Q 64.796875 54.546875 64.796875 36.375 
z
" id="DejaVuSans-Bold-48"/>
      </defs>
      <g transform="translate(66.874915 329.780875)scale(0.2 -0.2)">
       <use xlink:href="#DejaVuSans-Bold-48"/>
      </g>
     </g>
    </g>
    <g id="xtick_2">
     <g id="line2d_2">
      <g>
       <use style="stroke:#000000;stroke-width:0.8;" x="155.404221" xlink:href="#m8195935e0e" y="307.584"/>
      </g>
     </g>
     <g id="text_2">
      <!-- 50 -->
      <defs>
       <path d="M 10.59375 72.90625 
L 57.328125 72.90625 
L 57.328125 59.078125 
L 25.59375 59.078125 
L 25.59375 47.796875 
Q 27.734375 48.390625 29.90625 48.703125 
Q 32.078125 49.03125 34.421875 49.03125 
Q 47.75 49.03125 55.171875 42.359375 
Q 62.59375 35.6875 62.59375 23.78125 
Q 62.59375 11.96875 54.515625 5.265625 
Q 46.4375 -1.421875 32.078125 -1.421875 
Q 25.875 -1.421875 19.796875 -0.21875 
Q 13.71875 0.984375 7.71875 3.421875 
L 7.71875 18.21875 
Q 13.671875 14.796875 19.015625 13.078125 
Q 24.359375 11.375 29.109375 11.375 
Q 35.9375 11.375 39.859375 14.71875 
Q 43.796875 18.0625 43.796875 23.78125 
Q 43.796875 29.546875 39.859375 32.859375 
Q 35.9375 36.1875 29.109375 36.1875 
Q 25.046875 36.1875 20.453125 35.125 
Q 15.875 34.078125 10.59375 31.890625 
z
" id="DejaVuSans-Bold-53"/>
      </defs>
      <g transform="translate(141.488596 329.780875)scale(0.2 -0.2)">
       <use xlink:href="#DejaVuSans-Bold-53"/>
       <use x="69.580078" xlink:href="#DejaVuSans-Bold-48"/>
      </g>
     </g>
    </g>
    <g id="xtick_3">
     <g id="line2d_3">
      <g>
       <use style="stroke:#000000;stroke-width:0.8;" x="236.975715" xlink:href="#m8195935e0e" y="307.584"/>
      </g>
     </g>
     <g id="text_3">
      <!-- 100 -->
      <defs>
       <path d="M 11.71875 12.984375 
L 28.328125 12.984375 
L 28.328125 60.109375 
L 11.28125 56.59375 
L 11.28125 69.390625 
L 28.21875 72.90625 
L 46.09375 72.90625 
L 46.09375 12.984375 
L 62.703125 12.984375 
L 62.703125 0 
L 11.71875 0 
z
" id="DejaVuSans-Bold-49"/>
      </defs>
      <g transform="translate(216.102277 329.780875)scale(0.2 -0.2)">
       <use xlink:href="#DejaVuSans-Bold-49"/>
       <use x="69.580078" xlink:href="#DejaVuSans-Bold-48"/>
       <use x="139.160156" xlink:href="#DejaVuSans-Bold-48"/>
      </g>
     </g>
    </g>
    <g id="xtick_4">
     <g id="line2d_4">
      <g>
       <use style="stroke:#000000;stroke-width:0.8;" x="318.547209" xlink:href="#m8195935e0e" y="307.584"/>
      </g>
     </g>
     <g id="text_4">
      <!-- 150 -->
      <g transform="translate(297.673771 329.780875)scale(0.2 -0.2)">
       <use xlink:href="#DejaVuSans-Bold-49"/>
       <use x="69.580078" xlink:href="#DejaVuSans-Bold-53"/>
       <use x="139.160156" xlink:href="#DejaVuSans-Bold-48"/>
      </g>
     </g>
    </g>
    <g id="xtick_5">
     <g id="line2d_5">
      <g>
       <use style="stroke:#000000;stroke-width:0.8;" x="400.118703" xlink:href="#m8195935e0e" y="307.584"/>
      </g>
     </g>
     <g id="text_5">
      <!-- 200 -->
      <defs>
       <path d="M 28.8125 13.8125 
L 60.890625 13.8125 
L 60.890625 0 
L 7.90625 0 
L 7.90625 13.8125 
L 34.515625 37.3125 
Q 38.09375 40.53125 39.796875 43.609375 
Q 41.5 46.6875 41.5 50 
Q 41.5 55.125 38.0625 58.25 
Q 34.625 61.375 28.90625 61.375 
Q 24.515625 61.375 19.28125 59.5 
Q 14.0625 57.625 8.109375 53.90625 
L 8.109375 69.921875 
Q 14.453125 72.015625 20.65625 73.109375 
Q 26.859375 74.21875 32.8125 74.21875 
Q 45.90625 74.21875 53.15625 68.453125 
Q 60.40625 62.703125 60.40625 52.390625 
Q 60.40625 46.4375 57.328125 41.28125 
Q 54.25 36.140625 44.390625 27.484375 
z
" id="DejaVuSans-Bold-50"/>
      </defs>
      <g transform="translate(379.245265 329.780875)scale(0.2 -0.2)">
       <use xlink:href="#DejaVuSans-Bold-50"/>
       <use x="69.580078" xlink:href="#DejaVuSans-Bold-48"/>
       <use x="139.160156" xlink:href="#DejaVuSans-Bold-48"/>
      </g>
     </g>
    </g>
    <g id="text_6">
     <!-- Epoch [#] -->
     <defs>
      <path d="M 9.8125 72.90625 
L 55.90625 72.90625 
L 55.90625 64.59375 
L 19.671875 64.59375 
L 19.671875 43.015625 
L 54.390625 43.015625 
L 54.390625 34.71875 
L 19.671875 34.71875 
L 19.671875 8.296875 
L 56.78125 8.296875 
L 56.78125 0 
L 9.8125 0 
z
" id="DejaVuSans-69"/>
      <path d="M 18.109375 8.203125 
L 18.109375 -20.796875 
L 9.078125 -20.796875 
L 9.078125 54.6875 
L 18.109375 54.6875 
L 18.109375 46.390625 
Q 20.953125 51.265625 25.265625 53.625 
Q 29.59375 56 35.59375 56 
Q 45.5625 56 51.78125 48.09375 
Q 58.015625 40.1875 58.015625 27.296875 
Q 58.015625 14.40625 51.78125 6.484375 
Q 45.5625 -1.421875 35.59375 -1.421875 
Q 29.59375 -1.421875 25.265625 0.953125 
Q 20.953125 3.328125 18.109375 8.203125 
z
M 48.6875 27.296875 
Q 48.6875 37.203125 44.609375 42.84375 
Q 40.53125 48.484375 33.40625 48.484375 
Q 26.265625 48.484375 22.1875 42.84375 
Q 18.109375 37.203125 18.109375 27.296875 
Q 18.109375 17.390625 22.1875 11.75 
Q 26.265625 6.109375 33.40625 6.109375 
Q 40.53125 6.109375 44.609375 11.75 
Q 48.6875 17.390625 48.6875 27.296875 
z
" id="DejaVuSans-112"/>
      <path d="M 30.609375 48.390625 
Q 23.390625 48.390625 19.1875 42.75 
Q 14.984375 37.109375 14.984375 27.296875 
Q 14.984375 17.484375 19.15625 11.84375 
Q 23.34375 6.203125 30.609375 6.203125 
Q 37.796875 6.203125 41.984375 11.859375 
Q 46.1875 17.53125 46.1875 27.296875 
Q 46.1875 37.015625 41.984375 42.703125 
Q 37.796875 48.390625 30.609375 48.390625 
z
M 30.609375 56 
Q 42.328125 56 49.015625 48.375 
Q 55.71875 40.765625 55.71875 27.296875 
Q 55.71875 13.875 49.015625 6.21875 
Q 42.328125 -1.421875 30.609375 -1.421875 
Q 18.84375 -1.421875 12.171875 6.21875 
Q 5.515625 13.875 5.515625 27.296875 
Q 5.515625 40.765625 12.171875 48.375 
Q 18.84375 56 30.609375 56 
z
" id="DejaVuSans-111"/>
      <path d="M 48.78125 52.59375 
L 48.78125 44.1875 
Q 44.96875 46.296875 41.140625 47.34375 
Q 37.3125 48.390625 33.40625 48.390625 
Q 24.65625 48.390625 19.8125 42.84375 
Q 14.984375 37.3125 14.984375 27.296875 
Q 14.984375 17.28125 19.8125 11.734375 
Q 24.65625 6.203125 33.40625 6.203125 
Q 37.3125 6.203125 41.140625 7.25 
Q 44.96875 8.296875 48.78125 10.40625 
L 48.78125 2.09375 
Q 45.015625 0.34375 40.984375 -0.53125 
Q 36.96875 -1.421875 32.421875 -1.421875 
Q 20.0625 -1.421875 12.78125 6.34375 
Q 5.515625 14.109375 5.515625 27.296875 
Q 5.515625 40.671875 12.859375 48.328125 
Q 20.21875 56 33.015625 56 
Q 37.15625 56 41.109375 55.140625 
Q 45.0625 54.296875 48.78125 52.59375 
z
" id="DejaVuSans-99"/>
      <path d="M 54.890625 33.015625 
L 54.890625 0 
L 45.90625 0 
L 45.90625 32.71875 
Q 45.90625 40.484375 42.875 44.328125 
Q 39.84375 48.1875 33.796875 48.1875 
Q 26.515625 48.1875 22.3125 43.546875 
Q 18.109375 38.921875 18.109375 30.90625 
L 18.109375 0 
L 9.078125 0 
L 9.078125 75.984375 
L 18.109375 75.984375 
L 18.109375 46.1875 
Q 21.34375 51.125 25.703125 53.5625 
Q 30.078125 56 35.796875 56 
Q 45.21875 56 50.046875 50.171875 
Q 54.890625 44.34375 54.890625 33.015625 
z
" id="DejaVuSans-104"/>
      <path id="DejaVuSans-32"/>
      <path d="M 8.59375 75.984375 
L 29.296875 75.984375 
L 29.296875 69 
L 17.578125 69 
L 17.578125 -6.203125 
L 29.296875 -6.203125 
L 29.296875 -13.1875 
L 8.59375 -13.1875 
z
" id="DejaVuSans-91"/>
      <path d="M 51.125 44 
L 36.921875 44 
L 32.8125 27.6875 
L 47.125 27.6875 
z
M 43.796875 71.78125 
L 38.71875 51.515625 
L 52.984375 51.515625 
L 58.109375 71.78125 
L 65.921875 71.78125 
L 60.890625 51.515625 
L 76.125 51.515625 
L 76.125 44 
L 58.984375 44 
L 54.984375 27.6875 
L 70.515625 27.6875 
L 70.515625 20.21875 
L 53.078125 20.21875 
L 48 0 
L 40.1875 0 
L 45.21875 20.21875 
L 30.90625 20.21875 
L 25.875 0 
L 18.015625 0 
L 23.09375 20.21875 
L 7.71875 20.21875 
L 7.71875 27.6875 
L 24.90625 27.6875 
L 29 44 
L 13.28125 44 
L 13.28125 51.515625 
L 30.90625 51.515625 
L 35.890625 71.78125 
z
" id="DejaVuSans-35"/>
      <path d="M 30.421875 75.984375 
L 30.421875 -13.1875 
L 9.71875 -13.1875 
L 9.71875 -6.203125 
L 21.390625 -6.203125 
L 21.390625 69 
L 9.71875 69 
L 9.71875 75.984375 
z
" id="DejaVuSans-93"/>
     </defs>
     <g transform="translate(181.178906 354.656813)scale(0.22 -0.22)">
      <use xlink:href="#DejaVuSans-69"/>
      <use x="63.183594" xlink:href="#DejaVuSans-112"/>
      <use x="126.660156" xlink:href="#DejaVuSans-111"/>
      <use x="187.841797" xlink:href="#DejaVuSans-99"/>
      <use x="242.822266" xlink:href="#DejaVuSans-104"/>
      <use x="306.201172" xlink:href="#DejaVuSans-32"/>
      <use x="337.988281" xlink:href="#DejaVuSans-91"/>
      <use x="377.001953" xlink:href="#DejaVuSans-35"/>
      <use x="460.791016" xlink:href="#DejaVuSans-93"/>
     </g>
    </g>
   </g>
   <g id="matplotlib.axis_2">
    <g id="ytick_1">
     <g id="line2d_6">
      <defs>
       <path d="M 0 0 
L -3.5 0 
" id="mfad9ab9395" style="stroke:#000000;stroke-width:0.8;"/>
      </defs>
      <g>
       <use style="stroke:#000000;stroke-width:0.8;" x="57.6" xlink:href="#mfad9ab9395" y="269.386142"/>
      </g>
     </g>
     <g id="text_7">
      <!-- 77.5 -->
      <defs>
       <path d="M 6.6875 72.90625 
L 61.625 72.90625 
L 61.625 62.3125 
L 33.203125 0 
L 14.890625 0 
L 41.796875 59.078125 
L 6.6875 59.078125 
z
" id="DejaVuSans-Bold-55"/>
       <path d="M 10.203125 18.890625 
L 27.78125 18.890625 
L 27.78125 0 
L 10.203125 0 
z
" id="DejaVuSans-Bold-46"/>
      </defs>
      <g transform="translate(1.25625 276.984579)scale(0.2 -0.2)">
       <use xlink:href="#DejaVuSans-Bold-55"/>
       <use x="69.580078" xlink:href="#DejaVuSans-Bold-55"/>
       <use x="139.160156" xlink:href="#DejaVuSans-Bold-46"/>
       <use x="177.148438" xlink:href="#DejaVuSans-Bold-53"/>
      </g>
     </g>
    </g>
    <g id="ytick_2">
     <g id="line2d_7">
      <g>
       <use style="stroke:#000000;stroke-width:0.8;" x="57.6" xlink:href="#mfad9ab9395" y="216.333493"/>
      </g>
     </g>
     <g id="text_8">
      <!-- 80.0 -->
      <defs>
       <path d="M 34.8125 32.625 
Q 29.546875 32.625 26.703125 29.734375 
Q 23.875 26.859375 23.875 21.484375 
Q 23.875 16.109375 26.703125 13.25 
Q 29.546875 10.40625 34.8125 10.40625 
Q 40.046875 10.40625 42.828125 13.25 
Q 45.609375 16.109375 45.609375 21.484375 
Q 45.609375 26.90625 42.828125 29.765625 
Q 40.046875 32.625 34.8125 32.625 
z
M 21.09375 38.8125 
Q 14.453125 40.828125 11.078125 44.96875 
Q 7.71875 49.125 7.71875 55.328125 
Q 7.71875 64.546875 14.59375 69.375 
Q 21.484375 74.21875 34.8125 74.21875 
Q 48.046875 74.21875 54.921875 69.40625 
Q 61.8125 64.59375 61.8125 55.328125 
Q 61.8125 49.125 58.421875 44.96875 
Q 55.03125 40.828125 48.390625 38.8125 
Q 55.8125 36.765625 59.59375 32.15625 
Q 63.375 27.546875 63.375 20.515625 
Q 63.375 9.671875 56.171875 4.125 
Q 48.96875 -1.421875 34.8125 -1.421875 
Q 20.609375 -1.421875 13.359375 4.125 
Q 6.109375 9.671875 6.109375 20.515625 
Q 6.109375 27.546875 9.890625 32.15625 
Q 13.671875 36.765625 21.09375 38.8125 
z
M 25.484375 53.421875 
Q 25.484375 49.078125 27.90625 46.734375 
Q 30.328125 44.390625 34.8125 44.390625 
Q 39.203125 44.390625 41.59375 46.734375 
Q 44 49.078125 44 53.421875 
Q 44 57.765625 41.59375 60.078125 
Q 39.203125 62.40625 34.8125 62.40625 
Q 30.328125 62.40625 27.90625 60.0625 
Q 25.484375 57.71875 25.484375 53.421875 
z
" id="DejaVuSans-Bold-56"/>
      </defs>
      <g transform="translate(1.25625 223.93193)scale(0.2 -0.2)">
       <use xlink:href="#DejaVuSans-Bold-56"/>
       <use x="69.580078" xlink:href="#DejaVuSans-Bold-48"/>
       <use x="139.160156" xlink:href="#DejaVuSans-Bold-46"/>
       <use x="177.148438" xlink:href="#DejaVuSans-Bold-48"/>
      </g>
     </g>
    </g>
    <g id="ytick_3">
     <g id="line2d_8">
      <g>
       <use style="stroke:#000000;stroke-width:0.8;" x="57.6" xlink:href="#mfad9ab9395" y="163.280844"/>
      </g>
     </g>
     <g id="text_9">
      <!-- 82.5 -->
      <g transform="translate(1.25625 170.879282)scale(0.2 -0.2)">
       <use xlink:href="#DejaVuSans-Bold-56"/>
       <use x="69.580078" xlink:href="#DejaVuSans-Bold-50"/>
       <use x="139.160156" xlink:href="#DejaVuSans-Bold-46"/>
       <use x="177.148438" xlink:href="#DejaVuSans-Bold-53"/>
      </g>
     </g>
    </g>
    <g id="ytick_4">
     <g id="line2d_9">
      <g>
       <use style="stroke:#000000;stroke-width:0.8;" x="57.6" xlink:href="#mfad9ab9395" y="110.228195"/>
      </g>
     </g>
     <g id="text_10">
      <!-- 85.0 -->
      <g transform="translate(1.25625 117.826633)scale(0.2 -0.2)">
       <use xlink:href="#DejaVuSans-Bold-56"/>
       <use x="69.580078" xlink:href="#DejaVuSans-Bold-53"/>
       <use x="139.160156" xlink:href="#DejaVuSans-Bold-46"/>
       <use x="177.148438" xlink:href="#DejaVuSans-Bold-48"/>
      </g>
     </g>
    </g>
    <g id="ytick_5">
     <g id="line2d_10">
      <g>
       <use style="stroke:#000000;stroke-width:0.8;" x="57.6" xlink:href="#mfad9ab9395" y="57.175546"/>
      </g>
     </g>
     <g id="text_11">
      <!-- 87.5 -->
      <g transform="translate(1.25625 64.773984)scale(0.2 -0.2)">
       <use xlink:href="#DejaVuSans-Bold-56"/>
       <use x="69.580078" xlink:href="#DejaVuSans-Bold-55"/>
       <use x="139.160156" xlink:href="#DejaVuSans-Bold-46"/>
       <use x="177.148438" xlink:href="#DejaVuSans-Bold-53"/>
      </g>
     </g>
    </g>
    <g id="text_12">
     <!-- Accuracy [%] -->
     <defs>
      <path d="M 34.1875 63.1875 
L 20.796875 26.90625 
L 47.609375 26.90625 
z
M 28.609375 72.90625 
L 39.796875 72.90625 
L 67.578125 0 
L 57.328125 0 
L 50.6875 18.703125 
L 17.828125 18.703125 
L 11.1875 0 
L 0.78125 0 
z
" id="DejaVuSans-65"/>
      <path d="M 8.5 21.578125 
L 8.5 54.6875 
L 17.484375 54.6875 
L 17.484375 21.921875 
Q 17.484375 14.15625 20.5 10.265625 
Q 23.53125 6.390625 29.59375 6.390625 
Q 36.859375 6.390625 41.078125 11.03125 
Q 45.3125 15.671875 45.3125 23.6875 
L 45.3125 54.6875 
L 54.296875 54.6875 
L 54.296875 0 
L 45.3125 0 
L 45.3125 8.40625 
Q 42.046875 3.421875 37.71875 1 
Q 33.40625 -1.421875 27.6875 -1.421875 
Q 18.265625 -1.421875 13.375 4.4375 
Q 8.5 10.296875 8.5 21.578125 
z
M 31.109375 56 
z
" id="DejaVuSans-117"/>
      <path d="M 41.109375 46.296875 
Q 39.59375 47.171875 37.8125 47.578125 
Q 36.03125 48 33.890625 48 
Q 26.265625 48 22.1875 43.046875 
Q 18.109375 38.09375 18.109375 28.8125 
L 18.109375 0 
L 9.078125 0 
L 9.078125 54.6875 
L 18.109375 54.6875 
L 18.109375 46.1875 
Q 20.953125 51.171875 25.484375 53.578125 
Q 30.03125 56 36.53125 56 
Q 37.453125 56 38.578125 55.875 
Q 39.703125 55.765625 41.0625 55.515625 
z
" id="DejaVuSans-114"/>
      <path d="M 34.28125 27.484375 
Q 23.390625 27.484375 19.1875 25 
Q 14.984375 22.515625 14.984375 16.5 
Q 14.984375 11.71875 18.140625 8.90625 
Q 21.296875 6.109375 26.703125 6.109375 
Q 34.1875 6.109375 38.703125 11.40625 
Q 43.21875 16.703125 43.21875 25.484375 
L 43.21875 27.484375 
z
M 52.203125 31.203125 
L 52.203125 0 
L 43.21875 0 
L 43.21875 8.296875 
Q 40.140625 3.328125 35.546875 0.953125 
Q 30.953125 -1.421875 24.3125 -1.421875 
Q 15.921875 -1.421875 10.953125 3.296875 
Q 6 8.015625 6 15.921875 
Q 6 25.140625 12.171875 29.828125 
Q 18.359375 34.515625 30.609375 34.515625 
L 43.21875 34.515625 
L 43.21875 35.40625 
Q 43.21875 41.609375 39.140625 45 
Q 35.0625 48.390625 27.6875 48.390625 
Q 23 48.390625 18.546875 47.265625 
Q 14.109375 46.140625 10.015625 43.890625 
L 10.015625 52.203125 
Q 14.9375 54.109375 19.578125 55.046875 
Q 24.21875 56 28.609375 56 
Q 40.484375 56 46.34375 49.84375 
Q 52.203125 43.703125 52.203125 31.203125 
z
" id="DejaVuSans-97"/>
      <path d="M 32.171875 -5.078125 
Q 28.375 -14.84375 24.75 -17.8125 
Q 21.140625 -20.796875 15.09375 -20.796875 
L 7.90625 -20.796875 
L 7.90625 -13.28125 
L 13.1875 -13.28125 
Q 16.890625 -13.28125 18.9375 -11.515625 
Q 21 -9.765625 23.484375 -3.21875 
L 25.09375 0.875 
L 2.984375 54.6875 
L 12.5 54.6875 
L 29.59375 11.921875 
L 46.6875 54.6875 
L 56.203125 54.6875 
z
" id="DejaVuSans-121"/>
      <path d="M 72.703125 32.078125 
Q 68.453125 32.078125 66.03125 28.46875 
Q 63.625 24.859375 63.625 18.40625 
Q 63.625 12.0625 66.03125 8.421875 
Q 68.453125 4.78125 72.703125 4.78125 
Q 76.859375 4.78125 79.265625 8.421875 
Q 81.6875 12.0625 81.6875 18.40625 
Q 81.6875 24.8125 79.265625 28.4375 
Q 76.859375 32.078125 72.703125 32.078125 
z
M 72.703125 38.28125 
Q 80.421875 38.28125 84.953125 32.90625 
Q 89.5 27.546875 89.5 18.40625 
Q 89.5 9.28125 84.9375 3.921875 
Q 80.375 -1.421875 72.703125 -1.421875 
Q 64.890625 -1.421875 60.34375 3.921875 
Q 55.8125 9.28125 55.8125 18.40625 
Q 55.8125 27.59375 60.375 32.9375 
Q 64.9375 38.28125 72.703125 38.28125 
z
M 22.3125 68.015625 
Q 18.109375 68.015625 15.6875 64.375 
Q 13.28125 60.75 13.28125 54.390625 
Q 13.28125 47.953125 15.671875 44.328125 
Q 18.0625 40.71875 22.3125 40.71875 
Q 26.5625 40.71875 28.96875 44.328125 
Q 31.390625 47.953125 31.390625 54.390625 
Q 31.390625 60.6875 28.953125 64.34375 
Q 26.515625 68.015625 22.3125 68.015625 
z
M 66.40625 74.21875 
L 74.21875 74.21875 
L 28.609375 -1.421875 
L 20.796875 -1.421875 
z
M 22.3125 74.21875 
Q 30.03125 74.21875 34.609375 68.875 
Q 39.203125 63.53125 39.203125 54.390625 
Q 39.203125 45.171875 34.640625 39.84375 
Q 30.078125 34.515625 22.3125 34.515625 
Q 14.546875 34.515625 10.03125 39.859375 
Q 5.515625 45.21875 5.515625 54.390625 
Q 5.515625 63.484375 10.046875 68.84375 
Q 14.59375 74.21875 22.3125 74.21875 
z
" id="DejaVuSans-37"/>
     </defs>
     <g transform="translate(-7.319063 247.47175)rotate(-90)scale(0.22 -0.22)">
      <use xlink:href="#DejaVuSans-65"/>
      <use x="68.392578" xlink:href="#DejaVuSans-99"/>
      <use x="123.373047" xlink:href="#DejaVuSans-99"/>
      <use x="178.353516" xlink:href="#DejaVuSans-117"/>
      <use x="241.732422" xlink:href="#DejaVuSans-114"/>
      <use x="282.845703" xlink:href="#DejaVuSans-97"/>
      <use x="344.125" xlink:href="#DejaVuSans-99"/>
      <use x="399.105469" xlink:href="#DejaVuSans-121"/>
      <use x="458.285156" xlink:href="#DejaVuSans-32"/>
      <use x="490.072266" xlink:href="#DejaVuSans-91"/>
      <use x="529.085938" xlink:href="#DejaVuSans-37"/>
      <use x="624.105469" xlink:href="#DejaVuSans-93"/>
     </g>
    </g>
   </g>
   <g id="line2d_11">
    <path clip-path="url(#p66d8b9e36e)" d="M 73.832727 295.488 
L 75.464157 269.386192 
L 77.095587 251.136089 
L 78.727017 225.883011 
L 80.358447 220.365506 
L 81.989877 198.932221 
L 83.621307 219.728895 
L 85.252736 199.568831 
L 86.884166 187.68509 
L 88.515596 180.469871 
L 90.147026 169.859351 
L 91.778456 167.100662 
L 93.409886 168.161638 
L 95.041316 170.708208 
L 96.672746 157.97561 
L 98.304175 160.097688 
L 99.935605 142.484195 
L 101.567035 150.123779 
L 103.198465 143.545298 
L 104.829895 144.81852 
L 106.461325 132.085921 
L 108.092755 131.237065 
L 109.724185 134.844611 
L 111.355614 132.085921 
L 112.987044 133.995754 
L 114.618474 129.327105 
L 116.249904 127.841638 
L 117.881334 134.632365 
L 119.512764 129.114986 
L 121.144194 120.626545 
L 122.775624 116.170142 
L 124.407053 121.899767 
L 126.038483 125.719559 
L 127.669913 109.167169 
L 129.301343 112.35035 
L 130.932773 114.260183 
L 132.564203 111.077001 
L 134.195633 108.318312 
L 135.827063 110.228145 
L 137.458492 103.225298 
L 139.089922 104.074028 
L 140.721352 105.347376 
L 142.352782 115.321285 
L 143.984212 107.04509 
L 145.615642 102.800806 
L 147.247072 96.434444 
L 148.878502 104.074028 
L 150.509931 100.678728 
L 152.141361 100.042117 
L 153.772791 98.556649 
L 155.404221 95.797833 
L 157.035651 88.370494 
L 158.667081 96.010079 
L 160.298511 96.010079 
L 161.929941 96.858935 
L 163.56137 95.161222 
L 165.1928 96.434444 
L 166.82423 95.373468 
L 168.45566 95.585714 
L 170.08709 90.280454 
L 171.71852 101.103093 
L 173.34995 92.190286 
L 174.98138 102.58856 
L 176.61281 96.858935 
L 178.244239 92.826897 
L 179.875669 95.797833 
L 181.507099 100.890973 
L 183.138529 95.585714 
L 184.769959 86.248416 
L 186.401389 87.309392 
L 188.032819 93.888 
L 189.664249 87.946129 
L 191.295678 88.158249 
L 192.927108 87.097272 
L 194.558538 81.579767 
L 196.189968 99.19326 
L 197.821398 99.19326 
L 199.452828 85.823924 
L 202.715688 93.888 
L 204.347117 94.524611 
L 205.978547 84.338456 
L 207.609977 82.852989 
L 209.241407 91.765921 
L 210.872837 83.701845 
L 212.504267 88.58274 
L 214.135697 83.701845 
L 215.767127 87.946129 
L 217.398556 88.370494 
L 219.029986 99.617625 
L 220.661416 90.492573 
L 222.292846 84.338456 
L 223.924276 81.579767 
L 225.555706 76.911118 
L 227.187136 86.672781 
L 228.818566 86.248416 
L 230.449995 75.637896 
L 232.081425 80.094299 
L 233.712855 81.579767 
L 235.344285 73.940183 
L 236.975715 69.908145 
L 238.607145 76.698872 
L 240.238575 81.792013 
L 241.870005 84.762948 
L 243.501434 74.364548 
L 245.132864 75.42565 
L 246.764294 87.733883 
L 248.395724 73.515817 
L 250.027154 84.975194 
L 251.658584 83.701845 
L 253.290014 85.611805 
L 254.921444 68.210558 
L 256.552873 80.094299 
L 258.184303 79.033197 
L 259.815733 70.12039 
L 261.447163 83.27748 
L 263.078593 73.940183 
L 264.710023 73.515817 
L 266.341453 67.57382 
L 267.972883 79.669808 
L 269.604312 80.73091 
L 271.235742 76.911118 
L 272.867172 81.155402 
L 274.498602 74.789039 
L 276.130032 73.940183 
L 277.761462 82.004132 
L 279.392892 73.727937 
L 282.655751 79.457688 
L 284.287181 73.303572 
L 285.918611 72.03035 
L 287.550041 75.001285 
L 289.181471 75.001285 
L 290.812901 73.091326 
L 292.444331 68.847169 
L 294.075761 65.027376 
L 295.70719 68.422677 
L 297.33862 67.57382 
L 298.97005 73.303572 
L 300.60148 75.001285 
L 302.23291 68.422677 
L 303.86434 72.242469 
L 305.49577 75.213404 
L 307.1272 67.998312 
L 308.75863 64.390765 
L 310.390059 75.850142 
L 312.021489 63.966274 
L 313.652919 64.602885 
L 315.284349 70.12039 
L 316.915779 71.605858 
L 318.547209 63.754028 
L 320.178639 65.239496 
L 321.810069 69.271534 
L 323.441498 76.698872 
L 325.072928 67.149455 
L 326.704358 72.87908 
L 328.335788 76.062261 
L 329.967218 64.815131 
L 331.598648 69.483779 
L 333.230078 61.844195 
L 334.861508 64.815131 
L 336.492937 71.605858 
L 338.124367 75.213404 
L 339.755797 74.364548 
L 341.387227 65.663987 
L 343.018657 58.661014 
L 344.650087 65.027376 
L 346.281517 63.541909 
L 347.912947 65.876233 
L 349.544376 63.754028 
L 351.175806 68.210558 
L 352.807236 70.969247 
L 354.438666 61.207584 
L 356.070096 70.544756 
L 357.701526 72.242469 
L 359.332956 64.815131 
L 360.964386 67.998312 
L 362.595815 66.088352 
L 364.227245 69.483779 
L 365.858675 64.390765 
L 367.490105 53.568 
L 369.121535 67.149455 
L 370.752965 66.512844 
L 372.384395 64.390765 
L 374.015825 60.570973 
L 375.647254 60.995338 
L 377.278684 62.693052 
L 378.910114 63.329663 
L 380.541544 66.512844 
L 382.172974 66.088352 
L 383.804404 65.451742 
L 385.435834 65.027376 
L 387.067264 67.361701 
L 388.698693 66.088352 
L 390.330123 66.937209 
L 391.961553 58.87326 
L 393.592983 63.117417 
L 396.855843 64.390765 
L 398.487273 60.995338 
L 398.487273 60.995338 
" style="fill:none;stroke:#000000;stroke-linecap:square;stroke-width:1.5;"/>
   </g>
   <g id="patch_3">
    <path d="M 57.6 307.584 
L 57.6 41.472 
" style="fill:none;stroke:#000000;stroke-linecap:square;stroke-linejoin:miter;stroke-width:0.8;"/>
   </g>
   <g id="patch_4">
    <path d="M 414.72 307.584 
L 414.72 41.472 
" style="fill:none;stroke:#000000;stroke-linecap:square;stroke-linejoin:miter;stroke-width:0.8;"/>
   </g>
   <g id="patch_5">
    <path d="M 57.6 307.584 
L 414.72 307.584 
" style="fill:none;stroke:#000000;stroke-linecap:square;stroke-linejoin:miter;stroke-width:0.8;"/>
   </g>
   <g id="patch_6">
    <path d="M 57.6 41.472 
L 414.72 41.472 
" style="fill:none;stroke:#000000;stroke-linecap:square;stroke-linejoin:miter;stroke-width:0.8;"/>
   </g>
  </g>
  <g id="axes_2">
   <g id="matplotlib.axis_3">
    <g id="ytick_6">
     <g id="line2d_12">
      <path clip-path="url(#p66d8b9e36e)" d="M 57.6 288.10694 
L 414.72 288.10694 
" style="fill:none;stroke:#b0b0b0;stroke-linecap:square;stroke-width:0.8;"/>
     </g>
     <g id="line2d_13">
      <defs>
       <path d="M 0 0 
L 3.5 0 
" id="m0daa26e061" style="stroke:#000000;stroke-width:0.8;"/>
      </defs>
      <g>
       <use style="stroke:#000000;stroke-width:0.8;" x="414.72" xlink:href="#m0daa26e061" y="288.10694"/>
      </g>
     </g>
     <g id="text_13">
      <!-- 1 -->
      <g transform="translate(421.72 295.705377)scale(0.2 -0.2)">
       <use xlink:href="#DejaVuSans-Bold-49"/>
      </g>
     </g>
    </g>
    <g id="ytick_7">
     <g id="line2d_14">
      <path clip-path="url(#p66d8b9e36e)" d="M 57.6 211.151984 
L 414.72 211.151984 
" style="fill:none;stroke:#b0b0b0;stroke-linecap:square;stroke-width:0.8;"/>
     </g>
     <g id="line2d_15">
      <g>
       <use style="stroke:#000000;stroke-width:0.8;" x="414.72" xlink:href="#m0daa26e061" y="211.151984"/>
      </g>
     </g>
     <g id="text_14">
      <!-- 2 -->
      <g transform="translate(421.72 218.750421)scale(0.2 -0.2)">
       <use xlink:href="#DejaVuSans-Bold-50"/>
      </g>
     </g>
    </g>
    <g id="ytick_8">
     <g id="line2d_16">
      <path clip-path="url(#p66d8b9e36e)" d="M 57.6 134.197028 
L 414.72 134.197028 
" style="fill:none;stroke:#b0b0b0;stroke-linecap:square;stroke-width:0.8;"/>
     </g>
     <g id="line2d_17">
      <g>
       <use style="stroke:#000000;stroke-width:0.8;" x="414.72" xlink:href="#m0daa26e061" y="134.197028"/>
      </g>
     </g>
     <g id="text_15">
      <!-- 3 -->
      <defs>
       <path d="M 46.578125 39.3125 
Q 53.953125 37.40625 57.78125 32.6875 
Q 61.625 27.984375 61.625 20.703125 
Q 61.625 9.859375 53.3125 4.21875 
Q 45.015625 -1.421875 29.109375 -1.421875 
Q 23.484375 -1.421875 17.84375 -0.515625 
Q 12.203125 0.390625 6.6875 2.203125 
L 6.6875 16.703125 
Q 11.96875 14.0625 17.15625 12.71875 
Q 22.359375 11.375 27.390625 11.375 
Q 34.859375 11.375 38.84375 13.953125 
Q 42.828125 16.546875 42.828125 21.390625 
Q 42.828125 26.375 38.75 28.9375 
Q 34.671875 31.5 26.703125 31.5 
L 19.1875 31.5 
L 19.1875 43.609375 
L 27.09375 43.609375 
Q 34.1875 43.609375 37.640625 45.828125 
Q 41.109375 48.046875 41.109375 52.59375 
Q 41.109375 56.78125 37.734375 59.078125 
Q 34.375 61.375 28.21875 61.375 
Q 23.6875 61.375 19.046875 60.34375 
Q 14.40625 59.328125 9.8125 57.328125 
L 9.8125 71.09375 
Q 15.375 72.65625 20.84375 73.4375 
Q 26.3125 74.21875 31.59375 74.21875 
Q 45.796875 74.21875 52.84375 69.546875 
Q 59.90625 64.890625 59.90625 55.515625 
Q 59.90625 49.125 56.53125 45.046875 
Q 53.171875 40.96875 46.578125 39.3125 
z
" id="DejaVuSans-Bold-51"/>
      </defs>
      <g transform="translate(421.72 141.795465)scale(0.2 -0.2)">
       <use xlink:href="#DejaVuSans-Bold-51"/>
      </g>
     </g>
    </g>
    <g id="ytick_9">
     <g id="line2d_18">
      <path clip-path="url(#p66d8b9e36e)" d="M 57.6 57.242072 
L 414.72 57.242072 
" style="fill:none;stroke:#b0b0b0;stroke-linecap:square;stroke-width:0.8;"/>
     </g>
     <g id="line2d_19">
      <g>
       <use style="stroke:#000000;stroke-width:0.8;" x="414.72" xlink:href="#m0daa26e061" y="57.242072"/>
      </g>
     </g>
     <g id="text_16">
      <!-- 4 -->
      <defs>
       <path d="M 36.8125 57.421875 
L 16.21875 26.90625 
L 36.8125 26.90625 
z
M 33.6875 72.90625 
L 54.59375 72.90625 
L 54.59375 26.90625 
L 64.984375 26.90625 
L 64.984375 13.28125 
L 54.59375 13.28125 
L 54.59375 0 
L 36.8125 0 
L 36.8125 13.28125 
L 4.5 13.28125 
L 4.5 29.390625 
z
" id="DejaVuSans-Bold-52"/>
      </defs>
      <g transform="translate(421.72 64.840509)scale(0.2 -0.2)">
       <use xlink:href="#DejaVuSans-Bold-52"/>
      </g>
     </g>
    </g>
    <g id="text_17">
     <!-- Laplacian Centrality -->
     <defs>
      <path d="M 9.8125 72.90625 
L 19.671875 72.90625 
L 19.671875 8.296875 
L 55.171875 8.296875 
L 55.171875 0 
L 9.8125 0 
z
" id="DejaVuSans-76"/>
      <path d="M 9.421875 75.984375 
L 18.40625 75.984375 
L 18.40625 0 
L 9.421875 0 
z
" id="DejaVuSans-108"/>
      <path d="M 9.421875 54.6875 
L 18.40625 54.6875 
L 18.40625 0 
L 9.421875 0 
z
M 9.421875 75.984375 
L 18.40625 75.984375 
L 18.40625 64.59375 
L 9.421875 64.59375 
z
" id="DejaVuSans-105"/>
      <path d="M 54.890625 33.015625 
L 54.890625 0 
L 45.90625 0 
L 45.90625 32.71875 
Q 45.90625 40.484375 42.875 44.328125 
Q 39.84375 48.1875 33.796875 48.1875 
Q 26.515625 48.1875 22.3125 43.546875 
Q 18.109375 38.921875 18.109375 30.90625 
L 18.109375 0 
L 9.078125 0 
L 9.078125 54.6875 
L 18.109375 54.6875 
L 18.109375 46.1875 
Q 21.34375 51.125 25.703125 53.5625 
Q 30.078125 56 35.796875 56 
Q 45.21875 56 50.046875 50.171875 
Q 54.890625 44.34375 54.890625 33.015625 
z
" id="DejaVuSans-110"/>
      <path d="M 64.40625 67.28125 
L 64.40625 56.890625 
Q 59.421875 61.53125 53.78125 63.8125 
Q 48.140625 66.109375 41.796875 66.109375 
Q 29.296875 66.109375 22.65625 58.46875 
Q 16.015625 50.828125 16.015625 36.375 
Q 16.015625 21.96875 22.65625 14.328125 
Q 29.296875 6.6875 41.796875 6.6875 
Q 48.140625 6.6875 53.78125 8.984375 
Q 59.421875 11.28125 64.40625 15.921875 
L 64.40625 5.609375 
Q 59.234375 2.09375 53.4375 0.328125 
Q 47.65625 -1.421875 41.21875 -1.421875 
Q 24.65625 -1.421875 15.125 8.703125 
Q 5.609375 18.84375 5.609375 36.375 
Q 5.609375 53.953125 15.125 64.078125 
Q 24.65625 74.21875 41.21875 74.21875 
Q 47.75 74.21875 53.53125 72.484375 
Q 59.328125 70.75 64.40625 67.28125 
z
" id="DejaVuSans-67"/>
      <path d="M 56.203125 29.59375 
L 56.203125 25.203125 
L 14.890625 25.203125 
Q 15.484375 15.921875 20.484375 11.0625 
Q 25.484375 6.203125 34.421875 6.203125 
Q 39.59375 6.203125 44.453125 7.46875 
Q 49.3125 8.734375 54.109375 11.28125 
L 54.109375 2.78125 
Q 49.265625 0.734375 44.1875 -0.34375 
Q 39.109375 -1.421875 33.890625 -1.421875 
Q 20.796875 -1.421875 13.15625 6.1875 
Q 5.515625 13.8125 5.515625 26.8125 
Q 5.515625 40.234375 12.765625 48.109375 
Q 20.015625 56 32.328125 56 
Q 43.359375 56 49.78125 48.890625 
Q 56.203125 41.796875 56.203125 29.59375 
z
M 47.21875 32.234375 
Q 47.125 39.59375 43.09375 43.984375 
Q 39.0625 48.390625 32.421875 48.390625 
Q 24.90625 48.390625 20.390625 44.140625 
Q 15.875 39.890625 15.1875 32.171875 
z
" id="DejaVuSans-101"/>
      <path d="M 18.3125 70.21875 
L 18.3125 54.6875 
L 36.8125 54.6875 
L 36.8125 47.703125 
L 18.3125 47.703125 
L 18.3125 18.015625 
Q 18.3125 11.328125 20.140625 9.421875 
Q 21.96875 7.515625 27.59375 7.515625 
L 36.8125 7.515625 
L 36.8125 0 
L 27.59375 0 
Q 17.1875 0 13.234375 3.875 
Q 9.28125 7.765625 9.28125 18.015625 
L 9.28125 47.703125 
L 2.6875 47.703125 
L 2.6875 54.6875 
L 9.28125 54.6875 
L 9.28125 70.21875 
z
" id="DejaVuSans-116"/>
     </defs>
     <g style="fill:#ff0000;" transform="translate(456.352188 284.421438)rotate(-90)scale(0.22 -0.22)">
      <use xlink:href="#DejaVuSans-76"/>
      <use x="55.712891" xlink:href="#DejaVuSans-97"/>
      <use x="116.992188" xlink:href="#DejaVuSans-112"/>
      <use x="180.46875" xlink:href="#DejaVuSans-108"/>
      <use x="208.251953" xlink:href="#DejaVuSans-97"/>
      <use x="269.53125" xlink:href="#DejaVuSans-99"/>
      <use x="324.511719" xlink:href="#DejaVuSans-105"/>
      <use x="352.294922" xlink:href="#DejaVuSans-97"/>
      <use x="413.574219" xlink:href="#DejaVuSans-110"/>
      <use x="476.953125" xlink:href="#DejaVuSans-32"/>
      <use x="508.740234" xlink:href="#DejaVuSans-67"/>
      <use x="578.564453" xlink:href="#DejaVuSans-101"/>
      <use x="640.087891" xlink:href="#DejaVuSans-110"/>
      <use x="703.466797" xlink:href="#DejaVuSans-116"/>
      <use x="742.675781" xlink:href="#DejaVuSans-114"/>
      <use x="783.789062" xlink:href="#DejaVuSans-97"/>
      <use x="845.068359" xlink:href="#DejaVuSans-108"/>
      <use x="872.851562" xlink:href="#DejaVuSans-105"/>
      <use x="900.634766" xlink:href="#DejaVuSans-116"/>
      <use x="939.84375" xlink:href="#DejaVuSans-121"/>
     </g>
    </g>
   </g>
   <g id="line2d_20">
    <path clip-path="url(#p66d8b9e36e)" d="M 73.832727 295.488 
L 75.464157 290.983869 
L 77.095587 289.992715 
L 78.727017 285.342498 
L 80.358447 281.764643 
L 81.989877 280.246807 
L 83.621307 279.539638 
L 85.252736 276.769844 
L 86.884166 273.148475 
L 88.515596 267.008664 
L 90.147026 268.267186 
L 91.778456 265.823929 
L 93.409886 265.671221 
L 95.041316 261.470585 
L 96.672746 259.698544 
L 99.935605 252.842316 
L 101.567035 255.041946 
L 103.198465 250.117594 
L 104.829895 245.985276 
L 106.461325 250.477472 
L 108.092755 246.633846 
L 109.724185 244.268356 
L 111.355614 236.569108 
L 112.987044 237.274577 
L 114.618474 232.702084 
L 116.249904 233.926242 
L 117.881334 231.761149 
L 119.512764 228.943352 
L 121.144194 224.213987 
L 122.775624 217.51084 
L 124.407053 224.262108 
L 126.038483 219.852592 
L 127.669913 218.623836 
L 129.301343 211.21987 
L 130.932773 209.499036 
L 132.564203 211.644938 
L 134.195633 206.411199 
L 135.827063 203.193646 
L 137.458492 199.246627 
L 139.089922 201.920039 
L 140.721352 202.725553 
L 142.352782 199.029519 
L 143.984212 197.479537 
L 145.615642 201.505274 
L 148.878502 188.613456 
L 150.509931 190.600329 
L 152.141361 195.525944 
L 153.772791 182.735723 
L 155.404221 179.50846 
L 157.035651 185.253547 
L 158.667081 190.027668 
L 160.298511 187.965347 
L 161.929941 188.89546 
L 163.56137 181.229664 
L 165.1928 178.983885 
L 166.82423 181.318493 
L 168.45566 171.809741 
L 170.08709 171.47647 
L 171.71852 174.575321 
L 173.34995 163.382285 
L 174.98138 161.996393 
L 176.61281 166.958267 
L 178.244239 157.555684 
L 179.875669 164.301376 
L 181.507099 167.958707 
L 183.138529 158.860679 
L 184.769959 153.295822 
L 186.401389 149.370629 
L 188.032819 157.048878 
L 189.664249 159.447095 
L 191.295678 163.45303 
L 192.927108 153.450847 
L 194.558538 162.403956 
L 197.821398 148.13267 
L 199.452828 155.004074 
L 201.084258 158.375685 
L 202.715688 150.155411 
L 204.347117 150.736647 
L 205.978547 145.800456 
L 207.609977 149.306412 
L 209.241407 144.811212 
L 210.872837 145.054425 
L 212.504267 148.740012 
L 214.135697 138.36292 
L 215.767127 137.865922 
L 217.398556 135.69203 
L 219.029986 146.061749 
L 220.661416 150.779081 
L 222.292846 149.525055 
L 223.924276 155.964597 
L 225.555706 141.077501 
L 227.187136 139.031117 
L 228.818566 140.489407 
L 230.449995 136.286236 
L 232.081425 126.395193 
L 233.712855 128.266205 
L 235.344285 121.745883 
L 236.975715 121.244992 
L 238.607145 124.282564 
L 240.238575 110.371241 
L 241.870005 119.670621 
L 243.501434 125.412087 
L 245.132864 125.337897 
L 246.764294 122.352592 
L 248.395724 123.393221 
L 250.027154 125.396362 
L 251.658584 123.710337 
L 253.290014 119.817919 
L 254.921444 113.752594 
L 256.552873 111.834292 
L 258.184303 111.944877 
L 259.815733 121.261294 
L 261.447163 117.697397 
L 263.078593 112.92913 
L 264.710023 111.705008 
L 266.341453 113.113254 
L 267.972883 102.54656 
L 269.604312 112.610515 
L 271.235742 107.656123 
L 272.867172 105.910356 
L 274.498602 106.056072 
L 276.130032 113.244952 
L 277.761462 104.529923 
L 279.392892 99.877201 
L 281.024322 100.312583 
L 282.655751 108.3519 
L 284.287181 105.663818 
L 285.918611 101.072459 
L 287.550041 102.726395 
L 289.181471 105.120771 
L 290.812901 95.87016 
L 292.444331 103.079519 
L 294.075761 96.701518 
L 295.70719 93.407906 
L 297.33862 88.748869 
L 298.97005 93.976392 
L 300.60148 87.00263 
L 302.23291 96.435544 
L 303.86434 88.333385 
L 305.49577 83.404195 
L 308.75863 85.860358 
L 310.390059 88.174595 
L 312.021489 82.170082 
L 313.652919 81.675864 
L 315.284349 87.44401 
L 316.915779 79.406153 
L 318.547209 78.874807 
L 320.178639 89.739943 
L 321.810069 84.968987 
L 323.441498 82.550384 
L 325.072928 82.515938 
L 326.704358 87.023535 
L 328.335788 79.409231 
L 329.967218 81.363337 
L 331.598648 78.466655 
L 333.230078 78.83352 
L 334.861508 72.423842 
L 336.492937 72.061926 
L 338.124367 74.910737 
L 339.755797 69.29979 
L 341.387227 79.1167 
L 343.018657 80.157115 
L 344.650087 73.046368 
L 346.281517 73.056782 
L 347.912947 65.259184 
L 349.544376 63.07825 
L 351.175806 74.0666 
L 352.807236 65.027076 
L 354.438666 67.767916 
L 356.070096 63.444156 
L 357.701526 68.398131 
L 359.332956 53.568 
L 360.964386 59.106034 
L 362.595815 59.91844 
L 364.227245 57.525544 
L 365.858675 61.063239 
L 367.490105 63.983971 
L 369.121535 55.555725 
L 370.752965 65.294984 
L 372.384395 62.6733 
L 374.015825 59.060928 
L 375.647254 61.396088 
L 377.278684 66.157996 
L 378.910114 63.963508 
L 380.541544 64.8608 
L 382.172974 67.028727 
L 383.804404 70.781216 
L 385.435834 62.878604 
L 387.067264 66.175774 
L 388.698693 72.172302 
L 390.330123 75.265719 
L 391.961553 67.490382 
L 395.224413 71.311102 
L 396.855843 60.665885 
L 398.487273 66.038465 
L 398.487273 66.038465 
" style="fill:none;stroke:#ff0000;stroke-linecap:square;stroke-width:1.5;"/>
   </g>
   <g id="patch_7">
    <path d="M 57.6 307.584 
L 57.6 41.472 
" style="fill:none;stroke:#000000;stroke-linecap:square;stroke-linejoin:miter;stroke-width:0.8;"/>
   </g>
   <g id="patch_8">
    <path d="M 414.72 307.584 
L 414.72 41.472 
" style="fill:none;stroke:#000000;stroke-linecap:square;stroke-linejoin:miter;stroke-width:0.8;"/>
   </g>
   <g id="patch_9">
    <path d="M 57.6 307.584 
L 414.72 307.584 
" style="fill:none;stroke:#000000;stroke-linecap:square;stroke-linejoin:miter;stroke-width:0.8;"/>
   </g>
   <g id="patch_10">
    <path d="M 57.6 41.472 
L 414.72 41.472 
" style="fill:none;stroke:#000000;stroke-linecap:square;stroke-linejoin:miter;stroke-width:0.8;"/>
   </g>
  </g>
 </g>
 <defs>
  <clipPath id="p66d8b9e36e">
   <rect height="266.112" width="357.12" x="57.6" y="41.472"/>
  </clipPath>
 </defs>
</svg>
