<?xml version="1.0" encoding="utf-8" standalone="no"?>
<!DOCTYPE svg PUBLIC "-//W3C//DTD SVG 1.1//EN"
  "http://www.w3.org/Graphics/SVG/1.1/DTD/svg11.dtd">
<!-- Created with matplotlib (https://matplotlib.org/) -->
<svg height="345.6pt" version="1.1" viewBox="0 0 460.8 345.6" width="460.8pt" xmlns="http://www.w3.org/2000/svg" xmlns:xlink="http://www.w3.org/1999/xlink">
 <defs>
  <style type="text/css">
*{stroke-linecap:butt;stroke-linejoin:round;}
  </style>
 </defs>
 <g id="figure_1">
  <g id="patch_1">
   <path d="M 0 345.6 
L 460.8 345.6 
L 460.8 0 
L 0 0 
z
" style="fill:#ffffff;"/>
  </g>
  <g id="axes_1">
   <g id="patch_2">
    <path d="M 57.6 307.584 
L 414.72 307.584 
L 414.72 41.472 
L 57.6 41.472 
z
" style="fill:#ffffff;"/>
   </g>
   <g id="matplotlib.axis_1">
    <g id="xtick_1">
     <g id="line2d_1">
      <defs>
       <path d="M 0 0 
L 0 3.5 
" id="mb5e3ef5096" style="stroke:#000000;stroke-width:0.8;"/>
      </defs>
      <g>
       <use style="stroke:#000000;stroke-width:0.8;" x="73.832727" xlink:href="#mb5e3ef5096" y="307.584"/>
      </g>
     </g>
     <g id="text_1">
      <!-- 0 -->
      <defs>
       <path d="M 46 36.53125 
Q 46 50.203125 43.4375 55.78125 
Q 40.875 61.375 34.8125 61.375 
Q 28.765625 61.375 26.171875 55.78125 
Q 23.578125 50.203125 23.578125 36.53125 
Q 23.578125 22.703125 26.171875 17.03125 
Q 28.765625 11.375 34.8125 11.375 
Q 40.828125 11.375 43.40625 17.03125 
Q 46 22.703125 46 36.53125 
z
M 64.796875 36.375 
Q 64.796875 18.265625 56.984375 8.421875 
Q 49.171875 -1.421875 34.8125 -1.421875 
Q 20.40625 -1.421875 12.59375 8.421875 
Q 4.78125 18.265625 4.78125 36.375 
Q 4.78125 54.546875 12.59375 64.375 
Q 20.40625 74.21875 34.8125 74.21875 
Q 49.171875 74.21875 56.984375 64.375 
Q 64.796875 54.546875 64.796875 36.375 
z
" id="DejaVuSans-Bold-48"/>
      </defs>
      <g transform="translate(66.874915 329.780875)scale(0.2 -0.2)">
       <use xlink:href="#DejaVuSans-Bold-48"/>
      </g>
     </g>
    </g>
    <g id="xtick_2">
     <g id="line2d_2">
      <g>
       <use style="stroke:#000000;stroke-width:0.8;" x="155.199781" xlink:href="#mb5e3ef5096" y="307.584"/>
      </g>
     </g>
     <g id="text_2">
      <!-- 100 -->
      <defs>
       <path d="M 11.71875 12.984375 
L 28.328125 12.984375 
L 28.328125 60.109375 
L 11.28125 56.59375 
L 11.28125 69.390625 
L 28.21875 72.90625 
L 46.09375 72.90625 
L 46.09375 12.984375 
L 62.703125 12.984375 
L 62.703125 0 
L 11.71875 0 
z
" id="DejaVuSans-Bold-49"/>
      </defs>
      <g transform="translate(134.326344 329.780875)scale(0.2 -0.2)">
       <use xlink:href="#DejaVuSans-Bold-49"/>
       <use x="69.580078" xlink:href="#DejaVuSans-Bold-48"/>
       <use x="139.160156" xlink:href="#DejaVuSans-Bold-48"/>
      </g>
     </g>
    </g>
    <g id="xtick_3">
     <g id="line2d_3">
      <g>
       <use style="stroke:#000000;stroke-width:0.8;" x="236.566835" xlink:href="#mb5e3ef5096" y="307.584"/>
      </g>
     </g>
     <g id="text_3">
      <!-- 200 -->
      <defs>
       <path d="M 28.8125 13.8125 
L 60.890625 13.8125 
L 60.890625 0 
L 7.90625 0 
L 7.90625 13.8125 
L 34.515625 37.3125 
Q 38.09375 40.53125 39.796875 43.609375 
Q 41.5 46.6875 41.5 50 
Q 41.5 55.125 38.0625 58.25 
Q 34.625 61.375 28.90625 61.375 
Q 24.515625 61.375 19.28125 59.5 
Q 14.0625 57.625 8.109375 53.90625 
L 8.109375 69.921875 
Q 14.453125 72.015625 20.65625 73.109375 
Q 26.859375 74.21875 32.8125 74.21875 
Q 45.90625 74.21875 53.15625 68.453125 
Q 60.40625 62.703125 60.40625 52.390625 
Q 60.40625 46.4375 57.328125 41.28125 
Q 54.25 36.140625 44.390625 27.484375 
z
" id="DejaVuSans-Bold-50"/>
      </defs>
      <g transform="translate(215.693398 329.780875)scale(0.2 -0.2)">
       <use xlink:href="#DejaVuSans-Bold-50"/>
       <use x="69.580078" xlink:href="#DejaVuSans-Bold-48"/>
       <use x="139.160156" xlink:href="#DejaVuSans-Bold-48"/>
      </g>
     </g>
    </g>
    <g id="xtick_4">
     <g id="line2d_4">
      <g>
       <use style="stroke:#000000;stroke-width:0.8;" x="317.933889" xlink:href="#mb5e3ef5096" y="307.584"/>
      </g>
     </g>
     <g id="text_4">
      <!-- 300 -->
      <defs>
       <path d="M 46.578125 39.3125 
Q 53.953125 37.40625 57.78125 32.6875 
Q 61.625 27.984375 61.625 20.703125 
Q 61.625 9.859375 53.3125 4.21875 
Q 45.015625 -1.421875 29.109375 -1.421875 
Q 23.484375 -1.421875 17.84375 -0.515625 
Q 12.203125 0.390625 6.6875 2.203125 
L 6.6875 16.703125 
Q 11.96875 14.0625 17.15625 12.71875 
Q 22.359375 11.375 27.390625 11.375 
Q 34.859375 11.375 38.84375 13.953125 
Q 42.828125 16.546875 42.828125 21.390625 
Q 42.828125 26.375 38.75 28.9375 
Q 34.671875 31.5 26.703125 31.5 
L 19.1875 31.5 
L 19.1875 43.609375 
L 27.09375 43.609375 
Q 34.1875 43.609375 37.640625 45.828125 
Q 41.109375 48.046875 41.109375 52.59375 
Q 41.109375 56.78125 37.734375 59.078125 
Q 34.375 61.375 28.21875 61.375 
Q 23.6875 61.375 19.046875 60.34375 
Q 14.40625 59.328125 9.8125 57.328125 
L 9.8125 71.09375 
Q 15.375 72.65625 20.84375 73.4375 
Q 26.3125 74.21875 31.59375 74.21875 
Q 45.796875 74.21875 52.84375 69.546875 
Q 59.90625 64.890625 59.90625 55.515625 
Q 59.90625 49.125 56.53125 45.046875 
Q 53.171875 40.96875 46.578125 39.3125 
z
" id="DejaVuSans-Bold-51"/>
      </defs>
      <g transform="translate(297.060452 329.780875)scale(0.2 -0.2)">
       <use xlink:href="#DejaVuSans-Bold-51"/>
       <use x="69.580078" xlink:href="#DejaVuSans-Bold-48"/>
       <use x="139.160156" xlink:href="#DejaVuSans-Bold-48"/>
      </g>
     </g>
    </g>
    <g id="xtick_5">
     <g id="line2d_5">
      <g>
       <use style="stroke:#000000;stroke-width:0.8;" x="399.300943" xlink:href="#mb5e3ef5096" y="307.584"/>
      </g>
     </g>
     <g id="text_5">
      <!-- 400 -->
      <defs>
       <path d="M 36.8125 57.421875 
L 16.21875 26.90625 
L 36.8125 26.90625 
z
M 33.6875 72.90625 
L 54.59375 72.90625 
L 54.59375 26.90625 
L 64.984375 26.90625 
L 64.984375 13.28125 
L 54.59375 13.28125 
L 54.59375 0 
L 36.8125 0 
L 36.8125 13.28125 
L 4.5 13.28125 
L 4.5 29.390625 
z
" id="DejaVuSans-Bold-52"/>
      </defs>
      <g transform="translate(378.427506 329.780875)scale(0.2 -0.2)">
       <use xlink:href="#DejaVuSans-Bold-52"/>
       <use x="69.580078" xlink:href="#DejaVuSans-Bold-48"/>
       <use x="139.160156" xlink:href="#DejaVuSans-Bold-48"/>
      </g>
     </g>
    </g>
    <g id="text_6">
     <!-- Epoch [#] -->
     <defs>
      <path d="M 9.8125 72.90625 
L 55.90625 72.90625 
L 55.90625 64.59375 
L 19.671875 64.59375 
L 19.671875 43.015625 
L 54.390625 43.015625 
L 54.390625 34.71875 
L 19.671875 34.71875 
L 19.671875 8.296875 
L 56.78125 8.296875 
L 56.78125 0 
L 9.8125 0 
z
" id="DejaVuSans-69"/>
      <path d="M 18.109375 8.203125 
L 18.109375 -20.796875 
L 9.078125 -20.796875 
L 9.078125 54.6875 
L 18.109375 54.6875 
L 18.109375 46.390625 
Q 20.953125 51.265625 25.265625 53.625 
Q 29.59375 56 35.59375 56 
Q 45.5625 56 51.78125 48.09375 
Q 58.015625 40.1875 58.015625 27.296875 
Q 58.015625 14.40625 51.78125 6.484375 
Q 45.5625 -1.421875 35.59375 -1.421875 
Q 29.59375 -1.421875 25.265625 0.953125 
Q 20.953125 3.328125 18.109375 8.203125 
z
M 48.6875 27.296875 
Q 48.6875 37.203125 44.609375 42.84375 
Q 40.53125 48.484375 33.40625 48.484375 
Q 26.265625 48.484375 22.1875 42.84375 
Q 18.109375 37.203125 18.109375 27.296875 
Q 18.109375 17.390625 22.1875 11.75 
Q 26.265625 6.109375 33.40625 6.109375 
Q 40.53125 6.109375 44.609375 11.75 
Q 48.6875 17.390625 48.6875 27.296875 
z
" id="DejaVuSans-112"/>
      <path d="M 30.609375 48.390625 
Q 23.390625 48.390625 19.1875 42.75 
Q 14.984375 37.109375 14.984375 27.296875 
Q 14.984375 17.484375 19.15625 11.84375 
Q 23.34375 6.203125 30.609375 6.203125 
Q 37.796875 6.203125 41.984375 11.859375 
Q 46.1875 17.53125 46.1875 27.296875 
Q 46.1875 37.015625 41.984375 42.703125 
Q 37.796875 48.390625 30.609375 48.390625 
z
M 30.609375 56 
Q 42.328125 56 49.015625 48.375 
Q 55.71875 40.765625 55.71875 27.296875 
Q 55.71875 13.875 49.015625 6.21875 
Q 42.328125 -1.421875 30.609375 -1.421875 
Q 18.84375 -1.421875 12.171875 6.21875 
Q 5.515625 13.875 5.515625 27.296875 
Q 5.515625 40.765625 12.171875 48.375 
Q 18.84375 56 30.609375 56 
z
" id="DejaVuSans-111"/>
      <path d="M 48.78125 52.59375 
L 48.78125 44.1875 
Q 44.96875 46.296875 41.140625 47.34375 
Q 37.3125 48.390625 33.40625 48.390625 
Q 24.65625 48.390625 19.8125 42.84375 
Q 14.984375 37.3125 14.984375 27.296875 
Q 14.984375 17.28125 19.8125 11.734375 
Q 24.65625 6.203125 33.40625 6.203125 
Q 37.3125 6.203125 41.140625 7.25 
Q 44.96875 8.296875 48.78125 10.40625 
L 48.78125 2.09375 
Q 45.015625 0.34375 40.984375 -0.53125 
Q 36.96875 -1.421875 32.421875 -1.421875 
Q 20.0625 -1.421875 12.78125 6.34375 
Q 5.515625 14.109375 5.515625 27.296875 
Q 5.515625 40.671875 12.859375 48.328125 
Q 20.21875 56 33.015625 56 
Q 37.15625 56 41.109375 55.140625 
Q 45.0625 54.296875 48.78125 52.59375 
z
" id="DejaVuSans-99"/>
      <path d="M 54.890625 33.015625 
L 54.890625 0 
L 45.90625 0 
L 45.90625 32.71875 
Q 45.90625 40.484375 42.875 44.328125 
Q 39.84375 48.1875 33.796875 48.1875 
Q 26.515625 48.1875 22.3125 43.546875 
Q 18.109375 38.921875 18.109375 30.90625 
L 18.109375 0 
L 9.078125 0 
L 9.078125 75.984375 
L 18.109375 75.984375 
L 18.109375 46.1875 
Q 21.34375 51.125 25.703125 53.5625 
Q 30.078125 56 35.796875 56 
Q 45.21875 56 50.046875 50.171875 
Q 54.890625 44.34375 54.890625 33.015625 
z
" id="DejaVuSans-104"/>
      <path id="DejaVuSans-32"/>
      <path d="M 8.59375 75.984375 
L 29.296875 75.984375 
L 29.296875 69 
L 17.578125 69 
L 17.578125 -6.203125 
L 29.296875 -6.203125 
L 29.296875 -13.1875 
L 8.59375 -13.1875 
z
" id="DejaVuSans-91"/>
      <path d="M 51.125 44 
L 36.921875 44 
L 32.8125 27.6875 
L 47.125 27.6875 
z
M 43.796875 71.78125 
L 38.71875 51.515625 
L 52.984375 51.515625 
L 58.109375 71.78125 
L 65.921875 71.78125 
L 60.890625 51.515625 
L 76.125 51.515625 
L 76.125 44 
L 58.984375 44 
L 54.984375 27.6875 
L 70.515625 27.6875 
L 70.515625 20.21875 
L 53.078125 20.21875 
L 48 0 
L 40.1875 0 
L 45.21875 20.21875 
L 30.90625 20.21875 
L 25.875 0 
L 18.015625 0 
L 23.09375 20.21875 
L 7.71875 20.21875 
L 7.71875 27.6875 
L 24.90625 27.6875 
L 29 44 
L 13.28125 44 
L 13.28125 51.515625 
L 30.90625 51.515625 
L 35.890625 71.78125 
z
" id="DejaVuSans-35"/>
      <path d="M 30.421875 75.984375 
L 30.421875 -13.1875 
L 9.71875 -13.1875 
L 9.71875 -6.203125 
L 21.390625 -6.203125 
L 21.390625 69 
L 9.71875 69 
L 9.71875 75.984375 
z
" id="DejaVuSans-93"/>
     </defs>
     <g transform="translate(181.178906 354.656813)scale(0.22 -0.22)">
      <use xlink:href="#DejaVuSans-69"/>
      <use x="63.183594" xlink:href="#DejaVuSans-112"/>
      <use x="126.660156" xlink:href="#DejaVuSans-111"/>
      <use x="187.841797" xlink:href="#DejaVuSans-99"/>
      <use x="242.822266" xlink:href="#DejaVuSans-104"/>
      <use x="306.201172" xlink:href="#DejaVuSans-32"/>
      <use x="337.988281" xlink:href="#DejaVuSans-91"/>
      <use x="377.001953" xlink:href="#DejaVuSans-35"/>
      <use x="460.791016" xlink:href="#DejaVuSans-93"/>
     </g>
    </g>
   </g>
   <g id="matplotlib.axis_2">
    <g id="ytick_1">
     <g id="line2d_6">
      <defs>
       <path d="M 0 0 
L -3.5 0 
" id="m390e2e9581" style="stroke:#000000;stroke-width:0.8;"/>
      </defs>
      <g>
       <use style="stroke:#000000;stroke-width:0.8;" x="57.6" xlink:href="#m390e2e9581" y="253.436897"/>
      </g>
     </g>
     <g id="text_7">
      <!-- 20 -->
      <g transform="translate(22.76875 261.035334)scale(0.2 -0.2)">
       <use xlink:href="#DejaVuSans-Bold-50"/>
       <use x="69.580078" xlink:href="#DejaVuSans-Bold-48"/>
      </g>
     </g>
    </g>
    <g id="ytick_2">
     <g id="line2d_7">
      <g>
       <use style="stroke:#000000;stroke-width:0.8;" x="57.6" xlink:href="#m390e2e9581" y="169.334689"/>
      </g>
     </g>
     <g id="text_8">
      <!-- 40 -->
      <g transform="translate(22.76875 176.933127)scale(0.2 -0.2)">
       <use xlink:href="#DejaVuSans-Bold-52"/>
       <use x="69.580078" xlink:href="#DejaVuSans-Bold-48"/>
      </g>
     </g>
    </g>
    <g id="ytick_3">
     <g id="line2d_8">
      <g>
       <use style="stroke:#000000;stroke-width:0.8;" x="57.6" xlink:href="#m390e2e9581" y="85.232482"/>
      </g>
     </g>
     <g id="text_9">
      <!-- 60 -->
      <defs>
       <path d="M 36.1875 35.984375 
Q 31.25 35.984375 28.78125 32.78125 
Q 26.3125 29.59375 26.3125 23.1875 
Q 26.3125 16.796875 28.78125 13.59375 
Q 31.25 10.40625 36.1875 10.40625 
Q 41.15625 10.40625 43.625 13.59375 
Q 46.09375 16.796875 46.09375 23.1875 
Q 46.09375 29.59375 43.625 32.78125 
Q 41.15625 35.984375 36.1875 35.984375 
z
M 59.421875 71 
L 59.421875 57.515625 
Q 54.78125 59.71875 50.671875 60.765625 
Q 46.578125 61.8125 42.671875 61.8125 
Q 34.28125 61.8125 29.59375 57.140625 
Q 24.90625 52.484375 24.125 43.3125 
Q 27.34375 45.703125 31.09375 46.890625 
Q 34.859375 48.09375 39.3125 48.09375 
Q 50.484375 48.09375 57.34375 41.546875 
Q 64.203125 35.015625 64.203125 24.421875 
Q 64.203125 12.703125 56.53125 5.640625 
Q 48.875 -1.421875 35.984375 -1.421875 
Q 21.78125 -1.421875 13.984375 8.171875 
Q 6.203125 17.78125 6.203125 35.40625 
Q 6.203125 53.46875 15.3125 63.796875 
Q 24.421875 74.125 40.28125 74.125 
Q 45.3125 74.125 50.046875 73.34375 
Q 54.78125 72.5625 59.421875 71 
z
" id="DejaVuSans-Bold-54"/>
      </defs>
      <g transform="translate(22.76875 92.830919)scale(0.2 -0.2)">
       <use xlink:href="#DejaVuSans-Bold-54"/>
       <use x="69.580078" xlink:href="#DejaVuSans-Bold-48"/>
      </g>
     </g>
    </g>
    <g id="text_10">
     <!-- Accuracy [%] -->
     <defs>
      <path d="M 34.1875 63.1875 
L 20.796875 26.90625 
L 47.609375 26.90625 
z
M 28.609375 72.90625 
L 39.796875 72.90625 
L 67.578125 0 
L 57.328125 0 
L 50.6875 18.703125 
L 17.828125 18.703125 
L 11.1875 0 
L 0.78125 0 
z
" id="DejaVuSans-65"/>
      <path d="M 8.5 21.578125 
L 8.5 54.6875 
L 17.484375 54.6875 
L 17.484375 21.921875 
Q 17.484375 14.15625 20.5 10.265625 
Q 23.53125 6.390625 29.59375 6.390625 
Q 36.859375 6.390625 41.078125 11.03125 
Q 45.3125 15.671875 45.3125 23.6875 
L 45.3125 54.6875 
L 54.296875 54.6875 
L 54.296875 0 
L 45.3125 0 
L 45.3125 8.40625 
Q 42.046875 3.421875 37.71875 1 
Q 33.40625 -1.421875 27.6875 -1.421875 
Q 18.265625 -1.421875 13.375 4.4375 
Q 8.5 10.296875 8.5 21.578125 
z
M 31.109375 56 
z
" id="DejaVuSans-117"/>
      <path d="M 41.109375 46.296875 
Q 39.59375 47.171875 37.8125 47.578125 
Q 36.03125 48 33.890625 48 
Q 26.265625 48 22.1875 43.046875 
Q 18.109375 38.09375 18.109375 28.8125 
L 18.109375 0 
L 9.078125 0 
L 9.078125 54.6875 
L 18.109375 54.6875 
L 18.109375 46.1875 
Q 20.953125 51.171875 25.484375 53.578125 
Q 30.03125 56 36.53125 56 
Q 37.453125 56 38.578125 55.875 
Q 39.703125 55.765625 41.0625 55.515625 
z
" id="DejaVuSans-114"/>
      <path d="M 34.28125 27.484375 
Q 23.390625 27.484375 19.1875 25 
Q 14.984375 22.515625 14.984375 16.5 
Q 14.984375 11.71875 18.140625 8.90625 
Q 21.296875 6.109375 26.703125 6.109375 
Q 34.1875 6.109375 38.703125 11.40625 
Q 43.21875 16.703125 43.21875 25.484375 
L 43.21875 27.484375 
z
M 52.203125 31.203125 
L 52.203125 0 
L 43.21875 0 
L 43.21875 8.296875 
Q 40.140625 3.328125 35.546875 0.953125 
Q 30.953125 -1.421875 24.3125 -1.421875 
Q 15.921875 -1.421875 10.953125 3.296875 
Q 6 8.015625 6 15.921875 
Q 6 25.140625 12.171875 29.828125 
Q 18.359375 34.515625 30.609375 34.515625 
L 43.21875 34.515625 
L 43.21875 35.40625 
Q 43.21875 41.609375 39.140625 45 
Q 35.0625 48.390625 27.6875 48.390625 
Q 23 48.390625 18.546875 47.265625 
Q 14.109375 46.140625 10.015625 43.890625 
L 10.015625 52.203125 
Q 14.9375 54.109375 19.578125 55.046875 
Q 24.21875 56 28.609375 56 
Q 40.484375 56 46.34375 49.84375 
Q 52.203125 43.703125 52.203125 31.203125 
z
" id="DejaVuSans-97"/>
      <path d="M 32.171875 -5.078125 
Q 28.375 -14.84375 24.75 -17.8125 
Q 21.140625 -20.796875 15.09375 -20.796875 
L 7.90625 -20.796875 
L 7.90625 -13.28125 
L 13.1875 -13.28125 
Q 16.890625 -13.28125 18.9375 -11.515625 
Q 21 -9.765625 23.484375 -3.21875 
L 25.09375 0.875 
L 2.984375 54.6875 
L 12.5 54.6875 
L 29.59375 11.921875 
L 46.6875 54.6875 
L 56.203125 54.6875 
z
" id="DejaVuSans-121"/>
      <path d="M 72.703125 32.078125 
Q 68.453125 32.078125 66.03125 28.46875 
Q 63.625 24.859375 63.625 18.40625 
Q 63.625 12.0625 66.03125 8.421875 
Q 68.453125 4.78125 72.703125 4.78125 
Q 76.859375 4.78125 79.265625 8.421875 
Q 81.6875 12.0625 81.6875 18.40625 
Q 81.6875 24.8125 79.265625 28.4375 
Q 76.859375 32.078125 72.703125 32.078125 
z
M 72.703125 38.28125 
Q 80.421875 38.28125 84.953125 32.90625 
Q 89.5 27.546875 89.5 18.40625 
Q 89.5 9.28125 84.9375 3.921875 
Q 80.375 -1.421875 72.703125 -1.421875 
Q 64.890625 -1.421875 60.34375 3.921875 
Q 55.8125 9.28125 55.8125 18.40625 
Q 55.8125 27.59375 60.375 32.9375 
Q 64.9375 38.28125 72.703125 38.28125 
z
M 22.3125 68.015625 
Q 18.109375 68.015625 15.6875 64.375 
Q 13.28125 60.75 13.28125 54.390625 
Q 13.28125 47.953125 15.671875 44.328125 
Q 18.0625 40.71875 22.3125 40.71875 
Q 26.5625 40.71875 28.96875 44.328125 
Q 31.390625 47.953125 31.390625 54.390625 
Q 31.390625 60.6875 28.953125 64.34375 
Q 26.515625 68.015625 22.3125 68.015625 
z
M 66.40625 74.21875 
L 74.21875 74.21875 
L 28.609375 -1.421875 
L 20.796875 -1.421875 
z
M 22.3125 74.21875 
Q 30.03125 74.21875 34.609375 68.875 
Q 39.203125 63.53125 39.203125 54.390625 
Q 39.203125 45.171875 34.640625 39.84375 
Q 30.078125 34.515625 22.3125 34.515625 
Q 14.546875 34.515625 10.03125 39.859375 
Q 5.515625 45.21875 5.515625 54.390625 
Q 5.515625 63.484375 10.046875 68.84375 
Q 14.59375 74.21875 22.3125 74.21875 
z
" id="DejaVuSans-37"/>
     </defs>
     <g transform="translate(14.193437 247.47175)rotate(-90)scale(0.22 -0.22)">
      <use xlink:href="#DejaVuSans-65"/>
      <use x="68.392578" xlink:href="#DejaVuSans-99"/>
      <use x="123.373047" xlink:href="#DejaVuSans-99"/>
      <use x="178.353516" xlink:href="#DejaVuSans-117"/>
      <use x="241.732422" xlink:href="#DejaVuSans-114"/>
      <use x="282.845703" xlink:href="#DejaVuSans-97"/>
      <use x="344.125" xlink:href="#DejaVuSans-99"/>
      <use x="399.105469" xlink:href="#DejaVuSans-121"/>
      <use x="458.285156" xlink:href="#DejaVuSans-32"/>
      <use x="490.072266" xlink:href="#DejaVuSans-91"/>
      <use x="529.085938" xlink:href="#DejaVuSans-37"/>
      <use x="624.105469" xlink:href="#DejaVuSans-93"/>
     </g>
    </g>
   </g>
   <g id="line2d_9">
    <path clip-path="url(#p49799232cc)" d="M 73.832727 295.488 
L 75.460068 247.802046 
L 76.273739 232.285196 
L 77.087409 212.058605 
L 81.155762 162.143946 
L 82.783103 151.715271 
L 83.596774 144.566587 
L 85.224115 138.174824 
L 86.037785 133.969705 
L 86.851456 130.521519 
L 87.665126 131.488692 
L 88.478797 127.493839 
L 89.292468 126.442574 
L 90.106138 123.793341 
L 90.919809 123.330778 
L 92.54715 118.705166 
L 93.36082 116.266198 
L 94.174491 117.948246 
L 94.988161 116.0139 
L 95.801832 115.088772 
L 96.615502 112.775954 
L 97.429173 113.238517 
L 98.242843 108.865204 
L 99.056514 111.640586 
L 99.870185 109.790331 
L 100.683855 109.15956 
L 102.311196 106.762651 
L 103.124867 103.945235 
L 103.938537 103.650854 
L 104.752208 105.837523 
L 105.565878 103.482672 
L 106.379549 103.819061 
L 107.193219 101.169853 
L 108.00689 99.361656 
L 108.82056 99.445748 
L 109.634231 98.142173 
L 110.447902 98.478587 
L 111.261572 98.52062 
L 112.075243 98.184231 
L 112.888913 97.637551 
L 113.702584 95.198583 
L 114.516254 97.55346 
L 115.329925 96.333976 
L 116.143595 97.889874 
L 116.957266 94.693986 
L 117.770936 93.222204 
L 118.584607 93.138088 
L 119.398278 94.693986 
L 120.211948 94.315514 
L 121.025619 91.413982 
L 121.839289 93.516561 
L 122.65296 92.549375 
L 123.46663 92.801673 
L 124.280301 91.203742 
L 125.093971 88.890924 
L 125.907642 88.554509 
L 126.721312 92.591433 
L 127.534983 90.993477 
L 128.348653 91.498098 
L 129.162324 88.260153 
L 129.975995 89.9422 
L 130.789665 88.049912 
L 131.603336 87.839647 
L 132.417006 86.998636 
L 133.230677 87.923763 
L 134.044347 86.494014 
L 134.858018 84.391461 
L 135.671688 83.592482 
L 136.485359 85.653003 
L 137.299029 84.30737 
L 138.1127 87.335025 
L 138.92637 84.854024 
L 139.740041 85.232472 
L 140.553712 84.51761 
L 141.367382 81.952493 
L 142.181053 84.896083 
L 142.994723 84.181195 
L 143.808394 82.87762 
L 144.622064 84.433519 
L 145.435735 81.826344 
L 146.249405 82.961712 
L 147.063076 82.330966 
L 147.876746 80.817125 
L 148.690417 81.658137 
L 149.504087 80.733009 
L 150.317758 80.438653 
L 151.131429 81.195573 
L 151.945099 81.742253 
L 152.75877 80.60686 
L 154.386111 79.387376 
L 155.199781 78.252008 
L 156.013452 79.934031 
L 156.827122 79.471492 
L 157.640793 78.3361 
L 159.268134 80.354562 
L 160.081805 79.723791 
L 160.895475 78.083801 
L 161.709146 77.957652 
L 162.522816 78.924812 
L 163.336487 77.495088 
L 164.150157 77.579179 
L 164.963828 76.485845 
L 165.777498 77.747387 
L 166.591169 76.654052 
L 167.404839 77.326881 
L 168.21851 75.981248 
L 169.03218 76.780201 
L 169.845851 74.551499 
L 170.659522 75.644833 
L 171.473192 75.93919 
L 172.286863 75.308419 
L 173.100533 75.813041 
L 173.914204 75.476626 
L 174.727874 75.644833 
L 175.541545 75.140212 
L 176.355215 72.953567 
L 177.168886 74.467408 
L 177.982556 72.911509 
L 178.796227 74.509441 
L 179.609897 75.014062 
L 180.423568 73.626371 
L 181.237239 74.173051 
L 182.050909 74.887913 
L 182.86458 74.2992 
L 183.67825 73.247924 
L 184.491921 71.902291 
L 185.305591 73.54228 
L 186.119262 72.953567 
L 186.932932 73.752521 
L 187.746603 74.383292 
L 188.560273 71.649967 
L 189.373944 72.659211 
L 190.187614 74.004844 
L 191.001285 72.070498 
L 191.814956 71.818175 
L 192.628626 72.701244 
L 193.442297 71.27152 
L 194.255967 71.439727 
L 195.069638 72.827418 
L 195.883308 72.23868 
L 196.696979 70.72484 
L 197.510649 73.037658 
L 198.32432 70.935105 
L 199.13799 72.827418 
L 199.951661 71.734084 
L 200.765332 69.08485 
L 201.579002 71.061254 
L 202.392673 70.136127 
L 203.206343 71.061254 
L 204.020014 70.094094 
L 204.833684 69.463323 
L 205.647355 69.379207 
L 206.461025 68.580254 
L 208.902037 71.818175 
L 209.715707 69.379207 
L 210.529378 69.042817 
L 211.343049 69.421265 
L 212.156719 71.313578 
L 212.97039 71.103313 
L 213.78406 67.318712 
L 214.597731 68.412047 
L 215.411401 72.911509 
L 216.225072 65.636664 
L 217.038742 67.276654 
L 217.852413 69.673563 
L 219.479754 67.318712 
L 220.293424 68.369988 
L 221.107095 67.991541 
L 221.920766 68.916643 
L 222.734436 66.351526 
L 223.548107 67.781276 
L 224.361777 67.697159 
L 225.175448 65.888963 
L 225.989118 66.898206 
L 226.802789 66.729999 
L 227.616459 67.697159 
L 228.43013 66.309493 
L 229.2438 66.982297 
L 230.057471 66.267435 
L 230.871141 67.318712 
L 231.684812 65.468457 
L 232.498483 69.463323 
L 233.312153 66.309493 
L 234.125824 66.393584 
L 234.939494 64.795653 
L 235.753165 65.72078 
L 236.566835 64.122824 
L 237.380506 64.038733 
L 238.194176 65.552573 
L 239.007847 65.678722 
L 239.821517 65.510515 
L 240.635188 67.108446 
L 241.448859 67.276654 
L 243.0762 64.333089 
L 243.88987 65.426424 
L 244.703541 65.30025 
L 245.517211 65.468457 
L 246.330882 67.192563 
L 247.144552 66.561792 
L 247.958223 64.501297 
L 248.771893 65.552573 
L 250.399234 62.735133 
L 251.212905 64.54333 
L 252.026576 65.132042 
L 252.840246 63.702318 
L 253.653917 64.080766 
L 254.467587 63.870526 
L 255.281258 63.071547 
L 256.094928 63.323846 
L 256.908599 64.879744 
L 257.722269 64.837686 
L 258.53594 63.702318 
L 259.34961 61.557707 
L 260.163281 61.515649 
L 260.976951 63.407962 
L 261.790622 62.861307 
L 262.604293 61.221293 
L 263.417963 62.14642 
L 264.231634 61.725914 
L 265.045304 62.777191 
L 265.858975 63.492053 
L 266.672645 64.038733 
L 267.486316 63.534111 
L 268.299986 63.912584 
L 269.113657 62.6931 
L 269.927327 63.071547 
L 270.740998 62.819249 
L 271.554668 62.020271 
L 272.368339 60.296165 
L 273.18201 60.926936 
L 273.99568 62.566926 
L 274.809351 61.305409 
L 275.623021 63.576169 
L 276.436692 61.852064 
L 277.250362 64.54333 
L 278.064033 61.431558 
L 278.877703 61.557707 
L 279.691374 62.566926 
L 280.505044 63.239755 
L 281.318715 60.590547 
L 282.132386 62.651042 
L 283.759727 60.842845 
L 284.573397 60.716696 
L 285.387068 62.230536 
L 286.200738 62.608984 
L 287.014409 59.371063 
L 287.828079 59.665419 
L 288.64175 61.641823 
L 289.45542 61.810005 
L 290.269091 60.590547 
L 291.082761 60.422339 
L 291.896432 64.20694 
L 292.710103 62.314627 
L 293.523773 61.431558 
L 294.337444 63.155664 
L 295.151114 60.548489 
L 295.964785 61.557707 
L 296.778455 59.959776 
L 297.592126 58.78235 
L 298.405796 61.347467 
L 299.219467 59.959776 
L 300.033137 59.371063 
L 300.846808 59.244889 
L 302.474149 60.842845 
L 303.28782 59.707452 
L 304.10149 60.127983 
L 304.915161 62.14642 
L 305.728831 60.380281 
L 306.542502 60.926936 
L 307.356172 59.286947 
L 308.169843 62.314627 
L 308.983513 59.413096 
L 309.797184 60.127983 
L 310.610854 61.305409 
L 311.424525 59.87566 
L 312.238195 59.497212 
L 313.051866 62.482835 
L 313.865537 59.581303 
L 314.679207 62.272569 
L 315.492878 61.515649 
L 316.306548 61.221293 
L 317.933889 59.118739 
L 318.74756 60.758729 
L 319.56123 59.497212 
L 320.374901 60.001809 
L 321.188571 60.043867 
L 322.002242 59.665419 
L 322.815913 60.716696 
L 323.629583 58.99259 
L 324.443254 59.244889 
L 325.256924 60.422339 
L 326.070595 58.02543 
L 326.884265 58.698234 
L 327.697936 59.707452 
L 328.511606 57.899256 
L 329.325277 57.604899 
L 330.138947 58.319786 
L 330.952618 57.226452 
L 331.766288 60.212074 
L 332.579959 59.497212 
L 333.39363 59.707452 
L 334.2073 57.899256 
L 335.020971 58.02543 
L 335.834641 60.716696 
L 336.648312 60.548489 
L 337.461982 59.202856 
L 338.275653 56.679772 
L 339.089323 58.02543 
L 339.902994 58.487968 
L 340.716664 56.637739 
L 341.530335 57.47875 
L 342.344005 57.773106 
L 343.157676 57.100302 
L 343.971347 60.170016 
L 344.785017 58.614143 
L 345.598688 57.436692 
L 346.412358 59.623361 
L 347.226029 59.160797 
L 348.039699 58.445935 
L 348.85337 58.067463 
L 349.66704 57.226452 
L 350.480711 59.413096 
L 351.294381 57.142335 
L 352.108052 58.740292 
L 352.921722 59.74951 
L 353.735393 57.016186 
L 354.549064 59.202856 
L 355.362734 56.385415 
L 356.176405 58.530027 
L 356.990075 57.562866 
L 357.803746 59.455154 
L 358.617416 57.310543 
L 359.431087 56.091059 
L 360.244757 58.193612 
L 361.058428 57.226452 
L 362.685769 59.791568 
L 363.49944 55.08184 
L 364.31311 58.487968 
L 365.126781 56.091059 
L 365.940451 59.371063 
L 366.754122 56.805946 
L 367.567792 56.595681 
L 368.381463 58.277728 
L 369.195133 56.847979 
L 370.008804 57.815164 
L 370.822474 57.016186 
L 371.636145 55.96491 
L 372.449815 58.99259 
L 374.077157 55.712611 
L 374.890827 57.941314 
L 375.704498 56.637739 
L 376.518168 55.96491 
L 377.331839 56.217208 
L 378.145509 57.899256 
L 378.95918 55.83876 
L 379.77285 55.502346 
L 380.586521 58.02543 
L 382.213862 55.628495 
L 383.027532 56.385415 
L 383.841203 55.922852 
L 384.654874 56.805946 
L 385.468544 55.207989 
L 386.282215 57.058244 
L 387.095885 55.96491 
L 387.909556 56.006968 
L 388.723226 55.039782 
L 389.536897 54.703393 
L 390.350567 56.469531 
L 391.164238 56.301324 
L 391.977908 53.568 
L 392.791579 57.689015 
L 393.605249 55.460313 
L 394.41892 53.904415 
L 396.046261 56.805946 
L 396.859932 55.292106 
L 397.673602 54.451069 
L 398.487273 55.334139 
L 398.487273 55.334139 
" style="fill:none;stroke:#000000;stroke-linecap:square;stroke-width:1.5;"/>
   </g>
   <g id="patch_3">
    <path d="M 57.6 307.584 
L 57.6 41.472 
" style="fill:none;stroke:#000000;stroke-linecap:square;stroke-linejoin:miter;stroke-width:0.8;"/>
   </g>
   <g id="patch_4">
    <path d="M 414.72 307.584 
L 414.72 41.472 
" style="fill:none;stroke:#000000;stroke-linecap:square;stroke-linejoin:miter;stroke-width:0.8;"/>
   </g>
   <g id="patch_5">
    <path d="M 57.6 307.584 
L 414.72 307.584 
" style="fill:none;stroke:#000000;stroke-linecap:square;stroke-linejoin:miter;stroke-width:0.8;"/>
   </g>
   <g id="patch_6">
    <path d="M 57.6 41.472 
L 414.72 41.472 
" style="fill:none;stroke:#000000;stroke-linecap:square;stroke-linejoin:miter;stroke-width:0.8;"/>
   </g>
  </g>
  <g id="axes_2">
   <g id="matplotlib.axis_3">
    <g id="ytick_4">
     <g id="line2d_10">
      <path clip-path="url(#p49799232cc)" d="M 57.6 298.762397 
L 414.72 298.762397 
" style="fill:none;stroke:#b0b0b0;stroke-linecap:square;stroke-width:0.8;"/>
     </g>
     <g id="line2d_11">
      <defs>
       <path d="M 0 0 
L 3.5 0 
" id="m0d3d9d35ef" style="stroke:#000000;stroke-width:0.8;"/>
      </defs>
      <g>
       <use style="stroke:#000000;stroke-width:0.8;" x="414.72" xlink:href="#m0d3d9d35ef" y="298.762397"/>
      </g>
     </g>
     <g id="text_11">
      <!-- 0.0 -->
      <defs>
       <path d="M 10.203125 18.890625 
L 27.78125 18.890625 
L 27.78125 0 
L 10.203125 0 
z
" id="DejaVuSans-Bold-46"/>
      </defs>
      <g transform="translate(421.72 306.360834)scale(0.2 -0.2)">
       <use xlink:href="#DejaVuSans-Bold-48"/>
       <use x="69.580078" xlink:href="#DejaVuSans-Bold-46"/>
       <use x="107.568359" xlink:href="#DejaVuSans-Bold-48"/>
      </g>
     </g>
    </g>
    <g id="ytick_5">
     <g id="line2d_12">
      <path clip-path="url(#p49799232cc)" d="M 57.6 226.664351 
L 414.72 226.664351 
" style="fill:none;stroke:#b0b0b0;stroke-linecap:square;stroke-width:0.8;"/>
     </g>
     <g id="line2d_13">
      <g>
       <use style="stroke:#000000;stroke-width:0.8;" x="414.72" xlink:href="#m0d3d9d35ef" y="226.664351"/>
      </g>
     </g>
     <g id="text_12">
      <!-- 0.2 -->
      <g transform="translate(421.72 234.262789)scale(0.2 -0.2)">
       <use xlink:href="#DejaVuSans-Bold-48"/>
       <use x="69.580078" xlink:href="#DejaVuSans-Bold-46"/>
       <use x="107.568359" xlink:href="#DejaVuSans-Bold-50"/>
      </g>
     </g>
    </g>
    <g id="ytick_6">
     <g id="line2d_14">
      <path clip-path="url(#p49799232cc)" d="M 57.6 154.566305 
L 414.72 154.566305 
" style="fill:none;stroke:#b0b0b0;stroke-linecap:square;stroke-width:0.8;"/>
     </g>
     <g id="line2d_15">
      <g>
       <use style="stroke:#000000;stroke-width:0.8;" x="414.72" xlink:href="#m0d3d9d35ef" y="154.566305"/>
      </g>
     </g>
     <g id="text_13">
      <!-- 0.4 -->
      <g transform="translate(421.72 162.164743)scale(0.2 -0.2)">
       <use xlink:href="#DejaVuSans-Bold-48"/>
       <use x="69.580078" xlink:href="#DejaVuSans-Bold-46"/>
       <use x="107.568359" xlink:href="#DejaVuSans-Bold-52"/>
      </g>
     </g>
    </g>
    <g id="ytick_7">
     <g id="line2d_16">
      <path clip-path="url(#p49799232cc)" d="M 57.6 82.46826 
L 414.72 82.46826 
" style="fill:none;stroke:#b0b0b0;stroke-linecap:square;stroke-width:0.8;"/>
     </g>
     <g id="line2d_17">
      <g>
       <use style="stroke:#000000;stroke-width:0.8;" x="414.72" xlink:href="#m0d3d9d35ef" y="82.46826"/>
      </g>
     </g>
     <g id="text_14">
      <!-- 0.6 -->
      <g transform="translate(421.72 90.066697)scale(0.2 -0.2)">
       <use xlink:href="#DejaVuSans-Bold-48"/>
       <use x="69.580078" xlink:href="#DejaVuSans-Bold-46"/>
       <use x="107.568359" xlink:href="#DejaVuSans-Bold-54"/>
      </g>
     </g>
    </g>
    <g id="text_15">
     <!-- Laplacian Centrality -->
     <defs>
      <path d="M 9.8125 72.90625 
L 19.671875 72.90625 
L 19.671875 8.296875 
L 55.171875 8.296875 
L 55.171875 0 
L 9.8125 0 
z
" id="DejaVuSans-76"/>
      <path d="M 9.421875 75.984375 
L 18.40625 75.984375 
L 18.40625 0 
L 9.421875 0 
z
" id="DejaVuSans-108"/>
      <path d="M 9.421875 54.6875 
L 18.40625 54.6875 
L 18.40625 0 
L 9.421875 0 
z
M 9.421875 75.984375 
L 18.40625 75.984375 
L 18.40625 64.59375 
L 9.421875 64.59375 
z
" id="DejaVuSans-105"/>
      <path d="M 54.890625 33.015625 
L 54.890625 0 
L 45.90625 0 
L 45.90625 32.71875 
Q 45.90625 40.484375 42.875 44.328125 
Q 39.84375 48.1875 33.796875 48.1875 
Q 26.515625 48.1875 22.3125 43.546875 
Q 18.109375 38.921875 18.109375 30.90625 
L 18.109375 0 
L 9.078125 0 
L 9.078125 54.6875 
L 18.109375 54.6875 
L 18.109375 46.1875 
Q 21.34375 51.125 25.703125 53.5625 
Q 30.078125 56 35.796875 56 
Q 45.21875 56 50.046875 50.171875 
Q 54.890625 44.34375 54.890625 33.015625 
z
" id="DejaVuSans-110"/>
      <path d="M 64.40625 67.28125 
L 64.40625 56.890625 
Q 59.421875 61.53125 53.78125 63.8125 
Q 48.140625 66.109375 41.796875 66.109375 
Q 29.296875 66.109375 22.65625 58.46875 
Q 16.015625 50.828125 16.015625 36.375 
Q 16.015625 21.96875 22.65625 14.328125 
Q 29.296875 6.6875 41.796875 6.6875 
Q 48.140625 6.6875 53.78125 8.984375 
Q 59.421875 11.28125 64.40625 15.921875 
L 64.40625 5.609375 
Q 59.234375 2.09375 53.4375 0.328125 
Q 47.65625 -1.421875 41.21875 -1.421875 
Q 24.65625 -1.421875 15.125 8.703125 
Q 5.609375 18.84375 5.609375 36.375 
Q 5.609375 53.953125 15.125 64.078125 
Q 24.65625 74.21875 41.21875 74.21875 
Q 47.75 74.21875 53.53125 72.484375 
Q 59.328125 70.75 64.40625 67.28125 
z
" id="DejaVuSans-67"/>
      <path d="M 56.203125 29.59375 
L 56.203125 25.203125 
L 14.890625 25.203125 
Q 15.484375 15.921875 20.484375 11.0625 
Q 25.484375 6.203125 34.421875 6.203125 
Q 39.59375 6.203125 44.453125 7.46875 
Q 49.3125 8.734375 54.109375 11.28125 
L 54.109375 2.78125 
Q 49.265625 0.734375 44.1875 -0.34375 
Q 39.109375 -1.421875 33.890625 -1.421875 
Q 20.796875 -1.421875 13.15625 6.1875 
Q 5.515625 13.8125 5.515625 26.8125 
Q 5.515625 40.234375 12.765625 48.109375 
Q 20.015625 56 32.328125 56 
Q 43.359375 56 49.78125 48.890625 
Q 56.203125 41.796875 56.203125 29.59375 
z
M 47.21875 32.234375 
Q 47.125 39.59375 43.09375 43.984375 
Q 39.0625 48.390625 32.421875 48.390625 
Q 24.90625 48.390625 20.390625 44.140625 
Q 15.875 39.890625 15.1875 32.171875 
z
" id="DejaVuSans-101"/>
      <path d="M 18.3125 70.21875 
L 18.3125 54.6875 
L 36.8125 54.6875 
L 36.8125 47.703125 
L 18.3125 47.703125 
L 18.3125 18.015625 
Q 18.3125 11.328125 20.140625 9.421875 
Q 21.96875 7.515625 27.59375 7.515625 
L 36.8125 7.515625 
L 36.8125 0 
L 27.59375 0 
Q 17.1875 0 13.234375 3.875 
Q 9.28125 7.765625 9.28125 18.015625 
L 9.28125 47.703125 
L 2.6875 47.703125 
L 2.6875 54.6875 
L 9.28125 54.6875 
L 9.28125 70.21875 
z
" id="DejaVuSans-116"/>
     </defs>
     <g style="fill:#ff0000;" transform="translate(477.864688 284.421438)rotate(-90)scale(0.22 -0.22)">
      <use xlink:href="#DejaVuSans-76"/>
      <use x="55.712891" xlink:href="#DejaVuSans-97"/>
      <use x="116.992188" xlink:href="#DejaVuSans-112"/>
      <use x="180.46875" xlink:href="#DejaVuSans-108"/>
      <use x="208.251953" xlink:href="#DejaVuSans-97"/>
      <use x="269.53125" xlink:href="#DejaVuSans-99"/>
      <use x="324.511719" xlink:href="#DejaVuSans-105"/>
      <use x="352.294922" xlink:href="#DejaVuSans-97"/>
      <use x="413.574219" xlink:href="#DejaVuSans-110"/>
      <use x="476.953125" xlink:href="#DejaVuSans-32"/>
      <use x="508.740234" xlink:href="#DejaVuSans-67"/>
      <use x="578.564453" xlink:href="#DejaVuSans-101"/>
      <use x="640.087891" xlink:href="#DejaVuSans-110"/>
      <use x="703.466797" xlink:href="#DejaVuSans-116"/>
      <use x="742.675781" xlink:href="#DejaVuSans-114"/>
      <use x="783.789062" xlink:href="#DejaVuSans-97"/>
      <use x="845.068359" xlink:href="#DejaVuSans-108"/>
      <use x="872.851562" xlink:href="#DejaVuSans-105"/>
      <use x="900.634766" xlink:href="#DejaVuSans-116"/>
      <use x="939.84375" xlink:href="#DejaVuSans-121"/>
     </g>
    </g>
   </g>
   <g id="line2d_18">
    <path clip-path="url(#p49799232cc)" d="M 73.832727 295.488 
L 74.646398 295.185814 
L 75.460068 293.955007 
L 76.273739 293.60998 
L 78.714751 292.117078 
L 82.783103 288.534735 
L 83.596774 288.228016 
L 84.410444 287.493835 
L 86.851456 285.901711 
L 87.665126 285.767178 
L 89.292468 284.475389 
L 90.106138 284.331905 
L 91.733479 283.481392 
L 93.36082 282.454605 
L 96.615502 280.887349 
L 97.429173 280.729423 
L 98.242843 280.374855 
L 99.056514 279.754401 
L 99.870185 279.311227 
L 100.683855 279.008836 
L 101.497526 278.967471 
L 102.311196 278.669934 
L 103.124867 277.564968 
L 103.938537 277.068042 
L 104.752208 276.789043 
L 106.379549 275.492947 
L 107.193219 275.820099 
L 108.00689 275.08951 
L 110.447902 273.939276 
L 111.261572 273.813548 
L 112.075243 273.171389 
L 112.888913 272.381784 
L 114.516254 271.606848 
L 116.143595 270.662235 
L 116.957266 269.918428 
L 117.770936 269.562805 
L 118.584607 268.996443 
L 119.398278 268.714819 
L 120.211948 267.811187 
L 121.025619 267.851508 
L 121.839289 266.60127 
L 122.65296 266.777624 
L 123.46663 266.785829 
L 124.280301 265.92511 
L 125.093971 265.351839 
L 125.907642 264.608324 
L 126.721312 264.317995 
L 127.534983 263.730754 
L 129.162324 262.816698 
L 129.975995 261.960119 
L 130.789665 261.606577 
L 131.603336 260.93758 
L 134.044347 259.403647 
L 135.671688 258.117853 
L 136.485359 257.810831 
L 138.1127 256.552116 
L 138.92637 255.459478 
L 139.740041 255.175812 
L 140.553712 255.102671 
L 141.367382 254.887721 
L 142.181053 253.42541 
L 142.994723 253.135007 
L 143.808394 252.697574 
L 144.622064 251.791085 
L 146.249405 251.792913 
L 147.063076 251.101525 
L 147.876746 249.976405 
L 148.690417 249.568602 
L 149.504087 248.056828 
L 150.317758 248.021483 
L 151.131429 247.566325 
L 151.945099 246.944939 
L 152.75877 246.023974 
L 156.013452 243.961022 
L 156.827122 243.083684 
L 157.640793 242.547499 
L 158.454463 242.433916 
L 159.268134 240.943946 
L 160.081805 240.523981 
L 160.895475 240.620859 
L 162.522816 239.655148 
L 163.336487 238.617989 
L 164.150157 238.907366 
L 165.777498 237.248713 
L 166.591169 237.170969 
L 167.404839 235.380745 
L 168.21851 235.03265 
L 169.03218 235.00464 
L 169.845851 233.804901 
L 170.659522 233.89885 
L 171.473192 232.732495 
L 172.286863 232.610484 
L 173.914204 231.464584 
L 176.355215 228.723295 
L 177.168886 228.18327 
L 177.982556 228.37037 
L 178.796227 227.905228 
L 179.609897 227.191535 
L 180.423568 226.183997 
L 181.237239 225.979534 
L 182.050909 225.604557 
L 182.86458 224.253351 
L 183.67825 223.912159 
L 185.305591 222.07265 
L 186.119262 221.446536 
L 186.932932 221.396052 
L 187.746603 221.012675 
L 188.560273 220.197778 
L 189.373944 219.66287 
L 190.187614 218.833647 
L 191.001285 218.433309 
L 192.628626 218.146917 
L 193.442297 216.770406 
L 194.255967 215.62166 
L 195.069638 214.9321 
L 195.883308 214.589025 
L 196.696979 213.563383 
L 197.510649 212.997972 
L 199.13799 212.133758 
L 199.951661 211.645363 
L 200.765332 209.861237 
L 201.579002 210.040352 
L 202.392673 209.249364 
L 203.206343 209.583256 
L 204.020014 209.145234 
L 204.833684 206.728443 
L 206.461025 206.497236 
L 207.274696 205.68337 
L 208.088366 205.378037 
L 208.902037 203.979742 
L 209.715707 204.289334 
L 210.529378 203.445053 
L 211.343049 202.990267 
L 212.156719 201.750727 
L 214.597731 199.407703 
L 215.411401 198.455916 
L 216.225072 198.506884 
L 217.038742 198.272558 
L 217.852413 197.47667 
L 218.666083 197.966293 
L 219.479754 196.237351 
L 220.293424 196.128802 
L 221.107095 194.828529 
L 221.920766 194.999818 
L 222.734436 193.206499 
L 223.548107 193.682789 
L 224.361777 192.373583 
L 225.175448 191.475985 
L 225.989118 191.587228 
L 226.802789 191.495544 
L 227.616459 190.249434 
L 228.43013 189.681378 
L 229.2438 187.996919 
L 230.871141 187.15919 
L 231.684812 187.329385 
L 233.312153 184.772677 
L 234.125824 185.826809 
L 234.939494 185.427807 
L 235.753165 184.011712 
L 236.566835 184.127122 
L 237.380506 182.506389 
L 238.194176 183.212045 
L 239.821517 181.760916 
L 241.448859 179.466906 
L 243.0762 178.534687 
L 243.88987 176.624907 
L 244.703541 177.147049 
L 246.330882 174.371281 
L 247.144552 175.603561 
L 247.958223 174.778064 
L 248.771893 173.668961 
L 249.585564 172.982252 
L 250.399234 173.018533 
L 251.212905 171.529289 
L 252.026576 170.751335 
L 252.840246 169.397277 
L 253.653917 170.022735 
L 254.467587 168.638788 
L 255.281258 167.923718 
L 256.094928 167.026103 
L 257.722269 165.695537 
L 258.53594 164.132631 
L 259.34961 164.396153 
L 260.163281 163.763135 
L 260.976951 162.488383 
L 261.790622 163.088536 
L 262.604293 162.317215 
L 263.417963 160.467119 
L 264.231634 160.678943 
L 265.045304 159.687789 
L 265.858975 159.898347 
L 266.672645 158.465969 
L 268.299986 157.352318 
L 269.113657 157.801031 
L 269.927327 156.674473 
L 270.740998 156.511933 
L 271.554668 155.193596 
L 272.368339 154.302438 
L 273.18201 154.530867 
L 273.99568 154.131427 
L 274.809351 152.791656 
L 275.623021 152.134605 
L 276.436692 151.644232 
L 277.250362 151.946444 
L 278.064033 150.543109 
L 278.877703 149.624189 
L 279.691374 148.180564 
L 280.505044 147.436468 
L 281.318715 147.958222 
L 282.946056 146.489218 
L 283.759727 145.928816 
L 284.573397 146.010254 
L 286.200738 143.094271 
L 287.014409 143.259961 
L 287.828079 141.824217 
L 289.45542 140.312361 
L 290.269091 140.365537 
L 291.082761 140.212325 
L 291.896432 138.852775 
L 292.710103 139.240923 
L 293.523773 136.919369 
L 294.337444 136.935275 
L 295.964785 135.592914 
L 297.592126 134.487725 
L 298.405796 133.020695 
L 299.219467 132.993768 
L 300.033137 132.037736 
L 300.846808 131.713648 
L 301.660478 132.119199 
L 302.474149 131.444472 
L 303.28782 130.109598 
L 304.10149 129.266202 
L 304.915161 129.540146 
L 305.728831 127.850911 
L 306.542502 127.234095 
L 307.356172 127.828446 
L 308.169843 127.377685 
L 308.983513 125.749543 
L 310.610854 123.73276 
L 311.424525 121.942011 
L 312.238195 123.083425 
L 313.051866 123.858761 
L 313.865537 121.805604 
L 314.679207 120.990009 
L 315.492878 120.430505 
L 316.306548 121.388253 
L 317.120219 119.61931 
L 317.933889 118.650392 
L 318.74756 119.364036 
L 319.56123 118.091321 
L 321.188571 116.631484 
L 322.002242 115.680117 
L 323.629583 112.638918 
L 324.443254 113.716773 
L 325.256924 113.015874 
L 326.070595 113.042805 
L 326.884265 112.242247 
L 328.511606 111.401703 
L 329.325277 111.386856 
L 330.138947 109.767486 
L 331.766288 108.989191 
L 332.579959 106.919214 
L 333.39363 106.526561 
L 334.2073 105.214516 
L 335.020971 105.012754 
L 335.834641 102.96997 
L 336.648312 102.799408 
L 337.461982 103.524708 
L 338.275653 101.797577 
L 339.089323 101.113994 
L 339.902994 101.202751 
L 340.716664 100.710692 
L 341.530335 100.396999 
L 342.344005 99.351726 
L 343.157676 98.013294 
L 343.971347 98.188728 
L 344.785017 96.997324 
L 345.598688 96.241502 
L 346.412358 94.505343 
L 348.039699 92.423309 
L 349.66704 92.134382 
L 350.480711 92.469618 
L 352.108052 90.882768 
L 352.921722 89.370715 
L 353.735393 89.848946 
L 355.362734 87.384511 
L 356.176405 87.259973 
L 356.990075 86.853675 
L 357.803746 84.824792 
L 358.617416 85.372867 
L 359.431087 86.363368 
L 360.244757 84.40892 
L 361.058428 83.68603 
L 361.872098 82.806077 
L 362.685769 81.482648 
L 363.49944 80.748808 
L 364.31311 80.828467 
L 365.126781 80.708865 
L 365.940451 79.983132 
L 366.754122 80.770995 
L 367.567792 79.154681 
L 368.381463 78.594977 
L 369.195133 75.672822 
L 370.008804 75.705658 
L 370.822474 73.798151 
L 371.636145 74.243301 
L 372.449815 72.639979 
L 373.263486 72.934 
L 374.077157 72.360585 
L 374.890827 71.989683 
L 375.704498 71.76555 
L 376.518168 70.608436 
L 377.331839 70.499767 
L 378.145509 68.640863 
L 378.95918 68.315444 
L 379.77285 66.402235 
L 380.586521 66.910684 
L 381.400191 65.57241 
L 382.213862 66.539658 
L 383.841203 63.553288 
L 385.468544 63.612154 
L 386.282215 62.834655 
L 387.095885 63.454849 
L 387.909556 63.043754 
L 388.723226 62.102029 
L 390.350567 59.299289 
L 391.164238 59.263829 
L 391.977908 58.526242 
L 392.791579 57.35391 
L 393.605249 57.206738 
L 394.41892 55.932499 
L 395.232591 56.318184 
L 396.046261 55.86373 
L 396.859932 54.396924 
L 397.673602 53.568 
L 398.487273 54.615014 
L 398.487273 54.615014 
" style="fill:none;stroke:#ff0000;stroke-linecap:square;stroke-width:1.5;"/>
   </g>
   <g id="patch_7">
    <path d="M 57.6 307.584 
L 57.6 41.472 
" style="fill:none;stroke:#000000;stroke-linecap:square;stroke-linejoin:miter;stroke-width:0.8;"/>
   </g>
   <g id="patch_8">
    <path d="M 414.72 307.584 
L 414.72 41.472 
" style="fill:none;stroke:#000000;stroke-linecap:square;stroke-linejoin:miter;stroke-width:0.8;"/>
   </g>
   <g id="patch_9">
    <path d="M 57.6 307.584 
L 414.72 307.584 
" style="fill:none;stroke:#000000;stroke-linecap:square;stroke-linejoin:miter;stroke-width:0.8;"/>
   </g>
   <g id="patch_10">
    <path d="M 57.6 41.472 
L 414.72 41.472 
" style="fill:none;stroke:#000000;stroke-linecap:square;stroke-linejoin:miter;stroke-width:0.8;"/>
   </g>
  </g>
 </g>
 <defs>
  <clipPath id="p49799232cc">
   <rect height="266.112" width="357.12" x="57.6" y="41.472"/>
  </clipPath>
 </defs>
</svg>
